<?xml version="1.0" encoding="UTF-8" standalone="no"?>
<!DOCTYPE svg PUBLIC "-//W3C//DTD SVG 1.1//EN"
 "http://www.w3.org/Graphics/SVG/1.1/DTD/svg11.dtd">
<!-- Generated by graphviz version 2.43.0 (0)
 -->
<!-- Title: include/TechMa/Entities/AIntervention.h Pages: 1 -->
<svg width="1067pt" height="236pt"
 viewBox="0.00 0.00 1067.00 236.00" xmlns="http://www.w3.org/2000/svg" xmlns:xlink="http://www.w3.org/1999/xlink">
<g id="graph0" class="graph" transform="scale(1 1) rotate(0) translate(4 232)">
<title>include/TechMa/Entities/AIntervention.h</title>
<!-- Node1 -->
<g id="Node000001" class="node">
<title>Node1</title>
<g id="a_Node000001"><a xlink:title="Defines the abstract base class AIntervention for representing interventions.">
<polygon fill="#999999" stroke="#666666" points="573,-228 442,-228 442,-198 573,-198 573,-228"/>
<text text-anchor="start" x="450" y="-216" font-family="Helvetica,sans-Serif" font-size="10.00">include/TechMa/Entities</text>
<text text-anchor="middle" x="507.5" y="-205" font-family="Helvetica,sans-Serif" font-size="10.00">/AIntervention.h</text>
</a>
</g>
</g>
<!-- Node2 -->
<g id="Node000002" class="node">
<title>Node2</title>
<g id="a_Node000002"><a xlink:href="ConcreteIntervention_8h.html" target="_top" xlink:title="Declares the ConcreteIntervention class, a concrete implementation of AIntervention.">
<polygon fill="white" stroke="#666666" points="262,-162 131,-162 131,-132 262,-132 262,-162"/>
<text text-anchor="start" x="139" y="-150" font-family="Helvetica,sans-Serif" font-size="10.00">include/TechMa/Entities</text>
<text text-anchor="middle" x="196.5" y="-139" font-family="Helvetica,sans-Serif" font-size="10.00">/ConcreteIntervention.h</text>
</a>
</g>
</g>
<!-- Node1&#45;&gt;Node2 -->
<g id="edge1_Node000001_Node000002" class="edge">
<title>Node1&#45;&gt;Node2</title>
<g id="a_edge1_Node000001_Node000002"><a xlink:title=" ">
<path fill="none" stroke="#63b8ff" d="M432.1,-196.48C380.21,-185.8 311.94,-171.76 262.25,-161.53"/>
<polygon fill="#63b8ff" stroke="#63b8ff" points="431.42,-199.92 441.92,-198.51 432.84,-193.06 431.42,-199.92"/>
</a>
</g>
</g>
<!-- Node5 -->
<g id="Node000005" class="node">
<title>Node5</title>
<g id="a_Node000005"><a xlink:href="InterventionCreatorFacade_8h.html" target="_top" xlink:title="Declares the InterventionCreatorFacade class, which provides a simplified interface for creating inte...">
<polygon fill="white" stroke="#666666" points="586.5,-162 428.5,-162 428.5,-132 586.5,-132 586.5,-162"/>
<text text-anchor="start" x="436.5" y="-150" font-family="Helvetica,sans-Serif" font-size="10.00">include/TechMa/Facade</text>
<text text-anchor="middle" x="507.5" y="-139" font-family="Helvetica,sans-Serif" font-size="10.00">/InterventionCreatorFacade.h</text>
</a>
</g>
</g>
<!-- Node1&#45;&gt;Node5 -->
<g id="edge4_Node000001_Node000005" class="edge">
<title>Node1&#45;&gt;Node5</title>
<g id="a_edge4_Node000001_Node000005"><a xlink:title=" ">
<path fill="none" stroke="#63b8ff" d="M507.5,-187.54C507.5,-178.96 507.5,-169.61 507.5,-162.16"/>
<polygon fill="#63b8ff" stroke="#63b8ff" points="504,-187.8 507.5,-197.8 511,-187.8 504,-187.8"/>
</a>
</g>
</g>
<!-- Node8 -->
<g id="Node000008" class="node">
<title>Node8</title>
<g id="a_Node000008"><a xlink:href="InterventionFactory_8h.html" target="_top" xlink:title="Declares the InterventionFactory class responsible for creating intervention instances.">
<polygon fill="white" stroke="#666666" points="410.5,-162 280.5,-162 280.5,-132 410.5,-132 410.5,-162"/>
<text text-anchor="start" x="288.5" y="-150" font-family="Helvetica,sans-Serif" font-size="10.00">include/TechMa/Factory</text>
<text text-anchor="middle" x="345.5" y="-139" font-family="Helvetica,sans-Serif" font-size="10.00">/InterventionFactory.h</text>
</a>
</g>
</g>
<!-- Node1&#45;&gt;Node8 -->
<g id="edge7_Node000001_Node000008" class="edge">
<title>Node1&#45;&gt;Node8</title>
<g id="a_edge7_Node000001_Node000008"><a xlink:title=" ">
<path fill="none" stroke="#63b8ff" d="M462.41,-194.19C436.69,-184.02 404.9,-171.47 380.97,-162.01"/>
<polygon fill="#63b8ff" stroke="#63b8ff" points="461.36,-197.54 471.95,-197.95 463.93,-191.03 461.36,-197.54"/>
</a>
</g>
</g>
<!-- Node9 -->
<g id="Node000009" class="node">
<title>Node9</title>
<g id="a_Node000009"><a xlink:href="InterventionRepository_8h.html" target="_top" xlink:title="Declares the InterventionRepository class, which manages storage and access to interventions.">
<polygon fill="white" stroke="#666666" points="830,-162 683,-162 683,-132 830,-132 830,-162"/>
<text text-anchor="start" x="691" y="-150" font-family="Helvetica,sans-Serif" font-size="10.00">include/TechMa/Repository</text>
<text text-anchor="middle" x="756.5" y="-139" font-family="Helvetica,sans-Serif" font-size="10.00">/InterventionRepository.h</text>
</a>
</g>
</g>
<!-- Node1&#45;&gt;Node9 -->
<g id="edge10_Node000001_Node000009" class="edge">
<title>Node1&#45;&gt;Node9</title>
<g id="a_edge10_Node000001_Node000009"><a xlink:title=" ">
<path fill="none" stroke="#63b8ff" d="M571.88,-195.45C612.23,-185.08 663.66,-171.86 701.98,-162.01"/>
<polygon fill="#63b8ff" stroke="#63b8ff" points="570.96,-192.08 562.14,-197.95 572.7,-198.86 570.96,-192.08"/>
</a>
</g>
</g>
<!-- Node10 -->
<g id="Node000010" class="node">
<title>Node10</title>
<g id="a_Node000010"><a xlink:href="InterventionRepositoryProxy_8h.html" target="_top" xlink:title="Declares the InterventionRepositoryProxy class, a proxy to the actual intervention repository.">
<polygon fill="white" stroke="#666666" points="701,-96 534,-96 534,-66 701,-66 701,-96"/>
<text text-anchor="start" x="542" y="-84" font-family="Helvetica,sans-Serif" font-size="10.00">include/TechMa/Repository</text>
<text text-anchor="middle" x="617.5" y="-73" font-family="Helvetica,sans-Serif" font-size="10.00">/InterventionRepositoryProxy.h</text>
</a>
</g>
</g>
<!-- Node1&#45;&gt;Node10 -->
<g id="edge16_Node000001_Node000010" class="edge">
<title>Node1&#45;&gt;Node10</title>
<g id="a_edge16_Node000001_Node000010"><a xlink:title=" ">
<path fill="none" stroke="#63b8ff" d="M555.49,-193.44C570.16,-185.69 585.13,-175.32 595.5,-162 610.63,-142.56 615.36,-113.4 616.84,-96.17"/>
<polygon fill="#63b8ff" stroke="#63b8ff" points="553.84,-190.35 546.44,-197.93 556.95,-196.62 553.84,-190.35"/>
</a>
</g>
</g>
<!-- Node3 -->
<g id="Node000003" class="node">
<title>Node3</title>
<g id="a_Node000003"><a xlink:href="InterventionFactory_8cpp.html" target="_top" xlink:title="Implements the InterventionFactory class.">
<polygon fill="white" stroke="#666666" points="294,-96 163,-96 163,-66 294,-66 294,-96"/>
<text text-anchor="start" x="171" y="-84" font-family="Helvetica,sans-Serif" font-size="10.00">src/Factory/Intervention</text>
<text text-anchor="middle" x="228.5" y="-73" font-family="Helvetica,sans-Serif" font-size="10.00">Factory.cpp</text>
</a>
</g>
</g>
<!-- Node2&#45;&gt;Node3 -->
<g id="edge2_Node000002_Node000003" class="edge">
<title>Node2&#45;&gt;Node3</title>
<g id="a_edge2_Node000002_Node000003"><a xlink:title=" ">
<path fill="none" stroke="#63b8ff" d="M208.16,-122.68C212.6,-113.79 217.53,-103.95 221.42,-96.16"/>
<polygon fill="#63b8ff" stroke="#63b8ff" points="204.94,-121.29 203.6,-131.8 211.2,-124.42 204.94,-121.29"/>
</a>
</g>
</g>
<!-- Node4 -->
<g id="Node000004" class="node">
<title>Node4</title>
<g id="a_Node000004"><a xlink:href="ConcreteIntervention_8cpp.html" target="_top" xlink:title="Implements the ConcreteIntervention class.">
<polygon fill="white" stroke="#666666" points="145,-96 0,-96 0,-66 145,-66 145,-96"/>
<text text-anchor="start" x="8" y="-84" font-family="Helvetica,sans-Serif" font-size="10.00">src/Interventions/Concrete</text>
<text text-anchor="middle" x="72.5" y="-73" font-family="Helvetica,sans-Serif" font-size="10.00">Intervention.cpp</text>
</a>
</g>
</g>
<!-- Node2&#45;&gt;Node4 -->
<g id="edge3_Node000002_Node000004" class="edge">
<title>Node2&#45;&gt;Node4</title>
<g id="a_edge3_Node000002_Node000004"><a xlink:title=" ">
<path fill="none" stroke="#63b8ff" d="M160.16,-127.24C140.8,-117.25 117.4,-105.18 99.65,-96.01"/>
<polygon fill="#63b8ff" stroke="#63b8ff" points="158.8,-130.48 169.29,-131.95 162.01,-124.26 158.8,-130.48"/>
</a>
</g>
</g>
<!-- Node6 -->
<g id="Node000006" class="node">
<title>Node6</title>
<g id="a_Node000006"><a xlink:href="InterventionCreatorFacade_8cpp.html" target="_top" xlink:title="Implements the InterventionCreatorFacade class.">
<polygon fill="white" stroke="#666666" points="478.5,-96 312.5,-96 312.5,-66 478.5,-66 478.5,-96"/>
<text text-anchor="start" x="320.5" y="-84" font-family="Helvetica,sans-Serif" font-size="10.00">src/Facade/InterventionCreator</text>
<text text-anchor="middle" x="395.5" y="-73" font-family="Helvetica,sans-Serif" font-size="10.00">Facade.cpp</text>
</a>
</g>
</g>
<!-- Node5&#45;&gt;Node6 -->
<g id="edge5_Node000005_Node000006" class="edge">
<title>Node5&#45;&gt;Node6</title>
<g id="a_edge5_Node000005_Node000006"><a xlink:title=" ">
<path fill="none" stroke="#63b8ff" d="M474.19,-126.97C456.81,-117.03 435.91,-105.09 420.02,-96.01"/>
<polygon fill="#63b8ff" stroke="#63b8ff" points="472.5,-130.03 482.92,-131.95 475.98,-123.95 472.5,-130.03"/>
</a>
</g>
</g>
<!-- Node7 -->
<g id="Node000007" class="node">
<title>Node7</title>
<g id="a_Node000007"><a xlink:href="InterventionPage_8cpp.html" target="_top" xlink:title="Implements the InterventionPage class, a QWidget handling intervention&#45;related UI and interactions.">
<polygon fill="white" stroke="#666666" points="585,-30 428,-30 428,0 585,0 585,-30"/>
<text text-anchor="start" x="436" y="-18" font-family="Helvetica,sans-Serif" font-size="10.00">src/Views/Pages/Intervention</text>
<text text-anchor="middle" x="506.5" y="-7" font-family="Helvetica,sans-Serif" font-size="10.00">Page.cpp</text>
</a>
</g>
</g>
<!-- Node5&#45;&gt;Node7 -->
<g id="edge6_Node000005_Node000007" class="edge">
<title>Node5&#45;&gt;Node7</title>
<g id="a_edge6_Node000005_Node000007"><a xlink:title=" ">
<path fill="none" stroke="#63b8ff" d="M507.31,-121.68C507.11,-94.7 506.78,-52.11 506.61,-30.14"/>
<polygon fill="#63b8ff" stroke="#63b8ff" points="503.81,-121.87 507.39,-131.84 510.81,-121.81 503.81,-121.87"/>
</a>
</g>
</g>
<!-- Node8&#45;&gt;Node3 -->
<g id="edge9_Node000008_Node000003" class="edge">
<title>Node8&#45;&gt;Node3</title>
<g id="a_edge9_Node000008_Node000003"><a xlink:title=" ">
<path fill="none" stroke="#63b8ff" d="M310.71,-126.97C292.55,-117.03 270.72,-105.09 254.12,-96.01"/>
<polygon fill="#63b8ff" stroke="#63b8ff" points="309.37,-130.23 319.82,-131.95 312.73,-124.09 309.37,-130.23"/>
</a>
</g>
</g>
<!-- Node8&#45;&gt;Node6 -->
<g id="edge8_Node000008_Node000006" class="edge">
<title>Node8&#45;&gt;Node6</title>
<g id="a_edge8_Node000008_Node000006"><a xlink:title=" ">
<path fill="none" stroke="#63b8ff" d="M362.84,-123.81C370,-114.64 378.1,-104.28 384.43,-96.16"/>
<polygon fill="#63b8ff" stroke="#63b8ff" points="360,-121.76 356.6,-131.8 365.51,-126.07 360,-121.76"/>
</a>
</g>
</g>
<!-- Node9&#45;&gt;Node10 -->
<g id="edge11_Node000009_Node000010" class="edge">
<title>Node9&#45;&gt;Node10</title>
<g id="a_edge11_Node000009_Node000010"><a xlink:title=" ">
<path fill="none" stroke="#63b8ff" d="M716.64,-127.65C694.78,-117.58 668.11,-105.3 647.93,-96.01"/>
<polygon fill="#63b8ff" stroke="#63b8ff" points="715.45,-130.95 726,-131.95 718.38,-124.59 715.45,-130.95"/>
</a>
</g>
</g>
<!-- Node12 -->
<g id="Node000012" class="node">
<title>Node12</title>
<g id="a_Node000012"><a xlink:href="InterventionRepository_8cpp.html" target="_top" xlink:title="Implements the InterventionRepository singleton class.">
<polygon fill="white" stroke="#666666" points="868,-96 719,-96 719,-66 868,-66 868,-96"/>
<text text-anchor="start" x="727" y="-84" font-family="Helvetica,sans-Serif" font-size="10.00">src/Repository/Intervention</text>
<text text-anchor="middle" x="793.5" y="-73" font-family="Helvetica,sans-Serif" font-size="10.00">Repository.cpp</text>
</a>
</g>
</g>
<!-- Node9&#45;&gt;Node12 -->
<g id="edge14_Node000009_Node000012" class="edge">
<title>Node9&#45;&gt;Node12</title>
<g id="a_edge14_Node000009_Node000012"><a xlink:title=" ">
<path fill="none" stroke="#63b8ff" d="M769.82,-122.96C775,-114 780.76,-104.03 785.31,-96.16"/>
<polygon fill="#63b8ff" stroke="#63b8ff" points="766.69,-121.39 764.71,-131.8 772.75,-124.89 766.69,-121.39"/>
</a>
</g>
</g>
<!-- Node13 -->
<g id="Node000013" class="node">
<title>Node13</title>
<g id="a_Node000013"><a xlink:href="InterventionsListView_8cpp.html" target="_top" xlink:title="Implements the InterventionsListView class, a QListView for browsing interventions.">
<polygon fill="white" stroke="#666666" points="1059,-96 886,-96 886,-66 1059,-66 1059,-96"/>
<text text-anchor="start" x="894" y="-84" font-family="Helvetica,sans-Serif" font-size="10.00">src/Views/Widgets/Interventions</text>
<text text-anchor="middle" x="972.5" y="-73" font-family="Helvetica,sans-Serif" font-size="10.00">ListView.cpp</text>
</a>
</g>
</g>
<!-- Node9&#45;&gt;Node13 -->
<g id="edge15_Node000009_Node000013" class="edge">
<title>Node9&#45;&gt;Node13</title>
<g id="a_edge15_Node000009_Node000013"><a xlink:title=" ">
<path fill="none" stroke="#63b8ff" d="M813.91,-128.99C848.67,-118.69 892.45,-105.72 925.21,-96.01"/>
<polygon fill="#63b8ff" stroke="#63b8ff" points="812.5,-125.76 803.9,-131.95 814.48,-132.47 812.5,-125.76"/>
</a>
</g>
</g>
<!-- Node10&#45;&gt;Node7 -->
<g id="edge13_Node000010_Node000007" class="edge">
<title>Node10&#45;&gt;Node7</title>
<g id="a_edge13_Node000010_Node000007"><a xlink:title=" ">
<path fill="none" stroke="#63b8ff" d="M584.02,-60.69C566.88,-50.82 546.41,-39.01 530.8,-30.01"/>
<polygon fill="#63b8ff" stroke="#63b8ff" points="582.73,-63.99 593.14,-65.95 586.23,-57.93 582.73,-63.99"/>
</a>
</g>
</g>
<!-- Node11 -->
<g id="Node000011" class="node">
<title>Node11</title>
<g id="a_Node000011"><a xlink:href="InterventionRepositoryProxy_8cpp.html" target="_top" xlink:title="Implements the InterventionRepositoryProxy class, a secure proxy to the InterventionRepository.">
<polygon fill="white" stroke="#666666" points="752,-30 603,-30 603,0 752,0 752,-30"/>
<text text-anchor="start" x="611" y="-18" font-family="Helvetica,sans-Serif" font-size="10.00">src/Repository/Intervention</text>
<text text-anchor="middle" x="677.5" y="-7" font-family="Helvetica,sans-Serif" font-size="10.00">RepositoryProxy.cpp</text>
</a>
</g>
</g>
<!-- Node10&#45;&gt;Node11 -->
<g id="edge12_Node000010_Node000011" class="edge">
<title>Node10&#45;&gt;Node11</title>
<g id="a_edge12_Node000010_Node000011"><a xlink:title=" ">
<path fill="none" stroke="#63b8ff" d="M637.78,-58.37C646.51,-49.06 656.46,-38.44 664.22,-30.16"/>
<polygon fill="#63b8ff" stroke="#63b8ff" points="635.1,-56.11 630.82,-65.8 640.21,-60.89 635.1,-56.11"/>
</a>
</g>
</g>
</g>
</svg>
