<?xml version="1.0" encoding="UTF-8" standalone="no"?>
<!DOCTYPE svg PUBLIC "-//W3C//DTD SVG 1.1//EN"
 "http://www.w3.org/Graphics/SVG/1.1/DTD/svg11.dtd">
<!-- Generated by graphviz version 2.43.0 (0)
 -->
<!-- Title: include/TechMa/Observer/ATechnicianObserver.h Pages: 1 -->
<svg width="1553pt" height="236pt"
 viewBox="0.00 0.00 1552.50 236.00" xmlns="http://www.w3.org/2000/svg" xmlns:xlink="http://www.w3.org/1999/xlink">
<g id="graph0" class="graph" transform="scale(1 1) rotate(0) translate(4 232)">
<title>include/TechMa/Observer/ATechnicianObserver.h</title>
<!-- Node1 -->
<g id="Node000001" class="node">
<title>Node1</title>
<g id="a_Node000001"><a xlink:title="Declares the ATechnicianObserver interface used for observing technician&#45;related changes.">
<polygon fill="#999999" stroke="#666666" points="879,-228 740,-228 740,-198 879,-198 879,-228"/>
<text text-anchor="start" x="748" y="-216" font-family="Helvetica,sans-Serif" font-size="10.00">include/TechMa/Observer</text>
<text text-anchor="middle" x="809.5" y="-205" font-family="Helvetica,sans-Serif" font-size="10.00">/ATechnicianObserver.h</text>
</a>
</g>
</g>
<!-- Node2 -->
<g id="Node000002" class="node">
<title>Node2</title>
<g id="a_Node000002"><a xlink:href="TechnicianRepository_8h.html" target="_top" xlink:title="Declares the TechnicianRepository class, responsible for storing and managing technicians.">
<polygon fill="white" stroke="#666666" points="883,-162 736,-162 736,-132 883,-132 883,-162"/>
<text text-anchor="start" x="744" y="-150" font-family="Helvetica,sans-Serif" font-size="10.00">include/TechMa/Repository</text>
<text text-anchor="middle" x="809.5" y="-139" font-family="Helvetica,sans-Serif" font-size="10.00">/TechnicianRepository.h</text>
</a>
</g>
</g>
<!-- Node1&#45;&gt;Node2 -->
<g id="edge1_Node000001_Node000002" class="edge">
<title>Node1&#45;&gt;Node2</title>
<g id="a_edge1_Node000001_Node000002"><a xlink:title=" ">
<path fill="none" stroke="#63b8ff" d="M809.5,-187.54C809.5,-178.96 809.5,-169.61 809.5,-162.16"/>
<polygon fill="#63b8ff" stroke="#63b8ff" points="806,-187.8 809.5,-197.8 813,-187.8 806,-187.8"/>
</a>
</g>
</g>
<!-- Node3 -->
<g id="Node000003" class="node">
<title>Node3</title>
<g id="a_Node000003"><a xlink:href="TechnicianRepositoryProxy_8h.html" target="_top" xlink:title="Declares the TechnicianRepositoryProxy class and the AccessDeniedException.">
<polygon fill="white" stroke="#666666" points="483.5,-96 325.5,-96 325.5,-66 483.5,-66 483.5,-96"/>
<text text-anchor="start" x="333.5" y="-84" font-family="Helvetica,sans-Serif" font-size="10.00">include/TechMa/Repository</text>
<text text-anchor="middle" x="404.5" y="-73" font-family="Helvetica,sans-Serif" font-size="10.00">/TechnicianRepositoryProxy.h</text>
</a>
</g>
</g>
<!-- Node1&#45;&gt;Node3 -->
<g id="edge11_Node000001_Node000003" class="edge">
<title>Node1&#45;&gt;Node3</title>
<g id="a_edge11_Node000001_Node000003"><a xlink:title=" ">
<path fill="none" stroke="#63b8ff" d="M729.76,-206.13C672.47,-199.93 594.24,-187.34 529.5,-162 487.51,-145.57 444.52,-114.22 421.51,-96.02"/>
<polygon fill="#63b8ff" stroke="#63b8ff" points="729.54,-209.62 739.84,-207.18 730.26,-202.66 729.54,-209.62"/>
</a>
</g>
</g>
<!-- Node8 -->
<g id="Node000008" class="node">
<title>Node8</title>
<g id="a_Node000008"><a xlink:href="TechnicianRepository_8cpp.html" target="_top" xlink:title="Implements the TechnicianRepository class responsible for managing technician records and notifying o...">
<polygon fill="white" stroke="#666666" points="1054.5,-96 914.5,-96 914.5,-66 1054.5,-66 1054.5,-96"/>
<text text-anchor="start" x="922.5" y="-84" font-family="Helvetica,sans-Serif" font-size="10.00">src/Repository/Technician</text>
<text text-anchor="middle" x="984.5" y="-73" font-family="Helvetica,sans-Serif" font-size="10.00">Repository.cpp</text>
</a>
</g>
</g>
<!-- Node1&#45;&gt;Node8 -->
<g id="edge19_Node000001_Node000008" class="edge">
<title>Node1&#45;&gt;Node8</title>
<g id="a_edge19_Node000001_Node000008"><a xlink:title=" ">
<path fill="none" stroke="#63b8ff" d="M843.9,-192.72C858.88,-183.89 876.43,-172.97 891.5,-162 920.6,-140.82 951.81,-112.74 969.66,-96.1"/>
<polygon fill="#63b8ff" stroke="#63b8ff" points="841.83,-189.87 834.94,-197.92 845.34,-195.92 841.83,-189.87"/>
</a>
</g>
</g>
<!-- Node12 -->
<g id="Node000012" class="node">
<title>Node12</title>
<g id="a_Node000012"><a xlink:href="TechListController_8h.html" target="_top" xlink:title="Declares the TechListController class, a Qt&#45;based controller for managing technician selection UI.">
<polygon fill="white" stroke="#666666" points="1297,-162 1126,-162 1126,-132 1297,-132 1297,-162"/>
<text text-anchor="start" x="1134" y="-150" font-family="Helvetica,sans-Serif" font-size="10.00">include/TechMa/Views</text>
<text text-anchor="middle" x="1211.5" y="-139" font-family="Helvetica,sans-Serif" font-size="10.00">/Controllers/TechListController.h</text>
</a>
</g>
</g>
<!-- Node1&#45;&gt;Node12 -->
<g id="edge12_Node000001_Node000012" class="edge">
<title>Node1&#45;&gt;Node12</title>
<g id="a_edge12_Node000001_Node000012"><a xlink:title=" ">
<path fill="none" stroke="#63b8ff" d="M889.34,-199.29C957.63,-188.42 1055.7,-172.8 1125.67,-161.66"/>
<polygon fill="#63b8ff" stroke="#63b8ff" points="888.39,-195.9 879.06,-200.93 889.49,-202.81 888.39,-195.9"/>
</a>
</g>
</g>
<!-- Node15 -->
<g id="Node000015" class="node">
<title>Node15</title>
<g id="a_Node000015"><a xlink:href="TechniciansListView_8h.html" target="_top" xlink:title="Declares the TechniciansListView class, a QListView for displaying and selecting technicians.">
<polygon fill="white" stroke="#666666" points="706.5,-162 538.5,-162 538.5,-132 706.5,-132 706.5,-162"/>
<text text-anchor="start" x="546.5" y="-150" font-family="Helvetica,sans-Serif" font-size="10.00">include/TechMa/Views</text>
<text text-anchor="middle" x="622.5" y="-139" font-family="Helvetica,sans-Serif" font-size="10.00">/Widgets/TechniciansListView.h</text>
</a>
</g>
</g>
<!-- Node1&#45;&gt;Node15 -->
<g id="edge16_Node000001_Node000015" class="edge">
<title>Node1&#45;&gt;Node15</title>
<g id="a_edge16_Node000001_Node000015"><a xlink:title=" ">
<path fill="none" stroke="#63b8ff" d="M758.63,-194.59C728.73,-184.36 691.43,-171.59 663.44,-162.01"/>
<polygon fill="#63b8ff" stroke="#63b8ff" points="757.87,-198.03 768.46,-197.95 760.13,-191.41 757.87,-198.03"/>
</a>
</g>
</g>
<!-- Node2&#45;&gt;Node3 -->
<g id="edge2_Node000002_Node000003" class="edge">
<title>Node2&#45;&gt;Node3</title>
<g id="a_edge2_Node000002_Node000003"><a xlink:title=" ">
<path fill="none" stroke="#63b8ff" d="M725.43,-132.71C654.37,-121.49 553.32,-105.52 483.69,-94.51"/>
<polygon fill="#63b8ff" stroke="#63b8ff" points="725.26,-136.23 735.69,-134.34 726.36,-129.32 725.26,-136.23"/>
</a>
</g>
</g>
<!-- Node2&#45;&gt;Node8 -->
<g id="edge7_Node000002_Node000008" class="edge">
<title>Node2&#45;&gt;Node8</title>
<g id="a_edge7_Node000002_Node000008"><a xlink:title=" ">
<path fill="none" stroke="#63b8ff" d="M857.47,-128.46C885.39,-118.25 920.1,-105.55 946.19,-96.01"/>
<polygon fill="#63b8ff" stroke="#63b8ff" points="856.09,-125.23 847.9,-131.95 858.5,-131.81 856.09,-125.23"/>
</a>
</g>
</g>
<!-- Node9 -->
<g id="Node000009" class="node">
<title>Node9</title>
<g id="a_Node000009"><a xlink:href="TechListController_8cpp.html" target="_top" xlink:title="Implements the TechListController class, which manages technician&#45;related combo boxes and observes re...">
<polygon fill="white" stroke="#666666" points="1198.5,-96 1072.5,-96 1072.5,-66 1198.5,-66 1198.5,-96"/>
<text text-anchor="start" x="1080.5" y="-84" font-family="Helvetica,sans-Serif" font-size="10.00">src/Views/Controllers</text>
<text text-anchor="middle" x="1135.5" y="-73" font-family="Helvetica,sans-Serif" font-size="10.00">/TechListController.cpp</text>
</a>
</g>
</g>
<!-- Node2&#45;&gt;Node9 -->
<g id="edge8_Node000002_Node000009" class="edge">
<title>Node2&#45;&gt;Node9</title>
<g id="a_edge8_Node000002_Node000009"><a xlink:title=" ">
<path fill="none" stroke="#63b8ff" d="M890.96,-130.01C947.12,-118.98 1020.67,-104.54 1072.39,-94.39"/>
<polygon fill="#63b8ff" stroke="#63b8ff" points="890.18,-126.59 881.04,-131.95 891.53,-133.46 890.18,-126.59"/>
</a>
</g>
</g>
<!-- Node10 -->
<g id="Node000010" class="node">
<title>Node10</title>
<g id="a_Node000010"><a xlink:href="InterventionsListView_8cpp.html" target="_top" xlink:title="Implements the InterventionsListView class, a QListView for browsing interventions.">
<polygon fill="white" stroke="#666666" points="896,-96 723,-96 723,-66 896,-66 896,-96"/>
<text text-anchor="start" x="731" y="-84" font-family="Helvetica,sans-Serif" font-size="10.00">src/Views/Widgets/Interventions</text>
<text text-anchor="middle" x="809.5" y="-73" font-family="Helvetica,sans-Serif" font-size="10.00">ListView.cpp</text>
</a>
</g>
</g>
<!-- Node2&#45;&gt;Node10 -->
<g id="edge9_Node000002_Node000010" class="edge">
<title>Node2&#45;&gt;Node10</title>
<g id="a_edge9_Node000002_Node000010"><a xlink:title=" ">
<path fill="none" stroke="#63b8ff" d="M809.5,-121.54C809.5,-112.96 809.5,-103.61 809.5,-96.16"/>
<polygon fill="#63b8ff" stroke="#63b8ff" points="806,-121.8 809.5,-131.8 813,-121.8 806,-121.8"/>
</a>
</g>
</g>
<!-- Node11 -->
<g id="Node000011" class="node">
<title>Node11</title>
<g id="a_Node000011"><a xlink:href="TechniciansListView_8cpp.html" target="_top" xlink:title="Implements the TechniciansListView class, which displays a list of technicians and handles selection ...">
<polygon fill="white" stroke="#666666" points="705,-96 540,-96 540,-66 705,-66 705,-96"/>
<text text-anchor="start" x="548" y="-84" font-family="Helvetica,sans-Serif" font-size="10.00">src/Views/Widgets/Technicians</text>
<text text-anchor="middle" x="622.5" y="-73" font-family="Helvetica,sans-Serif" font-size="10.00">ListView.cpp</text>
</a>
</g>
</g>
<!-- Node2&#45;&gt;Node11 -->
<g id="edge10_Node000002_Node000011" class="edge">
<title>Node2&#45;&gt;Node11</title>
<g id="a_edge10_Node000002_Node000011"><a xlink:title=" ">
<path fill="none" stroke="#63b8ff" d="M758.63,-128.59C728.73,-118.36 691.43,-105.59 663.44,-96.01"/>
<polygon fill="#63b8ff" stroke="#63b8ff" points="757.87,-132.03 768.46,-131.95 760.13,-125.41 757.87,-132.03"/>
</a>
</g>
</g>
<!-- Node4 -->
<g id="Node000004" class="node">
<title>Node4</title>
<g id="a_Node000004"><a xlink:href="InterventionRepositoryProxy_8cpp.html" target="_top" xlink:title="Implements the InterventionRepositoryProxy class, a secure proxy to the InterventionRepository.">
<polygon fill="white" stroke="#666666" points="149,-30 0,-30 0,0 149,0 149,-30"/>
<text text-anchor="start" x="8" y="-18" font-family="Helvetica,sans-Serif" font-size="10.00">src/Repository/Intervention</text>
<text text-anchor="middle" x="74.5" y="-7" font-family="Helvetica,sans-Serif" font-size="10.00">RepositoryProxy.cpp</text>
</a>
</g>
</g>
<!-- Node3&#45;&gt;Node4 -->
<g id="edge3_Node000003_Node000004" class="edge">
<title>Node3&#45;&gt;Node4</title>
<g id="a_edge3_Node000003_Node000004"><a xlink:title=" ">
<path fill="none" stroke="#63b8ff" d="M322.21,-64.04C268.3,-53.59 198.51,-40.05 146.75,-30.01"/>
<polygon fill="#63b8ff" stroke="#63b8ff" points="321.6,-67.49 332.08,-65.95 322.93,-60.61 321.6,-67.49"/>
</a>
</g>
</g>
<!-- Node5 -->
<g id="Node000005" class="node">
<title>Node5</title>
<g id="a_Node000005"><a xlink:href="TechnicianRepositoryProxy_8cpp.html" target="_top" xlink:title="Implements the TechnicianRepositoryProxy class and AccessDeniedException.">
<polygon fill="white" stroke="#666666" points="307.5,-30 167.5,-30 167.5,0 307.5,0 307.5,-30"/>
<text text-anchor="start" x="175.5" y="-18" font-family="Helvetica,sans-Serif" font-size="10.00">src/Repository/Technician</text>
<text text-anchor="middle" x="237.5" y="-7" font-family="Helvetica,sans-Serif" font-size="10.00">RepositoryProxy.cpp</text>
</a>
</g>
</g>
<!-- Node3&#45;&gt;Node5 -->
<g id="edge4_Node000003_Node000005" class="edge">
<title>Node3&#45;&gt;Node5</title>
<g id="a_edge4_Node000003_Node000005"><a xlink:title=" ">
<path fill="none" stroke="#63b8ff" d="M358.37,-62.32C331.79,-52.14 298.84,-39.51 274.06,-30.01"/>
<polygon fill="#63b8ff" stroke="#63b8ff" points="357.26,-65.64 367.85,-65.95 359.77,-59.11 357.26,-65.64"/>
</a>
</g>
</g>
<!-- Node6 -->
<g id="Node000006" class="node">
<title>Node6</title>
<g id="a_Node000006"><a xlink:href="InterventionPage_8cpp.html" target="_top" xlink:title="Implements the InterventionPage class, a QWidget handling intervention&#45;related UI and interactions.">
<polygon fill="white" stroke="#666666" points="483,-30 326,-30 326,0 483,0 483,-30"/>
<text text-anchor="start" x="334" y="-18" font-family="Helvetica,sans-Serif" font-size="10.00">src/Views/Pages/Intervention</text>
<text text-anchor="middle" x="404.5" y="-7" font-family="Helvetica,sans-Serif" font-size="10.00">Page.cpp</text>
</a>
</g>
</g>
<!-- Node3&#45;&gt;Node6 -->
<g id="edge5_Node000003_Node000006" class="edge">
<title>Node3&#45;&gt;Node6</title>
<g id="a_edge5_Node000003_Node000006"><a xlink:title=" ">
<path fill="none" stroke="#63b8ff" d="M404.5,-55.54C404.5,-46.96 404.5,-37.61 404.5,-30.16"/>
<polygon fill="#63b8ff" stroke="#63b8ff" points="401,-55.8 404.5,-65.8 408,-55.8 401,-55.8"/>
</a>
</g>
</g>
<!-- Node7 -->
<g id="Node000007" class="node">
<title>Node7</title>
<g id="a_Node000007"><a xlink:href="TechniciansPage_8cpp.html" target="_top" xlink:title="Implements the TechniciansPage class, managing the technician creation and edition UI.">
<polygon fill="white" stroke="#666666" points="655.5,-30 501.5,-30 501.5,0 655.5,0 655.5,-30"/>
<text text-anchor="start" x="509.5" y="-18" font-family="Helvetica,sans-Serif" font-size="10.00">src/Views/Pages/Technicians</text>
<text text-anchor="middle" x="578.5" y="-7" font-family="Helvetica,sans-Serif" font-size="10.00">Page.cpp</text>
</a>
</g>
</g>
<!-- Node3&#45;&gt;Node7 -->
<g id="edge6_Node000003_Node000007" class="edge">
<title>Node3&#45;&gt;Node7</title>
<g id="a_edge6_Node000003_Node000007"><a xlink:title=" ">
<path fill="none" stroke="#63b8ff" d="M452.2,-62.46C479.96,-52.25 514.47,-39.55 540.4,-30.01"/>
<polygon fill="#63b8ff" stroke="#63b8ff" points="450.86,-59.22 442.69,-65.95 453.28,-65.79 450.86,-59.22"/>
</a>
</g>
</g>
<!-- Node12&#45;&gt;Node9 -->
<g id="edge13_Node000012_Node000009" class="edge">
<title>Node12&#45;&gt;Node9</title>
<g id="a_edge13_Node000012_Node000009"><a xlink:title=" ">
<path fill="none" stroke="#63b8ff" d="M1186.8,-125.2C1175.52,-115.7 1162.45,-104.69 1152.32,-96.16"/>
<polygon fill="#63b8ff" stroke="#63b8ff" points="1184.73,-128.03 1194.63,-131.8 1189.24,-122.68 1184.73,-128.03"/>
</a>
</g>
</g>
<!-- Node13 -->
<g id="Node000013" class="node">
<title>Node13</title>
<g id="a_Node000013"><a xlink:href="CreateInterventionDialog_8cpp.html" target="_top" xlink:title="Implements the CreateInterventionDialog class for creating new interventions through a Qt dialog UI.">
<polygon fill="white" stroke="#666666" points="1358,-96 1217,-96 1217,-66 1358,-66 1358,-96"/>
<text text-anchor="start" x="1225" y="-84" font-family="Helvetica,sans-Serif" font-size="10.00">src/Views/Widgets/Create</text>
<text text-anchor="middle" x="1287.5" y="-73" font-family="Helvetica,sans-Serif" font-size="10.00">InterventionDialog.cpp</text>
</a>
</g>
</g>
<!-- Node12&#45;&gt;Node13 -->
<g id="edge14_Node000012_Node000013" class="edge">
<title>Node12&#45;&gt;Node13</title>
<g id="a_edge14_Node000012_Node000013"><a xlink:title=" ">
<path fill="none" stroke="#63b8ff" d="M1236.2,-125.2C1247.48,-115.7 1260.55,-104.69 1270.68,-96.16"/>
<polygon fill="#63b8ff" stroke="#63b8ff" points="1233.76,-122.68 1228.37,-131.8 1238.27,-128.03 1233.76,-122.68"/>
</a>
</g>
</g>
<!-- Node14 -->
<g id="Node000014" class="node">
<title>Node14</title>
<g id="a_Node000014"><a xlink:href="InterventionEditPanel_8cpp.html" target="_top" xlink:title="Implements the InterventionEditPanel class, a QWidget for editing intervention data.">
<polygon fill="white" stroke="#666666" points="1544.5,-96 1376.5,-96 1376.5,-66 1544.5,-66 1544.5,-96"/>
<text text-anchor="start" x="1384.5" y="-84" font-family="Helvetica,sans-Serif" font-size="10.00">src/Views/Widgets/Intervention</text>
<text text-anchor="middle" x="1460.5" y="-73" font-family="Helvetica,sans-Serif" font-size="10.00">EditPanel.cpp</text>
</a>
</g>
</g>
<!-- Node12&#45;&gt;Node14 -->
<g id="edge15_Node000012_Node000014" class="edge">
<title>Node12&#45;&gt;Node14</title>
<g id="a_edge15_Node000012_Node000014"><a xlink:title=" ">
<path fill="none" stroke="#63b8ff" d="M1275.88,-129.45C1316.23,-119.08 1367.66,-105.86 1405.98,-96.01"/>
<polygon fill="#63b8ff" stroke="#63b8ff" points="1274.96,-126.08 1266.14,-131.95 1276.7,-132.86 1274.96,-126.08"/>
</a>
</g>
</g>
<!-- Node15&#45;&gt;Node7 -->
<g id="edge17_Node000015_Node000007" class="edge">
<title>Node15&#45;&gt;Node7</title>
<g id="a_edge17_Node000015_Node000007"><a xlink:title=" ">
<path fill="none" stroke="#63b8ff" d="M566.09,-127.37C552.03,-119.9 538.66,-109.71 530.5,-96 516.76,-72.89 541.02,-46.11 559.78,-30.14"/>
<polygon fill="#63b8ff" stroke="#63b8ff" points="564.86,-130.66 575.38,-131.89 567.93,-124.37 564.86,-130.66"/>
</a>
</g>
</g>
<!-- Node15&#45;&gt;Node11 -->
<g id="edge18_Node000015_Node000011" class="edge">
<title>Node15&#45;&gt;Node11</title>
<g id="a_edge18_Node000015_Node000011"><a xlink:title=" ">
<path fill="none" stroke="#63b8ff" d="M622.5,-121.54C622.5,-112.96 622.5,-103.61 622.5,-96.16"/>
<polygon fill="#63b8ff" stroke="#63b8ff" points="619,-121.8 622.5,-131.8 626,-121.8 619,-121.8"/>
</a>
</g>
</g>
</g>
</svg>
