<?xml version="1.0" encoding="UTF-8" standalone="no"?>
<!DOCTYPE svg PUBLIC "-//W3C//DTD SVG 1.1//EN"
 "http://www.w3.org/Graphics/SVG/1.1/DTD/svg11.dtd">
<!-- Generated by graphviz version 2.43.0 (0)
 -->
<!-- Title: include/TechMa/Entities/ATechnician.h Pages: 1 -->
<svg width="2399pt" height="379pt"
 viewBox="0.00 0.00 2399.14 379.00" xmlns="http://www.w3.org/2000/svg" xmlns:xlink="http://www.w3.org/1999/xlink">
<g id="graph0" class="graph" transform="scale(1 1) rotate(0) translate(4 375)">
<title>include/TechMa/Entities/ATechnician.h</title>
<!-- Node1 -->
<g id="Node000001" class="node">
<title>Node1</title>
<g id="a_Node000001"><a xlink:title="Defines the abstract base class ATechnician representing a technician entity.">
<polygon fill="#999999" stroke="#666666" points="1777.14,-371 1646.14,-371 1646.14,-341 1777.14,-341 1777.14,-371"/>
<text text-anchor="start" x="1654.14" y="-359" font-family="Helvetica,sans-Serif" font-size="10.00">include/TechMa/Entities</text>
<text text-anchor="middle" x="1711.64" y="-348" font-family="Helvetica,sans-Serif" font-size="10.00">/ATechnician.h</text>
</a>
</g>
</g>
<!-- Node2 -->
<g id="Node000002" class="node">
<title>Node2</title>
<g id="a_Node000002"><a xlink:href="InterventionData_8h.html" target="_top" xlink:title="Defines the InterventionData structure which holds all information related to an intervention.">
<polygon fill="white" stroke="#666666" points="687.14,-305 556.14,-305 556.14,-275 687.14,-275 687.14,-305"/>
<text text-anchor="start" x="564.14" y="-293" font-family="Helvetica,sans-Serif" font-size="10.00">include/TechMa/Entities</text>
<text text-anchor="middle" x="621.64" y="-282" font-family="Helvetica,sans-Serif" font-size="10.00">/InterventionData.h</text>
</a>
</g>
</g>
<!-- Node1&#45;&gt;Node2 -->
<g id="edge1_Node000001_Node000002" class="edge">
<title>Node1&#45;&gt;Node2</title>
<g id="a_edge1_Node000001_Node000002"><a xlink:title=" ">
<path fill="none" stroke="#63b8ff" d="M1635.63,-350.54C1432.31,-338.6 878.48,-306.08 687.45,-294.86"/>
<polygon fill="#63b8ff" stroke="#63b8ff" points="1635.72,-354.05 1645.91,-351.14 1636.13,-347.06 1635.72,-354.05"/>
</a>
</g>
</g>
<!-- Node20 -->
<g id="Node000020" class="node">
<title>Node20</title>
<g id="a_Node000020"><a xlink:href="TechnicianRepository_8h.html" target="_top" xlink:title="Declares the TechnicianRepository class, responsible for storing and managing technicians.">
<polygon fill="white" stroke="#666666" points="1550.14,-305 1403.14,-305 1403.14,-275 1550.14,-275 1550.14,-305"/>
<text text-anchor="start" x="1411.14" y="-293" font-family="Helvetica,sans-Serif" font-size="10.00">include/TechMa/Repository</text>
<text text-anchor="middle" x="1476.64" y="-282" font-family="Helvetica,sans-Serif" font-size="10.00">/TechnicianRepository.h</text>
</a>
</g>
</g>
<!-- Node1&#45;&gt;Node20 -->
<g id="edge27_Node000001_Node000020" class="edge">
<title>Node1&#45;&gt;Node20</title>
<g id="a_edge27_Node000001_Node000020"><a xlink:title=" ">
<path fill="none" stroke="#63b8ff" d="M1650.15,-338.25C1612.18,-327.91 1564.03,-314.8 1528.09,-305.01"/>
<polygon fill="#63b8ff" stroke="#63b8ff" points="1649.5,-341.7 1660.07,-340.95 1651.34,-334.95 1649.5,-341.7"/>
</a>
</g>
</g>
<!-- Node21 -->
<g id="Node000021" class="node">
<title>Node21</title>
<g id="a_Node000021"><a xlink:href="TechnicianRepositoryProxy_8h.html" target="_top" xlink:title="Declares the TechnicianRepositoryProxy class and the AccessDeniedException.">
<polygon fill="white" stroke="#666666" points="1790.64,-233.5 1632.64,-233.5 1632.64,-203.5 1790.64,-203.5 1790.64,-233.5"/>
<text text-anchor="start" x="1640.64" y="-221.5" font-family="Helvetica,sans-Serif" font-size="10.00">include/TechMa/Repository</text>
<text text-anchor="middle" x="1711.64" y="-210.5" font-family="Helvetica,sans-Serif" font-size="10.00">/TechnicianRepositoryProxy.h</text>
</a>
</g>
</g>
<!-- Node1&#45;&gt;Node21 -->
<g id="edge37_Node000001_Node000021" class="edge">
<title>Node1&#45;&gt;Node21</title>
<g id="a_edge37_Node000001_Node000021"><a xlink:title=" ">
<path fill="none" stroke="#63b8ff" d="M1711.64,-330.48C1711.64,-302.14 1711.64,-256.46 1711.64,-233.55"/>
<polygon fill="#63b8ff" stroke="#63b8ff" points="1708.14,-330.76 1711.64,-340.76 1715.14,-330.76 1708.14,-330.76"/>
</a>
</g>
</g>
<!-- Node27 -->
<g id="Node000027" class="node">
<title>Node27</title>
<g id="a_Node000027"><a xlink:href="BasicTechnician_8h.html" target="_top" xlink:title="Declares the BasicTechnician class, a simple implementation of the ATechnician interface.">
<polygon fill="white" stroke="#666666" points="1891.64,-305 1745.64,-305 1745.64,-275 1891.64,-275 1891.64,-305"/>
<text text-anchor="start" x="1753.64" y="-293" font-family="Helvetica,sans-Serif" font-size="10.00">include/TechMa/Technician</text>
<text text-anchor="middle" x="1818.64" y="-282" font-family="Helvetica,sans-Serif" font-size="10.00">/BasicTechnician.h</text>
</a>
</g>
</g>
<!-- Node1&#45;&gt;Node27 -->
<g id="edge38_Node000001_Node000027" class="edge">
<title>Node1&#45;&gt;Node27</title>
<g id="a_edge38_Node000001_Node000027"><a xlink:title=" ">
<path fill="none" stroke="#63b8ff" d="M1743.91,-335.69C1760.43,-325.82 1780.17,-314.01 1795.21,-305.01"/>
<polygon fill="#63b8ff" stroke="#63b8ff" points="1741.91,-332.82 1735.12,-340.95 1745.5,-338.83 1741.91,-332.82"/>
</a>
</g>
</g>
<!-- Node29 -->
<g id="Node000029" class="node">
<title>Node29</title>
<g id="a_Node000029"><a xlink:href="TechnicianDecorator_8h.html" target="_top" xlink:title="Declares the TechnicianDecorator abstract class used to extend technician functionality.">
<polygon fill="white" stroke="#666666" points="2245.64,-305 2099.64,-305 2099.64,-275 2245.64,-275 2245.64,-305"/>
<text text-anchor="start" x="2107.64" y="-293" font-family="Helvetica,sans-Serif" font-size="10.00">include/TechMa/Technician</text>
<text text-anchor="middle" x="2172.64" y="-282" font-family="Helvetica,sans-Serif" font-size="10.00">/TechnicianDecorator.h</text>
</a>
</g>
</g>
<!-- Node1&#45;&gt;Node29 -->
<g id="edge41_Node000001_Node000029" class="edge">
<title>Node1&#45;&gt;Node29</title>
<g id="a_edge41_Node000001_Node000029"><a xlink:title=" ">
<path fill="none" stroke="#63b8ff" d="M1787.19,-344.51C1873.54,-332.52 2013.91,-313.04 2099.31,-301.18"/>
<polygon fill="#63b8ff" stroke="#63b8ff" points="1786.62,-341.06 1777.2,-345.9 1787.59,-347.99 1786.62,-341.06"/>
</a>
</g>
</g>
<!-- Node3 -->
<g id="Node000003" class="node">
<title>Node3</title>
<g id="a_Node000003"><a xlink:href="AIntervention_8h.html" target="_top" xlink:title="Defines the abstract base class AIntervention for representing interventions.">
<polygon fill="white" stroke="#666666" points="827.14,-233.5 696.14,-233.5 696.14,-203.5 827.14,-203.5 827.14,-233.5"/>
<text text-anchor="start" x="704.14" y="-221.5" font-family="Helvetica,sans-Serif" font-size="10.00">include/TechMa/Entities</text>
<text text-anchor="middle" x="761.64" y="-210.5" font-family="Helvetica,sans-Serif" font-size="10.00">/AIntervention.h</text>
</a>
</g>
</g>
<!-- Node2&#45;&gt;Node3 -->
<g id="edge2_Node000002_Node000003" class="edge">
<title>Node2&#45;&gt;Node3</title>
<g id="a_edge2_Node000002_Node000003"><a xlink:title=" ">
<path fill="none" stroke="#63b8ff" d="M659.22,-270.34C682.54,-258.77 712.01,-244.14 733.35,-233.54"/>
<polygon fill="#63b8ff" stroke="#63b8ff" points="657.37,-267.35 649.97,-274.94 660.48,-273.62 657.37,-267.35"/>
</a>
</g>
</g>
<!-- Node7 -->
<g id="Node000007" class="node">
<title>Node7</title>
<g id="a_Node000007"><a xlink:href="InterventionCreatorFacade_8h.html" target="_top" xlink:title="Declares the InterventionCreatorFacade class, which provides a simplified interface for creating inte...">
<polygon fill="white" stroke="#666666" points="588.64,-162 430.64,-162 430.64,-132 588.64,-132 588.64,-162"/>
<text text-anchor="start" x="438.64" y="-150" font-family="Helvetica,sans-Serif" font-size="10.00">include/TechMa/Facade</text>
<text text-anchor="middle" x="509.64" y="-139" font-family="Helvetica,sans-Serif" font-size="10.00">/InterventionCreatorFacade.h</text>
</a>
</g>
</g>
<!-- Node2&#45;&gt;Node7 -->
<g id="edge19_Node000002_Node000007" class="edge">
<title>Node2&#45;&gt;Node7</title>
<g id="a_edge19_Node000002_Node000007"><a xlink:title=" ">
<path fill="none" stroke="#63b8ff" d="M604.16,-267C580.98,-237.82 540.72,-187.13 521.08,-162.4"/>
<polygon fill="#63b8ff" stroke="#63b8ff" points="601.53,-269.31 610.49,-274.96 607.01,-264.96 601.53,-269.31"/>
</a>
</g>
</g>
<!-- Node10 -->
<g id="Node000010" class="node">
<title>Node10</title>
<g id="a_Node000010"><a xlink:href="InterventionFactory_8h.html" target="_top" xlink:title="Declares the InterventionFactory class responsible for creating intervention instances.">
<polygon fill="white" stroke="#666666" points="736.64,-162 606.64,-162 606.64,-132 736.64,-132 736.64,-162"/>
<text text-anchor="start" x="614.64" y="-150" font-family="Helvetica,sans-Serif" font-size="10.00">include/TechMa/Factory</text>
<text text-anchor="middle" x="671.64" y="-139" font-family="Helvetica,sans-Serif" font-size="10.00">/InterventionFactory.h</text>
</a>
</g>
</g>
<!-- Node2&#45;&gt;Node10 -->
<g id="edge20_Node000002_Node000010" class="edge">
<title>Node2&#45;&gt;Node10</title>
<g id="a_edge20_Node000002_Node000010"><a xlink:title=" ">
<path fill="none" stroke="#63b8ff" d="M629.98,-265.48C640.4,-236.08 657.91,-186.7 666.53,-162.4"/>
<polygon fill="#63b8ff" stroke="#63b8ff" points="626.66,-264.37 626.62,-274.96 633.26,-266.71 626.66,-264.37"/>
</a>
</g>
</g>
<!-- Node16 -->
<g id="Node000016" class="node">
<title>Node16</title>
<g id="a_Node000016"><a xlink:href="CreateInterventionDialog_8h.html" target="_top" xlink:title="Declares the CreateInterventionDialog class, a QDialog used to create new interventions.">
<polygon fill="white" stroke="#666666" points="162.64,-239 8.64,-239 8.64,-198 162.64,-198 162.64,-239"/>
<text text-anchor="start" x="16.64" y="-227" font-family="Helvetica,sans-Serif" font-size="10.00">include/TechMa/Views</text>
<text text-anchor="start" x="16.64" y="-216" font-family="Helvetica,sans-Serif" font-size="10.00">/Widgets/CreateIntervention</text>
<text text-anchor="middle" x="85.64" y="-205" font-family="Helvetica,sans-Serif" font-size="10.00">Dialog.h</text>
</a>
</g>
</g>
<!-- Node2&#45;&gt;Node16 -->
<g id="edge21_Node000002_Node000016" class="edge">
<title>Node2&#45;&gt;Node16</title>
<g id="a_edge21_Node000002_Node000016"><a xlink:title=" ">
<path fill="none" stroke="#63b8ff" d="M545.73,-279.16C444.14,-265.98 264.93,-242.75 162.74,-229.5"/>
<polygon fill="#63b8ff" stroke="#63b8ff" points="545.55,-282.66 555.91,-280.48 546.45,-275.72 545.55,-282.66"/>
</a>
</g>
</g>
<!-- Node18 -->
<g id="Node000018" class="node">
<title>Node18</title>
<g id="a_Node000018"><a xlink:href="InterventionEditPanel_8h.html" target="_top" xlink:title="Declares the InterventionEditPanel class, a QWidget for editing existing intervention data.">
<polygon fill="white" stroke="#666666" points="458.64,-233.5 282.64,-233.5 282.64,-203.5 458.64,-203.5 458.64,-233.5"/>
<text text-anchor="start" x="290.64" y="-221.5" font-family="Helvetica,sans-Serif" font-size="10.00">include/TechMa/Views</text>
<text text-anchor="middle" x="370.64" y="-210.5" font-family="Helvetica,sans-Serif" font-size="10.00">/Widgets/InterventionEditPanel.h</text>
</a>
</g>
</g>
<!-- Node2&#45;&gt;Node18 -->
<g id="edge24_Node000002_Node000018" class="edge">
<title>Node2&#45;&gt;Node18</title>
<g id="a_edge24_Node000002_Node000018"><a xlink:title=" ">
<path fill="none" stroke="#63b8ff" d="M561.12,-272.24C518.38,-260.41 461.74,-244.72 421.36,-233.54"/>
<polygon fill="#63b8ff" stroke="#63b8ff" points="560.27,-275.64 570.84,-274.94 562.14,-268.89 560.27,-275.64"/>
</a>
</g>
</g>
<!-- Node4 -->
<g id="Node000004" class="node">
<title>Node4</title>
<g id="a_Node000004"><a xlink:href="ConcreteIntervention_8h.html" target="_top" xlink:title="Declares the ConcreteIntervention class, a concrete implementation of AIntervention.">
<polygon fill="white" stroke="#666666" points="886.14,-162 755.14,-162 755.14,-132 886.14,-132 886.14,-162"/>
<text text-anchor="start" x="763.14" y="-150" font-family="Helvetica,sans-Serif" font-size="10.00">include/TechMa/Entities</text>
<text text-anchor="middle" x="820.64" y="-139" font-family="Helvetica,sans-Serif" font-size="10.00">/ConcreteIntervention.h</text>
</a>
</g>
</g>
<!-- Node3&#45;&gt;Node4 -->
<g id="edge3_Node000003_Node000004" class="edge">
<title>Node3&#45;&gt;Node4</title>
<g id="a_edge3_Node000003_Node000004"><a xlink:title=" ">
<path fill="none" stroke="#63b8ff" d="M780.29,-195.53C789.59,-184.57 800.56,-171.65 808.72,-162.04"/>
<polygon fill="#63b8ff" stroke="#63b8ff" points="777.38,-193.55 773.58,-203.44 782.72,-198.08 777.38,-193.55"/>
</a>
</g>
</g>
<!-- Node3&#45;&gt;Node7 -->
<g id="edge6_Node000003_Node000007" class="edge">
<title>Node3&#45;&gt;Node7</title>
<g id="a_edge6_Node000003_Node000007"><a xlink:title=" ">
<path fill="none" stroke="#63b8ff" d="M700.88,-200.74C657.96,-188.91 601.1,-173.22 560.56,-162.04"/>
<polygon fill="#63b8ff" stroke="#63b8ff" points="700.07,-204.15 710.64,-203.44 701.93,-197.4 700.07,-204.15"/>
</a>
</g>
</g>
<!-- Node3&#45;&gt;Node10 -->
<g id="edge9_Node000003_Node000010" class="edge">
<title>Node3&#45;&gt;Node10</title>
<g id="a_edge9_Node000003_Node000010"><a xlink:title=" ">
<path fill="none" stroke="#63b8ff" d="M735.25,-197.13C720.65,-185.85 702.87,-172.12 689.82,-162.04"/>
<polygon fill="#63b8ff" stroke="#63b8ff" points="733.37,-200.09 743.43,-203.44 737.65,-194.55 733.37,-200.09"/>
</a>
</g>
</g>
<!-- Node11 -->
<g id="Node000011" class="node">
<title>Node11</title>
<g id="a_Node000011"><a xlink:href="InterventionRepository_8h.html" target="_top" xlink:title="Declares the InterventionRepository class, which manages storage and access to interventions.">
<polygon fill="white" stroke="#666666" points="1090.14,-162 943.14,-162 943.14,-132 1090.14,-132 1090.14,-162"/>
<text text-anchor="start" x="951.14" y="-150" font-family="Helvetica,sans-Serif" font-size="10.00">include/TechMa/Repository</text>
<text text-anchor="middle" x="1016.64" y="-139" font-family="Helvetica,sans-Serif" font-size="10.00">/InterventionRepository.h</text>
</a>
</g>
</g>
<!-- Node3&#45;&gt;Node11 -->
<g id="edge12_Node000003_Node000011" class="edge">
<title>Node3&#45;&gt;Node11</title>
<g id="a_edge12_Node000003_Node000011"><a xlink:title=" ">
<path fill="none" stroke="#63b8ff" d="M823.12,-200.74C866.55,-188.91 924.09,-173.22 965.11,-162.04"/>
<polygon fill="#63b8ff" stroke="#63b8ff" points="821.97,-197.43 813.24,-203.44 823.81,-204.18 821.97,-197.43"/>
</a>
</g>
</g>
<!-- Node12 -->
<g id="Node000012" class="node">
<title>Node12</title>
<g id="a_Node000012"><a xlink:href="InterventionRepositoryProxy_8h.html" target="_top" xlink:title="Declares the InterventionRepositoryProxy class, a proxy to the actual intervention repository.">
<polygon fill="white" stroke="#666666" points="1100.14,-96 933.14,-96 933.14,-66 1100.14,-66 1100.14,-96"/>
<text text-anchor="start" x="941.14" y="-84" font-family="Helvetica,sans-Serif" font-size="10.00">include/TechMa/Repository</text>
<text text-anchor="middle" x="1016.64" y="-73" font-family="Helvetica,sans-Serif" font-size="10.00">/InterventionRepositoryProxy.h</text>
</a>
</g>
</g>
<!-- Node3&#45;&gt;Node12 -->
<g id="edge18_Node000003_Node000012" class="edge">
<title>Node3&#45;&gt;Node12</title>
<g id="a_edge18_Node000003_Node000012"><a xlink:title=" ">
<path fill="none" stroke="#63b8ff" d="M812.95,-199.89C838.55,-190.2 869.54,-177.09 895.64,-162 914.57,-151.05 916.61,-144.38 934.64,-132 953.33,-119.17 975.31,-105.86 991.8,-96.2"/>
<polygon fill="#63b8ff" stroke="#63b8ff" points="811.58,-196.66 803.42,-203.43 814.02,-203.22 811.58,-196.66"/>
</a>
</g>
</g>
<!-- Node5 -->
<g id="Node000005" class="node">
<title>Node5</title>
<g id="a_Node000005"><a xlink:href="InterventionFactory_8cpp.html" target="_top" xlink:title="Implements the InterventionFactory class.">
<polygon fill="white" stroke="#666666" points="752.14,-96 621.14,-96 621.14,-66 752.14,-66 752.14,-96"/>
<text text-anchor="start" x="629.14" y="-84" font-family="Helvetica,sans-Serif" font-size="10.00">src/Factory/Intervention</text>
<text text-anchor="middle" x="686.64" y="-73" font-family="Helvetica,sans-Serif" font-size="10.00">Factory.cpp</text>
</a>
</g>
</g>
<!-- Node4&#45;&gt;Node5 -->
<g id="edge4_Node000004_Node000005" class="edge">
<title>Node4&#45;&gt;Node5</title>
<g id="a_edge4_Node000004_Node000005"><a xlink:title=" ">
<path fill="none" stroke="#63b8ff" d="M781.93,-127.51C760.91,-117.47 735.34,-105.26 715.98,-96.01"/>
<polygon fill="#63b8ff" stroke="#63b8ff" points="780.7,-130.8 791.23,-131.95 783.72,-124.49 780.7,-130.8"/>
</a>
</g>
</g>
<!-- Node6 -->
<g id="Node000006" class="node">
<title>Node6</title>
<g id="a_Node000006"><a xlink:href="ConcreteIntervention_8cpp.html" target="_top" xlink:title="Implements the ConcreteIntervention class.">
<polygon fill="white" stroke="#666666" points="915.14,-96 770.14,-96 770.14,-66 915.14,-66 915.14,-96"/>
<text text-anchor="start" x="778.14" y="-84" font-family="Helvetica,sans-Serif" font-size="10.00">src/Interventions/Concrete</text>
<text text-anchor="middle" x="842.64" y="-73" font-family="Helvetica,sans-Serif" font-size="10.00">Intervention.cpp</text>
</a>
</g>
</g>
<!-- Node4&#45;&gt;Node6 -->
<g id="edge5_Node000004_Node000006" class="edge">
<title>Node4&#45;&gt;Node6</title>
<g id="a_edge5_Node000004_Node000006"><a xlink:title=" ">
<path fill="none" stroke="#63b8ff" d="M828.85,-122.11C831.85,-113.38 835.15,-103.78 837.77,-96.16"/>
<polygon fill="#63b8ff" stroke="#63b8ff" points="825.46,-121.2 825.52,-131.8 832.08,-123.48 825.46,-121.2"/>
</a>
</g>
</g>
<!-- Node8 -->
<g id="Node000008" class="node">
<title>Node8</title>
<g id="a_Node000008"><a xlink:href="InterventionCreatorFacade_8cpp.html" target="_top" xlink:title="Implements the InterventionCreatorFacade class.">
<polygon fill="white" stroke="#666666" points="602.64,-96 436.64,-96 436.64,-66 602.64,-66 602.64,-96"/>
<text text-anchor="start" x="444.64" y="-84" font-family="Helvetica,sans-Serif" font-size="10.00">src/Facade/InterventionCreator</text>
<text text-anchor="middle" x="519.64" y="-73" font-family="Helvetica,sans-Serif" font-size="10.00">Facade.cpp</text>
</a>
</g>
</g>
<!-- Node7&#45;&gt;Node8 -->
<g id="edge7_Node000007_Node000008" class="edge">
<title>Node7&#45;&gt;Node8</title>
<g id="a_edge7_Node000007_Node000008"><a xlink:title=" ">
<path fill="none" stroke="#63b8ff" d="M513.42,-121.83C514.77,-113.17 516.25,-103.7 517.43,-96.16"/>
<polygon fill="#63b8ff" stroke="#63b8ff" points="509.94,-121.38 511.86,-131.8 516.86,-122.46 509.94,-121.38"/>
</a>
</g>
</g>
<!-- Node9 -->
<g id="Node000009" class="node">
<title>Node9</title>
<g id="a_Node000009"><a xlink:href="InterventionPage_8cpp.html" target="_top" xlink:title="Implements the InterventionPage class, a QWidget handling intervention&#45;related UI and interactions.">
<polygon fill="white" stroke="#666666" points="487.14,-30 330.14,-30 330.14,0 487.14,0 487.14,-30"/>
<text text-anchor="start" x="338.14" y="-18" font-family="Helvetica,sans-Serif" font-size="10.00">src/Views/Pages/Intervention</text>
<text text-anchor="middle" x="408.64" y="-7" font-family="Helvetica,sans-Serif" font-size="10.00">Page.cpp</text>
</a>
</g>
</g>
<!-- Node7&#45;&gt;Node9 -->
<g id="edge8_Node000007_Node000009" class="edge">
<title>Node7&#45;&gt;Node9</title>
<g id="a_edge8_Node000007_Node000009"><a xlink:title=" ">
<path fill="none" stroke="#63b8ff" d="M464.95,-127.19C451.16,-119.39 437.12,-109.06 427.64,-96 413.29,-76.25 409.63,-47.19 408.79,-30.07"/>
<polygon fill="#63b8ff" stroke="#63b8ff" points="463.45,-130.36 473.92,-131.95 466.73,-124.17 463.45,-130.36"/>
</a>
</g>
</g>
<!-- Node10&#45;&gt;Node5 -->
<g id="edge11_Node000010_Node000005" class="edge">
<title>Node10&#45;&gt;Node5</title>
<g id="a_edge11_Node000010_Node000005"><a xlink:title=" ">
<path fill="none" stroke="#63b8ff" d="M677.3,-121.83C679.33,-113.17 681.55,-103.7 683.32,-96.16"/>
<polygon fill="#63b8ff" stroke="#63b8ff" points="673.84,-121.26 674.97,-131.8 680.66,-122.86 673.84,-121.26"/>
</a>
</g>
</g>
<!-- Node10&#45;&gt;Node8 -->
<g id="edge10_Node000010_Node000008" class="edge">
<title>Node10&#45;&gt;Node8</title>
<g id="a_edge10_Node000010_Node000008"><a xlink:title=" ">
<path fill="none" stroke="#63b8ff" d="M629.02,-128.05C604.93,-117.91 575.27,-105.43 552.92,-96.01"/>
<polygon fill="#63b8ff" stroke="#63b8ff" points="627.71,-131.3 638.28,-131.95 630.42,-124.85 627.71,-131.3"/>
</a>
</g>
</g>
<!-- Node11&#45;&gt;Node12 -->
<g id="edge13_Node000011_Node000012" class="edge">
<title>Node11&#45;&gt;Node12</title>
<g id="a_edge13_Node000011_Node000012"><a xlink:title=" ">
<path fill="none" stroke="#63b8ff" d="M1016.64,-121.54C1016.64,-112.96 1016.64,-103.61 1016.64,-96.16"/>
<polygon fill="#63b8ff" stroke="#63b8ff" points="1013.14,-121.8 1016.64,-131.8 1020.14,-121.8 1013.14,-121.8"/>
</a>
</g>
</g>
<!-- Node14 -->
<g id="Node000014" class="node">
<title>Node14</title>
<g id="a_Node000014"><a xlink:href="InterventionRepository_8cpp.html" target="_top" xlink:title="Implements the InterventionRepository singleton class.">
<polygon fill="white" stroke="#666666" points="1267.14,-96 1118.14,-96 1118.14,-66 1267.14,-66 1267.14,-96"/>
<text text-anchor="start" x="1126.14" y="-84" font-family="Helvetica,sans-Serif" font-size="10.00">src/Repository/Intervention</text>
<text text-anchor="middle" x="1192.64" y="-73" font-family="Helvetica,sans-Serif" font-size="10.00">Repository.cpp</text>
</a>
</g>
</g>
<!-- Node11&#45;&gt;Node14 -->
<g id="edge16_Node000011_Node000014" class="edge">
<title>Node11&#45;&gt;Node14</title>
<g id="a_edge16_Node000011_Node000014"><a xlink:title=" ">
<path fill="none" stroke="#63b8ff" d="M1064.88,-128.46C1092.96,-118.25 1127.87,-105.55 1154.1,-96.01"/>
<polygon fill="#63b8ff" stroke="#63b8ff" points="1063.46,-125.25 1055.26,-131.95 1065.86,-131.83 1063.46,-125.25"/>
</a>
</g>
</g>
<!-- Node15 -->
<g id="Node000015" class="node">
<title>Node15</title>
<g id="a_Node000015"><a xlink:href="InterventionsListView_8cpp.html" target="_top" xlink:title="Implements the InterventionsListView class, a QListView for browsing interventions.">
<polygon fill="white" stroke="#666666" points="1458.14,-96 1285.14,-96 1285.14,-66 1458.14,-66 1458.14,-96"/>
<text text-anchor="start" x="1293.14" y="-84" font-family="Helvetica,sans-Serif" font-size="10.00">src/Views/Widgets/Interventions</text>
<text text-anchor="middle" x="1371.64" y="-73" font-family="Helvetica,sans-Serif" font-size="10.00">ListView.cpp</text>
</a>
</g>
</g>
<!-- Node11&#45;&gt;Node15 -->
<g id="edge17_Node000011_Node000015" class="edge">
<title>Node11&#45;&gt;Node15</title>
<g id="a_edge17_Node000011_Node000015"><a xlink:title=" ">
<path fill="none" stroke="#63b8ff" d="M1100.17,-130.94C1158.77,-120.38 1236.58,-106.35 1293.87,-96.02"/>
<polygon fill="#63b8ff" stroke="#63b8ff" points="1099.42,-127.52 1090.19,-132.74 1100.66,-134.41 1099.42,-127.52"/>
</a>
</g>
</g>
<!-- Node12&#45;&gt;Node9 -->
<g id="edge15_Node000012_Node000009" class="edge">
<title>Node12&#45;&gt;Node9</title>
<g id="a_edge15_Node000012_Node000009"><a xlink:title=" ">
<path fill="none" stroke="#63b8ff" d="M922.89,-65.82C762.72,-46.12 586.72,-30.53 487.46,-22.3"/>
<polygon fill="#63b8ff" stroke="#63b8ff" points="922.57,-69.31 932.93,-67.06 923.43,-62.36 922.57,-69.31"/>
</a>
</g>
</g>
<!-- Node13 -->
<g id="Node000013" class="node">
<title>Node13</title>
<g id="a_Node000013"><a xlink:href="InterventionRepositoryProxy_8cpp.html" target="_top" xlink:title="Implements the InterventionRepositoryProxy class, a secure proxy to the InterventionRepository.">
<polygon fill="white" stroke="#666666" points="1438.14,-30 1289.14,-30 1289.14,0 1438.14,0 1438.14,-30"/>
<text text-anchor="start" x="1297.14" y="-18" font-family="Helvetica,sans-Serif" font-size="10.00">src/Repository/Intervention</text>
<text text-anchor="middle" x="1363.64" y="-7" font-family="Helvetica,sans-Serif" font-size="10.00">RepositoryProxy.cpp</text>
</a>
</g>
</g>
<!-- Node12&#45;&gt;Node13 -->
<g id="edge14_Node000012_Node000013" class="edge">
<title>Node12&#45;&gt;Node13</title>
<g id="a_edge14_Node000012_Node000013"><a xlink:title=" ">
<path fill="none" stroke="#63b8ff" d="M1102.89,-64.09C1160.02,-53.55 1234.23,-39.87 1288.86,-29.79"/>
<polygon fill="#63b8ff" stroke="#63b8ff" points="1101.99,-60.7 1092.79,-65.95 1103.26,-67.58 1101.99,-60.7"/>
</a>
</g>
</g>
<!-- Node16&#45;&gt;Node9 -->
<g id="edge22_Node000016_Node000009" class="edge">
<title>Node16&#45;&gt;Node9</title>
<g id="a_edge22_Node000016_Node000009"><a xlink:title=" ">
<path fill="none" stroke="#63b8ff" d="M37.21,-192.53C11.9,-176.12 -10.73,-153.74 5.64,-132 44.61,-80.23 224.22,-44.37 330.05,-27.33"/>
<polygon fill="#63b8ff" stroke="#63b8ff" points="35.5,-195.59 45.85,-197.86 39.17,-189.63 35.5,-195.59"/>
</a>
</g>
</g>
<!-- Node17 -->
<g id="Node000017" class="node">
<title>Node17</title>
<g id="a_Node000017"><a xlink:href="CreateInterventionDialog_8cpp.html" target="_top" xlink:title="Implements the CreateInterventionDialog class for creating new interventions through a Qt dialog UI.">
<polygon fill="white" stroke="#666666" points="156.14,-162 15.14,-162 15.14,-132 156.14,-132 156.14,-162"/>
<text text-anchor="start" x="23.14" y="-150" font-family="Helvetica,sans-Serif" font-size="10.00">src/Views/Widgets/Create</text>
<text text-anchor="middle" x="85.64" y="-139" font-family="Helvetica,sans-Serif" font-size="10.00">InterventionDialog.cpp</text>
</a>
</g>
</g>
<!-- Node16&#45;&gt;Node17 -->
<g id="edge23_Node000016_Node000017" class="edge">
<title>Node16&#45;&gt;Node17</title>
<g id="a_edge23_Node000016_Node000017"><a xlink:title=" ">
<path fill="none" stroke="#63b8ff" d="M85.64,-187.66C85.64,-178.76 85.64,-169.42 85.64,-162.04"/>
<polygon fill="#63b8ff" stroke="#63b8ff" points="82.14,-187.77 85.64,-197.77 89.14,-187.77 82.14,-187.77"/>
</a>
</g>
</g>
<!-- Node18&#45;&gt;Node9 -->
<g id="edge25_Node000018_Node000009" class="edge">
<title>Node18&#45;&gt;Node9</title>
<g id="a_edge25_Node000018_Node000009"><a xlink:title=" ">
<path fill="none" stroke="#63b8ff" d="M375.2,-193.31C383.21,-150.85 399.55,-64.17 405.97,-30.15"/>
<polygon fill="#63b8ff" stroke="#63b8ff" points="371.72,-192.86 373.31,-203.33 378.6,-194.15 371.72,-192.86"/>
</a>
</g>
</g>
<!-- Node19 -->
<g id="Node000019" class="node">
<title>Node19</title>
<g id="a_Node000019"><a xlink:href="InterventionEditPanel_8cpp.html" target="_top" xlink:title="Implements the InterventionEditPanel class, a QWidget for editing intervention data.">
<polygon fill="white" stroke="#666666" points="342.64,-162 174.64,-162 174.64,-132 342.64,-132 342.64,-162"/>
<text text-anchor="start" x="182.64" y="-150" font-family="Helvetica,sans-Serif" font-size="10.00">src/Views/Widgets/Intervention</text>
<text text-anchor="middle" x="258.64" y="-139" font-family="Helvetica,sans-Serif" font-size="10.00">EditPanel.cpp</text>
</a>
</g>
</g>
<!-- Node18&#45;&gt;Node19 -->
<g id="edge26_Node000018_Node000019" class="edge">
<title>Node18&#45;&gt;Node19</title>
<g id="a_edge26_Node000018_Node000019"><a xlink:title=" ">
<path fill="none" stroke="#63b8ff" d="M339.32,-198.07C320.88,-186.62 297.96,-172.4 281.27,-162.04"/>
<polygon fill="#63b8ff" stroke="#63b8ff" points="337.63,-201.14 347.97,-203.44 341.32,-195.19 337.63,-201.14"/>
</a>
</g>
</g>
<!-- Node20&#45;&gt;Node15 -->
<g id="edge35_Node000020_Node000015" class="edge">
<title>Node20&#45;&gt;Node15</title>
<g id="a_edge35_Node000020_Node000015"><a xlink:title=" ">
<path fill="none" stroke="#63b8ff" d="M1392.77,-288.63C1303.53,-286.24 1170.82,-276.3 1138.64,-239 1079.92,-170.96 1226.42,-119.53 1313.15,-96.05"/>
<polygon fill="#63b8ff" stroke="#63b8ff" points="1392.81,-292.13 1402.89,-288.87 1392.97,-285.13 1392.81,-292.13"/>
</a>
</g>
</g>
<!-- Node20&#45;&gt;Node21 -->
<g id="edge28_Node000020_Node000021" class="edge">
<title>Node20&#45;&gt;Node21</title>
<g id="a_edge28_Node000020_Node000021"><a xlink:title=" ">
<path fill="none" stroke="#63b8ff" d="M1533.8,-272.09C1573.77,-260.28 1626.51,-244.68 1664.15,-233.54"/>
<polygon fill="#63b8ff" stroke="#63b8ff" points="1532.79,-268.74 1524.19,-274.94 1534.78,-275.46 1532.79,-268.74"/>
</a>
</g>
</g>
<!-- Node24 -->
<g id="Node000024" class="node">
<title>Node24</title>
<g id="a_Node000024"><a xlink:href="TechnicianRepository_8cpp.html" target="_top" xlink:title="Implements the TechnicianRepository class responsible for managing technician records and notifying o...">
<polygon fill="white" stroke="#666666" points="1470.64,-233.5 1330.64,-233.5 1330.64,-203.5 1470.64,-203.5 1470.64,-233.5"/>
<text text-anchor="start" x="1338.64" y="-221.5" font-family="Helvetica,sans-Serif" font-size="10.00">src/Repository/Technician</text>
<text text-anchor="middle" x="1400.64" y="-210.5" font-family="Helvetica,sans-Serif" font-size="10.00">Repository.cpp</text>
</a>
</g>
</g>
<!-- Node20&#45;&gt;Node24 -->
<g id="edge33_Node000020_Node000024" class="edge">
<title>Node20&#45;&gt;Node24</title>
<g id="a_edge33_Node000020_Node000024"><a xlink:title=" ">
<path fill="none" stroke="#63b8ff" d="M1453.66,-267.99C1441.47,-256.84 1426.81,-243.43 1416,-233.54"/>
<polygon fill="#63b8ff" stroke="#63b8ff" points="1451.52,-270.77 1461.26,-274.94 1456.24,-265.6 1451.52,-270.77"/>
</a>
</g>
</g>
<!-- Node25 -->
<g id="Node000025" class="node">
<title>Node25</title>
<g id="a_Node000025"><a xlink:href="TechListController_8cpp.html" target="_top" xlink:title="Implements the TechListController class, which manages technician&#45;related combo boxes and observes re...">
<polygon fill="white" stroke="#666666" points="1614.64,-233.5 1488.64,-233.5 1488.64,-203.5 1614.64,-203.5 1614.64,-233.5"/>
<text text-anchor="start" x="1496.64" y="-221.5" font-family="Helvetica,sans-Serif" font-size="10.00">src/Views/Controllers</text>
<text text-anchor="middle" x="1551.64" y="-210.5" font-family="Helvetica,sans-Serif" font-size="10.00">/TechListController.cpp</text>
</a>
</g>
</g>
<!-- Node20&#45;&gt;Node25 -->
<g id="edge34_Node000020_Node000025" class="edge">
<title>Node20&#45;&gt;Node25</title>
<g id="a_edge34_Node000020_Node000025"><a xlink:title=" ">
<path fill="none" stroke="#63b8ff" d="M1499.31,-267.99C1511.35,-256.84 1525.81,-243.43 1536.48,-233.54"/>
<polygon fill="#63b8ff" stroke="#63b8ff" points="1496.77,-265.57 1491.82,-274.94 1501.53,-270.71 1496.77,-265.57"/>
</a>
</g>
</g>
<!-- Node26 -->
<g id="Node000026" class="node">
<title>Node26</title>
<g id="a_Node000026"><a xlink:href="TechniciansListView_8cpp.html" target="_top" xlink:title="Implements the TechniciansListView class, which displays a list of technicians and handles selection ...">
<polygon fill="white" stroke="#666666" points="1312.14,-233.5 1147.14,-233.5 1147.14,-203.5 1312.14,-203.5 1312.14,-233.5"/>
<text text-anchor="start" x="1155.14" y="-221.5" font-family="Helvetica,sans-Serif" font-size="10.00">src/Views/Widgets/Technicians</text>
<text text-anchor="middle" x="1229.64" y="-210.5" font-family="Helvetica,sans-Serif" font-size="10.00">ListView.cpp</text>
</a>
</g>
</g>
<!-- Node20&#45;&gt;Node26 -->
<g id="edge36_Node000020_Node000026" class="edge">
<title>Node20&#45;&gt;Node26</title>
<g id="a_edge36_Node000020_Node000026"><a xlink:title=" ">
<path fill="none" stroke="#63b8ff" d="M1416.82,-272.17C1374.79,-260.34 1319.2,-244.7 1279.55,-233.54"/>
<polygon fill="#63b8ff" stroke="#63b8ff" points="1416.08,-275.6 1426.65,-274.94 1417.98,-268.86 1416.08,-275.6"/>
</a>
</g>
</g>
<!-- Node21&#45;&gt;Node9 -->
<g id="edge31_Node000021_Node000009" class="edge">
<title>Node21&#45;&gt;Node9</title>
<g id="a_edge31_Node000021_Node000009"><a xlink:title=" ">
<path fill="none" stroke="#63b8ff" d="M1643.15,-200.91C1601.21,-189.82 1552.31,-174.96 1534.64,-162 1492.68,-131.23 1513.19,-91.14 1467.64,-66 1382.64,-19.08 718.34,-15.54 487.42,-15.74"/>
<polygon fill="#63b8ff" stroke="#63b8ff" points="1642.52,-204.36 1653.08,-203.5 1644.29,-197.59 1642.52,-204.36"/>
</a>
</g>
</g>
<!-- Node21&#45;&gt;Node13 -->
<g id="edge29_Node000021_Node000013" class="edge">
<title>Node21&#45;&gt;Node13</title>
<g id="a_edge29_Node000021_Node000013"><a xlink:title=" ">
<path fill="none" stroke="#63b8ff" d="M1712.22,-193.09C1711.37,-174.29 1707.26,-148.76 1692.64,-132 1628.25,-58.17 1513.89,-31.33 1438.4,-21.57"/>
<polygon fill="#63b8ff" stroke="#63b8ff" points="1708.72,-193.32 1712.39,-203.26 1715.72,-193.2 1708.72,-193.32"/>
</a>
</g>
</g>
<!-- Node22 -->
<g id="Node000022" class="node">
<title>Node22</title>
<g id="a_Node000022"><a xlink:href="TechnicianRepositoryProxy_8cpp.html" target="_top" xlink:title="Implements the TechnicianRepositoryProxy class and AccessDeniedException.">
<polygon fill="white" stroke="#666666" points="1683.64,-162 1543.64,-162 1543.64,-132 1683.64,-132 1683.64,-162"/>
<text text-anchor="start" x="1551.64" y="-150" font-family="Helvetica,sans-Serif" font-size="10.00">src/Repository/Technician</text>
<text text-anchor="middle" x="1613.64" y="-139" font-family="Helvetica,sans-Serif" font-size="10.00">RepositoryProxy.cpp</text>
</a>
</g>
</g>
<!-- Node21&#45;&gt;Node22 -->
<g id="edge30_Node000021_Node000022" class="edge">
<title>Node21&#45;&gt;Node22</title>
<g id="a_edge30_Node000021_Node000022"><a xlink:title=" ">
<path fill="none" stroke="#63b8ff" d="M1683.35,-197.44C1667.37,-186.1 1647.78,-172.21 1633.44,-162.04"/>
<polygon fill="#63b8ff" stroke="#63b8ff" points="1681.63,-200.51 1691.81,-203.44 1685.67,-194.8 1681.63,-200.51"/>
</a>
</g>
</g>
<!-- Node23 -->
<g id="Node000023" class="node">
<title>Node23</title>
<g id="a_Node000023"><a xlink:href="TechniciansPage_8cpp.html" target="_top" xlink:title="Implements the TechniciansPage class, managing the technician creation and edition UI.">
<polygon fill="white" stroke="#666666" points="1895.64,-162 1741.64,-162 1741.64,-132 1895.64,-132 1895.64,-162"/>
<text text-anchor="start" x="1749.64" y="-150" font-family="Helvetica,sans-Serif" font-size="10.00">src/Views/Pages/Technicians</text>
<text text-anchor="middle" x="1818.64" y="-139" font-family="Helvetica,sans-Serif" font-size="10.00">Page.cpp</text>
</a>
</g>
</g>
<!-- Node21&#45;&gt;Node23 -->
<g id="edge32_Node000021_Node000023" class="edge">
<title>Node21&#45;&gt;Node23</title>
<g id="a_edge32_Node000021_Node000023"><a xlink:title=" ">
<path fill="none" stroke="#63b8ff" d="M1742.04,-197.75C1759.58,-186.36 1781.22,-172.31 1797.02,-162.04"/>
<polygon fill="#63b8ff" stroke="#63b8ff" points="1739.77,-195.05 1733.29,-203.44 1743.58,-200.92 1739.77,-195.05"/>
</a>
</g>
</g>
<!-- Node27&#45;&gt;Node23 -->
<g id="edge40_Node000027_Node000023" class="edge">
<title>Node27&#45;&gt;Node23</title>
<g id="a_edge40_Node000027_Node000023"><a xlink:title=" ">
<path fill="none" stroke="#63b8ff" d="M1818.64,-264.7C1818.64,-235.22 1818.64,-186.49 1818.64,-162.4"/>
<polygon fill="#63b8ff" stroke="#63b8ff" points="1815.14,-264.96 1818.64,-274.96 1822.14,-264.96 1815.14,-264.96"/>
</a>
</g>
</g>
<!-- Node28 -->
<g id="Node000028" class="node">
<title>Node28</title>
<g id="a_Node000028"><a xlink:href="BasicTechnician_8cpp.html" target="_top" xlink:title="Implements the BasicTechnician class.">
<polygon fill="white" stroke="#666666" points="2031.14,-228 1846.14,-228 1846.14,-209 2031.14,-209 2031.14,-228"/>
<text text-anchor="middle" x="1938.64" y="-216" font-family="Helvetica,sans-Serif" font-size="10.00">src/Technician/BasicTechnician.cpp</text>
</a>
</g>
</g>
<!-- Node27&#45;&gt;Node28 -->
<g id="edge39_Node000027_Node000028" class="edge">
<title>Node27&#45;&gt;Node28</title>
<g id="a_edge39_Node000027_Node000028"><a xlink:title=" ">
<path fill="none" stroke="#63b8ff" d="M1851.59,-269.92C1875.22,-256.23 1905.93,-238.44 1923.85,-228.07"/>
<polygon fill="#63b8ff" stroke="#63b8ff" points="1849.82,-266.9 1842.92,-274.94 1853.33,-272.95 1849.82,-266.9"/>
</a>
</g>
</g>
<!-- Node30 -->
<g id="Node000030" class="node">
<title>Node30</title>
<g id="a_Node000030"><a xlink:href="ExpertiseDecorator_8h.html" target="_top" xlink:title="Declares the ExpertiseDecorator class, which adds an expertise field to a technician using the Decora...">
<polygon fill="white" stroke="#666666" points="2195.64,-233.5 2049.64,-233.5 2049.64,-203.5 2195.64,-203.5 2195.64,-233.5"/>
<text text-anchor="start" x="2057.64" y="-221.5" font-family="Helvetica,sans-Serif" font-size="10.00">include/TechMa/Technician</text>
<text text-anchor="middle" x="2122.64" y="-210.5" font-family="Helvetica,sans-Serif" font-size="10.00">/ExpertiseDecorator.h</text>
</a>
</g>
</g>
<!-- Node29&#45;&gt;Node30 -->
<g id="edge42_Node000029_Node000030" class="edge">
<title>Node29&#45;&gt;Node30</title>
<g id="a_edge42_Node000029_Node000030"><a xlink:title=" ">
<path fill="none" stroke="#63b8ff" d="M2156.6,-266.71C2148.77,-255.82 2139.58,-243.05 2132.74,-233.54"/>
<polygon fill="#63b8ff" stroke="#63b8ff" points="2153.84,-268.86 2162.52,-274.94 2159.52,-264.77 2153.84,-268.86"/>
</a>
</g>
</g>
<!-- Node31 -->
<g id="Node000031" class="node">
<title>Node31</title>
<g id="a_Node000031"><a xlink:href="ExpertiseDecorator_8cpp.html" target="_top" xlink:title="Implements the ExpertiseDecorator class, which extends a technician&#39;s expertise using the Decorator p...">
<polygon fill="white" stroke="#666666" points="2239.64,-162 2105.64,-162 2105.64,-132 2239.64,-132 2239.64,-162"/>
<text text-anchor="start" x="2113.64" y="-150" font-family="Helvetica,sans-Serif" font-size="10.00">src/Technician/Expertise</text>
<text text-anchor="middle" x="2172.64" y="-139" font-family="Helvetica,sans-Serif" font-size="10.00">Decorator.cpp</text>
</a>
</g>
</g>
<!-- Node29&#45;&gt;Node31 -->
<g id="edge45_Node000029_Node000031" class="edge">
<title>Node29&#45;&gt;Node31</title>
<g id="a_edge45_Node000029_Node000031"><a xlink:title=" ">
<path fill="none" stroke="#63b8ff" d="M2190.85,-266.55C2196.4,-258.37 2201.79,-248.73 2204.64,-239 2209.76,-221.51 2209.76,-215.49 2204.64,-198 2200.76,-184.75 2192.17,-171.67 2184.87,-162.21"/>
<polygon fill="#63b8ff" stroke="#63b8ff" points="2187.91,-264.64 2184.87,-274.79 2193.58,-268.75 2187.91,-264.64"/>
</a>
</g>
</g>
<!-- Node32 -->
<g id="Node000032" class="node">
<title>Node32</title>
<g id="a_Node000032"><a xlink:href="TechnicianDecorator_8cpp.html" target="_top" xlink:title="Implements the TechnicianDecorator abstract class, which delegates functionality to a wrapped ATechni...">
<polygon fill="white" stroke="#666666" points="2391.14,-233.5 2252.14,-233.5 2252.14,-203.5 2391.14,-203.5 2391.14,-233.5"/>
<text text-anchor="start" x="2260.14" y="-221.5" font-family="Helvetica,sans-Serif" font-size="10.00">src/Technician/Technician</text>
<text text-anchor="middle" x="2321.64" y="-210.5" font-family="Helvetica,sans-Serif" font-size="10.00">Decorator.cpp</text>
</a>
</g>
</g>
<!-- Node29&#45;&gt;Node32 -->
<g id="edge46_Node000029_Node000032" class="edge">
<title>Node29&#45;&gt;Node32</title>
<g id="a_edge46_Node000029_Node000032"><a xlink:title=" ">
<path fill="none" stroke="#63b8ff" d="M2211.97,-270.65C2236.89,-259.03 2268.62,-244.23 2291.53,-233.54"/>
<polygon fill="#63b8ff" stroke="#63b8ff" points="2210.37,-267.54 2202.79,-274.94 2213.33,-273.88 2210.37,-267.54"/>
</a>
</g>
</g>
<!-- Node30&#45;&gt;Node23 -->
<g id="edge44_Node000030_Node000023" class="edge">
<title>Node30&#45;&gt;Node23</title>
<g id="a_edge44_Node000030_Node000023"><a xlink:title=" ">
<path fill="none" stroke="#63b8ff" d="M2054.04,-201.12C2049.5,-200.06 2045.01,-199.01 2040.64,-198 1987.14,-185.61 1926.29,-171.94 1881.84,-162.02"/>
<polygon fill="#63b8ff" stroke="#63b8ff" points="2053.44,-204.58 2063.98,-203.46 2055.05,-197.76 2053.44,-204.58"/>
</a>
</g>
</g>
<!-- Node30&#45;&gt;Node31 -->
<g id="edge43_Node000030_Node000031" class="edge">
<title>Node30&#45;&gt;Node31</title>
<g id="a_edge43_Node000030_Node000031"><a xlink:title=" ">
<path fill="none" stroke="#63b8ff" d="M2138.68,-195.21C2146.51,-184.32 2155.69,-171.55 2162.54,-162.04"/>
<polygon fill="#63b8ff" stroke="#63b8ff" points="2135.76,-193.27 2132.76,-203.44 2141.44,-197.36 2135.76,-193.27"/>
</a>
</g>
</g>
</g>
</svg>
