<?xml version="1.0" encoding="UTF-8" standalone="no"?>
<!DOCTYPE svg PUBLIC "-//W3C//DTD SVG 1.1//EN"
 "http://www.w3.org/Graphics/SVG/1.1/DTD/svg11.dtd">
<!-- Generated by graphviz version 2.43.0 (0)
 -->
<!-- Title: src/Technician/BasicTechnician.cpp Pages: 1 -->
<svg width="305pt" height="247pt"
 viewBox="0.00 0.00 305.16 247.00" xmlns="http://www.w3.org/2000/svg" xmlns:xlink="http://www.w3.org/1999/xlink">
<g id="graph0" class="graph" transform="scale(1 1) rotate(0) translate(4 243)">
<title>src/Technician/BasicTechnician.cpp</title>
<!-- Node1 -->
<g id="Node000001" class="node">
<title>Node1</title>
<g id="a_Node000001"><a xlink:title="Implements the BasicTechnician class.">
<polygon fill="#999999" stroke="#666666" points="264.16,-239 79.16,-239 79.16,-220 264.16,-220 264.16,-239"/>
<text text-anchor="middle" x="171.66" y="-227" font-family="Helvetica,sans-Serif" font-size="10.00">src/Technician/BasicTechnician.cpp</text>
</a>
</g>
</g>
<!-- Node2 -->
<g id="Node000002" class="node">
<title>Node2</title>
<g id="a_Node000002"><a xlink:href="BasicTechnician_8h.html" target="_top" xlink:title="Declares the BasicTechnician class, a simple implementation of the ATechnician interface.">
<polygon fill="white" stroke="#666666" points="207.16,-184 10.16,-184 10.16,-165 207.16,-165 207.16,-184"/>
<text text-anchor="middle" x="108.66" y="-172" font-family="Helvetica,sans-Serif" font-size="10.00">TechMa/Technician/BasicTechnician.h</text>
</a>
</g>
</g>
<!-- Node1&#45;&gt;Node2 -->
<g id="edge1_Node000001_Node000002" class="edge">
<title>Node1&#45;&gt;Node2</title>
<g id="a_edge1_Node000001_Node000002"><a xlink:title=" ">
<path fill="none" stroke="#63b8ff" d="M161.54,-219.98C152.23,-212.15 138.19,-200.34 126.92,-190.86"/>
<polygon fill="#63b8ff" stroke="#63b8ff" points="128.87,-187.93 118.97,-184.17 124.37,-193.29 128.87,-187.93"/>
</a>
</g>
</g>
<!-- Node6 -->
<g id="Node000006" class="node">
<title>Node6</title>
<g id="a_Node000006"><a xlink:href="ExpertiseField_8h.html" target="_top" xlink:title="Declares the ExpertiseField enum class representing technician specializations, and a utility functio...">
<polygon fill="white" stroke="#666666" points="297.16,-74 132.16,-74 132.16,-55 297.16,-55 297.16,-74"/>
<text text-anchor="middle" x="214.66" y="-62" font-family="Helvetica,sans-Serif" font-size="10.00">TechMa/Types/ExpertiseField.h</text>
</a>
</g>
</g>
<!-- Node1&#45;&gt;Node6 -->
<g id="edge9_Node000001_Node000006" class="edge">
<title>Node1&#45;&gt;Node6</title>
<g id="a_edge9_Node000001_Node000006"><a xlink:title=" ">
<path fill="none" stroke="#63b8ff" d="M185.15,-219.75C195.95,-211.87 210.31,-199.21 216.66,-184 230.42,-151.05 224.61,-108.33 219.43,-84.22"/>
<polygon fill="#63b8ff" stroke="#63b8ff" points="222.79,-83.21 217.11,-74.27 215.98,-84.81 222.79,-83.21"/>
</a>
</g>
</g>
<!-- Node3 -->
<g id="Node000003" class="node">
<title>Node3</title>
<g id="a_Node000003"><a xlink:title=" ">
<polygon fill="#e0e0e0" stroke="#999999" points="60.66,-19 16.66,-19 16.66,0 60.66,0 60.66,-19"/>
<text text-anchor="middle" x="38.66" y="-7" font-family="Helvetica,sans-Serif" font-size="10.00">string</text>
</a>
</g>
</g>
<!-- Node2&#45;&gt;Node3 -->
<g id="edge2_Node000002_Node000003" class="edge">
<title>Node2&#45;&gt;Node3</title>
<g id="a_edge2_Node000002_Node000003"><a xlink:title=" ">
<path fill="none" stroke="#63b8ff" d="M63.2,-164.96C42.89,-158.64 20.82,-147.72 8.66,-129 -11.95,-97.26 10.71,-52.24 26.36,-27.84"/>
<polygon fill="#63b8ff" stroke="#63b8ff" points="29.43,-29.55 32.1,-19.29 23.62,-25.64 29.43,-29.55"/>
</a>
</g>
</g>
<!-- Node4 -->
<g id="Node000004" class="node">
<title>Node4</title>
<g id="a_Node000004"><a xlink:href="ATechnician_8h.html" target="_top" xlink:title="Defines the abstract base class ATechnician representing a technician entity.">
<polygon fill="white" stroke="#666666" points="179.66,-129 17.66,-129 17.66,-110 179.66,-110 179.66,-129"/>
<text text-anchor="middle" x="98.66" y="-117" font-family="Helvetica,sans-Serif" font-size="10.00">TechMa/Entities/ATechnician.h</text>
</a>
</g>
</g>
<!-- Node2&#45;&gt;Node4 -->
<g id="edge3_Node000002_Node000004" class="edge">
<title>Node2&#45;&gt;Node4</title>
<g id="a_edge3_Node000002_Node000004"><a xlink:title=" ">
<path fill="none" stroke="#63b8ff" d="M107.01,-164.75C105.7,-157.8 103.82,-147.85 102.18,-139.13"/>
<polygon fill="#63b8ff" stroke="#63b8ff" points="105.58,-138.27 100.28,-129.09 98.7,-139.56 105.58,-138.27"/>
</a>
</g>
</g>
<!-- Node2&#45;&gt;Node6 -->
<g id="edge8_Node000002_Node000006" class="edge">
<title>Node2&#45;&gt;Node6</title>
<g id="a_edge8_Node000002_Node000006"><a xlink:title=" ">
<path fill="none" stroke="#63b8ff" d="M133.21,-164.93C150.71,-157.72 173.68,-145.88 188.66,-129 200.02,-116.21 206.82,-97.78 210.59,-84.07"/>
<polygon fill="#63b8ff" stroke="#63b8ff" points="214.01,-84.83 213.01,-74.29 207.22,-83.16 214.01,-84.83"/>
</a>
</g>
</g>
<!-- Node4&#45;&gt;Node3 -->
<g id="edge4_Node000004_Node000003" class="edge">
<title>Node4&#45;&gt;Node3</title>
<g id="a_edge4_Node000004_Node000003"><a xlink:title=" ">
<path fill="none" stroke="#63b8ff" d="M88.49,-109.95C79.22,-101.65 65.77,-88.24 57.66,-74 49.74,-60.08 44.81,-42.52 41.97,-29.4"/>
<polygon fill="#63b8ff" stroke="#63b8ff" points="45.33,-28.35 39.98,-19.21 38.46,-29.69 45.33,-28.35"/>
</a>
</g>
</g>
<!-- Node5 -->
<g id="Node000005" class="node">
<title>Node5</title>
<g id="a_Node000005"><a xlink:title=" ">
<polygon fill="#e0e0e0" stroke="#999999" points="114.16,-74 67.16,-74 67.16,-55 114.16,-55 114.16,-74"/>
<text text-anchor="middle" x="90.66" y="-62" font-family="Helvetica,sans-Serif" font-size="10.00">vector</text>
</a>
</g>
</g>
<!-- Node4&#45;&gt;Node5 -->
<g id="edge5_Node000004_Node000005" class="edge">
<title>Node4&#45;&gt;Node5</title>
<g id="a_edge5_Node000004_Node000005"><a xlink:title=" ">
<path fill="none" stroke="#63b8ff" d="M97.34,-109.75C96.29,-102.8 94.79,-92.85 93.47,-84.13"/>
<polygon fill="#63b8ff" stroke="#63b8ff" points="96.91,-83.45 91.96,-74.09 89.99,-84.5 96.91,-83.45"/>
</a>
</g>
</g>
<!-- Node4&#45;&gt;Node6 -->
<g id="edge6_Node000004_Node000006" class="edge">
<title>Node4&#45;&gt;Node6</title>
<g id="a_edge6_Node000004_Node000006"><a xlink:title=" ">
<path fill="none" stroke="#63b8ff" d="M117.3,-109.98C135.96,-101.46 164.91,-88.23 186.4,-78.41"/>
<polygon fill="#63b8ff" stroke="#63b8ff" points="188.04,-81.51 195.69,-74.17 185.14,-75.14 188.04,-81.51"/>
</a>
</g>
</g>
<!-- Node6&#45;&gt;Node3 -->
<g id="edge7_Node000006_Node000003" class="edge">
<title>Node6&#45;&gt;Node3</title>
<g id="a_edge7_Node000006_Node000003"><a xlink:title=" ">
<path fill="none" stroke="#63b8ff" d="M186.38,-54.98C154.68,-45.44 103.4,-30 70.37,-20.05"/>
<polygon fill="#63b8ff" stroke="#63b8ff" points="71.33,-16.68 60.74,-17.15 69.31,-23.38 71.33,-16.68"/>
</a>
</g>
</g>
</g>
</svg>
