<?xml version="1.0" encoding="UTF-8" standalone="no"?>
<!DOCTYPE svg PUBLIC "-//W3C//DTD SVG 1.1//EN"
 "http://www.w3.org/Graphics/SVG/1.1/DTD/svg11.dtd">
<!-- Generated by graphviz version 2.43.0 (0)
 -->
<!-- Title: include/TechMa/Technician/BasicTechnician.h Pages: 1 -->
<svg width="298pt" height="203pt"
 viewBox="0.00 0.00 298.06 203.00" xmlns="http://www.w3.org/2000/svg" xmlns:xlink="http://www.w3.org/1999/xlink">
<g id="graph0" class="graph" transform="scale(1 1) rotate(0) translate(4 199)">
<title>include/TechMa/Technician/BasicTechnician.h</title>
<!-- Node1 -->
<g id="Node000001" class="node">
<title>Node1</title>
<g id="a_Node000001"><a xlink:title="Declares the BasicTechnician class, a simple implementation of the ATechnician interface.">
<polygon fill="#999999" stroke="#666666" points="171.56,-195 25.56,-195 25.56,-165 171.56,-165 171.56,-195"/>
<text text-anchor="start" x="33.56" y="-183" font-family="Helvetica,sans-Serif" font-size="10.00">include/TechMa/Technician</text>
<text text-anchor="middle" x="98.56" y="-172" font-family="Helvetica,sans-Serif" font-size="10.00">/BasicTechnician.h</text>
</a>
</g>
</g>
<!-- Node2 -->
<g id="Node000002" class="node">
<title>Node2</title>
<g id="a_Node000002"><a xlink:title=" ">
<polygon fill="#e0e0e0" stroke="#999999" points="53.56,-19 9.56,-19 9.56,0 53.56,0 53.56,-19"/>
<text text-anchor="middle" x="31.56" y="-7" font-family="Helvetica,sans-Serif" font-size="10.00">string</text>
</a>
</g>
</g>
<!-- Node1&#45;&gt;Node2 -->
<g id="edge1_Node000001_Node000002" class="edge">
<title>Node1&#45;&gt;Node2</title>
<g id="a_edge1_Node000001_Node000002"><a xlink:title=" ">
<path fill="none" stroke="#63b8ff" d="M52.92,-164.87C35.9,-157.14 18.35,-145.64 8.56,-129 -10.31,-96.93 8.06,-52.35 21.09,-28.03"/>
<polygon fill="#63b8ff" stroke="#63b8ff" points="24.19,-29.65 26.06,-19.22 18.1,-26.21 24.19,-29.65"/>
</a>
</g>
</g>
<!-- Node3 -->
<g id="Node000003" class="node">
<title>Node3</title>
<g id="a_Node000003"><a xlink:href="ATechnician_8h.html" target="_top" xlink:title="Defines the abstract base class ATechnician representing a technician entity.">
<polygon fill="white" stroke="#666666" points="179.56,-129 17.56,-129 17.56,-110 179.56,-110 179.56,-129"/>
<text text-anchor="middle" x="98.56" y="-117" font-family="Helvetica,sans-Serif" font-size="10.00">TechMa/Entities/ATechnician.h</text>
</a>
</g>
</g>
<!-- Node1&#45;&gt;Node3 -->
<g id="edge2_Node000001_Node000003" class="edge">
<title>Node1&#45;&gt;Node3</title>
<g id="a_edge2_Node000001_Node000003"><a xlink:title=" ">
<path fill="none" stroke="#63b8ff" d="M98.56,-164.84C98.56,-157.21 98.56,-147.7 98.56,-139.45"/>
<polygon fill="#63b8ff" stroke="#63b8ff" points="102.06,-139.27 98.56,-129.27 95.06,-139.27 102.06,-139.27"/>
</a>
</g>
</g>
<!-- Node5 -->
<g id="Node000005" class="node">
<title>Node5</title>
<g id="a_Node000005"><a xlink:href="ExpertiseField_8h.html" target="_top" xlink:title="Declares the ExpertiseField enum class representing technician specializations, and a utility functio...">
<polygon fill="white" stroke="#666666" points="290.06,-74 125.06,-74 125.06,-55 290.06,-55 290.06,-74"/>
<text text-anchor="middle" x="207.56" y="-62" font-family="Helvetica,sans-Serif" font-size="10.00">TechMa/Types/ExpertiseField.h</text>
</a>
</g>
</g>
<!-- Node1&#45;&gt;Node5 -->
<g id="edge7_Node000001_Node000005" class="edge">
<title>Node1&#45;&gt;Node5</title>
<g id="a_edge7_Node000001_Node000005"><a xlink:title=" ">
<path fill="none" stroke="#63b8ff" d="M138.22,-164.99C155.87,-156.94 175.57,-145.16 188.56,-129 198.82,-116.25 203.54,-98.07 205.72,-84.43"/>
<polygon fill="#63b8ff" stroke="#63b8ff" points="209.22,-84.62 207.01,-74.26 202.28,-83.74 209.22,-84.62"/>
</a>
</g>
</g>
<!-- Node3&#45;&gt;Node2 -->
<g id="edge3_Node000003_Node000002" class="edge">
<title>Node3&#45;&gt;Node2</title>
<g id="a_edge3_Node000003_Node000002"><a xlink:title=" ">
<path fill="none" stroke="#63b8ff" d="M86.5,-109.92C75.88,-101.79 60.74,-88.67 51.56,-74 42.94,-60.22 37.76,-42.42 34.84,-29.17"/>
<polygon fill="#63b8ff" stroke="#63b8ff" points="38.26,-28.44 32.89,-19.3 31.39,-29.79 38.26,-28.44"/>
</a>
</g>
</g>
<!-- Node4 -->
<g id="Node000004" class="node">
<title>Node4</title>
<g id="a_Node000004"><a xlink:title=" ">
<polygon fill="#e0e0e0" stroke="#999999" points="107.06,-74 60.06,-74 60.06,-55 107.06,-55 107.06,-74"/>
<text text-anchor="middle" x="83.56" y="-62" font-family="Helvetica,sans-Serif" font-size="10.00">vector</text>
</a>
</g>
</g>
<!-- Node3&#45;&gt;Node4 -->
<g id="edge4_Node000003_Node000004" class="edge">
<title>Node3&#45;&gt;Node4</title>
<g id="a_edge4_Node000003_Node000004"><a xlink:title=" ">
<path fill="none" stroke="#63b8ff" d="M96.09,-109.75C94.1,-102.72 91.24,-92.62 88.76,-83.84"/>
<polygon fill="#63b8ff" stroke="#63b8ff" points="92.09,-82.76 85.99,-74.09 85.35,-84.66 92.09,-82.76"/>
</a>
</g>
</g>
<!-- Node3&#45;&gt;Node5 -->
<g id="edge5_Node000003_Node000005" class="edge">
<title>Node3&#45;&gt;Node5</title>
<g id="a_edge5_Node000003_Node000005"><a xlink:title=" ">
<path fill="none" stroke="#63b8ff" d="M116.08,-109.98C133.53,-101.5 160.57,-88.35 180.74,-78.54"/>
<polygon fill="#63b8ff" stroke="#63b8ff" points="182.27,-81.69 189.73,-74.17 179.21,-75.4 182.27,-81.69"/>
</a>
</g>
</g>
<!-- Node5&#45;&gt;Node2 -->
<g id="edge6_Node000005_Node000002" class="edge">
<title>Node5&#45;&gt;Node2</title>
<g id="a_edge6_Node000005_Node000002"><a xlink:title=" ">
<path fill="none" stroke="#63b8ff" d="M179.29,-54.98C147.58,-45.44 96.3,-30 63.27,-20.05"/>
<polygon fill="#63b8ff" stroke="#63b8ff" points="64.23,-16.68 53.64,-17.15 62.21,-23.38 64.23,-16.68"/>
</a>
</g>
</g>
</g>
</svg>
