<?xml version="1.0" encoding="UTF-8" standalone="no"?>
<!DOCTYPE svg PUBLIC "-//W3C//DTD SVG 1.1//EN"
 "http://www.w3.org/Graphics/SVG/1.1/DTD/svg11.dtd">
<!-- Generated by graphviz version 2.43.0 (0)
 -->
<!-- Title: include/TechMa/Technician/BasicTechnician.h Pages: 1 -->
<svg width="366pt" height="104pt"
 viewBox="0.00 0.00 365.50 104.00" xmlns="http://www.w3.org/2000/svg" xmlns:xlink="http://www.w3.org/1999/xlink">
<g id="graph0" class="graph" transform="scale(1 1) rotate(0) translate(4 100)">
<title>include/TechMa/Technician/BasicTechnician.h</title>
<!-- Node1 -->
<g id="Node000001" class="node">
<title>Node1</title>
<g id="a_Node000001"><a xlink:title="Declares the BasicTechnician class, a simple implementation of the ATechnician interface.">
<polygon fill="#999999" stroke="#666666" points="259.5,-96 113.5,-96 113.5,-66 259.5,-66 259.5,-96"/>
<text text-anchor="start" x="121.5" y="-84" font-family="Helvetica,sans-Serif" font-size="10.00">include/TechMa/Technician</text>
<text text-anchor="middle" x="186.5" y="-73" font-family="Helvetica,sans-Serif" font-size="10.00">/BasicTechnician.h</text>
</a>
</g>
</g>
<!-- Node2 -->
<g id="Node000002" class="node">
<title>Node2</title>
<g id="a_Node000002"><a xlink:href="BasicTechnician_8cpp.html" target="_top" xlink:title="Implements the BasicTechnician class.">
<polygon fill="white" stroke="#666666" points="185,-24.5 0,-24.5 0,-5.5 185,-5.5 185,-24.5"/>
<text text-anchor="middle" x="92.5" y="-12.5" font-family="Helvetica,sans-Serif" font-size="10.00">src/Technician/BasicTechnician.cpp</text>
</a>
</g>
</g>
<!-- Node1&#45;&gt;Node2 -->
<g id="edge1_Node000001_Node000002" class="edge">
<title>Node1&#45;&gt;Node2</title>
<g id="a_edge1_Node000001_Node000002"><a xlink:title=" ">
<path fill="none" stroke="#63b8ff" d="M156.94,-59.87C139.54,-48.03 118.42,-33.65 105.22,-24.66"/>
<polygon fill="#63b8ff" stroke="#63b8ff" points="155.4,-63.06 165.64,-65.8 159.34,-57.28 155.4,-63.06"/>
</a>
</g>
</g>
<!-- Node3 -->
<g id="Node000003" class="node">
<title>Node3</title>
<g id="a_Node000003"><a xlink:href="TechniciansPage_8cpp.html" target="_top" xlink:title="Implements the TechniciansPage class, managing the technician creation and edition UI.">
<polygon fill="white" stroke="#666666" points="357.5,-30 203.5,-30 203.5,0 357.5,0 357.5,-30"/>
<text text-anchor="start" x="211.5" y="-18" font-family="Helvetica,sans-Serif" font-size="10.00">src/Views/Pages/Technicians</text>
<text text-anchor="middle" x="280.5" y="-7" font-family="Helvetica,sans-Serif" font-size="10.00">Page.cpp</text>
</a>
</g>
</g>
<!-- Node1&#45;&gt;Node3 -->
<g id="edge2_Node000001_Node000003" class="edge">
<title>Node1&#45;&gt;Node3</title>
<g id="a_edge2_Node000001_Node000003"><a xlink:title=" ">
<path fill="none" stroke="#63b8ff" d="M215.83,-60.03C230.06,-50.34 246.81,-38.94 259.7,-30.16"/>
<polygon fill="#63b8ff" stroke="#63b8ff" points="213.66,-57.28 207.36,-65.8 217.6,-63.06 213.66,-57.28"/>
</a>
</g>
</g>
</g>
</svg>
