<?xml version="1.0" encoding="UTF-8" standalone="no"?>
<!DOCTYPE svg PUBLIC "-//W3C//DTD SVG 1.1//EN"
 "http://www.w3.org/Graphics/SVG/1.1/DTD/svg11.dtd">
<!-- Generated by graphviz version 2.43.0 (0)
 -->
<!-- Title: AuthenticationService::AuthenticationService Pages: 1 -->
<svg width="298pt" height="76pt"
 viewBox="0.00 0.00 298.00 75.50" xmlns="http://www.w3.org/2000/svg" xmlns:xlink="http://www.w3.org/1999/xlink">
<g id="graph0" class="graph" transform="scale(1 1) rotate(0) translate(4 71.5)">
<title>AuthenticationService::AuthenticationService</title>
<!-- Node1 -->
<g id="Node000001" class="node">
<title>Node1</title>
<g id="a_Node000001"><a xlink:title=" ">
<polygon fill="#999999" stroke="#666666" points="130,-51 0,-51 0,-21 130,-21 130,-51"/>
<text text-anchor="start" x="8" y="-39" font-family="Helvetica,sans-Serif" font-size="10.00">AuthenticationService</text>
<text text-anchor="middle" x="65" y="-28" font-family="Helvetica,sans-Serif" font-size="10.00">::AuthenticationService</text>
</a>
</g>
</g>
<!-- Node2 -->
<g id="Node000002" class="node">
<title>Node2</title>
<g id="a_Node000002"><a xlink:href="UserAuthentication_8cpp.html#a55c1b35e9ad9f9520bbd0da24a54c23d" target="_top" xlink:title="Hashes a plain&#45;text password (stub implementation).">
<polygon fill="white" stroke="#666666" points="274,-67.5 182,-67.5 182,-48.5 274,-48.5 274,-67.5"/>
<text text-anchor="middle" x="228" y="-55.5" font-family="Helvetica,sans-Serif" font-size="10.00">hash_password</text>
</a>
</g>
</g>
<!-- Node1&#45;&gt;Node2 -->
<g id="edge1_Node000001_Node000002" class="edge">
<title>Node1&#45;&gt;Node2</title>
<g id="a_edge1_Node000001_Node000002"><a xlink:title=" ">
<path fill="none" stroke="#63b8ff" d="M130.09,-44.76C143.93,-46.65 158.44,-48.63 171.9,-50.47"/>
<polygon fill="#63b8ff" stroke="#63b8ff" points="171.57,-53.96 181.95,-51.84 172.52,-47.02 171.57,-53.96"/>
</a>
</g>
</g>
<!-- Node3 -->
<g id="Node000003" class="node">
<title>Node3</title>
<g id="a_Node000003"><a xlink:href="classAuthenticationService.html#a9a2e6de8a5408834bb5b6f700e7d6f90" target="_top" xlink:title=" ">
<polygon fill="white" stroke="#666666" points="290,-30 166,-30 166,0 290,0 290,-30"/>
<text text-anchor="start" x="174" y="-18" font-family="Helvetica,sans-Serif" font-size="10.00">AuthenticationService</text>
<text text-anchor="middle" x="228" y="-7" font-family="Helvetica,sans-Serif" font-size="10.00">::register_user</text>
</a>
</g>
</g>
<!-- Node1&#45;&gt;Node3 -->
<g id="edge2_Node000001_Node000003" class="edge">
<title>Node1&#45;&gt;Node3</title>
<g id="a_edge2_Node000001_Node000003"><a xlink:title=" ">
<path fill="none" stroke="#63b8ff" d="M130.09,-27.64C138.54,-26.54 147.24,-25.4 155.79,-24.29"/>
<polygon fill="#63b8ff" stroke="#63b8ff" points="156.28,-27.75 165.75,-22.99 155.38,-20.81 156.28,-27.75"/>
</a>
</g>
</g>
</g>
</svg>
