<?xml version="1.0" encoding="UTF-8" standalone="no"?>
<!DOCTYPE svg PUBLIC "-//W3C//DTD SVG 1.1//EN"
 "http://www.w3.org/Graphics/SVG/1.1/DTD/svg11.dtd">
<!-- Generated by graphviz version 2.43.0 (0)
 -->
<!-- Title: NavigationBar::NavigationBar Pages: 1 -->
<svg width="527pt" height="76pt"
 viewBox="0.00 0.00 527.00 75.50" xmlns="http://www.w3.org/2000/svg" xmlns:xlink="http://www.w3.org/1999/xlink">
<g id="graph0" class="graph" transform="scale(1 1) rotate(0) translate(4 71.5)">
<title>NavigationBar::NavigationBar</title>
<!-- Node1 -->
<g id="Node000001" class="node">
<title>Node1</title>
<g id="a_Node000001"><a xlink:title="Constructs the NavigationBar and sets up UI elements.">
<polygon fill="#999999" stroke="#666666" points="162,-40 0,-40 0,-21 162,-21 162,-40"/>
<text text-anchor="middle" x="81" y="-28" font-family="Helvetica,sans-Serif" font-size="10.00">NavigationBar::NavigationBar</text>
</a>
</g>
</g>
<!-- Node2 -->
<g id="Node000002" class="node">
<title>Node2</title>
<g id="a_Node000002"><a xlink:href="classNavigationBar.html#a32cc6158f37c7675670a84b937d18b88" target="_top" xlink:title="Connects signals and slots for tab interaction.">
<polygon fill="white" stroke="#666666" points="324.5,-67.5 205.5,-67.5 205.5,-37.5 324.5,-37.5 324.5,-67.5"/>
<text text-anchor="start" x="213.5" y="-55.5" font-family="Helvetica,sans-Serif" font-size="10.00">NavigationBar::setup</text>
<text text-anchor="middle" x="265" y="-44.5" font-family="Helvetica,sans-Serif" font-size="10.00">_connects</text>
</a>
</g>
</g>
<!-- Node1&#45;&gt;Node2 -->
<g id="edge1_Node000001_Node000002" class="edge">
<title>Node1&#45;&gt;Node2</title>
<g id="a_edge1_Node000001_Node000002"><a xlink:title=" ">
<path fill="none" stroke="#63b8ff" d="M160.77,-40.02C172.24,-41.41 183.98,-42.83 195.24,-44.19"/>
<polygon fill="#63b8ff" stroke="#63b8ff" points="195.07,-47.69 205.42,-45.42 195.91,-40.74 195.07,-47.69"/>
</a>
</g>
</g>
<!-- Node4 -->
<g id="Node000004" class="node">
<title>Node4</title>
<g id="a_Node000004"><a xlink:href="classNavigationBar.html#a9fc7448e27f29bec4cfaff7146c17b41" target="_top" xlink:title="Initializes the tab bar UI and appearance.">
<polygon fill="white" stroke="#666666" points="332,-19 198,-19 198,0 332,0 332,-19"/>
<text text-anchor="middle" x="265" y="-7" font-family="Helvetica,sans-Serif" font-size="10.00">NavigationBar::setup_ui</text>
</a>
</g>
</g>
<!-- Node1&#45;&gt;Node4 -->
<g id="edge3_Node000001_Node000004" class="edge">
<title>Node1&#45;&gt;Node4</title>
<g id="a_edge3_Node000001_Node000004"><a xlink:title=" ">
<path fill="none" stroke="#63b8ff" d="M162.09,-21.26C170.57,-20.28 179.17,-19.29 187.6,-18.32"/>
<polygon fill="#63b8ff" stroke="#63b8ff" points="188.25,-21.76 197.78,-17.14 187.45,-14.81 188.25,-21.76"/>
</a>
</g>
</g>
<!-- Node3 -->
<g id="Node000003" class="node">
<title>Node3</title>
<g id="a_Node000003"><a xlink:href="classNavigationBar.html#acd76499274ec17a39d7811b458a152bc" target="_top" xlink:title="Emitted when a new tab is selected.">
<polygon fill="white" stroke="#666666" points="519,-62 368,-62 368,-43 519,-43 519,-62"/>
<text text-anchor="middle" x="443.5" y="-50" font-family="Helvetica,sans-Serif" font-size="10.00">NavigationBar::tabChanged</text>
</a>
</g>
</g>
<!-- Node2&#45;&gt;Node3 -->
<g id="edge2_Node000002_Node000003" class="edge">
<title>Node2&#45;&gt;Node3</title>
<g id="a_edge2_Node000002_Node000003"><a xlink:title=" ">
<path fill="none" stroke="#63b8ff" d="M324.77,-52.5C335.37,-52.5 346.6,-52.5 357.76,-52.5"/>
<polygon fill="#63b8ff" stroke="#63b8ff" points="357.97,-56 367.97,-52.5 357.97,-49 357.97,-56"/>
</a>
</g>
</g>
<!-- Node5 -->
<g id="Node000005" class="node">
<title>Node5</title>
<g id="a_Node000005"><a xlink:href="classNavigationBar.html#a00c3a712265442703c4050cc7057e7da" target="_top" xlink:title="Renders an SVG file into a QPixmap.">
<polygon fill="white" stroke="#666666" points="513.5,-19 373.5,-19 373.5,0 513.5,0 513.5,-19"/>
<text text-anchor="middle" x="443.5" y="-7" font-family="Helvetica,sans-Serif" font-size="10.00">NavigationBar::paint_svg</text>
</a>
</g>
</g>
<!-- Node4&#45;&gt;Node5 -->
<g id="edge4_Node000004_Node000005" class="edge">
<title>Node4&#45;&gt;Node5</title>
<g id="a_edge4_Node000004_Node000005"><a xlink:title=" ">
<path fill="none" stroke="#63b8ff" d="M332.22,-9.5C342.27,-9.5 352.73,-9.5 363.03,-9.5"/>
<polygon fill="#63b8ff" stroke="#63b8ff" points="363.25,-13 373.25,-9.5 363.25,-6 363.25,-13"/>
</a>
</g>
</g>
</g>
</svg>
