<?xml version="1.0" encoding="UTF-8" standalone="no"?>
<!DOCTYPE svg PUBLIC "-//W3C//DTD SVG 1.1//EN"
 "http://www.w3.org/Graphics/SVG/1.1/DTD/svg11.dtd">
<!-- Generated by graphviz version 2.43.0 (0)
 -->
<!-- Title: LoginPage::logout Pages: 1 -->
<svg width="304pt" height="172pt"
 viewBox="0.00 0.00 304.00 172.00" xmlns="http://www.w3.org/2000/svg" xmlns:xlink="http://www.w3.org/1999/xlink">
<g id="graph0" class="graph" transform="scale(1 1) rotate(0) translate(4 168)">
<title>LoginPage::logout</title>
<!-- Node1 -->
<g id="Node000001" class="node">
<title>Node1</title>
<g id="a_Node000001"><a xlink:title="Logs out the current user.">
<polygon fill="#999999" stroke="#666666" points="103,-88.5 0,-88.5 0,-69.5 103,-69.5 103,-88.5"/>
<text text-anchor="middle" x="51.5" y="-76.5" font-family="Helvetica,sans-Serif" font-size="10.00">LoginPage::logout</text>
</a>
</g>
</g>
<!-- Node2 -->
<g id="Node000002" class="node">
<title>Node2</title>
<g id="a_Node000002"><a xlink:href="classAuthenticationService.html#a2dc8be4689e371d7a773ac008b21cf3a" target="_top" xlink:title=" ">
<polygon fill="white" stroke="#666666" points="279.5,-164 155.5,-164 155.5,-134 279.5,-134 279.5,-164"/>
<text text-anchor="start" x="163.5" y="-152" font-family="Helvetica,sans-Serif" font-size="10.00">AuthenticationService</text>
<text text-anchor="middle" x="217.5" y="-141" font-family="Helvetica,sans-Serif" font-size="10.00">::instance</text>
</a>
</g>
</g>
<!-- Node1&#45;&gt;Node2 -->
<g id="edge1_Node000001_Node000002" class="edge">
<title>Node1&#45;&gt;Node2</title>
<g id="a_edge1_Node000001_Node000002"><a xlink:title=" ">
<path fill="none" stroke="#63b8ff" d="M68.32,-88.58C85.34,-98.61 113.41,-114.34 139,-125 143.68,-126.95 148.57,-128.82 153.52,-130.6"/>
<polygon fill="#63b8ff" stroke="#63b8ff" points="152.49,-133.95 163.08,-133.91 154.78,-127.33 152.49,-133.95"/>
</a>
</g>
</g>
<!-- Node3 -->
<g id="Node000003" class="node">
<title>Node3</title>
<g id="a_Node000003"><a xlink:href="classAuthenticationService.html#ac9e51df93820c8d08347adae7fd4fbb7" target="_top" xlink:title=" ">
<polygon fill="white" stroke="#666666" points="279.5,-116 155.5,-116 155.5,-86 279.5,-86 279.5,-116"/>
<text text-anchor="start" x="163.5" y="-104" font-family="Helvetica,sans-Serif" font-size="10.00">AuthenticationService</text>
<text text-anchor="middle" x="217.5" y="-93" font-family="Helvetica,sans-Serif" font-size="10.00">::logout</text>
</a>
</g>
</g>
<!-- Node1&#45;&gt;Node3 -->
<g id="edge2_Node000001_Node000003" class="edge">
<title>Node1&#45;&gt;Node3</title>
<g id="a_edge2_Node000001_Node000003"><a xlink:title=" ">
<path fill="none" stroke="#63b8ff" d="M103.04,-85.78C116.37,-87.57 131.01,-89.53 145.21,-91.44"/>
<polygon fill="#63b8ff" stroke="#63b8ff" points="145.07,-94.95 155.45,-92.81 146,-88.01 145.07,-94.95"/>
</a>
</g>
</g>
<!-- Node4 -->
<g id="Node000004" class="node">
<title>Node4</title>
<g id="a_Node000004"><a xlink:href="classLoginPage.html#a01f112292372e79480e00057fd689e2f" target="_top" xlink:title="Emitted when the user requests to log out.">
<polygon fill="white" stroke="#666666" points="296,-67.5 139,-67.5 139,-48.5 296,-48.5 296,-67.5"/>
<text text-anchor="middle" x="217.5" y="-55.5" font-family="Helvetica,sans-Serif" font-size="10.00">LoginPage::logout_requested</text>
</a>
</g>
</g>
<!-- Node1&#45;&gt;Node4 -->
<g id="edge3_Node000001_Node000004" class="edge">
<title>Node1&#45;&gt;Node4</title>
<g id="a_edge3_Node000001_Node000004"><a xlink:title=" ">
<path fill="none" stroke="#63b8ff" d="M103.04,-72.53C112.36,-71.33 122.32,-70.06 132.32,-68.78"/>
<polygon fill="#63b8ff" stroke="#63b8ff" points="132.83,-72.24 142.31,-67.5 131.94,-65.3 132.83,-72.24"/>
</a>
</g>
</g>
<!-- Node5 -->
<g id="Node000005" class="node">
<title>Node5</title>
<g id="a_Node000005"><a xlink:href="classLoginPage.html#a64039d7b1a1fde6e38e7682bb17e94a0" target="_top" xlink:title="Resets the UI to the logged&#45;out state.">
<polygon fill="white" stroke="#666666" points="277.5,-30 157.5,-30 157.5,0 277.5,0 277.5,-30"/>
<text text-anchor="start" x="165.5" y="-18" font-family="Helvetica,sans-Serif" font-size="10.00">LoginPage::update_ui</text>
<text text-anchor="middle" x="217.5" y="-7" font-family="Helvetica,sans-Serif" font-size="10.00">_for_logged_out</text>
</a>
</g>
</g>
<!-- Node1&#45;&gt;Node5 -->
<g id="edge4_Node000001_Node000005" class="edge">
<title>Node1&#45;&gt;Node5</title>
<g id="a_edge4_Node000001_Node000005"><a xlink:title=" ">
<path fill="none" stroke="#63b8ff" d="M72.16,-69.38C89.52,-61.06 115.64,-49 139,-40 144.89,-37.73 151.08,-35.49 157.28,-33.35"/>
<polygon fill="#63b8ff" stroke="#63b8ff" points="158.66,-36.57 167.01,-30.05 156.42,-29.94 158.66,-36.57"/>
</a>
</g>
</g>
</g>
</svg>
