<?xml version="1.0" encoding="UTF-8" standalone="no"?>
<!DOCTYPE svg PUBLIC "-//W3C//DTD SVG 1.1//EN"
 "http://www.w3.org/Graphics/SVG/1.1/DTD/svg11.dtd">
<!-- Generated by graphviz version 2.43.0 (0)
 -->
<!-- Title: LoginPage::setup_connects Pages: 1 -->
<svg width="498pt" height="381pt"
 viewBox="0.00 0.00 498.00 380.50" xmlns="http://www.w3.org/2000/svg" xmlns:xlink="http://www.w3.org/1999/xlink">
<g id="graph0" class="graph" transform="scale(1 1) rotate(0) translate(4 376.5)">
<title>LoginPage::setup_connects</title>
<!-- Node1 -->
<g id="Node000001" class="node">
<title>Node1</title>
<g id="a_Node000001"><a xlink:title="Connects UI elements to their respective slots.">
<polygon fill="#999999" stroke="#666666" points="148,-174 0,-174 0,-155 148,-155 148,-174"/>
<text text-anchor="middle" x="74" y="-162" font-family="Helvetica,sans-Serif" font-size="10.00">LoginPage::setup_connects</text>
</a>
</g>
</g>
<!-- Node2 -->
<g id="Node000002" class="node">
<title>Node2</title>
<g id="a_Node000002"><a xlink:href="classLoginPage.html#ac14065c6e2529048d568cddef19f3028" target="_top" xlink:title="Attempts to log in with the provided username and password.">
<polygon fill="white" stroke="#666666" points="296,-243.5 185,-243.5 185,-213.5 296,-213.5 296,-243.5"/>
<text text-anchor="start" x="193" y="-231.5" font-family="Helvetica,sans-Serif" font-size="10.00">LoginPage::attempt</text>
<text text-anchor="middle" x="240.5" y="-220.5" font-family="Helvetica,sans-Serif" font-size="10.00">_login</text>
</a>
</g>
</g>
<!-- Node1&#45;&gt;Node2 -->
<g id="edge1_Node000001_Node000002" class="edge">
<title>Node1&#45;&gt;Node2</title>
<g id="a_edge1_Node000001_Node000002"><a xlink:title=" ">
<path fill="none" stroke="#63b8ff" d="M99.63,-174.08C123.81,-183.49 161.35,-198.09 191.45,-209.8"/>
<polygon fill="#63b8ff" stroke="#63b8ff" points="190.34,-213.13 200.93,-213.5 192.88,-206.61 190.34,-213.13"/>
</a>
</g>
</g>
<!-- Node9 -->
<g id="Node000009" class="node">
<title>Node9</title>
<g id="a_Node000009"><a xlink:href="classLoginPage.html#ad592b0f8f5de3de894e0b2cdbcc982f3" target="_top" xlink:title="Logs in as a guest (no credentials required).">
<polygon fill="white" stroke="#666666" points="297,-179.5 184,-179.5 184,-149.5 297,-149.5 297,-179.5"/>
<text text-anchor="start" x="192" y="-167.5" font-family="Helvetica,sans-Serif" font-size="10.00">LoginPage::login_as</text>
<text text-anchor="middle" x="240.5" y="-156.5" font-family="Helvetica,sans-Serif" font-size="10.00">_guest</text>
</a>
</g>
</g>
<!-- Node1&#45;&gt;Node9 -->
<g id="edge8_Node000001_Node000009" class="edge">
<title>Node1&#45;&gt;Node9</title>
<g id="a_edge8_Node000001_Node000009"><a xlink:title=" ">
<path fill="none" stroke="#63b8ff" d="M148.11,-164.5C156.65,-164.5 165.32,-164.5 173.76,-164.5"/>
<polygon fill="#63b8ff" stroke="#63b8ff" points="173.9,-168 183.9,-164.5 173.9,-161 173.9,-168"/>
</a>
</g>
</g>
<!-- Node11 -->
<g id="Node000011" class="node">
<title>Node11</title>
<g id="a_Node000011"><a xlink:href="classLoginPage.html#ae8fe253b5cce2c0285f66e29346c407b" target="_top" xlink:title="Logs out the current user.">
<polygon fill="white" stroke="#666666" points="292,-110 189,-110 189,-91 292,-91 292,-110"/>
<text text-anchor="middle" x="240.5" y="-98" font-family="Helvetica,sans-Serif" font-size="10.00">LoginPage::logout</text>
</a>
</g>
</g>
<!-- Node1&#45;&gt;Node11 -->
<g id="edge13_Node000001_Node000011" class="edge">
<title>Node1&#45;&gt;Node11</title>
<g id="a_edge13_Node000001_Node000011"><a xlink:title=" ">
<path fill="none" stroke="#63b8ff" d="M99.63,-154.92C127.69,-144 173.74,-126.08 205.28,-113.81"/>
<polygon fill="#63b8ff" stroke="#63b8ff" points="206.92,-116.93 214.97,-110.04 204.38,-110.41 206.92,-116.93"/>
</a>
</g>
</g>
<!-- Node3 -->
<g id="Node000003" class="node">
<title>Node3</title>
<g id="a_Node000003"><a xlink:href="classLoginPage.html#abc9ba65e91d719c00b7fa31ac3577fa6" target="_top" xlink:title="Clears the login input fields.">
<polygon fill="white" stroke="#666666" points="475.5,-201 347.5,-201 347.5,-182 475.5,-182 475.5,-201"/>
<text text-anchor="middle" x="411.5" y="-189" font-family="Helvetica,sans-Serif" font-size="10.00">LoginPage::clear_fields</text>
</a>
</g>
</g>
<!-- Node2&#45;&gt;Node3 -->
<g id="edge2_Node000002_Node000003" class="edge">
<title>Node2&#45;&gt;Node3</title>
<g id="a_edge2_Node000002_Node000003"><a xlink:title=" ">
<path fill="none" stroke="#63b8ff" d="M296.37,-216.49C315.82,-212.23 337.67,-207.44 357.01,-203.21"/>
<polygon fill="#63b8ff" stroke="#63b8ff" points="357.84,-206.61 366.86,-201.05 356.35,-199.77 357.84,-206.61"/>
</a>
</g>
</g>
<!-- Node4 -->
<g id="Node000004" class="node">
<title>Node4</title>
<g id="a_Node000004"><a xlink:href="classAuthenticationService.html#a8c681492f74d5e7b0338ec3a5525c0a5" target="_top" xlink:title=" ">
<polygon fill="white" stroke="#666666" points="473.5,-372.5 349.5,-372.5 349.5,-342.5 473.5,-342.5 473.5,-372.5"/>
<text text-anchor="start" x="357.5" y="-360.5" font-family="Helvetica,sans-Serif" font-size="10.00">AuthenticationService</text>
<text text-anchor="middle" x="411.5" y="-349.5" font-family="Helvetica,sans-Serif" font-size="10.00">::current_user</text>
</a>
</g>
</g>
<!-- Node2&#45;&gt;Node4 -->
<g id="edge3_Node000002_Node000004" class="edge">
<title>Node2&#45;&gt;Node4</title>
<g id="a_edge3_Node000002_Node000004"><a xlink:title=" ">
<path fill="none" stroke="#63b8ff" d="M250.77,-243.73C265.43,-266.55 296.12,-309.49 333,-333.5 335.43,-335.09 337.98,-336.57 340.6,-337.96"/>
<polygon fill="#63b8ff" stroke="#63b8ff" points="339.23,-341.19 349.77,-342.34 342.25,-334.87 339.23,-341.19"/>
</a>
</g>
</g>
<!-- Node5 -->
<g id="Node000005" class="node">
<title>Node5</title>
<g id="a_Node000005"><a xlink:href="UserAuthentication_8cpp.html#a55c1b35e9ad9f9520bbd0da24a54c23d" target="_top" xlink:title="Hashes a plain&#45;text password (stub implementation).">
<polygon fill="white" stroke="#666666" points="457.5,-324 365.5,-324 365.5,-305 457.5,-305 457.5,-324"/>
<text text-anchor="middle" x="411.5" y="-312" font-family="Helvetica,sans-Serif" font-size="10.00">hash_password</text>
</a>
</g>
</g>
<!-- Node2&#45;&gt;Node5 -->
<g id="edge4_Node000002_Node000005" class="edge">
<title>Node2&#45;&gt;Node5</title>
<g id="a_edge4_Node000002_Node000005"><a xlink:title=" ">
<path fill="none" stroke="#63b8ff" d="M257.76,-243.52C275.13,-258.77 304.09,-282.02 333,-295.5 340.06,-298.79 347.76,-301.56 355.48,-303.86"/>
<polygon fill="#63b8ff" stroke="#63b8ff" points="354.65,-307.26 365.22,-306.55 356.51,-300.52 354.65,-307.26"/>
</a>
</g>
</g>
<!-- Node6 -->
<g id="Node000006" class="node">
<title>Node6</title>
<g id="a_Node000006"><a xlink:href="classAuthenticationService.html#a2dc8be4689e371d7a773ac008b21cf3a" target="_top" xlink:title=" ">
<polygon fill="white" stroke="#666666" points="473.5,-163.5 349.5,-163.5 349.5,-133.5 473.5,-133.5 473.5,-163.5"/>
<text text-anchor="start" x="357.5" y="-151.5" font-family="Helvetica,sans-Serif" font-size="10.00">AuthenticationService</text>
<text text-anchor="middle" x="411.5" y="-140.5" font-family="Helvetica,sans-Serif" font-size="10.00">::instance</text>
</a>
</g>
</g>
<!-- Node2&#45;&gt;Node6 -->
<g id="edge5_Node000002_Node000006" class="edge">
<title>Node2&#45;&gt;Node6</title>
<g id="a_edge5_Node000002_Node000006"><a xlink:title=" ">
<path fill="none" stroke="#63b8ff" d="M263.28,-213.45C281.35,-201.46 308.03,-184.85 333,-173.5 337.99,-171.23 343.24,-169.08 348.56,-167.06"/>
<polygon fill="#63b8ff" stroke="#63b8ff" points="349.98,-170.27 358.18,-163.56 347.59,-163.69 349.98,-170.27"/>
</a>
</g>
</g>
<!-- Node7 -->
<g id="Node000007" class="node">
<title>Node7</title>
<g id="a_Node000007"><a xlink:href="classLoginPage.html#a1c6c8b9e73bdbfa1db03802092643731" target="_top" xlink:title="Emitted when a user has successfully logged in.">
<polygon fill="white" stroke="#666666" points="487.5,-238 335.5,-238 335.5,-219 487.5,-219 487.5,-238"/>
<text text-anchor="middle" x="411.5" y="-226" font-family="Helvetica,sans-Serif" font-size="10.00">LoginPage::login_successful</text>
</a>
</g>
</g>
<!-- Node2&#45;&gt;Node7 -->
<g id="edge6_Node000002_Node000007" class="edge">
<title>Node2&#45;&gt;Node7</title>
<g id="a_edge6_Node000002_Node000007"><a xlink:title=" ">
<path fill="none" stroke="#63b8ff" d="M296.37,-228.5C305.6,-228.5 315.36,-228.5 325.15,-228.5"/>
<polygon fill="#63b8ff" stroke="#63b8ff" points="325.33,-232 335.33,-228.5 325.33,-225 325.33,-232"/>
</a>
</g>
</g>
<!-- Node8 -->
<g id="Node000008" class="node">
<title>Node8</title>
<g id="a_Node000008"><a xlink:href="classLoginPage.html#ab85c215a7ad69e03fa4b3d07b6687c2e" target="_top" xlink:title="Updates the UI to reflect the state of a logged&#45;in user.">
<polygon fill="white" stroke="#666666" points="471.5,-286.5 351.5,-286.5 351.5,-256.5 471.5,-256.5 471.5,-286.5"/>
<text text-anchor="start" x="359.5" y="-274.5" font-family="Helvetica,sans-Serif" font-size="10.00">LoginPage::update_ui</text>
<text text-anchor="middle" x="411.5" y="-263.5" font-family="Helvetica,sans-Serif" font-size="10.00">_for_logged_in_user</text>
</a>
</g>
</g>
<!-- Node2&#45;&gt;Node8 -->
<g id="edge7_Node000002_Node000008" class="edge">
<title>Node2&#45;&gt;Node8</title>
<g id="a_edge7_Node000002_Node000008"><a xlink:title=" ">
<path fill="none" stroke="#63b8ff" d="M296.37,-242.46C310.84,-246.14 326.63,-250.16 341.73,-254"/>
<polygon fill="#63b8ff" stroke="#63b8ff" points="340.98,-257.42 351.54,-256.5 342.71,-250.64 340.98,-257.42"/>
</a>
</g>
</g>
<!-- Node9&#45;&gt;Node3 -->
<g id="edge9_Node000009_Node000003" class="edge">
<title>Node9&#45;&gt;Node3</title>
<g id="a_edge9_Node000009_Node000003"><a xlink:title=" ">
<path fill="none" stroke="#63b8ff" d="M297.31,-173.42C311.29,-175.65 326.46,-178.07 341.02,-180.4"/>
<polygon fill="#63b8ff" stroke="#63b8ff" points="340.55,-183.87 350.98,-181.99 341.65,-176.96 340.55,-183.87"/>
</a>
</g>
</g>
<!-- Node9&#45;&gt;Node6 -->
<g id="edge10_Node000009_Node000006" class="edge">
<title>Node9&#45;&gt;Node6</title>
<g id="a_edge10_Node000009_Node000006"><a xlink:title=" ">
<path fill="none" stroke="#63b8ff" d="M297.31,-159.22C310.69,-157.95 325.16,-156.58 339.15,-155.26"/>
<polygon fill="#63b8ff" stroke="#63b8ff" points="339.59,-158.73 349.22,-154.3 338.93,-151.76 339.59,-158.73"/>
</a>
</g>
</g>
<!-- Node9&#45;&gt;Node7 -->
<g id="edge11_Node000009_Node000007" class="edge">
<title>Node9&#45;&gt;Node7</title>
<g id="a_edge11_Node000009_Node000007"><a xlink:title=" ">
<path fill="none" stroke="#63b8ff" d="M267.58,-179.71C285.5,-189.62 310.09,-202.22 333,-210.5 338.88,-212.63 345.11,-214.57 351.37,-216.31"/>
<polygon fill="#63b8ff" stroke="#63b8ff" points="350.64,-219.74 361.2,-218.91 352.43,-212.97 350.64,-219.74"/>
</a>
</g>
</g>
<!-- Node10 -->
<g id="Node000010" class="node">
<title>Node10</title>
<g id="a_Node000010"><a xlink:href="classAuthenticationService.html#ac9e51df93820c8d08347adae7fd4fbb7" target="_top" xlink:title=" ">
<polygon fill="white" stroke="#666666" points="473.5,-115.5 349.5,-115.5 349.5,-85.5 473.5,-85.5 473.5,-115.5"/>
<text text-anchor="start" x="357.5" y="-103.5" font-family="Helvetica,sans-Serif" font-size="10.00">AuthenticationService</text>
<text text-anchor="middle" x="411.5" y="-92.5" font-family="Helvetica,sans-Serif" font-size="10.00">::logout</text>
</a>
</g>
</g>
<!-- Node9&#45;&gt;Node10 -->
<g id="edge12_Node000009_Node000010" class="edge">
<title>Node9&#45;&gt;Node10</title>
<g id="a_edge12_Node000009_Node000010"><a xlink:title=" ">
<path fill="none" stroke="#63b8ff" d="M273.75,-149.35C291.11,-141.46 313.01,-131.94 333,-124.5 338.2,-122.57 343.63,-120.66 349.1,-118.82"/>
<polygon fill="#63b8ff" stroke="#63b8ff" points="350.54,-122.03 358.95,-115.58 348.36,-115.38 350.54,-122.03"/>
</a>
</g>
</g>
<!-- Node11&#45;&gt;Node6 -->
<g id="edge14_Node000011_Node000006" class="edge">
<title>Node11&#45;&gt;Node6</title>
<g id="a_edge14_Node000011_Node000006"><a xlink:title=" ">
<path fill="none" stroke="#63b8ff" d="M275.29,-110.1C296.04,-115.99 323.26,-123.72 347.84,-130.7"/>
<polygon fill="#63b8ff" stroke="#63b8ff" points="346.89,-134.07 357.47,-133.44 348.8,-127.34 346.89,-134.07"/>
</a>
</g>
</g>
<!-- Node11&#45;&gt;Node10 -->
<g id="edge15_Node000011_Node000010" class="edge">
<title>Node11&#45;&gt;Node10</title>
<g id="a_edge15_Node000011_Node000010"><a xlink:title=" ">
<path fill="none" stroke="#63b8ff" d="M292.21,-100.5C306.96,-100.5 323.36,-100.5 339.14,-100.5"/>
<polygon fill="#63b8ff" stroke="#63b8ff" points="339.39,-104 349.39,-100.5 339.39,-97 339.39,-104"/>
</a>
</g>
</g>
<!-- Node12 -->
<g id="Node000012" class="node">
<title>Node12</title>
<g id="a_Node000012"><a xlink:href="classLoginPage.html#a01f112292372e79480e00057fd689e2f" target="_top" xlink:title="Emitted when the user requests to log out.">
<polygon fill="white" stroke="#666666" points="490,-19 333,-19 333,0 490,0 490,-19"/>
<text text-anchor="middle" x="411.5" y="-7" font-family="Helvetica,sans-Serif" font-size="10.00">LoginPage::logout_requested</text>
</a>
</g>
</g>
<!-- Node11&#45;&gt;Node12 -->
<g id="edge16_Node000011_Node000012" class="edge">
<title>Node11&#45;&gt;Node12</title>
<g id="a_edge16_Node000011_Node000012"><a xlink:title=" ">
<path fill="none" stroke="#63b8ff" d="M250.7,-90.99C266.22,-75.52 299.2,-44.97 333,-28.5 337.9,-26.11 343.13,-24.01 348.47,-22.16"/>
<polygon fill="#63b8ff" stroke="#63b8ff" points="349.67,-25.45 358.15,-19.09 347.56,-18.77 349.67,-25.45"/>
</a>
</g>
</g>
<!-- Node13 -->
<g id="Node000013" class="node">
<title>Node13</title>
<g id="a_Node000013"><a xlink:href="classLoginPage.html#a64039d7b1a1fde6e38e7682bb17e94a0" target="_top" xlink:title="Resets the UI to the logged&#45;out state.">
<polygon fill="white" stroke="#666666" points="471.5,-67.5 351.5,-67.5 351.5,-37.5 471.5,-37.5 471.5,-67.5"/>
<text text-anchor="start" x="359.5" y="-55.5" font-family="Helvetica,sans-Serif" font-size="10.00">LoginPage::update_ui</text>
<text text-anchor="middle" x="411.5" y="-44.5" font-family="Helvetica,sans-Serif" font-size="10.00">_for_logged_out</text>
</a>
</g>
</g>
<!-- Node11&#45;&gt;Node13 -->
<g id="edge17_Node000011_Node000013" class="edge">
<title>Node11&#45;&gt;Node13</title>
<g id="a_edge17_Node000011_Node000013"><a xlink:title=" ">
<path fill="none" stroke="#63b8ff" d="M275.29,-90.9C296.04,-85.01 323.26,-77.28 347.84,-70.3"/>
<polygon fill="#63b8ff" stroke="#63b8ff" points="348.8,-73.66 357.47,-67.56 346.89,-66.93 348.8,-73.66"/>
</a>
</g>
</g>
</g>
</svg>
