<?xml version="1.0" encoding="UTF-8" standalone="no"?>
<!DOCTYPE svg PUBLIC "-//W3C//DTD SVG 1.1//EN"
 "http://www.w3.org/Graphics/SVG/1.1/DTD/svg11.dtd">
<!-- Generated by graphviz version 2.43.0 (0)
 -->
<!-- Title: TechMapp Pages: 1 -->
<svg width="321pt" height="149pt"
 viewBox="0.00 0.00 320.50 149.00" xmlns="http://www.w3.org/2000/svg" xmlns:xlink="http://www.w3.org/1999/xlink">
<g id="graph0" class="graph" transform="scale(1 1) rotate(0) translate(4 145)">
<title>TechMapp</title>
<!-- Node1 -->
<g id="Node000001" class="node">
<title>Node1</title>
<g id="a_Node000001"><a xlink:title="Main window controller for the TechMa application.">
<polygon fill="#999999" stroke="#666666" points="171,-19 106,-19 106,0 171,0 171,-19"/>
<text text-anchor="middle" x="138.5" y="-7" font-family="Helvetica,sans-Serif" font-size="10.00">TechMapp</text>
</a>
</g>
</g>
<!-- Node2 -->
<g id="Node000002" class="node">
<title>Node2</title>
<g id="a_Node000002"><a xlink:title=" ">
<polygon fill="white" stroke="#666666" points="87,-85 0,-85 0,-66 87,-66 87,-85"/>
<text text-anchor="middle" x="43.5" y="-73" font-family="Helvetica,sans-Serif" font-size="10.00">QMainWindow</text>
</a>
</g>
</g>
<!-- Node2&#45;&gt;Node1 -->
<g id="edge1_Node000001_Node000002" class="edge">
<title>Node2&#45;&gt;Node1</title>
<g id="a_edge1_Node000001_Node000002"><a xlink:title=" ">
<path fill="none" stroke="#63b8ff" d="M64.76,-60.18C83.42,-47.61 109.96,-29.73 125.59,-19.2"/>
<polygon fill="#63b8ff" stroke="#63b8ff" points="62.65,-57.38 56.31,-65.87 66.56,-63.18 62.65,-57.38"/>
</a>
</g>
</g>
<!-- Node3 -->
<g id="Node000003" class="node">
<title>Node3</title>
<g id="a_Node000003"><a xlink:href="classNavigationBar.html" target="_top" xlink:title="Custom navigation bar based on QTabBar, designed to support tab switching and SVG icon rendering.">
<polygon fill="white" stroke="#666666" points="191.5,-85 105.5,-85 105.5,-66 191.5,-66 191.5,-85"/>
<text text-anchor="middle" x="148.5" y="-73" font-family="Helvetica,sans-Serif" font-size="10.00">NavigationBar</text>
</a>
</g>
</g>
<!-- Node3&#45;&gt;Node1 -->
<g id="edge2_Node000001_Node000003" class="edge">
<title>Node3&#45;&gt;Node1</title>
<g id="a_edge2_Node000001_Node000003"><a xlink:title=" ">
<path fill="none" stroke="#9a32cd" stroke-dasharray="5,2" d="M141.48,-56.15C140.68,-53.45 139.98,-50.68 139.5,-48 137.76,-38.26 137.73,-26.86 138,-19.21"/>
<polygon fill="#9a32cd" stroke="#9a32cd" points="138.25,-57.53 144.82,-65.84 144.87,-55.25 138.25,-57.53"/>
</a>
</g>
<text text-anchor="middle" x="185" y="-40" font-family="Helvetica,sans-Serif" font-size="10.00" fill="grey"> m_navigation_bar</text>
</g>
<!-- Node4 -->
<g id="Node000004" class="node">
<title>Node4</title>
<g id="a_Node000004"><a xlink:title=" ">
<polygon fill="white" stroke="#666666" points="177,-141 120,-141 120,-122 177,-122 177,-141"/>
<text text-anchor="middle" x="148.5" y="-129" font-family="Helvetica,sans-Serif" font-size="10.00">QTabBar</text>
</a>
</g>
</g>
<!-- Node4&#45;&gt;Node3 -->
<g id="edge3_Node000003_Node000004" class="edge">
<title>Node4&#45;&gt;Node3</title>
<g id="a_edge3_Node000003_Node000004"><a xlink:title=" ">
<path fill="none" stroke="#63b8ff" d="M148.5,-111.3C148.5,-102.41 148.5,-92.28 148.5,-85.25"/>
<polygon fill="#63b8ff" stroke="#63b8ff" points="145,-111.58 148.5,-121.58 152,-111.58 145,-111.58"/>
</a>
</g>
</g>
<!-- Node5 -->
<g id="Node000005" class="node">
<title>Node5</title>
<g id="a_Node000005"><a xlink:href="classLoginPage.html" target="_top" xlink:title="A QWidget&#45;based login page that handles user authentication and role&#45;based access.">
<polygon fill="white" stroke="#666666" points="285.5,-85 219.5,-85 219.5,-66 285.5,-66 285.5,-85"/>
<text text-anchor="middle" x="252.5" y="-73" font-family="Helvetica,sans-Serif" font-size="10.00">LoginPage</text>
</a>
</g>
</g>
<!-- Node5&#45;&gt;Node1 -->
<g id="edge4_Node000001_Node000005" class="edge">
<title>Node5&#45;&gt;Node1</title>
<g id="a_edge4_Node000001_Node000005"><a xlink:title=" ">
<path fill="none" stroke="#9a32cd" stroke-dasharray="5,2" d="M245.35,-56.31C241.81,-49.39 236.91,-41.98 230.5,-37 213.43,-23.75 189.98,-17.12 171.02,-13.81"/>
<polygon fill="#9a32cd" stroke="#9a32cd" points="242.29,-58.05 249.56,-65.76 248.69,-55.2 242.29,-58.05"/>
</a>
</g>
<text text-anchor="middle" x="276.5" y="-40" font-family="Helvetica,sans-Serif" font-size="10.00" fill="grey"> m_login_page</text>
</g>
<!-- Node6 -->
<g id="Node000006" class="node">
<title>Node6</title>
<g id="a_Node000006"><a xlink:title=" ">
<polygon fill="white" stroke="#666666" points="282,-141 223,-141 223,-122 282,-122 282,-141"/>
<text text-anchor="middle" x="252.5" y="-129" font-family="Helvetica,sans-Serif" font-size="10.00">QWidget</text>
</a>
</g>
</g>
<!-- Node6&#45;&gt;Node5 -->
<g id="edge5_Node000005_Node000006" class="edge">
<title>Node6&#45;&gt;Node5</title>
<g id="a_edge5_Node000005_Node000006"><a xlink:title=" ">
<path fill="none" stroke="#63b8ff" d="M252.5,-111.3C252.5,-102.41 252.5,-92.28 252.5,-85.25"/>
<polygon fill="#63b8ff" stroke="#63b8ff" points="249,-111.58 252.5,-121.58 256,-111.58 249,-111.58"/>
</a>
</g>
</g>
</g>
</svg>
