<?xml version="1.0" encoding="UTF-8" standalone="no"?>
<!DOCTYPE svg PUBLIC "-//W3C//DTD SVG 1.1//EN"
 "http://www.w3.org/Graphics/SVG/1.1/DTD/svg11.dtd">
<!-- Generated by graphviz version 2.43.0 (0)
 -->
<!-- Title: LoginPage::login_as_guest Pages: 1 -->
<svg width="309pt" height="162pt"
 viewBox="0.00 0.00 309.00 161.50" xmlns="http://www.w3.org/2000/svg" xmlns:xlink="http://www.w3.org/1999/xlink">
<g id="graph0" class="graph" transform="scale(1 1) rotate(0) translate(4 157.5)">
<title>LoginPage::login_as_guest</title>
<!-- Node1 -->
<g id="Node000001" class="node">
<title>Node1</title>
<g id="a_Node000001"><a xlink:title="Logs in as a guest (no credentials required).">
<polygon fill="#999999" stroke="#666666" points="113,-94 0,-94 0,-64 113,-64 113,-94"/>
<text text-anchor="start" x="8" y="-82" font-family="Helvetica,sans-Serif" font-size="10.00">LoginPage::login_as</text>
<text text-anchor="middle" x="56.5" y="-71" font-family="Helvetica,sans-Serif" font-size="10.00">_guest</text>
</a>
</g>
</g>
<!-- Node2 -->
<g id="Node000002" class="node">
<title>Node2</title>
<g id="a_Node000002"><a xlink:href="classLoginPage.html#abc9ba65e91d719c00b7fa31ac3577fa6" target="_top" xlink:title="Clears the login input fields.">
<polygon fill="white" stroke="#666666" points="289,-153.5 161,-153.5 161,-134.5 289,-134.5 289,-153.5"/>
<text text-anchor="middle" x="225" y="-141.5" font-family="Helvetica,sans-Serif" font-size="10.00">LoginPage::clear_fields</text>
</a>
</g>
</g>
<!-- Node1&#45;&gt;Node2 -->
<g id="edge1_Node000001_Node000002" class="edge">
<title>Node1&#45;&gt;Node2</title>
<g id="a_edge1_Node000001_Node000002"><a xlink:title=" ">
<path fill="none" stroke="#63b8ff" d="M83.64,-94.06C101.58,-103.91 126.18,-116.49 149,-125 155.51,-127.43 162.45,-129.65 169.39,-131.65"/>
<polygon fill="#63b8ff" stroke="#63b8ff" points="168.92,-135.15 179.49,-134.42 170.77,-128.4 168.92,-135.15"/>
</a>
</g>
</g>
<!-- Node3 -->
<g id="Node000003" class="node">
<title>Node3</title>
<g id="a_Node000003"><a xlink:href="classAuthenticationService.html#a2dc8be4689e371d7a773ac008b21cf3a" target="_top" xlink:title=" ">
<polygon fill="white" stroke="#666666" points="287,-116 163,-116 163,-86 287,-86 287,-116"/>
<text text-anchor="start" x="171" y="-104" font-family="Helvetica,sans-Serif" font-size="10.00">AuthenticationService</text>
<text text-anchor="middle" x="225" y="-93" font-family="Helvetica,sans-Serif" font-size="10.00">::instance</text>
</a>
</g>
</g>
<!-- Node1&#45;&gt;Node3 -->
<g id="edge2_Node000001_Node000003" class="edge">
<title>Node1&#45;&gt;Node3</title>
<g id="a_edge2_Node000001_Node000003"><a xlink:title=" ">
<path fill="none" stroke="#63b8ff" d="M113.41,-86.39C126.05,-88.06 139.65,-89.85 152.83,-91.6"/>
<polygon fill="#63b8ff" stroke="#63b8ff" points="152.43,-95.07 162.81,-92.91 153.35,-88.13 152.43,-95.07"/>
</a>
</g>
</g>
<!-- Node4 -->
<g id="Node000004" class="node">
<title>Node4</title>
<g id="a_Node000004"><a xlink:href="classLoginPage.html#a1c6c8b9e73bdbfa1db03802092643731" target="_top" xlink:title="Emitted when a user has successfully logged in.">
<polygon fill="white" stroke="#666666" points="301,-67.5 149,-67.5 149,-48.5 301,-48.5 301,-67.5"/>
<text text-anchor="middle" x="225" y="-55.5" font-family="Helvetica,sans-Serif" font-size="10.00">LoginPage::login_successful</text>
</a>
</g>
</g>
<!-- Node1&#45;&gt;Node4 -->
<g id="edge3_Node000001_Node000004" class="edge">
<title>Node1&#45;&gt;Node4</title>
<g id="a_edge3_Node000001_Node000004"><a xlink:title=" ">
<path fill="none" stroke="#63b8ff" d="M113.41,-71.95C121.55,-70.92 130.09,-69.84 138.67,-68.76"/>
<polygon fill="#63b8ff" stroke="#63b8ff" points="139.24,-72.22 148.72,-67.49 138.36,-65.27 139.24,-72.22"/>
</a>
</g>
</g>
<!-- Node5 -->
<g id="Node000005" class="node">
<title>Node5</title>
<g id="a_Node000005"><a xlink:href="classAuthenticationService.html#ac9e51df93820c8d08347adae7fd4fbb7" target="_top" xlink:title=" ">
<polygon fill="white" stroke="#666666" points="287,-30 163,-30 163,0 287,0 287,-30"/>
<text text-anchor="start" x="171" y="-18" font-family="Helvetica,sans-Serif" font-size="10.00">AuthenticationService</text>
<text text-anchor="middle" x="225" y="-7" font-family="Helvetica,sans-Serif" font-size="10.00">::logout</text>
</a>
</g>
</g>
<!-- Node1&#45;&gt;Node5 -->
<g id="edge4_Node000001_Node000005" class="edge">
<title>Node1&#45;&gt;Node5</title>
<g id="a_edge4_Node000001_Node000005"><a xlink:title=" ">
<path fill="none" stroke="#63b8ff" d="M91.13,-63.89C108.31,-56.37 129.62,-47.34 149,-40 154.9,-37.77 161.09,-35.53 167.29,-33.36"/>
<polygon fill="#63b8ff" stroke="#63b8ff" points="168.67,-36.59 176.98,-30.02 166.39,-29.97 168.67,-36.59"/>
</a>
</g>
</g>
</g>
</svg>
