<?xml version="1.0" encoding="UTF-8" standalone="no"?>
<!DOCTYPE svg PUBLIC "-//W3C//DTD SVG 1.1//EN"
 "http://www.w3.org/Graphics/SVG/1.1/DTD/svg11.dtd">
<!-- Generated by graphviz version 2.43.0 (0)
 -->
<!-- Title: InterventionsListView::on_repository_updated Pages: 1 -->
<svg width="306pt" height="220pt"
 viewBox="0.00 0.00 306.00 219.50" xmlns="http://www.w3.org/2000/svg" xmlns:xlink="http://www.w3.org/1999/xlink">
<g id="graph0" class="graph" transform="scale(1 1) rotate(0) translate(4 215.5)">
<title>InterventionsListView::on_repository_updated</title>
<!-- Node1 -->
<g id="Node000001" class="node">
<title>Node1</title>
<g id="a_Node000001"><a xlink:title="Slot called when the intervention repository is updated.">
<polygon fill="#999999" stroke="#666666" points="134,-115.5 0,-115.5 0,-85.5 134,-85.5 134,-115.5"/>
<text text-anchor="start" x="8" y="-103.5" font-family="Helvetica,sans-Serif" font-size="10.00">InterventionsListView</text>
<text text-anchor="middle" x="67" y="-92.5" font-family="Helvetica,sans-Serif" font-size="10.00">::on_repository_updated</text>
</a>
</g>
</g>
<!-- Node2 -->
<g id="Node000002" class="node">
<title>Node2</title>
<g id="a_Node000002"><a xlink:href="classInterventionRepository.html#a251502ad34f1e6636918d97e398b3d4b" target="_top" xlink:title="Retrieves all interventions stored in the repository.">
<polygon fill="white" stroke="#666666" points="298,-211.5 170,-211.5 170,-181.5 298,-181.5 298,-211.5"/>
<text text-anchor="start" x="178" y="-199.5" font-family="Helvetica,sans-Serif" font-size="10.00">InterventionRepository</text>
<text text-anchor="middle" x="234" y="-188.5" font-family="Helvetica,sans-Serif" font-size="10.00">::get_all</text>
</a>
</g>
</g>
<!-- Node1&#45;&gt;Node2 -->
<g id="edge1_Node000001_Node000002" class="edge">
<title>Node1&#45;&gt;Node2</title>
<g id="a_edge1_Node000001_Node000002"><a xlink:title=" ">
<path fill="none" stroke="#63b8ff" d="M86.26,-115.53C105.99,-131.24 138.81,-155.89 170,-172.5 173.09,-174.15 176.32,-175.73 179.61,-177.26"/>
<polygon fill="#63b8ff" stroke="#63b8ff" points="178.43,-180.56 188.99,-181.36 181.23,-174.15 178.43,-180.56"/>
</a>
</g>
</g>
<!-- Node3 -->
<g id="Node000003" class="node">
<title>Node3</title>
<g id="a_Node000003"><a xlink:href="classTechnicianRepository.html#abf3ba8f356e622790a4445b34046ac02" target="_top" xlink:title="Retrieves all technicians in the repository.">
<polygon fill="white" stroke="#666666" points="294,-163.5 174,-163.5 174,-133.5 294,-133.5 294,-163.5"/>
<text text-anchor="start" x="182" y="-151.5" font-family="Helvetica,sans-Serif" font-size="10.00">TechnicianRepository</text>
<text text-anchor="middle" x="234" y="-140.5" font-family="Helvetica,sans-Serif" font-size="10.00">::get_all</text>
</a>
</g>
</g>
<!-- Node1&#45;&gt;Node3 -->
<g id="edge2_Node000001_Node000003" class="edge">
<title>Node1&#45;&gt;Node3</title>
<g id="a_edge2_Node000001_Node000003"><a xlink:title=" ">
<path fill="none" stroke="#63b8ff" d="M119.75,-115.56C136.19,-120.34 154.52,-125.67 171.57,-130.63"/>
<polygon fill="#63b8ff" stroke="#63b8ff" points="170.85,-134.06 181.43,-133.5 172.81,-127.34 170.85,-134.06"/>
</a>
</g>
</g>
<!-- Node4 -->
<g id="Node000004" class="node">
<title>Node4</title>
<g id="a_Node000004"><a xlink:href="classInterventionRepository.html#a2e562f9d059314c9cb2fb8cc0d19008b" target="_top" xlink:title="Returns the singleton instance of the repository.">
<polygon fill="white" stroke="#666666" points="298,-115.5 170,-115.5 170,-85.5 298,-85.5 298,-115.5"/>
<text text-anchor="start" x="178" y="-103.5" font-family="Helvetica,sans-Serif" font-size="10.00">InterventionRepository</text>
<text text-anchor="middle" x="234" y="-92.5" font-family="Helvetica,sans-Serif" font-size="10.00">::instance</text>
</a>
</g>
</g>
<!-- Node1&#45;&gt;Node4 -->
<g id="edge3_Node000001_Node000004" class="edge">
<title>Node1&#45;&gt;Node4</title>
<g id="a_edge3_Node000001_Node000004"><a xlink:title=" ">
<path fill="none" stroke="#63b8ff" d="M134.16,-100.5C142.51,-100.5 151.09,-100.5 159.55,-100.5"/>
<polygon fill="#63b8ff" stroke="#63b8ff" points="159.77,-104 169.77,-100.5 159.77,-97 159.77,-104"/>
</a>
</g>
</g>
<!-- Node5 -->
<g id="Node000005" class="node">
<title>Node5</title>
<g id="a_Node000005"><a xlink:href="classTechnicianRepository.html#a7195867c4915f8aa3ff92b28615b1248" target="_top" xlink:title="Returns the singleton instance of the repository.">
<polygon fill="white" stroke="#666666" points="294,-67.5 174,-67.5 174,-37.5 294,-37.5 294,-67.5"/>
<text text-anchor="start" x="182" y="-55.5" font-family="Helvetica,sans-Serif" font-size="10.00">TechnicianRepository</text>
<text text-anchor="middle" x="234" y="-44.5" font-family="Helvetica,sans-Serif" font-size="10.00">::instance</text>
</a>
</g>
</g>
<!-- Node1&#45;&gt;Node5 -->
<g id="edge4_Node000001_Node000005" class="edge">
<title>Node1&#45;&gt;Node5</title>
<g id="a_edge4_Node000001_Node000005"><a xlink:title=" ">
<path fill="none" stroke="#63b8ff" d="M119.75,-85.44C136.19,-80.66 154.52,-75.33 171.57,-70.37"/>
<polygon fill="#63b8ff" stroke="#63b8ff" points="172.81,-73.66 181.43,-67.5 170.85,-66.94 172.81,-73.66"/>
</a>
</g>
</g>
<!-- Node6 -->
<g id="Node000006" class="node">
<title>Node6</title>
<g id="a_Node000006"><a xlink:href="ExpertiseField_8h.html#a56a9a6b462a1d330a25154be696d66d5" target="_top" xlink:title="Converts an ExpertiseField enum value to a human&#45;readable string.">
<polygon fill="white" stroke="#666666" points="263.5,-19 204.5,-19 204.5,0 263.5,0 263.5,-19"/>
<text text-anchor="middle" x="234" y="-7" font-family="Helvetica,sans-Serif" font-size="10.00">to_string</text>
</a>
</g>
</g>
<!-- Node1&#45;&gt;Node6 -->
<g id="edge5_Node000001_Node000006" class="edge">
<title>Node1&#45;&gt;Node6</title>
<g id="a_edge5_Node000001_Node000006"><a xlink:title=" ">
<path fill="none" stroke="#63b8ff" d="M85.67,-85.32C105.17,-69.25 138.05,-44.08 170,-28.5 177.75,-24.72 186.4,-21.52 194.76,-18.88"/>
<polygon fill="#63b8ff" stroke="#63b8ff" points="195.76,-22.24 204.35,-16.04 193.77,-15.52 195.76,-22.24"/>
</a>
</g>
</g>
</g>
</svg>
