<?xml version="1.0" encoding="UTF-8" standalone="no"?>
<!DOCTYPE svg PUBLIC "-//W3C//DTD SVG 1.1//EN"
 "http://www.w3.org/Graphics/SVG/1.1/DTD/svg11.dtd">
<!-- Generated by graphviz version 2.43.0 (0)
 -->
<!-- Title: LoginPage::login_successful Pages: 1 -->
<svg width="685pt" height="124pt"
 viewBox="0.00 0.00 685.00 123.50" xmlns="http://www.w3.org/2000/svg" xmlns:xlink="http://www.w3.org/1999/xlink">
<g id="graph0" class="graph" transform="scale(1 1) rotate(0) translate(4 119.5)">
<title>LoginPage::login_successful</title>
<!-- Node1 -->
<g id="Node000001" class="node">
<title>Node1</title>
<g id="a_Node000001"><a xlink:title="Emitted when a user has successfully logged in.">
<polygon fill="#999999" stroke="#666666" points="677,-62 525,-62 525,-43 677,-43 677,-62"/>
<text text-anchor="middle" x="601" y="-50" font-family="Helvetica,sans-Serif" font-size="10.00">LoginPage::login_successful</text>
</a>
</g>
</g>
<!-- Node2 -->
<g id="Node000002" class="node">
<title>Node2</title>
<g id="a_Node000002"><a xlink:href="classLoginPage.html#ac14065c6e2529048d568cddef19f3028" target="_top" xlink:title="Attempts to log in with the provided username and password.">
<polygon fill="white" stroke="#666666" points="471,-115.5 360,-115.5 360,-85.5 471,-85.5 471,-115.5"/>
<text text-anchor="start" x="368" y="-103.5" font-family="Helvetica,sans-Serif" font-size="10.00">LoginPage::attempt</text>
<text text-anchor="middle" x="415.5" y="-92.5" font-family="Helvetica,sans-Serif" font-size="10.00">_login</text>
</a>
</g>
</g>
<!-- Node1&#45;&gt;Node2 -->
<g id="edge1_Node000001_Node000002" class="edge">
<title>Node1&#45;&gt;Node2</title>
<g id="a_edge1_Node000001_Node000002"><a xlink:title=" ">
<path fill="none" stroke="#63b8ff" d="M553.34,-64.71C528.33,-71.25 497.37,-79.35 471.23,-86.18"/>
<polygon fill="#63b8ff" stroke="#63b8ff" points="554.52,-68.01 563.31,-62.1 552.75,-61.24 554.52,-68.01"/>
</a>
</g>
</g>
<!-- Node5 -->
<g id="Node000005" class="node">
<title>Node5</title>
<g id="a_Node000005"><a xlink:href="classLoginPage.html#ad592b0f8f5de3de894e0b2cdbcc982f3" target="_top" xlink:title="Logs in as a guest (no credentials required).">
<polygon fill="white" stroke="#666666" points="472,-67.5 359,-67.5 359,-37.5 472,-37.5 472,-67.5"/>
<text text-anchor="start" x="367" y="-55.5" font-family="Helvetica,sans-Serif" font-size="10.00">LoginPage::login_as</text>
<text text-anchor="middle" x="415.5" y="-44.5" font-family="Helvetica,sans-Serif" font-size="10.00">_guest</text>
</a>
</g>
</g>
<!-- Node1&#45;&gt;Node5 -->
<g id="edge4_Node000001_Node000005" class="edge">
<title>Node1&#45;&gt;Node5</title>
<g id="a_edge4_Node000001_Node000005"><a xlink:title=" ">
<path fill="none" stroke="#63b8ff" d="M514.43,-52.5C500.08,-52.5 485.51,-52.5 472.17,-52.5"/>
<polygon fill="#63b8ff" stroke="#63b8ff" points="514.83,-56 524.83,-52.5 514.83,-49 514.83,-56"/>
</a>
</g>
</g>
<!-- Node6 -->
<g id="Node000006" class="node">
<title>Node6</title>
<g id="a_Node000006"><a xlink:href="classTechMapp.html#af0e39c1d95a040c849f8f920b4ba4ffe" target="_top" xlink:title="Connects internal signals and slots for UI and authentication handling.">
<polygon fill="white" stroke="#666666" points="489,-19 342,-19 342,0 489,0 489,-19"/>
<text text-anchor="middle" x="415.5" y="-7" font-family="Helvetica,sans-Serif" font-size="10.00">TechMapp::setup_connects</text>
</a>
</g>
</g>
<!-- Node1&#45;&gt;Node6 -->
<g id="edge6_Node000001_Node000006" class="edge">
<title>Node1&#45;&gt;Node6</title>
<g id="a_edge6_Node000001_Node000006"><a xlink:title=" ">
<path fill="none" stroke="#63b8ff" d="M549.31,-40.62C520.26,-33.81 484.29,-25.38 457.11,-19.02"/>
<polygon fill="#63b8ff" stroke="#63b8ff" points="548.74,-44.08 559.28,-42.96 550.34,-37.27 548.74,-44.08"/>
</a>
</g>
</g>
<!-- Node3 -->
<g id="Node000003" class="node">
<title>Node3</title>
<g id="a_Node000003"><a xlink:href="classLoginPage.html#a7cd454f7668442d809030c3e5e6a66ea" target="_top" xlink:title="Connects UI elements to their respective slots.">
<polygon fill="white" stroke="#666666" points="306,-86 158,-86 158,-67 306,-67 306,-86"/>
<text text-anchor="middle" x="232" y="-74" font-family="Helvetica,sans-Serif" font-size="10.00">LoginPage::setup_connects</text>
</a>
</g>
</g>
<!-- Node2&#45;&gt;Node3 -->
<g id="edge2_Node000002_Node000003" class="edge">
<title>Node2&#45;&gt;Node3</title>
<g id="a_edge2_Node000002_Node000003"><a xlink:title=" ">
<path fill="none" stroke="#63b8ff" d="M349.25,-91.87C334.85,-89.97 319.52,-87.94 304.87,-86"/>
<polygon fill="#63b8ff" stroke="#63b8ff" points="349.18,-95.39 359.55,-93.23 350.1,-88.45 349.18,-95.39"/>
</a>
</g>
</g>
<!-- Node4 -->
<g id="Node000004" class="node">
<title>Node4</title>
<g id="a_Node000004"><a xlink:href="classLoginPage.html#ac80d4431cd7779e6ae5f8c3b17fe6c3f" target="_top" xlink:title="Constructs the login page UI.">
<polygon fill="white" stroke="#666666" points="122,-86 0,-86 0,-67 122,-67 122,-86"/>
<text text-anchor="middle" x="61" y="-74" font-family="Helvetica,sans-Serif" font-size="10.00">LoginPage::LoginPage</text>
</a>
</g>
</g>
<!-- Node3&#45;&gt;Node4 -->
<g id="edge3_Node000003_Node000004" class="edge">
<title>Node3&#45;&gt;Node4</title>
<g id="a_edge3_Node000003_Node000004"><a xlink:title=" ">
<path fill="none" stroke="#63b8ff" d="M147.72,-76.5C139.06,-76.5 130.38,-76.5 122.05,-76.5"/>
<polygon fill="#63b8ff" stroke="#63b8ff" points="147.86,-80 157.86,-76.5 147.86,-73 147.86,-80"/>
</a>
</g>
</g>
<!-- Node5&#45;&gt;Node3 -->
<g id="edge5_Node000005_Node000003" class="edge">
<title>Node5&#45;&gt;Node3</title>
<g id="a_edge5_Node000005_Node000003"><a xlink:title=" ">
<path fill="none" stroke="#63b8ff" d="M348.48,-61.23C334.4,-63.09 319.45,-65.07 305.15,-66.96"/>
<polygon fill="#63b8ff" stroke="#63b8ff" points="349.11,-64.68 358.56,-59.9 348.19,-57.74 349.11,-64.68"/>
</a>
</g>
</g>
<!-- Node7 -->
<g id="Node000007" class="node">
<title>Node7</title>
<g id="a_Node000007"><a xlink:href="classTechMapp.html#ac4d485efbe0d00914dcfb9680a39ec77" target="_top" xlink:title="Constructs the main application window.">
<polygon fill="white" stroke="#666666" points="292,-19 172,-19 172,0 292,0 292,-19"/>
<text text-anchor="middle" x="232" y="-7" font-family="Helvetica,sans-Serif" font-size="10.00">TechMapp::TechMapp</text>
</a>
</g>
</g>
<!-- Node6&#45;&gt;Node7 -->
<g id="edge7_Node000006_Node000007" class="edge">
<title>Node6&#45;&gt;Node7</title>
<g id="a_edge7_Node000006_Node000007"><a xlink:title=" ">
<path fill="none" stroke="#63b8ff" d="M331.79,-9.5C318.37,-9.5 304.72,-9.5 292.02,-9.5"/>
<polygon fill="#63b8ff" stroke="#63b8ff" points="331.98,-13 341.98,-9.5 331.98,-6 331.98,-13"/>
</a>
</g>
</g>
</g>
</svg>
