<?xml version="1.0" encoding="UTF-8" standalone="no"?>
<!DOCTYPE svg PUBLIC "-//W3C//DTD SVG 1.1//EN"
 "http://www.w3.org/Graphics/SVG/1.1/DTD/svg11.dtd">
<!-- Generated by graphviz version 2.43.0 (0)
 -->
<!-- Title: TechMapp::TechMapp Pages: 1 -->
<svg width="821pt" height="311pt"
 viewBox="0.00 0.00 821.00 311.00" xmlns="http://www.w3.org/2000/svg" xmlns:xlink="http://www.w3.org/1999/xlink">
<g id="graph0" class="graph" transform="scale(1 1) rotate(0) translate(4 307)">
<title>TechMapp::TechMapp</title>
<!-- Node1 -->
<g id="Node000001" class="node">
<title>Node1</title>
<g id="a_Node000001"><a xlink:title="Constructs the main application window.">
<polygon fill="#999999" stroke="#666666" points="120,-94 0,-94 0,-75 120,-75 120,-94"/>
<text text-anchor="middle" x="60" y="-82" font-family="Helvetica,sans-Serif" font-size="10.00">TechMapp::TechMapp</text>
</a>
</g>
</g>
<!-- Node2 -->
<g id="Node000002" class="node">
<title>Node2</title>
<g id="a_Node000002"><a xlink:href="classTechMapp.html#a5b70ee0b2d7cbe0e8fe1df38781cd936" target="_top" xlink:title="Loads and applies the global stylesheet to the application.">
<polygon fill="white" stroke="#666666" points="305,-212 156,-212 156,-193 305,-193 305,-212"/>
<text text-anchor="middle" x="230.5" y="-200" font-family="Helvetica,sans-Serif" font-size="10.00">TechMapp::load_stylesheet</text>
</a>
</g>
</g>
<!-- Node1&#45;&gt;Node2 -->
<g id="edge1_Node000001_Node000002" class="edge">
<title>Node1&#45;&gt;Node2</title>
<g id="a_edge1_Node000001_Node000002"><a xlink:title=" ">
<path fill="none" stroke="#63b8ff" d="M67.36,-94.07C81.07,-113.95 115.5,-159.8 156,-183.5 159.71,-185.67 163.67,-187.6 167.75,-189.31"/>
<polygon fill="#63b8ff" stroke="#63b8ff" points="166.86,-192.71 177.45,-192.91 169.3,-186.15 166.86,-192.71"/>
</a>
</g>
</g>
<!-- Node3 -->
<g id="Node000003" class="node">
<title>Node3</title>
<g id="a_Node000003"><a xlink:href="classTechMapp.html#af0e39c1d95a040c849f8f920b4ba4ffe" target="_top" xlink:title="Connects internal signals and slots for UI and authentication handling.">
<polygon fill="white" stroke="#666666" points="304,-175 157,-175 157,-156 304,-156 304,-175"/>
<text text-anchor="middle" x="230.5" y="-163" font-family="Helvetica,sans-Serif" font-size="10.00">TechMapp::setup_connects</text>
</a>
</g>
</g>
<!-- Node1&#45;&gt;Node3 -->
<g id="edge2_Node000001_Node000003" class="edge">
<title>Node1&#45;&gt;Node3</title>
<g id="a_edge2_Node000001_Node000003"><a xlink:title=" ">
<path fill="none" stroke="#63b8ff" d="M80.99,-94.11C110.51,-108.3 165.93,-134.94 200.09,-151.36"/>
<polygon fill="#63b8ff" stroke="#63b8ff" points="199.01,-154.72 209.54,-155.9 202.04,-148.42 199.01,-154.72"/>
</a>
</g>
</g>
<!-- Node7 -->
<g id="Node000007" class="node">
<title>Node7</title>
<g id="a_Node000007"><a xlink:href="classTechMapp.html#ada82d1ac29bbec7da9675ae29b7b23f0" target="_top" xlink:title="Updates the UI components based on the user&#39;s role.">
<polygon fill="white" stroke="#666666" points="653,-180.5 534,-180.5 534,-150.5 653,-150.5 653,-180.5"/>
<text text-anchor="start" x="542" y="-168.5" font-family="Helvetica,sans-Serif" font-size="10.00">TechMapp::update_ui</text>
<text text-anchor="middle" x="593.5" y="-157.5" font-family="Helvetica,sans-Serif" font-size="10.00">_for_role</text>
</a>
</g>
</g>
<!-- Node1&#45;&gt;Node7 -->
<g id="edge14_Node000001_Node000007" class="edge">
<title>Node1&#45;&gt;Node7</title>
<g id="a_edge14_Node000001_Node000007"><a xlink:title=" ">
<path fill="none" stroke="#63b8ff" d="M120.35,-77.33C206.07,-69.13 368.45,-61.71 498,-103.5 523.84,-111.83 549.35,-129.27 567.34,-143.54"/>
<polygon fill="#63b8ff" stroke="#63b8ff" points="565.58,-146.61 575.54,-150.23 570.01,-141.19 565.58,-146.61"/>
</a>
</g>
</g>
<!-- Node12 -->
<g id="Node000012" class="node">
<title>Node12</title>
<g id="a_Node000012"><a xlink:href="classTechMapp.html#a5c6984398f24a46b540d5996ef613dc9" target="_top" xlink:title="Configures and applies the application font.">
<polygon fill="white" stroke="#666666" points="292,-56 169,-56 169,-37 292,-37 292,-56"/>
<text text-anchor="middle" x="230.5" y="-44" font-family="Helvetica,sans-Serif" font-size="10.00">TechMapp::setup_font</text>
</a>
</g>
</g>
<!-- Node1&#45;&gt;Node12 -->
<g id="edge12_Node000001_Node000012" class="edge">
<title>Node1&#45;&gt;Node12</title>
<g id="a_edge12_Node000001_Node000012"><a xlink:title=" ">
<path fill="none" stroke="#63b8ff" d="M103.52,-74.91C125.96,-69.85 153.67,-63.6 177.39,-58.25"/>
<polygon fill="#63b8ff" stroke="#63b8ff" points="178.3,-61.63 187.29,-56.02 176.76,-54.81 178.3,-61.63"/>
</a>
</g>
</g>
<!-- Node13 -->
<g id="Node000013" class="node">
<title>Node13</title>
<g id="a_Node000013"><a xlink:href="classTechMapp.html#ab837369b7ebae709ff71ddd419c4c070" target="_top" xlink:title="Sets up the main UI layout and widgets.">
<polygon fill="white" stroke="#666666" points="287,-19 174,-19 174,0 287,0 287,-19"/>
<text text-anchor="middle" x="230.5" y="-7" font-family="Helvetica,sans-Serif" font-size="10.00">TechMapp::setup_ui</text>
</a>
</g>
</g>
<!-- Node1&#45;&gt;Node13 -->
<g id="edge13_Node000001_Node000013" class="edge">
<title>Node1&#45;&gt;Node13</title>
<g id="a_edge13_Node000001_Node000013"><a xlink:title=" ">
<path fill="none" stroke="#63b8ff" d="M74.16,-74.84C91.91,-62.24 124.87,-40.31 156,-27.5 161.01,-25.44 166.32,-23.57 171.69,-21.9"/>
<polygon fill="#63b8ff" stroke="#63b8ff" points="172.76,-25.23 181.39,-19.08 170.81,-18.51 172.76,-25.23"/>
</a>
</g>
</g>
<!-- Node4 -->
<g id="Node000004" class="node">
<title>Node4</title>
<g id="a_Node000004"><a xlink:href="classLoginPage.html#a1c6c8b9e73bdbfa1db03802092643731" target="_top" xlink:title="Emitted when a user has successfully logged in.">
<polygon fill="white" stroke="#666666" points="495.5,-303 343.5,-303 343.5,-284 495.5,-284 495.5,-303"/>
<text text-anchor="middle" x="419.5" y="-291" font-family="Helvetica,sans-Serif" font-size="10.00">LoginPage::login_successful</text>
</a>
</g>
</g>
<!-- Node3&#45;&gt;Node4 -->
<g id="edge3_Node000003_Node000004" class="edge">
<title>Node3&#45;&gt;Node4</title>
<g id="a_edge3_Node000003_Node000004"><a xlink:title=" ">
<path fill="none" stroke="#63b8ff" d="M292.09,-175.1C296.76,-177.36 301.14,-180.13 305,-183.5 338.04,-212.42 307.79,-246.78 341,-275.5 342.33,-276.65 343.72,-277.73 345.16,-278.74"/>
<polygon fill="#63b8ff" stroke="#63b8ff" points="343.48,-281.82 353.88,-283.86 347.02,-275.78 343.48,-281.82"/>
</a>
</g>
</g>
<!-- Node5 -->
<g id="Node000005" class="node">
<title>Node5</title>
<g id="a_Node000005"><a xlink:href="classLoginPage.html#a01f112292372e79480e00057fd689e2f" target="_top" xlink:title="Emitted when the user requests to log out.">
<polygon fill="white" stroke="#666666" points="498,-266 341,-266 341,-247 498,-247 498,-266"/>
<text text-anchor="middle" x="419.5" y="-254" font-family="Helvetica,sans-Serif" font-size="10.00">LoginPage::logout_requested</text>
</a>
</g>
</g>
<!-- Node3&#45;&gt;Node5 -->
<g id="edge4_Node000003_Node000005" class="edge">
<title>Node3&#45;&gt;Node5</title>
<g id="a_edge4_Node000003_Node000005"><a xlink:title=" ">
<path fill="none" stroke="#63b8ff" d="M289.12,-175.11C294.75,-177.35 300.16,-180.11 305,-183.5 328.62,-200.06 317.38,-220.94 341,-237.5 343.87,-239.51 346.92,-241.31 350.1,-242.92"/>
<polygon fill="#63b8ff" stroke="#63b8ff" points="348.77,-246.15 359.33,-246.97 351.58,-239.74 348.77,-246.15"/>
</a>
</g>
</g>
<!-- Node6 -->
<g id="Node000006" class="node">
<title>Node6</title>
<g id="a_Node000006"><a xlink:href="classTechMapp.html#a7a7ddf55a46e58e917e7f308161a773e" target="_top" xlink:title="Called when a login is successful.">
<polygon fill="white" stroke="#666666" points="476,-228.5 363,-228.5 363,-198.5 476,-198.5 476,-228.5"/>
<text text-anchor="start" x="371" y="-216.5" font-family="Helvetica,sans-Serif" font-size="10.00">TechMapp::on_login</text>
<text text-anchor="middle" x="419.5" y="-205.5" font-family="Helvetica,sans-Serif" font-size="10.00">_successful</text>
</a>
</g>
</g>
<!-- Node3&#45;&gt;Node6 -->
<g id="edge5_Node000003_Node000006" class="edge">
<title>Node3&#45;&gt;Node6</title>
<g id="a_edge5_Node000003_Node000006"><a xlink:title=" ">
<path fill="none" stroke="#63b8ff" d="M271.2,-175.08C282.16,-177.77 294.05,-180.71 305,-183.5 320.47,-187.44 337.11,-191.78 352.74,-195.9"/>
<polygon fill="#63b8ff" stroke="#63b8ff" points="352.28,-199.4 362.84,-198.57 354.07,-192.63 352.28,-199.4"/>
</a>
</g>
</g>
<!-- Node10 -->
<g id="Node000010" class="node">
<title>Node10</title>
<g id="a_Node000010"><a xlink:href="classTechMapp.html#a7ff2ad6699f59bc55499b83dac1a07da" target="_top" xlink:title="Called when a logout is requested by the user.">
<polygon fill="white" stroke="#666666" points="479,-180.5 360,-180.5 360,-150.5 479,-150.5 479,-180.5"/>
<text text-anchor="start" x="368" y="-168.5" font-family="Helvetica,sans-Serif" font-size="10.00">TechMapp::on_logout</text>
<text text-anchor="middle" x="419.5" y="-157.5" font-family="Helvetica,sans-Serif" font-size="10.00">_requested</text>
</a>
</g>
</g>
<!-- Node3&#45;&gt;Node10 -->
<g id="edge9_Node000003_Node000010" class="edge">
<title>Node3&#45;&gt;Node10</title>
<g id="a_edge9_Node000003_Node000010"><a xlink:title=" ">
<path fill="none" stroke="#63b8ff" d="M304.07,-165.5C319.08,-165.5 334.86,-165.5 349.73,-165.5"/>
<polygon fill="#63b8ff" stroke="#63b8ff" points="349.86,-169 359.86,-165.5 349.86,-162 349.86,-169"/>
</a>
</g>
</g>
<!-- Node11 -->
<g id="Node000011" class="node">
<title>Node11</title>
<g id="a_Node000011"><a xlink:href="classNavigationBar.html#acd76499274ec17a39d7811b458a152bc" target="_top" xlink:title="Emitted when a new tab is selected.">
<polygon fill="white" stroke="#666666" points="495,-132 344,-132 344,-113 495,-113 495,-132"/>
<text text-anchor="middle" x="419.5" y="-120" font-family="Helvetica,sans-Serif" font-size="10.00">NavigationBar::tabChanged</text>
</a>
</g>
</g>
<!-- Node3&#45;&gt;Node11 -->
<g id="edge11_Node000003_Node000011" class="edge">
<title>Node3&#45;&gt;Node11</title>
<g id="a_edge11_Node000003_Node000011"><a xlink:title=" ">
<path fill="none" stroke="#63b8ff" d="M273,-155.96C300.84,-149.55 337.7,-141.08 367.36,-134.26"/>
<polygon fill="#63b8ff" stroke="#63b8ff" points="368.15,-137.67 377.11,-132.02 366.58,-130.85 368.15,-137.67"/>
</a>
</g>
</g>
<!-- Node6&#45;&gt;Node7 -->
<g id="edge6_Node000006_Node000007" class="edge">
<title>Node6&#45;&gt;Node7</title>
<g id="a_edge6_Node000006_Node000007"><a xlink:title=" ">
<path fill="none" stroke="#63b8ff" d="M474.45,-198.44C491.74,-193.62 511.05,-188.23 528.96,-183.23"/>
<polygon fill="#63b8ff" stroke="#63b8ff" points="530.05,-186.56 538.74,-180.5 528.17,-179.82 530.05,-186.56"/>
</a>
</g>
</g>
<!-- Node8 -->
<g id="Node000008" class="node">
<title>Node8</title>
<g id="a_Node000008"><a xlink:href="classAuthenticationService.html#a8c681492f74d5e7b0338ec3a5525c0a5" target="_top" xlink:title=" ">
<polygon fill="white" stroke="#666666" points="813,-204.5 689,-204.5 689,-174.5 813,-174.5 813,-204.5"/>
<text text-anchor="start" x="697" y="-192.5" font-family="Helvetica,sans-Serif" font-size="10.00">AuthenticationService</text>
<text text-anchor="middle" x="751" y="-181.5" font-family="Helvetica,sans-Serif" font-size="10.00">::current_user</text>
</a>
</g>
</g>
<!-- Node7&#45;&gt;Node8 -->
<g id="edge7_Node000007_Node000008" class="edge">
<title>Node7&#45;&gt;Node8</title>
<g id="a_edge7_Node000007_Node000008"><a xlink:title=" ">
<path fill="none" stroke="#63b8ff" d="M653.29,-174.57C661.63,-175.86 670.29,-177.2 678.84,-178.52"/>
<polygon fill="#63b8ff" stroke="#63b8ff" points="678.38,-181.99 688.8,-180.05 679.45,-175.07 678.38,-181.99"/>
</a>
</g>
</g>
<!-- Node9 -->
<g id="Node000009" class="node">
<title>Node9</title>
<g id="a_Node000009"><a xlink:href="classAuthenticationService.html#a2dc8be4689e371d7a773ac008b21cf3a" target="_top" xlink:title=" ">
<polygon fill="white" stroke="#666666" points="813,-156.5 689,-156.5 689,-126.5 813,-126.5 813,-156.5"/>
<text text-anchor="start" x="697" y="-144.5" font-family="Helvetica,sans-Serif" font-size="10.00">AuthenticationService</text>
<text text-anchor="middle" x="751" y="-133.5" font-family="Helvetica,sans-Serif" font-size="10.00">::instance</text>
</a>
</g>
</g>
<!-- Node7&#45;&gt;Node9 -->
<g id="edge8_Node000007_Node000009" class="edge">
<title>Node7&#45;&gt;Node9</title>
<g id="a_edge8_Node000007_Node000009"><a xlink:title=" ">
<path fill="none" stroke="#63b8ff" d="M653.29,-156.43C661.63,-155.14 670.29,-153.8 678.84,-152.48"/>
<polygon fill="#63b8ff" stroke="#63b8ff" points="679.45,-155.93 688.8,-150.95 678.38,-149.01 679.45,-155.93"/>
</a>
</g>
</g>
<!-- Node10&#45;&gt;Node7 -->
<g id="edge10_Node000010_Node000007" class="edge">
<title>Node10&#45;&gt;Node7</title>
<g id="a_edge10_Node000010_Node000007"><a xlink:title=" ">
<path fill="none" stroke="#63b8ff" d="M479.21,-165.5C493.52,-165.5 508.96,-165.5 523.69,-165.5"/>
<polygon fill="#63b8ff" stroke="#63b8ff" points="523.76,-169 533.76,-165.5 523.76,-162 523.76,-169"/>
</a>
</g>
</g>
</g>
</svg>
