<?xml version="1.0" encoding="UTF-8" standalone="no"?>
<!DOCTYPE svg PUBLIC "-//W3C//DTD SVG 1.1//EN"
 "http://www.w3.org/Graphics/SVG/1.1/DTD/svg11.dtd">
<!-- Generated by graphviz version 2.43.0 (0)
 -->
<!-- Title: ATechnician Pages: 1 -->
<svg width="236pt" height="137pt"
 viewBox="0.00 0.00 236.00 137.00" xmlns="http://www.w3.org/2000/svg" xmlns:xlink="http://www.w3.org/1999/xlink">
<g id="graph0" class="graph" transform="scale(1 1) rotate(0) translate(4 133)">
<title>ATechnician</title>
<!-- Node1 -->
<g id="Node000001" class="node">
<title>Node1</title>
<g id="a_Node000001"><a xlink:title="Abstract base class that represents a technician and their expertise.">
<polygon fill="#999999" stroke="#666666" points="145,-129 71,-129 71,-110 145,-110 145,-129"/>
<text text-anchor="middle" x="108" y="-117" font-family="Helvetica,sans-Serif" font-size="10.00">ATechnician</text>
</a>
</g>
</g>
<!-- Node2 -->
<g id="Node000002" class="node">
<title>Node2</title>
<g id="a_Node000002"><a xlink:href="classBasicTechnician.html" target="_top" xlink:title="A basic implementation of the ATechnician interface.">
<polygon fill="white" stroke="#666666" points="94,-74 0,-74 0,-55 94,-55 94,-74"/>
<text text-anchor="middle" x="47" y="-62" font-family="Helvetica,sans-Serif" font-size="10.00">BasicTechnician</text>
</a>
</g>
</g>
<!-- Node1&#45;&gt;Node2 -->
<g id="edge1_Node000001_Node000002" class="edge">
<title>Node1&#45;&gt;Node2</title>
<g id="a_edge1_Node000001_Node000002"><a xlink:title=" ">
<path fill="none" stroke="#63b8ff" d="M90.53,-103.32C79.66,-93.87 66.06,-82.06 56.98,-74.17"/>
<polygon fill="#63b8ff" stroke="#63b8ff" points="88.35,-106.07 98.2,-109.98 92.95,-100.78 88.35,-106.07"/>
</a>
</g>
</g>
<!-- Node3 -->
<g id="Node000003" class="node">
<title>Node3</title>
<g id="a_Node000003"><a xlink:href="classTechnicianDecorator.html" target="_top" xlink:title="Abstract base class for decorating ATechnician instances with additional behaviors.">
<polygon fill="white" stroke="#666666" points="228,-74 112,-74 112,-55 228,-55 228,-74"/>
<text text-anchor="middle" x="170" y="-62" font-family="Helvetica,sans-Serif" font-size="10.00">TechnicianDecorator</text>
</a>
</g>
</g>
<!-- Node1&#45;&gt;Node3 -->
<g id="edge2_Node000001_Node000003" class="edge">
<title>Node1&#45;&gt;Node3</title>
<g id="a_edge2_Node000001_Node000003"><a xlink:title=" ">
<path fill="none" stroke="#63b8ff" d="M125.75,-103.32C136.81,-93.87 150.63,-82.06 159.86,-74.17"/>
<polygon fill="#63b8ff" stroke="#63b8ff" points="123.29,-100.83 117.96,-109.98 127.84,-106.15 123.29,-100.83"/>
</a>
</g>
</g>
<!-- Node4 -->
<g id="Node000004" class="node">
<title>Node4</title>
<g id="a_Node000004"><a xlink:href="classExpertiseDecorator.html" target="_top" xlink:title="A concrete decorator that adds an expertise field to a technician.">
<polygon fill="white" stroke="#666666" points="225,-19 115,-19 115,0 225,0 225,-19"/>
<text text-anchor="middle" x="170" y="-7" font-family="Helvetica,sans-Serif" font-size="10.00">ExpertiseDecorator</text>
</a>
</g>
</g>
<!-- Node3&#45;&gt;Node4 -->
<g id="edge3_Node000003_Node000004" class="edge">
<title>Node3&#45;&gt;Node4</title>
<g id="a_edge3_Node000003_Node000004"><a xlink:title=" ">
<path fill="none" stroke="#63b8ff" d="M170,-44.66C170,-35.93 170,-25.99 170,-19.09"/>
<polygon fill="#63b8ff" stroke="#63b8ff" points="166.5,-44.75 170,-54.75 173.5,-44.75 166.5,-44.75"/>
</a>
</g>
</g>
</g>
</svg>
