<?xml version="1.0" encoding="UTF-8" standalone="no"?>
<!DOCTYPE svg PUBLIC "-//W3C//DTD SVG 1.1//EN"
 "http://www.w3.org/Graphics/SVG/1.1/DTD/svg11.dtd">
<!-- Generated by graphviz version 2.43.0 (0)
 -->
<!-- Title: TechMapp::update_ui_for_role Pages: 1 -->
<svg width="621pt" height="104pt"
 viewBox="0.00 0.00 621.00 104.39" xmlns="http://www.w3.org/2000/svg" xmlns:xlink="http://www.w3.org/1999/xlink">
<g id="graph0" class="graph" transform="scale(1 1) rotate(0) translate(4 100.39)">
<title>TechMapp::update_ui_for_role</title>
<!-- Node1 -->
<g id="Node000001" class="node">
<title>Node1</title>
<g id="a_Node000001"><a xlink:title="Updates the UI components based on the user&#39;s role.">
<polygon fill="#999999" stroke="#666666" points="613,-48.39 494,-48.39 494,-18.39 613,-18.39 613,-48.39"/>
<text text-anchor="start" x="502" y="-36.39" font-family="Helvetica,sans-Serif" font-size="10.00">TechMapp::update_ui</text>
<text text-anchor="middle" x="553.5" y="-25.39" font-family="Helvetica,sans-Serif" font-size="10.00">_for_role</text>
</a>
</g>
</g>
<!-- Node2 -->
<g id="Node000002" class="node">
<title>Node2</title>
<g id="a_Node000002"><a xlink:href="classTechMapp.html#a7a7ddf55a46e58e917e7f308161a773e" target="_top" xlink:title="Called when a login is successful.">
<polygon fill="white" stroke="#666666" points="455,-96.39 342,-96.39 342,-66.39 455,-66.39 455,-96.39"/>
<text text-anchor="start" x="350" y="-84.39" font-family="Helvetica,sans-Serif" font-size="10.00">TechMapp::on_login</text>
<text text-anchor="middle" x="398.5" y="-73.39" font-family="Helvetica,sans-Serif" font-size="10.00">_successful</text>
</a>
</g>
</g>
<!-- Node1&#45;&gt;Node2 -->
<g id="edge1_Node000001_Node000002" class="edge">
<title>Node1&#45;&gt;Node2</title>
<g id="a_edge1_Node000001_Node000002"><a xlink:title=" ">
<path fill="none" stroke="#63b8ff" d="M494.91,-51.46C479.22,-56.38 462.4,-61.66 447.32,-66.39"/>
<polygon fill="#63b8ff" stroke="#63b8ff" points="496.02,-54.78 504.51,-48.45 493.92,-48.1 496.02,-54.78"/>
</a>
</g>
</g>
<!-- Node4 -->
<g id="Node000004" class="node">
<title>Node4</title>
<g id="a_Node000004"><a xlink:href="classTechMapp.html#ac4d485efbe0d00914dcfb9680a39ec77" target="_top" xlink:title="Constructs the main application window.">
<polygon fill="white" stroke="#666666" points="120,-20.89 0,-20.89 0,-1.89 120,-1.89 120,-20.89"/>
<text text-anchor="middle" x="60" y="-8.89" font-family="Helvetica,sans-Serif" font-size="10.00">TechMapp::TechMapp</text>
</a>
</g>
</g>
<!-- Node1&#45;&gt;Node4 -->
<g id="edge6_Node000001_Node000004" class="edge">
<title>Node1&#45;&gt;Node4</title>
<g id="a_edge6_Node000001_Node000004"><a xlink:title=" ">
<path fill="none" stroke="#63b8ff" d="M492.97,-15.89C481.47,-13.19 469.43,-10.82 458,-9.39 338.83,5.51 197.96,-0.8 120.14,-6.35"/>
<polygon fill="#63b8ff" stroke="#63b8ff" points="492.37,-19.35 502.92,-18.34 494.04,-12.55 492.37,-19.35"/>
</a>
</g>
</g>
<!-- Node5 -->
<g id="Node000005" class="node">
<title>Node5</title>
<g id="a_Node000005"><a xlink:href="classTechMapp.html#a7ff2ad6699f59bc55499b83dac1a07da" target="_top" xlink:title="Called when a logout is requested by the user.">
<polygon fill="white" stroke="#666666" points="458,-48.39 339,-48.39 339,-18.39 458,-18.39 458,-48.39"/>
<text text-anchor="start" x="347" y="-36.39" font-family="Helvetica,sans-Serif" font-size="10.00">TechMapp::on_logout</text>
<text text-anchor="middle" x="398.5" y="-25.39" font-family="Helvetica,sans-Serif" font-size="10.00">_requested</text>
</a>
</g>
</g>
<!-- Node1&#45;&gt;Node5 -->
<g id="edge4_Node000001_Node000005" class="edge">
<title>Node1&#45;&gt;Node5</title>
<g id="a_edge4_Node000001_Node000005"><a xlink:title=" ">
<path fill="none" stroke="#63b8ff" d="M483.51,-33.39C475.01,-33.39 466.38,-33.39 458.06,-33.39"/>
<polygon fill="#63b8ff" stroke="#63b8ff" points="483.78,-36.89 493.78,-33.39 483.78,-29.89 483.78,-36.89"/>
</a>
</g>
</g>
<!-- Node3 -->
<g id="Node000003" class="node">
<title>Node3</title>
<g id="a_Node000003"><a xlink:href="classTechMapp.html#af0e39c1d95a040c849f8f920b4ba4ffe" target="_top" xlink:title="Connects internal signals and slots for UI and authentication handling.">
<polygon fill="white" stroke="#666666" points="303,-42.89 156,-42.89 156,-23.89 303,-23.89 303,-42.89"/>
<text text-anchor="middle" x="229.5" y="-30.89" font-family="Helvetica,sans-Serif" font-size="10.00">TechMapp::setup_connects</text>
</a>
</g>
</g>
<!-- Node2&#45;&gt;Node3 -->
<g id="edge2_Node000002_Node000003" class="edge">
<title>Node2&#45;&gt;Node3</title>
<g id="a_edge2_Node000002_Node000003"><a xlink:title=" ">
<path fill="none" stroke="#63b8ff" d="M335.27,-63.5C311.02,-56.53 284.21,-48.83 263.78,-42.96"/>
<polygon fill="#63b8ff" stroke="#63b8ff" points="334.54,-66.94 345.12,-66.34 336.47,-60.21 334.54,-66.94"/>
</a>
</g>
</g>
<!-- Node3&#45;&gt;Node4 -->
<g id="edge3_Node000003_Node000004" class="edge">
<title>Node3&#45;&gt;Node4</title>
<g id="a_edge3_Node000003_Node000004"><a xlink:title=" ">
<path fill="none" stroke="#63b8ff" d="M145.81,-22.53C137.1,-21.39 128.37,-20.24 120,-19.14"/>
<polygon fill="#63b8ff" stroke="#63b8ff" points="145.64,-26.04 156.01,-23.87 146.55,-19.1 145.64,-26.04"/>
</a>
</g>
</g>
<!-- Node5&#45;&gt;Node3 -->
<g id="edge5_Node000005_Node000003" class="edge">
<title>Node5&#45;&gt;Node3</title>
<g id="a_edge5_Node000005_Node000003"><a xlink:title=" ">
<path fill="none" stroke="#63b8ff" d="M328.54,-33.39C320.17,-33.39 311.61,-33.39 303.19,-33.39"/>
<polygon fill="#63b8ff" stroke="#63b8ff" points="328.62,-36.89 338.62,-33.39 328.62,-29.89 328.62,-36.89"/>
</a>
</g>
</g>
</g>
</svg>
