<?xml version="1.0" encoding="UTF-8" standalone="no"?>
<!DOCTYPE svg PUBLIC "-//W3C//DTD SVG 1.1//EN"
 "http://www.w3.org/Graphics/SVG/1.1/DTD/svg11.dtd">
<!-- Generated by graphviz version 2.43.0 (0)
 -->
<!-- Title: TechniciansListView::setup_ui Pages: 1 -->
<svg width="448pt" height="129pt"
 viewBox="0.00 0.00 448.00 129.00" xmlns="http://www.w3.org/2000/svg" xmlns:xlink="http://www.w3.org/1999/xlink">
<g id="graph0" class="graph" transform="scale(1 1) rotate(0) translate(4 125)">
<title>TechniciansListView::setup_ui</title>
<!-- Node1 -->
<g id="Node000001" class="node">
<title>Node1</title>
<g id="a_Node000001"><a xlink:title="Initializes UI properties and internal models.">
<polygon fill="#999999" stroke="#666666" points="114,-78 0,-78 0,-48 114,-48 114,-78"/>
<text text-anchor="start" x="8" y="-66" font-family="Helvetica,sans-Serif" font-size="10.00">TechniciansListView</text>
<text text-anchor="middle" x="57" y="-55" font-family="Helvetica,sans-Serif" font-size="10.00">::setup_ui</text>
</a>
</g>
</g>
<!-- Node2 -->
<g id="Node000002" class="node">
<title>Node2</title>
<g id="a_Node000002"><a xlink:href="classTechnicianRepository.html#a7195867c4915f8aa3ff92b28615b1248" target="_top" xlink:title="Returns the singleton instance of the repository.">
<polygon fill="white" stroke="#666666" points="440,-121 320,-121 320,-91 440,-91 440,-121"/>
<text text-anchor="start" x="328" y="-109" font-family="Helvetica,sans-Serif" font-size="10.00">TechnicianRepository</text>
<text text-anchor="middle" x="380" y="-98" font-family="Helvetica,sans-Serif" font-size="10.00">::instance</text>
</a>
</g>
</g>
<!-- Node1&#45;&gt;Node2 -->
<g id="edge1_Node000001_Node000002" class="edge">
<title>Node1&#45;&gt;Node2</title>
<g id="a_edge1_Node000001_Node000002"><a xlink:title=" ">
<path fill="none" stroke="#63b8ff" d="M109.24,-78.04C122.42,-81.44 136.66,-84.72 150,-87 203.2,-96.08 264.11,-100.86 309.74,-103.36"/>
<polygon fill="#63b8ff" stroke="#63b8ff" points="309.65,-106.86 319.82,-103.89 310.01,-99.87 309.65,-106.86"/>
</a>
</g>
</g>
<!-- Node3 -->
<g id="Node000003" class="node">
<title>Node3</title>
<g id="a_Node000003"><a xlink:href="classTechniciansListView.html#ab337e022e046d24caf8482cc7d68be6c" target="_top" xlink:title="Called when the technician repository is updated.">
<polygon fill="white" stroke="#666666" points="284,-78 150,-78 150,-48 284,-48 284,-78"/>
<text text-anchor="start" x="158" y="-66" font-family="Helvetica,sans-Serif" font-size="10.00">TechniciansListView</text>
<text text-anchor="middle" x="217" y="-55" font-family="Helvetica,sans-Serif" font-size="10.00">::on_repository_updated</text>
</a>
</g>
</g>
<!-- Node1&#45;&gt;Node3 -->
<g id="edge2_Node000001_Node000003" class="edge">
<title>Node1&#45;&gt;Node3</title>
<g id="a_edge2_Node000001_Node000003"><a xlink:title=" ">
<path fill="none" stroke="#63b8ff" d="M114.15,-63C122.44,-63 131.09,-63 139.7,-63"/>
<polygon fill="#63b8ff" stroke="#63b8ff" points="139.77,-66.5 149.77,-63 139.77,-59.5 139.77,-66.5"/>
</a>
</g>
</g>
<!-- Node5 -->
<g id="Node000005" class="node">
<title>Node5</title>
<g id="a_Node000005"><a xlink:href="classTechnicianRepository.html#aec84642514e38cee1a7089e9fbdd41a6" target="_top" xlink:title="Subscribes an observer to be notified on repository changes.">
<polygon fill="white" stroke="#666666" points="277,-30 157,-30 157,0 277,0 277,-30"/>
<text text-anchor="start" x="165" y="-18" font-family="Helvetica,sans-Serif" font-size="10.00">TechnicianRepository</text>
<text text-anchor="middle" x="217" y="-7" font-family="Helvetica,sans-Serif" font-size="10.00">::subscribe</text>
</a>
</g>
</g>
<!-- Node1&#45;&gt;Node5 -->
<g id="edge5_Node000001_Node000005" class="edge">
<title>Node1&#45;&gt;Node5</title>
<g id="a_edge5_Node000001_Node000005"><a xlink:title=" ">
<path fill="none" stroke="#63b8ff" d="M107.56,-47.94C123.15,-43.21 140.52,-37.93 156.71,-33.01"/>
<polygon fill="#63b8ff" stroke="#63b8ff" points="158.07,-36.26 166.62,-30 156.03,-29.56 158.07,-36.26"/>
</a>
</g>
</g>
<!-- Node3&#45;&gt;Node2 -->
<g id="edge4_Node000003_Node000002" class="edge">
<title>Node3&#45;&gt;Node2</title>
<g id="a_edge4_Node000003_Node000002"><a xlink:title=" ">
<path fill="none" stroke="#63b8ff" d="M274.31,-78.04C286.81,-81.38 300.17,-84.95 313.02,-88.38"/>
<polygon fill="#63b8ff" stroke="#63b8ff" points="312.16,-91.77 322.72,-90.97 313.96,-85.01 312.16,-91.77"/>
</a>
</g>
</g>
<!-- Node4 -->
<g id="Node000004" class="node">
<title>Node4</title>
<g id="a_Node000004"><a xlink:href="classTechnicianRepository.html#abf3ba8f356e622790a4445b34046ac02" target="_top" xlink:title="Retrieves all technicians in the repository.">
<polygon fill="white" stroke="#666666" points="440,-73 320,-73 320,-43 440,-43 440,-73"/>
<text text-anchor="start" x="328" y="-61" font-family="Helvetica,sans-Serif" font-size="10.00">TechnicianRepository</text>
<text text-anchor="middle" x="380" y="-50" font-family="Helvetica,sans-Serif" font-size="10.00">::get_all</text>
</a>
</g>
</g>
<!-- Node3&#45;&gt;Node4 -->
<g id="edge3_Node000003_Node000004" class="edge">
<title>Node3&#45;&gt;Node4</title>
<g id="a_edge3_Node000003_Node000004"><a xlink:title=" ">
<path fill="none" stroke="#63b8ff" d="M284.41,-60.94C292.79,-60.68 301.37,-60.41 309.79,-60.15"/>
<polygon fill="#63b8ff" stroke="#63b8ff" points="310.06,-63.64 319.95,-59.83 309.85,-56.65 310.06,-63.64"/>
</a>
</g>
</g>
</g>
</svg>
