<?xml version="1.0" encoding="UTF-8" standalone="no"?>
<!DOCTYPE svg PUBLIC "-//W3C//DTD SVG 1.1//EN"
 "http://www.w3.org/Graphics/SVG/1.1/DTD/svg11.dtd">
<!-- Generated by graphviz version 2.43.0 (0)
 -->
<!-- Title: ParametersPage::ParametersPage Pages: 1 -->
<svg width="367pt" height="76pt"
 viewBox="0.00 0.00 367.00 75.50" xmlns="http://www.w3.org/2000/svg" xmlns:xlink="http://www.w3.org/1999/xlink">
<g id="graph0" class="graph" transform="scale(1 1) rotate(0) translate(4 71.5)">
<title>ParametersPage::ParametersPage</title>
<!-- Node1 -->
<g id="Node000001" class="node">
<title>Node1</title>
<g id="a_Node000001"><a xlink:title="Constructs the ParametersPage widget.">
<polygon fill="#999999" stroke="#666666" points="180,-40 0,-40 0,-21 180,-21 180,-40"/>
<text text-anchor="middle" x="90" y="-28" font-family="Helvetica,sans-Serif" font-size="10.00">ParametersPage::ParametersPage</text>
</a>
</g>
</g>
<!-- Node2 -->
<g id="Node000002" class="node">
<title>Node2</title>
<g id="a_Node000002"><a xlink:href="classParametersPage.html#a5c48580d591d89eabdf44bab2814f74f" target="_top" xlink:title="Connects UI components to relevant logic or signals.">
<polygon fill="white" stroke="#666666" points="351.5,-67.5 223.5,-67.5 223.5,-37.5 351.5,-37.5 351.5,-67.5"/>
<text text-anchor="start" x="231.5" y="-55.5" font-family="Helvetica,sans-Serif" font-size="10.00">ParametersPage::setup</text>
<text text-anchor="middle" x="287.5" y="-44.5" font-family="Helvetica,sans-Serif" font-size="10.00">_connects</text>
</a>
</g>
</g>
<!-- Node1&#45;&gt;Node2 -->
<g id="edge1_Node000001_Node000002" class="edge">
<title>Node1&#45;&gt;Node2</title>
<g id="a_edge1_Node000001_Node000002"><a xlink:title=" ">
<path fill="none" stroke="#63b8ff" d="M175.61,-40.02C188.11,-41.43 200.9,-42.87 213.14,-44.24"/>
<polygon fill="#63b8ff" stroke="#63b8ff" points="212.95,-47.75 223.28,-45.39 213.73,-40.79 212.95,-47.75"/>
</a>
</g>
</g>
<!-- Node3 -->
<g id="Node000003" class="node">
<title>Node3</title>
<g id="a_Node000003"><a xlink:href="classParametersPage.html#af7547c1b761695472e7026848f462308" target="_top" xlink:title="Sets up the UI layout and widgets.">
<polygon fill="white" stroke="#666666" points="359,-19 216,-19 216,0 359,0 359,-19"/>
<text text-anchor="middle" x="287.5" y="-7" font-family="Helvetica,sans-Serif" font-size="10.00">ParametersPage::setup_ui</text>
</a>
</g>
</g>
<!-- Node1&#45;&gt;Node3 -->
<g id="edge2_Node000001_Node000003" class="edge">
<title>Node1&#45;&gt;Node3</title>
<g id="a_edge2_Node000001_Node000003"><a xlink:title=" ">
<path fill="none" stroke="#63b8ff" d="M179.6,-20.98C188.31,-20.05 197.12,-19.1 205.75,-18.17"/>
<polygon fill="#63b8ff" stroke="#63b8ff" points="206.21,-21.64 215.78,-17.1 205.47,-14.68 206.21,-21.64"/>
</a>
</g>
</g>
</g>
</svg>
