<?xml version="1.0" encoding="UTF-8" standalone="no"?>
<!DOCTYPE svg PUBLIC "-//W3C//DTD SVG 1.1//EN"
 "http://www.w3.org/Graphics/SVG/1.1/DTD/svg11.dtd">
<!-- Generated by graphviz version 2.43.0 (0)
 -->
<!-- Title: InterventionsListView::setup_ui Pages: 1 -->
<svg width="464pt" height="220pt"
 viewBox="0.00 0.00 464.00 219.50" xmlns="http://www.w3.org/2000/svg" xmlns:xlink="http://www.w3.org/1999/xlink">
<g id="graph0" class="graph" transform="scale(1 1) rotate(0) translate(4 215.5)">
<title>InterventionsListView::setup_ui</title>
<!-- Node1 -->
<g id="Node000001" class="node">
<title>Node1</title>
<g id="a_Node000001"><a xlink:title="Initializes the list view UI components.">
<polygon fill="#999999" stroke="#666666" points="122,-128.5 0,-128.5 0,-98.5 122,-98.5 122,-128.5"/>
<text text-anchor="start" x="8" y="-116.5" font-family="Helvetica,sans-Serif" font-size="10.00">InterventionsListView</text>
<text text-anchor="middle" x="61" y="-105.5" font-family="Helvetica,sans-Serif" font-size="10.00">::setup_ui</text>
</a>
</g>
</g>
<!-- Node2 -->
<g id="Node000002" class="node">
<title>Node2</title>
<g id="a_Node000002"><a xlink:href="classInterventionRepository.html#a2e562f9d059314c9cb2fb8cc0d19008b" target="_top" xlink:title="Returns the singleton instance of the repository.">
<polygon fill="white" stroke="#666666" points="456,-211.5 328,-211.5 328,-181.5 456,-181.5 456,-211.5"/>
<text text-anchor="start" x="336" y="-199.5" font-family="Helvetica,sans-Serif" font-size="10.00">InterventionRepository</text>
<text text-anchor="middle" x="392" y="-188.5" font-family="Helvetica,sans-Serif" font-size="10.00">::instance</text>
</a>
</g>
</g>
<!-- Node1&#45;&gt;Node2 -->
<g id="edge1_Node000001_Node000002" class="edge">
<title>Node1&#45;&gt;Node2</title>
<g id="a_edge1_Node000001_Node000002"><a xlink:title=" ">
<path fill="none" stroke="#63b8ff" d="M121.58,-128.53C177.77,-142.71 261.99,-163.95 321.28,-178.91"/>
<polygon fill="#63b8ff" stroke="#63b8ff" points="320.76,-182.39 331.31,-181.44 322.47,-175.6 320.76,-182.39"/>
</a>
</g>
</g>
<!-- Node3 -->
<g id="Node000003" class="node">
<title>Node3</title>
<g id="a_Node000003"><a xlink:href="classInterventionsListView.html#a09c3eb5ea0586743b19fead7d7705b5e" target="_top" xlink:title="Slot called when the intervention repository is updated.">
<polygon fill="white" stroke="#666666" points="292,-128.5 158,-128.5 158,-98.5 292,-98.5 292,-128.5"/>
<text text-anchor="start" x="166" y="-116.5" font-family="Helvetica,sans-Serif" font-size="10.00">InterventionsListView</text>
<text text-anchor="middle" x="225" y="-105.5" font-family="Helvetica,sans-Serif" font-size="10.00">::on_repository_updated</text>
</a>
</g>
</g>
<!-- Node1&#45;&gt;Node3 -->
<g id="edge2_Node000001_Node000003" class="edge">
<title>Node1&#45;&gt;Node3</title>
<g id="a_edge2_Node000001_Node000003"><a xlink:title=" ">
<path fill="none" stroke="#63b8ff" d="M122.32,-113.5C130.66,-113.5 139.32,-113.5 147.9,-113.5"/>
<polygon fill="#63b8ff" stroke="#63b8ff" points="147.91,-117 157.91,-113.5 147.91,-110 147.91,-117"/>
</a>
</g>
</g>
<!-- Node8 -->
<g id="Node000008" class="node">
<title>Node8</title>
<g id="a_Node000008"><a xlink:href="classInterventionRepository.html#afb56a1a72a8d710be1a16589da2bd0b7" target="_top" xlink:title="Subscribes a QObject to be notified of changes.">
<polygon fill="white" stroke="#666666" points="289,-80.5 161,-80.5 161,-50.5 289,-50.5 289,-80.5"/>
<text text-anchor="start" x="169" y="-68.5" font-family="Helvetica,sans-Serif" font-size="10.00">InterventionRepository</text>
<text text-anchor="middle" x="225" y="-57.5" font-family="Helvetica,sans-Serif" font-size="10.00">::subscribe</text>
</a>
</g>
</g>
<!-- Node1&#45;&gt;Node8 -->
<g id="edge8_Node000001_Node000008" class="edge">
<title>Node1&#45;&gt;Node8</title>
<g id="a_edge8_Node000001_Node000008"><a xlink:title=" ">
<path fill="none" stroke="#63b8ff" d="M112.81,-98.44C128.95,-93.66 146.95,-88.33 163.68,-83.37"/>
<polygon fill="#63b8ff" stroke="#63b8ff" points="164.77,-86.7 173.37,-80.5 162.78,-79.99 164.77,-86.7"/>
</a>
</g>
</g>
<!-- Node3&#45;&gt;Node2 -->
<g id="edge5_Node000003_Node000002" class="edge">
<title>Node3&#45;&gt;Node2</title>
<g id="a_edge5_Node000003_Node000002"><a xlink:title=" ">
<path fill="none" stroke="#63b8ff" d="M249.73,-128.69C270.04,-141.32 300.29,-159.31 328,-172.5 331.58,-174.21 335.32,-175.88 339.11,-177.5"/>
<polygon fill="#63b8ff" stroke="#63b8ff" points="338.01,-180.83 348.58,-181.41 340.68,-174.36 338.01,-180.83"/>
</a>
</g>
</g>
<!-- Node4 -->
<g id="Node000004" class="node">
<title>Node4</title>
<g id="a_Node000004"><a xlink:href="classInterventionRepository.html#a251502ad34f1e6636918d97e398b3d4b" target="_top" xlink:title="Retrieves all interventions stored in the repository.">
<polygon fill="white" stroke="#666666" points="456,-163.5 328,-163.5 328,-133.5 456,-133.5 456,-163.5"/>
<text text-anchor="start" x="336" y="-151.5" font-family="Helvetica,sans-Serif" font-size="10.00">InterventionRepository</text>
<text text-anchor="middle" x="392" y="-140.5" font-family="Helvetica,sans-Serif" font-size="10.00">::get_all</text>
</a>
</g>
</g>
<!-- Node3&#45;&gt;Node4 -->
<g id="edge3_Node000003_Node000004" class="edge">
<title>Node3&#45;&gt;Node4</title>
<g id="a_edge3_Node000003_Node000004"><a xlink:title=" ">
<path fill="none" stroke="#63b8ff" d="M292.16,-127.53C300.6,-129.32 309.28,-131.17 317.83,-132.98"/>
<polygon fill="#63b8ff" stroke="#63b8ff" points="317.26,-136.44 327.77,-135.09 318.72,-129.59 317.26,-136.44"/>
</a>
</g>
</g>
<!-- Node5 -->
<g id="Node000005" class="node">
<title>Node5</title>
<g id="a_Node000005"><a xlink:href="classTechnicianRepository.html#abf3ba8f356e622790a4445b34046ac02" target="_top" xlink:title="Retrieves all technicians in the repository.">
<polygon fill="white" stroke="#666666" points="452,-115.5 332,-115.5 332,-85.5 452,-85.5 452,-115.5"/>
<text text-anchor="start" x="340" y="-103.5" font-family="Helvetica,sans-Serif" font-size="10.00">TechnicianRepository</text>
<text text-anchor="middle" x="392" y="-92.5" font-family="Helvetica,sans-Serif" font-size="10.00">::get_all</text>
</a>
</g>
</g>
<!-- Node3&#45;&gt;Node5 -->
<g id="edge4_Node000003_Node000005" class="edge">
<title>Node3&#45;&gt;Node5</title>
<g id="a_edge4_Node000003_Node000005"><a xlink:title=" ">
<path fill="none" stroke="#63b8ff" d="M292.16,-108.29C301.88,-107.52 311.91,-106.73 321.68,-105.96"/>
<polygon fill="#63b8ff" stroke="#63b8ff" points="322.06,-109.44 331.76,-105.17 321.51,-102.46 322.06,-109.44"/>
</a>
</g>
</g>
<!-- Node6 -->
<g id="Node000006" class="node">
<title>Node6</title>
<g id="a_Node000006"><a xlink:href="classTechnicianRepository.html#a7195867c4915f8aa3ff92b28615b1248" target="_top" xlink:title="Returns the singleton instance of the repository.">
<polygon fill="white" stroke="#666666" points="452,-67.5 332,-67.5 332,-37.5 452,-37.5 452,-67.5"/>
<text text-anchor="start" x="340" y="-55.5" font-family="Helvetica,sans-Serif" font-size="10.00">TechnicianRepository</text>
<text text-anchor="middle" x="392" y="-44.5" font-family="Helvetica,sans-Serif" font-size="10.00">::instance</text>
</a>
</g>
</g>
<!-- Node3&#45;&gt;Node6 -->
<g id="edge6_Node000003_Node000006" class="edge">
<title>Node3&#45;&gt;Node6</title>
<g id="a_edge6_Node000003_Node000006"><a xlink:title=" ">
<path fill="none" stroke="#63b8ff" d="M267.57,-98.45C275.67,-95.5 284.11,-92.41 292,-89.5 308.11,-83.56 325.67,-77.02 341.47,-71.11"/>
<polygon fill="#63b8ff" stroke="#63b8ff" points="342.91,-74.31 351.05,-67.52 340.46,-67.75 342.91,-74.31"/>
</a>
</g>
</g>
<!-- Node7 -->
<g id="Node000007" class="node">
<title>Node7</title>
<g id="a_Node000007"><a xlink:href="ExpertiseField_8h.html#a56a9a6b462a1d330a25154be696d66d5" target="_top" xlink:title="Converts an ExpertiseField enum value to a human&#45;readable string.">
<polygon fill="white" stroke="#666666" points="421.5,-19 362.5,-19 362.5,0 421.5,0 421.5,-19"/>
<text text-anchor="middle" x="392" y="-7" font-family="Helvetica,sans-Serif" font-size="10.00">to_string</text>
</a>
</g>
</g>
<!-- Node3&#45;&gt;Node7 -->
<g id="edge7_Node000003_Node000007" class="edge">
<title>Node3&#45;&gt;Node7</title>
<g id="a_edge7_Node000003_Node000007"><a xlink:title=" ">
<path fill="none" stroke="#63b8ff" d="M278.33,-98.44C283.22,-95.89 287.87,-92.93 292,-89.5 316.21,-69.38 303.23,-47.93 328,-28.5 335.12,-22.92 343.86,-18.97 352.54,-16.18"/>
<polygon fill="#63b8ff" stroke="#63b8ff" points="353.53,-19.54 362.23,-13.5 351.66,-12.79 353.53,-19.54"/>
</a>
</g>
</g>
</g>
</svg>
