<?xml version="1.0" encoding="UTF-8" standalone="no"?>
<!DOCTYPE svg PUBLIC "-//W3C//DTD SVG 1.1//EN"
 "http://www.w3.org/Graphics/SVG/1.1/DTD/svg11.dtd">
<!-- Generated by graphviz version 2.43.0 (0)
 -->
<!-- Title: InterventionEditPanel::save_button Pages: 1 -->
<svg width="528pt" height="64pt"
 viewBox="0.00 0.00 528.00 64.00" xmlns="http://www.w3.org/2000/svg" xmlns:xlink="http://www.w3.org/1999/xlink">
<g id="graph0" class="graph" transform="scale(1 1) rotate(0) translate(4 60)">
<title>InterventionEditPanel::save_button</title>
<!-- Node1 -->
<g id="Node000001" class="node">
<title>Node1</title>
<g id="a_Node000001"><a xlink:title="Provides access to the Save button.">
<polygon fill="#999999" stroke="#666666" points="520,-42.5 399,-42.5 399,-12.5 520,-12.5 520,-42.5"/>
<text text-anchor="start" x="407" y="-30.5" font-family="Helvetica,sans-Serif" font-size="10.00">InterventionEditPanel</text>
<text text-anchor="middle" x="459.5" y="-19.5" font-family="Helvetica,sans-Serif" font-size="10.00">::save_button</text>
</a>
</g>
</g>
<!-- Node2 -->
<g id="Node000002" class="node">
<title>Node2</title>
<g id="a_Node000002"><a xlink:href="classInterventionPage.html#a548ea550131dc31088b667d4d08b8f6e" target="_top" xlink:title="Updates UI visibility and behavior based on the user&#39;s role.">
<polygon fill="white" stroke="#666666" points="363,-42.5 224,-42.5 224,-12.5 363,-12.5 363,-42.5"/>
<text text-anchor="start" x="232" y="-30.5" font-family="Helvetica,sans-Serif" font-size="10.00">InterventionPage::update</text>
<text text-anchor="middle" x="293.5" y="-19.5" font-family="Helvetica,sans-Serif" font-size="10.00">_ui_for_current_role</text>
</a>
</g>
</g>
<!-- Node1&#45;&gt;Node2 -->
<g id="edge1_Node000001_Node000002" class="edge">
<title>Node1&#45;&gt;Node2</title>
<g id="a_edge1_Node000001_Node000002"><a xlink:title=" ">
<path fill="none" stroke="#63b8ff" d="M388.6,-27.5C380.13,-27.5 371.48,-27.5 363.03,-27.5"/>
<polygon fill="#63b8ff" stroke="#63b8ff" points="388.83,-31 398.83,-27.5 388.83,-24 388.83,-31"/>
</a>
</g>
</g>
<!-- Node3 -->
<g id="Node000003" class="node">
<title>Node3</title>
<g id="a_Node000003"><a xlink:href="classInterventionPage.html#a1abb99ba568e63ec484d032e15498872" target="_top" xlink:title="Constructs the InterventionPage widget.">
<polygon fill="white" stroke="#666666" points="188,-56 0,-56 0,-37 188,-37 188,-56"/>
<text text-anchor="middle" x="94" y="-44" font-family="Helvetica,sans-Serif" font-size="10.00">InterventionPage::InterventionPage</text>
</a>
</g>
</g>
<!-- Node2&#45;&gt;Node3 -->
<g id="edge2_Node000002_Node000003" class="edge">
<title>Node2&#45;&gt;Node3</title>
<g id="a_edge2_Node000002_Node000003"><a xlink:title=" ">
<path fill="none" stroke="#63b8ff" d="M213.79,-35.07C205.35,-35.88 196.7,-36.72 188.1,-37.54"/>
<polygon fill="#63b8ff" stroke="#63b8ff" points="214.36,-38.53 223.98,-34.09 213.69,-31.57 214.36,-38.53"/>
</a>
</g>
</g>
<!-- Node4 -->
<g id="Node000004" class="node">
<title>Node4</title>
<g id="a_Node000004"><a xlink:href="classInterventionPage.html#af37ffe015d96bb0d4f9966d020708fb0" target="_top" xlink:title="Handles the show event to trigger UI updates when the widget is shown.">
<polygon fill="white" stroke="#666666" points="173,-19 15,-19 15,0 173,0 173,-19"/>
<text text-anchor="middle" x="94" y="-7" font-family="Helvetica,sans-Serif" font-size="10.00">InterventionPage::showEvent</text>
</a>
</g>
</g>
<!-- Node2&#45;&gt;Node4 -->
<g id="edge3_Node000002_Node000004" class="edge">
<title>Node2&#45;&gt;Node4</title>
<g id="a_edge3_Node000002_Node000004"><a xlink:title=" ">
<path fill="none" stroke="#63b8ff" d="M213.86,-20.33C200.48,-19.11 186.59,-17.85 173.22,-16.63"/>
<polygon fill="#63b8ff" stroke="#63b8ff" points="213.7,-23.83 223.98,-21.25 214.34,-16.86 213.7,-23.83"/>
</a>
</g>
</g>
</g>
</svg>
