<?xml version="1.0" encoding="UTF-8" standalone="no"?>
<!DOCTYPE svg PUBLIC "-//W3C//DTD SVG 1.1//EN"
 "http://www.w3.org/Graphics/SVG/1.1/DTD/svg11.dtd">
<!-- Generated by graphviz version 2.43.0 (0)
 -->
<!-- Title: CreateInterventionDialog::clear_fields Pages: 1 -->
<svg width="597pt" height="86pt"
 viewBox="0.00 0.00 597.00 86.00" xmlns="http://www.w3.org/2000/svg" xmlns:xlink="http://www.w3.org/1999/xlink">
<g id="graph0" class="graph" transform="scale(1 1) rotate(0) translate(4 82)">
<title>CreateInterventionDialog::clear_fields</title>
<!-- Node1 -->
<g id="Node000001" class="node">
<title>Node1</title>
<g id="a_Node000001"><a xlink:title="Clears all input fields in the form.">
<polygon fill="#999999" stroke="#666666" points="140,-54 0,-54 0,-24 140,-24 140,-54"/>
<text text-anchor="start" x="8" y="-42" font-family="Helvetica,sans-Serif" font-size="10.00">CreateInterventionDialog</text>
<text text-anchor="middle" x="70" y="-31" font-family="Helvetica,sans-Serif" font-size="10.00">::clear_fields</text>
</a>
</g>
</g>
<!-- Node2 -->
<g id="Node000002" class="node">
<title>Node2</title>
<g id="a_Node000002"><a xlink:href="classTechListController.html#a4a07a8d1f3948b7f326d8c0e0bc9ab06" target="_top" xlink:title="Updates the technician list based on current combo box selections.">
<polygon fill="white" stroke="#666666" points="293,-54 176,-54 176,-24 293,-24 293,-54"/>
<text text-anchor="start" x="184" y="-42" font-family="Helvetica,sans-Serif" font-size="10.00">TechListController</text>
<text text-anchor="middle" x="234.5" y="-31" font-family="Helvetica,sans-Serif" font-size="10.00">::update_technicians</text>
</a>
</g>
</g>
<!-- Node1&#45;&gt;Node2 -->
<g id="edge1_Node000001_Node000002" class="edge">
<title>Node1&#45;&gt;Node2</title>
<g id="a_edge1_Node000001_Node000002"><a xlink:title=" ">
<path fill="none" stroke="#63b8ff" d="M140.39,-39C148.79,-39 157.36,-39 165.74,-39"/>
<polygon fill="#63b8ff" stroke="#63b8ff" points="165.84,-42.5 175.84,-39 165.84,-35.5 165.84,-42.5"/>
</a>
</g>
</g>
<!-- Node3 -->
<g id="Node000003" class="node">
<title>Node3</title>
<g id="a_Node000003"><a xlink:href="classTechListController.html#a63c60cd01624769a28bcf64986688b70" target="_top" xlink:title="Rebuilds the technician list in the UI.">
<polygon fill="white" stroke="#666666" points="433,-54 329,-54 329,-24 433,-24 433,-54"/>
<text text-anchor="start" x="337" y="-42" font-family="Helvetica,sans-Serif" font-size="10.00">TechListController</text>
<text text-anchor="middle" x="381" y="-31" font-family="Helvetica,sans-Serif" font-size="10.00">::rebuild_list</text>
</a>
</g>
</g>
<!-- Node2&#45;&gt;Node3 -->
<g id="edge2_Node000002_Node000003" class="edge">
<title>Node2&#45;&gt;Node3</title>
<g id="a_edge2_Node000002_Node000003"><a xlink:title=" ">
<path fill="none" stroke="#63b8ff" d="M293.03,-39C301.42,-39 310.09,-39 318.56,-39"/>
<polygon fill="#63b8ff" stroke="#63b8ff" points="318.75,-42.5 328.75,-39 318.75,-35.5 318.75,-42.5"/>
</a>
</g>
</g>
<!-- Node4 -->
<g id="Node000004" class="node">
<title>Node4</title>
<g id="a_Node000004"><a xlink:href="classTechnicianRepository.html#abf3ba8f356e622790a4445b34046ac02" target="_top" xlink:title="Retrieves all technicians in the repository.">
<polygon fill="white" stroke="#666666" points="589,-78 469,-78 469,-48 589,-48 589,-78"/>
<text text-anchor="start" x="477" y="-66" font-family="Helvetica,sans-Serif" font-size="10.00">TechnicianRepository</text>
<text text-anchor="middle" x="529" y="-55" font-family="Helvetica,sans-Serif" font-size="10.00">::get_all</text>
</a>
</g>
</g>
<!-- Node3&#45;&gt;Node4 -->
<g id="edge3_Node000003_Node000004" class="edge">
<title>Node3&#45;&gt;Node4</title>
<g id="a_edge3_Node000003_Node000004"><a xlink:title=" ">
<path fill="none" stroke="#63b8ff" d="M433.06,-47.39C441.4,-48.76 450.15,-50.2 458.83,-51.63"/>
<polygon fill="#63b8ff" stroke="#63b8ff" points="458.53,-55.13 468.96,-53.3 459.66,-48.22 458.53,-55.13"/>
</a>
</g>
</g>
<!-- Node5 -->
<g id="Node000005" class="node">
<title>Node5</title>
<g id="a_Node000005"><a xlink:href="classTechnicianRepository.html#a7195867c4915f8aa3ff92b28615b1248" target="_top" xlink:title="Returns the singleton instance of the repository.">
<polygon fill="white" stroke="#666666" points="589,-30 469,-30 469,0 589,0 589,-30"/>
<text text-anchor="start" x="477" y="-18" font-family="Helvetica,sans-Serif" font-size="10.00">TechnicianRepository</text>
<text text-anchor="middle" x="529" y="-7" font-family="Helvetica,sans-Serif" font-size="10.00">::instance</text>
</a>
</g>
</g>
<!-- Node3&#45;&gt;Node5 -->
<g id="edge4_Node000003_Node000005" class="edge">
<title>Node3&#45;&gt;Node5</title>
<g id="a_edge4_Node000003_Node000005"><a xlink:title=" ">
<path fill="none" stroke="#63b8ff" d="M433.06,-30.61C441.4,-29.24 450.15,-27.8 458.83,-26.37"/>
<polygon fill="#63b8ff" stroke="#63b8ff" points="459.66,-29.78 468.96,-24.7 458.53,-22.87 459.66,-29.78"/>
</a>
</g>
</g>
</g>
</svg>
