<?xml version="1.0" encoding="UTF-8" standalone="no"?>
<!DOCTYPE svg PUBLIC "-//W3C//DTD SVG 1.1//EN"
 "http://www.w3.org/Graphics/SVG/1.1/DTD/svg11.dtd">
<!-- Generated by graphviz version 2.43.0 (0)
 -->
<!-- Title: AuthenticationService::instance Pages: 1 -->
<svg width="887pt" height="594pt"
 viewBox="0.00 0.00 887.00 594.19" xmlns="http://www.w3.org/2000/svg" xmlns:xlink="http://www.w3.org/1999/xlink">
<g id="graph0" class="graph" transform="scale(1 1) rotate(0) translate(4 590.19)">
<title>AuthenticationService::instance</title>
<!-- Node1 -->
<g id="Node000001" class="node">
<title>Node1</title>
<g id="a_Node000001"><a xlink:title=" ">
<polygon fill="#999999" stroke="#666666" points="879,-356.19 755,-356.19 755,-326.19 879,-326.19 879,-356.19"/>
<text text-anchor="start" x="763" y="-344.19" font-family="Helvetica,sans-Serif" font-size="10.00">AuthenticationService</text>
<text text-anchor="middle" x="817" y="-333.19" font-family="Helvetica,sans-Serif" font-size="10.00">::instance</text>
</a>
</g>
</g>
<!-- Node2 -->
<g id="Node000002" class="node">
<title>Node2</title>
<g id="a_Node000002"><a xlink:href="classLoginPage.html#ac14065c6e2529048d568cddef19f3028" target="_top" xlink:title="Attempts to log in with the provided username and password.">
<polygon fill="white" stroke="#666666" points="696.5,-586.19 585.5,-586.19 585.5,-556.19 696.5,-556.19 696.5,-586.19"/>
<text text-anchor="start" x="593.5" y="-574.19" font-family="Helvetica,sans-Serif" font-size="10.00">LoginPage::attempt</text>
<text text-anchor="middle" x="641" y="-563.19" font-family="Helvetica,sans-Serif" font-size="10.00">_login</text>
</a>
</g>
</g>
<!-- Node1&#45;&gt;Node2 -->
<g id="edge1_Node000001_Node000002" class="edge">
<title>Node1&#45;&gt;Node2</title>
<g id="a_edge1_Node000001_Node000002"><a xlink:title=" ">
<path fill="none" stroke="#63b8ff" d="M811.05,-366.38C801.23,-409.68 775.2,-498.25 719,-547.19 712.56,-552.8 704.81,-557.1 696.76,-560.39"/>
<polygon fill="#63b8ff" stroke="#63b8ff" points="814.51,-366.92 813.2,-356.4 807.67,-365.44 814.51,-366.92"/>
</a>
</g>
</g>
<!-- Node5 -->
<g id="Node000005" class="node">
<title>Node5</title>
<g id="a_Node000005"><a xlink:href="classInterventionRepositoryProxy.html#aaf94c1abb4a931bfe9996f7c17bfe40e" target="_top" xlink:title="Clears all interventions from the repository.">
<polygon fill="white" stroke="#666666" points="719,-538.19 563,-538.19 563,-508.19 719,-508.19 719,-538.19"/>
<text text-anchor="start" x="571" y="-526.19" font-family="Helvetica,sans-Serif" font-size="10.00">InterventionRepositoryProxy</text>
<text text-anchor="middle" x="641" y="-515.19" font-family="Helvetica,sans-Serif" font-size="10.00">::clear</text>
</a>
</g>
</g>
<!-- Node1&#45;&gt;Node5 -->
<g id="edge4_Node000001_Node000005" class="edge">
<title>Node1&#45;&gt;Node5</title>
<g id="a_edge4_Node000001_Node000005"><a xlink:title=" ">
<path fill="none" stroke="#63b8ff" d="M807.36,-365.7C793.88,-400.45 764.55,-463.75 719,-499.19 714.58,-502.63 709.66,-505.58 704.51,-508.11"/>
<polygon fill="#63b8ff" stroke="#63b8ff" points="810.65,-366.89 810.89,-356.3 804.1,-364.43 810.65,-366.89"/>
</a>
</g>
</g>
<!-- Node6 -->
<g id="Node000006" class="node">
<title>Node6</title>
<g id="a_Node000006"><a xlink:href="classLoginPage.html#ad592b0f8f5de3de894e0b2cdbcc982f3" target="_top" xlink:title="Logs in as a guest (no credentials required).">
<polygon fill="white" stroke="#666666" points="697.5,-490.19 584.5,-490.19 584.5,-460.19 697.5,-460.19 697.5,-490.19"/>
<text text-anchor="start" x="592.5" y="-478.19" font-family="Helvetica,sans-Serif" font-size="10.00">LoginPage::login_as</text>
<text text-anchor="middle" x="641" y="-467.19" font-family="Helvetica,sans-Serif" font-size="10.00">_guest</text>
</a>
</g>
</g>
<!-- Node1&#45;&gt;Node6 -->
<g id="edge5_Node000001_Node000006" class="edge">
<title>Node1&#45;&gt;Node6</title>
<g id="a_edge5_Node000001_Node000006"><a xlink:title=" ">
<path fill="none" stroke="#63b8ff" d="M800.96,-364.86C783.95,-389.78 754.01,-428.5 719,-451.19 712.42,-455.46 705.03,-459 697.51,-461.94"/>
<polygon fill="#63b8ff" stroke="#63b8ff" points="803.99,-366.62 806.63,-356.35 798.17,-362.73 803.99,-366.62"/>
</a>
</g>
</g>
<!-- Node7 -->
<g id="Node000007" class="node">
<title>Node7</title>
<g id="a_Node000007"><a xlink:href="classLoginPage.html#ae8fe253b5cce2c0285f66e29346c407b" target="_top" xlink:title="Logs out the current user.">
<polygon fill="white" stroke="#666666" points="692.5,-441.69 589.5,-441.69 589.5,-422.69 692.5,-422.69 692.5,-441.69"/>
<text text-anchor="middle" x="641" y="-429.69" font-family="Helvetica,sans-Serif" font-size="10.00">LoginPage::logout</text>
</a>
</g>
</g>
<!-- Node1&#45;&gt;Node7 -->
<g id="edge7_Node000001_Node000007" class="edge">
<title>Node1&#45;&gt;Node7</title>
<g id="a_edge7_Node000001_Node000007"><a xlink:title=" ">
<path fill="none" stroke="#63b8ff" d="M792.13,-363.18C773.5,-379.23 746.27,-400.35 719,-413.19 710.78,-417.06 701.68,-420.2 692.7,-422.73"/>
<polygon fill="#63b8ff" stroke="#63b8ff" points="794.61,-365.66 799.81,-356.43 789.99,-360.4 794.61,-365.66"/>
</a>
</g>
</g>
<!-- Node8 -->
<g id="Node000008" class="node">
<title>Node8</title>
<g id="a_Node000008"><a xlink:href="classTechnicianRepositoryProxy.html#a7e8e6b2eaebb5c76f58fd716d50f19bf" target="_top" xlink:title="Removes a technician by ID.">
<polygon fill="white" stroke="#666666" points="715,-404.19 567,-404.19 567,-374.19 715,-374.19 715,-404.19"/>
<text text-anchor="start" x="575" y="-392.19" font-family="Helvetica,sans-Serif" font-size="10.00">TechnicianRepositoryProxy</text>
<text text-anchor="middle" x="641" y="-381.19" font-family="Helvetica,sans-Serif" font-size="10.00">::remove_by_id</text>
</a>
</g>
</g>
<!-- Node1&#45;&gt;Node8 -->
<g id="edge9_Node000001_Node000008" class="edge">
<title>Node1&#45;&gt;Node8</title>
<g id="a_edge9_Node000001_Node000008"><a xlink:title=" ">
<path fill="none" stroke="#63b8ff" d="M751.77,-358.91C733.57,-363.93 713.94,-369.35 696.38,-374.19"/>
<polygon fill="#63b8ff" stroke="#63b8ff" points="752.71,-362.28 761.42,-356.25 750.85,-355.53 752.71,-362.28"/>
</a>
</g>
</g>
<!-- Node9 -->
<g id="Node000009" class="node">
<title>Node9</title>
<g id="a_Node000009"><a xlink:href="classInterventionRepositoryProxy.html#a67c7a6bccdeb7138f6891682f1d62bfc" target="_top" xlink:title="Saves an intervention to the repository.">
<polygon fill="white" stroke="#666666" points="719,-356.19 563,-356.19 563,-326.19 719,-326.19 719,-356.19"/>
<text text-anchor="start" x="571" y="-344.19" font-family="Helvetica,sans-Serif" font-size="10.00">InterventionRepositoryProxy</text>
<text text-anchor="middle" x="641" y="-333.19" font-family="Helvetica,sans-Serif" font-size="10.00">::save</text>
</a>
</g>
</g>
<!-- Node1&#45;&gt;Node9 -->
<g id="edge10_Node000001_Node000009" class="edge">
<title>Node1&#45;&gt;Node9</title>
<g id="a_edge10_Node000001_Node000009"><a xlink:title=" ">
<path fill="none" stroke="#63b8ff" d="M744.59,-341.19C736.23,-341.19 727.68,-341.19 719.25,-341.19"/>
<polygon fill="#63b8ff" stroke="#63b8ff" points="744.65,-344.69 754.65,-341.19 744.65,-337.69 744.65,-344.69"/>
</a>
</g>
</g>
<!-- Node10 -->
<g id="Node000010" class="node">
<title>Node10</title>
<g id="a_Node000010"><a xlink:href="classTechnicianRepositoryProxy.html#a2ea13b9f121a251349b94d12752c67cf" target="_top" xlink:title="Saves a technician in the repository.">
<polygon fill="white" stroke="#666666" points="715,-308.19 567,-308.19 567,-278.19 715,-278.19 715,-308.19"/>
<text text-anchor="start" x="575" y="-296.19" font-family="Helvetica,sans-Serif" font-size="10.00">TechnicianRepositoryProxy</text>
<text text-anchor="middle" x="641" y="-285.19" font-family="Helvetica,sans-Serif" font-size="10.00">::save</text>
</a>
</g>
</g>
<!-- Node1&#45;&gt;Node10 -->
<g id="edge11_Node000001_Node000010" class="edge">
<title>Node1&#45;&gt;Node10</title>
<g id="a_edge11_Node000001_Node000010"><a xlink:title=" ">
<path fill="none" stroke="#63b8ff" d="M751.77,-323.47C733.57,-318.45 713.94,-313.04 696.38,-308.19"/>
<polygon fill="#63b8ff" stroke="#63b8ff" points="750.85,-326.85 761.42,-326.14 752.71,-320.1 750.85,-326.85"/>
</a>
</g>
</g>
<!-- Node11 -->
<g id="Node000011" class="node">
<title>Node11</title>
<g id="a_Node000011"><a xlink:href="classLoginPage.html#ac103700888386d9b991f51467afc058c" target="_top" xlink:title="Called when the widget is shown, used to reset or update UI state.">
<polygon fill="white" stroke="#666666" points="703.5,-259.69 578.5,-259.69 578.5,-240.69 703.5,-240.69 703.5,-259.69"/>
<text text-anchor="middle" x="641" y="-247.69" font-family="Helvetica,sans-Serif" font-size="10.00">LoginPage::showEvent</text>
</a>
</g>
</g>
<!-- Node1&#45;&gt;Node11 -->
<g id="edge12_Node000001_Node000011" class="edge">
<title>Node1&#45;&gt;Node11</title>
<g id="a_edge12_Node000001_Node000011"><a xlink:title=" ">
<path fill="none" stroke="#63b8ff" d="M792.13,-319.21C773.5,-303.16 746.27,-282.04 719,-269.19 710.9,-265.38 701.95,-262.28 693.11,-259.77"/>
<polygon fill="#63b8ff" stroke="#63b8ff" points="789.99,-321.98 799.81,-325.96 794.61,-316.73 789.99,-321.98"/>
</a>
</g>
</g>
<!-- Node12 -->
<g id="Node000012" class="node">
<title>Node12</title>
<g id="a_Node000012"><a xlink:href="classInterventionPage.html#a548ea550131dc31088b667d4d08b8f6e" target="_top" xlink:title="Updates UI visibility and behavior based on the user&#39;s role.">
<polygon fill="white" stroke="#666666" points="710.5,-222.19 571.5,-222.19 571.5,-192.19 710.5,-192.19 710.5,-222.19"/>
<text text-anchor="start" x="579.5" y="-210.19" font-family="Helvetica,sans-Serif" font-size="10.00">InterventionPage::update</text>
<text text-anchor="middle" x="641" y="-199.19" font-family="Helvetica,sans-Serif" font-size="10.00">_ui_for_current_role</text>
</a>
</g>
</g>
<!-- Node1&#45;&gt;Node12 -->
<g id="edge13_Node000001_Node000012" class="edge">
<title>Node1&#45;&gt;Node12</title>
<g id="a_edge13_Node000001_Node000012"><a xlink:title=" ">
<path fill="none" stroke="#63b8ff" d="M800.58,-317.42C783.43,-292.78 753.56,-254.78 719,-232.19 713.12,-228.35 706.59,-225.05 699.91,-222.24"/>
<polygon fill="#63b8ff" stroke="#63b8ff" points="797.79,-319.54 806.3,-325.84 803.57,-315.61 797.79,-319.54"/>
</a>
</g>
</g>
<!-- Node15 -->
<g id="Node000015" class="node">
<title>Node15</title>
<g id="a_Node000015"><a xlink:href="classTechniciansPage.html#a4fd8ac138a0cd95efb21ddd049703220" target="_top" xlink:title="Updates the UI elements based on the currently logged&#45;in user&#39;s role.">
<polygon fill="white" stroke="#666666" points="709,-174.19 573,-174.19 573,-144.19 709,-144.19 709,-174.19"/>
<text text-anchor="start" x="581" y="-162.19" font-family="Helvetica,sans-Serif" font-size="10.00">TechniciansPage::update</text>
<text text-anchor="middle" x="641" y="-151.19" font-family="Helvetica,sans-Serif" font-size="10.00">_ui_for_current_role</text>
</a>
</g>
</g>
<!-- Node1&#45;&gt;Node15 -->
<g id="edge16_Node000001_Node000015" class="edge">
<title>Node1&#45;&gt;Node15</title>
<g id="a_edge16_Node000001_Node000015"><a xlink:title=" ">
<path fill="none" stroke="#63b8ff" d="M807.36,-316.69C793.88,-281.93 764.55,-218.63 719,-183.19 714.58,-179.75 709.66,-176.8 704.51,-174.27"/>
<polygon fill="#63b8ff" stroke="#63b8ff" points="804.1,-317.96 810.89,-326.09 810.65,-315.5 804.1,-317.96"/>
</a>
</g>
</g>
<!-- Node18 -->
<g id="Node000018" class="node">
<title>Node18</title>
<g id="a_Node000018"><a xlink:href="classTechMapp.html#ada82d1ac29bbec7da9675ae29b7b23f0" target="_top" xlink:title="Updates the UI components based on the user&#39;s role.">
<polygon fill="white" stroke="#666666" points="700.5,-81.19 581.5,-81.19 581.5,-51.19 700.5,-51.19 700.5,-81.19"/>
<text text-anchor="start" x="589.5" y="-69.19" font-family="Helvetica,sans-Serif" font-size="10.00">TechMapp::update_ui</text>
<text text-anchor="middle" x="641" y="-58.19" font-family="Helvetica,sans-Serif" font-size="10.00">_for_role</text>
</a>
</g>
</g>
<!-- Node1&#45;&gt;Node18 -->
<g id="edge19_Node000001_Node000018" class="edge">
<title>Node1&#45;&gt;Node18</title>
<g id="a_edge19_Node000001_Node000018"><a xlink:title=" ">
<path fill="none" stroke="#63b8ff" d="M808.02,-316.52C794.16,-276.03 762.87,-194.11 719,-135.19 703.13,-113.89 679.88,-94.15 663.08,-81.3"/>
<polygon fill="#63b8ff" stroke="#63b8ff" points="804.74,-317.74 811.24,-326.11 811.37,-315.52 804.74,-317.74"/>
</a>
</g>
</g>
<!-- Node3 -->
<g id="Node000003" class="node">
<title>Node3</title>
<g id="a_Node000003"><a xlink:href="classLoginPage.html#a7cd454f7668442d809030c3e5e6a66ea" target="_top" xlink:title="Connects UI elements to their respective slots.">
<polygon fill="white" stroke="#666666" points="507,-484.69 359,-484.69 359,-465.69 507,-465.69 507,-484.69"/>
<text text-anchor="middle" x="433" y="-472.69" font-family="Helvetica,sans-Serif" font-size="10.00">LoginPage::setup_connects</text>
</a>
</g>
</g>
<!-- Node2&#45;&gt;Node3 -->
<g id="edge2_Node000002_Node000003" class="edge">
<title>Node2&#45;&gt;Node3</title>
<g id="a_edge2_Node000002_Node000003"><a xlink:title=" ">
<path fill="none" stroke="#63b8ff" d="M576.76,-552.65C572.06,-550.92 567.43,-549.09 563,-547.19 519.87,-528.67 472.48,-499.84 448.97,-484.9"/>
<polygon fill="#63b8ff" stroke="#63b8ff" points="575.86,-556.05 586.46,-556.08 578.2,-549.45 575.86,-556.05"/>
</a>
</g>
</g>
<!-- Node4 -->
<g id="Node000004" class="node">
<title>Node4</title>
<g id="a_Node000004"><a xlink:href="classLoginPage.html#ac80d4431cd7779e6ae5f8c3b17fe6c3f" target="_top" xlink:title="Constructs the login page UI.">
<polygon fill="white" stroke="#666666" points="290.5,-484.69 168.5,-484.69 168.5,-465.69 290.5,-465.69 290.5,-484.69"/>
<text text-anchor="middle" x="229.5" y="-472.69" font-family="Helvetica,sans-Serif" font-size="10.00">LoginPage::LoginPage</text>
</a>
</g>
</g>
<!-- Node3&#45;&gt;Node4 -->
<g id="edge3_Node000003_Node000004" class="edge">
<title>Node3&#45;&gt;Node4</title>
<g id="a_edge3_Node000003_Node000004"><a xlink:title=" ">
<path fill="none" stroke="#63b8ff" d="M348.87,-475.19C329.38,-475.19 308.97,-475.19 290.7,-475.19"/>
<polygon fill="#63b8ff" stroke="#63b8ff" points="348.97,-478.69 358.97,-475.19 348.97,-471.69 348.97,-478.69"/>
</a>
</g>
</g>
<!-- Node6&#45;&gt;Node3 -->
<g id="edge6_Node000006_Node000003" class="edge">
<title>Node6&#45;&gt;Node3</title>
<g id="a_edge6_Node000006_Node000003"><a xlink:title=" ">
<path fill="none" stroke="#63b8ff" d="M574.02,-475.19C552.72,-475.19 529,-475.19 507.22,-475.19"/>
<polygon fill="#63b8ff" stroke="#63b8ff" points="574.25,-478.69 584.25,-475.19 574.25,-471.69 574.25,-478.69"/>
</a>
</g>
</g>
<!-- Node7&#45;&gt;Node3 -->
<g id="edge8_Node000007_Node000003" class="edge">
<title>Node7&#45;&gt;Node3</title>
<g id="a_edge8_Node000007_Node000003"><a xlink:title=" ">
<path fill="none" stroke="#63b8ff" d="M584.38,-443.8C551.54,-450.66 510.5,-459.22 479.59,-465.68"/>
<polygon fill="#63b8ff" stroke="#63b8ff" points="585.21,-447.2 594.28,-441.74 583.78,-440.35 585.21,-447.2"/>
</a>
</g>
</g>
<!-- Node13 -->
<g id="Node000013" class="node">
<title>Node13</title>
<g id="a_Node000013"><a xlink:href="classInterventionPage.html#a1abb99ba568e63ec484d032e15498872" target="_top" xlink:title="Constructs the InterventionPage widget.">
<polygon fill="white" stroke="#666666" points="527,-253.69 339,-253.69 339,-234.69 527,-234.69 527,-253.69"/>
<text text-anchor="middle" x="433" y="-241.69" font-family="Helvetica,sans-Serif" font-size="10.00">InterventionPage::InterventionPage</text>
</a>
</g>
</g>
<!-- Node12&#45;&gt;Node13 -->
<g id="edge14_Node000012_Node000013" class="edge">
<title>Node12&#45;&gt;Node13</title>
<g id="a_edge14_Node000012_Node000013"><a xlink:title=" ">
<path fill="none" stroke="#63b8ff" d="M561.27,-221.33C536.42,-225.8 509.58,-230.62 486.99,-234.68"/>
<polygon fill="#63b8ff" stroke="#63b8ff" points="562.18,-224.73 571.4,-219.51 560.94,-217.84 562.18,-224.73"/>
</a>
</g>
</g>
<!-- Node14 -->
<g id="Node000014" class="node">
<title>Node14</title>
<g id="a_Node000014"><a xlink:href="classInterventionPage.html#af37ffe015d96bb0d4f9966d020708fb0" target="_top" xlink:title="Handles the show event to trigger UI updates when the widget is shown.">
<polygon fill="white" stroke="#666666" points="512,-216.69 354,-216.69 354,-197.69 512,-197.69 512,-216.69"/>
<text text-anchor="middle" x="433" y="-204.69" font-family="Helvetica,sans-Serif" font-size="10.00">InterventionPage::showEvent</text>
</a>
</g>
</g>
<!-- Node12&#45;&gt;Node14 -->
<g id="edge15_Node000012_Node000014" class="edge">
<title>Node12&#45;&gt;Node14</title>
<g id="a_edge15_Node000012_Node000014"><a xlink:title=" ">
<path fill="none" stroke="#63b8ff" d="M561.03,-207.19C545.04,-207.19 528.23,-207.19 512.26,-207.19"/>
<polygon fill="#63b8ff" stroke="#63b8ff" points="561.41,-210.69 571.4,-207.19 561.4,-203.69 561.41,-210.69"/>
</a>
</g>
</g>
<!-- Node16 -->
<g id="Node000016" class="node">
<title>Node16</title>
<g id="a_Node000016"><a xlink:href="classTechniciansPage.html#a75dff4f5c55ce446ca15957fda6a1f1e" target="_top" xlink:title="Overridden show event to update UI state when the widget is shown.">
<polygon fill="white" stroke="#666666" points="510.5,-179.69 355.5,-179.69 355.5,-160.69 510.5,-160.69 510.5,-179.69"/>
<text text-anchor="middle" x="433" y="-167.69" font-family="Helvetica,sans-Serif" font-size="10.00">TechniciansPage::showEvent</text>
</a>
</g>
</g>
<!-- Node15&#45;&gt;Node16 -->
<g id="edge17_Node000015_Node000016" class="edge">
<title>Node15&#45;&gt;Node16</title>
<g id="a_edge17_Node000015_Node000016"><a xlink:title=" ">
<path fill="none" stroke="#63b8ff" d="M562.44,-163.33C545.52,-164.24 527.62,-165.19 510.72,-166.1"/>
<polygon fill="#63b8ff" stroke="#63b8ff" points="563.03,-166.81 572.83,-162.78 562.66,-159.82 563.03,-166.81"/>
</a>
</g>
</g>
<!-- Node17 -->
<g id="Node000017" class="node">
<title>Node17</title>
<g id="a_Node000017"><a xlink:href="classTechniciansPage.html#a63e7ceda5d2d5ec4a8a1304bfce57a1f" target="_top" xlink:title="Constructs the TechniciansPage.">
<polygon fill="white" stroke="#666666" points="524,-142.69 342,-142.69 342,-123.69 524,-123.69 524,-142.69"/>
<text text-anchor="middle" x="433" y="-130.69" font-family="Helvetica,sans-Serif" font-size="10.00">TechniciansPage::TechniciansPage</text>
</a>
</g>
</g>
<!-- Node15&#45;&gt;Node17 -->
<g id="edge18_Node000015_Node000017" class="edge">
<title>Node15&#45;&gt;Node17</title>
<g id="a_edge18_Node000015_Node000017"><a xlink:title=" ">
<path fill="none" stroke="#63b8ff" d="M562.68,-149.43C545.2,-147.23 526.67,-144.89 509.28,-142.69"/>
<polygon fill="#63b8ff" stroke="#63b8ff" points="562.47,-152.93 572.83,-150.71 563.35,-145.99 562.47,-152.93"/>
</a>
</g>
</g>
<!-- Node19 -->
<g id="Node000019" class="node">
<title>Node19</title>
<g id="a_Node000019"><a xlink:href="classTechMapp.html#a7a7ddf55a46e58e917e7f308161a773e" target="_top" xlink:title="Called when a login is successful.">
<polygon fill="white" stroke="#666666" points="489.5,-105.19 376.5,-105.19 376.5,-75.19 489.5,-75.19 489.5,-105.19"/>
<text text-anchor="start" x="384.5" y="-93.19" font-family="Helvetica,sans-Serif" font-size="10.00">TechMapp::on_login</text>
<text text-anchor="middle" x="433" y="-82.19" font-family="Helvetica,sans-Serif" font-size="10.00">_successful</text>
</a>
</g>
</g>
<!-- Node18&#45;&gt;Node19 -->
<g id="edge20_Node000018_Node000019" class="edge">
<title>Node18&#45;&gt;Node19</title>
<g id="a_edge20_Node000018_Node000019"><a xlink:title=" ">
<path fill="none" stroke="#63b8ff" d="M571.26,-74.2C544.73,-77.29 514.78,-80.78 489.65,-83.71"/>
<polygon fill="#63b8ff" stroke="#63b8ff" points="571.72,-77.67 581.24,-73.04 570.91,-70.72 571.72,-77.67"/>
</a>
</g>
</g>
<!-- Node21 -->
<g id="Node000021" class="node">
<title>Node21</title>
<g id="a_Node000021"><a xlink:href="classTechMapp.html#ac4d485efbe0d00914dcfb9680a39ec77" target="_top" xlink:title="Constructs the main application window.">
<polygon fill="white" stroke="#666666" points="120,-29.69 0,-29.69 0,-10.69 120,-10.69 120,-29.69"/>
<text text-anchor="middle" x="60" y="-17.69" font-family="Helvetica,sans-Serif" font-size="10.00">TechMapp::TechMapp</text>
</a>
</g>
</g>
<!-- Node18&#45;&gt;Node21 -->
<g id="edge25_Node000018_Node000021" class="edge">
<title>Node18&#45;&gt;Node21</title>
<g id="a_edge25_Node000018_Node000021"><a xlink:title=" ">
<path fill="none" stroke="#63b8ff" d="M604.02,-46.5C582.39,-35.81 553.93,-23.67 527,-18.19 383.31,11.06 209.49,-2.11 120.24,-12.3"/>
<polygon fill="#63b8ff" stroke="#63b8ff" points="602.64,-49.73 613.14,-51.13 605.8,-43.49 602.64,-49.73"/>
</a>
</g>
</g>
<!-- Node22 -->
<g id="Node000022" class="node">
<title>Node22</title>
<g id="a_Node000022"><a xlink:href="classTechMapp.html#a7ff2ad6699f59bc55499b83dac1a07da" target="_top" xlink:title="Called when a logout is requested by the user.">
<polygon fill="white" stroke="#666666" points="492.5,-57.19 373.5,-57.19 373.5,-27.19 492.5,-27.19 492.5,-57.19"/>
<text text-anchor="start" x="381.5" y="-45.19" font-family="Helvetica,sans-Serif" font-size="10.00">TechMapp::on_logout</text>
<text text-anchor="middle" x="433" y="-34.19" font-family="Helvetica,sans-Serif" font-size="10.00">_requested</text>
</a>
</g>
</g>
<!-- Node18&#45;&gt;Node22 -->
<g id="edge23_Node000018_Node000022" class="edge">
<title>Node18&#45;&gt;Node22</title>
<g id="a_edge23_Node000018_Node000022"><a xlink:title=" ">
<path fill="none" stroke="#63b8ff" d="M571.3,-58.19C545.88,-55.23 517.3,-51.9 492.83,-49.05"/>
<polygon fill="#63b8ff" stroke="#63b8ff" points="570.91,-61.67 581.24,-59.35 571.72,-54.71 570.91,-61.67"/>
</a>
</g>
</g>
<!-- Node20 -->
<g id="Node000020" class="node">
<title>Node20</title>
<g id="a_Node000020"><a xlink:href="classTechMapp.html#af0e39c1d95a040c849f8f920b4ba4ffe" target="_top" xlink:title="Connects internal signals and slots for UI and authentication handling.">
<polygon fill="white" stroke="#666666" points="303,-51.69 156,-51.69 156,-32.69 303,-32.69 303,-51.69"/>
<text text-anchor="middle" x="229.5" y="-39.69" font-family="Helvetica,sans-Serif" font-size="10.00">TechMapp::setup_connects</text>
</a>
</g>
</g>
<!-- Node19&#45;&gt;Node20 -->
<g id="edge21_Node000019_Node000020" class="edge">
<title>Node19&#45;&gt;Node20</title>
<g id="a_edge21_Node000019_Node000020"><a xlink:title=" ">
<path fill="none" stroke="#63b8ff" d="M366.35,-74.55C334.77,-67.03 297.93,-58.25 270.58,-51.74"/>
<polygon fill="#63b8ff" stroke="#63b8ff" points="365.87,-78.04 376.41,-76.95 367.49,-71.23 365.87,-78.04"/>
</a>
</g>
</g>
<!-- Node20&#45;&gt;Node21 -->
<g id="edge22_Node000020_Node000021" class="edge">
<title>Node20&#45;&gt;Node21</title>
<g id="a_edge22_Node000020_Node000021"><a xlink:title=" ">
<path fill="none" stroke="#63b8ff" d="M145.81,-31.33C137.1,-30.19 128.37,-29.04 120,-27.94"/>
<polygon fill="#63b8ff" stroke="#63b8ff" points="145.64,-34.84 156.01,-32.67 146.55,-27.9 145.64,-34.84"/>
</a>
</g>
</g>
<!-- Node22&#45;&gt;Node20 -->
<g id="edge24_Node000022_Node000020" class="edge">
<title>Node22&#45;&gt;Node20</title>
<g id="a_edge24_Node000022_Node000020"><a xlink:title=" ">
<path fill="none" stroke="#63b8ff" d="M363.2,-42.19C343.85,-42.19 322.74,-42.19 303.17,-42.19"/>
<polygon fill="#63b8ff" stroke="#63b8ff" points="363.45,-45.69 373.45,-42.19 363.45,-38.69 363.45,-45.69"/>
</a>
</g>
</g>
</g>
</svg>
