<?xml version="1.0" encoding="UTF-8" standalone="no"?>
<!DOCTYPE svg PUBLIC "-//W3C//DTD SVG 1.1//EN"
 "http://www.w3.org/Graphics/SVG/1.1/DTD/svg11.dtd">
<!-- Generated by graphviz version 2.43.0 (0)
 -->
<!-- Title: CreateInterventionDialog::CreateInterventionDialog Pages: 1 -->
<svg width="802pt" height="224pt"
 viewBox="0.00 0.00 802.00 223.50" xmlns="http://www.w3.org/2000/svg" xmlns:xlink="http://www.w3.org/1999/xlink">
<g id="graph0" class="graph" transform="scale(1 1) rotate(0) translate(4 219.5)">
<title>CreateInterventionDialog::CreateInterventionDialog</title>
<!-- Node1 -->
<g id="Node000001" class="node">
<title>Node1</title>
<g id="a_Node000001"><a xlink:title="Constructs the dialog.">
<polygon fill="#999999" stroke="#666666" points="146,-121.5 0,-121.5 0,-91.5 146,-91.5 146,-121.5"/>
<text text-anchor="start" x="8" y="-109.5" font-family="Helvetica,sans-Serif" font-size="10.00">CreateInterventionDialog</text>
<text text-anchor="middle" x="73" y="-98.5" font-family="Helvetica,sans-Serif" font-size="10.00">::CreateInterventionDialog</text>
</a>
</g>
</g>
<!-- Node2 -->
<g id="Node000002" class="node">
<title>Node2</title>
<g id="a_Node000002"><a xlink:href="classCreateInterventionDialog.html#a2dea7e4f88ec1ff92ff0abfc79cc02ec" target="_top" xlink:title="Clears all input fields in the form.">
<polygon fill="white" stroke="#666666" points="322,-191.5 182,-191.5 182,-161.5 322,-161.5 322,-191.5"/>
<text text-anchor="start" x="190" y="-179.5" font-family="Helvetica,sans-Serif" font-size="10.00">CreateInterventionDialog</text>
<text text-anchor="middle" x="252" y="-168.5" font-family="Helvetica,sans-Serif" font-size="10.00">::clear_fields</text>
</a>
</g>
</g>
<!-- Node1&#45;&gt;Node2 -->
<g id="edge1_Node000001_Node000002" class="edge">
<title>Node1&#45;&gt;Node2</title>
<g id="a_edge1_Node000001_Node000002"><a xlink:title=" ">
<path fill="none" stroke="#63b8ff" d="M107.81,-121.6C128.98,-130.88 156.91,-142.8 182,-152.5 186.76,-154.34 191.72,-156.19 196.72,-158.01"/>
<polygon fill="#63b8ff" stroke="#63b8ff" points="195.7,-161.36 206.3,-161.45 198.07,-154.78 195.7,-161.36"/>
</a>
</g>
</g>
<!-- Node7 -->
<g id="Node000007" class="node">
<title>Node7</title>
<g id="a_Node000007"><a xlink:href="classCreateInterventionDialog.html#a69bfd0a27dbcfc3c758f0df0382fd4ec" target="_top" xlink:title="Connects UI components to their corresponding signals and slots.">
<polygon fill="white" stroke="#666666" points="322,-143.5 182,-143.5 182,-113.5 322,-113.5 322,-143.5"/>
<text text-anchor="start" x="190" y="-131.5" font-family="Helvetica,sans-Serif" font-size="10.00">CreateInterventionDialog</text>
<text text-anchor="middle" x="252" y="-120.5" font-family="Helvetica,sans-Serif" font-size="10.00">::setup_connects</text>
</a>
</g>
</g>
<!-- Node1&#45;&gt;Node7 -->
<g id="edge6_Node000001_Node000007" class="edge">
<title>Node1&#45;&gt;Node7</title>
<g id="a_edge6_Node000001_Node000007"><a xlink:title=" ">
<path fill="none" stroke="#63b8ff" d="M146.25,-115.48C154.7,-116.53 163.35,-117.61 171.89,-118.67"/>
<polygon fill="#63b8ff" stroke="#63b8ff" points="171.49,-122.14 181.84,-119.9 172.35,-115.2 171.49,-122.14"/>
</a>
</g>
</g>
<!-- Node8 -->
<g id="Node000008" class="node">
<title>Node8</title>
<g id="a_Node000008"><a xlink:href="classCreateInterventionDialog.html#ae13390e7cc72067554a26c96787166b1" target="_top" xlink:title="Enables or disables the OK button based on form validity.">
<polygon fill="white" stroke="#666666" points="498,-134.5 358,-134.5 358,-104.5 498,-104.5 498,-134.5"/>
<text text-anchor="start" x="366" y="-122.5" font-family="Helvetica,sans-Serif" font-size="10.00">CreateInterventionDialog</text>
<text text-anchor="middle" x="428" y="-111.5" font-family="Helvetica,sans-Serif" font-size="10.00">::update_ok_state</text>
</a>
</g>
</g>
<!-- Node1&#45;&gt;Node8 -->
<g id="edge11_Node000001_Node000008" class="edge">
<title>Node1&#45;&gt;Node8</title>
<g id="a_edge11_Node000001_Node000008"><a xlink:title=" ">
<path fill="none" stroke="#63b8ff" d="M146.26,-102.91C195.78,-101.19 262.95,-100.3 322,-104.5 330.38,-105.1 339.11,-105.96 347.8,-106.97"/>
<polygon fill="#63b8ff" stroke="#63b8ff" points="347.61,-110.47 357.96,-108.22 348.46,-103.52 347.61,-110.47"/>
</a>
</g>
</g>
<!-- Node9 -->
<g id="Node000009" class="node">
<title>Node9</title>
<g id="a_Node000009"><a xlink:href="classCreateInterventionDialog.html#ab34044aab8aa9b63a1e9a4664cae8e30" target="_top" xlink:title="Initializes and arranges all UI components.">
<polygon fill="white" stroke="#666666" points="322,-57.5 182,-57.5 182,-27.5 322,-27.5 322,-57.5"/>
<text text-anchor="start" x="190" y="-45.5" font-family="Helvetica,sans-Serif" font-size="10.00">CreateInterventionDialog</text>
<text text-anchor="middle" x="252" y="-34.5" font-family="Helvetica,sans-Serif" font-size="10.00">::setup_ui</text>
</a>
</g>
</g>
<!-- Node1&#45;&gt;Node9 -->
<g id="edge8_Node000001_Node000009" class="edge">
<title>Node1&#45;&gt;Node9</title>
<g id="a_edge8_Node000001_Node000009"><a xlink:title=" ">
<path fill="none" stroke="#63b8ff" d="M115.5,-91.49C140.71,-82.38 173.08,-70.67 199.86,-60.99"/>
<polygon fill="#63b8ff" stroke="#63b8ff" points="201.24,-64.21 209.46,-57.52 198.86,-57.63 201.24,-64.21"/>
</a>
</g>
</g>
<!-- Node3 -->
<g id="Node000003" class="node">
<title>Node3</title>
<g id="a_Node000003"><a xlink:href="classTechListController.html#a4a07a8d1f3948b7f326d8c0e0bc9ab06" target="_top" xlink:title="Updates the technician list based on current combo box selections.">
<polygon fill="white" stroke="#666666" points="486.5,-191.5 369.5,-191.5 369.5,-161.5 486.5,-161.5 486.5,-191.5"/>
<text text-anchor="start" x="377.5" y="-179.5" font-family="Helvetica,sans-Serif" font-size="10.00">TechListController</text>
<text text-anchor="middle" x="428" y="-168.5" font-family="Helvetica,sans-Serif" font-size="10.00">::update_technicians</text>
</a>
</g>
</g>
<!-- Node2&#45;&gt;Node3 -->
<g id="edge2_Node000002_Node000003" class="edge">
<title>Node2&#45;&gt;Node3</title>
<g id="a_edge2_Node000002_Node000003"><a xlink:title=" ">
<path fill="none" stroke="#63b8ff" d="M322.02,-176.5C334.25,-176.5 346.98,-176.5 359.17,-176.5"/>
<polygon fill="#63b8ff" stroke="#63b8ff" points="359.27,-180 369.27,-176.5 359.27,-173 359.27,-180"/>
</a>
</g>
</g>
<!-- Node4 -->
<g id="Node000004" class="node">
<title>Node4</title>
<g id="a_Node000004"><a xlink:href="classTechListController.html#a63c60cd01624769a28bcf64986688b70" target="_top" xlink:title="Rebuilds the technician list in the UI.">
<polygon fill="white" stroke="#666666" points="638,-191.5 534,-191.5 534,-161.5 638,-161.5 638,-191.5"/>
<text text-anchor="start" x="542" y="-179.5" font-family="Helvetica,sans-Serif" font-size="10.00">TechListController</text>
<text text-anchor="middle" x="586" y="-168.5" font-family="Helvetica,sans-Serif" font-size="10.00">::rebuild_list</text>
</a>
</g>
</g>
<!-- Node3&#45;&gt;Node4 -->
<g id="edge3_Node000003_Node000004" class="edge">
<title>Node3&#45;&gt;Node4</title>
<g id="a_edge3_Node000003_Node000004"><a xlink:title=" ">
<path fill="none" stroke="#63b8ff" d="M486.65,-176.5C498.72,-176.5 511.48,-176.5 523.68,-176.5"/>
<polygon fill="#63b8ff" stroke="#63b8ff" points="523.77,-180 533.77,-176.5 523.77,-173 523.77,-180"/>
</a>
</g>
</g>
<!-- Node5 -->
<g id="Node000005" class="node">
<title>Node5</title>
<g id="a_Node000005"><a xlink:href="classTechnicianRepository.html#abf3ba8f356e622790a4445b34046ac02" target="_top" xlink:title="Retrieves all technicians in the repository.">
<polygon fill="white" stroke="#666666" points="794,-215.5 674,-215.5 674,-185.5 794,-185.5 794,-215.5"/>
<text text-anchor="start" x="682" y="-203.5" font-family="Helvetica,sans-Serif" font-size="10.00">TechnicianRepository</text>
<text text-anchor="middle" x="734" y="-192.5" font-family="Helvetica,sans-Serif" font-size="10.00">::get_all</text>
</a>
</g>
</g>
<!-- Node4&#45;&gt;Node5 -->
<g id="edge4_Node000004_Node000005" class="edge">
<title>Node4&#45;&gt;Node5</title>
<g id="a_edge4_Node000004_Node000005"><a xlink:title=" ">
<path fill="none" stroke="#63b8ff" d="M638.06,-184.89C646.4,-186.26 655.15,-187.7 663.83,-189.13"/>
<polygon fill="#63b8ff" stroke="#63b8ff" points="663.53,-192.63 673.96,-190.8 664.66,-185.72 663.53,-192.63"/>
</a>
</g>
</g>
<!-- Node6 -->
<g id="Node000006" class="node">
<title>Node6</title>
<g id="a_Node000006"><a xlink:href="classTechnicianRepository.html#a7195867c4915f8aa3ff92b28615b1248" target="_top" xlink:title="Returns the singleton instance of the repository.">
<polygon fill="white" stroke="#666666" points="794,-167.5 674,-167.5 674,-137.5 794,-137.5 794,-167.5"/>
<text text-anchor="start" x="682" y="-155.5" font-family="Helvetica,sans-Serif" font-size="10.00">TechnicianRepository</text>
<text text-anchor="middle" x="734" y="-144.5" font-family="Helvetica,sans-Serif" font-size="10.00">::instance</text>
</a>
</g>
</g>
<!-- Node4&#45;&gt;Node6 -->
<g id="edge5_Node000004_Node000006" class="edge">
<title>Node4&#45;&gt;Node6</title>
<g id="a_edge5_Node000004_Node000006"><a xlink:title=" ">
<path fill="none" stroke="#63b8ff" d="M638.06,-168.11C646.4,-166.74 655.15,-165.3 663.83,-163.87"/>
<polygon fill="#63b8ff" stroke="#63b8ff" points="664.66,-167.28 673.96,-162.2 663.53,-160.37 664.66,-167.28"/>
</a>
</g>
</g>
<!-- Node7&#45;&gt;Node8 -->
<g id="edge7_Node000007_Node000008" class="edge">
<title>Node7&#45;&gt;Node8</title>
<g id="a_edge7_Node000007_Node000008"><a xlink:title=" ">
<path fill="none" stroke="#63b8ff" d="M322.02,-124.93C330.48,-124.49 339.17,-124.04 347.76,-123.6"/>
<polygon fill="#63b8ff" stroke="#63b8ff" points="347.97,-127.09 357.78,-123.08 347.61,-120.1 347.97,-127.09"/>
</a>
</g>
</g>
<!-- Node10 -->
<g id="Node000010" class="node">
<title>Node10</title>
<g id="a_Node000010"><a xlink:href="classCreateInterventionDialog.html#abef24d6cd0ad7de22c7c96d2594f35d4" target="_top" xlink:title="Tints a given icon with a specific color.">
<polygon fill="white" stroke="#666666" points="498,-67.5 358,-67.5 358,-37.5 498,-37.5 498,-67.5"/>
<text text-anchor="start" x="366" y="-55.5" font-family="Helvetica,sans-Serif" font-size="10.00">CreateInterventionDialog</text>
<text text-anchor="middle" x="428" y="-44.5" font-family="Helvetica,sans-Serif" font-size="10.00">::tinted_icon</text>
</a>
</g>
</g>
<!-- Node9&#45;&gt;Node10 -->
<g id="edge9_Node000009_Node000010" class="edge">
<title>Node9&#45;&gt;Node10</title>
<g id="a_edge9_Node000009_Node000010"><a xlink:title=" ">
<path fill="none" stroke="#63b8ff" d="M322.02,-46.47C330.48,-46.95 339.17,-47.45 347.76,-47.95"/>
<polygon fill="#63b8ff" stroke="#63b8ff" points="347.6,-51.44 357.78,-48.52 348,-44.45 347.6,-51.44"/>
</a>
</g>
</g>
<!-- Node11 -->
<g id="Node000011" class="node">
<title>Node11</title>
<g id="a_Node000011"><a xlink:href="ExpertiseField_8h.html#a56a9a6b462a1d330a25154be696d66d5" target="_top" xlink:title="Converts an ExpertiseField enum value to a human&#45;readable string.">
<polygon fill="white" stroke="#666666" points="457.5,-19 398.5,-19 398.5,0 457.5,0 457.5,-19"/>
<text text-anchor="middle" x="428" y="-7" font-family="Helvetica,sans-Serif" font-size="10.00">to_string</text>
</a>
</g>
</g>
<!-- Node9&#45;&gt;Node11 -->
<g id="edge10_Node000009_Node000011" class="edge">
<title>Node9&#45;&gt;Node11</title>
<g id="a_edge10_Node000009_Node000011"><a xlink:title=" ">
<path fill="none" stroke="#63b8ff" d="M322.02,-29.41C344.54,-25.14 368.74,-20.55 388.22,-16.85"/>
<polygon fill="#63b8ff" stroke="#63b8ff" points="389.06,-20.26 398.23,-14.96 387.76,-13.38 389.06,-20.26"/>
</a>
</g>
</g>
</g>
</svg>
