<?xml version="1.0" encoding="UTF-8" standalone="no"?>
<!DOCTYPE svg PUBLIC "-//W3C//DTD SVG 1.1//EN"
 "http://www.w3.org/Graphics/SVG/1.1/DTD/svg11.dtd">
<!-- Generated by graphviz version 2.43.0 (0)
 -->
<!-- Title: InterventionPage::InterventionPage Pages: 1 -->
<svg width="538pt" height="278pt"
 viewBox="0.00 0.00 538.00 278.00" xmlns="http://www.w3.org/2000/svg" xmlns:xlink="http://www.w3.org/1999/xlink">
<g id="graph0" class="graph" transform="scale(1 1) rotate(0) translate(4 274)">
<title>InterventionPage::InterventionPage</title>
<!-- Node1 -->
<g id="Node000001" class="node">
<title>Node1</title>
<g id="a_Node000001"><a xlink:title="Constructs the InterventionPage widget.">
<polygon fill="#999999" stroke="#666666" points="188,-192.5 0,-192.5 0,-173.5 188,-173.5 188,-192.5"/>
<text text-anchor="middle" x="94" y="-180.5" font-family="Helvetica,sans-Serif" font-size="10.00">InterventionPage::InterventionPage</text>
</a>
</g>
</g>
<!-- Node2 -->
<g id="Node000002" class="node">
<title>Node2</title>
<g id="a_Node000002"><a xlink:href="classInterventionPage.html#a23dea62c55db2a9b9a27eb3b5f4b2349" target="_top" xlink:title="Connects internal signals and slots.">
<polygon fill="white" stroke="#666666" points="363,-241 231,-241 231,-211 363,-211 363,-241"/>
<text text-anchor="start" x="239" y="-229" font-family="Helvetica,sans-Serif" font-size="10.00">InterventionPage::setup</text>
<text text-anchor="middle" x="297" y="-218" font-family="Helvetica,sans-Serif" font-size="10.00">_connects</text>
</a>
</g>
</g>
<!-- Node1&#45;&gt;Node2 -->
<g id="edge1_Node000001_Node000002" class="edge">
<title>Node1&#45;&gt;Node2</title>
<g id="a_edge1_Node000001_Node000002"><a xlink:title=" ">
<path fill="none" stroke="#63b8ff" d="M139.61,-192.54C163.51,-197.66 193.59,-204.09 220.97,-209.95"/>
<polygon fill="#63b8ff" stroke="#63b8ff" points="220.4,-213.41 230.91,-212.08 221.87,-206.56 220.4,-213.41"/>
</a>
</g>
</g>
<!-- Node3 -->
<g id="Node000003" class="node">
<title>Node3</title>
<g id="a_Node000003"><a xlink:href="classInterventionPage.html#acdf427139a7423856cecd950d8da8198" target="_top" xlink:title="Initializes and arranges all UI elements.">
<polygon fill="white" stroke="#666666" points="370,-192.5 224,-192.5 224,-173.5 370,-173.5 370,-192.5"/>
<text text-anchor="middle" x="297" y="-180.5" font-family="Helvetica,sans-Serif" font-size="10.00">InterventionPage::setup_ui</text>
</a>
</g>
</g>
<!-- Node1&#45;&gt;Node3 -->
<g id="edge2_Node000001_Node000003" class="edge">
<title>Node1&#45;&gt;Node3</title>
<g id="a_edge2_Node000001_Node000003"><a xlink:title=" ">
<path fill="none" stroke="#63b8ff" d="M188.15,-183C196.69,-183 205.3,-183 213.74,-183"/>
<polygon fill="#63b8ff" stroke="#63b8ff" points="213.92,-186.5 223.92,-183 213.92,-179.5 213.92,-186.5"/>
</a>
</g>
</g>
<!-- Node7 -->
<g id="Node000007" class="node">
<title>Node7</title>
<g id="a_Node000007"><a xlink:href="classInterventionPage.html#a548ea550131dc31088b667d4d08b8f6e" target="_top" xlink:title="Updates UI visibility and behavior based on the user&#39;s role.">
<polygon fill="white" stroke="#666666" points="366.5,-102 227.5,-102 227.5,-72 366.5,-72 366.5,-102"/>
<text text-anchor="start" x="235.5" y="-90" font-family="Helvetica,sans-Serif" font-size="10.00">InterventionPage::update</text>
<text text-anchor="middle" x="297" y="-79" font-family="Helvetica,sans-Serif" font-size="10.00">_ui_for_current_role</text>
</a>
</g>
</g>
<!-- Node1&#45;&gt;Node7 -->
<g id="edge6_Node000001_Node000007" class="edge">
<title>Node1&#45;&gt;Node7</title>
<g id="a_edge6_Node000001_Node000007"><a xlink:title=" ">
<path fill="none" stroke="#63b8ff" d="M115.01,-173.44C147.5,-157.92 212.4,-126.93 255,-106.58"/>
<polygon fill="#63b8ff" stroke="#63b8ff" points="256.75,-109.63 264.26,-102.16 253.73,-103.31 256.75,-109.63"/>
</a>
</g>
</g>
<!-- Node4 -->
<g id="Node000004" class="node">
<title>Node4</title>
<g id="a_Node000004"><a xlink:href="classEntityEditorLayout.html#aec5a1399c28c99ba38f6ab384c1e5cbb" target="_top" xlink:title="Returns a pointer to the action button.">
<polygon fill="white" stroke="#666666" points="521.5,-270 414.5,-270 414.5,-240 521.5,-240 521.5,-270"/>
<text text-anchor="start" x="422.5" y="-258" font-family="Helvetica,sans-Serif" font-size="10.00">EntityEditorLayout</text>
<text text-anchor="middle" x="468" y="-247" font-family="Helvetica,sans-Serif" font-size="10.00">::action_button</text>
</a>
</g>
</g>
<!-- Node3&#45;&gt;Node4 -->
<g id="edge3_Node000003_Node000004" class="edge">
<title>Node3&#45;&gt;Node4</title>
<g id="a_edge3_Node000003_Node000004"><a xlink:title=" ">
<path fill="none" stroke="#63b8ff" d="M345.53,-192.5C353.91,-195.02 362.39,-198.15 370,-202 388.34,-211.27 388.24,-220.68 406,-231 408.8,-232.63 411.74,-234.19 414.74,-235.69"/>
<polygon fill="#63b8ff" stroke="#63b8ff" points="413.35,-238.9 423.89,-239.95 416.31,-232.55 413.35,-238.9"/>
</a>
</g>
</g>
<!-- Node5 -->
<g id="Node000005" class="node">
<title>Node5</title>
<g id="a_Node000005"><a xlink:href="classEntityEditorLayout.html#a05c07f7c50a056831200d32048918549" target="_top" xlink:title="Sets the widget that will appear on the left side of the main content area.">
<polygon fill="white" stroke="#666666" points="521.5,-222 414.5,-222 414.5,-192 521.5,-192 521.5,-222"/>
<text text-anchor="start" x="422.5" y="-210" font-family="Helvetica,sans-Serif" font-size="10.00">EntityEditorLayout</text>
<text text-anchor="middle" x="468" y="-199" font-family="Helvetica,sans-Serif" font-size="10.00">::set_left_widget</text>
</a>
</g>
</g>
<!-- Node3&#45;&gt;Node5 -->
<g id="edge4_Node000003_Node000005" class="edge">
<title>Node3&#45;&gt;Node5</title>
<g id="a_edge4_Node000003_Node000005"><a xlink:title=" ">
<path fill="none" stroke="#63b8ff" d="M365.28,-192.55C378.13,-194.38 391.55,-196.28 404.25,-198.09"/>
<polygon fill="#63b8ff" stroke="#63b8ff" points="403.88,-201.57 414.27,-199.51 404.86,-194.64 403.88,-201.57"/>
</a>
</g>
</g>
<!-- Node6 -->
<g id="Node000006" class="node">
<title>Node6</title>
<g id="a_Node000006"><a xlink:href="classEntityEditorLayout.html#ac65c199970eb9919a60381bd7f1f9d49" target="_top" xlink:title="Sets the widget that will appear on the right side of the main content area.">
<polygon fill="white" stroke="#666666" points="521.5,-174 414.5,-174 414.5,-144 521.5,-144 521.5,-174"/>
<text text-anchor="start" x="422.5" y="-162" font-family="Helvetica,sans-Serif" font-size="10.00">EntityEditorLayout</text>
<text text-anchor="middle" x="468" y="-151" font-family="Helvetica,sans-Serif" font-size="10.00">::set_right_widget</text>
</a>
</g>
</g>
<!-- Node3&#45;&gt;Node6 -->
<g id="edge5_Node000003_Node000006" class="edge">
<title>Node3&#45;&gt;Node6</title>
<g id="a_edge5_Node000003_Node000006"><a xlink:title=" ">
<path fill="none" stroke="#63b8ff" d="M365.28,-173.45C378.13,-171.62 391.55,-169.72 404.25,-167.91"/>
<polygon fill="#63b8ff" stroke="#63b8ff" points="404.86,-171.36 414.27,-166.49 403.88,-164.43 404.86,-171.36"/>
</a>
</g>
</g>
<!-- Node8 -->
<g id="Node000008" class="node">
<title>Node8</title>
<g id="a_Node000008"><a xlink:href="classAuthenticationService.html#ad982cbb3ee4ae8471146c296f47ad30d" target="_top" xlink:title=" ">
<polygon fill="white" stroke="#666666" points="530,-126 406,-126 406,-96 530,-96 530,-126"/>
<text text-anchor="start" x="414" y="-114" font-family="Helvetica,sans-Serif" font-size="10.00">AuthenticationService</text>
<text text-anchor="middle" x="468" y="-103" font-family="Helvetica,sans-Serif" font-size="10.00">::has_role</text>
</a>
</g>
</g>
<!-- Node7&#45;&gt;Node8 -->
<g id="edge7_Node000007_Node000008" class="edge">
<title>Node7&#45;&gt;Node8</title>
<g id="a_edge7_Node000007_Node000008"><a xlink:title=" ">
<path fill="none" stroke="#63b8ff" d="M366.74,-96.76C376.37,-98.13 386.28,-99.54 395.96,-100.91"/>
<polygon fill="#63b8ff" stroke="#63b8ff" points="395.53,-104.39 405.93,-102.33 396.52,-97.46 395.53,-104.39"/>
</a>
</g>
</g>
<!-- Node9 -->
<g id="Node000009" class="node">
<title>Node9</title>
<g id="a_Node000009"><a xlink:href="classAuthenticationService.html#a2dc8be4689e371d7a773ac008b21cf3a" target="_top" xlink:title=" ">
<polygon fill="white" stroke="#666666" points="530,-78 406,-78 406,-48 530,-48 530,-78"/>
<text text-anchor="start" x="414" y="-66" font-family="Helvetica,sans-Serif" font-size="10.00">AuthenticationService</text>
<text text-anchor="middle" x="468" y="-55" font-family="Helvetica,sans-Serif" font-size="10.00">::instance</text>
</a>
</g>
</g>
<!-- Node7&#45;&gt;Node9 -->
<g id="edge8_Node000007_Node000009" class="edge">
<title>Node7&#45;&gt;Node9</title>
<g id="a_edge8_Node000007_Node000009"><a xlink:title=" ">
<path fill="none" stroke="#63b8ff" d="M366.74,-77.24C376.37,-75.87 386.28,-74.46 395.96,-73.09"/>
<polygon fill="#63b8ff" stroke="#63b8ff" points="396.52,-76.54 405.93,-71.67 395.53,-69.61 396.52,-76.54"/>
</a>
</g>
</g>
<!-- Node10 -->
<g id="Node000010" class="node">
<title>Node10</title>
<g id="a_Node000010"><a xlink:href="classInterventionEditPanel.html#aae70b6d931060e223a1b531811eecf90" target="_top" xlink:title="Provides access to the Save button.">
<polygon fill="white" stroke="#666666" points="528.5,-30 407.5,-30 407.5,0 528.5,0 528.5,-30"/>
<text text-anchor="start" x="415.5" y="-18" font-family="Helvetica,sans-Serif" font-size="10.00">InterventionEditPanel</text>
<text text-anchor="middle" x="468" y="-7" font-family="Helvetica,sans-Serif" font-size="10.00">::save_button</text>
</a>
</g>
</g>
<!-- Node7&#45;&gt;Node10 -->
<g id="edge9_Node000007_Node000010" class="edge">
<title>Node7&#45;&gt;Node10</title>
<g id="a_edge9_Node000007_Node000010"><a xlink:title=" ">
<path fill="none" stroke="#63b8ff" d="M330.93,-71.92C352.24,-62.27 380.64,-49.62 406,-39 410.07,-37.3 414.3,-35.56 418.55,-33.84"/>
<polygon fill="#63b8ff" stroke="#63b8ff" points="419.87,-37.08 427.85,-30.11 417.26,-30.59 419.87,-37.08"/>
</a>
</g>
</g>
</g>
</svg>
