<?xml version="1.0" encoding="UTF-8" standalone="no"?>
<!DOCTYPE svg PUBLIC "-//W3C//DTD SVG 1.1//EN"
 "http://www.w3.org/Graphics/SVG/1.1/DTD/svg11.dtd">
<!-- Generated by graphviz version 2.43.0 (0)
 -->
<!-- Title: TechnicianEditPanel::name Pages: 1 -->
<svg width="419pt" height="59pt"
 viewBox="0.00 0.00 419.00 59.00" xmlns="http://www.w3.org/2000/svg" xmlns:xlink="http://www.w3.org/1999/xlink">
<g id="graph0" class="graph" transform="scale(1 1) rotate(0) translate(4 55)">
<title>TechnicianEditPanel::name</title>
<!-- Node1 -->
<g id="Node000001" class="node">
<title>Node1</title>
<g id="a_Node000001"><a xlink:title="Returns the current name in the input field.">
<polygon fill="#999999" stroke="#666666" points="411,-51 298,-51 298,-21 411,-21 411,-51"/>
<text text-anchor="start" x="306" y="-39" font-family="Helvetica,sans-Serif" font-size="10.00">TechnicianEditPanel</text>
<text text-anchor="middle" x="354.5" y="-28" font-family="Helvetica,sans-Serif" font-size="10.00">::name</text>
</a>
</g>
</g>
<!-- Node2 -->
<g id="Node000002" class="node">
<title>Node2</title>
<g id="a_Node000002"><a xlink:href="classTechnicianEditPanel.html#a97a82e304a62d5c3b4c4798972d5c583" target="_top" xlink:title="Loads a technician into the panel for editing.">
<polygon fill="white" stroke="#666666" points="113,-51 0,-51 0,-21 113,-21 113,-51"/>
<text text-anchor="start" x="8" y="-39" font-family="Helvetica,sans-Serif" font-size="10.00">TechnicianEditPanel</text>
<text text-anchor="middle" x="56.5" y="-28" font-family="Helvetica,sans-Serif" font-size="10.00">::load_technician</text>
</a>
</g>
</g>
<!-- Node1&#45;&gt;Node2 -->
<g id="edge1_Node000001_Node000002" class="edge">
<title>Node1&#45;&gt;Node2</title>
<g id="a_edge1_Node000001_Node000002"><a xlink:title=" ">
<path fill="none" stroke="#63b8ff" d="M287.77,-38.41C279.1,-38.66 270.34,-38.86 262,-39 211.78,-39.82 199.22,-39.82 149,-39 137.4,-38.81 124.97,-38.48 113.14,-38.12"/>
<polygon fill="#63b8ff" stroke="#63b8ff" points="287.97,-41.91 297.86,-38.12 287.76,-34.91 287.97,-41.91"/>
</a>
</g>
</g>
<!-- Node3 -->
<g id="Node000003" class="node">
<title>Node3</title>
<g id="a_Node000003"><a xlink:href="classTechnicianEditPanel.html#a2d00646809593c3258840fc93dd110be" target="_top" xlink:title="Sets the name in the input field.">
<polygon fill="white" stroke="#666666" points="262,-30 149,-30 149,0 262,0 262,-30"/>
<text text-anchor="start" x="157" y="-18" font-family="Helvetica,sans-Serif" font-size="10.00">TechnicianEditPanel</text>
<text text-anchor="middle" x="205.5" y="-7" font-family="Helvetica,sans-Serif" font-size="10.00">::set_name</text>
</a>
</g>
</g>
<!-- Node1&#45;&gt;Node3 -->
<g id="edge2_Node000001_Node000003" class="edge">
<title>Node1&#45;&gt;Node3</title>
<g id="a_edge2_Node000001_Node000003"><a xlink:title=" ">
<path fill="none" stroke="#63b8ff" d="M287.92,-26.63C279.32,-25.4 270.57,-24.15 262.15,-22.95"/>
<polygon fill="#63b8ff" stroke="#63b8ff" points="287.53,-30.11 297.93,-28.06 288.52,-23.18 287.53,-30.11"/>
</a>
</g>
</g>
<!-- Node3&#45;&gt;Node2 -->
<g id="edge3_Node000003_Node000002" class="edge">
<title>Node3&#45;&gt;Node2</title>
<g id="a_edge3_Node000003_Node000002"><a xlink:title=" ">
<path fill="none" stroke="#63b8ff" d="M138.92,-24.37C130.32,-25.6 121.57,-26.85 113.15,-28.05"/>
<polygon fill="#63b8ff" stroke="#63b8ff" points="139.52,-27.82 148.93,-22.94 138.53,-20.89 139.52,-27.82"/>
</a>
</g>
</g>
</g>
</svg>
