<?xml version="1.0" encoding="UTF-8" standalone="no"?>
<!DOCTYPE svg PUBLIC "-//W3C//DTD SVG 1.1//EN"
 "http://www.w3.org/Graphics/SVG/1.1/DTD/svg11.dtd">
<!-- Generated by graphviz version 2.43.0 (0)
 -->
<!-- Title: InterventionPage Pages: 1 -->
<svg width="754pt" height="195pt"
 viewBox="0.00 0.00 754.00 194.54" xmlns="http://www.w3.org/2000/svg" xmlns:xlink="http://www.w3.org/1999/xlink">
<g id="graph0" class="graph" transform="scale(1 1) rotate(0) translate(4 190.54)">
<title>InterventionPage</title>
<!-- Node1 -->
<g id="Node000001" class="node">
<title>Node1</title>
<g id="a_Node000001"><a xlink:title="Main QWidget that displays and manages all intervention&#45;related UI components.">
<polygon fill="#999999" stroke="#666666" points="746,-124 647,-124 647,-105 746,-105 746,-124"/>
<text text-anchor="middle" x="696.5" y="-112" font-family="Helvetica,sans-Serif" font-size="10.00">InterventionPage</text>
</a>
</g>
</g>
<!-- Node2 -->
<g id="Node000002" class="node">
<title>Node2</title>
<g id="a_Node000002"><a xlink:title=" ">
<polygon fill="white" stroke="#666666" points="236.5,-174 177.5,-174 177.5,-155 236.5,-155 236.5,-174"/>
<text text-anchor="middle" x="207" y="-162" font-family="Helvetica,sans-Serif" font-size="10.00">QWidget</text>
</a>
</g>
</g>
<!-- Node2&#45;&gt;Node1 -->
<g id="edge1_Node000001_Node000002" class="edge">
<title>Node2&#45;&gt;Node1</title>
<g id="a_edge1_Node000001_Node000002"><a xlink:title=" ">
<path fill="none" stroke="#63b8ff" d="M246.8,-171.72C322.87,-184.16 495.78,-203.91 629,-155.5 649.4,-148.09 670.27,-133.93 683.06,-124.35"/>
<polygon fill="#63b8ff" stroke="#63b8ff" points="247.17,-168.23 236.73,-170.02 246.01,-175.13 247.17,-168.23"/>
</a>
</g>
</g>
<!-- Node3 -->
<g id="Node000003" class="node">
<title>Node3</title>
<g id="a_Node000003"><a xlink:href="classEntityEditorLayout.html" target="_top" xlink:title="A UI layout widget that provides a reusable interface structure with a header, action button,...">
<polygon fill="white" stroke="#666666" points="509.5,-161 402.5,-161 402.5,-142 509.5,-142 509.5,-161"/>
<text text-anchor="middle" x="456" y="-149" font-family="Helvetica,sans-Serif" font-size="10.00">EntityEditorLayout</text>
</a>
</g>
</g>
<!-- Node2&#45;&gt;Node3 -->
<g id="edge3_Node000003_Node000002" class="edge">
<title>Node2&#45;&gt;Node3</title>
<g id="a_edge3_Node000003_Node000002"><a xlink:title=" ">
<path fill="none" stroke="#63b8ff" d="M246.9,-162.45C288.76,-160.25 355.6,-156.73 402.19,-154.28"/>
<polygon fill="#63b8ff" stroke="#63b8ff" points="246.62,-158.96 236.82,-162.98 246.99,-165.95 246.62,-158.96"/>
</a>
</g>
</g>
<!-- Node6 -->
<g id="Node000006" class="node">
<title>Node6</title>
<g id="a_Node000006"><a xlink:href="classInterventionEditPanel.html" target="_top" xlink:title="A QWidget&#45;based panel for editing an existing intervention.">
<polygon fill="white" stroke="#666666" points="516.5,-124 395.5,-124 395.5,-105 516.5,-105 516.5,-124"/>
<text text-anchor="middle" x="456" y="-112" font-family="Helvetica,sans-Serif" font-size="10.00">InterventionEditPanel</text>
</a>
</g>
</g>
<!-- Node2&#45;&gt;Node6 -->
<g id="edge7_Node000006_Node000002" class="edge">
<title>Node2&#45;&gt;Node6</title>
<g id="a_edge7_Node000006_Node000002"><a xlink:title=" ">
<path fill="none" stroke="#63b8ff" d="M246.74,-156.66C290.31,-147.84 361.06,-133.52 407.81,-124.05"/>
<polygon fill="#63b8ff" stroke="#63b8ff" points="245.92,-153.25 236.82,-158.67 247.31,-160.11 245.92,-153.25"/>
</a>
</g>
</g>
<!-- Node3&#45;&gt;Node1 -->
<g id="edge2_Node000001_Node000003" class="edge">
<title>Node3&#45;&gt;Node1</title>
<g id="a_edge2_Node000001_Node000003"><a xlink:title=" ">
<path fill="none" stroke="#9a32cd" stroke-dasharray="5,2" d="M520.14,-144.2C552.74,-140.14 593.1,-134.67 629,-128.5 636.67,-127.18 644.81,-125.61 652.66,-124.01"/>
<polygon fill="#9a32cd" stroke="#9a32cd" points="519.35,-140.77 509.85,-145.47 520.2,-147.72 519.35,-140.77"/>
</a>
</g>
<text text-anchor="middle" x="586.5" y="-143.5" font-family="Helvetica,sans-Serif" font-size="10.00" fill="grey"> m_layout</text>
</g>
<!-- Node4 -->
<g id="Node000004" class="node">
<title>Node4</title>
<g id="a_Node000004"><a xlink:href="classInterventionsListView.html" target="_top" xlink:title="A custom QListView that displays a list of interventions and emits selection signals.">
<polygon fill="white" stroke="#666666" points="517,-35 395,-35 395,-16 517,-16 517,-35"/>
<text text-anchor="middle" x="456" y="-23" font-family="Helvetica,sans-Serif" font-size="10.00">InterventionsListView</text>
</a>
</g>
</g>
<!-- Node4&#45;&gt;Node1 -->
<g id="edge4_Node000001_Node000004" class="edge">
<title>Node4&#45;&gt;Node1</title>
<g id="a_edge4_Node000001_Node000004"><a xlink:title=" ">
<path fill="none" stroke="#9a32cd" stroke-dasharray="5,2" d="M519.33,-37.23C552.71,-44.73 594.05,-55.99 629,-71.5 649.11,-80.42 670.06,-94.99 682.94,-104.66"/>
<polygon fill="#9a32cd" stroke="#9a32cd" points="519.75,-33.74 509.24,-35.02 518.26,-40.58 519.75,-33.74"/>
</a>
</g>
<text text-anchor="middle" x="586.5" y="-74.5" font-family="Helvetica,sans-Serif" font-size="10.00" fill="grey"> m_list_view</text>
</g>
<!-- Node5 -->
<g id="Node000005" class="node">
<title>Node5</title>
<g id="a_Node000005"><a xlink:title=" ">
<polygon fill="white" stroke="#666666" points="239.5,-19 174.5,-19 174.5,0 239.5,0 239.5,-19"/>
<text text-anchor="middle" x="207" y="-7" font-family="Helvetica,sans-Serif" font-size="10.00">QListView</text>
</a>
</g>
</g>
<!-- Node5&#45;&gt;Node4 -->
<g id="edge5_Node000004_Node000005" class="edge">
<title>Node5&#45;&gt;Node4</title>
<g id="a_edge5_Node000004_Node000005"><a xlink:title=" ">
<path fill="none" stroke="#63b8ff" d="M249.68,-12.2C289.46,-14.78 349.84,-18.69 394.84,-21.6"/>
<polygon fill="#63b8ff" stroke="#63b8ff" points="249.74,-8.7 239.53,-11.54 249.29,-15.68 249.74,-8.7"/>
</a>
</g>
</g>
<!-- Node6&#45;&gt;Node1 -->
<g id="edge6_Node000001_Node000006" class="edge">
<title>Node6&#45;&gt;Node1</title>
<g id="a_edge6_Node000001_Node000006"><a xlink:title=" ">
<path fill="none" stroke="#9a32cd" stroke-dasharray="5,2" d="M526.68,-114.5C565.2,-114.5 612.12,-114.5 646.71,-114.5"/>
<polygon fill="#9a32cd" stroke="#9a32cd" points="526.57,-111 516.57,-114.5 526.57,-118 526.57,-111"/>
</a>
</g>
<text text-anchor="middle" x="586.5" y="-117.5" font-family="Helvetica,sans-Serif" font-size="10.00" fill="grey"> m_edit_panel</text>
</g>
<!-- Node7 -->
<g id="Node000007" class="node">
<title>Node7</title>
<g id="a_Node000007"><a xlink:href="classTechListController.html" target="_top" xlink:title="Controls UI elements related to technician selection and observes technician repository updates.">
<polygon fill="white" stroke="#666666" points="259,-108 155,-108 155,-89 259,-89 259,-108"/>
<text text-anchor="middle" x="207" y="-96" font-family="Helvetica,sans-Serif" font-size="10.00">TechListController</text>
</a>
</g>
</g>
<!-- Node7&#45;&gt;Node6 -->
<g id="edge8_Node000006_Node000007" class="edge">
<title>Node7&#45;&gt;Node6</title>
<g id="a_edge8_Node000006_Node000007"><a xlink:title=" ">
<path fill="none" stroke="#9a32cd" stroke-dasharray="5,2" d="M269.21,-102.46C307.65,-104.96 357.01,-108.15 395.19,-110.63"/>
<polygon fill="#9a32cd" stroke="#9a32cd" points="269.38,-98.97 259.18,-101.82 268.93,-105.95 269.38,-98.97"/>
</a>
</g>
<text text-anchor="middle" x="322.5" y="-110.5" font-family="Helvetica,sans-Serif" font-size="10.00" fill="grey"> m_tech_controller</text>
</g>
<!-- Node10 -->
<g id="Node000010" class="node">
<title>Node10</title>
<g id="a_Node000010"><a xlink:href="classCreateInterventionDialog.html" target="_top" xlink:title="A modal dialog that allows users to input data for a new intervention.">
<polygon fill="white" stroke="#666666" points="526,-87 386,-87 386,-68 526,-68 526,-87"/>
<text text-anchor="middle" x="456" y="-75" font-family="Helvetica,sans-Serif" font-size="10.00">CreateInterventionDialog</text>
</a>
</g>
</g>
<!-- Node7&#45;&gt;Node10 -->
<g id="edge13_Node000010_Node000007" class="edge">
<title>Node7&#45;&gt;Node10</title>
<g id="a_edge13_Node000010_Node000007"><a xlink:title=" ">
<path fill="none" stroke="#9a32cd" stroke-dasharray="5,2" d="M269.28,-88.4C271.89,-88.07 274.47,-87.77 277,-87.5 312.85,-83.65 352.94,-81.23 385.98,-79.74"/>
<polygon fill="#9a32cd" stroke="#9a32cd" points="268.62,-84.96 259.17,-89.75 269.54,-91.89 268.62,-84.96"/>
</a>
</g>
<text text-anchor="middle" x="322.5" y="-90.5" font-family="Helvetica,sans-Serif" font-size="10.00" fill="grey"> m_tech_controller</text>
</g>
<!-- Node8 -->
<g id="Node000008" class="node">
<title>Node8</title>
<g id="a_Node000008"><a xlink:title=" ">
<polygon fill="white" stroke="#666666" points="87,-126 31,-126 31,-107 87,-107 87,-126"/>
<text text-anchor="middle" x="59" y="-114" font-family="Helvetica,sans-Serif" font-size="10.00">QObject</text>
</a>
</g>
</g>
<!-- Node8&#45;&gt;Node7 -->
<g id="edge9_Node000007_Node000008" class="edge">
<title>Node8&#45;&gt;Node7</title>
<g id="a_edge9_Node000007_Node000008"><a xlink:title=" ">
<path fill="none" stroke="#63b8ff" d="M97.46,-111.88C114.9,-109.73 135.92,-107.14 154.8,-104.81"/>
<polygon fill="#63b8ff" stroke="#63b8ff" points="96.62,-108.46 87.12,-113.16 97.47,-115.41 96.62,-108.46"/>
</a>
</g>
</g>
<!-- Node9 -->
<g id="Node000009" class="node">
<title>Node9</title>
<g id="a_Node000009"><a xlink:href="classATechnicianObserver.html" target="_top" xlink:title="Interface for classes that need to observe changes in the technician repository.">
<polygon fill="white" stroke="#666666" points="118,-89 0,-89 0,-70 118,-70 118,-89"/>
<text text-anchor="middle" x="59" y="-77" font-family="Helvetica,sans-Serif" font-size="10.00">ATechnicianObserver</text>
</a>
</g>
</g>
<!-- Node9&#45;&gt;Node7 -->
<g id="edge10_Node000007_Node000009" class="edge">
<title>Node9&#45;&gt;Node7</title>
<g id="a_edge10_Node000007_Node000009"><a xlink:title=" ">
<path fill="none" stroke="#63b8ff" d="M128.14,-88.37C137.07,-89.53 146.1,-90.7 154.69,-91.82"/>
<polygon fill="#63b8ff" stroke="#63b8ff" points="128.49,-84.88 118.12,-87.06 127.59,-91.83 128.49,-84.88"/>
</a>
</g>
</g>
<!-- Node10&#45;&gt;Node1 -->
<g id="edge11_Node000001_Node000010" class="edge">
<title>Node10&#45;&gt;Node1</title>
<g id="a_edge11_Node000001_Node000010"><a xlink:title=" ">
<path fill="none" stroke="#9a32cd" stroke-dasharray="5,2" d="M536.42,-86.07C565.62,-89.63 598.9,-94.19 629,-99.5 637.86,-101.06 647.32,-103.02 656.24,-105"/>
<polygon fill="#9a32cd" stroke="#9a32cd" points="536.62,-82.57 526.27,-84.85 535.78,-89.52 536.62,-82.57"/>
</a>
</g>
<text text-anchor="middle" x="586.5" y="-102.5" font-family="Helvetica,sans-Serif" font-size="10.00" fill="grey"> m_create_dialog</text>
</g>
<!-- Node11 -->
<g id="Node000011" class="node">
<title>Node11</title>
<g id="a_Node000011"><a xlink:title=" ">
<polygon fill="white" stroke="#666666" points="235,-56 179,-56 179,-37 235,-37 235,-56"/>
<text text-anchor="middle" x="207" y="-44" font-family="Helvetica,sans-Serif" font-size="10.00">QDialog</text>
</a>
</g>
</g>
<!-- Node11&#45;&gt;Node10 -->
<g id="edge12_Node000010_Node000011" class="edge">
<title>Node11&#45;&gt;Node10</title>
<g id="a_edge12_Node000010_Node000011"><a xlink:title=" ">
<path fill="none" stroke="#63b8ff" d="M245.75,-51.24C282.92,-55.9 340.55,-63.14 385.92,-68.83"/>
<polygon fill="#63b8ff" stroke="#63b8ff" points="245.74,-47.71 235.38,-49.94 244.86,-54.65 245.74,-47.71"/>
</a>
</g>
</g>
</g>
</svg>
