<?xml version="1.0" encoding="UTF-8" standalone="no"?>
<!DOCTYPE svg PUBLIC "-//W3C//DTD SVG 1.1//EN"
 "http://www.w3.org/Graphics/SVG/1.1/DTD/svg11.dtd">
<!-- Generated by graphviz version 2.43.0 (0)
 -->
<!-- Title: InterventionRepositoryProxy::find_by_id Pages: 1 -->
<svg width="328pt" height="86pt"
 viewBox="0.00 0.00 328.00 86.00" xmlns="http://www.w3.org/2000/svg" xmlns:xlink="http://www.w3.org/1999/xlink">
<g id="graph0" class="graph" transform="scale(1 1) rotate(0) translate(4 82)">
<title>InterventionRepositoryProxy::find_by_id</title>
<!-- Node1 -->
<g id="Node000001" class="node">
<title>Node1</title>
<g id="a_Node000001"><a xlink:title="Finds an intervention by its ID.">
<polygon fill="#999999" stroke="#666666" points="156,-54 0,-54 0,-24 156,-24 156,-54"/>
<text text-anchor="start" x="8" y="-42" font-family="Helvetica,sans-Serif" font-size="10.00">InterventionRepositoryProxy</text>
<text text-anchor="middle" x="78" y="-31" font-family="Helvetica,sans-Serif" font-size="10.00">::find_by_id</text>
</a>
</g>
</g>
<!-- Node2 -->
<g id="Node000002" class="node">
<title>Node2</title>
<g id="a_Node000002"><a xlink:href="classInterventionRepository.html#a4fd9f90f4de4beffea8b1181d22f5ca6" target="_top" xlink:title="Finds an intervention by its ID.">
<polygon fill="white" stroke="#666666" points="320,-78 192,-78 192,-48 320,-48 320,-78"/>
<text text-anchor="start" x="200" y="-66" font-family="Helvetica,sans-Serif" font-size="10.00">InterventionRepository</text>
<text text-anchor="middle" x="256" y="-55" font-family="Helvetica,sans-Serif" font-size="10.00">::find_by_id</text>
</a>
</g>
</g>
<!-- Node1&#45;&gt;Node2 -->
<g id="edge1_Node000001_Node000002" class="edge">
<title>Node1&#45;&gt;Node2</title>
<g id="a_edge1_Node000001_Node000002"><a xlink:title=" ">
<path fill="none" stroke="#63b8ff" d="M156.2,-49.53C164.67,-50.68 173.27,-51.86 181.69,-53"/>
<polygon fill="#63b8ff" stroke="#63b8ff" points="181.47,-56.51 191.85,-54.39 182.42,-49.57 181.47,-56.51"/>
</a>
</g>
</g>
<!-- Node3 -->
<g id="Node000003" class="node">
<title>Node3</title>
<g id="a_Node000003"><a xlink:href="classInterventionRepository.html#a2e562f9d059314c9cb2fb8cc0d19008b" target="_top" xlink:title="Returns the singleton instance of the repository.">
<polygon fill="white" stroke="#666666" points="320,-30 192,-30 192,0 320,0 320,-30"/>
<text text-anchor="start" x="200" y="-18" font-family="Helvetica,sans-Serif" font-size="10.00">InterventionRepository</text>
<text text-anchor="middle" x="256" y="-7" font-family="Helvetica,sans-Serif" font-size="10.00">::instance</text>
</a>
</g>
</g>
<!-- Node1&#45;&gt;Node3 -->
<g id="edge2_Node000001_Node000003" class="edge">
<title>Node1&#45;&gt;Node3</title>
<g id="a_edge2_Node000001_Node000003"><a xlink:title=" ">
<path fill="none" stroke="#63b8ff" d="M156.2,-28.47C164.67,-27.32 173.27,-26.14 181.69,-25"/>
<polygon fill="#63b8ff" stroke="#63b8ff" points="182.42,-28.43 191.85,-23.61 181.47,-21.49 182.42,-28.43"/>
</a>
</g>
</g>
</g>
</svg>
