<?xml version="1.0" encoding="UTF-8" standalone="no"?>
<!DOCTYPE svg PUBLIC "-//W3C//DTD SVG 1.1//EN"
 "http://www.w3.org/Graphics/SVG/1.1/DTD/svg11.dtd">
<!-- Generated by graphviz version 2.43.0 (0)
 -->
<!-- Title: InterventionRepository::subscribe Pages: 1 -->
<svg width="492pt" height="86pt"
 viewBox="0.00 0.00 492.00 86.00" xmlns="http://www.w3.org/2000/svg" xmlns:xlink="http://www.w3.org/1999/xlink">
<g id="graph0" class="graph" transform="scale(1 1) rotate(0) translate(4 82)">
<title>InterventionRepository::subscribe</title>
<!-- Node1 -->
<g id="Node000001" class="node">
<title>Node1</title>
<g id="a_Node000001"><a xlink:title="Subscribes a QObject to be notified of changes.">
<polygon fill="#999999" stroke="#666666" points="484,-54 356,-54 356,-24 484,-24 484,-54"/>
<text text-anchor="start" x="364" y="-42" font-family="Helvetica,sans-Serif" font-size="10.00">InterventionRepository</text>
<text text-anchor="middle" x="420" y="-31" font-family="Helvetica,sans-Serif" font-size="10.00">::subscribe</text>
</a>
</g>
</g>
<!-- Node2 -->
<g id="Node000002" class="node">
<title>Node2</title>
<g id="a_Node000002"><a xlink:href="classInterventionsListView.html#a1ff1310c5ed4a038e39dd6e71dfc1915" target="_top" xlink:title="Initializes the list view UI components.">
<polygon fill="white" stroke="#666666" points="303,-78 181,-78 181,-48 303,-48 303,-78"/>
<text text-anchor="start" x="189" y="-66" font-family="Helvetica,sans-Serif" font-size="10.00">InterventionsListView</text>
<text text-anchor="middle" x="242" y="-55" font-family="Helvetica,sans-Serif" font-size="10.00">::setup_ui</text>
</a>
</g>
</g>
<!-- Node1&#45;&gt;Node2 -->
<g id="edge1_Node000001_Node000002" class="edge">
<title>Node1&#45;&gt;Node2</title>
<g id="a_edge1_Node000001_Node000002"><a xlink:title=" ">
<path fill="none" stroke="#63b8ff" d="M345.76,-48.99C331.61,-50.92 316.93,-52.92 303.25,-54.78"/>
<polygon fill="#63b8ff" stroke="#63b8ff" points="346.52,-52.42 355.96,-47.6 345.58,-45.48 346.52,-52.42"/>
</a>
</g>
</g>
<!-- Node4 -->
<g id="Node000004" class="node">
<title>Node4</title>
<g id="a_Node000004"><a xlink:href="classInterventionRepositoryProxy.html#a33c55d791cb43537090b8009c1f5a86a" target="_top" xlink:title="Subscribes a QObject to receive update notifications.">
<polygon fill="white" stroke="#666666" points="320,-30 164,-30 164,0 320,0 320,-30"/>
<text text-anchor="start" x="172" y="-18" font-family="Helvetica,sans-Serif" font-size="10.00">InterventionRepositoryProxy</text>
<text text-anchor="middle" x="242" y="-7" font-family="Helvetica,sans-Serif" font-size="10.00">::subscribe</text>
</a>
</g>
</g>
<!-- Node1&#45;&gt;Node4 -->
<g id="edge3_Node000001_Node000004" class="edge">
<title>Node1&#45;&gt;Node4</title>
<g id="a_edge3_Node000001_Node000004"><a xlink:title=" ">
<path fill="none" stroke="#63b8ff" d="M346.01,-29.05C337.44,-27.88 328.67,-26.68 320.05,-25.51"/>
<polygon fill="#63b8ff" stroke="#63b8ff" points="345.58,-32.52 355.96,-30.4 346.52,-25.58 345.58,-32.52"/>
</a>
</g>
</g>
<!-- Node3 -->
<g id="Node000003" class="node">
<title>Node3</title>
<g id="a_Node000003"><a xlink:href="classInterventionsListView.html#a1e18e26a39a91aaa4ba252033b3d5d57" target="_top" xlink:title="Constructs the list view and initializes its UI.">
<polygon fill="white" stroke="#666666" points="128,-78 0,-78 0,-48 128,-48 128,-78"/>
<text text-anchor="start" x="8" y="-66" font-family="Helvetica,sans-Serif" font-size="10.00">InterventionsListView</text>
<text text-anchor="middle" x="64" y="-55" font-family="Helvetica,sans-Serif" font-size="10.00">::InterventionsListView</text>
</a>
</g>
</g>
<!-- Node2&#45;&gt;Node3 -->
<g id="edge2_Node000002_Node000003" class="edge">
<title>Node2&#45;&gt;Node3</title>
<g id="a_edge2_Node000002_Node000003"><a xlink:title=" ">
<path fill="none" stroke="#63b8ff" d="M170.79,-63C156.69,-63 141.95,-63 128.11,-63"/>
<polygon fill="#63b8ff" stroke="#63b8ff" points="170.92,-66.5 180.92,-63 170.92,-59.5 170.92,-66.5"/>
</a>
</g>
</g>
</g>
</svg>
