<?xml version="1.0" encoding="UTF-8" standalone="no"?>
<!DOCTYPE svg PUBLIC "-//W3C//DTD SVG 1.1//EN"
 "http://www.w3.org/Graphics/SVG/1.1/DTD/svg11.dtd">
<!-- Generated by graphviz version 2.43.0 (0)
 -->
<!-- Title: LoginPage::update_ui_for_logged_out Pages: 1 -->
<svg width="631pt" height="64pt"
 viewBox="0.00 0.00 631.00 64.00" xmlns="http://www.w3.org/2000/svg" xmlns:xlink="http://www.w3.org/1999/xlink">
<g id="graph0" class="graph" transform="scale(1 1) rotate(0) translate(4 60)">
<title>LoginPage::update_ui_for_logged_out</title>
<!-- Node1 -->
<g id="Node000001" class="node">
<title>Node1</title>
<g id="a_Node000001"><a xlink:title="Resets the UI to the logged&#45;out state.">
<polygon fill="#999999" stroke="#666666" points="623,-42.5 503,-42.5 503,-12.5 623,-12.5 623,-42.5"/>
<text text-anchor="start" x="511" y="-30.5" font-family="Helvetica,sans-Serif" font-size="10.00">LoginPage::update_ui</text>
<text text-anchor="middle" x="563" y="-19.5" font-family="Helvetica,sans-Serif" font-size="10.00">_for_logged_out</text>
</a>
</g>
</g>
<!-- Node2 -->
<g id="Node000002" class="node">
<title>Node2</title>
<g id="a_Node000002"><a xlink:href="classLoginPage.html#ae8fe253b5cce2c0285f66e29346c407b" target="_top" xlink:title="Logs out the current user.">
<polygon fill="white" stroke="#666666" points="456,-56 353,-56 353,-37 456,-37 456,-56"/>
<text text-anchor="middle" x="404.5" y="-44" font-family="Helvetica,sans-Serif" font-size="10.00">LoginPage::logout</text>
</a>
</g>
</g>
<!-- Node1&#45;&gt;Node2 -->
<g id="edge1_Node000001_Node000002" class="edge">
<title>Node1&#45;&gt;Node2</title>
<g id="a_edge1_Node000001_Node000002"><a xlink:title=" ">
<path fill="none" stroke="#63b8ff" d="M492.6,-35.93C480.3,-37.42 467.7,-38.95 456.05,-40.36"/>
<polygon fill="#63b8ff" stroke="#63b8ff" points="493.33,-39.36 502.83,-34.68 492.49,-32.41 493.33,-39.36"/>
</a>
</g>
</g>
<!-- Node5 -->
<g id="Node000005" class="node">
<title>Node5</title>
<g id="a_Node000005"><a xlink:href="classLoginPage.html#ac103700888386d9b991f51467afc058c" target="_top" xlink:title="Called when the widget is shown, used to reset or update UI state.">
<polygon fill="white" stroke="#666666" points="467,-19 342,-19 342,0 467,0 467,-19"/>
<text text-anchor="middle" x="404.5" y="-7" font-family="Helvetica,sans-Serif" font-size="10.00">LoginPage::showEvent</text>
</a>
</g>
</g>
<!-- Node1&#45;&gt;Node5 -->
<g id="edge4_Node000001_Node000005" class="edge">
<title>Node1&#45;&gt;Node5</title>
<g id="a_edge4_Node000001_Node000005"><a xlink:title=" ">
<path fill="none" stroke="#63b8ff" d="M492.86,-19.55C484.28,-18.56 475.55,-17.56 467.09,-16.58"/>
<polygon fill="#63b8ff" stroke="#63b8ff" points="492.5,-23.03 502.83,-20.69 493.3,-16.08 492.5,-23.03"/>
</a>
</g>
</g>
<!-- Node3 -->
<g id="Node000003" class="node">
<title>Node3</title>
<g id="a_Node000003"><a xlink:href="classLoginPage.html#a7cd454f7668442d809030c3e5e6a66ea" target="_top" xlink:title="Connects UI elements to their respective slots.">
<polygon fill="white" stroke="#666666" points="306,-56 158,-56 158,-37 306,-37 306,-56"/>
<text text-anchor="middle" x="232" y="-44" font-family="Helvetica,sans-Serif" font-size="10.00">LoginPage::setup_connects</text>
</a>
</g>
</g>
<!-- Node2&#45;&gt;Node3 -->
<g id="edge2_Node000002_Node000003" class="edge">
<title>Node2&#45;&gt;Node3</title>
<g id="a_edge2_Node000002_Node000003"><a xlink:title=" ">
<path fill="none" stroke="#63b8ff" d="M342.64,-46.5C330.84,-46.5 318.36,-46.5 306.22,-46.5"/>
<polygon fill="#63b8ff" stroke="#63b8ff" points="342.81,-50 352.81,-46.5 342.81,-43 342.81,-50"/>
</a>
</g>
</g>
<!-- Node4 -->
<g id="Node000004" class="node">
<title>Node4</title>
<g id="a_Node000004"><a xlink:href="classLoginPage.html#ac80d4431cd7779e6ae5f8c3b17fe6c3f" target="_top" xlink:title="Constructs the login page UI.">
<polygon fill="white" stroke="#666666" points="122,-56 0,-56 0,-37 122,-37 122,-56"/>
<text text-anchor="middle" x="61" y="-44" font-family="Helvetica,sans-Serif" font-size="10.00">LoginPage::LoginPage</text>
</a>
</g>
</g>
<!-- Node3&#45;&gt;Node4 -->
<g id="edge3_Node000003_Node000004" class="edge">
<title>Node3&#45;&gt;Node4</title>
<g id="a_edge3_Node000003_Node000004"><a xlink:title=" ">
<path fill="none" stroke="#63b8ff" d="M147.72,-46.5C139.06,-46.5 130.38,-46.5 122.05,-46.5"/>
<polygon fill="#63b8ff" stroke="#63b8ff" points="147.86,-50 157.86,-46.5 147.86,-43 147.86,-50"/>
</a>
</g>
</g>
</g>
</svg>
