<?xml version="1.0" encoding="UTF-8" standalone="no"?>
<!DOCTYPE svg PUBLIC "-//W3C//DTD SVG 1.1//EN"
 "http://www.w3.org/Graphics/SVG/1.1/DTD/svg11.dtd">
<!-- Generated by graphviz version 2.43.0 (0)
 -->
<!-- Title: LoginPage::LoginPage Pages: 1 -->
<svg width="669pt" height="381pt"
 viewBox="0.00 0.00 669.00 380.50" xmlns="http://www.w3.org/2000/svg" xmlns:xlink="http://www.w3.org/1999/xlink">
<g id="graph0" class="graph" transform="scale(1 1) rotate(0) translate(4 376.5)">
<title>LoginPage::LoginPage</title>
<!-- Node1 -->
<g id="Node000001" class="node">
<title>Node1</title>
<g id="a_Node000001"><a xlink:title="Constructs the login page UI.">
<polygon fill="#999999" stroke="#666666" points="122,-117 0,-117 0,-98 122,-98 122,-117"/>
<text text-anchor="middle" x="61" y="-105" font-family="Helvetica,sans-Serif" font-size="10.00">LoginPage::LoginPage</text>
</a>
</g>
</g>
<!-- Node2 -->
<g id="Node000002" class="node">
<title>Node2</title>
<g id="a_Node000002"><a xlink:href="classLoginPage.html#a7cd454f7668442d809030c3e5e6a66ea" target="_top" xlink:title="Connects UI elements to their respective slots.">
<polygon fill="white" stroke="#666666" points="306,-148 158,-148 158,-129 306,-129 306,-148"/>
<text text-anchor="middle" x="232" y="-136" font-family="Helvetica,sans-Serif" font-size="10.00">LoginPage::setup_connects</text>
</a>
</g>
</g>
<!-- Node1&#45;&gt;Node2 -->
<g id="edge1_Node000001_Node000002" class="edge">
<title>Node1&#45;&gt;Node2</title>
<g id="a_edge1_Node000001_Node000002"><a xlink:title=" ">
<path fill="none" stroke="#63b8ff" d="M114.08,-117.05C131.51,-120.25 151.11,-123.85 169.21,-127.17"/>
<polygon fill="#63b8ff" stroke="#63b8ff" points="168.62,-130.62 179.09,-128.98 169.88,-123.73 168.62,-130.62"/>
</a>
</g>
</g>
<!-- Node15 -->
<g id="Node000015" class="node">
<title>Node15</title>
<g id="a_Node000015"><a xlink:href="classLoginPage.html#ae76b17d30c36a69b9e2f70d98f2214fd" target="_top" xlink:title="Initializes and arranges the UI components.">
<polygon fill="white" stroke="#666666" points="288.5,-99 175.5,-99 175.5,-80 288.5,-80 288.5,-99"/>
<text text-anchor="middle" x="232" y="-87" font-family="Helvetica,sans-Serif" font-size="10.00">LoginPage::setup_ui</text>
</a>
</g>
</g>
<!-- Node1&#45;&gt;Node15 -->
<g id="edge19_Node000001_Node000015" class="edge">
<title>Node1&#45;&gt;Node15</title>
<g id="a_edge19_Node000001_Node000015"><a xlink:title=" ">
<path fill="none" stroke="#63b8ff" d="M122.06,-101.1C136.03,-99.62 150.98,-98.02 165.18,-96.51"/>
<polygon fill="#63b8ff" stroke="#63b8ff" points="165.8,-99.96 175.37,-95.43 165.05,-93 165.8,-99.96"/>
</a>
</g>
</g>
<!-- Node3 -->
<g id="Node000003" class="node">
<title>Node3</title>
<g id="a_Node000003"><a xlink:href="classLoginPage.html#ac14065c6e2529048d568cddef19f3028" target="_top" xlink:title="Attempts to log in with the provided username and password.">
<polygon fill="white" stroke="#666666" points="460.5,-243.5 349.5,-243.5 349.5,-213.5 460.5,-213.5 460.5,-243.5"/>
<text text-anchor="start" x="357.5" y="-231.5" font-family="Helvetica,sans-Serif" font-size="10.00">LoginPage::attempt</text>
<text text-anchor="middle" x="405" y="-220.5" font-family="Helvetica,sans-Serif" font-size="10.00">_login</text>
</a>
</g>
</g>
<!-- Node2&#45;&gt;Node3 -->
<g id="edge2_Node000002_Node000003" class="edge">
<title>Node2&#45;&gt;Node3</title>
<g id="a_edge2_Node000002_Node000003"><a xlink:title=" ">
<path fill="none" stroke="#63b8ff" d="M251.3,-148.13C278.59,-162.49 330.54,-189.84 366.21,-208.61"/>
<polygon fill="#63b8ff" stroke="#63b8ff" points="364.87,-211.86 375.35,-213.42 368.13,-205.67 364.87,-211.86"/>
</a>
</g>
</g>
<!-- Node10 -->
<g id="Node000010" class="node">
<title>Node10</title>
<g id="a_Node000010"><a xlink:href="classLoginPage.html#ad592b0f8f5de3de894e0b2cdbcc982f3" target="_top" xlink:title="Logs in as a guest (no credentials required).">
<polygon fill="white" stroke="#666666" points="461.5,-163.5 348.5,-163.5 348.5,-133.5 461.5,-133.5 461.5,-163.5"/>
<text text-anchor="start" x="356.5" y="-151.5" font-family="Helvetica,sans-Serif" font-size="10.00">LoginPage::login_as</text>
<text text-anchor="middle" x="405" y="-140.5" font-family="Helvetica,sans-Serif" font-size="10.00">_guest</text>
</a>
</g>
</g>
<!-- Node2&#45;&gt;Node10 -->
<g id="edge9_Node000002_Node000010" class="edge">
<title>Node2&#45;&gt;Node10</title>
<g id="a_edge9_Node000002_Node000010"><a xlink:title=" ">
<path fill="none" stroke="#63b8ff" d="M306.02,-142.77C316.64,-143.39 327.52,-144.03 337.99,-144.64"/>
<polygon fill="#63b8ff" stroke="#63b8ff" points="338.11,-148.15 348.3,-145.24 338.52,-141.16 338.11,-148.15"/>
</a>
</g>
</g>
<!-- Node12 -->
<g id="Node000012" class="node">
<title>Node12</title>
<g id="a_Node000012"><a xlink:href="classLoginPage.html#ae8fe253b5cce2c0285f66e29346c407b" target="_top" xlink:title="Logs out the current user.">
<polygon fill="white" stroke="#666666" points="456.5,-112 353.5,-112 353.5,-93 456.5,-93 456.5,-112"/>
<text text-anchor="middle" x="405" y="-100" font-family="Helvetica,sans-Serif" font-size="10.00">LoginPage::logout</text>
</a>
</g>
</g>
<!-- Node2&#45;&gt;Node12 -->
<g id="edge14_Node000002_Node000012" class="edge">
<title>Node2&#45;&gt;Node12</title>
<g id="a_edge14_Node000002_Node000012"><a xlink:title=" ">
<path fill="none" stroke="#63b8ff" d="M278.38,-128.95C300.01,-124.39 326.08,-118.91 348.84,-114.11"/>
<polygon fill="#63b8ff" stroke="#63b8ff" points="349.64,-117.52 358.71,-112.03 348.2,-110.67 349.64,-117.52"/>
</a>
</g>
</g>
<!-- Node4 -->
<g id="Node000004" class="node">
<title>Node4</title>
<g id="a_Node000004"><a xlink:href="classLoginPage.html#abc9ba65e91d719c00b7fa31ac3577fa6" target="_top" xlink:title="Clears the login input fields.">
<polygon fill="white" stroke="#666666" points="646.5,-238 518.5,-238 518.5,-219 646.5,-219 646.5,-238"/>
<text text-anchor="middle" x="582.5" y="-226" font-family="Helvetica,sans-Serif" font-size="10.00">LoginPage::clear_fields</text>
</a>
</g>
</g>
<!-- Node3&#45;&gt;Node4 -->
<g id="edge3_Node000003_Node000004" class="edge">
<title>Node3&#45;&gt;Node4</title>
<g id="a_edge3_Node000003_Node000004"><a xlink:title=" ">
<path fill="none" stroke="#63b8ff" d="M460.57,-228.5C475.59,-228.5 492.13,-228.5 508.04,-228.5"/>
<polygon fill="#63b8ff" stroke="#63b8ff" points="508.37,-232 518.37,-228.5 508.37,-225 508.37,-232"/>
</a>
</g>
</g>
<!-- Node5 -->
<g id="Node000005" class="node">
<title>Node5</title>
<g id="a_Node000005"><a xlink:href="classAuthenticationService.html#a8c681492f74d5e7b0338ec3a5525c0a5" target="_top" xlink:title=" ">
<polygon fill="white" stroke="#666666" points="644.5,-372.5 520.5,-372.5 520.5,-342.5 644.5,-342.5 644.5,-372.5"/>
<text text-anchor="start" x="528.5" y="-360.5" font-family="Helvetica,sans-Serif" font-size="10.00">AuthenticationService</text>
<text text-anchor="middle" x="582.5" y="-349.5" font-family="Helvetica,sans-Serif" font-size="10.00">::current_user</text>
</a>
</g>
</g>
<!-- Node3&#45;&gt;Node5 -->
<g id="edge4_Node000003_Node000005" class="edge">
<title>Node3&#45;&gt;Node5</title>
<g id="a_edge4_Node000003_Node000005"><a xlink:title=" ">
<path fill="none" stroke="#63b8ff" d="M416.19,-243.7C432.24,-266.49 465.55,-309.39 504,-333.5 506.74,-335.22 509.62,-336.83 512.59,-338.32"/>
<polygon fill="#63b8ff" stroke="#63b8ff" points="511.14,-341.51 521.69,-342.5 514.06,-335.15 511.14,-341.51"/>
</a>
</g>
</g>
<!-- Node6 -->
<g id="Node000006" class="node">
<title>Node6</title>
<g id="a_Node000006"><a xlink:href="UserAuthentication_8cpp.html#a55c1b35e9ad9f9520bbd0da24a54c23d" target="_top" xlink:title="Hashes a plain&#45;text password (stub implementation).">
<polygon fill="white" stroke="#666666" points="628.5,-324 536.5,-324 536.5,-305 628.5,-305 628.5,-324"/>
<text text-anchor="middle" x="582.5" y="-312" font-family="Helvetica,sans-Serif" font-size="10.00">hash_password</text>
</a>
</g>
</g>
<!-- Node3&#45;&gt;Node6 -->
<g id="edge5_Node000003_Node000006" class="edge">
<title>Node3&#45;&gt;Node6</title>
<g id="a_edge5_Node000003_Node000006"><a xlink:title=" ">
<path fill="none" stroke="#63b8ff" d="M423.95,-243.74C442.75,-258.96 473.7,-281.97 504,-295.5 511.12,-298.68 518.85,-301.38 526.58,-303.65"/>
<polygon fill="#63b8ff" stroke="#63b8ff" points="525.75,-307.06 536.32,-306.32 527.6,-300.3 525.75,-307.06"/>
</a>
</g>
</g>
<!-- Node7 -->
<g id="Node000007" class="node">
<title>Node7</title>
<g id="a_Node000007"><a xlink:href="classAuthenticationService.html#a2dc8be4689e371d7a773ac008b21cf3a" target="_top" xlink:title=" ">
<polygon fill="white" stroke="#666666" points="644.5,-163.5 520.5,-163.5 520.5,-133.5 644.5,-133.5 644.5,-163.5"/>
<text text-anchor="start" x="528.5" y="-151.5" font-family="Helvetica,sans-Serif" font-size="10.00">AuthenticationService</text>
<text text-anchor="middle" x="582.5" y="-140.5" font-family="Helvetica,sans-Serif" font-size="10.00">::instance</text>
</a>
</g>
</g>
<!-- Node3&#45;&gt;Node7 -->
<g id="edge6_Node000003_Node000007" class="edge">
<title>Node3&#45;&gt;Node7</title>
<g id="a_edge6_Node000003_Node000007"><a xlink:title=" ">
<path fill="none" stroke="#63b8ff" d="M429.88,-213.32C449.3,-201.41 477.72,-184.98 504,-173.5 509.1,-171.27 514.47,-169.14 519.89,-167.12"/>
<polygon fill="#63b8ff" stroke="#63b8ff" points="521.45,-170.28 529.69,-163.63 519.09,-163.69 521.45,-170.28"/>
</a>
</g>
</g>
<!-- Node8 -->
<g id="Node000008" class="node">
<title>Node8</title>
<g id="a_Node000008"><a xlink:href="classLoginPage.html#a1c6c8b9e73bdbfa1db03802092643731" target="_top" xlink:title="Emitted when a user has successfully logged in.">
<polygon fill="white" stroke="#666666" points="658.5,-201 506.5,-201 506.5,-182 658.5,-182 658.5,-201"/>
<text text-anchor="middle" x="582.5" y="-189" font-family="Helvetica,sans-Serif" font-size="10.00">LoginPage::login_successful</text>
</a>
</g>
</g>
<!-- Node3&#45;&gt;Node8 -->
<g id="edge7_Node000003_Node000008" class="edge">
<title>Node3&#45;&gt;Node8</title>
<g id="a_edge7_Node000003_Node000008"><a xlink:title=" ">
<path fill="none" stroke="#63b8ff" d="M460.57,-217C481.49,-212.58 505.37,-207.55 526.35,-203.13"/>
<polygon fill="#63b8ff" stroke="#63b8ff" points="527.33,-206.5 536.39,-201.01 525.89,-199.65 527.33,-206.5"/>
</a>
</g>
</g>
<!-- Node9 -->
<g id="Node000009" class="node">
<title>Node9</title>
<g id="a_Node000009"><a xlink:href="classLoginPage.html#ab85c215a7ad69e03fa4b3d07b6687c2e" target="_top" xlink:title="Updates the UI to reflect the state of a logged&#45;in user.">
<polygon fill="white" stroke="#666666" points="642.5,-286.5 522.5,-286.5 522.5,-256.5 642.5,-256.5 642.5,-286.5"/>
<text text-anchor="start" x="530.5" y="-274.5" font-family="Helvetica,sans-Serif" font-size="10.00">LoginPage::update_ui</text>
<text text-anchor="middle" x="582.5" y="-263.5" font-family="Helvetica,sans-Serif" font-size="10.00">_for_logged_in_user</text>
</a>
</g>
</g>
<!-- Node3&#45;&gt;Node9 -->
<g id="edge8_Node000003_Node000009" class="edge">
<title>Node3&#45;&gt;Node9</title>
<g id="a_edge8_Node000003_Node000009"><a xlink:title=" ">
<path fill="none" stroke="#63b8ff" d="M460.57,-241.87C476.97,-245.89 495.19,-250.35 512.4,-254.57"/>
<polygon fill="#63b8ff" stroke="#63b8ff" points="511.85,-258.04 522.4,-257.02 513.52,-251.24 511.85,-258.04"/>
</a>
</g>
</g>
<!-- Node10&#45;&gt;Node4 -->
<g id="edge10_Node000010_Node000004" class="edge">
<title>Node10&#45;&gt;Node4</title>
<g id="a_edge10_Node000010_Node000004"><a xlink:title=" ">
<path fill="none" stroke="#63b8ff" d="M425.55,-163.67C444.59,-177.75 474.84,-198.3 504,-210.5 509.02,-212.6 514.33,-214.48 519.71,-216.15"/>
<polygon fill="#63b8ff" stroke="#63b8ff" points="518.88,-219.56 529.46,-218.96 520.82,-212.83 518.88,-219.56"/>
</a>
</g>
</g>
<!-- Node10&#45;&gt;Node7 -->
<g id="edge11_Node000010_Node000007" class="edge">
<title>Node10&#45;&gt;Node7</title>
<g id="a_edge11_Node000010_Node000007"><a xlink:title=" ">
<path fill="none" stroke="#63b8ff" d="M461.53,-148.5C476.85,-148.5 493.7,-148.5 509.79,-148.5"/>
<polygon fill="#63b8ff" stroke="#63b8ff" points="510.24,-152 520.24,-148.5 510.24,-145 510.24,-152"/>
</a>
</g>
</g>
<!-- Node10&#45;&gt;Node8 -->
<g id="edge12_Node000010_Node000008" class="edge">
<title>Node10&#45;&gt;Node8</title>
<g id="a_edge12_Node000010_Node000008"><a xlink:title=" ">
<path fill="none" stroke="#63b8ff" d="M461.53,-162.11C484.43,-167.72 510.74,-174.16 532.87,-179.58"/>
<polygon fill="#63b8ff" stroke="#63b8ff" points="532.17,-183.02 542.71,-182 533.83,-176.22 532.17,-183.02"/>
</a>
</g>
</g>
<!-- Node11 -->
<g id="Node000011" class="node">
<title>Node11</title>
<g id="a_Node000011"><a xlink:href="classAuthenticationService.html#ac9e51df93820c8d08347adae7fd4fbb7" target="_top" xlink:title=" ">
<polygon fill="white" stroke="#666666" points="644.5,-115.5 520.5,-115.5 520.5,-85.5 644.5,-85.5 644.5,-115.5"/>
<text text-anchor="start" x="528.5" y="-103.5" font-family="Helvetica,sans-Serif" font-size="10.00">AuthenticationService</text>
<text text-anchor="middle" x="582.5" y="-92.5" font-family="Helvetica,sans-Serif" font-size="10.00">::logout</text>
</a>
</g>
</g>
<!-- Node10&#45;&gt;Node11 -->
<g id="edge13_Node000010_Node000011" class="edge">
<title>Node10&#45;&gt;Node11</title>
<g id="a_edge13_Node000010_Node000011"><a xlink:title=" ">
<path fill="none" stroke="#63b8ff" d="M461.05,-133.44C478.77,-128.6 498.57,-123.18 516.92,-118.16"/>
<polygon fill="#63b8ff" stroke="#63b8ff" points="517.93,-121.52 526.65,-115.5 516.08,-114.76 517.93,-121.52"/>
</a>
</g>
</g>
<!-- Node12&#45;&gt;Node7 -->
<g id="edge15_Node000012_Node000007" class="edge">
<title>Node12&#45;&gt;Node7</title>
<g id="a_edge15_Node000012_Node000007"><a xlink:title=" ">
<path fill="none" stroke="#63b8ff" d="M442.36,-112.03C463.1,-117.47 489.75,-124.45 514.17,-130.85"/>
<polygon fill="#63b8ff" stroke="#63b8ff" points="513.55,-134.31 524.11,-133.46 515.32,-127.54 513.55,-134.31"/>
</a>
</g>
</g>
<!-- Node12&#45;&gt;Node11 -->
<g id="edge16_Node000012_Node000011" class="edge">
<title>Node12&#45;&gt;Node11</title>
<g id="a_edge16_Node000012_Node000011"><a xlink:title=" ">
<path fill="none" stroke="#63b8ff" d="M456.76,-101.92C473.35,-101.73 492.09,-101.52 509.92,-101.32"/>
<polygon fill="#63b8ff" stroke="#63b8ff" points="510.32,-104.81 520.28,-101.2 510.24,-97.81 510.32,-104.81"/>
</a>
</g>
</g>
<!-- Node13 -->
<g id="Node000013" class="node">
<title>Node13</title>
<g id="a_Node000013"><a xlink:href="classLoginPage.html#a01f112292372e79480e00057fd689e2f" target="_top" xlink:title="Emitted when the user requests to log out.">
<polygon fill="white" stroke="#666666" points="661,-19 504,-19 504,0 661,0 661,-19"/>
<text text-anchor="middle" x="582.5" y="-7" font-family="Helvetica,sans-Serif" font-size="10.00">LoginPage::logout_requested</text>
</a>
</g>
</g>
<!-- Node12&#45;&gt;Node13 -->
<g id="edge17_Node000012_Node000013" class="edge">
<title>Node12&#45;&gt;Node13</title>
<g id="a_edge17_Node000012_Node000013"><a xlink:title=" ">
<path fill="none" stroke="#63b8ff" d="M450.85,-92.89C456.95,-90.43 462.87,-87.35 468,-83.5 491.36,-65.95 480.15,-45.38 504,-28.5 506.71,-26.58 509.6,-24.85 512.6,-23.3"/>
<polygon fill="#63b8ff" stroke="#63b8ff" points="514.2,-26.42 521.9,-19.14 511.34,-20.03 514.2,-26.42"/>
</a>
</g>
</g>
<!-- Node14 -->
<g id="Node000014" class="node">
<title>Node14</title>
<g id="a_Node000014"><a xlink:href="classLoginPage.html#a64039d7b1a1fde6e38e7682bb17e94a0" target="_top" xlink:title="Resets the UI to the logged&#45;out state.">
<polygon fill="white" stroke="#666666" points="642.5,-67.5 522.5,-67.5 522.5,-37.5 642.5,-37.5 642.5,-67.5"/>
<text text-anchor="start" x="530.5" y="-55.5" font-family="Helvetica,sans-Serif" font-size="10.00">LoginPage::update_ui</text>
<text text-anchor="middle" x="582.5" y="-44.5" font-family="Helvetica,sans-Serif" font-size="10.00">_for_logged_out</text>
</a>
</g>
</g>
<!-- Node12&#45;&gt;Node14 -->
<g id="edge18_Node000012_Node000014" class="edge">
<title>Node12&#45;&gt;Node14</title>
<g id="a_edge18_Node000012_Node000014"><a xlink:title=" ">
<path fill="none" stroke="#63b8ff" d="M439.42,-92.98C461.83,-86.59 492.04,-77.99 518.83,-70.35"/>
<polygon fill="#63b8ff" stroke="#63b8ff" points="519.87,-73.7 528.53,-67.59 517.95,-66.97 519.87,-73.7"/>
</a>
</g>
</g>
<!-- Node16 -->
<g id="Node000016" class="node">
<title>Node16</title>
<g id="a_Node000016"><a xlink:href="classLoginPage.html#a24d5e969c1cefee784c6b395d5b1c016" target="_top" xlink:title="Applies a tint to an icon loaded from the given path.">
<polygon fill="white" stroke="#666666" points="468,-75 342,-75 342,-56 468,-56 468,-75"/>
<text text-anchor="middle" x="405" y="-63" font-family="Helvetica,sans-Serif" font-size="10.00">LoginPage::tinted_icon</text>
</a>
</g>
</g>
<!-- Node15&#45;&gt;Node16 -->
<g id="edge20_Node000015_Node000016" class="edge">
<title>Node15&#45;&gt;Node16</title>
<g id="a_edge20_Node000015_Node000016"><a xlink:title=" ">
<path fill="none" stroke="#63b8ff" d="M288.52,-81.71C302.39,-79.76 317.46,-77.65 331.99,-75.61"/>
<polygon fill="#63b8ff" stroke="#63b8ff" points="332.53,-79.06 341.95,-74.21 331.56,-72.13 332.53,-79.06"/>
</a>
</g>
</g>
</g>
</svg>
