<?xml version="1.0" encoding="UTF-8" standalone="no"?>
<!DOCTYPE svg PUBLIC "-//W3C//DTD SVG 1.1//EN"
 "http://www.w3.org/Graphics/SVG/1.1/DTD/svg11.dtd">
<!-- Generated by graphviz version 2.43.0 (0)
 -->
<!-- Title: TechMapp::on_logout_requested Pages: 1 -->
<svg width="466pt" height="38pt"
 viewBox="0.00 0.00 466.00 38.00" xmlns="http://www.w3.org/2000/svg" xmlns:xlink="http://www.w3.org/1999/xlink">
<g id="graph0" class="graph" transform="scale(1 1) rotate(0) translate(4 34)">
<title>TechMapp::on_logout_requested</title>
<!-- Node1 -->
<g id="Node000001" class="node">
<title>Node1</title>
<g id="a_Node000001"><a xlink:title="Called when a logout is requested by the user.">
<polygon fill="#999999" stroke="#666666" points="458,-30 339,-30 339,0 458,0 458,-30"/>
<text text-anchor="start" x="347" y="-18" font-family="Helvetica,sans-Serif" font-size="10.00">TechMapp::on_logout</text>
<text text-anchor="middle" x="398.5" y="-7" font-family="Helvetica,sans-Serif" font-size="10.00">_requested</text>
</a>
</g>
</g>
<!-- Node2 -->
<g id="Node000002" class="node">
<title>Node2</title>
<g id="a_Node000002"><a xlink:href="classTechMapp.html#af0e39c1d95a040c849f8f920b4ba4ffe" target="_top" xlink:title="Connects internal signals and slots for UI and authentication handling.">
<polygon fill="white" stroke="#666666" points="303,-24.5 156,-24.5 156,-5.5 303,-5.5 303,-24.5"/>
<text text-anchor="middle" x="229.5" y="-12.5" font-family="Helvetica,sans-Serif" font-size="10.00">TechMapp::setup_connects</text>
</a>
</g>
</g>
<!-- Node1&#45;&gt;Node2 -->
<g id="edge1_Node000001_Node000002" class="edge">
<title>Node1&#45;&gt;Node2</title>
<g id="a_edge1_Node000001_Node000002"><a xlink:title=" ">
<path fill="none" stroke="#63b8ff" d="M328.54,-15C320.17,-15 311.61,-15 303.19,-15"/>
<polygon fill="#63b8ff" stroke="#63b8ff" points="328.62,-18.5 338.62,-15 328.62,-11.5 328.62,-18.5"/>
</a>
</g>
</g>
<!-- Node3 -->
<g id="Node000003" class="node">
<title>Node3</title>
<g id="a_Node000003"><a xlink:href="classTechMapp.html#ac4d485efbe0d00914dcfb9680a39ec77" target="_top" xlink:title="Constructs the main application window.">
<polygon fill="white" stroke="#666666" points="120,-24.5 0,-24.5 0,-5.5 120,-5.5 120,-24.5"/>
<text text-anchor="middle" x="60" y="-12.5" font-family="Helvetica,sans-Serif" font-size="10.00">TechMapp::TechMapp</text>
</a>
</g>
</g>
<!-- Node2&#45;&gt;Node3 -->
<g id="edge2_Node000002_Node000003" class="edge">
<title>Node2&#45;&gt;Node3</title>
<g id="a_edge2_Node000002_Node000003"><a xlink:title=" ">
<path fill="none" stroke="#63b8ff" d="M145.5,-15C136.95,-15 128.39,-15 120.17,-15"/>
<polygon fill="#63b8ff" stroke="#63b8ff" points="145.52,-18.5 155.52,-15 145.52,-11.5 145.52,-18.5"/>
</a>
</g>
</g>
</g>
</svg>
