<?xml version="1.0" encoding="UTF-8" standalone="no"?>
<!DOCTYPE svg PUBLIC "-//W3C//DTD SVG 1.1//EN"
 "http://www.w3.org/Graphics/SVG/1.1/DTD/svg11.dtd">
<!-- Generated by graphviz version 2.43.0 (0)
 -->
<!-- Title: TechniciansPage::setup_ui Pages: 1 -->
<svg width="294pt" height="134pt"
 viewBox="0.00 0.00 294.00 134.00" xmlns="http://www.w3.org/2000/svg" xmlns:xlink="http://www.w3.org/1999/xlink">
<g id="graph0" class="graph" transform="scale(1 1) rotate(0) translate(4 130)">
<title>TechniciansPage::setup_ui</title>
<!-- Node1 -->
<g id="Node000001" class="node">
<title>Node1</title>
<g id="a_Node000001"><a xlink:title="Sets up the layout and UI widgets.">
<polygon fill="#999999" stroke="#666666" points="143,-72.5 0,-72.5 0,-53.5 143,-53.5 143,-72.5"/>
<text text-anchor="middle" x="71.5" y="-60.5" font-family="Helvetica,sans-Serif" font-size="10.00">TechniciansPage::setup_ui</text>
</a>
</g>
</g>
<!-- Node2 -->
<g id="Node000002" class="node">
<title>Node2</title>
<g id="a_Node000002"><a xlink:href="classEntityEditorLayout.html#aec5a1399c28c99ba38f6ab384c1e5cbb" target="_top" xlink:title="Returns a pointer to the action button.">
<polygon fill="white" stroke="#666666" points="286,-126 179,-126 179,-96 286,-96 286,-126"/>
<text text-anchor="start" x="187" y="-114" font-family="Helvetica,sans-Serif" font-size="10.00">EntityEditorLayout</text>
<text text-anchor="middle" x="232.5" y="-103" font-family="Helvetica,sans-Serif" font-size="10.00">::action_button</text>
</a>
</g>
</g>
<!-- Node1&#45;&gt;Node2 -->
<g id="edge1_Node000001_Node000002" class="edge">
<title>Node1&#45;&gt;Node2</title>
<g id="a_edge1_Node000001_Node000002"><a xlink:title=" ">
<path fill="none" stroke="#63b8ff" d="M104.29,-72.6C123.64,-78.44 148.97,-86.09 171.93,-93.02"/>
<polygon fill="#63b8ff" stroke="#63b8ff" points="171.02,-96.4 181.6,-95.94 173.04,-89.7 171.02,-96.4"/>
</a>
</g>
</g>
<!-- Node3 -->
<g id="Node000003" class="node">
<title>Node3</title>
<g id="a_Node000003"><a xlink:href="classEntityEditorLayout.html#a05c07f7c50a056831200d32048918549" target="_top" xlink:title="Sets the widget that will appear on the left side of the main content area.">
<polygon fill="white" stroke="#666666" points="286,-78 179,-78 179,-48 286,-48 286,-78"/>
<text text-anchor="start" x="187" y="-66" font-family="Helvetica,sans-Serif" font-size="10.00">EntityEditorLayout</text>
<text text-anchor="middle" x="232.5" y="-55" font-family="Helvetica,sans-Serif" font-size="10.00">::set_left_widget</text>
</a>
</g>
</g>
<!-- Node1&#45;&gt;Node3 -->
<g id="edge2_Node000001_Node000003" class="edge">
<title>Node1&#45;&gt;Node3</title>
<g id="a_edge2_Node000001_Node000003"><a xlink:title=" ">
<path fill="none" stroke="#63b8ff" d="M143.17,-63C151.66,-63 160.28,-63 168.65,-63"/>
<polygon fill="#63b8ff" stroke="#63b8ff" points="168.71,-66.5 178.71,-63 168.71,-59.5 168.71,-66.5"/>
</a>
</g>
</g>
<!-- Node4 -->
<g id="Node000004" class="node">
<title>Node4</title>
<g id="a_Node000004"><a xlink:href="classEntityEditorLayout.html#ac65c199970eb9919a60381bd7f1f9d49" target="_top" xlink:title="Sets the widget that will appear on the right side of the main content area.">
<polygon fill="white" stroke="#666666" points="286,-30 179,-30 179,0 286,0 286,-30"/>
<text text-anchor="start" x="187" y="-18" font-family="Helvetica,sans-Serif" font-size="10.00">EntityEditorLayout</text>
<text text-anchor="middle" x="232.5" y="-7" font-family="Helvetica,sans-Serif" font-size="10.00">::set_right_widget</text>
</a>
</g>
</g>
<!-- Node1&#45;&gt;Node4 -->
<g id="edge3_Node000001_Node000004" class="edge">
<title>Node1&#45;&gt;Node4</title>
<g id="a_edge3_Node000001_Node000004"><a xlink:title=" ">
<path fill="none" stroke="#63b8ff" d="M104.29,-53.4C123.64,-47.56 148.97,-39.91 171.93,-32.98"/>
<polygon fill="#63b8ff" stroke="#63b8ff" points="173.04,-36.3 181.6,-30.06 171.02,-29.6 173.04,-36.3"/>
</a>
</g>
</g>
</g>
</svg>
