<?xml version="1.0" encoding="UTF-8" standalone="no"?>
<!DOCTYPE svg PUBLIC "-//W3C//DTD SVG 1.1//EN"
 "http://www.w3.org/Graphics/SVG/1.1/DTD/svg11.dtd">
<!-- Generated by graphviz version 2.43.0 (0)
 -->
<!-- Title: EntityEditorLayout::action_button Pages: 1 -->
<svg width="521pt" height="64pt"
 viewBox="0.00 0.00 521.00 64.00" xmlns="http://www.w3.org/2000/svg" xmlns:xlink="http://www.w3.org/1999/xlink">
<g id="graph0" class="graph" transform="scale(1 1) rotate(0) translate(4 60)">
<title>EntityEditorLayout::action_button</title>
<!-- Node1 -->
<g id="Node000001" class="node">
<title>Node1</title>
<g id="a_Node000001"><a xlink:title="Returns a pointer to the action button.">
<polygon fill="#999999" stroke="#666666" points="513,-42.5 406,-42.5 406,-12.5 513,-12.5 513,-42.5"/>
<text text-anchor="start" x="414" y="-30.5" font-family="Helvetica,sans-Serif" font-size="10.00">EntityEditorLayout</text>
<text text-anchor="middle" x="459.5" y="-19.5" font-family="Helvetica,sans-Serif" font-size="10.00">::action_button</text>
</a>
</g>
</g>
<!-- Node2 -->
<g id="Node000002" class="node">
<title>Node2</title>
<g id="a_Node000002"><a xlink:href="classInterventionPage.html#acdf427139a7423856cecd950d8da8198" target="_top" xlink:title="Initializes and arranges all UI elements.">
<polygon fill="white" stroke="#666666" points="370,-56 224,-56 224,-37 370,-37 370,-56"/>
<text text-anchor="middle" x="297" y="-44" font-family="Helvetica,sans-Serif" font-size="10.00">InterventionPage::setup_ui</text>
</a>
</g>
</g>
<!-- Node1&#45;&gt;Node2 -->
<g id="edge1_Node000001_Node000002" class="edge">
<title>Node1&#45;&gt;Node2</title>
<g id="a_edge1_Node000001_Node000002"><a xlink:title=" ">
<path fill="none" stroke="#63b8ff" d="M395.85,-34.92C387.44,-35.91 378.76,-36.94 370.2,-37.95"/>
<polygon fill="#63b8ff" stroke="#63b8ff" points="396.43,-38.37 405.95,-33.72 395.6,-31.42 396.43,-38.37"/>
</a>
</g>
</g>
<!-- Node4 -->
<g id="Node000004" class="node">
<title>Node4</title>
<g id="a_Node000004"><a xlink:href="classTechniciansPage.html#ae411af32b5edf92ca920cb5ffbe949e6" target="_top" xlink:title="Sets up the layout and UI widgets.">
<polygon fill="white" stroke="#666666" points="368.5,-19 225.5,-19 225.5,0 368.5,0 368.5,-19"/>
<text text-anchor="middle" x="297" y="-7" font-family="Helvetica,sans-Serif" font-size="10.00">TechniciansPage::setup_ui</text>
</a>
</g>
</g>
<!-- Node1&#45;&gt;Node4 -->
<g id="edge3_Node000001_Node000004" class="edge">
<title>Node1&#45;&gt;Node4</title>
<g id="a_edge3_Node000001_Node000004"><a xlink:title=" ">
<path fill="none" stroke="#63b8ff" d="M395.73,-20.46C386.88,-19.47 377.74,-18.44 368.76,-17.44"/>
<polygon fill="#63b8ff" stroke="#63b8ff" points="395.62,-23.97 405.95,-21.61 396.4,-17.01 395.62,-23.97"/>
</a>
</g>
</g>
<!-- Node3 -->
<g id="Node000003" class="node">
<title>Node3</title>
<g id="a_Node000003"><a xlink:href="classInterventionPage.html#a1abb99ba568e63ec484d032e15498872" target="_top" xlink:title="Constructs the InterventionPage widget.">
<polygon fill="white" stroke="#666666" points="188,-56 0,-56 0,-37 188,-37 188,-56"/>
<text text-anchor="middle" x="94" y="-44" font-family="Helvetica,sans-Serif" font-size="10.00">InterventionPage::InterventionPage</text>
</a>
</g>
</g>
<!-- Node2&#45;&gt;Node3 -->
<g id="edge2_Node000002_Node000003" class="edge">
<title>Node2&#45;&gt;Node3</title>
<g id="a_edge2_Node000002_Node000003"><a xlink:title=" ">
<path fill="none" stroke="#63b8ff" d="M213.65,-46.5C205.3,-46.5 196.79,-46.5 188.34,-46.5"/>
<polygon fill="#63b8ff" stroke="#63b8ff" points="213.72,-50 223.72,-46.5 213.72,-43 213.72,-50"/>
</a>
</g>
</g>
<!-- Node5 -->
<g id="Node000005" class="node">
<title>Node5</title>
<g id="a_Node000005"><a xlink:href="classTechniciansPage.html#a63e7ceda5d2d5ec4a8a1304bfce57a1f" target="_top" xlink:title="Constructs the TechniciansPage.">
<polygon fill="white" stroke="#666666" points="185,-19 3,-19 3,0 185,0 185,-19"/>
<text text-anchor="middle" x="94" y="-7" font-family="Helvetica,sans-Serif" font-size="10.00">TechniciansPage::TechniciansPage</text>
</a>
</g>
</g>
<!-- Node4&#45;&gt;Node5 -->
<g id="edge4_Node000004_Node000005" class="edge">
<title>Node4&#45;&gt;Node5</title>
<g id="a_edge4_Node000004_Node000005"><a xlink:title=" ">
<path fill="none" stroke="#63b8ff" d="M215.23,-9.5C205.34,-9.5 195.19,-9.5 185.17,-9.5"/>
<polygon fill="#63b8ff" stroke="#63b8ff" points="215.42,-13 225.42,-9.5 215.42,-6 215.42,-13"/>
</a>
</g>
</g>
</g>
</svg>
