<?xml version="1.0" encoding="UTF-8" standalone="no"?>
<!DOCTYPE svg PUBLIC "-//W3C//DTD SVG 1.1//EN"
 "http://www.w3.org/Graphics/SVG/1.1/DTD/svg11.dtd">
<!-- Generated by graphviz version 2.43.0 (0)
 -->
<!-- Title: CreateInterventionDialog::setup_ui Pages: 1 -->
<svg width="324pt" height="76pt"
 viewBox="0.00 0.00 324.00 75.50" xmlns="http://www.w3.org/2000/svg" xmlns:xlink="http://www.w3.org/1999/xlink">
<g id="graph0" class="graph" transform="scale(1 1) rotate(0) translate(4 71.5)">
<title>CreateInterventionDialog::setup_ui</title>
<!-- Node1 -->
<g id="Node000001" class="node">
<title>Node1</title>
<g id="a_Node000001"><a xlink:title="Initializes and arranges all UI components.">
<polygon fill="#999999" stroke="#666666" points="140,-45.5 0,-45.5 0,-15.5 140,-15.5 140,-45.5"/>
<text text-anchor="start" x="8" y="-33.5" font-family="Helvetica,sans-Serif" font-size="10.00">CreateInterventionDialog</text>
<text text-anchor="middle" x="70" y="-22.5" font-family="Helvetica,sans-Serif" font-size="10.00">::setup_ui</text>
</a>
</g>
</g>
<!-- Node2 -->
<g id="Node000002" class="node">
<title>Node2</title>
<g id="a_Node000002"><a xlink:href="classCreateInterventionDialog.html#abef24d6cd0ad7de22c7c96d2594f35d4" target="_top" xlink:title="Tints a given icon with a specific color.">
<polygon fill="white" stroke="#666666" points="316,-67.5 176,-67.5 176,-37.5 316,-37.5 316,-67.5"/>
<text text-anchor="start" x="184" y="-55.5" font-family="Helvetica,sans-Serif" font-size="10.00">CreateInterventionDialog</text>
<text text-anchor="middle" x="246" y="-44.5" font-family="Helvetica,sans-Serif" font-size="10.00">::tinted_icon</text>
</a>
</g>
</g>
<!-- Node1&#45;&gt;Node2 -->
<g id="edge1_Node000001_Node000002" class="edge">
<title>Node1&#45;&gt;Node2</title>
<g id="a_edge1_Node000001_Node000002"><a xlink:title=" ">
<path fill="none" stroke="#63b8ff" d="M140.02,-39.23C148.48,-40.3 157.17,-41.39 165.76,-42.48"/>
<polygon fill="#63b8ff" stroke="#63b8ff" points="165.42,-45.97 175.78,-43.75 166.3,-39.02 165.42,-45.97"/>
</a>
</g>
</g>
<!-- Node3 -->
<g id="Node000003" class="node">
<title>Node3</title>
<g id="a_Node000003"><a xlink:href="ExpertiseField_8h.html#a56a9a6b462a1d330a25154be696d66d5" target="_top" xlink:title="Converts an ExpertiseField enum value to a human&#45;readable string.">
<polygon fill="white" stroke="#666666" points="275.5,-19 216.5,-19 216.5,0 275.5,0 275.5,-19"/>
<text text-anchor="middle" x="246" y="-7" font-family="Helvetica,sans-Serif" font-size="10.00">to_string</text>
</a>
</g>
</g>
<!-- Node1&#45;&gt;Node3 -->
<g id="edge2_Node000001_Node000003" class="edge">
<title>Node1&#45;&gt;Node3</title>
<g id="a_edge2_Node000001_Node000003"><a xlink:title=" ">
<path fill="none" stroke="#63b8ff" d="M140.02,-22.17C162.54,-19.45 186.74,-16.53 206.22,-14.18"/>
<polygon fill="#63b8ff" stroke="#63b8ff" points="206.73,-17.64 216.23,-12.97 205.89,-10.7 206.73,-17.64"/>
</a>
</g>
</g>
</g>
</svg>
