<?xml version="1.0" encoding="UTF-8" standalone="no"?>
<!DOCTYPE svg PUBLIC "-//W3C//DTD SVG 1.1//EN"
 "http://www.w3.org/Graphics/SVG/1.1/DTD/svg11.dtd">
<!-- Generated by graphviz version 2.43.0 (0)
 -->
<!-- Title: TechniciansPage::update_ui_for_current_role Pages: 1 -->
<svg width="362pt" height="64pt"
 viewBox="0.00 0.00 362.00 64.00" xmlns="http://www.w3.org/2000/svg" xmlns:xlink="http://www.w3.org/1999/xlink">
<g id="graph0" class="graph" transform="scale(1 1) rotate(0) translate(4 60)">
<title>TechniciansPage::update_ui_for_current_role</title>
<!-- Node1 -->
<g id="Node000001" class="node">
<title>Node1</title>
<g id="a_Node000001"><a xlink:title="Updates the UI elements based on the currently logged&#45;in user&#39;s role.">
<polygon fill="#999999" stroke="#666666" points="354,-42.5 218,-42.5 218,-12.5 354,-12.5 354,-42.5"/>
<text text-anchor="start" x="226" y="-30.5" font-family="Helvetica,sans-Serif" font-size="10.00">TechniciansPage::update</text>
<text text-anchor="middle" x="286" y="-19.5" font-family="Helvetica,sans-Serif" font-size="10.00">_ui_for_current_role</text>
</a>
</g>
</g>
<!-- Node2 -->
<g id="Node000002" class="node">
<title>Node2</title>
<g id="a_Node000002"><a xlink:href="classTechniciansPage.html#a75dff4f5c55ce446ca15957fda6a1f1e" target="_top" xlink:title="Overridden show event to update UI state when the widget is shown.">
<polygon fill="white" stroke="#666666" points="168.5,-56 13.5,-56 13.5,-37 168.5,-37 168.5,-56"/>
<text text-anchor="middle" x="91" y="-44" font-family="Helvetica,sans-Serif" font-size="10.00">TechniciansPage::showEvent</text>
</a>
</g>
</g>
<!-- Node1&#45;&gt;Node2 -->
<g id="edge1_Node000001_Node000002" class="edge">
<title>Node1&#45;&gt;Node2</title>
<g id="a_edge1_Node000001_Node000002"><a xlink:title=" ">
<path fill="none" stroke="#63b8ff" d="M207.58,-35.12C194.73,-36.39 181.4,-37.7 168.57,-38.96"/>
<polygon fill="#63b8ff" stroke="#63b8ff" points="208.16,-38.58 217.77,-34.12 207.47,-31.62 208.16,-38.58"/>
</a>
</g>
</g>
<!-- Node3 -->
<g id="Node000003" class="node">
<title>Node3</title>
<g id="a_Node000003"><a xlink:href="classTechniciansPage.html#a63e7ceda5d2d5ec4a8a1304bfce57a1f" target="_top" xlink:title="Constructs the TechniciansPage.">
<polygon fill="white" stroke="#666666" points="182,-19 0,-19 0,0 182,0 182,-19"/>
<text text-anchor="middle" x="91" y="-7" font-family="Helvetica,sans-Serif" font-size="10.00">TechniciansPage::TechniciansPage</text>
</a>
</g>
</g>
<!-- Node1&#45;&gt;Node3 -->
<g id="edge2_Node000001_Node000003" class="edge">
<title>Node1&#45;&gt;Node3</title>
<g id="a_edge2_Node000001_Node000003"><a xlink:title=" ">
<path fill="none" stroke="#63b8ff" d="M207.63,-20.28C199.23,-19.5 190.62,-18.7 182.08,-17.9"/>
<polygon fill="#63b8ff" stroke="#63b8ff" points="207.49,-23.79 217.77,-21.23 208.14,-16.82 207.49,-23.79"/>
</a>
</g>
</g>
</g>
</svg>
