<?xml version="1.0" encoding="UTF-8" standalone="no"?>
<!DOCTYPE svg PUBLIC "-//W3C//DTD SVG 1.1//EN"
 "http://www.w3.org/Graphics/SVG/1.1/DTD/svg11.dtd">
<!-- Generated by graphviz version 2.43.0 (0)
 -->
<!-- Title: TechMapp::setup_connects Pages: 1 -->
<svg width="663pt" height="198pt"
 viewBox="0.00 0.00 663.00 198.00" xmlns="http://www.w3.org/2000/svg" xmlns:xlink="http://www.w3.org/1999/xlink">
<g id="graph0" class="graph" transform="scale(1 1) rotate(0) translate(4 194)">
<title>TechMapp::setup_connects</title>
<!-- Node1 -->
<g id="Node000001" class="node">
<title>Node1</title>
<g id="a_Node000001"><a xlink:title="Connects internal signals and slots for UI and authentication handling.">
<polygon fill="#999999" stroke="#666666" points="147,-110 0,-110 0,-91 147,-91 147,-110"/>
<text text-anchor="middle" x="73.5" y="-98" font-family="Helvetica,sans-Serif" font-size="10.00">TechMapp::setup_connects</text>
</a>
</g>
</g>
<!-- Node2 -->
<g id="Node000002" class="node">
<title>Node2</title>
<g id="a_Node000002"><a xlink:href="classLoginPage.html#a1c6c8b9e73bdbfa1db03802092643731" target="_top" xlink:title="Emitted when a user has successfully logged in.">
<polygon fill="white" stroke="#666666" points="337.5,-190 185.5,-190 185.5,-171 337.5,-171 337.5,-190"/>
<text text-anchor="middle" x="261.5" y="-178" font-family="Helvetica,sans-Serif" font-size="10.00">LoginPage::login_successful</text>
</a>
</g>
</g>
<!-- Node1&#45;&gt;Node2 -->
<g id="edge1_Node000001_Node000002" class="edge">
<title>Node1&#45;&gt;Node2</title>
<g id="a_edge1_Node000001_Node000002"><a xlink:title=" ">
<path fill="none" stroke="#63b8ff" d="M88.23,-110.11C108.2,-123.66 146.85,-148.32 183,-162.5 188.44,-164.63 194.19,-166.55 200.01,-168.27"/>
<polygon fill="#63b8ff" stroke="#63b8ff" points="199.25,-171.69 209.82,-170.97 201.11,-164.94 199.25,-171.69"/>
</a>
</g>
</g>
<!-- Node3 -->
<g id="Node000003" class="node">
<title>Node3</title>
<g id="a_Node000003"><a xlink:href="classLoginPage.html#a01f112292372e79480e00057fd689e2f" target="_top" xlink:title="Emitted when the user requests to log out.">
<polygon fill="white" stroke="#666666" points="340,-153 183,-153 183,-134 340,-134 340,-153"/>
<text text-anchor="middle" x="261.5" y="-141" font-family="Helvetica,sans-Serif" font-size="10.00">LoginPage::logout_requested</text>
</a>
</g>
</g>
<!-- Node1&#45;&gt;Node3 -->
<g id="edge2_Node000001_Node000003" class="edge">
<title>Node1&#45;&gt;Node3</title>
<g id="a_edge2_Node000001_Node000003"><a xlink:title=" ">
<path fill="none" stroke="#63b8ff" d="M115.78,-110.04C143.35,-116.42 179.82,-124.85 209.25,-131.65"/>
<polygon fill="#63b8ff" stroke="#63b8ff" points="208.8,-135.14 219.34,-133.98 210.38,-128.32 208.8,-135.14"/>
</a>
</g>
</g>
<!-- Node4 -->
<g id="Node000004" class="node">
<title>Node4</title>
<g id="a_Node000004"><a xlink:href="classTechMapp.html#a7a7ddf55a46e58e917e7f308161a773e" target="_top" xlink:title="Called when a login is successful.">
<polygon fill="white" stroke="#666666" points="318,-115.5 205,-115.5 205,-85.5 318,-85.5 318,-115.5"/>
<text text-anchor="start" x="213" y="-103.5" font-family="Helvetica,sans-Serif" font-size="10.00">TechMapp::on_login</text>
<text text-anchor="middle" x="261.5" y="-92.5" font-family="Helvetica,sans-Serif" font-size="10.00">_successful</text>
</a>
</g>
</g>
<!-- Node1&#45;&gt;Node4 -->
<g id="edge3_Node000001_Node000004" class="edge">
<title>Node1&#45;&gt;Node4</title>
<g id="a_edge3_Node000001_Node000004"><a xlink:title=" ">
<path fill="none" stroke="#63b8ff" d="M147.21,-100.5C162.78,-100.5 179.14,-100.5 194.43,-100.5"/>
<polygon fill="#63b8ff" stroke="#63b8ff" points="194.83,-104 204.83,-100.5 194.83,-97 194.83,-104"/>
</a>
</g>
</g>
<!-- Node8 -->
<g id="Node000008" class="node">
<title>Node8</title>
<g id="a_Node000008"><a xlink:href="classTechMapp.html#a7ff2ad6699f59bc55499b83dac1a07da" target="_top" xlink:title="Called when a logout is requested by the user.">
<polygon fill="white" stroke="#666666" points="321,-67.5 202,-67.5 202,-37.5 321,-37.5 321,-67.5"/>
<text text-anchor="start" x="210" y="-55.5" font-family="Helvetica,sans-Serif" font-size="10.00">TechMapp::on_logout</text>
<text text-anchor="middle" x="261.5" y="-44.5" font-family="Helvetica,sans-Serif" font-size="10.00">_requested</text>
</a>
</g>
</g>
<!-- Node1&#45;&gt;Node8 -->
<g id="edge7_Node000001_Node000008" class="edge">
<title>Node1&#45;&gt;Node8</title>
<g id="a_edge7_Node000001_Node000008"><a xlink:title=" ">
<path fill="none" stroke="#63b8ff" d="M111.69,-90.9C134.73,-84.96 165.02,-77.14 192.25,-70.11"/>
<polygon fill="#63b8ff" stroke="#63b8ff" points="193.32,-73.45 202.13,-67.56 191.57,-66.67 193.32,-73.45"/>
</a>
</g>
</g>
<!-- Node9 -->
<g id="Node000009" class="node">
<title>Node9</title>
<g id="a_Node000009"><a xlink:href="classNavigationBar.html#acd76499274ec17a39d7811b458a152bc" target="_top" xlink:title="Emitted when a new tab is selected.">
<polygon fill="white" stroke="#666666" points="337,-19 186,-19 186,0 337,0 337,-19"/>
<text text-anchor="middle" x="261.5" y="-7" font-family="Helvetica,sans-Serif" font-size="10.00">NavigationBar::tabChanged</text>
</a>
</g>
</g>
<!-- Node1&#45;&gt;Node9 -->
<g id="edge9_Node000001_Node000009" class="edge">
<title>Node1&#45;&gt;Node9</title>
<g id="a_edge9_Node000001_Node000009"><a xlink:title=" ">
<path fill="none" stroke="#63b8ff" d="M86.07,-90.83C105.09,-75.41 144.7,-45.29 183,-28.5 188.66,-26.02 194.7,-23.82 200.82,-21.89"/>
<polygon fill="#63b8ff" stroke="#63b8ff" points="201.85,-25.24 210.46,-19.07 199.88,-18.52 201.85,-25.24"/>
</a>
</g>
</g>
<!-- Node5 -->
<g id="Node000005" class="node">
<title>Node5</title>
<g id="a_Node000005"><a xlink:href="classTechMapp.html#ada82d1ac29bbec7da9675ae29b7b23f0" target="_top" xlink:title="Updates the UI components based on the user&#39;s role.">
<polygon fill="white" stroke="#666666" points="495,-91.5 376,-91.5 376,-61.5 495,-61.5 495,-91.5"/>
<text text-anchor="start" x="384" y="-79.5" font-family="Helvetica,sans-Serif" font-size="10.00">TechMapp::update_ui</text>
<text text-anchor="middle" x="435.5" y="-68.5" font-family="Helvetica,sans-Serif" font-size="10.00">_for_role</text>
</a>
</g>
</g>
<!-- Node4&#45;&gt;Node5 -->
<g id="edge4_Node000004_Node000005" class="edge">
<title>Node4&#45;&gt;Node5</title>
<g id="a_edge4_Node000004_Node000005"><a xlink:title=" ">
<path fill="none" stroke="#63b8ff" d="M318.34,-92.71C333.47,-90.6 350.02,-88.29 365.77,-86.09"/>
<polygon fill="#63b8ff" stroke="#63b8ff" points="366.56,-89.51 375.98,-84.67 365.59,-82.58 366.56,-89.51"/>
</a>
</g>
</g>
<!-- Node6 -->
<g id="Node000006" class="node">
<title>Node6</title>
<g id="a_Node000006"><a xlink:href="classAuthenticationService.html#a8c681492f74d5e7b0338ec3a5525c0a5" target="_top" xlink:title=" ">
<polygon fill="white" stroke="#666666" points="655,-115.5 531,-115.5 531,-85.5 655,-85.5 655,-115.5"/>
<text text-anchor="start" x="539" y="-103.5" font-family="Helvetica,sans-Serif" font-size="10.00">AuthenticationService</text>
<text text-anchor="middle" x="593" y="-92.5" font-family="Helvetica,sans-Serif" font-size="10.00">::current_user</text>
</a>
</g>
</g>
<!-- Node5&#45;&gt;Node6 -->
<g id="edge5_Node000005_Node000006" class="edge">
<title>Node5&#45;&gt;Node6</title>
<g id="a_edge5_Node000005_Node000006"><a xlink:title=" ">
<path fill="none" stroke="#63b8ff" d="M495.29,-85.57C503.63,-86.86 512.29,-88.2 520.84,-89.52"/>
<polygon fill="#63b8ff" stroke="#63b8ff" points="520.38,-92.99 530.8,-91.05 521.45,-86.07 520.38,-92.99"/>
</a>
</g>
</g>
<!-- Node7 -->
<g id="Node000007" class="node">
<title>Node7</title>
<g id="a_Node000007"><a xlink:href="classAuthenticationService.html#a2dc8be4689e371d7a773ac008b21cf3a" target="_top" xlink:title=" ">
<polygon fill="white" stroke="#666666" points="655,-67.5 531,-67.5 531,-37.5 655,-37.5 655,-67.5"/>
<text text-anchor="start" x="539" y="-55.5" font-family="Helvetica,sans-Serif" font-size="10.00">AuthenticationService</text>
<text text-anchor="middle" x="593" y="-44.5" font-family="Helvetica,sans-Serif" font-size="10.00">::instance</text>
</a>
</g>
</g>
<!-- Node5&#45;&gt;Node7 -->
<g id="edge6_Node000005_Node000007" class="edge">
<title>Node5&#45;&gt;Node7</title>
<g id="a_edge6_Node000005_Node000007"><a xlink:title=" ">
<path fill="none" stroke="#63b8ff" d="M495.29,-67.43C503.63,-66.14 512.29,-64.8 520.84,-63.48"/>
<polygon fill="#63b8ff" stroke="#63b8ff" points="521.45,-66.93 530.8,-61.95 520.38,-60.01 521.45,-66.93"/>
</a>
</g>
</g>
<!-- Node8&#45;&gt;Node5 -->
<g id="edge8_Node000008_Node000005" class="edge">
<title>Node8&#45;&gt;Node5</title>
<g id="a_edge8_Node000008_Node000005"><a xlink:title=" ">
<path fill="none" stroke="#63b8ff" d="M321.21,-60.69C335.52,-62.69 350.96,-64.84 365.69,-66.9"/>
<polygon fill="#63b8ff" stroke="#63b8ff" points="365.37,-70.39 375.76,-68.3 366.34,-63.46 365.37,-70.39"/>
</a>
</g>
</g>
</g>
</svg>
