<?xml version="1.0" encoding="UTF-8" standalone="no"?>
<!DOCTYPE svg PUBLIC "-//W3C//DTD SVG 1.1//EN"
 "http://www.w3.org/Graphics/SVG/1.1/DTD/svg11.dtd">
<!-- Generated by graphviz version 2.43.0 (0)
 -->
<!-- Title: TechnicianRepository::notify_all Pages: 1 -->
<svg width="468pt" height="86pt"
 viewBox="0.00 0.00 468.00 86.00" xmlns="http://www.w3.org/2000/svg" xmlns:xlink="http://www.w3.org/1999/xlink">
<g id="graph0" class="graph" transform="scale(1 1) rotate(0) translate(4 82)">
<title>TechnicianRepository::notify_all</title>
<!-- Node1 -->
<g id="Node000001" class="node">
<title>Node1</title>
<g id="a_Node000001"><a xlink:title="Notifies all subscribed observers of repository changes.">
<polygon fill="#999999" stroke="#666666" points="460,-54 340,-54 340,-24 460,-24 460,-54"/>
<text text-anchor="start" x="348" y="-42" font-family="Helvetica,sans-Serif" font-size="10.00">TechnicianRepository</text>
<text text-anchor="middle" x="400" y="-31" font-family="Helvetica,sans-Serif" font-size="10.00">::notify_all</text>
</a>
</g>
</g>
<!-- Node2 -->
<g id="Node000002" class="node">
<title>Node2</title>
<g id="a_Node000002"><a xlink:href="classTechnicianRepository.html#aead34e0a31aad6dfdf934ebd73e049bc" target="_top" xlink:title="Removes a technician by their ID.">
<polygon fill="white" stroke="#666666" points="304,-78 184,-78 184,-48 304,-48 304,-78"/>
<text text-anchor="start" x="192" y="-66" font-family="Helvetica,sans-Serif" font-size="10.00">TechnicianRepository</text>
<text text-anchor="middle" x="244" y="-55" font-family="Helvetica,sans-Serif" font-size="10.00">::remove_by_id</text>
</a>
</g>
</g>
<!-- Node1&#45;&gt;Node2 -->
<g id="edge1_Node000001_Node000002" class="edge">
<title>Node1&#45;&gt;Node2</title>
<g id="a_edge1_Node000001_Node000002"><a xlink:title=" ">
<path fill="none" stroke="#63b8ff" d="M329.91,-49.77C321.33,-51.1 312.61,-52.46 304.2,-53.77"/>
<polygon fill="#63b8ff" stroke="#63b8ff" points="330.56,-53.21 339.9,-48.21 329.48,-46.29 330.56,-53.21"/>
</a>
</g>
</g>
<!-- Node4 -->
<g id="Node000004" class="node">
<title>Node4</title>
<g id="a_Node000004"><a xlink:href="classTechnicianRepository.html#a5a188f65c01de2ae3cebd680ca47da7d" target="_top" xlink:title="Saves or updates a technician in the repository.">
<polygon fill="white" stroke="#666666" points="304,-30 184,-30 184,0 304,0 304,-30"/>
<text text-anchor="start" x="192" y="-18" font-family="Helvetica,sans-Serif" font-size="10.00">TechnicianRepository</text>
<text text-anchor="middle" x="244" y="-7" font-family="Helvetica,sans-Serif" font-size="10.00">::save</text>
</a>
</g>
</g>
<!-- Node1&#45;&gt;Node4 -->
<g id="edge3_Node000001_Node000004" class="edge">
<title>Node1&#45;&gt;Node4</title>
<g id="a_edge3_Node000001_Node000004"><a xlink:title=" ">
<path fill="none" stroke="#63b8ff" d="M329.91,-28.23C321.33,-26.9 312.61,-25.54 304.2,-24.23"/>
<polygon fill="#63b8ff" stroke="#63b8ff" points="329.48,-31.71 339.9,-29.79 330.56,-24.79 329.48,-31.71"/>
</a>
</g>
</g>
<!-- Node3 -->
<g id="Node000003" class="node">
<title>Node3</title>
<g id="a_Node000003"><a xlink:href="classTechnicianRepositoryProxy.html#a7e8e6b2eaebb5c76f58fd716d50f19bf" target="_top" xlink:title="Removes a technician by ID.">
<polygon fill="white" stroke="#666666" points="148,-78 0,-78 0,-48 148,-48 148,-78"/>
<text text-anchor="start" x="8" y="-66" font-family="Helvetica,sans-Serif" font-size="10.00">TechnicianRepositoryProxy</text>
<text text-anchor="middle" x="74" y="-55" font-family="Helvetica,sans-Serif" font-size="10.00">::remove_by_id</text>
</a>
</g>
</g>
<!-- Node2&#45;&gt;Node3 -->
<g id="edge2_Node000002_Node000003" class="edge">
<title>Node2&#45;&gt;Node3</title>
<g id="a_edge2_Node000002_Node000003"><a xlink:title=" ">
<path fill="none" stroke="#63b8ff" d="M173.63,-63C165.21,-63 156.59,-63 148.12,-63"/>
<polygon fill="#63b8ff" stroke="#63b8ff" points="173.77,-66.5 183.77,-63 173.77,-59.5 173.77,-66.5"/>
</a>
</g>
</g>
<!-- Node5 -->
<g id="Node000005" class="node">
<title>Node5</title>
<g id="a_Node000005"><a xlink:href="classTechnicianRepositoryProxy.html#a2ea13b9f121a251349b94d12752c67cf" target="_top" xlink:title="Saves a technician in the repository.">
<polygon fill="white" stroke="#666666" points="148,-30 0,-30 0,0 148,0 148,-30"/>
<text text-anchor="start" x="8" y="-18" font-family="Helvetica,sans-Serif" font-size="10.00">TechnicianRepositoryProxy</text>
<text text-anchor="middle" x="74" y="-7" font-family="Helvetica,sans-Serif" font-size="10.00">::save</text>
</a>
</g>
</g>
<!-- Node4&#45;&gt;Node5 -->
<g id="edge4_Node000004_Node000005" class="edge">
<title>Node4&#45;&gt;Node5</title>
<g id="a_edge4_Node000004_Node000005"><a xlink:title=" ">
<path fill="none" stroke="#63b8ff" d="M173.63,-15C165.21,-15 156.59,-15 148.12,-15"/>
<polygon fill="#63b8ff" stroke="#63b8ff" points="173.77,-18.5 183.77,-15 173.77,-11.5 173.77,-18.5"/>
</a>
</g>
</g>
</g>
</svg>
