<?xml version="1.0" encoding="UTF-8" standalone="no"?>
<!DOCTYPE svg PUBLIC "-//W3C//DTD SVG 1.1//EN"
 "http://www.w3.org/Graphics/SVG/1.1/DTD/svg11.dtd">
<!-- Generated by graphviz version 2.43.0 (0)
 -->
<!-- Title: TechnicianEditPanel::load_technician Pages: 1 -->
<svg width="419pt" height="107pt"
 viewBox="0.00 0.00 419.00 107.00" xmlns="http://www.w3.org/2000/svg" xmlns:xlink="http://www.w3.org/1999/xlink">
<g id="graph0" class="graph" transform="scale(1 1) rotate(0) translate(4 103)">
<title>TechnicianEditPanel::load_technician</title>
<!-- Node1 -->
<g id="Node000001" class="node">
<title>Node1</title>
<g id="a_Node000001"><a xlink:title="Loads a technician into the panel for editing.">
<polygon fill="#999999" stroke="#666666" points="113,-78 0,-78 0,-48 113,-48 113,-78"/>
<text text-anchor="start" x="8" y="-66" font-family="Helvetica,sans-Serif" font-size="10.00">TechnicianEditPanel</text>
<text text-anchor="middle" x="56.5" y="-55" font-family="Helvetica,sans-Serif" font-size="10.00">::load_technician</text>
</a>
</g>
</g>
<!-- Node2 -->
<g id="Node000002" class="node">
<title>Node2</title>
<g id="a_Node000002"><a xlink:href="classTechnicianEditPanel.html#a594dec8133a1ef4aa954c91ab03c7767" target="_top" xlink:title="Returns the current name in the input field.">
<polygon fill="white" stroke="#666666" points="411,-99 298,-99 298,-69 411,-69 411,-99"/>
<text text-anchor="start" x="306" y="-87" font-family="Helvetica,sans-Serif" font-size="10.00">TechnicianEditPanel</text>
<text text-anchor="middle" x="354.5" y="-76" font-family="Helvetica,sans-Serif" font-size="10.00">::name</text>
</a>
</g>
</g>
<!-- Node1&#45;&gt;Node2 -->
<g id="edge1_Node000001_Node000002" class="edge">
<title>Node1&#45;&gt;Node2</title>
<g id="a_edge1_Node000001_Node000002"><a xlink:title=" ">
<path fill="none" stroke="#63b8ff" d="M105.48,-78.05C119.38,-81.74 134.67,-85.15 149,-87 195,-92.93 247.3,-92.03 287.5,-89.72"/>
<polygon fill="#63b8ff" stroke="#63b8ff" points="287.94,-93.2 297.71,-89.09 287.51,-86.22 287.94,-93.2"/>
</a>
</g>
</g>
<!-- Node3 -->
<g id="Node000003" class="node">
<title>Node3</title>
<g id="a_Node000003"><a xlink:href="classTechnicianEditPanel.html#adf67fcc26f8635f45f89ef868c405ced" target="_top" xlink:title="Sets the selected expertise fields in the list.">
<polygon fill="white" stroke="#666666" points="262,-30 149,-30 149,0 262,0 262,-30"/>
<text text-anchor="start" x="157" y="-18" font-family="Helvetica,sans-Serif" font-size="10.00">TechnicianEditPanel</text>
<text text-anchor="middle" x="205.5" y="-7" font-family="Helvetica,sans-Serif" font-size="10.00">::set_expertises</text>
</a>
</g>
</g>
<!-- Node1&#45;&gt;Node3 -->
<g id="edge2_Node000001_Node000003" class="edge">
<title>Node1&#45;&gt;Node3</title>
<g id="a_edge2_Node000001_Node000003"><a xlink:title=" ">
<path fill="none" stroke="#63b8ff" d="M103.61,-47.94C117.97,-43.25 133.97,-38.03 148.91,-33.15"/>
<polygon fill="#63b8ff" stroke="#63b8ff" points="150.14,-36.43 158.56,-30 147.96,-29.78 150.14,-36.43"/>
</a>
</g>
</g>
<!-- Node5 -->
<g id="Node000005" class="node">
<title>Node5</title>
<g id="a_Node000005"><a xlink:href="classTechnicianEditPanel.html#a2d00646809593c3258840fc93dd110be" target="_top" xlink:title="Sets the name in the input field.">
<polygon fill="white" stroke="#666666" points="262,-78 149,-78 149,-48 262,-48 262,-78"/>
<text text-anchor="start" x="157" y="-66" font-family="Helvetica,sans-Serif" font-size="10.00">TechnicianEditPanel</text>
<text text-anchor="middle" x="205.5" y="-55" font-family="Helvetica,sans-Serif" font-size="10.00">::set_name</text>
</a>
</g>
</g>
<!-- Node1&#45;&gt;Node5 -->
<g id="edge4_Node000001_Node000005" class="edge">
<title>Node1&#45;&gt;Node5</title>
<g id="a_edge4_Node000001_Node000005"><a xlink:title=" ">
<path fill="none" stroke="#63b8ff" d="M113.07,-63C121.49,-63 130.24,-63 138.84,-63"/>
<polygon fill="#63b8ff" stroke="#63b8ff" points="138.85,-66.5 148.85,-63 138.85,-59.5 138.85,-66.5"/>
</a>
</g>
</g>
<!-- Node4 -->
<g id="Node000004" class="node">
<title>Node4</title>
<g id="a_Node000004"><a xlink:href="ExpertiseField_8h.html#a56a9a6b462a1d330a25154be696d66d5" target="_top" xlink:title="Converts an ExpertiseField enum value to a human&#45;readable string.">
<polygon fill="white" stroke="#666666" points="384,-24.5 325,-24.5 325,-5.5 384,-5.5 384,-24.5"/>
<text text-anchor="middle" x="354.5" y="-12.5" font-family="Helvetica,sans-Serif" font-size="10.00">to_string</text>
</a>
</g>
</g>
<!-- Node3&#45;&gt;Node4 -->
<g id="edge3_Node000003_Node000004" class="edge">
<title>Node3&#45;&gt;Node4</title>
<g id="a_edge3_Node000003_Node000004"><a xlink:title=" ">
<path fill="none" stroke="#63b8ff" d="M262.07,-15C279.55,-15 298.46,-15 314.53,-15"/>
<polygon fill="#63b8ff" stroke="#63b8ff" points="314.63,-18.5 324.63,-15 314.63,-11.5 314.63,-18.5"/>
</a>
</g>
</g>
<!-- Node5&#45;&gt;Node2 -->
<g id="edge5_Node000005_Node000002" class="edge">
<title>Node5&#45;&gt;Node2</title>
<g id="a_edge5_Node000005_Node000002"><a xlink:title=" ">
<path fill="none" stroke="#63b8ff" d="M262.07,-70.94C270.49,-72.14 279.24,-73.39 287.84,-74.62"/>
<polygon fill="#63b8ff" stroke="#63b8ff" points="287.45,-78.1 297.85,-76.05 288.44,-71.17 287.45,-78.1"/>
</a>
</g>
</g>
</g>
</svg>
