<?xml version="1.0" encoding="UTF-8" standalone="no"?>
<!DOCTYPE svg PUBLIC "-//W3C//DTD SVG 1.1//EN"
 "http://www.w3.org/Graphics/SVG/1.1/DTD/svg11.dtd">
<!-- Generated by graphviz version 2.43.0 (0)
 -->
<!-- Title: ATechnicianObserver Pages: 1 -->
<svg width="244pt" height="82pt"
 viewBox="0.00 0.00 244.00 82.00" xmlns="http://www.w3.org/2000/svg" xmlns:xlink="http://www.w3.org/1999/xlink">
<g id="graph0" class="graph" transform="scale(1 1) rotate(0) translate(4 78)">
<title>ATechnicianObserver</title>
<!-- Node1 -->
<g id="Node000001" class="node">
<title>Node1</title>
<g id="a_Node000001"><a xlink:title="Interface for classes that need to observe changes in the technician repository.">
<polygon fill="#999999" stroke="#666666" points="174,-74 56,-74 56,-55 174,-55 174,-74"/>
<text text-anchor="middle" x="115" y="-62" font-family="Helvetica,sans-Serif" font-size="10.00">ATechnicianObserver</text>
</a>
</g>
</g>
<!-- Node2 -->
<g id="Node000002" class="node">
<title>Node2</title>
<g id="a_Node000002"><a xlink:href="classTechListController.html" target="_top" xlink:title="Controls UI elements related to technician selection and observes technician repository updates.">
<polygon fill="white" stroke="#666666" points="104,-19 0,-19 0,0 104,0 104,-19"/>
<text text-anchor="middle" x="52" y="-7" font-family="Helvetica,sans-Serif" font-size="10.00">TechListController</text>
</a>
</g>
</g>
<!-- Node1&#45;&gt;Node2 -->
<g id="edge1_Node000001_Node000002" class="edge">
<title>Node1&#45;&gt;Node2</title>
<g id="a_edge1_Node000001_Node000002"><a xlink:title=" ">
<path fill="none" stroke="#63b8ff" d="M96.96,-48.32C85.73,-38.87 71.68,-27.06 62.31,-19.17"/>
<polygon fill="#63b8ff" stroke="#63b8ff" points="94.97,-51.23 104.88,-54.98 99.48,-45.87 94.97,-51.23"/>
</a>
</g>
</g>
<!-- Node3 -->
<g id="Node000003" class="node">
<title>Node3</title>
<g id="a_Node000003"><a xlink:href="classTechniciansListView.html" target="_top" xlink:title="Custom list view displaying available technicians and observing changes in the technician repository.">
<polygon fill="white" stroke="#666666" points="236,-19 122,-19 122,0 236,0 236,-19"/>
<text text-anchor="middle" x="179" y="-7" font-family="Helvetica,sans-Serif" font-size="10.00">TechniciansListView</text>
</a>
</g>
</g>
<!-- Node1&#45;&gt;Node3 -->
<g id="edge2_Node000001_Node000003" class="edge">
<title>Node1&#45;&gt;Node3</title>
<g id="a_edge2_Node000001_Node000003"><a xlink:title=" ">
<path fill="none" stroke="#63b8ff" d="M132.99,-48.6C144.46,-39.11 158.91,-27.13 168.53,-19.17"/>
<polygon fill="#63b8ff" stroke="#63b8ff" points="130.75,-45.91 125.28,-54.98 135.22,-51.3 130.75,-45.91"/>
</a>
</g>
</g>
</g>
</svg>
