<?xml version="1.0" encoding="UTF-8" standalone="no"?>
<!DOCTYPE svg PUBLIC "-//W3C//DTD SVG 1.1//EN"
 "http://www.w3.org/Graphics/SVG/1.1/DTD/svg11.dtd">
<!-- Generated by graphviz version 2.43.0 (0)
 -->
<!-- Title: AuthenticationService::has_role Pages: 1 -->
<svg width="531pt" height="141pt"
 viewBox="0.00 0.00 531.00 141.00" xmlns="http://www.w3.org/2000/svg" xmlns:xlink="http://www.w3.org/1999/xlink">
<g id="graph0" class="graph" transform="scale(1 1) rotate(0) translate(4 137)">
<title>AuthenticationService::has_role</title>
<!-- Node1 -->
<g id="Node000001" class="node">
<title>Node1</title>
<g id="a_Node000001"><a xlink:title=" ">
<polygon fill="#999999" stroke="#666666" points="523,-82.5 399,-82.5 399,-52.5 523,-52.5 523,-82.5"/>
<text text-anchor="start" x="407" y="-70.5" font-family="Helvetica,sans-Serif" font-size="10.00">AuthenticationService</text>
<text text-anchor="middle" x="461" y="-59.5" font-family="Helvetica,sans-Serif" font-size="10.00">::has_role</text>
</a>
</g>
</g>
<!-- Node2 -->
<g id="Node000002" class="node">
<title>Node2</title>
<g id="a_Node000002"><a xlink:href="classInterventionPage.html#a548ea550131dc31088b667d4d08b8f6e" target="_top" xlink:title="Updates UI visibility and behavior based on the user&#39;s role.">
<polygon fill="white" stroke="#666666" points="363,-106.5 224,-106.5 224,-76.5 363,-76.5 363,-106.5"/>
<text text-anchor="start" x="232" y="-94.5" font-family="Helvetica,sans-Serif" font-size="10.00">InterventionPage::update</text>
<text text-anchor="middle" x="293.5" y="-83.5" font-family="Helvetica,sans-Serif" font-size="10.00">_ui_for_current_role</text>
</a>
</g>
</g>
<!-- Node1&#45;&gt;Node2 -->
<g id="edge1_Node000001_Node000002" class="edge">
<title>Node1&#45;&gt;Node2</title>
<g id="a_edge1_Node000001_Node000002"><a xlink:title=" ">
<path fill="none" stroke="#63b8ff" d="M388.93,-77.81C380.4,-79.04 371.71,-80.3 363.21,-81.54"/>
<polygon fill="#63b8ff" stroke="#63b8ff" points="389.45,-81.27 398.84,-76.37 388.45,-74.34 389.45,-81.27"/>
</a>
</g>
</g>
<!-- Node5 -->
<g id="Node000005" class="node">
<title>Node5</title>
<g id="a_Node000005"><a xlink:href="classTechniciansPage.html#a4fd8ac138a0cd95efb21ddd049703220" target="_top" xlink:title="Updates the UI elements based on the currently logged&#45;in user&#39;s role.">
<polygon fill="white" stroke="#666666" points="361.5,-58.5 225.5,-58.5 225.5,-28.5 361.5,-28.5 361.5,-58.5"/>
<text text-anchor="start" x="233.5" y="-46.5" font-family="Helvetica,sans-Serif" font-size="10.00">TechniciansPage::update</text>
<text text-anchor="middle" x="293.5" y="-35.5" font-family="Helvetica,sans-Serif" font-size="10.00">_ui_for_current_role</text>
</a>
</g>
</g>
<!-- Node1&#45;&gt;Node5 -->
<g id="edge4_Node000001_Node000005" class="edge">
<title>Node1&#45;&gt;Node5</title>
<g id="a_edge4_Node000001_Node000005"><a xlink:title=" ">
<path fill="none" stroke="#63b8ff" d="M388.75,-57.17C379.71,-55.86 370.49,-54.52 361.53,-53.22"/>
<polygon fill="#63b8ff" stroke="#63b8ff" points="388.45,-60.66 398.84,-58.63 389.45,-53.73 388.45,-60.66"/>
</a>
</g>
</g>
<!-- Node3 -->
<g id="Node000003" class="node">
<title>Node3</title>
<g id="a_Node000003"><a xlink:href="classInterventionPage.html#a1abb99ba568e63ec484d032e15498872" target="_top" xlink:title="Constructs the InterventionPage widget.">
<polygon fill="white" stroke="#666666" points="188,-133 0,-133 0,-114 188,-114 188,-133"/>
<text text-anchor="middle" x="94" y="-121" font-family="Helvetica,sans-Serif" font-size="10.00">InterventionPage::InterventionPage</text>
</a>
</g>
</g>
<!-- Node2&#45;&gt;Node3 -->
<g id="edge2_Node000002_Node000003" class="edge">
<title>Node2&#45;&gt;Node3</title>
<g id="a_edge2_Node000002_Node000003"><a xlink:title=" ">
<path fill="none" stroke="#63b8ff" d="M213.94,-104.23C193.91,-107.47 172.73,-110.91 153.87,-113.96"/>
<polygon fill="#63b8ff" stroke="#63b8ff" points="214.67,-107.66 223.98,-102.6 213.55,-100.75 214.67,-107.66"/>
</a>
</g>
</g>
<!-- Node4 -->
<g id="Node000004" class="node">
<title>Node4</title>
<g id="a_Node000004"><a xlink:href="classInterventionPage.html#af37ffe015d96bb0d4f9966d020708fb0" target="_top" xlink:title="Handles the show event to trigger UI updates when the widget is shown.">
<polygon fill="white" stroke="#666666" points="173,-96 15,-96 15,-77 173,-77 173,-96"/>
<text text-anchor="middle" x="94" y="-84" font-family="Helvetica,sans-Serif" font-size="10.00">InterventionPage::showEvent</text>
</a>
</g>
</g>
<!-- Node2&#45;&gt;Node4 -->
<g id="edge3_Node000002_Node000004" class="edge">
<title>Node2&#45;&gt;Node4</title>
<g id="a_edge3_Node000002_Node000004"><a xlink:title=" ">
<path fill="none" stroke="#63b8ff" d="M213.86,-89.51C200.48,-89.17 186.59,-88.82 173.22,-88.48"/>
<polygon fill="#63b8ff" stroke="#63b8ff" points="213.89,-93.01 223.98,-89.77 214.07,-86.01 213.89,-93.01"/>
</a>
</g>
</g>
<!-- Node6 -->
<g id="Node000006" class="node">
<title>Node6</title>
<g id="a_Node000006"><a xlink:href="classTechniciansPage.html#a75dff4f5c55ce446ca15957fda6a1f1e" target="_top" xlink:title="Overridden show event to update UI state when the widget is shown.">
<polygon fill="white" stroke="#666666" points="171.5,-56 16.5,-56 16.5,-37 171.5,-37 171.5,-56"/>
<text text-anchor="middle" x="94" y="-44" font-family="Helvetica,sans-Serif" font-size="10.00">TechniciansPage::showEvent</text>
</a>
</g>
</g>
<!-- Node5&#45;&gt;Node6 -->
<g id="edge5_Node000005_Node000006" class="edge">
<title>Node5&#45;&gt;Node6</title>
<g id="a_edge5_Node000005_Node000006"><a xlink:title=" ">
<path fill="none" stroke="#63b8ff" d="M215.12,-44.68C200.89,-44.89 186.03,-45.12 171.81,-45.33"/>
<polygon fill="#63b8ff" stroke="#63b8ff" points="215.41,-48.17 225.36,-44.52 215.31,-41.17 215.41,-48.17"/>
</a>
</g>
</g>
<!-- Node7 -->
<g id="Node000007" class="node">
<title>Node7</title>
<g id="a_Node000007"><a xlink:href="classTechniciansPage.html#a63e7ceda5d2d5ec4a8a1304bfce57a1f" target="_top" xlink:title="Constructs the TechniciansPage.">
<polygon fill="white" stroke="#666666" points="185,-19 3,-19 3,0 185,0 185,-19"/>
<text text-anchor="middle" x="94" y="-7" font-family="Helvetica,sans-Serif" font-size="10.00">TechniciansPage::TechniciansPage</text>
</a>
</g>
</g>
<!-- Node5&#45;&gt;Node7 -->
<g id="edge6_Node000005_Node000007" class="edge">
<title>Node5&#45;&gt;Node7</title>
<g id="a_edge6_Node000005_Node000007"><a xlink:title=" ">
<path fill="none" stroke="#63b8ff" d="M215.22,-30.2C193.6,-26.47 170.55,-22.51 150.47,-19.05"/>
<polygon fill="#63b8ff" stroke="#63b8ff" points="214.91,-33.69 225.36,-31.94 216.1,-26.8 214.91,-33.69"/>
</a>
</g>
</g>
</g>
</svg>
