<?xml version="1.0" encoding="UTF-8" standalone="no"?>
<!DOCTYPE svg PUBLIC "-//W3C//DTD SVG 1.1//EN"
 "http://www.w3.org/Graphics/SVG/1.1/DTD/svg11.dtd">
<!-- Generated by graphviz version 2.43.0 (0)
 -->
<!-- Title: LoginPage::logout_requested Pages: 1 -->
<svg width="690pt" height="64pt"
 viewBox="0.00 0.00 690.00 64.00" xmlns="http://www.w3.org/2000/svg" xmlns:xlink="http://www.w3.org/1999/xlink">
<g id="graph0" class="graph" transform="scale(1 1) rotate(0) translate(4 60)">
<title>LoginPage::logout_requested</title>
<!-- Node1 -->
<g id="Node000001" class="node">
<title>Node1</title>
<g id="a_Node000001"><a xlink:title="Emitted when the user requests to log out.">
<polygon fill="#999999" stroke="#666666" points="682,-37 525,-37 525,-18 682,-18 682,-37"/>
<text text-anchor="middle" x="603.5" y="-25" font-family="Helvetica,sans-Serif" font-size="10.00">LoginPage::logout_requested</text>
</a>
</g>
</g>
<!-- Node2 -->
<g id="Node000002" class="node">
<title>Node2</title>
<g id="a_Node000002"><a xlink:href="classLoginPage.html#ae8fe253b5cce2c0285f66e29346c407b" target="_top" xlink:title="Logs out the current user.">
<polygon fill="white" stroke="#666666" points="467,-56 364,-56 364,-37 467,-37 467,-56"/>
<text text-anchor="middle" x="415.5" y="-44" font-family="Helvetica,sans-Serif" font-size="10.00">LoginPage::logout</text>
</a>
</g>
</g>
<!-- Node1&#45;&gt;Node2 -->
<g id="edge1_Node000001_Node000002" class="edge">
<title>Node1&#45;&gt;Node2</title>
<g id="a_edge1_Node000001_Node000002"><a xlink:title=" ">
<path fill="none" stroke="#63b8ff" d="M514.83,-36.46C498.47,-38.13 481.89,-39.82 467.12,-41.33"/>
<polygon fill="#63b8ff" stroke="#63b8ff" points="515.37,-39.92 524.97,-35.42 514.66,-32.95 515.37,-39.92"/>
</a>
</g>
</g>
<!-- Node5 -->
<g id="Node000005" class="node">
<title>Node5</title>
<g id="a_Node000005"><a xlink:href="classTechMapp.html#af0e39c1d95a040c849f8f920b4ba4ffe" target="_top" xlink:title="Connects internal signals and slots for UI and authentication handling.">
<polygon fill="white" stroke="#666666" points="489,-19 342,-19 342,0 489,0 489,-19"/>
<text text-anchor="middle" x="415.5" y="-7" font-family="Helvetica,sans-Serif" font-size="10.00">TechMapp::setup_connects</text>
</a>
</g>
</g>
<!-- Node1&#45;&gt;Node5 -->
<g id="edge4_Node000001_Node000005" class="edge">
<title>Node1&#45;&gt;Node5</title>
<g id="a_edge4_Node000001_Node000005"><a xlink:title=" ">
<path fill="none" stroke="#63b8ff" d="M514.89,-19.02C506.27,-18.19 497.59,-17.35 489.15,-16.53"/>
<polygon fill="#63b8ff" stroke="#63b8ff" points="514.68,-22.52 524.97,-20 515.35,-15.55 514.68,-22.52"/>
</a>
</g>
</g>
<!-- Node3 -->
<g id="Node000003" class="node">
<title>Node3</title>
<g id="a_Node000003"><a xlink:href="classLoginPage.html#a7cd454f7668442d809030c3e5e6a66ea" target="_top" xlink:title="Connects UI elements to their respective slots.">
<polygon fill="white" stroke="#666666" points="306,-56 158,-56 158,-37 306,-37 306,-56"/>
<text text-anchor="middle" x="232" y="-44" font-family="Helvetica,sans-Serif" font-size="10.00">LoginPage::setup_connects</text>
</a>
</g>
</g>
<!-- Node2&#45;&gt;Node3 -->
<g id="edge2_Node000002_Node000003" class="edge">
<title>Node2&#45;&gt;Node3</title>
<g id="a_edge2_Node000002_Node000003"><a xlink:title=" ">
<path fill="none" stroke="#63b8ff" d="M353.6,-46.5C338.33,-46.5 321.8,-46.5 306.01,-46.5"/>
<polygon fill="#63b8ff" stroke="#63b8ff" points="353.94,-50 363.94,-46.5 353.94,-43 353.94,-50"/>
</a>
</g>
</g>
<!-- Node4 -->
<g id="Node000004" class="node">
<title>Node4</title>
<g id="a_Node000004"><a xlink:href="classLoginPage.html#ac80d4431cd7779e6ae5f8c3b17fe6c3f" target="_top" xlink:title="Constructs the login page UI.">
<polygon fill="white" stroke="#666666" points="122,-56 0,-56 0,-37 122,-37 122,-56"/>
<text text-anchor="middle" x="61" y="-44" font-family="Helvetica,sans-Serif" font-size="10.00">LoginPage::LoginPage</text>
</a>
</g>
</g>
<!-- Node3&#45;&gt;Node4 -->
<g id="edge3_Node000003_Node000004" class="edge">
<title>Node3&#45;&gt;Node4</title>
<g id="a_edge3_Node000003_Node000004"><a xlink:title=" ">
<path fill="none" stroke="#63b8ff" d="M147.72,-46.5C139.06,-46.5 130.38,-46.5 122.05,-46.5"/>
<polygon fill="#63b8ff" stroke="#63b8ff" points="147.86,-50 157.86,-46.5 147.86,-43 147.86,-50"/>
</a>
</g>
</g>
<!-- Node6 -->
<g id="Node000006" class="node">
<title>Node6</title>
<g id="a_Node000006"><a xlink:href="classTechMapp.html#ac4d485efbe0d00914dcfb9680a39ec77" target="_top" xlink:title="Constructs the main application window.">
<polygon fill="white" stroke="#666666" points="292,-19 172,-19 172,0 292,0 292,-19"/>
<text text-anchor="middle" x="232" y="-7" font-family="Helvetica,sans-Serif" font-size="10.00">TechMapp::TechMapp</text>
</a>
</g>
</g>
<!-- Node5&#45;&gt;Node6 -->
<g id="edge5_Node000005_Node000006" class="edge">
<title>Node5&#45;&gt;Node6</title>
<g id="a_edge5_Node000005_Node000006"><a xlink:title=" ">
<path fill="none" stroke="#63b8ff" d="M331.79,-9.5C318.37,-9.5 304.72,-9.5 292.02,-9.5"/>
<polygon fill="#63b8ff" stroke="#63b8ff" points="331.98,-13 341.98,-9.5 331.98,-6 331.98,-13"/>
</a>
</g>
</g>
</g>
</svg>
