<?xml version="1.0" encoding="UTF-8" standalone="no"?>
<!DOCTYPE svg PUBLIC "-//W3C//DTD SVG 1.1//EN"
 "http://www.w3.org/Graphics/SVG/1.1/DTD/svg11.dtd">
<!-- Generated by graphviz version 2.43.0 (0)
 -->
<!-- Title: LoginPage::showEvent Pages: 1 -->
<svg width="293pt" height="182pt"
 viewBox="0.00 0.00 293.00 182.00" xmlns="http://www.w3.org/2000/svg" xmlns:xlink="http://www.w3.org/1999/xlink">
<g id="graph0" class="graph" transform="scale(1 1) rotate(0) translate(4 178)">
<title>LoginPage::showEvent</title>
<!-- Node1 -->
<g id="Node000001" class="node">
<title>Node1</title>
<g id="a_Node000001"><a xlink:title="Called when the widget is shown, used to reset or update UI state.">
<polygon fill="#999999" stroke="#666666" points="125,-96.5 0,-96.5 0,-77.5 125,-77.5 125,-96.5"/>
<text text-anchor="middle" x="62.5" y="-84.5" font-family="Helvetica,sans-Serif" font-size="10.00">LoginPage::showEvent</text>
</a>
</g>
</g>
<!-- Node2 -->
<g id="Node000002" class="node">
<title>Node2</title>
<g id="a_Node000002"><a xlink:href="classAuthenticationService.html#a8c681492f74d5e7b0338ec3a5525c0a5" target="_top" xlink:title=" ">
<polygon fill="white" stroke="#666666" points="285,-174 161,-174 161,-144 285,-144 285,-174"/>
<text text-anchor="start" x="169" y="-162" font-family="Helvetica,sans-Serif" font-size="10.00">AuthenticationService</text>
<text text-anchor="middle" x="223" y="-151" font-family="Helvetica,sans-Serif" font-size="10.00">::current_user</text>
</a>
</g>
</g>
<!-- Node1&#45;&gt;Node2 -->
<g id="edge1_Node000001_Node000002" class="edge">
<title>Node1&#45;&gt;Node2</title>
<g id="a_edge1_Node000001_Node000002"><a xlink:title=" ">
<path fill="none" stroke="#63b8ff" d="M81.98,-96.66C101.43,-106.7 133.04,-122.64 161,-135 164.86,-136.71 168.89,-138.43 172.95,-140.11"/>
<polygon fill="#63b8ff" stroke="#63b8ff" points="171.84,-143.44 182.43,-143.98 174.49,-136.96 171.84,-143.44"/>
</a>
</g>
</g>
<!-- Node3 -->
<g id="Node000003" class="node">
<title>Node3</title>
<g id="a_Node000003"><a xlink:href="classAuthenticationService.html#a2dc8be4689e371d7a773ac008b21cf3a" target="_top" xlink:title=" ">
<polygon fill="white" stroke="#666666" points="285,-126 161,-126 161,-96 285,-96 285,-126"/>
<text text-anchor="start" x="169" y="-114" font-family="Helvetica,sans-Serif" font-size="10.00">AuthenticationService</text>
<text text-anchor="middle" x="223" y="-103" font-family="Helvetica,sans-Serif" font-size="10.00">::instance</text>
</a>
</g>
</g>
<!-- Node1&#45;&gt;Node3 -->
<g id="edge2_Node000001_Node000003" class="edge">
<title>Node1&#45;&gt;Node3</title>
<g id="a_edge2_Node000001_Node000003"><a xlink:title=" ">
<path fill="none" stroke="#63b8ff" d="M125.23,-96.35C133.67,-97.62 142.38,-98.94 150.96,-100.24"/>
<polygon fill="#63b8ff" stroke="#63b8ff" points="150.54,-103.72 160.96,-101.76 151.59,-96.8 150.54,-103.72"/>
</a>
</g>
</g>
<!-- Node4 -->
<g id="Node000004" class="node">
<title>Node4</title>
<g id="a_Node000004"><a xlink:href="classLoginPage.html#ab85c215a7ad69e03fa4b3d07b6687c2e" target="_top" xlink:title="Updates the UI to reflect the state of a logged&#45;in user.">
<polygon fill="white" stroke="#666666" points="283,-78 163,-78 163,-48 283,-48 283,-78"/>
<text text-anchor="start" x="171" y="-66" font-family="Helvetica,sans-Serif" font-size="10.00">LoginPage::update_ui</text>
<text text-anchor="middle" x="223" y="-55" font-family="Helvetica,sans-Serif" font-size="10.00">_for_logged_in_user</text>
</a>
</g>
</g>
<!-- Node1&#45;&gt;Node4 -->
<g id="edge3_Node000001_Node000004" class="edge">
<title>Node1&#45;&gt;Node4</title>
<g id="a_edge3_Node000001_Node000004"><a xlink:title=" ">
<path fill="none" stroke="#63b8ff" d="M125.23,-77.65C134.2,-76.29 143.48,-74.89 152.59,-73.51"/>
<polygon fill="#63b8ff" stroke="#63b8ff" points="153.41,-76.93 162.77,-71.97 152.36,-70 153.41,-76.93"/>
</a>
</g>
</g>
<!-- Node5 -->
<g id="Node000005" class="node">
<title>Node5</title>
<g id="a_Node000005"><a xlink:href="classLoginPage.html#a64039d7b1a1fde6e38e7682bb17e94a0" target="_top" xlink:title="Resets the UI to the logged&#45;out state.">
<polygon fill="white" stroke="#666666" points="283,-30 163,-30 163,0 283,0 283,-30"/>
<text text-anchor="start" x="171" y="-18" font-family="Helvetica,sans-Serif" font-size="10.00">LoginPage::update_ui</text>
<text text-anchor="middle" x="223" y="-7" font-family="Helvetica,sans-Serif" font-size="10.00">_for_logged_out</text>
</a>
</g>
</g>
<!-- Node1&#45;&gt;Node5 -->
<g id="edge4_Node000001_Node000005" class="edge">
<title>Node1&#45;&gt;Node5</title>
<g id="a_edge4_Node000001_Node000005"><a xlink:title=" ">
<path fill="none" stroke="#63b8ff" d="M81.98,-77.34C101.43,-67.3 133.04,-51.36 161,-39 164.86,-37.29 168.89,-35.57 172.95,-33.89"/>
<polygon fill="#63b8ff" stroke="#63b8ff" points="174.49,-37.04 182.43,-30.02 171.84,-30.56 174.49,-37.04"/>
</a>
</g>
</g>
</g>
</svg>
