<?xml version="1.0" encoding="UTF-8" standalone="no"?>
<!DOCTYPE svg PUBLIC "-//W3C//DTD SVG 1.1//EN"
 "http://www.w3.org/Graphics/SVG/1.1/DTD/svg11.dtd">
<!-- Generated by graphviz version 2.43.0 (0)
 -->
<!-- Title: AuthenticationService::current_user Pages: 1 -->
<svg width="816pt" height="148pt"
 viewBox="0.00 0.00 816.00 147.63" xmlns="http://www.w3.org/2000/svg" xmlns:xlink="http://www.w3.org/1999/xlink">
<g id="graph0" class="graph" transform="scale(1 1) rotate(0) translate(4 143.63)">
<title>AuthenticationService::current_user</title>
<!-- Node1 -->
<g id="Node000001" class="node">
<title>Node1</title>
<g id="a_Node000001"><a xlink:title=" ">
<polygon fill="#999999" stroke="#666666" points="808,-95.63 684,-95.63 684,-65.63 808,-65.63 808,-95.63"/>
<text text-anchor="start" x="692" y="-83.63" font-family="Helvetica,sans-Serif" font-size="10.00">AuthenticationService</text>
<text text-anchor="middle" x="746" y="-72.63" font-family="Helvetica,sans-Serif" font-size="10.00">::current_user</text>
</a>
</g>
</g>
<!-- Node2 -->
<g id="Node000002" class="node">
<title>Node2</title>
<g id="a_Node000002"><a xlink:href="classLoginPage.html#ac14065c6e2529048d568cddef19f3028" target="_top" xlink:title="Attempts to log in with the provided username and password.">
<polygon fill="white" stroke="#666666" points="641,-139.63 530,-139.63 530,-109.63 641,-109.63 641,-139.63"/>
<text text-anchor="start" x="538" y="-127.63" font-family="Helvetica,sans-Serif" font-size="10.00">LoginPage::attempt</text>
<text text-anchor="middle" x="585.5" y="-116.63" font-family="Helvetica,sans-Serif" font-size="10.00">_login</text>
</a>
</g>
</g>
<!-- Node1&#45;&gt;Node2 -->
<g id="edge1_Node000001_Node000002" class="edge">
<title>Node1&#45;&gt;Node2</title>
<g id="a_edge1_Node000001_Node000002"><a xlink:title=" ">
<path fill="none" stroke="#63b8ff" d="M681.23,-98.34C667.77,-102.07 653.69,-105.98 640.63,-109.61"/>
<polygon fill="#63b8ff" stroke="#63b8ff" points="682.2,-101.7 690.9,-95.65 680.32,-94.95 682.2,-101.7"/>
</a>
</g>
</g>
<!-- Node5 -->
<g id="Node000005" class="node">
<title>Node5</title>
<g id="a_Node000005"><a xlink:href="classLoginPage.html#ac103700888386d9b991f51467afc058c" target="_top" xlink:title="Called when the widget is shown, used to reset or update UI state.">
<polygon fill="white" stroke="#666666" points="648,-90.13 523,-90.13 523,-71.13 648,-71.13 648,-90.13"/>
<text text-anchor="middle" x="585.5" y="-78.13" font-family="Helvetica,sans-Serif" font-size="10.00">LoginPage::showEvent</text>
</a>
</g>
</g>
<!-- Node1&#45;&gt;Node5 -->
<g id="edge4_Node000001_Node000005" class="edge">
<title>Node1&#45;&gt;Node5</title>
<g id="a_edge4_Node000001_Node000005"><a xlink:title=" ">
<path fill="none" stroke="#63b8ff" d="M673.49,-80.63C665.03,-80.63 656.45,-80.63 648.14,-80.63"/>
<polygon fill="#63b8ff" stroke="#63b8ff" points="673.72,-84.13 683.72,-80.63 673.72,-77.13 673.72,-84.13"/>
</a>
</g>
</g>
<!-- Node6 -->
<g id="Node000006" class="node">
<title>Node6</title>
<g id="a_Node000006"><a xlink:href="classTechMapp.html#ada82d1ac29bbec7da9675ae29b7b23f0" target="_top" xlink:title="Updates the UI components based on the user&#39;s role.">
<polygon fill="white" stroke="#666666" points="645,-51.63 526,-51.63 526,-21.63 645,-21.63 645,-51.63"/>
<text text-anchor="start" x="534" y="-39.63" font-family="Helvetica,sans-Serif" font-size="10.00">TechMapp::update_ui</text>
<text text-anchor="middle" x="585.5" y="-28.63" font-family="Helvetica,sans-Serif" font-size="10.00">_for_role</text>
</a>
</g>
</g>
<!-- Node1&#45;&gt;Node6 -->
<g id="edge5_Node000001_Node000006" class="edge">
<title>Node1&#45;&gt;Node6</title>
<g id="a_edge5_Node000001_Node000006"><a xlink:title=" ">
<path fill="none" stroke="#63b8ff" d="M681.23,-62.93C667.77,-59.19 653.69,-55.29 640.63,-51.66"/>
<polygon fill="#63b8ff" stroke="#63b8ff" points="680.32,-66.31 690.9,-65.61 682.2,-59.57 680.32,-66.31"/>
</a>
</g>
</g>
<!-- Node3 -->
<g id="Node000003" class="node">
<title>Node3</title>
<g id="a_Node000003"><a xlink:href="classLoginPage.html#a7cd454f7668442d809030c3e5e6a66ea" target="_top" xlink:title="Connects UI elements to their respective slots.">
<polygon fill="white" stroke="#666666" points="487,-135.13 339,-135.13 339,-116.13 487,-116.13 487,-135.13"/>
<text text-anchor="middle" x="413" y="-123.13" font-family="Helvetica,sans-Serif" font-size="10.00">LoginPage::setup_connects</text>
</a>
</g>
</g>
<!-- Node2&#45;&gt;Node3 -->
<g id="edge2_Node000002_Node000003" class="edge">
<title>Node2&#45;&gt;Node3</title>
<g id="a_edge2_Node000002_Node000003"><a xlink:title=" ">
<path fill="none" stroke="#63b8ff" d="M519.6,-125.01C508.99,-125.08 497.93,-125.14 487.13,-125.2"/>
<polygon fill="#63b8ff" stroke="#63b8ff" points="519.63,-128.51 529.61,-124.95 519.59,-121.51 519.63,-128.51"/>
</a>
</g>
</g>
<!-- Node4 -->
<g id="Node000004" class="node">
<title>Node4</title>
<g id="a_Node000004"><a xlink:href="classLoginPage.html#ac80d4431cd7779e6ae5f8c3b17fe6c3f" target="_top" xlink:title="Constructs the login page UI.">
<polygon fill="white" stroke="#666666" points="290.5,-135.13 168.5,-135.13 168.5,-116.13 290.5,-116.13 290.5,-135.13"/>
<text text-anchor="middle" x="229.5" y="-123.13" font-family="Helvetica,sans-Serif" font-size="10.00">LoginPage::LoginPage</text>
</a>
</g>
</g>
<!-- Node3&#45;&gt;Node4 -->
<g id="edge3_Node000003_Node000004" class="edge">
<title>Node3&#45;&gt;Node4</title>
<g id="a_edge3_Node000003_Node000004"><a xlink:title=" ">
<path fill="none" stroke="#63b8ff" d="M328.72,-125.63C315.87,-125.63 302.81,-125.63 290.6,-125.63"/>
<polygon fill="#63b8ff" stroke="#63b8ff" points="328.96,-129.13 338.96,-125.63 328.96,-122.13 328.96,-129.13"/>
</a>
</g>
</g>
<!-- Node7 -->
<g id="Node000007" class="node">
<title>Node7</title>
<g id="a_Node000007"><a xlink:href="classTechMapp.html#a7a7ddf55a46e58e917e7f308161a773e" target="_top" xlink:title="Called when a login is successful.">
<polygon fill="white" stroke="#666666" points="469.5,-97.63 356.5,-97.63 356.5,-67.63 469.5,-67.63 469.5,-97.63"/>
<text text-anchor="start" x="364.5" y="-85.63" font-family="Helvetica,sans-Serif" font-size="10.00">TechMapp::on_login</text>
<text text-anchor="middle" x="413" y="-74.63" font-family="Helvetica,sans-Serif" font-size="10.00">_successful</text>
</a>
</g>
</g>
<!-- Node6&#45;&gt;Node7 -->
<g id="edge6_Node000006_Node000007" class="edge">
<title>Node6&#45;&gt;Node7</title>
<g id="a_edge6_Node000006_Node000007"><a xlink:title=" ">
<path fill="none" stroke="#63b8ff" d="M518.73,-54.38C502.53,-58.75 485.33,-63.39 469.66,-67.62"/>
<polygon fill="#63b8ff" stroke="#63b8ff" points="519.93,-57.68 528.67,-51.69 518.11,-50.92 519.93,-57.68"/>
</a>
</g>
</g>
<!-- Node9 -->
<g id="Node000009" class="node">
<title>Node9</title>
<g id="a_Node000009"><a xlink:href="classTechMapp.html#ac4d485efbe0d00914dcfb9680a39ec77" target="_top" xlink:title="Constructs the main application window.">
<polygon fill="white" stroke="#666666" points="120,-22.13 0,-22.13 0,-3.13 120,-3.13 120,-22.13"/>
<text text-anchor="middle" x="60" y="-10.13" font-family="Helvetica,sans-Serif" font-size="10.00">TechMapp::TechMapp</text>
</a>
</g>
</g>
<!-- Node6&#45;&gt;Node9 -->
<g id="edge11_Node000006_Node000009" class="edge">
<title>Node6&#45;&gt;Node9</title>
<g id="a_edge11_Node000006_Node000009"><a xlink:title=" ">
<path fill="none" stroke="#63b8ff" d="M527.93,-18.88C514.63,-15.46 500.43,-12.39 487,-10.63 357.02,6.4 202.81,-1.11 120.23,-7.35"/>
<polygon fill="#63b8ff" stroke="#63b8ff" points="527.32,-22.35 537.89,-21.56 529.13,-15.58 527.32,-22.35"/>
</a>
</g>
</g>
<!-- Node10 -->
<g id="Node000010" class="node">
<title>Node10</title>
<g id="a_Node000010"><a xlink:href="classTechMapp.html#a7ff2ad6699f59bc55499b83dac1a07da" target="_top" xlink:title="Called when a logout is requested by the user.">
<polygon fill="white" stroke="#666666" points="472.5,-49.63 353.5,-49.63 353.5,-19.63 472.5,-19.63 472.5,-49.63"/>
<text text-anchor="start" x="361.5" y="-37.63" font-family="Helvetica,sans-Serif" font-size="10.00">TechMapp::on_logout</text>
<text text-anchor="middle" x="413" y="-26.63" font-family="Helvetica,sans-Serif" font-size="10.00">_requested</text>
</a>
</g>
</g>
<!-- Node6&#45;&gt;Node10 -->
<g id="edge9_Node000006_Node000010" class="edge">
<title>Node6&#45;&gt;Node10</title>
<g id="a_edge9_Node000006_Node000010"><a xlink:title=" ">
<path fill="none" stroke="#63b8ff" d="M515.62,-35.82C501.42,-35.66 486.59,-35.48 472.78,-35.32"/>
<polygon fill="#63b8ff" stroke="#63b8ff" points="515.78,-39.33 525.82,-35.94 515.87,-32.33 515.78,-39.33"/>
</a>
</g>
</g>
<!-- Node8 -->
<g id="Node000008" class="node">
<title>Node8</title>
<g id="a_Node000008"><a xlink:href="classTechMapp.html#af0e39c1d95a040c849f8f920b4ba4ffe" target="_top" xlink:title="Connects internal signals and slots for UI and authentication handling.">
<polygon fill="white" stroke="#666666" points="303,-44.13 156,-44.13 156,-25.13 303,-25.13 303,-44.13"/>
<text text-anchor="middle" x="229.5" y="-32.13" font-family="Helvetica,sans-Serif" font-size="10.00">TechMapp::setup_connects</text>
</a>
</g>
</g>
<!-- Node7&#45;&gt;Node8 -->
<g id="edge7_Node000007_Node000008" class="edge">
<title>Node7&#45;&gt;Node8</title>
<g id="a_edge7_Node000007_Node000008"><a xlink:title=" ">
<path fill="none" stroke="#63b8ff" d="M346.31,-65.26C319.39,-58.14 289.28,-50.18 266.51,-44.16"/>
<polygon fill="#63b8ff" stroke="#63b8ff" points="345.5,-68.67 356.06,-67.84 347.29,-61.9 345.5,-68.67"/>
</a>
</g>
</g>
<!-- Node8&#45;&gt;Node9 -->
<g id="edge8_Node000008_Node000009" class="edge">
<title>Node8&#45;&gt;Node9</title>
<g id="a_edge8_Node000008_Node000009"><a xlink:title=" ">
<path fill="none" stroke="#63b8ff" d="M145.81,-23.77C137.1,-22.63 128.37,-21.48 120,-20.38"/>
<polygon fill="#63b8ff" stroke="#63b8ff" points="145.64,-27.28 156.01,-25.11 146.55,-20.34 145.64,-27.28"/>
</a>
</g>
</g>
<!-- Node10&#45;&gt;Node8 -->
<g id="edge10_Node000010_Node000008" class="edge">
<title>Node10&#45;&gt;Node8</title>
<g id="a_edge10_Node000010_Node000008"><a xlink:title=" ">
<path fill="none" stroke="#63b8ff" d="M343.05,-34.63C330.04,-34.63 316.4,-34.63 303.28,-34.63"/>
<polygon fill="#63b8ff" stroke="#63b8ff" points="343.32,-38.13 353.32,-34.63 343.32,-31.13 343.32,-38.13"/>
</a>
</g>
</g>
</g>
</svg>
