<?xml version="1.0" encoding="UTF-8" standalone="no"?>
<!DOCTYPE svg PUBLIC "-//W3C//DTD SVG 1.1//EN"
 "http://www.w3.org/Graphics/SVG/1.1/DTD/svg11.dtd">
<!-- Generated by graphviz version 2.43.0 (0)
 -->
<!-- Title: InterventionEditPanel Pages: 1 -->
<svg width="265pt" height="149pt"
 viewBox="0.00 0.00 264.50 149.00" xmlns="http://www.w3.org/2000/svg" xmlns:xlink="http://www.w3.org/1999/xlink">
<g id="graph0" class="graph" transform="scale(1 1) rotate(0) translate(4 145)">
<title>InterventionEditPanel</title>
<!-- Node1 -->
<g id="Node000001" class="node">
<title>Node1</title>
<g id="a_Node000001"><a xlink:title="A QWidget&#45;based panel for editing an existing intervention.">
<polygon fill="#999999" stroke="#666666" points="121,-19 0,-19 0,0 121,0 121,-19"/>
<text text-anchor="middle" x="60.5" y="-7" font-family="Helvetica,sans-Serif" font-size="10.00">InterventionEditPanel</text>
</a>
</g>
</g>
<!-- Node2 -->
<g id="Node000002" class="node">
<title>Node2</title>
<g id="a_Node000002"><a xlink:title=" ">
<polygon fill="white" stroke="#666666" points="74,-85 15,-85 15,-66 74,-66 74,-85"/>
<text text-anchor="middle" x="44.5" y="-73" font-family="Helvetica,sans-Serif" font-size="10.00">QWidget</text>
</a>
</g>
</g>
<!-- Node2&#45;&gt;Node1 -->
<g id="edge1_Node000001_Node000002" class="edge">
<title>Node2&#45;&gt;Node1</title>
<g id="a_edge1_Node000001_Node000002"><a xlink:title=" ">
<path fill="none" stroke="#63b8ff" d="M49.14,-55.95C52.14,-43.93 55.92,-28.82 58.27,-19.41"/>
<polygon fill="#63b8ff" stroke="#63b8ff" points="45.69,-55.32 46.66,-65.87 52.48,-57.02 45.69,-55.32"/>
</a>
</g>
</g>
<!-- Node3 -->
<g id="Node000003" class="node">
<title>Node3</title>
<g id="a_Node000003"><a xlink:href="classTechListController.html" target="_top" xlink:title="Controls UI elements related to technician selection and observes technician repository updates.">
<polygon fill="white" stroke="#666666" points="196.5,-85 92.5,-85 92.5,-66 196.5,-66 196.5,-85"/>
<text text-anchor="middle" x="144.5" y="-73" font-family="Helvetica,sans-Serif" font-size="10.00">TechListController</text>
</a>
</g>
</g>
<!-- Node3&#45;&gt;Node1 -->
<g id="edge2_Node000001_Node000003" class="edge">
<title>Node3&#45;&gt;Node1</title>
<g id="a_edge2_Node000001_Node000003"><a xlink:title=" ">
<path fill="none" stroke="#9a32cd" stroke-dasharray="5,2" d="M124.8,-59.49C108.35,-46.96 85.49,-29.54 71.92,-19.2"/>
<polygon fill="#9a32cd" stroke="#9a32cd" points="123.1,-62.59 133.17,-65.87 127.34,-57.02 123.1,-62.59"/>
</a>
</g>
<text text-anchor="middle" x="154" y="-40" font-family="Helvetica,sans-Serif" font-size="10.00" fill="grey"> m_tech_controller</text>
</g>
<!-- Node4 -->
<g id="Node000004" class="node">
<title>Node4</title>
<g id="a_Node000004"><a xlink:title=" ">
<polygon fill="white" stroke="#666666" points="120.5,-141 64.5,-141 64.5,-122 120.5,-122 120.5,-141"/>
<text text-anchor="middle" x="92.5" y="-129" font-family="Helvetica,sans-Serif" font-size="10.00">QObject</text>
</a>
</g>
</g>
<!-- Node4&#45;&gt;Node3 -->
<g id="edge3_Node000003_Node000004" class="edge">
<title>Node4&#45;&gt;Node3</title>
<g id="a_edge3_Node000003_Node000004"><a xlink:title=" ">
<path fill="none" stroke="#63b8ff" d="M108.18,-114.22C117.34,-104.7 128.55,-93.06 136.07,-85.25"/>
<polygon fill="#63b8ff" stroke="#63b8ff" points="105.5,-111.95 101.09,-121.58 110.54,-116.81 105.5,-111.95"/>
</a>
</g>
</g>
<!-- Node5 -->
<g id="Node000005" class="node">
<title>Node5</title>
<g id="a_Node000005"><a xlink:href="classATechnicianObserver.html" target="_top" xlink:title="Interface for classes that need to observe changes in the technician repository.">
<polygon fill="white" stroke="#666666" points="256.5,-141 138.5,-141 138.5,-122 256.5,-122 256.5,-141"/>
<text text-anchor="middle" x="197.5" y="-129" font-family="Helvetica,sans-Serif" font-size="10.00">ATechnicianObserver</text>
</a>
</g>
</g>
<!-- Node5&#45;&gt;Node3 -->
<g id="edge4_Node000003_Node000005" class="edge">
<title>Node5&#45;&gt;Node3</title>
<g id="a_edge4_Node000003_Node000005"><a xlink:title=" ">
<path fill="none" stroke="#63b8ff" d="M181.52,-114.22C172.18,-104.7 160.75,-93.06 153.09,-85.25"/>
<polygon fill="#63b8ff" stroke="#63b8ff" points="179.25,-116.9 188.75,-121.58 184.24,-111.99 179.25,-116.9"/>
</a>
</g>
</g>
</g>
</svg>
