<?xml version="1.0" encoding="UTF-8" standalone="no"?>
<!DOCTYPE svg PUBLIC "-//W3C//DTD SVG 1.1//EN"
 "http://www.w3.org/Graphics/SVG/1.1/DTD/svg11.dtd">
<!-- Generated by graphviz version 2.43.0 (0)
 -->
<!-- Title: InterventionRepositoryProxy::clear Pages: 1 -->
<svg width="492pt" height="134pt"
 viewBox="0.00 0.00 492.00 134.00" xmlns="http://www.w3.org/2000/svg" xmlns:xlink="http://www.w3.org/1999/xlink">
<g id="graph0" class="graph" transform="scale(1 1) rotate(0) translate(4 130)">
<title>InterventionRepositoryProxy::clear</title>
<!-- Node1 -->
<g id="Node000001" class="node">
<title>Node1</title>
<g id="a_Node000001"><a xlink:title="Clears all interventions from the repository.">
<polygon fill="#999999" stroke="#666666" points="156,-78 0,-78 0,-48 156,-48 156,-78"/>
<text text-anchor="start" x="8" y="-66" font-family="Helvetica,sans-Serif" font-size="10.00">InterventionRepositoryProxy</text>
<text text-anchor="middle" x="78" y="-55" font-family="Helvetica,sans-Serif" font-size="10.00">::clear</text>
</a>
</g>
</g>
<!-- Node2 -->
<g id="Node000002" class="node">
<title>Node2</title>
<g id="a_Node000002"><a xlink:href="classInterventionRepository.html#ab355e592c073acdacbed6157ace76221" target="_top" xlink:title="Clears all stored interventions.">
<polygon fill="white" stroke="#666666" points="320,-126 192,-126 192,-96 320,-96 320,-126"/>
<text text-anchor="start" x="200" y="-114" font-family="Helvetica,sans-Serif" font-size="10.00">InterventionRepository</text>
<text text-anchor="middle" x="256" y="-103" font-family="Helvetica,sans-Serif" font-size="10.00">::clear</text>
</a>
</g>
</g>
<!-- Node1&#45;&gt;Node2 -->
<g id="edge1_Node000001_Node000002" class="edge">
<title>Node1&#45;&gt;Node2</title>
<g id="a_edge1_Node000001_Node000002"><a xlink:title=" ">
<path fill="none" stroke="#63b8ff" d="M134.2,-78.06C151.98,-82.9 171.84,-88.32 190.23,-93.34"/>
<polygon fill="#63b8ff" stroke="#63b8ff" points="189.42,-96.74 199.99,-96 191.26,-89.99 189.42,-96.74"/>
</a>
</g>
</g>
<!-- Node4 -->
<g id="Node000004" class="node">
<title>Node4</title>
<g id="a_Node000004"><a xlink:href="classAuthenticationService.html#a2dc8be4689e371d7a773ac008b21cf3a" target="_top" xlink:title=" ">
<polygon fill="white" stroke="#666666" points="318,-78 194,-78 194,-48 318,-48 318,-78"/>
<text text-anchor="start" x="202" y="-66" font-family="Helvetica,sans-Serif" font-size="10.00">AuthenticationService</text>
<text text-anchor="middle" x="256" y="-55" font-family="Helvetica,sans-Serif" font-size="10.00">::instance</text>
</a>
</g>
</g>
<!-- Node1&#45;&gt;Node4 -->
<g id="edge3_Node000001_Node000004" class="edge">
<title>Node1&#45;&gt;Node4</title>
<g id="a_edge3_Node000001_Node000004"><a xlink:title=" ">
<path fill="none" stroke="#63b8ff" d="M156.2,-63C165.39,-63 174.74,-63 183.85,-63"/>
<polygon fill="#63b8ff" stroke="#63b8ff" points="184,-66.5 194,-63 184,-59.5 184,-66.5"/>
</a>
</g>
</g>
<!-- Node5 -->
<g id="Node000005" class="node">
<title>Node5</title>
<g id="a_Node000005"><a xlink:href="classInterventionRepository.html#a2e562f9d059314c9cb2fb8cc0d19008b" target="_top" xlink:title="Returns the singleton instance of the repository.">
<polygon fill="white" stroke="#666666" points="320,-30 192,-30 192,0 320,0 320,-30"/>
<text text-anchor="start" x="200" y="-18" font-family="Helvetica,sans-Serif" font-size="10.00">InterventionRepository</text>
<text text-anchor="middle" x="256" y="-7" font-family="Helvetica,sans-Serif" font-size="10.00">::instance</text>
</a>
</g>
</g>
<!-- Node1&#45;&gt;Node5 -->
<g id="edge4_Node000001_Node000005" class="edge">
<title>Node1&#45;&gt;Node5</title>
<g id="a_edge4_Node000001_Node000005"><a xlink:title=" ">
<path fill="none" stroke="#63b8ff" d="M134.2,-47.94C151.98,-43.1 171.84,-37.68 190.23,-32.66"/>
<polygon fill="#63b8ff" stroke="#63b8ff" points="191.26,-36.01 199.99,-30 189.42,-29.26 191.26,-36.01"/>
</a>
</g>
</g>
<!-- Node3 -->
<g id="Node000003" class="node">
<title>Node3</title>
<g id="a_Node000003"><a xlink:href="classInterventionRepository.html#adabfab8492ff03147966e93905b5c907" target="_top" xlink:title="Notifies all subscribed QObjects about repository updates.">
<polygon fill="white" stroke="#666666" points="484,-126 356,-126 356,-96 484,-96 484,-126"/>
<text text-anchor="start" x="364" y="-114" font-family="Helvetica,sans-Serif" font-size="10.00">InterventionRepository</text>
<text text-anchor="middle" x="420" y="-103" font-family="Helvetica,sans-Serif" font-size="10.00">::notify_all</text>
</a>
</g>
</g>
<!-- Node2&#45;&gt;Node3 -->
<g id="edge2_Node000002_Node000003" class="edge">
<title>Node2&#45;&gt;Node3</title>
<g id="a_edge2_Node000002_Node000003"><a xlink:title=" ">
<path fill="none" stroke="#63b8ff" d="M320.1,-111C328.43,-111 337.04,-111 345.53,-111"/>
<polygon fill="#63b8ff" stroke="#63b8ff" points="345.81,-114.5 355.81,-111 345.81,-107.5 345.81,-114.5"/>
</a>
</g>
</g>
</g>
</svg>
