<?xml version="1.0" encoding="UTF-8" standalone="no"?>
<!DOCTYPE svg PUBLIC "-//W3C//DTD SVG 1.1//EN"
 "http://www.w3.org/Graphics/SVG/1.1/DTD/svg11.dtd">
<!-- Generated by graphviz version 2.43.0 (0)
 -->
<!-- Title: LoginPage::update_ui_for_logged_in_user Pages: 1 -->
<svg width="631pt" height="76pt"
 viewBox="0.00 0.00 631.00 75.50" xmlns="http://www.w3.org/2000/svg" xmlns:xlink="http://www.w3.org/1999/xlink">
<g id="graph0" class="graph" transform="scale(1 1) rotate(0) translate(4 71.5)">
<title>LoginPage::update_ui_for_logged_in_user</title>
<!-- Node1 -->
<g id="Node000001" class="node">
<title>Node1</title>
<g id="a_Node000001"><a xlink:title="Updates the UI to reflect the state of a logged&#45;in user.">
<polygon fill="#999999" stroke="#666666" points="623,-45.5 503,-45.5 503,-15.5 623,-15.5 623,-45.5"/>
<text text-anchor="start" x="511" y="-33.5" font-family="Helvetica,sans-Serif" font-size="10.00">LoginPage::update_ui</text>
<text text-anchor="middle" x="563" y="-22.5" font-family="Helvetica,sans-Serif" font-size="10.00">_for_logged_in_user</text>
</a>
</g>
</g>
<!-- Node2 -->
<g id="Node000002" class="node">
<title>Node2</title>
<g id="a_Node000002"><a xlink:href="classLoginPage.html#ac14065c6e2529048d568cddef19f3028" target="_top" xlink:title="Attempts to log in with the provided username and password.">
<polygon fill="white" stroke="#666666" points="460,-67.5 349,-67.5 349,-37.5 460,-37.5 460,-67.5"/>
<text text-anchor="start" x="357" y="-55.5" font-family="Helvetica,sans-Serif" font-size="10.00">LoginPage::attempt</text>
<text text-anchor="middle" x="404.5" y="-44.5" font-family="Helvetica,sans-Serif" font-size="10.00">_login</text>
</a>
</g>
</g>
<!-- Node1&#45;&gt;Node2 -->
<g id="edge1_Node000001_Node000002" class="edge">
<title>Node1&#45;&gt;Node2</title>
<g id="a_edge1_Node000001_Node000002"><a xlink:title=" ">
<path fill="none" stroke="#63b8ff" d="M492.86,-40.22C481.89,-41.76 470.68,-43.34 460.11,-44.82"/>
<polygon fill="#63b8ff" stroke="#63b8ff" points="493.42,-43.68 502.83,-38.82 492.44,-36.74 493.42,-43.68"/>
</a>
</g>
</g>
<!-- Node5 -->
<g id="Node000005" class="node">
<title>Node5</title>
<g id="a_Node000005"><a xlink:href="classLoginPage.html#ac103700888386d9b991f51467afc058c" target="_top" xlink:title="Called when the widget is shown, used to reset or update UI state.">
<polygon fill="white" stroke="#666666" points="467,-19 342,-19 342,0 467,0 467,-19"/>
<text text-anchor="middle" x="404.5" y="-7" font-family="Helvetica,sans-Serif" font-size="10.00">LoginPage::showEvent</text>
</a>
</g>
</g>
<!-- Node1&#45;&gt;Node5 -->
<g id="edge4_Node000001_Node000005" class="edge">
<title>Node1&#45;&gt;Node5</title>
<g id="a_edge4_Node000001_Node000005"><a xlink:title=" ">
<path fill="none" stroke="#63b8ff" d="M492.86,-21.22C484.28,-20.07 475.55,-18.9 467.09,-17.77"/>
<polygon fill="#63b8ff" stroke="#63b8ff" points="492.46,-24.7 502.83,-22.56 493.39,-17.76 492.46,-24.7"/>
</a>
</g>
</g>
<!-- Node3 -->
<g id="Node000003" class="node">
<title>Node3</title>
<g id="a_Node000003"><a xlink:href="classLoginPage.html#a7cd454f7668442d809030c3e5e6a66ea" target="_top" xlink:title="Connects UI elements to their respective slots.">
<polygon fill="white" stroke="#666666" points="306,-62 158,-62 158,-43 306,-43 306,-62"/>
<text text-anchor="middle" x="232" y="-50" font-family="Helvetica,sans-Serif" font-size="10.00">LoginPage::setup_connects</text>
</a>
</g>
</g>
<!-- Node2&#45;&gt;Node3 -->
<g id="edge2_Node000002_Node000003" class="edge">
<title>Node2&#45;&gt;Node3</title>
<g id="a_edge2_Node000002_Node000003"><a xlink:title=" ">
<path fill="none" stroke="#63b8ff" d="M338.6,-52.5C327.99,-52.5 316.93,-52.5 306.13,-52.5"/>
<polygon fill="#63b8ff" stroke="#63b8ff" points="338.61,-56 348.61,-52.5 338.61,-49 338.61,-56"/>
</a>
</g>
</g>
<!-- Node4 -->
<g id="Node000004" class="node">
<title>Node4</title>
<g id="a_Node000004"><a xlink:href="classLoginPage.html#ac80d4431cd7779e6ae5f8c3b17fe6c3f" target="_top" xlink:title="Constructs the login page UI.">
<polygon fill="white" stroke="#666666" points="122,-62 0,-62 0,-43 122,-43 122,-62"/>
<text text-anchor="middle" x="61" y="-50" font-family="Helvetica,sans-Serif" font-size="10.00">LoginPage::LoginPage</text>
</a>
</g>
</g>
<!-- Node3&#45;&gt;Node4 -->
<g id="edge3_Node000003_Node000004" class="edge">
<title>Node3&#45;&gt;Node4</title>
<g id="a_edge3_Node000003_Node000004"><a xlink:title=" ">
<path fill="none" stroke="#63b8ff" d="M147.72,-52.5C139.06,-52.5 130.38,-52.5 122.05,-52.5"/>
<polygon fill="#63b8ff" stroke="#63b8ff" points="147.86,-56 157.86,-52.5 147.86,-49 147.86,-56"/>
</a>
</g>
</g>
</g>
</svg>
