<?xml version="1.0" encoding="UTF-8" standalone="no"?>
<!DOCTYPE svg PUBLIC "-//W3C//DTD SVG 1.1//EN"
 "http://www.w3.org/Graphics/SVG/1.1/DTD/svg11.dtd">
<!-- Generated by graphviz version 2.43.0 (0)
 -->
<!-- Title: InterventionRepository::notify_all Pages: 1 -->
<svg width="492pt" height="86pt"
 viewBox="0.00 0.00 492.00 86.00" xmlns="http://www.w3.org/2000/svg" xmlns:xlink="http://www.w3.org/1999/xlink">
<g id="graph0" class="graph" transform="scale(1 1) rotate(0) translate(4 82)">
<title>InterventionRepository::notify_all</title>
<!-- Node1 -->
<g id="Node000001" class="node">
<title>Node1</title>
<g id="a_Node000001"><a xlink:title="Notifies all subscribed QObjects about repository updates.">
<polygon fill="#999999" stroke="#666666" points="484,-54 356,-54 356,-24 484,-24 484,-54"/>
<text text-anchor="start" x="364" y="-42" font-family="Helvetica,sans-Serif" font-size="10.00">InterventionRepository</text>
<text text-anchor="middle" x="420" y="-31" font-family="Helvetica,sans-Serif" font-size="10.00">::notify_all</text>
</a>
</g>
</g>
<!-- Node2 -->
<g id="Node000002" class="node">
<title>Node2</title>
<g id="a_Node000002"><a xlink:href="classInterventionRepository.html#ab355e592c073acdacbed6157ace76221" target="_top" xlink:title="Clears all stored interventions.">
<polygon fill="white" stroke="#666666" points="320,-78 192,-78 192,-48 320,-48 320,-78"/>
<text text-anchor="start" x="200" y="-66" font-family="Helvetica,sans-Serif" font-size="10.00">InterventionRepository</text>
<text text-anchor="middle" x="256" y="-55" font-family="Helvetica,sans-Serif" font-size="10.00">::clear</text>
</a>
</g>
</g>
<!-- Node1&#45;&gt;Node2 -->
<g id="edge1_Node000001_Node000002" class="edge">
<title>Node1&#45;&gt;Node2</title>
<g id="a_edge1_Node000001_Node000002"><a xlink:title=" ">
<path fill="none" stroke="#63b8ff" d="M345.91,-49.83C337.32,-51.1 328.62,-52.39 320.19,-53.64"/>
<polygon fill="#63b8ff" stroke="#63b8ff" points="346.52,-53.28 355.9,-48.35 345.5,-46.35 346.52,-53.28"/>
</a>
</g>
</g>
<!-- Node4 -->
<g id="Node000004" class="node">
<title>Node4</title>
<g id="a_Node000004"><a xlink:href="classInterventionRepository.html#a7eca3e8a28da3de87bbf3ecea7c98f31" target="_top" xlink:title="Saves a new or existing intervention in the repository.">
<polygon fill="white" stroke="#666666" points="320,-30 192,-30 192,0 320,0 320,-30"/>
<text text-anchor="start" x="200" y="-18" font-family="Helvetica,sans-Serif" font-size="10.00">InterventionRepository</text>
<text text-anchor="middle" x="256" y="-7" font-family="Helvetica,sans-Serif" font-size="10.00">::save</text>
</a>
</g>
</g>
<!-- Node1&#45;&gt;Node4 -->
<g id="edge3_Node000001_Node000004" class="edge">
<title>Node1&#45;&gt;Node4</title>
<g id="a_edge3_Node000001_Node000004"><a xlink:title=" ">
<path fill="none" stroke="#63b8ff" d="M345.91,-28.17C337.32,-26.9 328.62,-25.61 320.19,-24.36"/>
<polygon fill="#63b8ff" stroke="#63b8ff" points="345.5,-31.65 355.9,-29.65 346.52,-24.72 345.5,-31.65"/>
</a>
</g>
</g>
<!-- Node3 -->
<g id="Node000003" class="node">
<title>Node3</title>
<g id="a_Node000003"><a xlink:href="classInterventionRepositoryProxy.html#aaf94c1abb4a931bfe9996f7c17bfe40e" target="_top" xlink:title="Clears all interventions from the repository.">
<polygon fill="white" stroke="#666666" points="156,-78 0,-78 0,-48 156,-48 156,-78"/>
<text text-anchor="start" x="8" y="-66" font-family="Helvetica,sans-Serif" font-size="10.00">InterventionRepositoryProxy</text>
<text text-anchor="middle" x="78" y="-55" font-family="Helvetica,sans-Serif" font-size="10.00">::clear</text>
</a>
</g>
</g>
<!-- Node2&#45;&gt;Node3 -->
<g id="edge2_Node000002_Node000003" class="edge">
<title>Node2&#45;&gt;Node3</title>
<g id="a_edge2_Node000002_Node000003"><a xlink:title=" ">
<path fill="none" stroke="#63b8ff" d="M181.73,-63C173.25,-63 164.58,-63 156.05,-63"/>
<polygon fill="#63b8ff" stroke="#63b8ff" points="181.96,-66.5 191.96,-63 181.96,-59.5 181.96,-66.5"/>
</a>
</g>
</g>
<!-- Node5 -->
<g id="Node000005" class="node">
<title>Node5</title>
<g id="a_Node000005"><a xlink:href="classInterventionRepositoryProxy.html#a67c7a6bccdeb7138f6891682f1d62bfc" target="_top" xlink:title="Saves an intervention to the repository.">
<polygon fill="white" stroke="#666666" points="156,-30 0,-30 0,0 156,0 156,-30"/>
<text text-anchor="start" x="8" y="-18" font-family="Helvetica,sans-Serif" font-size="10.00">InterventionRepositoryProxy</text>
<text text-anchor="middle" x="78" y="-7" font-family="Helvetica,sans-Serif" font-size="10.00">::save</text>
</a>
</g>
</g>
<!-- Node4&#45;&gt;Node5 -->
<g id="edge4_Node000004_Node000005" class="edge">
<title>Node4&#45;&gt;Node5</title>
<g id="a_edge4_Node000004_Node000005"><a xlink:title=" ">
<path fill="none" stroke="#63b8ff" d="M181.73,-15C173.25,-15 164.58,-15 156.05,-15"/>
<polygon fill="#63b8ff" stroke="#63b8ff" points="181.96,-18.5 191.96,-15 181.96,-11.5 181.96,-18.5"/>
</a>
</g>
</g>
</g>
</svg>
