<?xml version="1.0" encoding="UTF-8" standalone="no"?>
<!DOCTYPE svg PUBLIC "-//W3C//DTD SVG 1.1//EN"
 "http://www.w3.org/Graphics/SVG/1.1/DTD/svg11.dtd">
<!-- Generated by graphviz version 2.43.0 (0)
 -->
<!-- Title: LoginPage::attempt_login Pages: 1 -->
<svg width="307pt" height="248pt"
 viewBox="0.00 0.00 307.00 247.50" xmlns="http://www.w3.org/2000/svg" xmlns:xlink="http://www.w3.org/1999/xlink">
<g id="graph0" class="graph" transform="scale(1 1) rotate(0) translate(4 243.5)">
<title>LoginPage::attempt_login</title>
<!-- Node1 -->
<g id="Node000001" class="node">
<title>Node1</title>
<g id="a_Node000001"><a xlink:title="Attempts to log in with the provided username and password.">
<polygon fill="#999999" stroke="#666666" points="111,-137 0,-137 0,-107 111,-107 111,-137"/>
<text text-anchor="start" x="8" y="-125" font-family="Helvetica,sans-Serif" font-size="10.00">LoginPage::attempt</text>
<text text-anchor="middle" x="55.5" y="-114" font-family="Helvetica,sans-Serif" font-size="10.00">_login</text>
</a>
</g>
</g>
<!-- Node2 -->
<g id="Node000002" class="node">
<title>Node2</title>
<g id="a_Node000002"><a xlink:href="classLoginPage.html#abc9ba65e91d719c00b7fa31ac3577fa6" target="_top" xlink:title="Clears the login input fields.">
<polygon fill="white" stroke="#666666" points="287,-239.5 159,-239.5 159,-220.5 287,-220.5 287,-239.5"/>
<text text-anchor="middle" x="223" y="-227.5" font-family="Helvetica,sans-Serif" font-size="10.00">LoginPage::clear_fields</text>
</a>
</g>
</g>
<!-- Node1&#45;&gt;Node2 -->
<g id="edge1_Node000001_Node000002" class="edge">
<title>Node1&#45;&gt;Node2</title>
<g id="a_edge1_Node000001_Node000002"><a xlink:title=" ">
<path fill="none" stroke="#63b8ff" d="M67.59,-137.07C83.1,-157.05 113.2,-191.98 147,-211 150.99,-213.25 155.25,-215.23 159.64,-216.99"/>
<polygon fill="#63b8ff" stroke="#63b8ff" points="158.79,-220.4 169.38,-220.47 161.14,-213.81 158.79,-220.4"/>
</a>
</g>
</g>
<!-- Node3 -->
<g id="Node000003" class="node">
<title>Node3</title>
<g id="a_Node000003"><a xlink:href="classAuthenticationService.html#a8c681492f74d5e7b0338ec3a5525c0a5" target="_top" xlink:title=" ">
<polygon fill="white" stroke="#666666" points="285,-202 161,-202 161,-172 285,-172 285,-202"/>
<text text-anchor="start" x="169" y="-190" font-family="Helvetica,sans-Serif" font-size="10.00">AuthenticationService</text>
<text text-anchor="middle" x="223" y="-179" font-family="Helvetica,sans-Serif" font-size="10.00">::current_user</text>
</a>
</g>
</g>
<!-- Node1&#45;&gt;Node3 -->
<g id="edge2_Node000001_Node000003" class="edge">
<title>Node1&#45;&gt;Node3</title>
<g id="a_edge2_Node000001_Node000003"><a xlink:title=" ">
<path fill="none" stroke="#63b8ff" d="M87.53,-137.13C104.83,-145.3 126.88,-155.25 147,-163 152.02,-164.93 157.28,-166.84 162.57,-168.68"/>
<polygon fill="#63b8ff" stroke="#63b8ff" points="161.5,-172.02 172.1,-171.92 163.75,-165.39 161.5,-172.02"/>
</a>
</g>
</g>
<!-- Node4 -->
<g id="Node000004" class="node">
<title>Node4</title>
<g id="a_Node000004"><a xlink:href="UserAuthentication_8cpp.html#a55c1b35e9ad9f9520bbd0da24a54c23d" target="_top" xlink:title="Hashes a plain&#45;text password (stub implementation).">
<polygon fill="white" stroke="#666666" points="269,-153.5 177,-153.5 177,-134.5 269,-134.5 269,-153.5"/>
<text text-anchor="middle" x="223" y="-141.5" font-family="Helvetica,sans-Serif" font-size="10.00">hash_password</text>
</a>
</g>
</g>
<!-- Node1&#45;&gt;Node4 -->
<g id="edge3_Node000001_Node000004" class="edge">
<title>Node1&#45;&gt;Node4</title>
<g id="a_edge3_Node000001_Node000004"><a xlink:title=" ">
<path fill="none" stroke="#63b8ff" d="M111.15,-129.26C129.02,-131.64 148.88,-134.28 166.79,-136.66"/>
<polygon fill="#63b8ff" stroke="#63b8ff" points="166.42,-140.14 176.8,-137.99 167.34,-133.2 166.42,-140.14"/>
</a>
</g>
</g>
<!-- Node5 -->
<g id="Node000005" class="node">
<title>Node5</title>
<g id="a_Node000005"><a xlink:href="classAuthenticationService.html#a2dc8be4689e371d7a773ac008b21cf3a" target="_top" xlink:title=" ">
<polygon fill="white" stroke="#666666" points="285,-116 161,-116 161,-86 285,-86 285,-116"/>
<text text-anchor="start" x="169" y="-104" font-family="Helvetica,sans-Serif" font-size="10.00">AuthenticationService</text>
<text text-anchor="middle" x="223" y="-93" font-family="Helvetica,sans-Serif" font-size="10.00">::instance</text>
</a>
</g>
</g>
<!-- Node1&#45;&gt;Node5 -->
<g id="edge4_Node000001_Node000005" class="edge">
<title>Node1&#45;&gt;Node5</title>
<g id="a_edge4_Node000001_Node000005"><a xlink:title=" ">
<path fill="none" stroke="#63b8ff" d="M111.15,-115.07C123.83,-113.46 137.51,-111.72 150.78,-110.04"/>
<polygon fill="#63b8ff" stroke="#63b8ff" points="151.35,-113.49 160.83,-108.76 150.47,-106.55 151.35,-113.49"/>
</a>
</g>
</g>
<!-- Node6 -->
<g id="Node000006" class="node">
<title>Node6</title>
<g id="a_Node000006"><a xlink:href="classLoginPage.html#a1c6c8b9e73bdbfa1db03802092643731" target="_top" xlink:title="Emitted when a user has successfully logged in.">
<polygon fill="white" stroke="#666666" points="299,-67.5 147,-67.5 147,-48.5 299,-48.5 299,-67.5"/>
<text text-anchor="middle" x="223" y="-55.5" font-family="Helvetica,sans-Serif" font-size="10.00">LoginPage::login_successful</text>
</a>
</g>
</g>
<!-- Node1&#45;&gt;Node6 -->
<g id="edge5_Node000001_Node000006" class="edge">
<title>Node1&#45;&gt;Node6</title>
<g id="a_edge5_Node000001_Node000006"><a xlink:title=" ">
<path fill="none" stroke="#63b8ff" d="M83.15,-106.86C100.83,-97.29 124.79,-85.23 147,-77 153.75,-74.5 160.97,-72.21 168.16,-70.16"/>
<polygon fill="#63b8ff" stroke="#63b8ff" points="169.17,-73.51 177.89,-67.5 167.33,-66.76 169.17,-73.51"/>
</a>
</g>
</g>
<!-- Node7 -->
<g id="Node000007" class="node">
<title>Node7</title>
<g id="a_Node000007"><a xlink:href="classLoginPage.html#ab85c215a7ad69e03fa4b3d07b6687c2e" target="_top" xlink:title="Updates the UI to reflect the state of a logged&#45;in user.">
<polygon fill="white" stroke="#666666" points="283,-30 163,-30 163,0 283,0 283,-30"/>
<text text-anchor="start" x="171" y="-18" font-family="Helvetica,sans-Serif" font-size="10.00">LoginPage::update_ui</text>
<text text-anchor="middle" x="223" y="-7" font-family="Helvetica,sans-Serif" font-size="10.00">_for_logged_in_user</text>
</a>
</g>
</g>
<!-- Node1&#45;&gt;Node7 -->
<g id="edge6_Node000001_Node000007" class="edge">
<title>Node1&#45;&gt;Node7</title>
<g id="a_edge6_Node000001_Node000007"><a xlink:title=" ">
<path fill="none" stroke="#63b8ff" d="M69.45,-106.93C85.83,-88.74 115.7,-58.3 147,-40 150.6,-37.9 154.4,-35.94 158.3,-34.13"/>
<polygon fill="#63b8ff" stroke="#63b8ff" points="159.75,-37.31 167.56,-30.15 156.99,-30.88 159.75,-37.31"/>
</a>
</g>
</g>
</g>
</svg>
