<?xml version="1.0" encoding="UTF-8" standalone="no"?>
<!DOCTYPE svg PUBLIC "-//W3C//DTD SVG 1.1//EN"
 "http://www.w3.org/Graphics/SVG/1.1/DTD/svg11.dtd">
<!-- Generated by graphviz version 2.43.0 (0)
 -->
<!-- Title: TechListController::TechListController Pages: 1 -->
<svg width="723pt" height="167pt"
 viewBox="0.00 0.00 723.00 167.00" xmlns="http://www.w3.org/2000/svg" xmlns:xlink="http://www.w3.org/1999/xlink">
<g id="graph0" class="graph" transform="scale(1 1) rotate(0) translate(4 163)">
<title>TechListController::TechListController</title>
<!-- Node1 -->
<g id="Node000001" class="node">
<title>Node1</title>
<g id="a_Node000001"><a xlink:title="Constructs a TechListController.">
<polygon fill="#999999" stroke="#666666" points="110,-94 0,-94 0,-64 110,-64 110,-94"/>
<text text-anchor="start" x="8" y="-82" font-family="Helvetica,sans-Serif" font-size="10.00">TechListController</text>
<text text-anchor="middle" x="55" y="-71" font-family="Helvetica,sans-Serif" font-size="10.00">::TechListController</text>
</a>
</g>
</g>
<!-- Node2 -->
<g id="Node000002" class="node">
<title>Node2</title>
<g id="a_Node000002"><a xlink:href="classTechnicianRepository.html#a7195867c4915f8aa3ff92b28615b1248" target="_top" xlink:title="Returns the singleton instance of the repository.">
<polygon fill="white" stroke="#666666" points="715,-159 595,-159 595,-129 715,-129 715,-159"/>
<text text-anchor="start" x="603" y="-147" font-family="Helvetica,sans-Serif" font-size="10.00">TechnicianRepository</text>
<text text-anchor="middle" x="655" y="-136" font-family="Helvetica,sans-Serif" font-size="10.00">::instance</text>
</a>
</g>
</g>
<!-- Node1&#45;&gt;Node2 -->
<g id="edge1_Node000001_Node000002" class="edge">
<title>Node1&#45;&gt;Node2</title>
<g id="a_edge1_Node000001_Node000002"><a xlink:title=" ">
<path fill="none" stroke="#63b8ff" d="M78.57,-94.05C96.13,-104.87 121.55,-118.63 146,-125 298.6,-164.77 485.65,-158.28 584.73,-150.73"/>
<polygon fill="#63b8ff" stroke="#63b8ff" points="585.21,-154.2 594.91,-149.93 584.66,-147.23 585.21,-154.2"/>
</a>
</g>
</g>
<!-- Node3 -->
<g id="Node000003" class="node">
<title>Node3</title>
<g id="a_Node000003"><a xlink:href="classTechListController.html#a1e7a891dcb52fb54659fbacded0a06d3" target="_top" xlink:title="Sets up Qt signal/slot connections.">
<polygon fill="white" stroke="#666666" points="262.5,-116 149.5,-116 149.5,-86 262.5,-86 262.5,-116"/>
<text text-anchor="start" x="157.5" y="-104" font-family="Helvetica,sans-Serif" font-size="10.00">TechListController</text>
<text text-anchor="middle" x="206" y="-93" font-family="Helvetica,sans-Serif" font-size="10.00">::setup_connections</text>
</a>
</g>
</g>
<!-- Node1&#45;&gt;Node3 -->
<g id="edge2_Node000001_Node000003" class="edge">
<title>Node1&#45;&gt;Node3</title>
<g id="a_edge2_Node000001_Node000003"><a xlink:title=" ">
<path fill="none" stroke="#63b8ff" d="M110.21,-87C119.66,-88.4 129.58,-89.86 139.3,-91.3"/>
<polygon fill="#63b8ff" stroke="#63b8ff" points="138.92,-94.78 149.33,-92.78 139.94,-87.86 138.92,-94.78"/>
</a>
</g>
</g>
<!-- Node4 -->
<g id="Node000004" class="node">
<title>Node4</title>
<g id="a_Node000004"><a xlink:href="classTechListController.html#a4a07a8d1f3948b7f326d8c0e0bc9ab06" target="_top" xlink:title="Updates the technician list based on current combo box selections.">
<polygon fill="white" stroke="#666666" points="419,-113 302,-113 302,-83 419,-83 419,-113"/>
<text text-anchor="start" x="310" y="-101" font-family="Helvetica,sans-Serif" font-size="10.00">TechListController</text>
<text text-anchor="middle" x="360.5" y="-90" font-family="Helvetica,sans-Serif" font-size="10.00">::update_technicians</text>
</a>
</g>
</g>
<!-- Node1&#45;&gt;Node4 -->
<g id="edge8_Node000001_Node000004" class="edge">
<title>Node1&#45;&gt;Node4</title>
<g id="a_edge8_Node000001_Node000004"><a xlink:title=" ">
<path fill="none" stroke="#63b8ff" d="M110.13,-74.93C152.65,-72.6 213.27,-71.15 266,-77 274.44,-77.94 283.23,-79.33 291.89,-80.97"/>
<polygon fill="#63b8ff" stroke="#63b8ff" points="291.49,-84.46 301.98,-82.99 292.86,-77.6 291.49,-84.46"/>
</a>
</g>
</g>
<!-- Node7 -->
<g id="Node000007" class="node">
<title>Node7</title>
<g id="a_Node000007"><a xlink:href="classTechnicianRepository.html#aec84642514e38cee1a7089e9fbdd41a6" target="_top" xlink:title="Subscribes an observer to be notified on repository changes.">
<polygon fill="white" stroke="#666666" points="266,-30 146,-30 146,0 266,0 266,-30"/>
<text text-anchor="start" x="154" y="-18" font-family="Helvetica,sans-Serif" font-size="10.00">TechnicianRepository</text>
<text text-anchor="middle" x="206" y="-7" font-family="Helvetica,sans-Serif" font-size="10.00">::subscribe</text>
</a>
</g>
</g>
<!-- Node1&#45;&gt;Node7 -->
<g id="edge7_Node000001_Node000007" class="edge">
<title>Node1&#45;&gt;Node7</title>
<g id="a_edge7_Node000001_Node000007"><a xlink:title=" ">
<path fill="none" stroke="#63b8ff" d="M90.93,-63.99C111.78,-55.04 138.45,-43.58 160.76,-34"/>
<polygon fill="#63b8ff" stroke="#63b8ff" points="162.22,-37.18 170.03,-30.02 159.46,-30.75 162.22,-37.18"/>
</a>
</g>
</g>
<!-- Node3&#45;&gt;Node4 -->
<g id="edge3_Node000003_Node000004" class="edge">
<title>Node3&#45;&gt;Node4</title>
<g id="a_edge3_Node000003_Node000004"><a xlink:title=" ">
<path fill="none" stroke="#63b8ff" d="M262.92,-99.9C272.22,-99.72 281.96,-99.53 291.52,-99.34"/>
<polygon fill="#63b8ff" stroke="#63b8ff" points="291.87,-102.83 301.8,-99.14 291.73,-95.83 291.87,-102.83"/>
</a>
</g>
</g>
<!-- Node5 -->
<g id="Node000005" class="node">
<title>Node5</title>
<g id="a_Node000005"><a xlink:href="classTechListController.html#a63c60cd01624769a28bcf64986688b70" target="_top" xlink:title="Rebuilds the technician list in the UI.">
<polygon fill="white" stroke="#666666" points="559,-113 455,-113 455,-83 559,-83 559,-113"/>
<text text-anchor="start" x="463" y="-101" font-family="Helvetica,sans-Serif" font-size="10.00">TechListController</text>
<text text-anchor="middle" x="507" y="-90" font-family="Helvetica,sans-Serif" font-size="10.00">::rebuild_list</text>
</a>
</g>
</g>
<!-- Node4&#45;&gt;Node5 -->
<g id="edge4_Node000004_Node000005" class="edge">
<title>Node4&#45;&gt;Node5</title>
<g id="a_edge4_Node000004_Node000005"><a xlink:title=" ">
<path fill="none" stroke="#63b8ff" d="M419.03,-98C427.42,-98 436.09,-98 444.56,-98"/>
<polygon fill="#63b8ff" stroke="#63b8ff" points="444.75,-101.5 454.75,-98 444.75,-94.5 444.75,-101.5"/>
</a>
</g>
</g>
<!-- Node5&#45;&gt;Node2 -->
<g id="edge6_Node000005_Node000002" class="edge">
<title>Node5&#45;&gt;Node2</title>
<g id="a_edge6_Node000005_Node000002"><a xlink:title=" ">
<path fill="none" stroke="#63b8ff" d="M555.81,-113.06C568.79,-117.15 582.98,-121.62 596.44,-125.87"/>
<polygon fill="#63b8ff" stroke="#63b8ff" points="595.5,-129.24 606.09,-128.9 597.6,-122.56 595.5,-129.24"/>
</a>
</g>
</g>
<!-- Node6 -->
<g id="Node000006" class="node">
<title>Node6</title>
<g id="a_Node000006"><a xlink:href="classTechnicianRepository.html#abf3ba8f356e622790a4445b34046ac02" target="_top" xlink:title="Retrieves all technicians in the repository.">
<polygon fill="white" stroke="#666666" points="715,-111 595,-111 595,-81 715,-81 715,-111"/>
<text text-anchor="start" x="603" y="-99" font-family="Helvetica,sans-Serif" font-size="10.00">TechnicianRepository</text>
<text text-anchor="middle" x="655" y="-88" font-family="Helvetica,sans-Serif" font-size="10.00">::get_all</text>
</a>
</g>
</g>
<!-- Node5&#45;&gt;Node6 -->
<g id="edge5_Node000005_Node000006" class="edge">
<title>Node5&#45;&gt;Node6</title>
<g id="a_edge5_Node000005_Node000006"><a xlink:title=" ">
<path fill="none" stroke="#63b8ff" d="M559.06,-97.3C567.4,-97.19 576.15,-97.07 584.83,-96.95"/>
<polygon fill="#63b8ff" stroke="#63b8ff" points="585.01,-100.45 594.96,-96.81 584.91,-93.45 585.01,-100.45"/>
</a>
</g>
</g>
</g>
</svg>
