<?xml version="1.0" encoding="UTF-8" standalone="no"?>
<!DOCTYPE svg PUBLIC "-//W3C//DTD SVG 1.1//EN"
 "http://www.w3.org/Graphics/SVG/1.1/DTD/svg11.dtd">
<!-- Generated by graphviz version 2.43.0 (0)
 -->
<!-- Title: TechnicianRepository::instance Pages: 1 -->
<svg width="828pt" height="680pt"
 viewBox="0.00 0.00 828.00 680.00" xmlns="http://www.w3.org/2000/svg" xmlns:xlink="http://www.w3.org/1999/xlink">
<g id="graph0" class="graph" transform="scale(1 1) rotate(0) translate(4 676)">
<title>TechnicianRepository::instance</title>
<!-- Node1 -->
<g id="Node000001" class="node">
<title>Node1</title>
<g id="a_Node000001"><a xlink:title="Returns the singleton instance of the repository.">
<polygon fill="#999999" stroke="#666666" points="820,-351 700,-351 700,-321 820,-321 820,-351"/>
<text text-anchor="start" x="708" y="-339" font-family="Helvetica,sans-Serif" font-size="10.00">TechnicianRepository</text>
<text text-anchor="middle" x="760" y="-328" font-family="Helvetica,sans-Serif" font-size="10.00">::instance</text>
</a>
</g>
</g>
<!-- Node2 -->
<g id="Node000002" class="node">
<title>Node2</title>
<g id="a_Node000002"><a xlink:href="classTechnicianRepositoryProxy.html#aee86c7c900c4ced5f57b125c39cbe014" target="_top" xlink:title="Finds a technician by ID.">
<polygon fill="white" stroke="#666666" points="664,-672 516,-672 516,-642 664,-642 664,-672"/>
<text text-anchor="start" x="524" y="-660" font-family="Helvetica,sans-Serif" font-size="10.00">TechnicianRepositoryProxy</text>
<text text-anchor="middle" x="590" y="-649" font-family="Helvetica,sans-Serif" font-size="10.00">::find_by_id</text>
</a>
</g>
</g>
<!-- Node1&#45;&gt;Node2 -->
<g id="edge1_Node000001_Node000002" class="edge">
<title>Node1&#45;&gt;Node2</title>
<g id="a_edge1_Node000001_Node000002"><a xlink:title=" ">
<path fill="none" stroke="#63b8ff" d="M758.3,-361.25C755.37,-417.88 740.31,-556.07 664,-633 660.62,-636.41 656.74,-639.34 652.58,-641.84"/>
<polygon fill="#63b8ff" stroke="#63b8ff" points="761.81,-361.2 758.74,-351.05 754.82,-360.89 761.81,-361.2"/>
</a>
</g>
</g>
<!-- Node3 -->
<g id="Node000003" class="node">
<title>Node3</title>
<g id="a_Node000003"><a xlink:href="classTechnicianRepositoryProxy.html#aaa36dbbd6f20c961f945b63f417ead6d" target="_top" xlink:title="Retrieves all technicians from the repository.">
<polygon fill="white" stroke="#666666" points="664,-624 516,-624 516,-594 664,-594 664,-624"/>
<text text-anchor="start" x="524" y="-612" font-family="Helvetica,sans-Serif" font-size="10.00">TechnicianRepositoryProxy</text>
<text text-anchor="middle" x="590" y="-601" font-family="Helvetica,sans-Serif" font-size="10.00">::get_all</text>
</a>
</g>
</g>
<!-- Node1&#45;&gt;Node3 -->
<g id="edge2_Node000001_Node000003" class="edge">
<title>Node1&#45;&gt;Node3</title>
<g id="a_edge2_Node000001_Node000003"><a xlink:title=" ">
<path fill="none" stroke="#63b8ff" d="M756.48,-361.24C750.18,-411.11 729.2,-522.79 664,-585 660.43,-588.41 656.37,-591.33 652.03,-593.84"/>
<polygon fill="#63b8ff" stroke="#63b8ff" points="759.99,-361.38 757.68,-351.04 753.04,-360.56 759.99,-361.38"/>
</a>
</g>
</g>
<!-- Node4 -->
<g id="Node000004" class="node">
<title>Node4</title>
<g id="a_Node000004"><a xlink:href="classTechnicianRepositoryProxy.html#a83ac03db5036bacbfbb5e1cb1a4d1ea4" target="_top" xlink:title="Gets the next available technician ID.">
<polygon fill="white" stroke="#666666" points="664,-576 516,-576 516,-546 664,-546 664,-576"/>
<text text-anchor="start" x="524" y="-564" font-family="Helvetica,sans-Serif" font-size="10.00">TechnicianRepositoryProxy</text>
<text text-anchor="middle" x="590" y="-553" font-family="Helvetica,sans-Serif" font-size="10.00">::next_id</text>
</a>
</g>
</g>
<!-- Node1&#45;&gt;Node4 -->
<g id="edge3_Node000001_Node000004" class="edge">
<title>Node1&#45;&gt;Node4</title>
<g id="a_edge3_Node000001_Node000004"><a xlink:title=" ">
<path fill="none" stroke="#63b8ff" d="M753.91,-361.07C744.04,-403.39 718.29,-489.05 664,-537 660.1,-540.44 655.69,-543.4 651.03,-545.93"/>
<polygon fill="#63b8ff" stroke="#63b8ff" points="757.38,-361.58 756.14,-351.06 750.55,-360.06 757.38,-361.58"/>
</a>
</g>
</g>
<!-- Node5 -->
<g id="Node000005" class="node">
<title>Node5</title>
<g id="a_Node000005"><a xlink:href="classInterventionsListView.html#a09c3eb5ea0586743b19fead7d7705b5e" target="_top" xlink:title="Slot called when the intervention repository is updated.">
<polygon fill="white" stroke="#666666" points="657,-528 523,-528 523,-498 657,-498 657,-528"/>
<text text-anchor="start" x="531" y="-516" font-family="Helvetica,sans-Serif" font-size="10.00">InterventionsListView</text>
<text text-anchor="middle" x="590" y="-505" font-family="Helvetica,sans-Serif" font-size="10.00">::on_repository_updated</text>
</a>
</g>
</g>
<!-- Node1&#45;&gt;Node5 -->
<g id="edge4_Node000001_Node000005" class="edge">
<title>Node1&#45;&gt;Node5</title>
<g id="a_edge4_Node000001_Node000005"><a xlink:title=" ">
<path fill="none" stroke="#63b8ff" d="M749.07,-360.42C734.76,-392.81 705.43,-449.87 664,-484 657.26,-489.55 649.33,-494.14 641.23,-497.9"/>
<polygon fill="#63b8ff" stroke="#63b8ff" points="752.3,-361.78 753.03,-351.21 745.86,-359.02 752.3,-361.78"/>
</a>
</g>
</g>
<!-- Node8 -->
<g id="Node000008" class="node">
<title>Node8</title>
<g id="a_Node000008"><a xlink:href="classTechniciansListView.html#ab337e022e046d24caf8482cc7d68be6c" target="_top" xlink:title="Called when the technician repository is updated.">
<polygon fill="white" stroke="#666666" points="657,-394 523,-394 523,-364 657,-364 657,-394"/>
<text text-anchor="start" x="531" y="-382" font-family="Helvetica,sans-Serif" font-size="10.00">TechniciansListView</text>
<text text-anchor="middle" x="590" y="-371" font-family="Helvetica,sans-Serif" font-size="10.00">::on_repository_updated</text>
</a>
</g>
</g>
<!-- Node1&#45;&gt;Node8 -->
<g id="edge7_Node000001_Node000008" class="edge">
<title>Node1&#45;&gt;Node8</title>
<g id="a_edge7_Node000001_Node000008"><a xlink:title=" ">
<path fill="none" stroke="#63b8ff" d="M690.51,-353.53C676.98,-356.99 662.9,-360.6 649.73,-363.97"/>
<polygon fill="#63b8ff" stroke="#63b8ff" points="691.42,-356.91 700.24,-351.04 689.69,-350.13 691.42,-356.91"/>
</a>
</g>
</g>
<!-- Node9 -->
<g id="Node000009" class="node">
<title>Node9</title>
<g id="a_Node000009"><a xlink:href="classTechniciansListView.html#a136af4c67741eda51583f044e243e8ca" target="_top" xlink:title="Initializes UI properties and internal models.">
<polygon fill="white" stroke="#666666" points="476,-351 362,-351 362,-321 476,-321 476,-351"/>
<text text-anchor="start" x="370" y="-339" font-family="Helvetica,sans-Serif" font-size="10.00">TechniciansListView</text>
<text text-anchor="middle" x="419" y="-328" font-family="Helvetica,sans-Serif" font-size="10.00">::setup_ui</text>
</a>
</g>
</g>
<!-- Node1&#45;&gt;Node9 -->
<g id="edge24_Node000001_Node000009" class="edge">
<title>Node1&#45;&gt;Node9</title>
<g id="a_edge24_Node000001_Node000009"><a xlink:title=" ">
<path fill="none" stroke="#63b8ff" d="M689.7,-336C626.63,-336 534.7,-336 476.12,-336"/>
<polygon fill="#63b8ff" stroke="#63b8ff" points="689.95,-339.5 699.95,-336 689.95,-332.5 689.95,-339.5"/>
</a>
</g>
</g>
<!-- Node11 -->
<g id="Node000011" class="node">
<title>Node11</title>
<g id="a_Node000011"><a xlink:href="classTechListController.html#a63c60cd01624769a28bcf64986688b70" target="_top" xlink:title="Rebuilds the technician list in the UI.">
<polygon fill="white" stroke="#666666" points="642,-442 538,-442 538,-412 642,-412 642,-442"/>
<text text-anchor="start" x="546" y="-430" font-family="Helvetica,sans-Serif" font-size="10.00">TechListController</text>
<text text-anchor="middle" x="590" y="-419" font-family="Helvetica,sans-Serif" font-size="10.00">::rebuild_list</text>
</a>
</g>
</g>
<!-- Node1&#45;&gt;Node11 -->
<g id="edge10_Node000001_Node000011" class="edge">
<title>Node1&#45;&gt;Node11</title>
<g id="a_edge10_Node000001_Node000011"><a xlink:title=" ">
<path fill="none" stroke="#63b8ff" d="M733.21,-357.37C714.82,-371.79 689.02,-390.42 664,-403 657.09,-406.48 649.56,-409.61 642.05,-412.38"/>
<polygon fill="#63b8ff" stroke="#63b8ff" points="735.47,-360.05 741.11,-351.08 731.11,-354.57 735.47,-360.05"/>
</a>
</g>
</g>
<!-- Node19 -->
<g id="Node000019" class="node">
<title>Node19</title>
<g id="a_Node000019"><a xlink:href="classTechListController.html#a4bd566643a813622c34b9edc27b942ac" target="_top" xlink:title="Constructs a TechListController.">
<polygon fill="white" stroke="#666666" points="128,-399 18,-399 18,-369 128,-369 128,-399"/>
<text text-anchor="start" x="26" y="-387" font-family="Helvetica,sans-Serif" font-size="10.00">TechListController</text>
<text text-anchor="middle" x="73" y="-376" font-family="Helvetica,sans-Serif" font-size="10.00">::TechListController</text>
</a>
</g>
</g>
<!-- Node1&#45;&gt;Node19 -->
<g id="edge26_Node000001_Node000019" class="edge">
<title>Node1&#45;&gt;Node19</title>
<g id="a_edge26_Node000001_Node000019"><a xlink:title=" ">
<path fill="none" stroke="#63b8ff" d="M747.28,-360.32C732.34,-388.17 703.61,-432.34 664,-451 567.1,-496.64 285.01,-480.36 182,-451 146.56,-440.9 111.4,-415.47 91.23,-399"/>
<polygon fill="#63b8ff" stroke="#63b8ff" points="750.5,-361.71 751.98,-351.22 744.28,-358.5 750.5,-361.71"/>
</a>
</g>
</g>
<!-- Node20 -->
<g id="Node000020" class="node">
<title>Node20</title>
<g id="a_Node000020"><a xlink:href="classTechnicianRepositoryProxy.html#a7e8e6b2eaebb5c76f58fd716d50f19bf" target="_top" xlink:title="Removes a technician by ID.">
<polygon fill="white" stroke="#666666" points="664,-308 516,-308 516,-278 664,-278 664,-308"/>
<text text-anchor="start" x="524" y="-296" font-family="Helvetica,sans-Serif" font-size="10.00">TechnicianRepositoryProxy</text>
<text text-anchor="middle" x="590" y="-285" font-family="Helvetica,sans-Serif" font-size="10.00">::remove_by_id</text>
</a>
</g>
</g>
<!-- Node1&#45;&gt;Node20 -->
<g id="edge20_Node000001_Node000020" class="edge">
<title>Node1&#45;&gt;Node20</title>
<g id="a_edge20_Node000001_Node000020"><a xlink:title=" ">
<path fill="none" stroke="#63b8ff" d="M690.51,-318.47C676.98,-315.01 662.9,-311.4 649.73,-308.03"/>
<polygon fill="#63b8ff" stroke="#63b8ff" points="689.69,-321.87 700.24,-320.96 691.42,-315.09 689.69,-321.87"/>
</a>
</g>
</g>
<!-- Node21 -->
<g id="Node000021" class="node">
<title>Node21</title>
<g id="a_Node000021"><a xlink:href="classTechnicianRepositoryProxy.html#a2ea13b9f121a251349b94d12752c67cf" target="_top" xlink:title="Saves a technician in the repository.">
<polygon fill="white" stroke="#666666" points="664,-260 516,-260 516,-230 664,-230 664,-260"/>
<text text-anchor="start" x="524" y="-248" font-family="Helvetica,sans-Serif" font-size="10.00">TechnicianRepositoryProxy</text>
<text text-anchor="middle" x="590" y="-237" font-family="Helvetica,sans-Serif" font-size="10.00">::save</text>
</a>
</g>
</g>
<!-- Node1&#45;&gt;Node21 -->
<g id="edge21_Node000001_Node000021" class="edge">
<title>Node1&#45;&gt;Node21</title>
<g id="a_edge21_Node000001_Node000021"><a xlink:title=" ">
<path fill="none" stroke="#63b8ff" d="M733.21,-314.63C714.82,-300.21 689.02,-281.58 664,-269 657.44,-265.7 650.34,-262.72 643.22,-260.06"/>
<polygon fill="#63b8ff" stroke="#63b8ff" points="731.11,-317.43 741.11,-320.92 735.47,-311.95 731.11,-317.43"/>
</a>
</g>
</g>
<!-- Node22 -->
<g id="Node000022" class="node">
<title>Node22</title>
<g id="a_Node000022"><a xlink:href="classTechniciansListView.html#abcbdccaf85bf5a62a1c341c7db132133" target="_top" xlink:title="Connects interaction events to internal logic.">
<polygon fill="white" stroke="#666666" points="476,-215 362,-215 362,-185 476,-185 476,-215"/>
<text text-anchor="start" x="370" y="-203" font-family="Helvetica,sans-Serif" font-size="10.00">TechniciansListView</text>
<text text-anchor="middle" x="419" y="-192" font-family="Helvetica,sans-Serif" font-size="10.00">::setup_connects</text>
</a>
</g>
</g>
<!-- Node1&#45;&gt;Node22 -->
<g id="edge22_Node000001_Node000022" class="edge">
<title>Node1&#45;&gt;Node22</title>
<g id="a_edge22_Node000001_Node000022"><a xlink:title=" ">
<path fill="none" stroke="#63b8ff" d="M746.75,-311.82C731.46,-284.51 702.57,-241.23 664,-221 605.45,-190.29 528,-189.14 476.22,-192.97"/>
<polygon fill="#63b8ff" stroke="#63b8ff" points="743.74,-313.63 751.58,-320.76 749.9,-310.29 743.74,-313.63"/>
</a>
</g>
</g>
<!-- Node23 -->
<g id="Node000023" class="node">
<title>Node23</title>
<g id="a_Node000023"><a xlink:href="classTechnicianRepositoryProxy.html#a66486ef4faa138ea2617d7de55057960" target="_top" xlink:title="Subscribes an observer for technician repository updates.">
<polygon fill="white" stroke="#666666" points="664,-174 516,-174 516,-144 664,-144 664,-174"/>
<text text-anchor="start" x="524" y="-162" font-family="Helvetica,sans-Serif" font-size="10.00">TechnicianRepositoryProxy</text>
<text text-anchor="middle" x="590" y="-151" font-family="Helvetica,sans-Serif" font-size="10.00">::subscribe</text>
</a>
</g>
</g>
<!-- Node1&#45;&gt;Node23 -->
<g id="edge25_Node000001_Node000023" class="edge">
<title>Node1&#45;&gt;Node23</title>
<g id="a_edge25_Node000001_Node000023"><a xlink:title=" ">
<path fill="none" stroke="#63b8ff" d="M749.07,-311.58C734.76,-279.19 705.43,-222.13 664,-188 657.26,-182.45 649.33,-177.86 641.23,-174.1"/>
<polygon fill="#63b8ff" stroke="#63b8ff" points="745.86,-312.98 753.03,-320.79 752.3,-310.22 745.86,-312.98"/>
</a>
</g>
</g>
<!-- Node24 -->
<g id="Node000024" class="node">
<title>Node24</title>
<g id="a_Node000024"><a xlink:href="classTechnicianRepositoryProxy.html#a67b748c4942d8868f471c06a249933fd" target="_top" xlink:title="Unsubscribes an observer from updates.">
<polygon fill="white" stroke="#666666" points="664,-126 516,-126 516,-96 664,-96 664,-126"/>
<text text-anchor="start" x="524" y="-114" font-family="Helvetica,sans-Serif" font-size="10.00">TechnicianRepositoryProxy</text>
<text text-anchor="middle" x="590" y="-103" font-family="Helvetica,sans-Serif" font-size="10.00">::unsubscribe</text>
</a>
</g>
</g>
<!-- Node1&#45;&gt;Node24 -->
<g id="edge27_Node000001_Node000024" class="edge">
<title>Node1&#45;&gt;Node24</title>
<g id="a_edge27_Node000001_Node000024"><a xlink:title=" ">
<path fill="none" stroke="#63b8ff" d="M753.91,-310.93C744.04,-268.61 718.29,-182.95 664,-135 660.1,-131.56 655.69,-128.6 651.03,-126.07"/>
<polygon fill="#63b8ff" stroke="#63b8ff" points="750.55,-311.94 756.14,-320.94 757.38,-310.42 750.55,-311.94"/>
</a>
</g>
</g>
<!-- Node25 -->
<g id="Node000025" class="node">
<title>Node25</title>
<g id="a_Node000025"><a xlink:href="classTechListController.html#a7bef283735b757d557d2125f4e9bb106" target="_top" xlink:title="Destructor (override).">
<polygon fill="white" stroke="#666666" points="649,-78 531,-78 531,-48 649,-48 649,-78"/>
<text text-anchor="start" x="539" y="-66" font-family="Helvetica,sans-Serif" font-size="10.00">TechListController</text>
<text text-anchor="middle" x="590" y="-55" font-family="Helvetica,sans-Serif" font-size="10.00">::~TechListController</text>
</a>
</g>
</g>
<!-- Node1&#45;&gt;Node25 -->
<g id="edge28_Node000001_Node000025" class="edge">
<title>Node1&#45;&gt;Node25</title>
<g id="a_edge28_Node000001_Node000025"><a xlink:title=" ">
<path fill="none" stroke="#63b8ff" d="M756.48,-310.76C750.18,-260.89 729.2,-149.21 664,-87 659.66,-82.86 654.58,-79.43 649.17,-76.59"/>
<polygon fill="#63b8ff" stroke="#63b8ff" points="753.04,-311.44 757.68,-320.96 759.99,-310.62 753.04,-311.44"/>
</a>
</g>
</g>
<!-- Node26 -->
<g id="Node000026" class="node">
<title>Node26</title>
<g id="a_Node000026"><a xlink:href="classTechniciansListView.html#a63e3fd6929aee69b5483b757d3b1474f" target="_top" xlink:title="Destructor.">
<polygon fill="white" stroke="#666666" points="654,-30 526,-30 526,0 654,0 654,-30"/>
<text text-anchor="start" x="534" y="-18" font-family="Helvetica,sans-Serif" font-size="10.00">TechniciansListView</text>
<text text-anchor="middle" x="590" y="-7" font-family="Helvetica,sans-Serif" font-size="10.00">::~TechniciansListView</text>
</a>
</g>
</g>
<!-- Node1&#45;&gt;Node26 -->
<g id="edge29_Node000001_Node000026" class="edge">
<title>Node1&#45;&gt;Node26</title>
<g id="a_edge29_Node000001_Node000026"><a xlink:title=" ">
<path fill="none" stroke="#63b8ff" d="M758.3,-310.75C755.37,-254.12 740.31,-115.93 664,-39 660.62,-35.59 656.74,-32.66 652.58,-30.16"/>
<polygon fill="#63b8ff" stroke="#63b8ff" points="754.82,-311.11 758.74,-320.95 761.81,-310.8 754.82,-311.11"/>
</a>
</g>
</g>
<!-- Node6 -->
<g id="Node000006" class="node">
<title>Node6</title>
<g id="a_Node000006"><a xlink:href="classInterventionsListView.html#a1ff1310c5ed4a038e39dd6e71dfc1915" target="_top" xlink:title="Initializes the list view UI components.">
<polygon fill="white" stroke="#666666" points="480,-528 358,-528 358,-498 480,-498 480,-528"/>
<text text-anchor="start" x="366" y="-516" font-family="Helvetica,sans-Serif" font-size="10.00">InterventionsListView</text>
<text text-anchor="middle" x="419" y="-505" font-family="Helvetica,sans-Serif" font-size="10.00">::setup_ui</text>
</a>
</g>
</g>
<!-- Node5&#45;&gt;Node6 -->
<g id="edge5_Node000005_Node000006" class="edge">
<title>Node5&#45;&gt;Node6</title>
<g id="a_edge5_Node000005_Node000006"><a xlink:title=" ">
<path fill="none" stroke="#63b8ff" d="M512.38,-513C501.54,-513 490.53,-513 480.07,-513"/>
<polygon fill="#63b8ff" stroke="#63b8ff" points="512.69,-516.5 522.69,-513 512.69,-509.5 512.69,-516.5"/>
</a>
</g>
</g>
<!-- Node7 -->
<g id="Node000007" class="node">
<title>Node7</title>
<g id="a_Node000007"><a xlink:href="classInterventionsListView.html#a1e18e26a39a91aaa4ba252033b3d5d57" target="_top" xlink:title="Constructs the list view and initializes its UI.">
<polygon fill="white" stroke="#666666" points="316,-528 188,-528 188,-498 316,-498 316,-528"/>
<text text-anchor="start" x="196" y="-516" font-family="Helvetica,sans-Serif" font-size="10.00">InterventionsListView</text>
<text text-anchor="middle" x="252" y="-505" font-family="Helvetica,sans-Serif" font-size="10.00">::InterventionsListView</text>
</a>
</g>
</g>
<!-- Node6&#45;&gt;Node7 -->
<g id="edge6_Node000006_Node000007" class="edge">
<title>Node6&#45;&gt;Node7</title>
<g id="a_edge6_Node000006_Node000007"><a xlink:title=" ">
<path fill="none" stroke="#63b8ff" d="M347.92,-513C337.34,-513 326.47,-513 316.05,-513"/>
<polygon fill="#63b8ff" stroke="#63b8ff" points="347.96,-516.5 357.96,-513 347.96,-509.5 347.96,-516.5"/>
</a>
</g>
</g>
<!-- Node8&#45;&gt;Node9 -->
<g id="edge8_Node000008_Node000009" class="edge">
<title>Node8&#45;&gt;Node9</title>
<g id="a_edge8_Node000008_Node000009"><a xlink:title=" ">
<path fill="none" stroke="#63b8ff" d="M519.95,-361.43C505.41,-357.73 490.24,-353.87 476.23,-350.31"/>
<polygon fill="#63b8ff" stroke="#63b8ff" points="519.34,-364.89 529.89,-363.96 521.06,-358.1 519.34,-364.89"/>
</a>
</g>
</g>
<!-- Node10 -->
<g id="Node000010" class="node">
<title>Node10</title>
<g id="a_Node000010"><a xlink:href="classTechniciansListView.html#aa36fbe3e6761faada5f00ab73d8a84c4" target="_top" xlink:title="Constructs the list view and initializes its UI and behavior.">
<polygon fill="white" stroke="#666666" points="312,-212 192,-212 192,-182 312,-182 312,-212"/>
<text text-anchor="start" x="200" y="-200" font-family="Helvetica,sans-Serif" font-size="10.00">TechniciansListView</text>
<text text-anchor="middle" x="252" y="-189" font-family="Helvetica,sans-Serif" font-size="10.00">::TechniciansListView</text>
</a>
</g>
</g>
<!-- Node9&#45;&gt;Node10 -->
<g id="edge9_Node000009_Node000010" class="edge">
<title>Node9&#45;&gt;Node10</title>
<g id="a_edge9_Node000009_Node000010"><a xlink:title=" ">
<path fill="none" stroke="#63b8ff" d="M403.54,-311.88C386.89,-286.01 357.25,-245.37 322,-221 317.1,-217.61 311.67,-214.66 306.07,-212.09"/>
<polygon fill="#63b8ff" stroke="#63b8ff" points="400.79,-314.08 409.08,-320.68 406.72,-310.35 400.79,-314.08"/>
</a>
</g>
</g>
<!-- Node12 -->
<g id="Node000012" class="node">
<title>Node12</title>
<g id="a_Node000012"><a xlink:href="classTechListController.html#a4a07a8d1f3948b7f326d8c0e0bc9ab06" target="_top" xlink:title="Updates the technician list based on current combo box selections.">
<polygon fill="white" stroke="#666666" points="477.5,-399 360.5,-399 360.5,-369 477.5,-369 477.5,-399"/>
<text text-anchor="start" x="368.5" y="-387" font-family="Helvetica,sans-Serif" font-size="10.00">TechListController</text>
<text text-anchor="middle" x="419" y="-376" font-family="Helvetica,sans-Serif" font-size="10.00">::update_technicians</text>
</a>
</g>
</g>
<!-- Node11&#45;&gt;Node12 -->
<g id="edge11_Node000011_Node000012" class="edge">
<title>Node11&#45;&gt;Node12</title>
<g id="a_edge11_Node000011_Node000012"><a xlink:title=" ">
<path fill="none" stroke="#63b8ff" d="M527.86,-411.44C511.53,-407.29 493.93,-402.81 477.79,-398.7"/>
<polygon fill="#63b8ff" stroke="#63b8ff" points="527.28,-414.91 537.84,-413.98 529.01,-408.12 527.28,-414.91"/>
</a>
</g>
</g>
<!-- Node13 -->
<g id="Node000013" class="node">
<title>Node13</title>
<g id="a_Node000013"><a xlink:href="classCreateInterventionDialog.html#a2dea7e4f88ec1ff92ff0abfc79cc02ec" target="_top" xlink:title="Clears all input fields in the form.">
<polygon fill="white" stroke="#666666" points="322,-260 182,-260 182,-230 322,-230 322,-260"/>
<text text-anchor="start" x="190" y="-248" font-family="Helvetica,sans-Serif" font-size="10.00">CreateInterventionDialog</text>
<text text-anchor="middle" x="252" y="-237" font-family="Helvetica,sans-Serif" font-size="10.00">::clear_fields</text>
</a>
</g>
</g>
<!-- Node12&#45;&gt;Node13 -->
<g id="edge12_Node000012_Node000013" class="edge">
<title>Node12&#45;&gt;Node13</title>
<g id="a_edge12_Node000012_Node000013"><a xlink:title=" ">
<path fill="none" stroke="#63b8ff" d="M361.34,-363.07C360.18,-362.09 359.06,-361.07 358,-360 327.3,-329.19 353.39,-299.1 322,-269 318.43,-265.58 314.35,-262.64 309.99,-260.12"/>
<polygon fill="#63b8ff" stroke="#63b8ff" points="359.4,-365.98 369.58,-368.9 363.44,-360.27 359.4,-365.98"/>
</a>
</g>
</g>
<!-- Node16 -->
<g id="Node000016" class="node">
<title>Node16</title>
<g id="a_Node000016"><a xlink:href="classInterventionEditPanel.html#a66c7def9a4454115373cb8530c5f2320" target="_top" xlink:title="Loads intervention data into the form for editing.">
<polygon fill="white" stroke="#666666" points="312.5,-308 191.5,-308 191.5,-278 312.5,-278 312.5,-308"/>
<text text-anchor="start" x="199.5" y="-296" font-family="Helvetica,sans-Serif" font-size="10.00">InterventionEditPanel</text>
<text text-anchor="middle" x="252" y="-285" font-family="Helvetica,sans-Serif" font-size="10.00">::load</text>
</a>
</g>
</g>
<!-- Node12&#45;&gt;Node16 -->
<g id="edge15_Node000012_Node000016" class="edge">
<title>Node12&#45;&gt;Node16</title>
<g id="a_edge15_Node000012_Node000016"><a xlink:title=" ">
<path fill="none" stroke="#63b8ff" d="M363.88,-363.9C361.85,-362.66 359.88,-361.36 358,-360 337.82,-345.37 342.51,-331.16 322,-317 317.09,-313.61 311.66,-310.66 306.07,-308.1"/>
<polygon fill="#63b8ff" stroke="#63b8ff" points="362.65,-367.22 373.11,-368.94 366.01,-361.07 362.65,-367.22"/>
</a>
</g>
</g>
<!-- Node17 -->
<g id="Node000017" class="node">
<title>Node17</title>
<g id="a_Node000017"><a xlink:href="classTechListController.html#af56c5f4d7779243345cf71dd2f536491" target="_top" xlink:title="Reacts to updates in the technician repository.">
<polygon fill="white" stroke="#666666" points="319,-442 185,-442 185,-412 319,-412 319,-442"/>
<text text-anchor="start" x="193" y="-430" font-family="Helvetica,sans-Serif" font-size="10.00">TechListController</text>
<text text-anchor="middle" x="252" y="-419" font-family="Helvetica,sans-Serif" font-size="10.00">::on_repository_updated</text>
</a>
</g>
</g>
<!-- Node12&#45;&gt;Node17 -->
<g id="edge16_Node000012_Node000017" class="edge">
<title>Node12&#45;&gt;Node17</title>
<g id="a_edge16_Node000012_Node000017"><a xlink:title=" ">
<path fill="none" stroke="#63b8ff" d="M350.35,-401.63C337.18,-405.06 323.49,-408.63 310.68,-411.97"/>
<polygon fill="#63b8ff" stroke="#63b8ff" points="351.5,-404.95 360.29,-399.04 349.73,-398.17 351.5,-404.95"/>
</a>
</g>
</g>
<!-- Node18 -->
<g id="Node000018" class="node">
<title>Node18</title>
<g id="a_Node000018"><a xlink:href="classTechListController.html#a1e7a891dcb52fb54659fbacded0a06d3" target="_top" xlink:title="Sets up Qt signal/slot connections.">
<polygon fill="white" stroke="#666666" points="308.5,-356 195.5,-356 195.5,-326 308.5,-326 308.5,-356"/>
<text text-anchor="start" x="203.5" y="-344" font-family="Helvetica,sans-Serif" font-size="10.00">TechListController</text>
<text text-anchor="middle" x="252" y="-333" font-family="Helvetica,sans-Serif" font-size="10.00">::setup_connections</text>
</a>
</g>
</g>
<!-- Node12&#45;&gt;Node18 -->
<g id="edge17_Node000012_Node000018" class="edge">
<title>Node12&#45;&gt;Node18</title>
<g id="a_edge17_Node000012_Node000018"><a xlink:title=" ">
<path fill="none" stroke="#63b8ff" d="M350.34,-366.37C336.51,-362.76 322.09,-359.01 308.73,-355.52"/>
<polygon fill="#63b8ff" stroke="#63b8ff" points="349.73,-369.83 360.29,-368.96 351.5,-363.05 349.73,-369.83"/>
</a>
</g>
</g>
<!-- Node12&#45;&gt;Node19 -->
<g id="edge19_Node000012_Node000019" class="edge">
<title>Node12&#45;&gt;Node19</title>
<g id="a_edge19_Node000012_Node000019"><a xlink:title=" ">
<path fill="none" stroke="#63b8ff" d="M350.26,-384C285.19,-384 188.14,-384 128.08,-384"/>
<polygon fill="#63b8ff" stroke="#63b8ff" points="350.42,-387.5 360.42,-384 350.42,-380.5 350.42,-387.5"/>
</a>
</g>
</g>
<!-- Node14 -->
<g id="Node000014" class="node">
<title>Node14</title>
<g id="a_Node000014"><a xlink:href="classCreateInterventionDialog.html#a90408e026b2b8ba7a0da0179623c3e37" target="_top" xlink:title="Constructs the dialog.">
<polygon fill="white" stroke="#666666" points="146,-284 0,-284 0,-254 146,-254 146,-284"/>
<text text-anchor="start" x="8" y="-272" font-family="Helvetica,sans-Serif" font-size="10.00">CreateInterventionDialog</text>
<text text-anchor="middle" x="73" y="-261" font-family="Helvetica,sans-Serif" font-size="10.00">::CreateInterventionDialog</text>
</a>
</g>
</g>
<!-- Node13&#45;&gt;Node14 -->
<g id="edge13_Node000013_Node000014" class="edge">
<title>Node13&#45;&gt;Node14</title>
<g id="a_edge13_Node000013_Node000014"><a xlink:title=" ">
<path fill="none" stroke="#63b8ff" d="M171.81,-255.74C163.24,-256.9 154.55,-258.08 146.06,-259.23"/>
<polygon fill="#63b8ff" stroke="#63b8ff" points="172.37,-259.19 181.81,-254.38 171.43,-252.26 172.37,-259.19"/>
</a>
</g>
</g>
<!-- Node15 -->
<g id="Node000015" class="node">
<title>Node15</title>
<g id="a_Node000015"><a xlink:href="classCreateInterventionDialog.html#aa1cf75321fa161537f481c9eb80ba011" target="_top" xlink:title="Handles the show event to prepare or reset the dialog.">
<polygon fill="white" stroke="#666666" points="143,-236 3,-236 3,-206 143,-206 143,-236"/>
<text text-anchor="start" x="11" y="-224" font-family="Helvetica,sans-Serif" font-size="10.00">CreateInterventionDialog</text>
<text text-anchor="middle" x="73" y="-213" font-family="Helvetica,sans-Serif" font-size="10.00">::showEvent</text>
</a>
</g>
</g>
<!-- Node13&#45;&gt;Node15 -->
<g id="edge14_Node000013_Node000015" class="edge">
<title>Node13&#45;&gt;Node15</title>
<g id="a_edge14_Node000013_Node000015"><a xlink:title=" ">
<path fill="none" stroke="#63b8ff" d="M171.89,-234.27C162.31,-232.97 152.57,-231.65 143.15,-230.38"/>
<polygon fill="#63b8ff" stroke="#63b8ff" points="171.43,-237.74 181.81,-235.62 172.37,-230.81 171.43,-237.74"/>
</a>
</g>
</g>
<!-- Node18&#45;&gt;Node19 -->
<g id="edge18_Node000018_Node000019" class="edge">
<title>Node18&#45;&gt;Node19</title>
<g id="a_edge18_Node000018_Node000019"><a xlink:title=" ">
<path fill="none" stroke="#63b8ff" d="M185.73,-356.86C166.78,-361.46 146.3,-366.44 128.11,-370.85"/>
<polygon fill="#63b8ff" stroke="#63b8ff" points="186.59,-360.25 195.48,-354.49 184.94,-353.45 186.59,-360.25"/>
</a>
</g>
</g>
<!-- Node22&#45;&gt;Node10 -->
<g id="edge23_Node000022_Node000010" class="edge">
<title>Node22&#45;&gt;Node10</title>
<g id="a_edge23_Node000022_Node000010"><a xlink:title=" ">
<path fill="none" stroke="#63b8ff" d="M351.41,-198.79C338.42,-198.55 324.89,-198.31 312.16,-198.08"/>
<polygon fill="#63b8ff" stroke="#63b8ff" points="351.62,-202.29 361.68,-198.98 351.74,-195.29 351.62,-202.29"/>
</a>
</g>
</g>
</g>
</svg>
