<?xml version="1.0" encoding="UTF-8" standalone="no"?>
<!DOCTYPE svg PUBLIC "-//W3C//DTD SVG 1.1//EN"
 "http://www.w3.org/Graphics/SVG/1.1/DTD/svg11.dtd">
<!-- Generated by graphviz version 2.43.0 (0)
 -->
<!-- Title: CreateInterventionDialog Pages: 1 -->
<svg width="255pt" height="149pt"
 viewBox="0.00 0.00 255.00 149.00" xmlns="http://www.w3.org/2000/svg" xmlns:xlink="http://www.w3.org/1999/xlink">
<g id="graph0" class="graph" transform="scale(1 1) rotate(0) translate(4 145)">
<title>CreateInterventionDialog</title>
<!-- Node1 -->
<g id="Node000001" class="node">
<title>Node1</title>
<g id="a_Node000001"><a xlink:title="A modal dialog that allows users to input data for a new intervention.">
<polygon fill="#999999" stroke="#666666" points="140,-19 0,-19 0,0 140,0 140,-19"/>
<text text-anchor="middle" x="70" y="-7" font-family="Helvetica,sans-Serif" font-size="10.00">CreateInterventionDialog</text>
</a>
</g>
</g>
<!-- Node2 -->
<g id="Node000002" class="node">
<title>Node2</title>
<g id="a_Node000002"><a xlink:title=" ">
<polygon fill="white" stroke="#666666" points="66,-85 10,-85 10,-66 66,-66 66,-85"/>
<text text-anchor="middle" x="38" y="-73" font-family="Helvetica,sans-Serif" font-size="10.00">QDialog</text>
</a>
</g>
</g>
<!-- Node2&#45;&gt;Node1 -->
<g id="edge1_Node000001_Node000002" class="edge">
<title>Node2&#45;&gt;Node1</title>
<g id="a_edge1_Node000001_Node000002"><a xlink:title=" ">
<path fill="none" stroke="#63b8ff" d="M46.91,-56.68C52.97,-44.55 60.75,-29.01 65.55,-19.41"/>
<polygon fill="#63b8ff" stroke="#63b8ff" points="43.66,-55.36 42.32,-65.87 49.92,-58.49 43.66,-55.36"/>
</a>
</g>
</g>
<!-- Node3 -->
<g id="Node000003" class="node">
<title>Node3</title>
<g id="a_Node000003"><a xlink:href="classTechListController.html" target="_top" xlink:title="Controls UI elements related to technician selection and observes technician repository updates.">
<polygon fill="white" stroke="#666666" points="188,-85 84,-85 84,-66 188,-66 188,-85"/>
<text text-anchor="middle" x="136" y="-73" font-family="Helvetica,sans-Serif" font-size="10.00">TechListController</text>
</a>
</g>
</g>
<!-- Node3&#45;&gt;Node1 -->
<g id="edge2_Node000001_Node000003" class="edge">
<title>Node3&#45;&gt;Node1</title>
<g id="a_edge2_Node000001_Node000003"><a xlink:title=" ">
<path fill="none" stroke="#9a32cd" stroke-dasharray="5,2" d="M119.84,-58.83C107.06,-46.44 89.68,-29.59 79.18,-19.41"/>
<polygon fill="#9a32cd" stroke="#9a32cd" points="117.48,-61.42 127.1,-65.87 122.36,-56.39 117.48,-61.42"/>
</a>
</g>
<text text-anchor="middle" x="151.5" y="-40" font-family="Helvetica,sans-Serif" font-size="10.00" fill="grey"> m_tech_controller</text>
</g>
<!-- Node4 -->
<g id="Node000004" class="node">
<title>Node4</title>
<g id="a_Node000004"><a xlink:title=" ">
<polygon fill="white" stroke="#666666" points="111,-141 55,-141 55,-122 111,-122 111,-141"/>
<text text-anchor="middle" x="83" y="-129" font-family="Helvetica,sans-Serif" font-size="10.00">QObject</text>
</a>
</g>
</g>
<!-- Node4&#45;&gt;Node3 -->
<g id="edge3_Node000003_Node000004" class="edge">
<title>Node4&#45;&gt;Node3</title>
<g id="a_edge3_Node000003_Node000004"><a xlink:title=" ">
<path fill="none" stroke="#63b8ff" d="M98.98,-114.22C108.32,-104.7 119.75,-93.06 127.41,-85.25"/>
<polygon fill="#63b8ff" stroke="#63b8ff" points="96.26,-111.99 91.75,-121.58 101.25,-116.9 96.26,-111.99"/>
</a>
</g>
</g>
<!-- Node5 -->
<g id="Node000005" class="node">
<title>Node5</title>
<g id="a_Node000005"><a xlink:href="classATechnicianObserver.html" target="_top" xlink:title="Interface for classes that need to observe changes in the technician repository.">
<polygon fill="white" stroke="#666666" points="247,-141 129,-141 129,-122 247,-122 247,-141"/>
<text text-anchor="middle" x="188" y="-129" font-family="Helvetica,sans-Serif" font-size="10.00">ATechnicianObserver</text>
</a>
</g>
</g>
<!-- Node5&#45;&gt;Node3 -->
<g id="edge4_Node000003_Node000005" class="edge">
<title>Node5&#45;&gt;Node3</title>
<g id="a_edge4_Node000003_Node000005"><a xlink:title=" ">
<path fill="none" stroke="#63b8ff" d="M172.32,-114.22C163.16,-104.7 151.95,-93.06 144.43,-85.25"/>
<polygon fill="#63b8ff" stroke="#63b8ff" points="169.96,-116.81 179.41,-121.58 175,-111.95 169.96,-116.81"/>
</a>
</g>
</g>
</g>
</svg>
