<?xml version="1.0" encoding="UTF-8" standalone="no"?>
<!DOCTYPE svg PUBLIC "-//W3C//DTD SVG 1.1//EN"
 "http://www.w3.org/Graphics/SVG/1.1/DTD/svg11.dtd">
<!-- Generated by graphviz version 2.43.0 (0)
 -->
<!-- Title: TechnicianRepository::subscribe Pages: 1 -->
<svg width="468pt" height="134pt"
 viewBox="0.00 0.00 468.00 134.00" xmlns="http://www.w3.org/2000/svg" xmlns:xlink="http://www.w3.org/1999/xlink">
<g id="graph0" class="graph" transform="scale(1 1) rotate(0) translate(4 130)">
<title>TechnicianRepository::subscribe</title>
<!-- Node1 -->
<g id="Node000001" class="node">
<title>Node1</title>
<g id="a_Node000001"><a xlink:title="Subscribes an observer to be notified on repository changes.">
<polygon fill="#999999" stroke="#666666" points="460,-78 340,-78 340,-48 460,-48 460,-78"/>
<text text-anchor="start" x="348" y="-66" font-family="Helvetica,sans-Serif" font-size="10.00">TechnicianRepository</text>
<text text-anchor="middle" x="400" y="-55" font-family="Helvetica,sans-Serif" font-size="10.00">::subscribe</text>
</a>
</g>
</g>
<!-- Node2 -->
<g id="Node000002" class="node">
<title>Node2</title>
<g id="a_Node000002"><a xlink:href="classTechniciansListView.html#a136af4c67741eda51583f044e243e8ca" target="_top" xlink:title="Initializes UI properties and internal models.">
<polygon fill="white" stroke="#666666" points="287,-126 173,-126 173,-96 287,-96 287,-126"/>
<text text-anchor="start" x="181" y="-114" font-family="Helvetica,sans-Serif" font-size="10.00">TechniciansListView</text>
<text text-anchor="middle" x="230" y="-103" font-family="Helvetica,sans-Serif" font-size="10.00">::setup_ui</text>
</a>
</g>
</g>
<!-- Node1&#45;&gt;Node2 -->
<g id="edge1_Node000001_Node000002" class="edge">
<title>Node1&#45;&gt;Node2</title>
<g id="a_edge1_Node000001_Node000002"><a xlink:title=" ">
<path fill="none" stroke="#63b8ff" d="M336.25,-80.93C318.89,-85.89 300.23,-91.22 283.51,-96"/>
<polygon fill="#63b8ff" stroke="#63b8ff" points="337.65,-84.17 346.3,-78.06 335.73,-77.44 337.65,-84.17"/>
</a>
</g>
</g>
<!-- Node4 -->
<g id="Node000004" class="node">
<title>Node4</title>
<g id="a_Node000004"><a xlink:href="classTechnicianRepositoryProxy.html#a66486ef4faa138ea2617d7de55057960" target="_top" xlink:title="Subscribes an observer for technician repository updates.">
<polygon fill="white" stroke="#666666" points="304,-78 156,-78 156,-48 304,-48 304,-78"/>
<text text-anchor="start" x="164" y="-66" font-family="Helvetica,sans-Serif" font-size="10.00">TechnicianRepositoryProxy</text>
<text text-anchor="middle" x="230" y="-55" font-family="Helvetica,sans-Serif" font-size="10.00">::subscribe</text>
</a>
</g>
</g>
<!-- Node1&#45;&gt;Node4 -->
<g id="edge3_Node000001_Node000004" class="edge">
<title>Node1&#45;&gt;Node4</title>
<g id="a_edge3_Node000001_Node000004"><a xlink:title=" ">
<path fill="none" stroke="#63b8ff" d="M329.63,-63C321.21,-63 312.59,-63 304.12,-63"/>
<polygon fill="#63b8ff" stroke="#63b8ff" points="329.77,-66.5 339.77,-63 329.77,-59.5 329.77,-66.5"/>
</a>
</g>
</g>
<!-- Node5 -->
<g id="Node000005" class="node">
<title>Node5</title>
<g id="a_Node000005"><a xlink:href="classTechListController.html#a4bd566643a813622c34b9edc27b942ac" target="_top" xlink:title="Constructs a TechListController.">
<polygon fill="white" stroke="#666666" points="285,-30 175,-30 175,0 285,0 285,-30"/>
<text text-anchor="start" x="183" y="-18" font-family="Helvetica,sans-Serif" font-size="10.00">TechListController</text>
<text text-anchor="middle" x="230" y="-7" font-family="Helvetica,sans-Serif" font-size="10.00">::TechListController</text>
</a>
</g>
</g>
<!-- Node1&#45;&gt;Node5 -->
<g id="edge4_Node000001_Node000005" class="edge">
<title>Node1&#45;&gt;Node5</title>
<g id="a_edge4_Node000001_Node000005"><a xlink:title=" ">
<path fill="none" stroke="#63b8ff" d="M336.25,-45.07C318.89,-40.11 300.23,-34.78 283.51,-30"/>
<polygon fill="#63b8ff" stroke="#63b8ff" points="335.73,-48.56 346.3,-47.94 337.65,-41.83 335.73,-48.56"/>
</a>
</g>
</g>
<!-- Node3 -->
<g id="Node000003" class="node">
<title>Node3</title>
<g id="a_Node000003"><a xlink:href="classTechniciansListView.html#aa36fbe3e6761faada5f00ab73d8a84c4" target="_top" xlink:title="Constructs the list view and initializes its UI and behavior.">
<polygon fill="white" stroke="#666666" points="120,-126 0,-126 0,-96 120,-96 120,-126"/>
<text text-anchor="start" x="8" y="-114" font-family="Helvetica,sans-Serif" font-size="10.00">TechniciansListView</text>
<text text-anchor="middle" x="60" y="-103" font-family="Helvetica,sans-Serif" font-size="10.00">::TechniciansListView</text>
</a>
</g>
</g>
<!-- Node2&#45;&gt;Node3 -->
<g id="edge2_Node000002_Node000003" class="edge">
<title>Node2&#45;&gt;Node3</title>
<g id="a_edge2_Node000002_Node000003"><a xlink:title=" ">
<path fill="none" stroke="#63b8ff" d="M162.54,-111C148.53,-111 133.85,-111 120.13,-111"/>
<polygon fill="#63b8ff" stroke="#63b8ff" points="162.59,-114.5 172.59,-111 162.59,-107.5 162.59,-114.5"/>
</a>
</g>
</g>
</g>
</svg>
