<?xml version="1.0" encoding="UTF-8" standalone="no"?>
<!DOCTYPE svg PUBLIC "-//W3C//DTD SVG 1.1//EN"
 "http://www.w3.org/Graphics/SVG/1.1/DTD/svg11.dtd">
<!-- Generated by graphviz version 2.43.0 (0)
 -->
<!-- Title: NavigationBar::tabChanged Pages: 1 -->
<svg width="540pt" height="76pt"
 viewBox="0.00 0.00 540.00 75.50" xmlns="http://www.w3.org/2000/svg" xmlns:xlink="http://www.w3.org/1999/xlink">
<g id="graph0" class="graph" transform="scale(1 1) rotate(0) translate(4 71.5)">
<title>NavigationBar::tabChanged</title>
<!-- Node1 -->
<g id="Node000001" class="node">
<title>Node1</title>
<g id="a_Node000001"><a xlink:title="Emitted when a new tab is selected.">
<polygon fill="#999999" stroke="#666666" points="532,-45.5 381,-45.5 381,-26.5 532,-26.5 532,-45.5"/>
<text text-anchor="middle" x="456.5" y="-33.5" font-family="Helvetica,sans-Serif" font-size="10.00">NavigationBar::tabChanged</text>
</a>
</g>
</g>
<!-- Node2 -->
<g id="Node000002" class="node">
<title>Node2</title>
<g id="a_Node000002"><a xlink:href="classTechMapp.html#af0e39c1d95a040c849f8f920b4ba4ffe" target="_top" xlink:title="Connects internal signals and slots for UI and authentication handling.">
<polygon fill="white" stroke="#666666" points="345,-67.5 198,-67.5 198,-48.5 345,-48.5 345,-67.5"/>
<text text-anchor="middle" x="271.5" y="-55.5" font-family="Helvetica,sans-Serif" font-size="10.00">TechMapp::setup_connects</text>
</a>
</g>
</g>
<!-- Node1&#45;&gt;Node2 -->
<g id="edge1_Node000001_Node000002" class="edge">
<title>Node1&#45;&gt;Node2</title>
<g id="a_edge1_Node000001_Node000002"><a xlink:title=" ">
<path fill="none" stroke="#63b8ff" d="M370.81,-46.18C362.24,-47.21 353.6,-48.25 345.18,-49.26"/>
<polygon fill="#63b8ff" stroke="#63b8ff" points="371.29,-49.65 380.8,-44.98 370.46,-42.7 371.29,-49.65"/>
</a>
</g>
</g>
<!-- Node4 -->
<g id="Node000004" class="node">
<title>Node4</title>
<g id="a_Node000004"><a xlink:href="classNavigationBar.html#a32cc6158f37c7675670a84b937d18b88" target="_top" xlink:title="Connects signals and slots for tab interaction.">
<polygon fill="white" stroke="#666666" points="331,-30 212,-30 212,0 331,0 331,-30"/>
<text text-anchor="start" x="220" y="-18" font-family="Helvetica,sans-Serif" font-size="10.00">NavigationBar::setup</text>
<text text-anchor="middle" x="271.5" y="-7" font-family="Helvetica,sans-Serif" font-size="10.00">_connects</text>
</a>
</g>
</g>
<!-- Node1&#45;&gt;Node4 -->
<g id="edge3_Node000001_Node000004" class="edge">
<title>Node1&#45;&gt;Node4</title>
<g id="a_edge3_Node000001_Node000004"><a xlink:title=" ">
<path fill="none" stroke="#63b8ff" d="M370.67,-26.27C357.35,-24.74 343.84,-23.19 331.27,-21.74"/>
<polygon fill="#63b8ff" stroke="#63b8ff" points="370.47,-29.77 380.8,-27.43 371.27,-22.81 370.47,-29.77"/>
</a>
</g>
</g>
<!-- Node3 -->
<g id="Node000003" class="node">
<title>Node3</title>
<g id="a_Node000003"><a xlink:href="classTechMapp.html#ac4d485efbe0d00914dcfb9680a39ec77" target="_top" xlink:title="Constructs the main application window.">
<polygon fill="white" stroke="#666666" points="141,-67.5 21,-67.5 21,-48.5 141,-48.5 141,-67.5"/>
<text text-anchor="middle" x="81" y="-55.5" font-family="Helvetica,sans-Serif" font-size="10.00">TechMapp::TechMapp</text>
</a>
</g>
</g>
<!-- Node2&#45;&gt;Node3 -->
<g id="edge2_Node000002_Node000003" class="edge">
<title>Node2&#45;&gt;Node3</title>
<g id="a_edge2_Node000002_Node000003"><a xlink:title=" ">
<path fill="none" stroke="#63b8ff" d="M187.67,-58C172,-58 155.9,-58 141.14,-58"/>
<polygon fill="#63b8ff" stroke="#63b8ff" points="187.89,-61.5 197.89,-58 187.89,-54.5 187.89,-61.5"/>
</a>
</g>
</g>
<!-- Node5 -->
<g id="Node000005" class="node">
<title>Node5</title>
<g id="a_Node000005"><a xlink:href="classNavigationBar.html#a3643a95123630d6cb770426b529d2e2b" target="_top" xlink:title="Constructs the NavigationBar and sets up UI elements.">
<polygon fill="white" stroke="#666666" points="162,-24.5 0,-24.5 0,-5.5 162,-5.5 162,-24.5"/>
<text text-anchor="middle" x="81" y="-12.5" font-family="Helvetica,sans-Serif" font-size="10.00">NavigationBar::NavigationBar</text>
</a>
</g>
</g>
<!-- Node4&#45;&gt;Node5 -->
<g id="edge4_Node000004_Node000005" class="edge">
<title>Node4&#45;&gt;Node5</title>
<g id="a_edge4_Node000004_Node000005"><a xlink:title=" ">
<path fill="none" stroke="#63b8ff" d="M201.72,-15C188.82,-15 175.24,-15 162.04,-15"/>
<polygon fill="#63b8ff" stroke="#63b8ff" points="201.89,-18.5 211.89,-15 201.89,-11.5 201.89,-18.5"/>
</a>
</g>
</g>
</g>
</svg>
