<?xml version="1.0" encoding="UTF-8" standalone="no"?>
<!DOCTYPE svg PUBLIC "-//W3C//DTD SVG 1.1//EN"
 "http://www.w3.org/Graphics/SVG/1.1/DTD/svg11.dtd">
<!-- Generated by graphviz version 2.43.0 (0)
 -->
<!-- Title: TechniciansPage Pages: 1 -->
<svg width="511pt" height="195pt"
 viewBox="0.00 0.00 511.00 194.65" xmlns="http://www.w3.org/2000/svg" xmlns:xlink="http://www.w3.org/1999/xlink">
<g id="graph0" class="graph" transform="scale(1 1) rotate(0) translate(4 190.65)">
<title>TechniciansPage</title>
<!-- Node1 -->
<g id="Node000001" class="node">
<title>Node1</title>
<g id="a_Node000001"><a xlink:title="A QWidget page for displaying, creating, and editing technicians.">
<polygon fill="#999999" stroke="#666666" points="503,-130 407,-130 407,-111 503,-111 503,-130"/>
<text text-anchor="middle" x="455" y="-118" font-family="Helvetica,sans-Serif" font-size="10.00">TechniciansPage</text>
</a>
</g>
</g>
<!-- Node2 -->
<g id="Node000002" class="node">
<title>Node2</title>
<g id="a_Node000002"><a xlink:title=" ">
<polygon fill="white" stroke="#666666" points="88.5,-167 29.5,-167 29.5,-148 88.5,-148 88.5,-167"/>
<text text-anchor="middle" x="59" y="-155" font-family="Helvetica,sans-Serif" font-size="10.00">QWidget</text>
</a>
</g>
</g>
<!-- Node2&#45;&gt;Node1 -->
<g id="edge1_Node000001_Node000002" class="edge">
<title>Node2&#45;&gt;Node1</title>
<g id="a_edge1_Node000001_Node000002"><a xlink:title=" ">
<path fill="none" stroke="#63b8ff" d="M99.04,-167.11C116.1,-170.85 136.43,-174.66 155,-176.5 258.71,-186.77 291.24,-197.59 389,-161.5 409.03,-154.11 429.41,-139.94 441.88,-130.35"/>
<polygon fill="#63b8ff" stroke="#63b8ff" points="99.41,-163.61 88.88,-164.82 97.86,-170.44 99.41,-163.61"/>
</a>
</g>
</g>
<!-- Node8 -->
<g id="Node000008" class="node">
<title>Node8</title>
<g id="a_Node000008"><a xlink:href="classEntityEditorLayout.html" target="_top" xlink:title="A UI layout widget that provides a reusable interface structure with a header, action button,...">
<polygon fill="white" stroke="#666666" points="274,-167 167,-167 167,-148 274,-148 274,-167"/>
<text text-anchor="middle" x="220.5" y="-155" font-family="Helvetica,sans-Serif" font-size="10.00">EntityEditorLayout</text>
</a>
</g>
</g>
<!-- Node2&#45;&gt;Node8 -->
<g id="edge8_Node000008_Node000002" class="edge">
<title>Node2&#45;&gt;Node8</title>
<g id="a_edge8_Node000008_Node000002"><a xlink:title=" ">
<path fill="none" stroke="#63b8ff" d="M98.71,-157.5C119.14,-157.5 144.52,-157.5 166.73,-157.5"/>
<polygon fill="#63b8ff" stroke="#63b8ff" points="98.52,-154 88.52,-157.5 98.52,-161 98.52,-154"/>
</a>
</g>
</g>
<!-- Node9 -->
<g id="Node000009" class="node">
<title>Node9</title>
<g id="a_Node000009"><a xlink:href="classTechnicianEditPanel.html" target="_top" xlink:title="A QWidget&#45;based editor for modifying technician data.">
<polygon fill="white" stroke="#666666" points="277,-130 164,-130 164,-111 277,-111 277,-130"/>
<text text-anchor="middle" x="220.5" y="-118" font-family="Helvetica,sans-Serif" font-size="10.00">TechnicianEditPanel</text>
</a>
</g>
</g>
<!-- Node2&#45;&gt;Node9 -->
<g id="edge10_Node000009_Node000002" class="edge">
<title>Node2&#45;&gt;Node9</title>
<g id="a_edge10_Node000009_Node000002"><a xlink:title=" ">
<path fill="none" stroke="#63b8ff" d="M98.4,-148.59C122.55,-142.99 153.69,-135.77 178.34,-130.05"/>
<polygon fill="#63b8ff" stroke="#63b8ff" points="97.47,-145.22 88.52,-150.89 99.05,-152.03 97.47,-145.22"/>
</a>
</g>
</g>
<!-- Node3 -->
<g id="Node000003" class="node">
<title>Node3</title>
<g id="a_Node000003"><a xlink:href="classCreateTechnicianDialog.html" target="_top" xlink:title="A dialog UI for creating a new technician, allowing input of name and selection of expertise fields.">
<polygon fill="white" stroke="#666666" points="286,-93 155,-93 155,-74 286,-74 286,-93"/>
<text text-anchor="middle" x="220.5" y="-81" font-family="Helvetica,sans-Serif" font-size="10.00">CreateTechnicianDialog</text>
</a>
</g>
</g>
<!-- Node3&#45;&gt;Node1 -->
<g id="edge2_Node000001_Node000003" class="edge">
<title>Node3&#45;&gt;Node1</title>
<g id="a_edge2_Node000001_Node000003"><a xlink:title=" ">
<path fill="none" stroke="#9a32cd" stroke-dasharray="5,2" d="M296.23,-91.75C325.29,-95.37 358.79,-100.04 389,-105.5 397.55,-107.04 406.67,-108.97 415.29,-110.92"/>
<polygon fill="#9a32cd" stroke="#9a32cd" points="296.5,-88.26 286.15,-90.52 295.65,-95.21 296.5,-88.26"/>
</a>
</g>
<text text-anchor="middle" x="346.5" y="-108.5" font-family="Helvetica,sans-Serif" font-size="10.00" fill="grey"> m_create_dialog</text>
</g>
<!-- Node4 -->
<g id="Node000004" class="node">
<title>Node4</title>
<g id="a_Node000004"><a xlink:title=" ">
<polygon fill="white" stroke="#666666" points="87,-93 31,-93 31,-74 87,-74 87,-93"/>
<text text-anchor="middle" x="59" y="-81" font-family="Helvetica,sans-Serif" font-size="10.00">QDialog</text>
</a>
</g>
</g>
<!-- Node4&#45;&gt;Node3 -->
<g id="edge3_Node000003_Node000004" class="edge">
<title>Node4&#45;&gt;Node3</title>
<g id="a_edge3_Node000003_Node000004"><a xlink:title=" ">
<path fill="none" stroke="#63b8ff" d="M97.2,-83.5C114.34,-83.5 135.18,-83.5 154.76,-83.5"/>
<polygon fill="#63b8ff" stroke="#63b8ff" points="97.06,-80 87.06,-83.5 97.06,-87 97.06,-80"/>
</a>
</g>
</g>
<!-- Node5 -->
<g id="Node000005" class="node">
<title>Node5</title>
<g id="a_Node000005"><a xlink:href="classTechniciansListView.html" target="_top" xlink:title="Custom list view displaying available technicians and observing changes in the technician repository.">
<polygon fill="white" stroke="#666666" points="277.5,-56 163.5,-56 163.5,-37 277.5,-37 277.5,-56"/>
<text text-anchor="middle" x="220.5" y="-44" font-family="Helvetica,sans-Serif" font-size="10.00">TechniciansListView</text>
</a>
</g>
</g>
<!-- Node5&#45;&gt;Node1 -->
<g id="edge4_Node000001_Node000005" class="edge">
<title>Node5&#45;&gt;Node1</title>
<g id="a_edge4_Node000001_Node000005"><a xlink:title=" ">
<path fill="none" stroke="#9a32cd" stroke-dasharray="5,2" d="M287.76,-52.55C319.27,-56.98 356.96,-64.56 389,-77.5 409.33,-85.71 429.96,-100.75 442.37,-110.68"/>
<polygon fill="#9a32cd" stroke="#9a32cd" points="288.14,-49.07 277.76,-51.22 287.22,-56.01 288.14,-49.07"/>
</a>
</g>
<text text-anchor="middle" x="346.5" y="-80.5" font-family="Helvetica,sans-Serif" font-size="10.00" fill="grey"> m_list_view</text>
</g>
<!-- Node6 -->
<g id="Node000006" class="node">
<title>Node6</title>
<g id="a_Node000006"><a xlink:title=" ">
<polygon fill="white" stroke="#666666" points="91.5,-56 26.5,-56 26.5,-37 91.5,-37 91.5,-56"/>
<text text-anchor="middle" x="59" y="-44" font-family="Helvetica,sans-Serif" font-size="10.00">QListView</text>
</a>
</g>
</g>
<!-- Node6&#45;&gt;Node5 -->
<g id="edge5_Node000005_Node000006" class="edge">
<title>Node6&#45;&gt;Node5</title>
<g id="a_edge5_Node000005_Node000006"><a xlink:title=" ">
<path fill="none" stroke="#63b8ff" d="M101.54,-46.5C120.36,-46.5 142.89,-46.5 163.19,-46.5"/>
<polygon fill="#63b8ff" stroke="#63b8ff" points="101.51,-43 91.51,-46.5 101.51,-50 101.51,-43"/>
</a>
</g>
</g>
<!-- Node7 -->
<g id="Node000007" class="node">
<title>Node7</title>
<g id="a_Node000007"><a xlink:href="classATechnicianObserver.html" target="_top" xlink:title="Interface for classes that need to observe changes in the technician repository.">
<polygon fill="white" stroke="#666666" points="118,-19 0,-19 0,0 118,0 118,-19"/>
<text text-anchor="middle" x="59" y="-7" font-family="Helvetica,sans-Serif" font-size="10.00">ATechnicianObserver</text>
</a>
</g>
</g>
<!-- Node7&#45;&gt;Node5 -->
<g id="edge6_Node000005_Node000007" class="edge">
<title>Node7&#45;&gt;Node5</title>
<g id="a_edge6_Node000005_Node000007"><a xlink:title=" ">
<path fill="none" stroke="#63b8ff" d="M110.82,-21.29C132.59,-26.34 157.7,-32.16 178.29,-36.94"/>
<polygon fill="#63b8ff" stroke="#63b8ff" points="111.61,-17.88 101.08,-19.03 110.03,-24.7 111.61,-17.88"/>
</a>
</g>
</g>
<!-- Node8&#45;&gt;Node1 -->
<g id="edge7_Node000001_Node000008" class="edge">
<title>Node8&#45;&gt;Node1</title>
<g id="a_edge7_Node000001_Node000008"><a xlink:title=" ">
<path fill="none" stroke="#9a32cd" stroke-dasharray="5,2" d="M284.07,-150.05C315.62,-146 354.44,-140.59 389,-134.5 396.5,-133.18 404.46,-131.61 412.13,-130"/>
<polygon fill="#9a32cd" stroke="#9a32cd" points="283.57,-146.59 274.09,-151.32 284.45,-153.53 283.57,-146.59"/>
</a>
</g>
<text text-anchor="middle" x="346.5" y="-149.5" font-family="Helvetica,sans-Serif" font-size="10.00" fill="grey"> m_layout</text>
</g>
<!-- Node9&#45;&gt;Node1 -->
<g id="edge9_Node000001_Node000009" class="edge">
<title>Node9&#45;&gt;Node1</title>
<g id="a_edge9_Node000001_Node000009"><a xlink:title=" ">
<path fill="none" stroke="#9a32cd" stroke-dasharray="5,2" d="M287.19,-120.5C325.36,-120.5 372.56,-120.5 407,-120.5"/>
<polygon fill="#9a32cd" stroke="#9a32cd" points="287.19,-117 277.19,-120.5 287.19,-124 287.19,-117"/>
</a>
</g>
<text text-anchor="middle" x="346.5" y="-123.5" font-family="Helvetica,sans-Serif" font-size="10.00" fill="grey"> m_edit_panel</text>
</g>
</g>
</svg>
