<?xml version="1.0" encoding="UTF-8" standalone="no"?>
<!DOCTYPE svg PUBLIC "-//W3C//DTD SVG 1.1//EN"
 "http://www.w3.org/Graphics/SVG/1.1/DTD/svg11.dtd">
<!-- Generated by graphviz version 2.43.0 (0)
 -->
<!-- Title: InterventionRepository::get_all Pages: 1 -->
<svg width="650pt" height="132pt"
 viewBox="0.00 0.00 650.00 132.00" xmlns="http://www.w3.org/2000/svg" xmlns:xlink="http://www.w3.org/1999/xlink">
<g id="graph0" class="graph" transform="scale(1 1) rotate(0) translate(4 128)">
<title>InterventionRepository::get_all</title>
<!-- Node1 -->
<g id="Node000001" class="node">
<title>Node1</title>
<g id="a_Node000001"><a xlink:title="Retrieves all interventions stored in the repository.">
<polygon fill="#999999" stroke="#666666" points="642,-76 514,-76 514,-46 642,-46 642,-76"/>
<text text-anchor="start" x="522" y="-64" font-family="Helvetica,sans-Serif" font-size="10.00">InterventionRepository</text>
<text text-anchor="middle" x="578" y="-53" font-family="Helvetica,sans-Serif" font-size="10.00">::get_all</text>
</a>
</g>
</g>
<!-- Node2 -->
<g id="Node000002" class="node">
<title>Node2</title>
<g id="a_Node000002"><a xlink:href="classInterventionRepositoryProxy.html#ad422bf26adae37ae6637b52413659a41" target="_top" xlink:title="Retrieves all interventions from the repository.">
<polygon fill="white" stroke="#666666" points="478,-124 322,-124 322,-94 478,-94 478,-124"/>
<text text-anchor="start" x="330" y="-112" font-family="Helvetica,sans-Serif" font-size="10.00">InterventionRepositoryProxy</text>
<text text-anchor="middle" x="400" y="-101" font-family="Helvetica,sans-Serif" font-size="10.00">::get_all</text>
</a>
</g>
</g>
<!-- Node1&#45;&gt;Node2 -->
<g id="edge1_Node000001_Node000002" class="edge">
<title>Node1&#45;&gt;Node2</title>
<g id="a_edge1_Node000001_Node000002"><a xlink:title=" ">
<path fill="none" stroke="#63b8ff" d="M512.03,-78.72C493.62,-83.74 473.77,-89.15 456.01,-94"/>
<polygon fill="#63b8ff" stroke="#63b8ff" points="513.07,-82.06 521.8,-76.06 511.23,-75.31 513.07,-82.06"/>
</a>
</g>
</g>
<!-- Node3 -->
<g id="Node000003" class="node">
<title>Node3</title>
<g id="a_Node000003"><a xlink:href="classInterventionsListView.html#a09c3eb5ea0586743b19fead7d7705b5e" target="_top" xlink:title="Slot called when the intervention repository is updated.">
<polygon fill="white" stroke="#666666" points="467,-76 333,-76 333,-46 467,-46 467,-76"/>
<text text-anchor="start" x="341" y="-64" font-family="Helvetica,sans-Serif" font-size="10.00">InterventionsListView</text>
<text text-anchor="middle" x="400" y="-53" font-family="Helvetica,sans-Serif" font-size="10.00">::on_repository_updated</text>
</a>
</g>
</g>
<!-- Node1&#45;&gt;Node3 -->
<g id="edge2_Node000001_Node000003" class="edge">
<title>Node1&#45;&gt;Node3</title>
<g id="a_edge2_Node000001_Node000003"><a xlink:title=" ">
<path fill="none" stroke="#63b8ff" d="M503.85,-61C491.69,-61 479.14,-61 467.17,-61"/>
<polygon fill="#63b8ff" stroke="#63b8ff" points="503.96,-64.5 513.96,-61 503.96,-57.5 503.96,-64.5"/>
</a>
</g>
</g>
<!-- Node6 -->
<g id="Node000006" class="node">
<title>Node6</title>
<g id="a_Node000006"><a xlink:href="classInterventionsListView.html#a0291ef167cfece9054208fbc93d0bb9f" target="_top" xlink:title="Connects internal signals and slots for user interaction.">
<polygon fill="white" stroke="#666666" points="286,-30 164,-30 164,0 286,0 286,-30"/>
<text text-anchor="start" x="172" y="-18" font-family="Helvetica,sans-Serif" font-size="10.00">InterventionsListView</text>
<text text-anchor="middle" x="225" y="-7" font-family="Helvetica,sans-Serif" font-size="10.00">::setup_connects</text>
</a>
</g>
</g>
<!-- Node1&#45;&gt;Node6 -->
<g id="edge5_Node000001_Node000006" class="edge">
<title>Node1&#45;&gt;Node6</title>
<g id="a_edge5_Node000001_Node000006"><a xlink:title=" ">
<path fill="none" stroke="#63b8ff" d="M511.46,-43.65C500.35,-41.13 488.89,-38.78 478,-37 412.88,-26.33 337.4,-20.6 286.14,-17.7"/>
<polygon fill="#63b8ff" stroke="#63b8ff" points="511.01,-47.13 521.54,-46 512.6,-40.32 511.01,-47.13"/>
</a>
</g>
</g>
<!-- Node4 -->
<g id="Node000004" class="node">
<title>Node4</title>
<g id="a_Node000004"><a xlink:href="classInterventionsListView.html#a1ff1310c5ed4a038e39dd6e71dfc1915" target="_top" xlink:title="Initializes the list view UI components.">
<polygon fill="white" stroke="#666666" points="286,-78 164,-78 164,-48 286,-48 286,-78"/>
<text text-anchor="start" x="172" y="-66" font-family="Helvetica,sans-Serif" font-size="10.00">InterventionsListView</text>
<text text-anchor="middle" x="225" y="-55" font-family="Helvetica,sans-Serif" font-size="10.00">::setup_ui</text>
</a>
</g>
</g>
<!-- Node3&#45;&gt;Node4 -->
<g id="edge3_Node000003_Node000004" class="edge">
<title>Node3&#45;&gt;Node4</title>
<g id="a_edge3_Node000003_Node000004"><a xlink:title=" ">
<path fill="none" stroke="#63b8ff" d="M322.5,-61.88C310.36,-62.02 297.96,-62.17 286.26,-62.3"/>
<polygon fill="#63b8ff" stroke="#63b8ff" points="322.65,-65.38 332.61,-61.77 322.57,-58.38 322.65,-65.38"/>
</a>
</g>
</g>
<!-- Node5 -->
<g id="Node000005" class="node">
<title>Node5</title>
<g id="a_Node000005"><a xlink:href="classInterventionsListView.html#a1e18e26a39a91aaa4ba252033b3d5d57" target="_top" xlink:title="Constructs the list view and initializes its UI.">
<polygon fill="white" stroke="#666666" points="128,-54 0,-54 0,-24 128,-24 128,-54"/>
<text text-anchor="start" x="8" y="-42" font-family="Helvetica,sans-Serif" font-size="10.00">InterventionsListView</text>
<text text-anchor="middle" x="64" y="-31" font-family="Helvetica,sans-Serif" font-size="10.00">::InterventionsListView</text>
</a>
</g>
</g>
<!-- Node4&#45;&gt;Node5 -->
<g id="edge4_Node000004_Node000005" class="edge">
<title>Node4&#45;&gt;Node5</title>
<g id="a_edge4_Node000004_Node000005"><a xlink:title=" ">
<path fill="none" stroke="#63b8ff" d="M153.9,-52.42C145.32,-51.12 136.58,-49.81 128.11,-48.53"/>
<polygon fill="#63b8ff" stroke="#63b8ff" points="153.48,-55.89 163.89,-53.93 154.52,-48.97 153.48,-55.89"/>
</a>
</g>
</g>
<!-- Node6&#45;&gt;Node5 -->
<g id="edge6_Node000006_Node000005" class="edge">
<title>Node6&#45;&gt;Node5</title>
<g id="a_edge6_Node000006_Node000005"><a xlink:title=" ">
<path fill="none" stroke="#63b8ff" d="M153.9,-25.58C145.32,-26.88 136.58,-28.19 128.11,-29.47"/>
<polygon fill="#63b8ff" stroke="#63b8ff" points="154.52,-29.03 163.89,-24.07 153.48,-22.11 154.52,-29.03"/>
</a>
</g>
</g>
</g>
</svg>
