<?xml version="1.0" encoding="UTF-8" standalone="no"?>
<!DOCTYPE svg PUBLIC "-//W3C//DTD SVG 1.1//EN"
 "http://www.w3.org/Graphics/SVG/1.1/DTD/svg11.dtd">
<!-- Generated by graphviz version 2.43.0 (0)
 -->
<!-- Title: TechniciansListView::setup_connects Pages: 1 -->
<svg width="278pt" height="134pt"
 viewBox="0.00 0.00 278.00 134.00" xmlns="http://www.w3.org/2000/svg" xmlns:xlink="http://www.w3.org/1999/xlink">
<g id="graph0" class="graph" transform="scale(1 1) rotate(0) translate(4 130)">
<title>TechniciansListView::setup_connects</title>
<!-- Node1 -->
<g id="Node000001" class="node">
<title>Node1</title>
<g id="a_Node000001"><a xlink:title="Connects interaction events to internal logic.">
<polygon fill="#999999" stroke="#666666" points="114,-78 0,-78 0,-48 114,-48 114,-78"/>
<text text-anchor="start" x="8" y="-66" font-family="Helvetica,sans-Serif" font-size="10.00">TechniciansListView</text>
<text text-anchor="middle" x="57" y="-55" font-family="Helvetica,sans-Serif" font-size="10.00">::setup_connects</text>
</a>
</g>
</g>
<!-- Node2 -->
<g id="Node000002" class="node">
<title>Node2</title>
<g id="a_Node000002"><a xlink:href="classTechnicianRepository.html#abf3ba8f356e622790a4445b34046ac02" target="_top" xlink:title="Retrieves all technicians in the repository.">
<polygon fill="white" stroke="#666666" points="270,-126 150,-126 150,-96 270,-96 270,-126"/>
<text text-anchor="start" x="158" y="-114" font-family="Helvetica,sans-Serif" font-size="10.00">TechnicianRepository</text>
<text text-anchor="middle" x="210" y="-103" font-family="Helvetica,sans-Serif" font-size="10.00">::get_all</text>
</a>
</g>
</g>
<!-- Node1&#45;&gt;Node2 -->
<g id="edge1_Node000001_Node000002" class="edge">
<title>Node1&#45;&gt;Node2</title>
<g id="a_edge1_Node000001_Node000002"><a xlink:title=" ">
<path fill="none" stroke="#63b8ff" d="M105.36,-78.06C120.12,-82.75 136.55,-87.97 151.9,-92.85"/>
<polygon fill="#63b8ff" stroke="#63b8ff" points="151.21,-96.3 161.81,-96 153.34,-89.63 151.21,-96.3"/>
</a>
</g>
</g>
<!-- Node3 -->
<g id="Node000003" class="node">
<title>Node3</title>
<g id="a_Node000003"><a xlink:href="classTechnicianRepository.html#a7195867c4915f8aa3ff92b28615b1248" target="_top" xlink:title="Returns the singleton instance of the repository.">
<polygon fill="white" stroke="#666666" points="270,-78 150,-78 150,-48 270,-48 270,-78"/>
<text text-anchor="start" x="158" y="-66" font-family="Helvetica,sans-Serif" font-size="10.00">TechnicianRepository</text>
<text text-anchor="middle" x="210" y="-55" font-family="Helvetica,sans-Serif" font-size="10.00">::instance</text>
</a>
</g>
</g>
<!-- Node1&#45;&gt;Node3 -->
<g id="edge2_Node000001_Node000003" class="edge">
<title>Node1&#45;&gt;Node3</title>
<g id="a_edge2_Node000001_Node000003"><a xlink:title=" ">
<path fill="none" stroke="#63b8ff" d="M114.23,-63C122.6,-63 131.32,-63 139.92,-63"/>
<polygon fill="#63b8ff" stroke="#63b8ff" points="139.95,-66.5 149.95,-63 139.95,-59.5 139.95,-66.5"/>
</a>
</g>
</g>
<!-- Node4 -->
<g id="Node000004" class="node">
<title>Node4</title>
<g id="a_Node000004"><a xlink:href="classTechniciansListView.html#a23089732a81569940fd0c4c20f20a48d" target="_top" xlink:title="Emitted when a technician is selected from the list.">
<polygon fill="white" stroke="#666666" points="269.5,-30 150.5,-30 150.5,0 269.5,0 269.5,-30"/>
<text text-anchor="start" x="158.5" y="-18" font-family="Helvetica,sans-Serif" font-size="10.00">TechniciansListView</text>
<text text-anchor="middle" x="210" y="-7" font-family="Helvetica,sans-Serif" font-size="10.00">::technician_selected</text>
</a>
</g>
</g>
<!-- Node1&#45;&gt;Node4 -->
<g id="edge3_Node000001_Node000004" class="edge">
<title>Node1&#45;&gt;Node4</title>
<g id="a_edge3_Node000001_Node000004"><a xlink:title=" ">
<path fill="none" stroke="#63b8ff" d="M105.36,-47.94C120.12,-43.25 136.55,-38.03 151.9,-33.15"/>
<polygon fill="#63b8ff" stroke="#63b8ff" points="153.34,-36.37 161.81,-30 151.21,-29.7 153.34,-36.37"/>
</a>
</g>
</g>
</g>
</svg>
