<?xml version="1.0" encoding="UTF-8" standalone="no"?>
<!DOCTYPE svg PUBLIC "-//W3C//DTD SVG 1.1//EN"
 "http://www.w3.org/Graphics/SVG/1.1/DTD/svg11.dtd">
<!-- Generated by graphviz version 2.43.0 (0)
 -->
<!-- Title: TechnicianRepository::get_all Pages: 1 -->
<svg width="828pt" height="351pt"
 viewBox="0.00 0.00 828.00 351.14" xmlns="http://www.w3.org/2000/svg" xmlns:xlink="http://www.w3.org/1999/xlink">
<g id="graph0" class="graph" transform="scale(1 1) rotate(0) translate(4 347.14)">
<title>TechnicianRepository::get_all</title>
<!-- Node1 -->
<g id="Node000001" class="node">
<title>Node1</title>
<g id="a_Node000001"><a xlink:title="Retrieves all technicians in the repository.">
<polygon fill="#999999" stroke="#666666" points="820,-247.14 700,-247.14 700,-217.14 820,-217.14 820,-247.14"/>
<text text-anchor="start" x="708" y="-235.14" font-family="Helvetica,sans-Serif" font-size="10.00">TechnicianRepository</text>
<text text-anchor="middle" x="760" y="-224.14" font-family="Helvetica,sans-Serif" font-size="10.00">::get_all</text>
</a>
</g>
</g>
<!-- Node2 -->
<g id="Node000002" class="node">
<title>Node2</title>
<g id="a_Node000002"><a xlink:href="classTechnicianRepositoryProxy.html#aaa36dbbd6f20c961f945b63f417ead6d" target="_top" xlink:title="Retrieves all technicians from the repository.">
<polygon fill="white" stroke="#666666" points="664,-343.14 516,-343.14 516,-313.14 664,-313.14 664,-343.14"/>
<text text-anchor="start" x="524" y="-331.14" font-family="Helvetica,sans-Serif" font-size="10.00">TechnicianRepositoryProxy</text>
<text text-anchor="middle" x="590" y="-320.14" font-family="Helvetica,sans-Serif" font-size="10.00">::get_all</text>
</a>
</g>
</g>
<!-- Node1&#45;&gt;Node2 -->
<g id="edge1_Node000001_Node000002" class="edge">
<title>Node1&#45;&gt;Node2</title>
<g id="a_edge1_Node000001_Node000002"><a xlink:title=" ">
<path fill="none" stroke="#63b8ff" d="M734.83,-254.06C716.49,-269.76 690.06,-290.46 664,-304.14 657.74,-307.42 650.94,-310.37 644.1,-312.99"/>
<polygon fill="#63b8ff" stroke="#63b8ff" points="737.41,-256.45 742.66,-247.24 732.82,-251.17 737.41,-256.45"/>
</a>
</g>
</g>
<!-- Node3 -->
<g id="Node000003" class="node">
<title>Node3</title>
<g id="a_Node000003"><a xlink:href="classInterventionsListView.html#a09c3eb5ea0586743b19fead7d7705b5e" target="_top" xlink:title="Slot called when the intervention repository is updated.">
<polygon fill="white" stroke="#666666" points="657,-295.14 523,-295.14 523,-265.14 657,-265.14 657,-295.14"/>
<text text-anchor="start" x="531" y="-283.14" font-family="Helvetica,sans-Serif" font-size="10.00">InterventionsListView</text>
<text text-anchor="middle" x="590" y="-272.14" font-family="Helvetica,sans-Serif" font-size="10.00">::on_repository_updated</text>
</a>
</g>
</g>
<!-- Node1&#45;&gt;Node3 -->
<g id="edge2_Node000001_Node000003" class="edge">
<title>Node1&#45;&gt;Node3</title>
<g id="a_edge2_Node000001_Node000003"><a xlink:title=" ">
<path fill="none" stroke="#63b8ff" d="M696.25,-250.06C678.89,-255.02 660.23,-260.36 643.51,-265.13"/>
<polygon fill="#63b8ff" stroke="#63b8ff" points="697.65,-253.3 706.3,-247.19 695.73,-246.57 697.65,-253.3"/>
</a>
</g>
</g>
<!-- Node6 -->
<g id="Node000006" class="node">
<title>Node6</title>
<g id="a_Node000006"><a xlink:href="classTechniciansListView.html#ab337e022e046d24caf8482cc7d68be6c" target="_top" xlink:title="Called when the technician repository is updated.">
<polygon fill="white" stroke="#666666" points="657,-247.14 523,-247.14 523,-217.14 657,-217.14 657,-247.14"/>
<text text-anchor="start" x="531" y="-235.14" font-family="Helvetica,sans-Serif" font-size="10.00">TechniciansListView</text>
<text text-anchor="middle" x="590" y="-224.14" font-family="Helvetica,sans-Serif" font-size="10.00">::on_repository_updated</text>
</a>
</g>
</g>
<!-- Node1&#45;&gt;Node6 -->
<g id="edge5_Node000001_Node000006" class="edge">
<title>Node1&#45;&gt;Node6</title>
<g id="a_edge5_Node000001_Node000006"><a xlink:title=" ">
<path fill="none" stroke="#63b8ff" d="M689.6,-232.14C678.86,-232.14 667.8,-232.14 657.14,-232.14"/>
<polygon fill="#63b8ff" stroke="#63b8ff" points="689.77,-235.64 699.77,-232.14 689.77,-228.64 689.77,-235.64"/>
</a>
</g>
</g>
<!-- Node9 -->
<g id="Node000009" class="node">
<title>Node9</title>
<g id="a_Node000009"><a xlink:href="classTechListController.html#a63c60cd01624769a28bcf64986688b70" target="_top" xlink:title="Rebuilds the technician list in the UI.">
<polygon fill="white" stroke="#666666" points="642,-158.14 538,-158.14 538,-128.14 642,-128.14 642,-158.14"/>
<text text-anchor="start" x="546" y="-146.14" font-family="Helvetica,sans-Serif" font-size="10.00">TechListController</text>
<text text-anchor="middle" x="590" y="-135.14" font-family="Helvetica,sans-Serif" font-size="10.00">::rebuild_list</text>
</a>
</g>
</g>
<!-- Node1&#45;&gt;Node9 -->
<g id="edge8_Node000001_Node000009" class="edge">
<title>Node1&#45;&gt;Node9</title>
<g id="a_edge8_Node000001_Node000009"><a xlink:title=" ">
<path fill="none" stroke="#63b8ff" d="M728.02,-211.63C709.77,-199.95 686.01,-185.45 664,-174.14 652.98,-168.47 640.68,-162.96 629.37,-158.19"/>
<polygon fill="#63b8ff" stroke="#63b8ff" points="726.21,-214.63 736.51,-217.11 730,-208.74 726.21,-214.63"/>
</a>
</g>
</g>
<!-- Node18 -->
<g id="Node000018" class="node">
<title>Node18</title>
<g id="a_Node000018"><a xlink:href="classTechniciansListView.html#abcbdccaf85bf5a62a1c341c7db132133" target="_top" xlink:title="Connects interaction events to internal logic.">
<polygon fill="white" stroke="#666666" points="476,-201.14 362,-201.14 362,-171.14 476,-171.14 476,-201.14"/>
<text text-anchor="start" x="370" y="-189.14" font-family="Helvetica,sans-Serif" font-size="10.00">TechniciansListView</text>
<text text-anchor="middle" x="419" y="-178.14" font-family="Helvetica,sans-Serif" font-size="10.00">::setup_connects</text>
</a>
</g>
</g>
<!-- Node1&#45;&gt;Node18 -->
<g id="edge18_Node000001_Node000018" class="edge">
<title>Node1&#45;&gt;Node18</title>
<g id="a_edge18_Node000001_Node000018"><a xlink:title=" ">
<path fill="none" stroke="#63b8ff" d="M695.61,-214.65C685.11,-212.18 674.29,-209.89 664,-208.14 600.06,-197.25 525.71,-191.52 476.05,-188.68"/>
<polygon fill="#63b8ff" stroke="#63b8ff" points="695.01,-218.11 705.56,-217.07 696.66,-211.31 695.01,-218.11"/>
</a>
</g>
</g>
<!-- Node4 -->
<g id="Node000004" class="node">
<title>Node4</title>
<g id="a_Node000004"><a xlink:href="classInterventionsListView.html#a1ff1310c5ed4a038e39dd6e71dfc1915" target="_top" xlink:title="Initializes the list view UI components.">
<polygon fill="white" stroke="#666666" points="480,-297.14 358,-297.14 358,-267.14 480,-267.14 480,-297.14"/>
<text text-anchor="start" x="366" y="-285.14" font-family="Helvetica,sans-Serif" font-size="10.00">InterventionsListView</text>
<text text-anchor="middle" x="419" y="-274.14" font-family="Helvetica,sans-Serif" font-size="10.00">::setup_ui</text>
</a>
</g>
</g>
<!-- Node3&#45;&gt;Node4 -->
<g id="edge3_Node000003_Node000004" class="edge">
<title>Node3&#45;&gt;Node4</title>
<g id="a_edge3_Node000003_Node000004"><a xlink:title=" ">
<path fill="none" stroke="#63b8ff" d="M512.38,-281.04C501.54,-281.17 490.53,-281.3 480.07,-281.42"/>
<polygon fill="#63b8ff" stroke="#63b8ff" points="512.73,-284.54 522.69,-280.92 512.65,-277.54 512.73,-284.54"/>
</a>
</g>
</g>
<!-- Node5 -->
<g id="Node000005" class="node">
<title>Node5</title>
<g id="a_Node000005"><a xlink:href="classInterventionsListView.html#a1e18e26a39a91aaa4ba252033b3d5d57" target="_top" xlink:title="Constructs the list view and initializes its UI.">
<polygon fill="white" stroke="#666666" points="316,-297.14 188,-297.14 188,-267.14 316,-267.14 316,-297.14"/>
<text text-anchor="start" x="196" y="-285.14" font-family="Helvetica,sans-Serif" font-size="10.00">InterventionsListView</text>
<text text-anchor="middle" x="252" y="-274.14" font-family="Helvetica,sans-Serif" font-size="10.00">::InterventionsListView</text>
</a>
</g>
</g>
<!-- Node4&#45;&gt;Node5 -->
<g id="edge4_Node000004_Node000005" class="edge">
<title>Node4&#45;&gt;Node5</title>
<g id="a_edge4_Node000004_Node000005"><a xlink:title=" ">
<path fill="none" stroke="#63b8ff" d="M347.92,-282.14C337.34,-282.14 326.47,-282.14 316.05,-282.14"/>
<polygon fill="#63b8ff" stroke="#63b8ff" points="347.96,-285.64 357.96,-282.14 347.96,-278.64 347.96,-285.64"/>
</a>
</g>
</g>
<!-- Node7 -->
<g id="Node000007" class="node">
<title>Node7</title>
<g id="a_Node000007"><a xlink:href="classTechniciansListView.html#a136af4c67741eda51583f044e243e8ca" target="_top" xlink:title="Initializes UI properties and internal models.">
<polygon fill="white" stroke="#666666" points="476,-249.14 362,-249.14 362,-219.14 476,-219.14 476,-249.14"/>
<text text-anchor="start" x="370" y="-237.14" font-family="Helvetica,sans-Serif" font-size="10.00">TechniciansListView</text>
<text text-anchor="middle" x="419" y="-226.14" font-family="Helvetica,sans-Serif" font-size="10.00">::setup_ui</text>
</a>
</g>
</g>
<!-- Node6&#45;&gt;Node7 -->
<g id="edge6_Node000006_Node000007" class="edge">
<title>Node6&#45;&gt;Node7</title>
<g id="a_edge6_Node000006_Node000007"><a xlink:title=" ">
<path fill="none" stroke="#63b8ff" d="M512.46,-233.04C500.18,-233.19 487.69,-233.33 476.01,-233.47"/>
<polygon fill="#63b8ff" stroke="#63b8ff" points="512.73,-236.54 522.69,-232.92 512.65,-229.54 512.73,-236.54"/>
</a>
</g>
</g>
<!-- Node8 -->
<g id="Node000008" class="node">
<title>Node8</title>
<g id="a_Node000008"><a xlink:href="classTechniciansListView.html#aa36fbe3e6761faada5f00ab73d8a84c4" target="_top" xlink:title="Constructs the list view and initializes its UI and behavior.">
<polygon fill="white" stroke="#666666" points="312,-249.14 192,-249.14 192,-219.14 312,-219.14 312,-249.14"/>
<text text-anchor="start" x="200" y="-237.14" font-family="Helvetica,sans-Serif" font-size="10.00">TechniciansListView</text>
<text text-anchor="middle" x="252" y="-226.14" font-family="Helvetica,sans-Serif" font-size="10.00">::TechniciansListView</text>
</a>
</g>
</g>
<!-- Node7&#45;&gt;Node8 -->
<g id="edge7_Node000007_Node000008" class="edge">
<title>Node7&#45;&gt;Node8</title>
<g id="a_edge7_Node000007_Node000008"><a xlink:title=" ">
<path fill="none" stroke="#63b8ff" d="M351.41,-234.14C338.42,-234.14 324.89,-234.14 312.16,-234.14"/>
<polygon fill="#63b8ff" stroke="#63b8ff" points="351.68,-237.64 361.68,-234.14 351.68,-230.64 351.68,-237.64"/>
</a>
</g>
</g>
<!-- Node10 -->
<g id="Node000010" class="node">
<title>Node10</title>
<g id="a_Node000010"><a xlink:href="classTechListController.html#a4a07a8d1f3948b7f326d8c0e0bc9ab06" target="_top" xlink:title="Updates the technician list based on current combo box selections.">
<polygon fill="white" stroke="#666666" points="477.5,-129.14 360.5,-129.14 360.5,-99.14 477.5,-99.14 477.5,-129.14"/>
<text text-anchor="start" x="368.5" y="-117.14" font-family="Helvetica,sans-Serif" font-size="10.00">TechListController</text>
<text text-anchor="middle" x="419" y="-106.14" font-family="Helvetica,sans-Serif" font-size="10.00">::update_technicians</text>
</a>
</g>
</g>
<!-- Node9&#45;&gt;Node10 -->
<g id="edge9_Node000009_Node000010" class="edge">
<title>Node9&#45;&gt;Node10</title>
<g id="a_edge9_Node000009_Node000010"><a xlink:title=" ">
<path fill="none" stroke="#63b8ff" d="M527.86,-132.64C511.53,-129.84 493.93,-126.82 477.79,-124.05"/>
<polygon fill="#63b8ff" stroke="#63b8ff" points="527.39,-136.11 537.84,-134.36 528.57,-129.21 527.39,-136.11"/>
</a>
</g>
</g>
<!-- Node11 -->
<g id="Node000011" class="node">
<title>Node11</title>
<g id="a_Node000011"><a xlink:href="classCreateInterventionDialog.html#a2dea7e4f88ec1ff92ff0abfc79cc02ec" target="_top" xlink:title="Clears all input fields in the form.">
<polygon fill="white" stroke="#666666" points="322,-201.14 182,-201.14 182,-171.14 322,-171.14 322,-201.14"/>
<text text-anchor="start" x="190" y="-189.14" font-family="Helvetica,sans-Serif" font-size="10.00">CreateInterventionDialog</text>
<text text-anchor="middle" x="252" y="-178.14" font-family="Helvetica,sans-Serif" font-size="10.00">::clear_fields</text>
</a>
</g>
</g>
<!-- Node10&#45;&gt;Node11 -->
<g id="edge10_Node000010_Node000011" class="edge">
<title>Node10&#45;&gt;Node11</title>
<g id="a_edge10_Node000010_Node000011"><a xlink:title=" ">
<path fill="none" stroke="#63b8ff" d="M380.95,-134.06C363.34,-143.17 341.85,-153.76 322,-162.14 314.64,-165.24 306.72,-168.27 298.97,-171.08"/>
<polygon fill="#63b8ff" stroke="#63b8ff" points="383.06,-136.91 390.3,-129.18 379.82,-130.7 383.06,-136.91"/>
</a>
</g>
</g>
<!-- Node14 -->
<g id="Node000014" class="node">
<title>Node14</title>
<g id="a_Node000014"><a xlink:href="classInterventionEditPanel.html#a66c7def9a4454115373cb8530c5f2320" target="_top" xlink:title="Loads intervention data into the form for editing.">
<polygon fill="white" stroke="#666666" points="312.5,-153.14 191.5,-153.14 191.5,-123.14 312.5,-123.14 312.5,-153.14"/>
<text text-anchor="start" x="199.5" y="-141.14" font-family="Helvetica,sans-Serif" font-size="10.00">InterventionEditPanel</text>
<text text-anchor="middle" x="252" y="-130.14" font-family="Helvetica,sans-Serif" font-size="10.00">::load</text>
</a>
</g>
</g>
<!-- Node10&#45;&gt;Node14 -->
<g id="edge13_Node000010_Node000014" class="edge">
<title>Node10&#45;&gt;Node14</title>
<g id="a_edge13_Node000010_Node000014"><a xlink:title=" ">
<path fill="none" stroke="#63b8ff" d="M350.38,-123.97C337.87,-125.79 324.89,-127.68 312.63,-129.46"/>
<polygon fill="#63b8ff" stroke="#63b8ff" points="350.9,-127.43 360.29,-122.53 349.89,-120.51 350.9,-127.43"/>
</a>
</g>
</g>
<!-- Node15 -->
<g id="Node000015" class="node">
<title>Node15</title>
<g id="a_Node000015"><a xlink:href="classTechListController.html#af56c5f4d7779243345cf71dd2f536491" target="_top" xlink:title="Reacts to updates in the technician repository.">
<polygon fill="white" stroke="#666666" points="319,-105.14 185,-105.14 185,-75.14 319,-75.14 319,-105.14"/>
<text text-anchor="start" x="193" y="-93.14" font-family="Helvetica,sans-Serif" font-size="10.00">TechListController</text>
<text text-anchor="middle" x="252" y="-82.14" font-family="Helvetica,sans-Serif" font-size="10.00">::on_repository_updated</text>
</a>
</g>
</g>
<!-- Node10&#45;&gt;Node15 -->
<g id="edge14_Node000010_Node000015" class="edge">
<title>Node10&#45;&gt;Node15</title>
<g id="a_edge14_Node000010_Node000015"><a xlink:title=" ">
<path fill="none" stroke="#63b8ff" d="M350.17,-104.27C339.92,-102.78 329.36,-101.24 319.15,-99.76"/>
<polygon fill="#63b8ff" stroke="#63b8ff" points="349.89,-107.77 360.29,-105.74 350.9,-100.84 349.89,-107.77"/>
</a>
</g>
</g>
<!-- Node16 -->
<g id="Node000016" class="node">
<title>Node16</title>
<g id="a_Node000016"><a xlink:href="classTechListController.html#a1e7a891dcb52fb54659fbacded0a06d3" target="_top" xlink:title="Sets up Qt signal/slot connections.">
<polygon fill="white" stroke="#666666" points="308.5,-57.14 195.5,-57.14 195.5,-27.14 308.5,-27.14 308.5,-57.14"/>
<text text-anchor="start" x="203.5" y="-45.14" font-family="Helvetica,sans-Serif" font-size="10.00">TechListController</text>
<text text-anchor="middle" x="252" y="-34.14" font-family="Helvetica,sans-Serif" font-size="10.00">::setup_connections</text>
</a>
</g>
</g>
<!-- Node10&#45;&gt;Node16 -->
<g id="edge15_Node000010_Node000016" class="edge">
<title>Node10&#45;&gt;Node16</title>
<g id="a_edge15_Node000010_Node000016"><a xlink:title=" ">
<path fill="none" stroke="#63b8ff" d="M380.95,-94.21C363.34,-85.11 341.85,-74.51 322,-66.14 314.64,-63.03 306.72,-60 298.97,-57.19"/>
<polygon fill="#63b8ff" stroke="#63b8ff" points="379.82,-97.57 390.3,-99.09 383.06,-91.36 379.82,-97.57"/>
</a>
</g>
</g>
<!-- Node17 -->
<g id="Node000017" class="node">
<title>Node17</title>
<g id="a_Node000017"><a xlink:href="classTechListController.html#a4bd566643a813622c34b9edc27b942ac" target="_top" xlink:title="Constructs a TechListController.">
<polygon fill="white" stroke="#666666" points="128,-36.14 18,-36.14 18,-6.14 128,-6.14 128,-36.14"/>
<text text-anchor="start" x="26" y="-24.14" font-family="Helvetica,sans-Serif" font-size="10.00">TechListController</text>
<text text-anchor="middle" x="73" y="-13.14" font-family="Helvetica,sans-Serif" font-size="10.00">::TechListController</text>
</a>
</g>
</g>
<!-- Node10&#45;&gt;Node17 -->
<g id="edge17_Node000010_Node000017" class="edge">
<title>Node10&#45;&gt;Node17</title>
<g id="a_edge17_Node000010_Node000017"><a xlink:title=" ">
<path fill="none" stroke="#63b8ff" d="M402.75,-90.45C386.13,-67.05 357.14,-32.69 322,-18.14 259.34,7.82 179.91,0.7 128.06,-8.62"/>
<polygon fill="#63b8ff" stroke="#63b8ff" points="399.96,-92.57 408.51,-98.82 405.73,-88.6 399.96,-92.57"/>
</a>
</g>
</g>
<!-- Node12 -->
<g id="Node000012" class="node">
<title>Node12</title>
<g id="a_Node000012"><a xlink:href="classCreateInterventionDialog.html#a90408e026b2b8ba7a0da0179623c3e37" target="_top" xlink:title="Constructs the dialog.">
<polygon fill="white" stroke="#666666" points="146,-225.14 0,-225.14 0,-195.14 146,-195.14 146,-225.14"/>
<text text-anchor="start" x="8" y="-213.14" font-family="Helvetica,sans-Serif" font-size="10.00">CreateInterventionDialog</text>
<text text-anchor="middle" x="73" y="-202.14" font-family="Helvetica,sans-Serif" font-size="10.00">::CreateInterventionDialog</text>
</a>
</g>
</g>
<!-- Node11&#45;&gt;Node12 -->
<g id="edge11_Node000011_Node000012" class="edge">
<title>Node11&#45;&gt;Node12</title>
<g id="a_edge11_Node000011_Node000012"><a xlink:title=" ">
<path fill="none" stroke="#63b8ff" d="M171.81,-196.87C163.24,-198.04 154.55,-199.21 146.06,-200.36"/>
<polygon fill="#63b8ff" stroke="#63b8ff" points="172.37,-200.33 181.81,-195.52 171.43,-193.39 172.37,-200.33"/>
</a>
</g>
</g>
<!-- Node13 -->
<g id="Node000013" class="node">
<title>Node13</title>
<g id="a_Node000013"><a xlink:href="classCreateInterventionDialog.html#aa1cf75321fa161537f481c9eb80ba011" target="_top" xlink:title="Handles the show event to prepare or reset the dialog.">
<polygon fill="white" stroke="#666666" points="143,-177.14 3,-177.14 3,-147.14 143,-147.14 143,-177.14"/>
<text text-anchor="start" x="11" y="-165.14" font-family="Helvetica,sans-Serif" font-size="10.00">CreateInterventionDialog</text>
<text text-anchor="middle" x="73" y="-154.14" font-family="Helvetica,sans-Serif" font-size="10.00">::showEvent</text>
</a>
</g>
</g>
<!-- Node11&#45;&gt;Node13 -->
<g id="edge12_Node000011_Node000013" class="edge">
<title>Node11&#45;&gt;Node13</title>
<g id="a_edge12_Node000011_Node000013"><a xlink:title=" ">
<path fill="none" stroke="#63b8ff" d="M171.89,-175.41C162.31,-174.11 152.57,-172.79 143.15,-171.51"/>
<polygon fill="#63b8ff" stroke="#63b8ff" points="171.43,-178.88 181.81,-176.75 172.37,-171.94 171.43,-178.88"/>
</a>
</g>
</g>
<!-- Node16&#45;&gt;Node17 -->
<g id="edge16_Node000016_Node000017" class="edge">
<title>Node16&#45;&gt;Node17</title>
<g id="a_edge16_Node000016_Node000017"><a xlink:title=" ">
<path fill="none" stroke="#63b8ff" d="M185.47,-34.36C166.59,-32.12 146.21,-29.7 128.11,-27.56"/>
<polygon fill="#63b8ff" stroke="#63b8ff" points="185.14,-37.85 195.48,-35.55 185.96,-30.89 185.14,-37.85"/>
</a>
</g>
</g>
<!-- Node18&#45;&gt;Node8 -->
<g id="edge19_Node000018_Node000008" class="edge">
<title>Node18&#45;&gt;Node8</title>
<g id="a_edge19_Node000018_Node000008"><a xlink:title=" ">
<path fill="none" stroke="#63b8ff" d="M356.37,-204.06C339.32,-209.02 320.99,-214.36 304.57,-219.13"/>
<polygon fill="#63b8ff" stroke="#63b8ff" points="357.62,-207.35 366.25,-201.19 355.67,-200.62 357.62,-207.35"/>
</a>
</g>
</g>
</g>
</svg>
