<?xml version="1.0" encoding="UTF-8" standalone="no"?>
<!DOCTYPE svg PUBLIC "-//W3C//DTD SVG 1.1//EN"
 "http://www.w3.org/Graphics/SVG/1.1/DTD/svg11.dtd">
<!-- Generated by graphviz version 2.43.0 (0)
 -->
<!-- Title: InterventionsListView::setup_connects Pages: 1 -->
<svg width="294pt" height="134pt"
 viewBox="0.00 0.00 294.00 134.00" xmlns="http://www.w3.org/2000/svg" xmlns:xlink="http://www.w3.org/1999/xlink">
<g id="graph0" class="graph" transform="scale(1 1) rotate(0) translate(4 130)">
<title>InterventionsListView::setup_connects</title>
<!-- Node1 -->
<g id="Node000001" class="node">
<title>Node1</title>
<g id="a_Node000001"><a xlink:title="Connects internal signals and slots for user interaction.">
<polygon fill="#999999" stroke="#666666" points="122,-78 0,-78 0,-48 122,-48 122,-78"/>
<text text-anchor="start" x="8" y="-66" font-family="Helvetica,sans-Serif" font-size="10.00">InterventionsListView</text>
<text text-anchor="middle" x="61" y="-55" font-family="Helvetica,sans-Serif" font-size="10.00">::setup_connects</text>
</a>
</g>
</g>
<!-- Node2 -->
<g id="Node000002" class="node">
<title>Node2</title>
<g id="a_Node000002"><a xlink:href="classInterventionRepository.html#a251502ad34f1e6636918d97e398b3d4b" target="_top" xlink:title="Retrieves all interventions stored in the repository.">
<polygon fill="white" stroke="#666666" points="286,-126 158,-126 158,-96 286,-96 286,-126"/>
<text text-anchor="start" x="166" y="-114" font-family="Helvetica,sans-Serif" font-size="10.00">InterventionRepository</text>
<text text-anchor="middle" x="222" y="-103" font-family="Helvetica,sans-Serif" font-size="10.00">::get_all</text>
</a>
</g>
</g>
<!-- Node1&#45;&gt;Node2 -->
<g id="edge1_Node000001_Node000002" class="edge">
<title>Node1&#45;&gt;Node2</title>
<g id="a_edge1_Node000001_Node000002"><a xlink:title=" ">
<path fill="none" stroke="#63b8ff" d="M111.87,-78.06C127.56,-82.79 145.04,-88.07 161.34,-92.99"/>
<polygon fill="#63b8ff" stroke="#63b8ff" points="160.72,-96.46 171.3,-96 162.74,-89.76 160.72,-96.46"/>
</a>
</g>
</g>
<!-- Node3 -->
<g id="Node000003" class="node">
<title>Node3</title>
<g id="a_Node000003"><a xlink:href="classInterventionRepository.html#a2e562f9d059314c9cb2fb8cc0d19008b" target="_top" xlink:title="Returns the singleton instance of the repository.">
<polygon fill="white" stroke="#666666" points="286,-78 158,-78 158,-48 286,-48 286,-78"/>
<text text-anchor="start" x="166" y="-66" font-family="Helvetica,sans-Serif" font-size="10.00">InterventionRepository</text>
<text text-anchor="middle" x="222" y="-55" font-family="Helvetica,sans-Serif" font-size="10.00">::instance</text>
</a>
</g>
</g>
<!-- Node1&#45;&gt;Node3 -->
<g id="edge2_Node000001_Node000003" class="edge">
<title>Node1&#45;&gt;Node3</title>
<g id="a_edge2_Node000001_Node000003"><a xlink:title=" ">
<path fill="none" stroke="#63b8ff" d="M122.11,-63C130.52,-63 139.23,-63 147.85,-63"/>
<polygon fill="#63b8ff" stroke="#63b8ff" points="147.89,-66.5 157.89,-63 147.89,-59.5 147.89,-66.5"/>
</a>
</g>
</g>
<!-- Node4 -->
<g id="Node000004" class="node">
<title>Node4</title>
<g id="a_Node000004"><a xlink:href="classInterventionsListView.html#a1f1c4ca1c4c8be522cb37b1d3c388f7d" target="_top" xlink:title="Emitted when a user selects an intervention from the list.">
<polygon fill="white" stroke="#666666" points="286,-30 158,-30 158,0 286,0 286,-30"/>
<text text-anchor="start" x="166" y="-18" font-family="Helvetica,sans-Serif" font-size="10.00">InterventionsListView</text>
<text text-anchor="middle" x="222" y="-7" font-family="Helvetica,sans-Serif" font-size="10.00">::intervention_selected</text>
</a>
</g>
</g>
<!-- Node1&#45;&gt;Node4 -->
<g id="edge3_Node000001_Node000004" class="edge">
<title>Node1&#45;&gt;Node4</title>
<g id="a_edge3_Node000001_Node000004"><a xlink:title=" ">
<path fill="none" stroke="#63b8ff" d="M111.87,-47.94C127.56,-43.21 145.04,-37.93 161.34,-33.01"/>
<polygon fill="#63b8ff" stroke="#63b8ff" points="162.74,-36.24 171.3,-30 160.72,-29.54 162.74,-36.24"/>
</a>
</g>
</g>
</g>
</svg>
