<?xml version="1.0" encoding="UTF-8" standalone="no"?>
<!DOCTYPE svg PUBLIC "-//W3C//DTD SVG 1.1//EN"
 "http://www.w3.org/Graphics/SVG/1.1/DTD/svg11.dtd">
<!-- Generated by graphviz version 2.43.0 (0)
 -->
<!-- Title: TechniciansListView Pages: 1 -->
<svg width="210pt" height="82pt"
 viewBox="0.00 0.00 209.50 82.00" xmlns="http://www.w3.org/2000/svg" xmlns:xlink="http://www.w3.org/1999/xlink">
<g id="graph0" class="graph" transform="scale(1 1) rotate(0) translate(4 78)">
<title>TechniciansListView</title>
<!-- Node1 -->
<g id="Node000001" class="node">
<title>Node1</title>
<g id="a_Node000001"><a xlink:title="Custom list view displaying available technicians and observing changes in the technician repository.">
<polygon fill="#999999" stroke="#666666" points="144.5,-19 30.5,-19 30.5,0 144.5,0 144.5,-19"/>
<text text-anchor="middle" x="87.5" y="-7" font-family="Helvetica,sans-Serif" font-size="10.00">TechniciansListView</text>
</a>
</g>
</g>
<!-- Node2 -->
<g id="Node000002" class="node">
<title>Node2</title>
<g id="a_Node000002"><a xlink:title=" ">
<polygon fill="white" stroke="#666666" points="65,-74 0,-74 0,-55 65,-55 65,-74"/>
<text text-anchor="middle" x="32.5" y="-62" font-family="Helvetica,sans-Serif" font-size="10.00">QListView</text>
</a>
</g>
</g>
<!-- Node2&#45;&gt;Node1 -->
<g id="edge1_Node000001_Node000002" class="edge">
<title>Node2&#45;&gt;Node1</title>
<g id="a_edge1_Node000001_Node000002"><a xlink:title=" ">
<path fill="none" stroke="#63b8ff" d="M48.79,-47.8C58.54,-38.41 70.55,-26.83 78.59,-19.09"/>
<polygon fill="#63b8ff" stroke="#63b8ff" points="46.35,-45.29 41.58,-54.75 51.21,-50.33 46.35,-45.29"/>
</a>
</g>
</g>
<!-- Node3 -->
<g id="Node000003" class="node">
<title>Node3</title>
<g id="a_Node000003"><a xlink:href="classATechnicianObserver.html" target="_top" xlink:title="Interface for classes that need to observe changes in the technician repository.">
<polygon fill="white" stroke="#666666" points="201.5,-74 83.5,-74 83.5,-55 201.5,-55 201.5,-74"/>
<text text-anchor="middle" x="142.5" y="-62" font-family="Helvetica,sans-Serif" font-size="10.00">ATechnicianObserver</text>
</a>
</g>
</g>
<!-- Node3&#45;&gt;Node1 -->
<g id="edge2_Node000001_Node000003" class="edge">
<title>Node3&#45;&gt;Node1</title>
<g id="a_edge2_Node000001_Node000003"><a xlink:title=" ">
<path fill="none" stroke="#63b8ff" d="M126.21,-47.8C116.46,-38.41 104.45,-26.83 96.41,-19.09"/>
<polygon fill="#63b8ff" stroke="#63b8ff" points="123.79,-50.33 133.42,-54.75 128.65,-45.29 123.79,-50.33"/>
</a>
</g>
</g>
</g>
</svg>
