<?xml version="1.0" encoding="UTF-8" standalone="no"?>
<!DOCTYPE svg PUBLIC "-//W3C//DTD SVG 1.1//EN"
 "http://www.w3.org/Graphics/SVG/1.1/DTD/svg11.dtd">
<!-- Generated by graphviz version 2.43.0 (0)
 -->
<!-- Title: TechnicianRepository::unsubscribe Pages: 1 -->
<svg width="312pt" height="134pt"
 viewBox="0.00 0.00 312.00 134.00" xmlns="http://www.w3.org/2000/svg" xmlns:xlink="http://www.w3.org/1999/xlink">
<g id="graph0" class="graph" transform="scale(1 1) rotate(0) translate(4 130)">
<title>TechnicianRepository::unsubscribe</title>
<!-- Node1 -->
<g id="Node000001" class="node">
<title>Node1</title>
<g id="a_Node000001"><a xlink:title="Unsubscribes an observer from notifications.">
<polygon fill="#999999" stroke="#666666" points="304,-78 184,-78 184,-48 304,-48 304,-78"/>
<text text-anchor="start" x="192" y="-66" font-family="Helvetica,sans-Serif" font-size="10.00">TechnicianRepository</text>
<text text-anchor="middle" x="244" y="-55" font-family="Helvetica,sans-Serif" font-size="10.00">::unsubscribe</text>
</a>
</g>
</g>
<!-- Node2 -->
<g id="Node000002" class="node">
<title>Node2</title>
<g id="a_Node000002"><a xlink:href="classTechnicianRepositoryProxy.html#a67b748c4942d8868f471c06a249933fd" target="_top" xlink:title="Unsubscribes an observer from updates.">
<polygon fill="white" stroke="#666666" points="148,-126 0,-126 0,-96 148,-96 148,-126"/>
<text text-anchor="start" x="8" y="-114" font-family="Helvetica,sans-Serif" font-size="10.00">TechnicianRepositoryProxy</text>
<text text-anchor="middle" x="74" y="-103" font-family="Helvetica,sans-Serif" font-size="10.00">::unsubscribe</text>
</a>
</g>
</g>
<!-- Node1&#45;&gt;Node2 -->
<g id="edge1_Node000001_Node000002" class="edge">
<title>Node1&#45;&gt;Node2</title>
<g id="a_edge1_Node000001_Node000002"><a xlink:title=" ">
<path fill="none" stroke="#63b8ff" d="M180.25,-80.93C162.89,-85.89 144.23,-91.22 127.51,-96"/>
<polygon fill="#63b8ff" stroke="#63b8ff" points="181.65,-84.17 190.3,-78.06 179.73,-77.44 181.65,-84.17"/>
</a>
</g>
</g>
<!-- Node3 -->
<g id="Node000003" class="node">
<title>Node3</title>
<g id="a_Node000003"><a xlink:href="classTechListController.html#a7bef283735b757d557d2125f4e9bb106" target="_top" xlink:title="Destructor (override).">
<polygon fill="white" stroke="#666666" points="133,-78 15,-78 15,-48 133,-48 133,-78"/>
<text text-anchor="start" x="23" y="-66" font-family="Helvetica,sans-Serif" font-size="10.00">TechListController</text>
<text text-anchor="middle" x="74" y="-55" font-family="Helvetica,sans-Serif" font-size="10.00">::~TechListController</text>
</a>
</g>
</g>
<!-- Node1&#45;&gt;Node3 -->
<g id="edge2_Node000001_Node000003" class="edge">
<title>Node1&#45;&gt;Node3</title>
<g id="a_edge2_Node000001_Node000003"><a xlink:title=" ">
<path fill="none" stroke="#63b8ff" d="M173.6,-63C160.15,-63 146.18,-63 133.13,-63"/>
<polygon fill="#63b8ff" stroke="#63b8ff" points="173.77,-66.5 183.77,-63 173.77,-59.5 173.77,-66.5"/>
</a>
</g>
</g>
<!-- Node4 -->
<g id="Node000004" class="node">
<title>Node4</title>
<g id="a_Node000004"><a xlink:href="classTechniciansListView.html#a63e3fd6929aee69b5483b757d3b1474f" target="_top" xlink:title="Destructor.">
<polygon fill="white" stroke="#666666" points="138,-30 10,-30 10,0 138,0 138,-30"/>
<text text-anchor="start" x="18" y="-18" font-family="Helvetica,sans-Serif" font-size="10.00">TechniciansListView</text>
<text text-anchor="middle" x="74" y="-7" font-family="Helvetica,sans-Serif" font-size="10.00">::~TechniciansListView</text>
</a>
</g>
</g>
<!-- Node1&#45;&gt;Node4 -->
<g id="edge3_Node000001_Node000004" class="edge">
<title>Node1&#45;&gt;Node4</title>
<g id="a_edge3_Node000001_Node000004"><a xlink:title=" ">
<path fill="none" stroke="#63b8ff" d="M180.25,-45.07C162.89,-40.11 144.23,-34.78 127.51,-30"/>
<polygon fill="#63b8ff" stroke="#63b8ff" points="179.73,-48.56 190.3,-47.94 181.65,-41.83 179.73,-48.56"/>
</a>
</g>
</g>
</g>
</svg>
