<?xml version="1.0" encoding="UTF-8" standalone="no"?>
<!DOCTYPE svg PUBLIC "-//W3C//DTD SVG 1.1//EN"
 "http://www.w3.org/Graphics/SVG/1.1/DTD/svg11.dtd">
<!-- Generated by graphviz version 2.43.0 (0)
 -->
<!-- Title: InterventionPage::showEvent Pages: 1 -->
<svg width="501pt" height="134pt"
 viewBox="0.00 0.00 501.00 134.00" xmlns="http://www.w3.org/2000/svg" xmlns:xlink="http://www.w3.org/1999/xlink">
<g id="graph0" class="graph" transform="scale(1 1) rotate(0) translate(4 130)">
<title>InterventionPage::showEvent</title>
<!-- Node1 -->
<g id="Node000001" class="node">
<title>Node1</title>
<g id="a_Node000001"><a xlink:title="Handles the show event to trigger UI updates when the widget is shown.">
<polygon fill="#999999" stroke="#666666" points="158,-72.5 0,-72.5 0,-53.5 158,-53.5 158,-72.5"/>
<text text-anchor="middle" x="79" y="-60.5" font-family="Helvetica,sans-Serif" font-size="10.00">InterventionPage::showEvent</text>
</a>
</g>
</g>
<!-- Node2 -->
<g id="Node000002" class="node">
<title>Node2</title>
<g id="a_Node000002"><a xlink:href="classInterventionPage.html#a548ea550131dc31088b667d4d08b8f6e" target="_top" xlink:title="Updates UI visibility and behavior based on the user&#39;s role.">
<polygon fill="white" stroke="#666666" points="333,-78 194,-78 194,-48 333,-48 333,-78"/>
<text text-anchor="start" x="202" y="-66" font-family="Helvetica,sans-Serif" font-size="10.00">InterventionPage::update</text>
<text text-anchor="middle" x="263.5" y="-55" font-family="Helvetica,sans-Serif" font-size="10.00">_ui_for_current_role</text>
</a>
</g>
</g>
<!-- Node1&#45;&gt;Node2 -->
<g id="edge1_Node000001_Node000002" class="edge">
<title>Node1&#45;&gt;Node2</title>
<g id="a_edge1_Node000001_Node000002"><a xlink:title=" ">
<path fill="none" stroke="#63b8ff" d="M158.19,-63C166.65,-63 175.26,-63 183.73,-63"/>
<polygon fill="#63b8ff" stroke="#63b8ff" points="183.97,-66.5 193.97,-63 183.97,-59.5 183.97,-66.5"/>
</a>
</g>
</g>
<!-- Node3 -->
<g id="Node000003" class="node">
<title>Node3</title>
<g id="a_Node000003"><a xlink:href="classAuthenticationService.html#ad982cbb3ee4ae8471146c296f47ad30d" target="_top" xlink:title=" ">
<polygon fill="white" stroke="#666666" points="493,-126 369,-126 369,-96 493,-96 493,-126"/>
<text text-anchor="start" x="377" y="-114" font-family="Helvetica,sans-Serif" font-size="10.00">AuthenticationService</text>
<text text-anchor="middle" x="431" y="-103" font-family="Helvetica,sans-Serif" font-size="10.00">::has_role</text>
</a>
</g>
</g>
<!-- Node2&#45;&gt;Node3 -->
<g id="edge2_Node000002_Node000003" class="edge">
<title>Node2&#45;&gt;Node3</title>
<g id="a_edge2_Node000002_Node000003"><a xlink:title=" ">
<path fill="none" stroke="#63b8ff" d="M316.41,-78.06C332.89,-82.84 351.28,-88.17 368.38,-93.13"/>
<polygon fill="#63b8ff" stroke="#63b8ff" points="367.69,-96.57 378.27,-96 369.64,-89.85 367.69,-96.57"/>
</a>
</g>
</g>
<!-- Node4 -->
<g id="Node000004" class="node">
<title>Node4</title>
<g id="a_Node000004"><a xlink:href="classAuthenticationService.html#a2dc8be4689e371d7a773ac008b21cf3a" target="_top" xlink:title=" ">
<polygon fill="white" stroke="#666666" points="493,-78 369,-78 369,-48 493,-48 493,-78"/>
<text text-anchor="start" x="377" y="-66" font-family="Helvetica,sans-Serif" font-size="10.00">AuthenticationService</text>
<text text-anchor="middle" x="431" y="-55" font-family="Helvetica,sans-Serif" font-size="10.00">::instance</text>
</a>
</g>
</g>
<!-- Node2&#45;&gt;Node4 -->
<g id="edge3_Node000002_Node000004" class="edge">
<title>Node2&#45;&gt;Node4</title>
<g id="a_edge3_Node000002_Node000004"><a xlink:title=" ">
<path fill="none" stroke="#63b8ff" d="M333.25,-63C341.65,-63 350.24,-63 358.68,-63"/>
<polygon fill="#63b8ff" stroke="#63b8ff" points="358.86,-66.5 368.86,-63 358.86,-59.5 358.86,-66.5"/>
</a>
</g>
</g>
<!-- Node5 -->
<g id="Node000005" class="node">
<title>Node5</title>
<g id="a_Node000005"><a xlink:href="classInterventionEditPanel.html#aae70b6d931060e223a1b531811eecf90" target="_top" xlink:title="Provides access to the Save button.">
<polygon fill="white" stroke="#666666" points="491.5,-30 370.5,-30 370.5,0 491.5,0 491.5,-30"/>
<text text-anchor="start" x="378.5" y="-18" font-family="Helvetica,sans-Serif" font-size="10.00">InterventionEditPanel</text>
<text text-anchor="middle" x="431" y="-7" font-family="Helvetica,sans-Serif" font-size="10.00">::save_button</text>
</a>
</g>
</g>
<!-- Node2&#45;&gt;Node5 -->
<g id="edge4_Node000002_Node000005" class="edge">
<title>Node2&#45;&gt;Node5</title>
<g id="a_edge4_Node000002_Node000005"><a xlink:title=" ">
<path fill="none" stroke="#63b8ff" d="M316.41,-47.94C332.89,-43.16 351.28,-37.83 368.38,-32.87"/>
<polygon fill="#63b8ff" stroke="#63b8ff" points="369.64,-36.15 378.27,-30 367.69,-29.43 369.64,-36.15"/>
</a>
</g>
</g>
</g>
</svg>
