<?xml version="1.0" encoding="UTF-8" standalone="no"?>
<!DOCTYPE svg PUBLIC "-//W3C//DTD SVG 1.1//EN"
 "http://www.w3.org/Graphics/SVG/1.1/DTD/svg11.dtd">
<!-- Generated by graphviz version 2.43.0 (0)
 -->
<!-- Title: AuthenticationService::logout Pages: 1 -->
<svg width="623pt" height="76pt"
 viewBox="0.00 0.00 623.00 75.50" xmlns="http://www.w3.org/2000/svg" xmlns:xlink="http://www.w3.org/1999/xlink">
<g id="graph0" class="graph" transform="scale(1 1) rotate(0) translate(4 71.5)">
<title>AuthenticationService::logout</title>
<!-- Node1 -->
<g id="Node000001" class="node">
<title>Node1</title>
<g id="a_Node000001"><a xlink:title=" ">
<polygon fill="#999999" stroke="#666666" points="615,-45.5 491,-45.5 491,-15.5 615,-15.5 615,-45.5"/>
<text text-anchor="start" x="499" y="-33.5" font-family="Helvetica,sans-Serif" font-size="10.00">AuthenticationService</text>
<text text-anchor="middle" x="553" y="-22.5" font-family="Helvetica,sans-Serif" font-size="10.00">::logout</text>
</a>
</g>
</g>
<!-- Node2 -->
<g id="Node000002" class="node">
<title>Node2</title>
<g id="a_Node000002"><a xlink:href="classLoginPage.html#ad592b0f8f5de3de894e0b2cdbcc982f3" target="_top" xlink:title="Logs in as a guest (no credentials required).">
<polygon fill="white" stroke="#666666" points="455,-67.5 342,-67.5 342,-37.5 455,-37.5 455,-67.5"/>
<text text-anchor="start" x="350" y="-55.5" font-family="Helvetica,sans-Serif" font-size="10.00">LoginPage::login_as</text>
<text text-anchor="middle" x="398.5" y="-44.5" font-family="Helvetica,sans-Serif" font-size="10.00">_guest</text>
</a>
</g>
</g>
<!-- Node1&#45;&gt;Node2 -->
<g id="edge1_Node000001_Node000002" class="edge">
<title>Node1&#45;&gt;Node2</title>
<g id="a_edge1_Node000001_Node000002"><a xlink:title=" ">
<path fill="none" stroke="#63b8ff" d="M480.83,-40.77C472.24,-42.01 463.56,-43.26 455.23,-44.46"/>
<polygon fill="#63b8ff" stroke="#63b8ff" points="481.45,-44.21 490.85,-39.32 480.45,-37.29 481.45,-44.21"/>
</a>
</g>
</g>
<!-- Node5 -->
<g id="Node000005" class="node">
<title>Node5</title>
<g id="a_Node000005"><a xlink:href="classLoginPage.html#ae8fe253b5cce2c0285f66e29346c407b" target="_top" xlink:title="Logs out the current user.">
<polygon fill="white" stroke="#666666" points="450,-19 347,-19 347,0 450,0 450,-19"/>
<text text-anchor="middle" x="398.5" y="-7" font-family="Helvetica,sans-Serif" font-size="10.00">LoginPage::logout</text>
</a>
</g>
</g>
<!-- Node1&#45;&gt;Node5 -->
<g id="edge4_Node000001_Node000005" class="edge">
<title>Node1&#45;&gt;Node5</title>
<g id="a_edge4_Node000001_Node000005"><a xlink:title=" ">
<path fill="none" stroke="#63b8ff" d="M480.69,-20.68C470.46,-19.27 460.11,-17.85 450.38,-16.51"/>
<polygon fill="#63b8ff" stroke="#63b8ff" points="480.47,-24.18 490.85,-22.08 481.42,-17.25 480.47,-24.18"/>
</a>
</g>
</g>
<!-- Node3 -->
<g id="Node000003" class="node">
<title>Node3</title>
<g id="a_Node000003"><a xlink:href="classLoginPage.html#a7cd454f7668442d809030c3e5e6a66ea" target="_top" xlink:title="Connects UI elements to their respective slots.">
<polygon fill="white" stroke="#666666" points="306,-40 158,-40 158,-21 306,-21 306,-40"/>
<text text-anchor="middle" x="232" y="-28" font-family="Helvetica,sans-Serif" font-size="10.00">LoginPage::setup_connects</text>
</a>
</g>
</g>
<!-- Node2&#45;&gt;Node3 -->
<g id="edge2_Node000002_Node000003" class="edge">
<title>Node2&#45;&gt;Node3</title>
<g id="a_edge2_Node000002_Node000003"><a xlink:title=" ">
<path fill="none" stroke="#63b8ff" d="M331.7,-43.7C322.62,-42.49 313.26,-41.23 304.09,-40.01"/>
<polygon fill="#63b8ff" stroke="#63b8ff" points="331.43,-47.2 341.81,-45.05 332.36,-40.26 331.43,-47.2"/>
</a>
</g>
</g>
<!-- Node4 -->
<g id="Node000004" class="node">
<title>Node4</title>
<g id="a_Node000004"><a xlink:href="classLoginPage.html#ac80d4431cd7779e6ae5f8c3b17fe6c3f" target="_top" xlink:title="Constructs the login page UI.">
<polygon fill="white" stroke="#666666" points="122,-40 0,-40 0,-21 122,-21 122,-40"/>
<text text-anchor="middle" x="61" y="-28" font-family="Helvetica,sans-Serif" font-size="10.00">LoginPage::LoginPage</text>
</a>
</g>
</g>
<!-- Node3&#45;&gt;Node4 -->
<g id="edge3_Node000003_Node000004" class="edge">
<title>Node3&#45;&gt;Node4</title>
<g id="a_edge3_Node000003_Node000004"><a xlink:title=" ">
<path fill="none" stroke="#63b8ff" d="M147.72,-30.5C139.06,-30.5 130.38,-30.5 122.05,-30.5"/>
<polygon fill="#63b8ff" stroke="#63b8ff" points="147.86,-34 157.86,-30.5 147.86,-27 147.86,-34"/>
</a>
</g>
</g>
<!-- Node5&#45;&gt;Node3 -->
<g id="edge5_Node000005_Node000003" class="edge">
<title>Node5&#45;&gt;Node3</title>
<g id="a_edge5_Node000005_Node000003"><a xlink:title=" ">
<path fill="none" stroke="#63b8ff" d="M336.66,-17.27C326.74,-18.53 316.38,-19.86 306.21,-21.15"/>
<polygon fill="#63b8ff" stroke="#63b8ff" points="337.33,-20.71 346.8,-15.97 336.44,-13.77 337.33,-20.71"/>
</a>
</g>
</g>
</g>
</svg>
