<?xml version="1.0" encoding="UTF-8" standalone="no"?>
<!DOCTYPE svg PUBLIC "-//W3C//DTD SVG 1.1//EN"
 "http://www.w3.org/Graphics/SVG/1.1/DTD/svg11.dtd">
<!-- Generated by graphviz version 2.43.0 (0)
 -->
<!-- Title: CreateInterventionDialog::update_ok_state Pages: 1 -->
<svg width="506pt" height="59pt"
 viewBox="0.00 0.00 506.00 59.00" xmlns="http://www.w3.org/2000/svg" xmlns:xlink="http://www.w3.org/1999/xlink">
<g id="graph0" class="graph" transform="scale(1 1) rotate(0) translate(4 55)">
<title>CreateInterventionDialog::update_ok_state</title>
<!-- Node1 -->
<g id="Node000001" class="node">
<title>Node1</title>
<g id="a_Node000001"><a xlink:title="Enables or disables the OK button based on form validity.">
<polygon fill="#999999" stroke="#666666" points="498,-51 358,-51 358,-21 498,-21 498,-51"/>
<text text-anchor="start" x="366" y="-39" font-family="Helvetica,sans-Serif" font-size="10.00">CreateInterventionDialog</text>
<text text-anchor="middle" x="428" y="-28" font-family="Helvetica,sans-Serif" font-size="10.00">::update_ok_state</text>
</a>
</g>
</g>
<!-- Node2 -->
<g id="Node000002" class="node">
<title>Node2</title>
<g id="a_Node000002"><a xlink:href="classCreateInterventionDialog.html#a90408e026b2b8ba7a0da0179623c3e37" target="_top" xlink:title="Constructs the dialog.">
<polygon fill="white" stroke="#666666" points="146,-51 0,-51 0,-21 146,-21 146,-51"/>
<text text-anchor="start" x="8" y="-39" font-family="Helvetica,sans-Serif" font-size="10.00">CreateInterventionDialog</text>
<text text-anchor="middle" x="73" y="-28" font-family="Helvetica,sans-Serif" font-size="10.00">::CreateInterventionDialog</text>
</a>
</g>
</g>
<!-- Node1&#45;&gt;Node2 -->
<g id="edge1_Node000001_Node000002" class="edge">
<title>Node1&#45;&gt;Node2</title>
<g id="a_edge1_Node000001_Node000002"><a xlink:title=" ">
<path fill="none" stroke="#63b8ff" d="M347.68,-38.51C339.01,-38.71 330.32,-38.88 322,-39 259.78,-39.89 244.22,-39.86 182,-39 170.37,-38.84 158.04,-38.58 146.03,-38.28"/>
<polygon fill="#63b8ff" stroke="#63b8ff" points="347.91,-42 357.82,-38.26 347.73,-35 347.91,-42"/>
</a>
</g>
</g>
<!-- Node3 -->
<g id="Node000003" class="node">
<title>Node3</title>
<g id="a_Node000003"><a xlink:href="classCreateInterventionDialog.html#a69bfd0a27dbcfc3c758f0df0382fd4ec" target="_top" xlink:title="Connects UI components to their corresponding signals and slots.">
<polygon fill="white" stroke="#666666" points="322,-30 182,-30 182,0 322,0 322,-30"/>
<text text-anchor="start" x="190" y="-18" font-family="Helvetica,sans-Serif" font-size="10.00">CreateInterventionDialog</text>
<text text-anchor="middle" x="252" y="-7" font-family="Helvetica,sans-Serif" font-size="10.00">::setup_connects</text>
</a>
</g>
</g>
<!-- Node1&#45;&gt;Node3 -->
<g id="edge2_Node000001_Node000003" class="edge">
<title>Node1&#45;&gt;Node3</title>
<g id="a_edge2_Node000001_Node000003"><a xlink:title=" ">
<path fill="none" stroke="#63b8ff" d="M347.97,-26.46C339.38,-25.42 330.68,-24.38 322.22,-23.35"/>
<polygon fill="#63b8ff" stroke="#63b8ff" points="347.63,-29.95 357.98,-27.67 348.47,-23 347.63,-29.95"/>
</a>
</g>
</g>
<!-- Node3&#45;&gt;Node2 -->
<g id="edge3_Node000003_Node000002" class="edge">
<title>Node3&#45;&gt;Node2</title>
<g id="a_edge3_Node000003_Node000002"><a xlink:title=" ">
<path fill="none" stroke="#63b8ff" d="M171.81,-24.39C163.24,-25.41 154.55,-26.44 146.06,-27.45"/>
<polygon fill="#63b8ff" stroke="#63b8ff" points="172.29,-27.86 181.81,-23.21 171.46,-20.91 172.29,-27.86"/>
</a>
</g>
</g>
</g>
</svg>
