<?xml version="1.0" encoding="UTF-8" standalone="no"?>
<!DOCTYPE svg PUBLIC "-//W3C//DTD SVG 1.1//EN"
 "http://www.w3.org/Graphics/SVG/1.1/DTD/svg11.dtd">
<!-- Generated by graphviz version 2.43.0 (0)
 -->
<!-- Title: TechniciansPage::TechniciansPage Pages: 1 -->
<svg width="529pt" height="278pt"
 viewBox="0.00 0.00 529.00 278.00" xmlns="http://www.w3.org/2000/svg" xmlns:xlink="http://www.w3.org/1999/xlink">
<g id="graph0" class="graph" transform="scale(1 1) rotate(0) translate(4 274)">
<title>TechniciansPage::TechniciansPage</title>
<!-- Node1 -->
<g id="Node000001" class="node">
<title>Node1</title>
<g id="a_Node000001"><a xlink:title="Constructs the TechniciansPage.">
<polygon fill="#999999" stroke="#666666" points="182,-192.5 0,-192.5 0,-173.5 182,-173.5 182,-192.5"/>
<text text-anchor="middle" x="91" y="-180.5" font-family="Helvetica,sans-Serif" font-size="10.00">TechniciansPage::TechniciansPage</text>
</a>
</g>
</g>
<!-- Node2 -->
<g id="Node000002" class="node">
<title>Node2</title>
<g id="a_Node000002"><a xlink:href="classTechniciansPage.html#a2672a03b37f8c4f32707e8888d733f39" target="_top" xlink:title="Connects UI signals and slots for interaction logic.">
<polygon fill="white" stroke="#666666" points="354,-241 225,-241 225,-211 354,-211 354,-241"/>
<text text-anchor="start" x="233" y="-229" font-family="Helvetica,sans-Serif" font-size="10.00">TechniciansPage::setup</text>
<text text-anchor="middle" x="289.5" y="-218" font-family="Helvetica,sans-Serif" font-size="10.00">_connects</text>
</a>
</g>
</g>
<!-- Node1&#45;&gt;Node2 -->
<g id="edge1_Node000001_Node000002" class="edge">
<title>Node1&#45;&gt;Node2</title>
<g id="a_edge1_Node000001_Node000002"><a xlink:title=" ">
<path fill="none" stroke="#63b8ff" d="M135.61,-192.54C158.87,-197.63 188.12,-204.03 214.79,-209.87"/>
<polygon fill="#63b8ff" stroke="#63b8ff" points="214.35,-213.36 224.87,-212.08 215.85,-206.52 214.35,-213.36"/>
</a>
</g>
</g>
<!-- Node3 -->
<g id="Node000003" class="node">
<title>Node3</title>
<g id="a_Node000003"><a xlink:href="classTechniciansPage.html#ae411af32b5edf92ca920cb5ffbe949e6" target="_top" xlink:title="Sets up the layout and UI widgets.">
<polygon fill="white" stroke="#666666" points="361,-192.5 218,-192.5 218,-173.5 361,-173.5 361,-192.5"/>
<text text-anchor="middle" x="289.5" y="-180.5" font-family="Helvetica,sans-Serif" font-size="10.00">TechniciansPage::setup_ui</text>
</a>
</g>
</g>
<!-- Node1&#45;&gt;Node3 -->
<g id="edge2_Node000001_Node000003" class="edge">
<title>Node1&#45;&gt;Node3</title>
<g id="a_edge2_Node000001_Node000003"><a xlink:title=" ">
<path fill="none" stroke="#63b8ff" d="M182.2,-183C190.73,-183 199.35,-183 207.79,-183"/>
<polygon fill="#63b8ff" stroke="#63b8ff" points="207.98,-186.5 217.98,-183 207.98,-179.5 207.98,-186.5"/>
</a>
</g>
</g>
<!-- Node7 -->
<g id="Node000007" class="node">
<title>Node7</title>
<g id="a_Node000007"><a xlink:href="classTechniciansPage.html#a4fd8ac138a0cd95efb21ddd049703220" target="_top" xlink:title="Updates the UI elements based on the currently logged&#45;in user&#39;s role.">
<polygon fill="white" stroke="#666666" points="357.5,-102 221.5,-102 221.5,-72 357.5,-72 357.5,-102"/>
<text text-anchor="start" x="229.5" y="-90" font-family="Helvetica,sans-Serif" font-size="10.00">TechniciansPage::update</text>
<text text-anchor="middle" x="289.5" y="-79" font-family="Helvetica,sans-Serif" font-size="10.00">_ui_for_current_role</text>
</a>
</g>
</g>
<!-- Node1&#45;&gt;Node7 -->
<g id="edge6_Node000001_Node000007" class="edge">
<title>Node1&#45;&gt;Node7</title>
<g id="a_edge6_Node000001_Node000007"><a xlink:title=" ">
<path fill="none" stroke="#63b8ff" d="M111.56,-173.44C143.33,-157.92 206.77,-126.93 248.42,-106.58"/>
<polygon fill="#63b8ff" stroke="#63b8ff" points="250.02,-109.69 257.47,-102.16 246.95,-103.4 250.02,-109.69"/>
</a>
</g>
</g>
<!-- Node4 -->
<g id="Node000004" class="node">
<title>Node4</title>
<g id="a_Node000004"><a xlink:href="classEntityEditorLayout.html#aec5a1399c28c99ba38f6ab384c1e5cbb" target="_top" xlink:title="Returns a pointer to the action button.">
<polygon fill="white" stroke="#666666" points="512.5,-270 405.5,-270 405.5,-240 512.5,-240 512.5,-270"/>
<text text-anchor="start" x="413.5" y="-258" font-family="Helvetica,sans-Serif" font-size="10.00">EntityEditorLayout</text>
<text text-anchor="middle" x="459" y="-247" font-family="Helvetica,sans-Serif" font-size="10.00">::action_button</text>
</a>
</g>
</g>
<!-- Node3&#45;&gt;Node4 -->
<g id="edge3_Node000003_Node000004" class="edge">
<title>Node3&#45;&gt;Node4</title>
<g id="a_edge3_Node000003_Node000004"><a xlink:title=" ">
<path fill="none" stroke="#63b8ff" d="M337.04,-192.59C345.25,-195.11 353.54,-198.21 361,-202 379.31,-211.32 379.24,-220.68 397,-231 399.8,-232.63 402.74,-234.19 405.74,-235.69"/>
<polygon fill="#63b8ff" stroke="#63b8ff" points="404.35,-238.9 414.89,-239.95 407.31,-232.55 404.35,-238.9"/>
</a>
</g>
</g>
<!-- Node5 -->
<g id="Node000005" class="node">
<title>Node5</title>
<g id="a_Node000005"><a xlink:href="classEntityEditorLayout.html#a05c07f7c50a056831200d32048918549" target="_top" xlink:title="Sets the widget that will appear on the left side of the main content area.">
<polygon fill="white" stroke="#666666" points="512.5,-222 405.5,-222 405.5,-192 512.5,-192 512.5,-222"/>
<text text-anchor="start" x="413.5" y="-210" font-family="Helvetica,sans-Serif" font-size="10.00">EntityEditorLayout</text>
<text text-anchor="middle" x="459" y="-199" font-family="Helvetica,sans-Serif" font-size="10.00">::set_left_widget</text>
</a>
</g>
</g>
<!-- Node3&#45;&gt;Node5 -->
<g id="edge4_Node000003_Node000005" class="edge">
<title>Node3&#45;&gt;Node5</title>
<g id="a_edge4_Node000003_Node000005"><a xlink:title=" ">
<path fill="none" stroke="#63b8ff" d="M357.18,-192.55C369.73,-194.35 382.8,-196.23 395.22,-198.01"/>
<polygon fill="#63b8ff" stroke="#63b8ff" points="395.08,-201.52 405.48,-199.47 396.07,-194.59 395.08,-201.52"/>
</a>
</g>
</g>
<!-- Node6 -->
<g id="Node000006" class="node">
<title>Node6</title>
<g id="a_Node000006"><a xlink:href="classEntityEditorLayout.html#ac65c199970eb9919a60381bd7f1f9d49" target="_top" xlink:title="Sets the widget that will appear on the right side of the main content area.">
<polygon fill="white" stroke="#666666" points="512.5,-174 405.5,-174 405.5,-144 512.5,-144 512.5,-174"/>
<text text-anchor="start" x="413.5" y="-162" font-family="Helvetica,sans-Serif" font-size="10.00">EntityEditorLayout</text>
<text text-anchor="middle" x="459" y="-151" font-family="Helvetica,sans-Serif" font-size="10.00">::set_right_widget</text>
</a>
</g>
</g>
<!-- Node3&#45;&gt;Node6 -->
<g id="edge5_Node000003_Node000006" class="edge">
<title>Node3&#45;&gt;Node6</title>
<g id="a_edge5_Node000003_Node000006"><a xlink:title=" ">
<path fill="none" stroke="#63b8ff" d="M357.18,-173.45C369.73,-171.65 382.8,-169.77 395.22,-167.99"/>
<polygon fill="#63b8ff" stroke="#63b8ff" points="396.07,-171.41 405.48,-166.53 395.08,-164.48 396.07,-171.41"/>
</a>
</g>
</g>
<!-- Node8 -->
<g id="Node000008" class="node">
<title>Node8</title>
<g id="a_Node000008"><a xlink:href="classAuthenticationService.html#ad982cbb3ee4ae8471146c296f47ad30d" target="_top" xlink:title=" ">
<polygon fill="white" stroke="#666666" points="521,-126 397,-126 397,-96 521,-96 521,-126"/>
<text text-anchor="start" x="405" y="-114" font-family="Helvetica,sans-Serif" font-size="10.00">AuthenticationService</text>
<text text-anchor="middle" x="459" y="-103" font-family="Helvetica,sans-Serif" font-size="10.00">::has_role</text>
</a>
</g>
</g>
<!-- Node7&#45;&gt;Node8 -->
<g id="edge7_Node000007_Node000008" class="edge">
<title>Node7&#45;&gt;Node8</title>
<g id="a_edge7_Node000007_Node000008"><a xlink:title=" ">
<path fill="none" stroke="#63b8ff" d="M357.66,-96.62C367.26,-98 377.15,-99.42 386.82,-100.8"/>
<polygon fill="#63b8ff" stroke="#63b8ff" points="386.39,-104.27 396.78,-102.23 387.38,-97.35 386.39,-104.27"/>
</a>
</g>
</g>
<!-- Node9 -->
<g id="Node000009" class="node">
<title>Node9</title>
<g id="a_Node000009"><a xlink:href="classAuthenticationService.html#a2dc8be4689e371d7a773ac008b21cf3a" target="_top" xlink:title=" ">
<polygon fill="white" stroke="#666666" points="521,-78 397,-78 397,-48 521,-48 521,-78"/>
<text text-anchor="start" x="405" y="-66" font-family="Helvetica,sans-Serif" font-size="10.00">AuthenticationService</text>
<text text-anchor="middle" x="459" y="-55" font-family="Helvetica,sans-Serif" font-size="10.00">::instance</text>
</a>
</g>
</g>
<!-- Node7&#45;&gt;Node9 -->
<g id="edge8_Node000007_Node000009" class="edge">
<title>Node7&#45;&gt;Node9</title>
<g id="a_edge8_Node000007_Node000009"><a xlink:title=" ">
<path fill="none" stroke="#63b8ff" d="M357.66,-77.38C367.26,-76 377.15,-74.58 386.82,-73.2"/>
<polygon fill="#63b8ff" stroke="#63b8ff" points="387.38,-76.65 396.78,-71.77 386.39,-69.73 387.38,-76.65"/>
</a>
</g>
</g>
<!-- Node10 -->
<g id="Node000010" class="node">
<title>Node10</title>
<g id="a_Node000010"><a xlink:href="classTechnicianEditPanel.html#a359eb4b209c240601b303bc21d2409f1" target="_top" xlink:title="Provides access to the save button.">
<polygon fill="white" stroke="#666666" points="515.5,-30 402.5,-30 402.5,0 515.5,0 515.5,-30"/>
<text text-anchor="start" x="410.5" y="-18" font-family="Helvetica,sans-Serif" font-size="10.00">TechnicianEditPanel</text>
<text text-anchor="middle" x="459" y="-7" font-family="Helvetica,sans-Serif" font-size="10.00">::save_button</text>
</a>
</g>
</g>
<!-- Node7&#45;&gt;Node10 -->
<g id="edge9_Node000007_Node000010" class="edge">
<title>Node7&#45;&gt;Node10</title>
<g id="a_edge9_Node000007_Node000010"><a xlink:title=" ">
<path fill="none" stroke="#63b8ff" d="M322.95,-71.88C343.95,-62.22 371.96,-49.56 397,-39 401.06,-37.29 405.29,-35.54 409.54,-33.82"/>
<polygon fill="#63b8ff" stroke="#63b8ff" points="410.86,-37.06 418.84,-30.08 408.25,-30.56 410.86,-37.06"/>
</a>
</g>
</g>
</g>
</svg>
