<?xml version="1.0" encoding="UTF-8" standalone="no"?>
<!DOCTYPE svg PUBLIC "-//W3C//DTD SVG 1.1//EN"
 "http://www.w3.org/Graphics/SVG/1.1/DTD/svg11.dtd">
<!-- Generated by graphviz version 2.43.0 (0)
 -->
<!-- Title: InterventionRepository::instance Pages: 1 -->
<svg width="650pt" height="450pt"
 viewBox="0.00 0.00 650.00 450.00" xmlns="http://www.w3.org/2000/svg" xmlns:xlink="http://www.w3.org/1999/xlink">
<g id="graph0" class="graph" transform="scale(1 1) rotate(0) translate(4 446)">
<title>InterventionRepository::instance</title>
<!-- Node1 -->
<g id="Node000001" class="node">
<title>Node1</title>
<g id="a_Node000001"><a xlink:title="Returns the singleton instance of the repository.">
<polygon fill="#999999" stroke="#666666" points="642,-228 514,-228 514,-198 642,-198 642,-228"/>
<text text-anchor="start" x="522" y="-216" font-family="Helvetica,sans-Serif" font-size="10.00">InterventionRepository</text>
<text text-anchor="middle" x="578" y="-205" font-family="Helvetica,sans-Serif" font-size="10.00">::instance</text>
</a>
</g>
</g>
<!-- Node2 -->
<g id="Node000002" class="node">
<title>Node2</title>
<g id="a_Node000002"><a xlink:href="classInterventionRepositoryProxy.html#aaf94c1abb4a931bfe9996f7c17bfe40e" target="_top" xlink:title="Clears all interventions from the repository.">
<polygon fill="white" stroke="#666666" points="478,-442 322,-442 322,-412 478,-412 478,-442"/>
<text text-anchor="start" x="330" y="-430" font-family="Helvetica,sans-Serif" font-size="10.00">InterventionRepositoryProxy</text>
<text text-anchor="middle" x="400" y="-419" font-family="Helvetica,sans-Serif" font-size="10.00">::clear</text>
</a>
</g>
</g>
<!-- Node1&#45;&gt;Node2 -->
<g id="edge1_Node000001_Node000002" class="edge">
<title>Node1&#45;&gt;Node2</title>
<g id="a_edge1_Node000001_Node000002"><a xlink:title=" ">
<path fill="none" stroke="#63b8ff" d="M570.73,-237.97C559.26,-278.53 531.05,-358.65 478,-403 473.92,-406.41 469.35,-409.34 464.53,-411.85"/>
<polygon fill="#63b8ff" stroke="#63b8ff" points="574.16,-238.66 573.41,-228.1 567.41,-236.83 574.16,-238.66"/>
</a>
</g>
</g>
<!-- Node3 -->
<g id="Node000003" class="node">
<title>Node3</title>
<g id="a_Node000003"><a xlink:href="classInterventionRepositoryProxy.html#a446bb5e711693f54cb2daa65202121e4" target="_top" xlink:title="Finds an intervention by its ID.">
<polygon fill="white" stroke="#666666" points="478,-394 322,-394 322,-364 478,-364 478,-394"/>
<text text-anchor="start" x="330" y="-382" font-family="Helvetica,sans-Serif" font-size="10.00">InterventionRepositoryProxy</text>
<text text-anchor="middle" x="400" y="-371" font-family="Helvetica,sans-Serif" font-size="10.00">::find_by_id</text>
</a>
</g>
</g>
<!-- Node1&#45;&gt;Node3 -->
<g id="edge2_Node000001_Node000003" class="edge">
<title>Node1&#45;&gt;Node3</title>
<g id="a_edge2_Node000001_Node000003"><a xlink:title=" ">
<path fill="none" stroke="#63b8ff" d="M566.06,-237.78C550.82,-269.51 520.23,-324.08 478,-355 473.37,-358.39 468.24,-361.31 462.91,-363.83"/>
<polygon fill="#63b8ff" stroke="#63b8ff" points="569.41,-238.88 570.47,-228.34 563.07,-235.92 569.41,-238.88"/>
</a>
</g>
</g>
<!-- Node4 -->
<g id="Node000004" class="node">
<title>Node4</title>
<g id="a_Node000004"><a xlink:href="classInterventionRepositoryProxy.html#ad422bf26adae37ae6637b52413659a41" target="_top" xlink:title="Retrieves all interventions from the repository.">
<polygon fill="white" stroke="#666666" points="478,-346 322,-346 322,-316 478,-316 478,-346"/>
<text text-anchor="start" x="330" y="-334" font-family="Helvetica,sans-Serif" font-size="10.00">InterventionRepositoryProxy</text>
<text text-anchor="middle" x="400" y="-323" font-family="Helvetica,sans-Serif" font-size="10.00">::get_all</text>
</a>
</g>
</g>
<!-- Node1&#45;&gt;Node4 -->
<g id="edge3_Node000001_Node000004" class="edge">
<title>Node1&#45;&gt;Node4</title>
<g id="a_edge3_Node000001_Node000004"><a xlink:title=" ">
<path fill="none" stroke="#63b8ff" d="M558.17,-236.15C539.77,-257.37 509.94,-288.25 478,-307 472.2,-310.4 465.87,-313.37 459.41,-315.95"/>
<polygon fill="#63b8ff" stroke="#63b8ff" points="561.06,-238.15 564.87,-228.26 555.73,-233.62 561.06,-238.15"/>
</a>
</g>
</g>
<!-- Node5 -->
<g id="Node000005" class="node">
<title>Node5</title>
<g id="a_Node000005"><a xlink:href="classInterventionRepositoryProxy.html#a9abf79cfa8d94b22f4a518cf121faf2a" target="_top" xlink:title="Returns the next available ID for a new intervention.">
<polygon fill="white" stroke="#666666" points="478,-298 322,-298 322,-268 478,-268 478,-298"/>
<text text-anchor="start" x="330" y="-286" font-family="Helvetica,sans-Serif" font-size="10.00">InterventionRepositoryProxy</text>
<text text-anchor="middle" x="400" y="-275" font-family="Helvetica,sans-Serif" font-size="10.00">::next_id</text>
</a>
</g>
</g>
<!-- Node1&#45;&gt;Node5 -->
<g id="edge4_Node000001_Node000005" class="edge">
<title>Node1&#45;&gt;Node5</title>
<g id="a_edge4_Node000001_Node000005"><a xlink:title=" ">
<path fill="none" stroke="#63b8ff" d="M538.07,-232.55C520.03,-241.22 498.17,-251.21 478,-259 469.9,-262.13 461.21,-265.15 452.69,-267.93"/>
<polygon fill="#63b8ff" stroke="#63b8ff" points="539.65,-235.67 547.12,-228.15 536.6,-229.37 539.65,-235.67"/>
</a>
</g>
</g>
<!-- Node6 -->
<g id="Node000006" class="node">
<title>Node6</title>
<g id="a_Node000006"><a xlink:href="classInterventionsListView.html#a09c3eb5ea0586743b19fead7d7705b5e" target="_top" xlink:title="Slot called when the intervention repository is updated.">
<polygon fill="white" stroke="#666666" points="467,-250 333,-250 333,-220 467,-220 467,-250"/>
<text text-anchor="start" x="341" y="-238" font-family="Helvetica,sans-Serif" font-size="10.00">InterventionsListView</text>
<text text-anchor="middle" x="400" y="-227" font-family="Helvetica,sans-Serif" font-size="10.00">::on_repository_updated</text>
</a>
</g>
</g>
<!-- Node1&#45;&gt;Node6 -->
<g id="edge5_Node000001_Node000006" class="edge">
<title>Node1&#45;&gt;Node6</title>
<g id="a_edge5_Node000001_Node000006"><a xlink:title=" ">
<path fill="none" stroke="#63b8ff" d="M503.85,-222.14C491.69,-223.66 479.14,-225.23 467.17,-226.73"/>
<polygon fill="#63b8ff" stroke="#63b8ff" points="504.47,-225.59 513.96,-220.88 503.6,-218.65 504.47,-225.59"/>
</a>
</g>
</g>
<!-- Node7 -->
<g id="Node000007" class="node">
<title>Node7</title>
<g id="a_Node000007"><a xlink:href="classInterventionsListView.html#a1ff1310c5ed4a038e39dd6e71dfc1915" target="_top" xlink:title="Initializes the list view UI components.">
<polygon fill="white" stroke="#666666" points="286,-207 164,-207 164,-177 286,-177 286,-207"/>
<text text-anchor="start" x="172" y="-195" font-family="Helvetica,sans-Serif" font-size="10.00">InterventionsListView</text>
<text text-anchor="middle" x="225" y="-184" font-family="Helvetica,sans-Serif" font-size="10.00">::setup_ui</text>
</a>
</g>
</g>
<!-- Node1&#45;&gt;Node7 -->
<g id="edge11_Node000001_Node000007" class="edge">
<title>Node1&#45;&gt;Node7</title>
<g id="a_edge11_Node000001_Node000007"><a xlink:title=" ">
<path fill="none" stroke="#63b8ff" d="M503.73,-208.62C439.17,-204.75 346.26,-199.2 286.01,-195.59"/>
<polygon fill="#63b8ff" stroke="#63b8ff" points="503.65,-212.12 513.84,-209.22 504.07,-205.13 503.65,-212.12"/>
</a>
</g>
</g>
<!-- Node9 -->
<g id="Node000009" class="node">
<title>Node9</title>
<g id="a_Node000009"><a xlink:href="classInterventionRepositoryProxy.html#a67c7a6bccdeb7138f6891682f1d62bfc" target="_top" xlink:title="Saves an intervention to the repository.">
<polygon fill="white" stroke="#666666" points="478,-164 322,-164 322,-134 478,-134 478,-164"/>
<text text-anchor="start" x="330" y="-152" font-family="Helvetica,sans-Serif" font-size="10.00">InterventionRepositoryProxy</text>
<text text-anchor="middle" x="400" y="-141" font-family="Helvetica,sans-Serif" font-size="10.00">::save</text>
</a>
</g>
</g>
<!-- Node1&#45;&gt;Node9 -->
<g id="edge8_Node000001_Node000009" class="edge">
<title>Node1&#45;&gt;Node9</title>
<g id="a_edge8_Node000001_Node000009"><a xlink:title=" ">
<path fill="none" stroke="#63b8ff" d="M526.2,-194.53C499.58,-184.85 467.38,-173.14 442.31,-164.02"/>
<polygon fill="#63b8ff" stroke="#63b8ff" points="525.14,-197.87 535.74,-197.99 527.53,-191.29 525.14,-197.87"/>
</a>
</g>
</g>
<!-- Node10 -->
<g id="Node000010" class="node">
<title>Node10</title>
<g id="a_Node000010"><a xlink:href="classInterventionsListView.html#a0291ef167cfece9054208fbc93d0bb9f" target="_top" xlink:title="Connects internal signals and slots for user interaction.">
<polygon fill="white" stroke="#666666" points="286,-140 164,-140 164,-110 286,-110 286,-140"/>
<text text-anchor="start" x="172" y="-128" font-family="Helvetica,sans-Serif" font-size="10.00">InterventionsListView</text>
<text text-anchor="middle" x="225" y="-117" font-family="Helvetica,sans-Serif" font-size="10.00">::setup_connects</text>
</a>
</g>
</g>
<!-- Node1&#45;&gt;Node10 -->
<g id="edge9_Node000001_Node000010" class="edge">
<title>Node1&#45;&gt;Node10</title>
<g id="a_edge9_Node000001_Node000010"><a xlink:title=" ">
<path fill="none" stroke="#63b8ff" d="M559.52,-189.87C541.72,-168.42 511.97,-137.91 478,-125 415.84,-101.37 338.66,-105.8 286.2,-113.3"/>
<polygon fill="#63b8ff" stroke="#63b8ff" points="556.97,-192.28 565.96,-197.88 562.42,-187.89 556.97,-192.28"/>
</a>
</g>
</g>
<!-- Node11 -->
<g id="Node000011" class="node">
<title>Node11</title>
<g id="a_Node000011"><a xlink:href="classInterventionRepositoryProxy.html#a33c55d791cb43537090b8009c1f5a86a" target="_top" xlink:title="Subscribes a QObject to receive update notifications.">
<polygon fill="white" stroke="#666666" points="478,-78 322,-78 322,-48 478,-48 478,-78"/>
<text text-anchor="start" x="330" y="-66" font-family="Helvetica,sans-Serif" font-size="10.00">InterventionRepositoryProxy</text>
<text text-anchor="middle" x="400" y="-55" font-family="Helvetica,sans-Serif" font-size="10.00">::subscribe</text>
</a>
</g>
</g>
<!-- Node1&#45;&gt;Node11 -->
<g id="edge12_Node000001_Node000011" class="edge">
<title>Node1&#45;&gt;Node11</title>
<g id="a_edge12_Node000001_Node000011"><a xlink:title=" ">
<path fill="none" stroke="#63b8ff" d="M562.86,-189.01C545.83,-162.02 514.88,-118.48 478,-92 470.34,-86.5 461.51,-81.91 452.63,-78.13"/>
<polygon fill="#63b8ff" stroke="#63b8ff" points="560.06,-191.14 568.29,-197.82 566.02,-187.47 560.06,-191.14"/>
</a>
</g>
</g>
<!-- Node12 -->
<g id="Node000012" class="node">
<title>Node12</title>
<g id="a_Node000012"><a xlink:href="classInterventionRepositoryProxy.html#a5d9c6d08ac68c94038fe334a3463c684" target="_top" xlink:title="Unsubscribes a QObject from receiving update notifications.">
<polygon fill="white" stroke="#666666" points="478,-30 322,-30 322,0 478,0 478,-30"/>
<text text-anchor="start" x="330" y="-18" font-family="Helvetica,sans-Serif" font-size="10.00">InterventionRepositoryProxy</text>
<text text-anchor="middle" x="400" y="-7" font-family="Helvetica,sans-Serif" font-size="10.00">::unsubscribe</text>
</a>
</g>
</g>
<!-- Node1&#45;&gt;Node12 -->
<g id="edge13_Node000001_Node000012" class="edge">
<title>Node1&#45;&gt;Node12</title>
<g id="a_edge13_Node000001_Node000012"><a xlink:title=" ">
<path fill="none" stroke="#63b8ff" d="M569.49,-188.24C556.78,-150.51 527.49,-78.84 478,-39 473.75,-35.58 469,-32.64 464.01,-30.12"/>
<polygon fill="#63b8ff" stroke="#63b8ff" points="566.21,-189.49 572.63,-197.92 572.87,-187.33 566.21,-189.49"/>
</a>
</g>
</g>
<!-- Node6&#45;&gt;Node7 -->
<g id="edge6_Node000006_Node000007" class="edge">
<title>Node6&#45;&gt;Node7</title>
<g id="a_edge6_Node000006_Node000007"><a xlink:title=" ">
<path fill="none" stroke="#63b8ff" d="M328.41,-217.46C314.4,-213.97 299.81,-210.35 286.18,-206.96"/>
<polygon fill="#63b8ff" stroke="#63b8ff" points="327.94,-220.95 338.49,-219.96 329.63,-214.15 327.94,-220.95"/>
</a>
</g>
</g>
<!-- Node8 -->
<g id="Node000008" class="node">
<title>Node8</title>
<g id="a_Node000008"><a xlink:href="classInterventionsListView.html#a1e18e26a39a91aaa4ba252033b3d5d57" target="_top" xlink:title="Constructs the list view and initializes its UI.">
<polygon fill="white" stroke="#666666" points="128,-183 0,-183 0,-153 128,-153 128,-183"/>
<text text-anchor="start" x="8" y="-171" font-family="Helvetica,sans-Serif" font-size="10.00">InterventionsListView</text>
<text text-anchor="middle" x="64" y="-160" font-family="Helvetica,sans-Serif" font-size="10.00">::InterventionsListView</text>
</a>
</g>
</g>
<!-- Node7&#45;&gt;Node8 -->
<g id="edge7_Node000007_Node000008" class="edge">
<title>Node7&#45;&gt;Node8</title>
<g id="a_edge7_Node000007_Node000008"><a xlink:title=" ">
<path fill="none" stroke="#63b8ff" d="M153.9,-181.42C145.32,-180.12 136.58,-178.81 128.11,-177.53"/>
<polygon fill="#63b8ff" stroke="#63b8ff" points="153.48,-184.89 163.89,-182.93 154.52,-177.97 153.48,-184.89"/>
</a>
</g>
</g>
<!-- Node10&#45;&gt;Node8 -->
<g id="edge10_Node000010_Node000008" class="edge">
<title>Node10&#45;&gt;Node8</title>
<g id="a_edge10_Node000010_Node000008"><a xlink:title=" ">
<path fill="none" stroke="#63b8ff" d="M158.43,-142.73C145.86,-146.13 132.8,-149.66 120.58,-152.97"/>
<polygon fill="#63b8ff" stroke="#63b8ff" points="159.65,-146.03 168.39,-140.04 157.82,-139.27 159.65,-146.03"/>
</a>
</g>
</g>
</g>
</svg>
