<?xml version="1.0" encoding="UTF-8" standalone="no"?>
<!DOCTYPE svg PUBLIC "-//W3C//DTD SVG 1.1//EN"
 "http://www.w3.org/Graphics/SVG/1.1/DTD/svg11.dtd">
<!-- Generated by graphviz version 2.43.0 (0)
 -->
<!-- Title: InterventionsListView::InterventionsListView Pages: 1 -->
<svg width="628pt" height="268pt"
 viewBox="0.00 0.00 628.00 268.00" xmlns="http://www.w3.org/2000/svg" xmlns:xlink="http://www.w3.org/1999/xlink">
<g id="graph0" class="graph" transform="scale(1 1) rotate(0) translate(4 264)">
<title>InterventionsListView::InterventionsListView</title>
<!-- Node1 -->
<g id="Node000001" class="node">
<title>Node1</title>
<g id="a_Node000001"><a xlink:title="Constructs the list view and initializes its UI.">
<polygon fill="#999999" stroke="#666666" points="128,-163 0,-163 0,-133 128,-133 128,-163"/>
<text text-anchor="start" x="8" y="-151" font-family="Helvetica,sans-Serif" font-size="10.00">InterventionsListView</text>
<text text-anchor="middle" x="64" y="-140" font-family="Helvetica,sans-Serif" font-size="10.00">::InterventionsListView</text>
</a>
</g>
</g>
<!-- Node2 -->
<g id="Node000002" class="node">
<title>Node2</title>
<g id="a_Node000002"><a xlink:href="classInterventionsListView.html#a0291ef167cfece9054208fbc93d0bb9f" target="_top" xlink:title="Connects internal signals and slots for user interaction.">
<polygon fill="white" stroke="#666666" points="450,-209 328,-209 328,-179 450,-179 450,-209"/>
<text text-anchor="start" x="336" y="-197" font-family="Helvetica,sans-Serif" font-size="10.00">InterventionsListView</text>
<text text-anchor="middle" x="389" y="-186" font-family="Helvetica,sans-Serif" font-size="10.00">::setup_connects</text>
</a>
</g>
</g>
<!-- Node1&#45;&gt;Node2 -->
<g id="edge1_Node000001_Node000002" class="edge">
<title>Node1&#45;&gt;Node2</title>
<g id="a_edge1_Node000001_Node000002"><a xlink:title=" ">
<path fill="none" stroke="#63b8ff" d="M128.04,-156.98C182.6,-164.75 261.39,-175.97 317.92,-184.02"/>
<polygon fill="#63b8ff" stroke="#63b8ff" points="317.45,-187.49 327.85,-185.43 318.44,-180.56 317.45,-187.49"/>
</a>
</g>
</g>
<!-- Node6 -->
<g id="Node000006" class="node">
<title>Node6</title>
<g id="a_Node000006"><a xlink:href="classInterventionsListView.html#a1ff1310c5ed4a038e39dd6e71dfc1915" target="_top" xlink:title="Initializes the list view UI components.">
<polygon fill="white" stroke="#666666" points="286,-142 164,-142 164,-112 286,-112 286,-142"/>
<text text-anchor="start" x="172" y="-130" font-family="Helvetica,sans-Serif" font-size="10.00">InterventionsListView</text>
<text text-anchor="middle" x="225" y="-119" font-family="Helvetica,sans-Serif" font-size="10.00">::setup_ui</text>
</a>
</g>
</g>
<!-- Node1&#45;&gt;Node6 -->
<g id="edge5_Node000001_Node000006" class="edge">
<title>Node1&#45;&gt;Node6</title>
<g id="a_edge5_Node000001_Node000006"><a xlink:title=" ">
<path fill="none" stroke="#63b8ff" d="M128.3,-139.64C136.61,-138.54 145.17,-137.41 153.59,-136.3"/>
<polygon fill="#63b8ff" stroke="#63b8ff" points="154.31,-139.73 163.77,-134.96 153.39,-132.8 154.31,-139.73"/>
</a>
</g>
</g>
<!-- Node3 -->
<g id="Node000003" class="node">
<title>Node3</title>
<g id="a_Node000003"><a xlink:href="classInterventionRepository.html#a251502ad34f1e6636918d97e398b3d4b" target="_top" xlink:title="Retrieves all interventions stored in the repository.">
<polygon fill="white" stroke="#666666" points="620,-212 492,-212 492,-182 620,-182 620,-212"/>
<text text-anchor="start" x="500" y="-200" font-family="Helvetica,sans-Serif" font-size="10.00">InterventionRepository</text>
<text text-anchor="middle" x="556" y="-189" font-family="Helvetica,sans-Serif" font-size="10.00">::get_all</text>
</a>
</g>
</g>
<!-- Node2&#45;&gt;Node3 -->
<g id="edge2_Node000002_Node000003" class="edge">
<title>Node2&#45;&gt;Node3</title>
<g id="a_edge2_Node000002_Node000003"><a xlink:title=" ">
<path fill="none" stroke="#63b8ff" d="M450.04,-195.09C460.37,-195.28 471.21,-195.48 481.85,-195.67"/>
<polygon fill="#63b8ff" stroke="#63b8ff" points="481.89,-199.17 491.95,-195.85 482.02,-192.17 481.89,-199.17"/>
</a>
</g>
</g>
<!-- Node4 -->
<g id="Node000004" class="node">
<title>Node4</title>
<g id="a_Node000004"><a xlink:href="classInterventionRepository.html#a2e562f9d059314c9cb2fb8cc0d19008b" target="_top" xlink:title="Returns the singleton instance of the repository.">
<polygon fill="white" stroke="#666666" points="620,-164 492,-164 492,-134 620,-134 620,-164"/>
<text text-anchor="start" x="500" y="-152" font-family="Helvetica,sans-Serif" font-size="10.00">InterventionRepository</text>
<text text-anchor="middle" x="556" y="-141" font-family="Helvetica,sans-Serif" font-size="10.00">::instance</text>
</a>
</g>
</g>
<!-- Node2&#45;&gt;Node4 -->
<g id="edge3_Node000002_Node000004" class="edge">
<title>Node2&#45;&gt;Node4</title>
<g id="a_edge3_Node000002_Node000004"><a xlink:title=" ">
<path fill="none" stroke="#63b8ff" d="M445.4,-178.89C459.63,-175.01 475.06,-170.8 489.73,-166.8"/>
<polygon fill="#63b8ff" stroke="#63b8ff" points="491.02,-170.08 499.74,-164.07 489.18,-163.32 491.02,-170.08"/>
</a>
</g>
</g>
<!-- Node5 -->
<g id="Node000005" class="node">
<title>Node5</title>
<g id="a_Node000005"><a xlink:href="classInterventionsListView.html#a1f1c4ca1c4c8be522cb37b1d3c388f7d" target="_top" xlink:title="Emitted when a user selects an intervention from the list.">
<polygon fill="white" stroke="#666666" points="620,-260 492,-260 492,-230 620,-230 620,-260"/>
<text text-anchor="start" x="500" y="-248" font-family="Helvetica,sans-Serif" font-size="10.00">InterventionsListView</text>
<text text-anchor="middle" x="556" y="-237" font-family="Helvetica,sans-Serif" font-size="10.00">::intervention_selected</text>
</a>
</g>
</g>
<!-- Node2&#45;&gt;Node5 -->
<g id="edge4_Node000002_Node000005" class="edge">
<title>Node2&#45;&gt;Node5</title>
<g id="a_edge4_Node000002_Node000005"><a xlink:title=" ">
<path fill="none" stroke="#63b8ff" d="M438.61,-209.03C456.83,-214.66 477.71,-221.11 496.71,-226.98"/>
<polygon fill="#63b8ff" stroke="#63b8ff" points="495.86,-230.38 506.45,-229.99 497.93,-223.7 495.86,-230.38"/>
</a>
</g>
</g>
<!-- Node6&#45;&gt;Node4 -->
<g id="edge6_Node000006_Node000004" class="edge">
<title>Node6&#45;&gt;Node4</title>
<g id="a_edge6_Node000006_Node000004"><a xlink:title=" ">
<path fill="none" stroke="#63b8ff" d="M286.34,-131.04C341.38,-134.72 422.84,-140.16 481.63,-144.09"/>
<polygon fill="#63b8ff" stroke="#63b8ff" points="481.75,-147.61 491.96,-144.78 482.21,-140.62 481.75,-147.61"/>
</a>
</g>
</g>
<!-- Node7 -->
<g id="Node000007" class="node">
<title>Node7</title>
<g id="a_Node000007"><a xlink:href="classInterventionsListView.html#a09c3eb5ea0586743b19fead7d7705b5e" target="_top" xlink:title="Slot called when the intervention repository is updated.">
<polygon fill="white" stroke="#666666" points="456,-121 322,-121 322,-91 456,-91 456,-121"/>
<text text-anchor="start" x="330" y="-109" font-family="Helvetica,sans-Serif" font-size="10.00">InterventionsListView</text>
<text text-anchor="middle" x="389" y="-98" font-family="Helvetica,sans-Serif" font-size="10.00">::on_repository_updated</text>
</a>
</g>
</g>
<!-- Node6&#45;&gt;Node7 -->
<g id="edge7_Node000006_Node000007" class="edge">
<title>Node6&#45;&gt;Node7</title>
<g id="a_edge7_Node000006_Node000007"><a xlink:title=" ">
<path fill="none" stroke="#63b8ff" d="M286.32,-119.18C294.66,-118.1 303.32,-116.98 311.9,-115.86"/>
<polygon fill="#63b8ff" stroke="#63b8ff" points="312.45,-119.32 321.91,-114.57 311.55,-112.38 312.45,-119.32"/>
</a>
</g>
</g>
<!-- Node11 -->
<g id="Node000011" class="node">
<title>Node11</title>
<g id="a_Node000011"><a xlink:href="classInterventionRepository.html#afb56a1a72a8d710be1a16589da2bd0b7" target="_top" xlink:title="Subscribes a QObject to be notified of changes.">
<polygon fill="white" stroke="#666666" points="453,-73 325,-73 325,-43 453,-43 453,-73"/>
<text text-anchor="start" x="333" y="-61" font-family="Helvetica,sans-Serif" font-size="10.00">InterventionRepository</text>
<text text-anchor="middle" x="389" y="-50" font-family="Helvetica,sans-Serif" font-size="10.00">::subscribe</text>
</a>
</g>
</g>
<!-- Node6&#45;&gt;Node11 -->
<g id="edge13_Node000006_Node000011" class="edge">
<title>Node6&#45;&gt;Node11</title>
<g id="a_edge13_Node000006_Node000011"><a xlink:title=" ">
<path fill="none" stroke="#63b8ff" d="M256.38,-111.9C275.11,-102.81 299.73,-91.25 322,-82 326.35,-80.2 330.88,-78.39 335.45,-76.62"/>
<polygon fill="#63b8ff" stroke="#63b8ff" points="336.72,-79.89 344.83,-73.07 334.24,-73.34 336.72,-79.89"/>
</a>
</g>
</g>
<!-- Node7&#45;&gt;Node3 -->
<g id="edge8_Node000007_Node000003" class="edge">
<title>Node7&#45;&gt;Node3</title>
<g id="a_edge8_Node000007_Node000003"><a xlink:title=" ">
<path fill="none" stroke="#63b8ff" d="M410.29,-121.24C430.33,-135.81 462.19,-157.76 492,-173 495.32,-174.7 498.79,-176.35 502.33,-177.93"/>
<polygon fill="#63b8ff" stroke="#63b8ff" points="501.18,-181.25 511.76,-181.96 503.94,-174.81 501.18,-181.25"/>
</a>
</g>
</g>
<!-- Node7&#45;&gt;Node4 -->
<g id="edge10_Node000007_Node000004" class="edge">
<title>Node7&#45;&gt;Node4</title>
<g id="a_edge10_Node000007_Node000004"><a xlink:title=" ">
<path fill="none" stroke="#63b8ff" d="M447.71,-121.04C460.52,-124.38 474.21,-127.95 487.38,-131.38"/>
<polygon fill="#63b8ff" stroke="#63b8ff" points="486.76,-134.83 497.32,-133.97 488.53,-128.06 486.76,-134.83"/>
</a>
</g>
</g>
<!-- Node8 -->
<g id="Node000008" class="node">
<title>Node8</title>
<g id="a_Node000008"><a xlink:href="classTechnicianRepository.html#abf3ba8f356e622790a4445b34046ac02" target="_top" xlink:title="Retrieves all technicians in the repository.">
<polygon fill="white" stroke="#666666" points="616,-30 496,-30 496,0 616,0 616,-30"/>
<text text-anchor="start" x="504" y="-18" font-family="Helvetica,sans-Serif" font-size="10.00">TechnicianRepository</text>
<text text-anchor="middle" x="556" y="-7" font-family="Helvetica,sans-Serif" font-size="10.00">::get_all</text>
</a>
</g>
</g>
<!-- Node7&#45;&gt;Node8 -->
<g id="edge9_Node000007_Node000008" class="edge">
<title>Node7&#45;&gt;Node8</title>
<g id="a_edge9_Node000007_Node000008"><a xlink:title=" ">
<path fill="none" stroke="#63b8ff" d="M440.42,-90.87C445.89,-88.3 451.21,-85.36 456,-82 476.41,-67.7 471.7,-53.46 492,-39 494.09,-37.51 496.27,-36.11 498.53,-34.78"/>
<polygon fill="#63b8ff" stroke="#63b8ff" points="500.33,-37.79 507.53,-30.02 497.05,-31.6 500.33,-37.79"/>
</a>
</g>
</g>
<!-- Node9 -->
<g id="Node000009" class="node">
<title>Node9</title>
<g id="a_Node000009"><a xlink:href="classTechnicianRepository.html#a7195867c4915f8aa3ff92b28615b1248" target="_top" xlink:title="Returns the singleton instance of the repository.">
<polygon fill="white" stroke="#666666" points="616,-116 496,-116 496,-86 616,-86 616,-116"/>
<text text-anchor="start" x="504" y="-104" font-family="Helvetica,sans-Serif" font-size="10.00">TechnicianRepository</text>
<text text-anchor="middle" x="556" y="-93" font-family="Helvetica,sans-Serif" font-size="10.00">::instance</text>
</a>
</g>
</g>
<!-- Node7&#45;&gt;Node9 -->
<g id="edge11_Node000007_Node000009" class="edge">
<title>Node7&#45;&gt;Node9</title>
<g id="a_edge11_Node000007_Node000009"><a xlink:title=" ">
<path fill="none" stroke="#63b8ff" d="M456.16,-104C465.88,-103.7 475.91,-103.4 485.68,-103.1"/>
<polygon fill="#63b8ff" stroke="#63b8ff" points="485.87,-106.6 495.76,-102.8 485.65,-99.6 485.87,-106.6"/>
</a>
</g>
</g>
<!-- Node10 -->
<g id="Node000010" class="node">
<title>Node10</title>
<g id="a_Node000010"><a xlink:href="ExpertiseField_8h.html#a56a9a6b462a1d330a25154be696d66d5" target="_top" xlink:title="Converts an ExpertiseField enum value to a human&#45;readable string.">
<polygon fill="white" stroke="#666666" points="585.5,-67.5 526.5,-67.5 526.5,-48.5 585.5,-48.5 585.5,-67.5"/>
<text text-anchor="middle" x="556" y="-55.5" font-family="Helvetica,sans-Serif" font-size="10.00">to_string</text>
</a>
</g>
</g>
<!-- Node7&#45;&gt;Node10 -->
<g id="edge12_Node000007_Node000010" class="edge">
<title>Node7&#45;&gt;Node10</title>
<g id="a_edge12_Node000007_Node000010"><a xlink:title=" ">
<path fill="none" stroke="#63b8ff" d="M441.75,-90.94C466.01,-83.89 494.41,-75.63 516.7,-69.14"/>
<polygon fill="#63b8ff" stroke="#63b8ff" points="517.85,-72.45 526.48,-66.3 515.9,-65.73 517.85,-72.45"/>
</a>
</g>
</g>
</g>
</svg>
