<?xml version="1.0" encoding="UTF-8" standalone="no"?>
<!DOCTYPE svg PUBLIC "-//W3C//DTD SVG 1.1//EN"
 "http://www.w3.org/Graphics/SVG/1.1/DTD/svg11.dtd">
<!-- Generated by graphviz version 2.43.0 (0)
 -->
<!-- Title: TechniciansListView::on_repository_updated Pages: 1 -->
<svg width="448pt" height="38pt"
 viewBox="0.00 0.00 448.00 38.00" xmlns="http://www.w3.org/2000/svg" xmlns:xlink="http://www.w3.org/1999/xlink">
<g id="graph0" class="graph" transform="scale(1 1) rotate(0) translate(4 34)">
<title>TechniciansListView::on_repository_updated</title>
<!-- Node1 -->
<g id="Node000001" class="node">
<title>Node1</title>
<g id="a_Node000001"><a xlink:title="Called when the technician repository is updated.">
<polygon fill="#999999" stroke="#666666" points="440,-30 306,-30 306,0 440,0 440,-30"/>
<text text-anchor="start" x="314" y="-18" font-family="Helvetica,sans-Serif" font-size="10.00">TechniciansListView</text>
<text text-anchor="middle" x="373" y="-7" font-family="Helvetica,sans-Serif" font-size="10.00">::on_repository_updated</text>
</a>
</g>
</g>
<!-- Node2 -->
<g id="Node000002" class="node">
<title>Node2</title>
<g id="a_Node000002"><a xlink:href="classTechniciansListView.html#a136af4c67741eda51583f044e243e8ca" target="_top" xlink:title="Initializes UI properties and internal models.">
<polygon fill="white" stroke="#666666" points="270,-30 156,-30 156,0 270,0 270,-30"/>
<text text-anchor="start" x="164" y="-18" font-family="Helvetica,sans-Serif" font-size="10.00">TechniciansListView</text>
<text text-anchor="middle" x="213" y="-7" font-family="Helvetica,sans-Serif" font-size="10.00">::setup_ui</text>
</a>
</g>
</g>
<!-- Node1&#45;&gt;Node2 -->
<g id="edge1_Node000001_Node000002" class="edge">
<title>Node1&#45;&gt;Node2</title>
<g id="a_edge1_Node000001_Node000002"><a xlink:title=" ">
<path fill="none" stroke="#63b8ff" d="M295.85,-15C287.24,-15 278.59,-15 270.3,-15"/>
<polygon fill="#63b8ff" stroke="#63b8ff" points="295.91,-18.5 305.91,-15 295.91,-11.5 295.91,-18.5"/>
</a>
</g>
</g>
<!-- Node3 -->
<g id="Node000003" class="node">
<title>Node3</title>
<g id="a_Node000003"><a xlink:href="classTechniciansListView.html#aa36fbe3e6761faada5f00ab73d8a84c4" target="_top" xlink:title="Constructs the list view and initializes its UI and behavior.">
<polygon fill="white" stroke="#666666" points="120,-30 0,-30 0,0 120,0 120,-30"/>
<text text-anchor="start" x="8" y="-18" font-family="Helvetica,sans-Serif" font-size="10.00">TechniciansListView</text>
<text text-anchor="middle" x="60" y="-7" font-family="Helvetica,sans-Serif" font-size="10.00">::TechniciansListView</text>
</a>
</g>
</g>
<!-- Node2&#45;&gt;Node3 -->
<g id="edge2_Node000002_Node000003" class="edge">
<title>Node2&#45;&gt;Node3</title>
<g id="a_edge2_Node000002_Node000003"><a xlink:title=" ">
<path fill="none" stroke="#63b8ff" d="M145.53,-15C137.05,-15 128.41,-15 120.05,-15"/>
<polygon fill="#63b8ff" stroke="#63b8ff" points="145.77,-18.5 155.77,-15 145.77,-11.5 145.77,-18.5"/>
</a>
</g>
</g>
</g>
</svg>
