<?xml version="1.0" encoding="UTF-8" standalone="no"?>
<!DOCTYPE svg PUBLIC "-//W3C//DTD SVG 1.1//EN"
 "http://www.w3.org/Graphics/SVG/1.1/DTD/svg11.dtd">
<!-- Generated by graphviz version 2.43.0 (0)
 -->
<!-- Title: TechniciansPage::showEvent Pages: 1 -->
<svg width="495pt" height="134pt"
 viewBox="0.00 0.00 495.00 134.00" xmlns="http://www.w3.org/2000/svg" xmlns:xlink="http://www.w3.org/1999/xlink">
<g id="graph0" class="graph" transform="scale(1 1) rotate(0) translate(4 130)">
<title>TechniciansPage::showEvent</title>
<!-- Node1 -->
<g id="Node000001" class="node">
<title>Node1</title>
<g id="a_Node000001"><a xlink:title="Overridden show event to update UI state when the widget is shown.">
<polygon fill="#999999" stroke="#666666" points="155,-72.5 0,-72.5 0,-53.5 155,-53.5 155,-72.5"/>
<text text-anchor="middle" x="77.5" y="-60.5" font-family="Helvetica,sans-Serif" font-size="10.00">TechniciansPage::showEvent</text>
</a>
</g>
</g>
<!-- Node2 -->
<g id="Node000002" class="node">
<title>Node2</title>
<g id="a_Node000002"><a xlink:href="classTechniciansPage.html#a4fd8ac138a0cd95efb21ddd049703220" target="_top" xlink:title="Updates the UI elements based on the currently logged&#45;in user&#39;s role.">
<polygon fill="white" stroke="#666666" points="327,-78 191,-78 191,-48 327,-48 327,-78"/>
<text text-anchor="start" x="199" y="-66" font-family="Helvetica,sans-Serif" font-size="10.00">TechniciansPage::update</text>
<text text-anchor="middle" x="259" y="-55" font-family="Helvetica,sans-Serif" font-size="10.00">_ui_for_current_role</text>
</a>
</g>
</g>
<!-- Node1&#45;&gt;Node2 -->
<g id="edge1_Node000001_Node000002" class="edge">
<title>Node1&#45;&gt;Node2</title>
<g id="a_edge1_Node000001_Node000002"><a xlink:title=" ">
<path fill="none" stroke="#63b8ff" d="M155.14,-63C163.61,-63 172.24,-63 180.72,-63"/>
<polygon fill="#63b8ff" stroke="#63b8ff" points="180.96,-66.5 190.96,-63 180.96,-59.5 180.96,-66.5"/>
</a>
</g>
</g>
<!-- Node3 -->
<g id="Node000003" class="node">
<title>Node3</title>
<g id="a_Node000003"><a xlink:href="classAuthenticationService.html#ad982cbb3ee4ae8471146c296f47ad30d" target="_top" xlink:title=" ">
<polygon fill="white" stroke="#666666" points="487,-126 363,-126 363,-96 487,-96 487,-126"/>
<text text-anchor="start" x="371" y="-114" font-family="Helvetica,sans-Serif" font-size="10.00">AuthenticationService</text>
<text text-anchor="middle" x="425" y="-103" font-family="Helvetica,sans-Serif" font-size="10.00">::has_role</text>
</a>
</g>
</g>
<!-- Node2&#45;&gt;Node3 -->
<g id="edge2_Node000002_Node000003" class="edge">
<title>Node2&#45;&gt;Node3</title>
<g id="a_edge2_Node000002_Node000003"><a xlink:title=" ">
<path fill="none" stroke="#63b8ff" d="M311.44,-78.06C327.77,-82.84 345.99,-88.17 362.94,-93.13"/>
<polygon fill="#63b8ff" stroke="#63b8ff" points="362.16,-96.55 372.74,-96 364.13,-89.83 362.16,-96.55"/>
</a>
</g>
</g>
<!-- Node4 -->
<g id="Node000004" class="node">
<title>Node4</title>
<g id="a_Node000004"><a xlink:href="classAuthenticationService.html#a2dc8be4689e371d7a773ac008b21cf3a" target="_top" xlink:title=" ">
<polygon fill="white" stroke="#666666" points="487,-78 363,-78 363,-48 487,-48 487,-78"/>
<text text-anchor="start" x="371" y="-66" font-family="Helvetica,sans-Serif" font-size="10.00">AuthenticationService</text>
<text text-anchor="middle" x="425" y="-55" font-family="Helvetica,sans-Serif" font-size="10.00">::instance</text>
</a>
</g>
</g>
<!-- Node2&#45;&gt;Node4 -->
<g id="edge3_Node000002_Node000004" class="edge">
<title>Node2&#45;&gt;Node4</title>
<g id="a_edge3_Node000002_Node000004"><a xlink:title=" ">
<path fill="none" stroke="#63b8ff" d="M327.18,-63C335.61,-63 344.25,-63 352.74,-63"/>
<polygon fill="#63b8ff" stroke="#63b8ff" points="352.99,-66.5 362.99,-63 352.99,-59.5 352.99,-66.5"/>
</a>
</g>
</g>
<!-- Node5 -->
<g id="Node000005" class="node">
<title>Node5</title>
<g id="a_Node000005"><a xlink:href="classTechnicianEditPanel.html#a359eb4b209c240601b303bc21d2409f1" target="_top" xlink:title="Provides access to the save button.">
<polygon fill="white" stroke="#666666" points="481.5,-30 368.5,-30 368.5,0 481.5,0 481.5,-30"/>
<text text-anchor="start" x="376.5" y="-18" font-family="Helvetica,sans-Serif" font-size="10.00">TechnicianEditPanel</text>
<text text-anchor="middle" x="425" y="-7" font-family="Helvetica,sans-Serif" font-size="10.00">::save_button</text>
</a>
</g>
</g>
<!-- Node2&#45;&gt;Node5 -->
<g id="edge4_Node000002_Node000005" class="edge">
<title>Node2&#45;&gt;Node5</title>
<g id="a_edge4_Node000002_Node000005"><a xlink:title=" ">
<path fill="none" stroke="#63b8ff" d="M311.44,-47.94C327.77,-43.16 345.99,-37.83 362.94,-32.87"/>
<polygon fill="#63b8ff" stroke="#63b8ff" points="364.13,-36.17 372.74,-30 362.16,-29.45 364.13,-36.17"/>
</a>
</g>
</g>
</g>
</svg>
