<?xml version="1.0" encoding="UTF-8" standalone="no"?>
<!DOCTYPE svg PUBLIC "-//W3C//DTD SVG 1.1//EN"
 "http://www.w3.org/Graphics/SVG/1.1/DTD/svg11.dtd">
<!-- Generated by graphviz version 2.43.0 (0)
 -->
<!-- Title: ConcreteIntervention Pages: 1 -->
<svg width="208pt" height="225pt"
 viewBox="0.00 0.00 208.00 225.00" xmlns="http://www.w3.org/2000/svg" xmlns:xlink="http://www.w3.org/1999/xlink">
<g id="graph0" class="graph" transform="scale(1 1) rotate(0) translate(4 221)">
<title>ConcreteIntervention</title>
<!-- Node1 -->
<g id="Node000001" class="node">
<title>Node1</title>
<g id="a_Node000001"><a xlink:title="Concrete implementation of the AIntervention interface.">
<polygon fill="#999999" stroke="#666666" points="136,-19 17,-19 17,0 136,0 136,-19"/>
<text text-anchor="middle" x="76.5" y="-7" font-family="Helvetica,sans-Serif" font-size="10.00">ConcreteIntervention</text>
</a>
</g>
</g>
<!-- Node2 -->
<g id="Node000002" class="node">
<title>Node2</title>
<g id="a_Node000002"><a xlink:href="classAIntervention.html" target="_top" xlink:title="Abstract base class representing a generic intervention.">
<polygon fill="white" stroke="#666666" points="83,-85 0,-85 0,-66 83,-66 83,-85"/>
<text text-anchor="middle" x="41.5" y="-73" font-family="Helvetica,sans-Serif" font-size="10.00">AIntervention</text>
</a>
</g>
</g>
<!-- Node2&#45;&gt;Node1 -->
<g id="edge1_Node000001_Node000002" class="edge">
<title>Node2&#45;&gt;Node1</title>
<g id="a_edge1_Node000001_Node000002"><a xlink:title=" ">
<path fill="none" stroke="#63b8ff" d="M51.04,-57.05C57.71,-44.86 66.33,-29.11 71.63,-19.41"/>
<polygon fill="#63b8ff" stroke="#63b8ff" points="47.95,-55.42 46.22,-65.87 54.09,-58.77 47.95,-55.42"/>
</a>
</g>
</g>
<!-- Node3 -->
<g id="Node000003" class="node">
<title>Node3</title>
<g id="a_Node000003"><a xlink:href="structInterventionData.html" target="_top" xlink:title="Data structure containing all relevant details of an intervention.">
<polygon fill="white" stroke="#666666" points="200,-85 101,-85 101,-66 200,-66 200,-85"/>
<text text-anchor="middle" x="150.5" y="-73" font-family="Helvetica,sans-Serif" font-size="10.00">InterventionData</text>
</a>
</g>
</g>
<!-- Node3&#45;&gt;Node1 -->
<g id="edge2_Node000001_Node000003" class="edge">
<title>Node3&#45;&gt;Node1</title>
<g id="a_edge2_Node000001_Node000003"><a xlink:title=" ">
<path fill="none" stroke="#9a32cd" stroke-dasharray="5,2" d="M132.79,-59.18C118.42,-46.76 98.68,-29.68 86.8,-19.41"/>
<polygon fill="#9a32cd" stroke="#9a32cd" points="130.67,-61.97 140.52,-65.87 135.25,-56.68 130.67,-61.97"/>
</a>
</g>
<text text-anchor="middle" x="137.5" y="-40" font-family="Helvetica,sans-Serif" font-size="10.00" fill="grey"> m_data</text>
</g>
<!-- Node4 -->
<g id="Node000004" class="node">
<title>Node4</title>
<g id="a_Node000004"><a xlink:href="structLocation.html" target="_top" xlink:title="Represents a physical location with an address and GPS coordinates.">
<polygon fill="white" stroke="#666666" points="179.5,-151 121.5,-151 121.5,-132 179.5,-132 179.5,-151"/>
<text text-anchor="middle" x="150.5" y="-139" font-family="Helvetica,sans-Serif" font-size="10.00">Location</text>
</a>
</g>
</g>
<!-- Node4&#45;&gt;Node3 -->
<g id="edge3_Node000003_Node000004" class="edge">
<title>Node4&#45;&gt;Node3</title>
<g id="a_edge3_Node000003_Node000004"><a xlink:title=" ">
<path fill="none" stroke="#9a32cd" stroke-dasharray="5,2" d="M150.5,-121.58C150.5,-109.63 150.5,-94.72 150.5,-85.41"/>
<polygon fill="#9a32cd" stroke="#9a32cd" points="147,-121.87 150.5,-131.87 154,-121.87 147,-121.87"/>
</a>
</g>
<text text-anchor="middle" x="172" y="-106" font-family="Helvetica,sans-Serif" font-size="10.00" fill="grey"> location</text>
</g>
<!-- Node5 -->
<g id="Node000005" class="node">
<title>Node5</title>
<g id="a_Node000005"><a xlink:href="structGPSCoords.html" target="_top" xlink:title="Represents geographical coordinates with latitude and longitude.">
<polygon fill="white" stroke="#666666" points="185.5,-217 115.5,-217 115.5,-198 185.5,-198 185.5,-217"/>
<text text-anchor="middle" x="150.5" y="-205" font-family="Helvetica,sans-Serif" font-size="10.00">GPSCoords</text>
</a>
</g>
</g>
<!-- Node5&#45;&gt;Node4 -->
<g id="edge4_Node000004_Node000005" class="edge">
<title>Node5&#45;&gt;Node4</title>
<g id="a_edge4_Node000004_Node000005"><a xlink:title=" ">
<path fill="none" stroke="#9a32cd" stroke-dasharray="5,2" d="M150.5,-187.58C150.5,-175.63 150.5,-160.72 150.5,-151.41"/>
<polygon fill="#9a32cd" stroke="#9a32cd" points="147,-187.87 150.5,-197.87 154,-187.87 147,-187.87"/>
</a>
</g>
<text text-anchor="middle" x="168.5" y="-172" font-family="Helvetica,sans-Serif" font-size="10.00" fill="grey"> coords</text>
</g>
</g>
</svg>
