<?xml version="1.0" encoding="UTF-8" standalone="no"?>
<!DOCTYPE svg PUBLIC "-//W3C//DTD SVG 1.1//EN"
 "http://www.w3.org/Graphics/SVG/1.1/DTD/svg11.dtd">
<!-- Generated by graphviz version 2.43.0 (0)
 -->
<!-- Title: TechnicianRepositoryProxy::next_id Pages: 1 -->
<svg width="312pt" height="86pt"
 viewBox="0.00 0.00 312.00 86.00" xmlns="http://www.w3.org/2000/svg" xmlns:xlink="http://www.w3.org/1999/xlink">
<g id="graph0" class="graph" transform="scale(1 1) rotate(0) translate(4 82)">
<title>TechnicianRepositoryProxy::next_id</title>
<!-- Node1 -->
<g id="Node000001" class="node">
<title>Node1</title>
<g id="a_Node000001"><a xlink:title="Gets the next available technician ID.">
<polygon fill="#999999" stroke="#666666" points="148,-54 0,-54 0,-24 148,-24 148,-54"/>
<text text-anchor="start" x="8" y="-42" font-family="Helvetica,sans-Serif" font-size="10.00">TechnicianRepositoryProxy</text>
<text text-anchor="middle" x="74" y="-31" font-family="Helvetica,sans-Serif" font-size="10.00">::next_id</text>
</a>
</g>
</g>
<!-- Node2 -->
<g id="Node000002" class="node">
<title>Node2</title>
<g id="a_Node000002"><a xlink:href="classTechnicianRepository.html#a7195867c4915f8aa3ff92b28615b1248" target="_top" xlink:title="Returns the singleton instance of the repository.">
<polygon fill="white" stroke="#666666" points="304,-78 184,-78 184,-48 304,-48 304,-78"/>
<text text-anchor="start" x="192" y="-66" font-family="Helvetica,sans-Serif" font-size="10.00">TechnicianRepository</text>
<text text-anchor="middle" x="244" y="-55" font-family="Helvetica,sans-Serif" font-size="10.00">::instance</text>
</a>
</g>
</g>
<!-- Node1&#45;&gt;Node2 -->
<g id="edge1_Node000001_Node000002" class="edge">
<title>Node1&#45;&gt;Node2</title>
<g id="a_edge1_Node000001_Node000002"><a xlink:title=" ">
<path fill="none" stroke="#63b8ff" d="M148.2,-49.46C156.69,-50.67 165.32,-51.9 173.75,-53.11"/>
<polygon fill="#63b8ff" stroke="#63b8ff" points="173.52,-56.61 183.91,-54.56 174.51,-49.68 173.52,-56.61"/>
</a>
</g>
</g>
<!-- Node3 -->
<g id="Node000003" class="node">
<title>Node3</title>
<g id="a_Node000003"><a xlink:href="classTechnicianRepository.html#a507c7d262d3b427b4e845a0f758c1afb" target="_top" xlink:title="Generates the next available unique technician ID.">
<polygon fill="white" stroke="#666666" points="304,-30 184,-30 184,0 304,0 304,-30"/>
<text text-anchor="start" x="192" y="-18" font-family="Helvetica,sans-Serif" font-size="10.00">TechnicianRepository</text>
<text text-anchor="middle" x="244" y="-7" font-family="Helvetica,sans-Serif" font-size="10.00">::next_id</text>
</a>
</g>
</g>
<!-- Node1&#45;&gt;Node3 -->
<g id="edge2_Node000001_Node000003" class="edge">
<title>Node1&#45;&gt;Node3</title>
<g id="a_edge2_Node000001_Node000003"><a xlink:title=" ">
<path fill="none" stroke="#63b8ff" d="M148.2,-28.54C156.69,-27.33 165.32,-26.1 173.75,-24.89"/>
<polygon fill="#63b8ff" stroke="#63b8ff" points="174.51,-28.32 183.91,-23.44 173.52,-21.39 174.51,-28.32"/>
</a>
</g>
</g>
</g>
</svg>
