<?xml version="1.0" encoding="UTF-8" standalone="no"?>
<!DOCTYPE svg PUBLIC "-//W3C//DTD SVG 1.1//EN"
 "http://www.w3.org/Graphics/SVG/1.1/DTD/svg11.dtd">
<!-- Generated by graphviz version 2.43.0 (0)
 -->
<!-- Title: TechListController::update_technicians Pages: 1 -->
<svg width="421pt" height="86pt"
 viewBox="0.00 0.00 421.00 86.00" xmlns="http://www.w3.org/2000/svg" xmlns:xlink="http://www.w3.org/1999/xlink">
<g id="graph0" class="graph" transform="scale(1 1) rotate(0) translate(4 82)">
<title>TechListController::update_technicians</title>
<!-- Node1 -->
<g id="Node000001" class="node">
<title>Node1</title>
<g id="a_Node000001"><a xlink:title="Updates the technician list based on current combo box selections.">
<polygon fill="#999999" stroke="#666666" points="117,-54 0,-54 0,-24 117,-24 117,-54"/>
<text text-anchor="start" x="8" y="-42" font-family="Helvetica,sans-Serif" font-size="10.00">TechListController</text>
<text text-anchor="middle" x="58.5" y="-31" font-family="Helvetica,sans-Serif" font-size="10.00">::update_technicians</text>
</a>
</g>
</g>
<!-- Node2 -->
<g id="Node000002" class="node">
<title>Node2</title>
<g id="a_Node000002"><a xlink:href="classTechListController.html#a63c60cd01624769a28bcf64986688b70" target="_top" xlink:title="Rebuilds the technician list in the UI.">
<polygon fill="white" stroke="#666666" points="257,-54 153,-54 153,-24 257,-24 257,-54"/>
<text text-anchor="start" x="161" y="-42" font-family="Helvetica,sans-Serif" font-size="10.00">TechListController</text>
<text text-anchor="middle" x="205" y="-31" font-family="Helvetica,sans-Serif" font-size="10.00">::rebuild_list</text>
</a>
</g>
</g>
<!-- Node1&#45;&gt;Node2 -->
<g id="edge1_Node000001_Node000002" class="edge">
<title>Node1&#45;&gt;Node2</title>
<g id="a_edge1_Node000001_Node000002"><a xlink:title=" ">
<path fill="none" stroke="#63b8ff" d="M117.03,-39C125.42,-39 134.09,-39 142.56,-39"/>
<polygon fill="#63b8ff" stroke="#63b8ff" points="142.75,-42.5 152.75,-39 142.75,-35.5 142.75,-42.5"/>
</a>
</g>
</g>
<!-- Node3 -->
<g id="Node000003" class="node">
<title>Node3</title>
<g id="a_Node000003"><a xlink:href="classTechnicianRepository.html#abf3ba8f356e622790a4445b34046ac02" target="_top" xlink:title="Retrieves all technicians in the repository.">
<polygon fill="white" stroke="#666666" points="413,-78 293,-78 293,-48 413,-48 413,-78"/>
<text text-anchor="start" x="301" y="-66" font-family="Helvetica,sans-Serif" font-size="10.00">TechnicianRepository</text>
<text text-anchor="middle" x="353" y="-55" font-family="Helvetica,sans-Serif" font-size="10.00">::get_all</text>
</a>
</g>
</g>
<!-- Node2&#45;&gt;Node3 -->
<g id="edge2_Node000002_Node000003" class="edge">
<title>Node2&#45;&gt;Node3</title>
<g id="a_edge2_Node000002_Node000003"><a xlink:title=" ">
<path fill="none" stroke="#63b8ff" d="M257.06,-47.39C265.4,-48.76 274.15,-50.2 282.83,-51.63"/>
<polygon fill="#63b8ff" stroke="#63b8ff" points="282.53,-55.13 292.96,-53.3 283.66,-48.22 282.53,-55.13"/>
</a>
</g>
</g>
<!-- Node4 -->
<g id="Node000004" class="node">
<title>Node4</title>
<g id="a_Node000004"><a xlink:href="classTechnicianRepository.html#a7195867c4915f8aa3ff92b28615b1248" target="_top" xlink:title="Returns the singleton instance of the repository.">
<polygon fill="white" stroke="#666666" points="413,-30 293,-30 293,0 413,0 413,-30"/>
<text text-anchor="start" x="301" y="-18" font-family="Helvetica,sans-Serif" font-size="10.00">TechnicianRepository</text>
<text text-anchor="middle" x="353" y="-7" font-family="Helvetica,sans-Serif" font-size="10.00">::instance</text>
</a>
</g>
</g>
<!-- Node2&#45;&gt;Node4 -->
<g id="edge3_Node000002_Node000004" class="edge">
<title>Node2&#45;&gt;Node4</title>
<g id="a_edge3_Node000002_Node000004"><a xlink:title=" ">
<path fill="none" stroke="#63b8ff" d="M257.06,-30.61C265.4,-29.24 274.15,-27.8 282.83,-26.37"/>
<polygon fill="#63b8ff" stroke="#63b8ff" points="283.66,-29.78 292.96,-24.7 282.53,-22.87 283.66,-29.78"/>
</a>
</g>
</g>
</g>
</svg>
