<?xml version="1.0" encoding="UTF-8" standalone="no"?>
<!DOCTYPE svg PUBLIC "-//W3C//DTD SVG 1.1//EN"
 "http://www.w3.org/Graphics/SVG/1.1/DTD/svg11.dtd">
<!-- Generated by graphviz version 2.43.0 (0)
 -->
<!-- Title: InterventionEditPanel::InterventionEditPanel Pages: 1 -->
<svg width="387pt" height="86pt"
 viewBox="0.00 0.00 387.00 86.00" xmlns="http://www.w3.org/2000/svg" xmlns:xlink="http://www.w3.org/1999/xlink">
<g id="graph0" class="graph" transform="scale(1 1) rotate(0) translate(4 82)">
<title>InterventionEditPanel::InterventionEditPanel</title>
<!-- Node1 -->
<g id="Node000001" class="node">
<title>Node1</title>
<g id="a_Node000001"><a xlink:title="Constructs the panel and initializes UI components.">
<polygon fill="#999999" stroke="#666666" points="127,-54 0,-54 0,-24 127,-24 127,-54"/>
<text text-anchor="start" x="8" y="-42" font-family="Helvetica,sans-Serif" font-size="10.00">InterventionEditPanel</text>
<text text-anchor="middle" x="63.5" y="-31" font-family="Helvetica,sans-Serif" font-size="10.00">::InterventionEditPanel</text>
</a>
</g>
</g>
<!-- Node2 -->
<g id="Node000002" class="node">
<title>Node2</title>
<g id="a_Node000002"><a xlink:href="classInterventionEditPanel.html#a7099dd838aad8460a68486b7979e659e" target="_top" xlink:title="Connects signals and slots for interactive behavior.">
<polygon fill="white" stroke="#666666" points="284,-78 163,-78 163,-48 284,-48 284,-78"/>
<text text-anchor="start" x="171" y="-66" font-family="Helvetica,sans-Serif" font-size="10.00">InterventionEditPanel</text>
<text text-anchor="middle" x="223.5" y="-55" font-family="Helvetica,sans-Serif" font-size="10.00">::setup_connects</text>
</a>
</g>
</g>
<!-- Node1&#45;&gt;Node2 -->
<g id="edge1_Node000001_Node000002" class="edge">
<title>Node1&#45;&gt;Node2</title>
<g id="a_edge1_Node000001_Node000002"><a xlink:title=" ">
<path fill="none" stroke="#63b8ff" d="M127.4,-48.55C135.81,-49.83 144.48,-51.15 153,-52.44"/>
<polygon fill="#63b8ff" stroke="#63b8ff" points="152.49,-55.91 162.9,-53.95 153.54,-48.98 152.49,-55.91"/>
</a>
</g>
</g>
<!-- Node3 -->
<g id="Node000003" class="node">
<title>Node3</title>
<g id="a_Node000003"><a xlink:href="classInterventionEditPanel.html#abad2a36d7869a00f21a0ba68de93d4ec" target="_top" xlink:title="Sets up all UI components and layout.">
<polygon fill="white" stroke="#666666" points="284,-30 163,-30 163,0 284,0 284,-30"/>
<text text-anchor="start" x="171" y="-18" font-family="Helvetica,sans-Serif" font-size="10.00">InterventionEditPanel</text>
<text text-anchor="middle" x="223.5" y="-7" font-family="Helvetica,sans-Serif" font-size="10.00">::setup_ui</text>
</a>
</g>
</g>
<!-- Node1&#45;&gt;Node3 -->
<g id="edge2_Node000001_Node000003" class="edge">
<title>Node1&#45;&gt;Node3</title>
<g id="a_edge2_Node000001_Node000003"><a xlink:title=" ">
<path fill="none" stroke="#63b8ff" d="M127.4,-29.45C135.81,-28.17 144.48,-26.85 153,-25.56"/>
<polygon fill="#63b8ff" stroke="#63b8ff" points="153.54,-29.02 162.9,-24.05 152.49,-22.09 153.54,-29.02"/>
</a>
</g>
</g>
<!-- Node4 -->
<g id="Node000004" class="node">
<title>Node4</title>
<g id="a_Node000004"><a xlink:href="ExpertiseField_8h.html#a56a9a6b462a1d330a25154be696d66d5" target="_top" xlink:title="Converts an ExpertiseField enum value to a human&#45;readable string.">
<polygon fill="white" stroke="#666666" points="379,-24.5 320,-24.5 320,-5.5 379,-5.5 379,-24.5"/>
<text text-anchor="middle" x="349.5" y="-12.5" font-family="Helvetica,sans-Serif" font-size="10.00">to_string</text>
</a>
</g>
</g>
<!-- Node3&#45;&gt;Node4 -->
<g id="edge3_Node000003_Node000004" class="edge">
<title>Node3&#45;&gt;Node4</title>
<g id="a_edge3_Node000003_Node000004"><a xlink:title=" ">
<path fill="none" stroke="#63b8ff" d="M284.32,-15C292.93,-15 301.6,-15 309.66,-15"/>
<polygon fill="#63b8ff" stroke="#63b8ff" points="309.85,-18.5 319.85,-15 309.85,-11.5 309.85,-18.5"/>
</a>
</g>
</g>
</g>
</svg>
