<?xml version="1.0" encoding="UTF-8" standalone="no"?>
<!DOCTYPE svg PUBLIC "-//W3C//DTD SVG 1.1//EN"
 "http://www.w3.org/Graphics/SVG/1.1/DTD/svg11.dtd">
<!-- Generated by graphviz version 2.43.0 (0)
 -->
<!-- Title: LoginPage::clear_fields Pages: 1 -->
<svg width="627pt" height="86pt"
 viewBox="0.00 0.00 627.00 86.00" xmlns="http://www.w3.org/2000/svg" xmlns:xlink="http://www.w3.org/1999/xlink">
<g id="graph0" class="graph" transform="scale(1 1) rotate(0) translate(4 82)">
<title>LoginPage::clear_fields</title>
<!-- Node1 -->
<g id="Node000001" class="node">
<title>Node1</title>
<g id="a_Node000001"><a xlink:title="Clears the login input fields.">
<polygon fill="#999999" stroke="#666666" points="619,-48.5 491,-48.5 491,-29.5 619,-29.5 619,-48.5"/>
<text text-anchor="middle" x="555" y="-36.5" font-family="Helvetica,sans-Serif" font-size="10.00">LoginPage::clear_fields</text>
</a>
</g>
</g>
<!-- Node2 -->
<g id="Node000002" class="node">
<title>Node2</title>
<g id="a_Node000002"><a xlink:href="classLoginPage.html#ac14065c6e2529048d568cddef19f3028" target="_top" xlink:title="Attempts to log in with the provided username and password.">
<polygon fill="white" stroke="#666666" points="454,-78 343,-78 343,-48 454,-48 454,-78"/>
<text text-anchor="start" x="351" y="-66" font-family="Helvetica,sans-Serif" font-size="10.00">LoginPage::attempt</text>
<text text-anchor="middle" x="398.5" y="-55" font-family="Helvetica,sans-Serif" font-size="10.00">_login</text>
</a>
</g>
</g>
<!-- Node1&#45;&gt;Node2 -->
<g id="edge1_Node000001_Node000002" class="edge">
<title>Node1&#45;&gt;Node2</title>
<g id="a_edge1_Node000001_Node000002"><a xlink:title=" ">
<path fill="none" stroke="#63b8ff" d="M482.34,-50.13C472.91,-51.6 463.38,-53.08 454.3,-54.49"/>
<polygon fill="#63b8ff" stroke="#63b8ff" points="483.15,-53.55 492.49,-48.55 482.07,-46.63 483.15,-53.55"/>
</a>
</g>
</g>
<!-- Node5 -->
<g id="Node000005" class="node">
<title>Node5</title>
<g id="a_Node000005"><a xlink:href="classLoginPage.html#ad592b0f8f5de3de894e0b2cdbcc982f3" target="_top" xlink:title="Logs in as a guest (no credentials required).">
<polygon fill="white" stroke="#666666" points="455,-30 342,-30 342,0 455,0 455,-30"/>
<text text-anchor="start" x="350" y="-18" font-family="Helvetica,sans-Serif" font-size="10.00">LoginPage::login_as</text>
<text text-anchor="middle" x="398.5" y="-7" font-family="Helvetica,sans-Serif" font-size="10.00">_guest</text>
</a>
</g>
</g>
<!-- Node1&#45;&gt;Node5 -->
<g id="edge4_Node000001_Node000005" class="edge">
<title>Node1&#45;&gt;Node5</title>
<g id="a_edge4_Node000001_Node000005"><a xlink:title=" ">
<path fill="none" stroke="#63b8ff" d="M482.61,-27.91C473.44,-26.49 464.16,-25.04 455.29,-23.67"/>
<polygon fill="#63b8ff" stroke="#63b8ff" points="482.07,-31.37 492.49,-29.45 483.15,-24.45 482.07,-31.37"/>
</a>
</g>
</g>
<!-- Node3 -->
<g id="Node000003" class="node">
<title>Node3</title>
<g id="a_Node000003"><a xlink:href="classLoginPage.html#a7cd454f7668442d809030c3e5e6a66ea" target="_top" xlink:title="Connects UI elements to their respective slots.">
<polygon fill="white" stroke="#666666" points="306,-48.5 158,-48.5 158,-29.5 306,-29.5 306,-48.5"/>
<text text-anchor="middle" x="232" y="-36.5" font-family="Helvetica,sans-Serif" font-size="10.00">LoginPage::setup_connects</text>
</a>
</g>
</g>
<!-- Node2&#45;&gt;Node3 -->
<g id="edge2_Node000002_Node000003" class="edge">
<title>Node2&#45;&gt;Node3</title>
<g id="a_edge2_Node000002_Node000003"><a xlink:title=" ">
<path fill="none" stroke="#63b8ff" d="M332.56,-53.53C321.32,-51.89 309.63,-50.18 298.38,-48.54"/>
<polygon fill="#63b8ff" stroke="#63b8ff" points="332.32,-57.03 342.72,-55.01 333.33,-50.1 332.32,-57.03"/>
</a>
</g>
</g>
<!-- Node4 -->
<g id="Node000004" class="node">
<title>Node4</title>
<g id="a_Node000004"><a xlink:href="classLoginPage.html#ac80d4431cd7779e6ae5f8c3b17fe6c3f" target="_top" xlink:title="Constructs the login page UI.">
<polygon fill="white" stroke="#666666" points="122,-48.5 0,-48.5 0,-29.5 122,-29.5 122,-48.5"/>
<text text-anchor="middle" x="61" y="-36.5" font-family="Helvetica,sans-Serif" font-size="10.00">LoginPage::LoginPage</text>
</a>
</g>
</g>
<!-- Node3&#45;&gt;Node4 -->
<g id="edge3_Node000003_Node000004" class="edge">
<title>Node3&#45;&gt;Node4</title>
<g id="a_edge3_Node000003_Node000004"><a xlink:title=" ">
<path fill="none" stroke="#63b8ff" d="M147.72,-39C139.06,-39 130.38,-39 122.05,-39"/>
<polygon fill="#63b8ff" stroke="#63b8ff" points="147.86,-42.5 157.86,-39 147.86,-35.5 147.86,-42.5"/>
</a>
</g>
</g>
<!-- Node5&#45;&gt;Node3 -->
<g id="edge5_Node000005_Node000003" class="edge">
<title>Node5&#45;&gt;Node3</title>
<g id="a_edge5_Node000005_Node000003"><a xlink:title=" ">
<path fill="none" stroke="#63b8ff" d="M331.81,-24.58C320.78,-26.19 309.32,-27.86 298.3,-29.47"/>
<polygon fill="#63b8ff" stroke="#63b8ff" points="332.42,-28.03 341.81,-23.13 331.41,-21.11 332.42,-28.03"/>
</a>
</g>
</g>
</g>
</svg>
