<?xml version="1.0" encoding="UTF-8" standalone="no"?>
<!DOCTYPE svg PUBLIC "-//W3C//DTD SVG 1.1//EN"
 "http://www.w3.org/Graphics/SVG/1.1/DTD/svg11.dtd">
<!-- Generated by graphviz version 2.43.0 (0)
 -->
<!-- Title: TechListController::update_technicians Pages: 1 -->
<svg width="483pt" height="230pt"
 viewBox="0.00 0.00 483.00 230.15" xmlns="http://www.w3.org/2000/svg" xmlns:xlink="http://www.w3.org/1999/xlink">
<g id="graph0" class="graph" transform="scale(1 1) rotate(0) translate(4 226.15)">
<title>TechListController::update_technicians</title>
<!-- Node1 -->
<g id="Node000001" class="node">
<title>Node1</title>
<g id="a_Node000001"><a xlink:title="Updates the technician list based on current combo box selections.">
<polygon fill="#999999" stroke="#666666" points="475,-102.15 358,-102.15 358,-72.15 475,-72.15 475,-102.15"/>
<text text-anchor="start" x="366" y="-90.15" font-family="Helvetica,sans-Serif" font-size="10.00">TechListController</text>
<text text-anchor="middle" x="416.5" y="-79.15" font-family="Helvetica,sans-Serif" font-size="10.00">::update_technicians</text>
</a>
</g>
</g>
<!-- Node2 -->
<g id="Node000002" class="node">
<title>Node2</title>
<g id="a_Node000002"><a xlink:href="classCreateInterventionDialog.html#a2dea7e4f88ec1ff92ff0abfc79cc02ec" target="_top" xlink:title="Clears all input fields in the form.">
<polygon fill="white" stroke="#666666" points="322,-198.15 182,-198.15 182,-168.15 322,-168.15 322,-198.15"/>
<text text-anchor="start" x="190" y="-186.15" font-family="Helvetica,sans-Serif" font-size="10.00">CreateInterventionDialog</text>
<text text-anchor="middle" x="252" y="-175.15" font-family="Helvetica,sans-Serif" font-size="10.00">::clear_fields</text>
</a>
</g>
</g>
<!-- Node1&#45;&gt;Node2 -->
<g id="edge1_Node000001_Node000002" class="edge">
<title>Node1&#45;&gt;Node2</title>
<g id="a_edge1_Node000001_Node000002"><a xlink:title=" ">
<path fill="none" stroke="#63b8ff" d="M391.7,-108.97C373.64,-124.62 347.63,-145.3 322,-159.15 315.86,-162.47 309.18,-165.47 302.46,-168.13"/>
<polygon fill="#63b8ff" stroke="#63b8ff" points="394.22,-111.41 399.41,-102.18 389.59,-106.16 394.22,-111.41"/>
</a>
</g>
</g>
<!-- Node5 -->
<g id="Node000005" class="node">
<title>Node5</title>
<g id="a_Node000005"><a xlink:href="classInterventionEditPanel.html#a66c7def9a4454115373cb8530c5f2320" target="_top" xlink:title="Loads intervention data into the form for editing.">
<polygon fill="white" stroke="#666666" points="312.5,-150.15 191.5,-150.15 191.5,-120.15 312.5,-120.15 312.5,-150.15"/>
<text text-anchor="start" x="199.5" y="-138.15" font-family="Helvetica,sans-Serif" font-size="10.00">InterventionEditPanel</text>
<text text-anchor="middle" x="252" y="-127.15" font-family="Helvetica,sans-Serif" font-size="10.00">::load</text>
</a>
</g>
</g>
<!-- Node1&#45;&gt;Node5 -->
<g id="edge4_Node000001_Node000005" class="edge">
<title>Node1&#45;&gt;Node5</title>
<g id="a_edge4_Node000001_Node000005"><a xlink:title=" ">
<path fill="none" stroke="#63b8ff" d="M354.81,-105.08C338.01,-110.04 319.96,-115.37 303.79,-120.15"/>
<polygon fill="#63b8ff" stroke="#63b8ff" points="355.93,-108.4 364.53,-102.21 353.95,-101.68 355.93,-108.4"/>
</a>
</g>
</g>
<!-- Node6 -->
<g id="Node000006" class="node">
<title>Node6</title>
<g id="a_Node000006"><a xlink:href="classTechListController.html#af56c5f4d7779243345cf71dd2f536491" target="_top" xlink:title="Reacts to updates in the technician repository.">
<polygon fill="white" stroke="#666666" points="319,-102.15 185,-102.15 185,-72.15 319,-72.15 319,-102.15"/>
<text text-anchor="start" x="193" y="-90.15" font-family="Helvetica,sans-Serif" font-size="10.00">TechListController</text>
<text text-anchor="middle" x="252" y="-79.15" font-family="Helvetica,sans-Serif" font-size="10.00">::on_repository_updated</text>
</a>
</g>
</g>
<!-- Node1&#45;&gt;Node6 -->
<g id="edge5_Node000001_Node000006" class="edge">
<title>Node1&#45;&gt;Node6</title>
<g id="a_edge5_Node000001_Node000006"><a xlink:title=" ">
<path fill="none" stroke="#63b8ff" d="M347.64,-87.15C338.22,-87.15 328.55,-87.15 319.15,-87.15"/>
<polygon fill="#63b8ff" stroke="#63b8ff" points="347.75,-90.65 357.75,-87.15 347.75,-83.65 347.75,-90.65"/>
</a>
</g>
</g>
<!-- Node7 -->
<g id="Node000007" class="node">
<title>Node7</title>
<g id="a_Node000007"><a xlink:href="classTechListController.html#a1e7a891dcb52fb54659fbacded0a06d3" target="_top" xlink:title="Sets up Qt signal/slot connections.">
<polygon fill="white" stroke="#666666" points="308.5,-54.15 195.5,-54.15 195.5,-24.15 308.5,-24.15 308.5,-54.15"/>
<text text-anchor="start" x="203.5" y="-42.15" font-family="Helvetica,sans-Serif" font-size="10.00">TechListController</text>
<text text-anchor="middle" x="252" y="-31.15" font-family="Helvetica,sans-Serif" font-size="10.00">::setup_connections</text>
</a>
</g>
</g>
<!-- Node1&#45;&gt;Node7 -->
<g id="edge6_Node000001_Node000007" class="edge">
<title>Node1&#45;&gt;Node7</title>
<g id="a_edge6_Node000001_Node000007"><a xlink:title=" ">
<path fill="none" stroke="#63b8ff" d="M354.81,-69.23C338.01,-64.26 319.96,-58.93 303.79,-54.15"/>
<polygon fill="#63b8ff" stroke="#63b8ff" points="353.95,-72.62 364.53,-72.1 355.93,-65.91 353.95,-72.62"/>
</a>
</g>
</g>
<!-- Node8 -->
<g id="Node000008" class="node">
<title>Node8</title>
<g id="a_Node000008"><a xlink:href="classTechListController.html#a4bd566643a813622c34b9edc27b942ac" target="_top" xlink:title="Constructs a TechListController.">
<polygon fill="white" stroke="#666666" points="128,-33.15 18,-33.15 18,-3.15 128,-3.15 128,-33.15"/>
<text text-anchor="start" x="26" y="-21.15" font-family="Helvetica,sans-Serif" font-size="10.00">TechListController</text>
<text text-anchor="middle" x="73" y="-10.15" font-family="Helvetica,sans-Serif" font-size="10.00">::TechListController</text>
</a>
</g>
</g>
<!-- Node1&#45;&gt;Node8 -->
<g id="edge8_Node000001_Node000008" class="edge">
<title>Node1&#45;&gt;Node8</title>
<g id="a_edge8_Node000001_Node000008"><a xlink:title=" ">
<path fill="none" stroke="#63b8ff" d="M394.74,-64.54C377.26,-47.29 350.59,-24.89 322,-15.15 258.21,6.56 179.73,0.61 128.36,-7.3"/>
<polygon fill="#63b8ff" stroke="#63b8ff" points="392.6,-67.35 402.1,-72.04 397.59,-62.45 392.6,-67.35"/>
</a>
</g>
</g>
<!-- Node3 -->
<g id="Node000003" class="node">
<title>Node3</title>
<g id="a_Node000003"><a xlink:href="classCreateInterventionDialog.html#a90408e026b2b8ba7a0da0179623c3e37" target="_top" xlink:title="Constructs the dialog.">
<polygon fill="white" stroke="#666666" points="146,-222.15 0,-222.15 0,-192.15 146,-192.15 146,-222.15"/>
<text text-anchor="start" x="8" y="-210.15" font-family="Helvetica,sans-Serif" font-size="10.00">CreateInterventionDialog</text>
<text text-anchor="middle" x="73" y="-199.15" font-family="Helvetica,sans-Serif" font-size="10.00">::CreateInterventionDialog</text>
</a>
</g>
</g>
<!-- Node2&#45;&gt;Node3 -->
<g id="edge2_Node000002_Node000003" class="edge">
<title>Node2&#45;&gt;Node3</title>
<g id="a_edge2_Node000002_Node000003"><a xlink:title=" ">
<path fill="none" stroke="#63b8ff" d="M171.81,-193.89C163.24,-195.05 154.55,-196.23 146.06,-197.38"/>
<polygon fill="#63b8ff" stroke="#63b8ff" points="172.37,-197.35 181.81,-192.53 171.43,-190.41 172.37,-197.35"/>
</a>
</g>
</g>
<!-- Node4 -->
<g id="Node000004" class="node">
<title>Node4</title>
<g id="a_Node000004"><a xlink:href="classCreateInterventionDialog.html#aa1cf75321fa161537f481c9eb80ba011" target="_top" xlink:title="Handles the show event to prepare or reset the dialog.">
<polygon fill="white" stroke="#666666" points="143,-174.15 3,-174.15 3,-144.15 143,-144.15 143,-174.15"/>
<text text-anchor="start" x="11" y="-162.15" font-family="Helvetica,sans-Serif" font-size="10.00">CreateInterventionDialog</text>
<text text-anchor="middle" x="73" y="-151.15" font-family="Helvetica,sans-Serif" font-size="10.00">::showEvent</text>
</a>
</g>
</g>
<!-- Node2&#45;&gt;Node4 -->
<g id="edge3_Node000002_Node000004" class="edge">
<title>Node2&#45;&gt;Node4</title>
<g id="a_edge3_Node000002_Node000004"><a xlink:title=" ">
<path fill="none" stroke="#63b8ff" d="M171.89,-172.43C162.31,-171.13 152.57,-169.81 143.15,-168.53"/>
<polygon fill="#63b8ff" stroke="#63b8ff" points="171.43,-175.89 181.81,-173.77 172.37,-168.96 171.43,-175.89"/>
</a>
</g>
</g>
<!-- Node7&#45;&gt;Node8 -->
<g id="edge7_Node000007_Node000008" class="edge">
<title>Node7&#45;&gt;Node8</title>
<g id="a_edge7_Node000007_Node000008"><a xlink:title=" ">
<path fill="none" stroke="#63b8ff" d="M185.47,-31.38C166.59,-29.14 146.21,-26.72 128.11,-24.57"/>
<polygon fill="#63b8ff" stroke="#63b8ff" points="185.14,-34.86 195.48,-32.57 185.96,-27.91 185.14,-34.86"/>
</a>
</g>
</g>
</g>
</svg>
