<?xml version="1.0" encoding="UTF-8" standalone="no"?>
<!DOCTYPE svg PUBLIC "-//W3C//DTD SVG 1.1//EN"
 "http://www.w3.org/Graphics/SVG/1.1/DTD/svg11.dtd">
<!-- Generated by graphviz version 2.43.0 (0)
 -->
<!-- Title: TechniciansListView::TechniciansListView Pages: 1 -->
<svg width="604pt" height="150pt"
 viewBox="0.00 0.00 604.00 150.20" xmlns="http://www.w3.org/2000/svg" xmlns:xlink="http://www.w3.org/1999/xlink">
<g id="graph0" class="graph" transform="scale(1 1) rotate(0) translate(4 146.2)">
<title>TechniciansListView::TechniciansListView</title>
<!-- Node1 -->
<g id="Node000001" class="node">
<title>Node1</title>
<g id="a_Node000001"><a xlink:title="Constructs the list view and initializes its UI and behavior.">
<polygon fill="#999999" stroke="#666666" points="120,-91.2 0,-91.2 0,-61.2 120,-61.2 120,-91.2"/>
<text text-anchor="start" x="8" y="-79.2" font-family="Helvetica,sans-Serif" font-size="10.00">TechniciansListView</text>
<text text-anchor="middle" x="60" y="-68.2" font-family="Helvetica,sans-Serif" font-size="10.00">::TechniciansListView</text>
</a>
</g>
</g>
<!-- Node2 -->
<g id="Node000002" class="node">
<title>Node2</title>
<g id="a_Node000002"><a xlink:href="classTechniciansListView.html#abcbdccaf85bf5a62a1c341c7db132133" target="_top" xlink:title="Connects interaction events to internal logic.">
<polygon fill="white" stroke="#666666" points="430,-142.2 316,-142.2 316,-112.2 430,-112.2 430,-142.2"/>
<text text-anchor="start" x="324" y="-130.2" font-family="Helvetica,sans-Serif" font-size="10.00">TechniciansListView</text>
<text text-anchor="middle" x="373" y="-119.2" font-family="Helvetica,sans-Serif" font-size="10.00">::setup_connects</text>
</a>
</g>
</g>
<!-- Node1&#45;&gt;Node2 -->
<g id="edge1_Node000001_Node000002" class="edge">
<title>Node1&#45;&gt;Node2</title>
<g id="a_edge1_Node000001_Node000002"><a xlink:title=" ">
<path fill="none" stroke="#63b8ff" d="M120.23,-85.91C173.24,-94.6 250.85,-107.33 305.87,-116.35"/>
<polygon fill="#63b8ff" stroke="#63b8ff" points="305.44,-119.83 315.87,-117.99 306.57,-112.92 305.44,-119.83"/>
</a>
</g>
</g>
<!-- Node6 -->
<g id="Node000006" class="node">
<title>Node6</title>
<g id="a_Node000006"><a xlink:href="classTechniciansListView.html#a136af4c67741eda51583f044e243e8ca" target="_top" xlink:title="Initializes UI properties and internal models.">
<polygon fill="white" stroke="#666666" points="270,-70.2 156,-70.2 156,-40.2 270,-40.2 270,-70.2"/>
<text text-anchor="start" x="164" y="-58.2" font-family="Helvetica,sans-Serif" font-size="10.00">TechniciansListView</text>
<text text-anchor="middle" x="213" y="-47.2" font-family="Helvetica,sans-Serif" font-size="10.00">::setup_ui</text>
</a>
</g>
</g>
<!-- Node1&#45;&gt;Node6 -->
<g id="edge5_Node000001_Node000006" class="edge">
<title>Node1&#45;&gt;Node6</title>
<g id="a_edge5_Node000001_Node000006"><a xlink:title=" ">
<path fill="none" stroke="#63b8ff" d="M120.25,-67.96C128.68,-66.78 137.4,-65.57 145.95,-64.38"/>
<polygon fill="#63b8ff" stroke="#63b8ff" points="146.46,-67.85 155.89,-63 145.5,-60.91 146.46,-67.85"/>
</a>
</g>
</g>
<!-- Node3 -->
<g id="Node000003" class="node">
<title>Node3</title>
<g id="a_Node000003"><a xlink:href="classTechnicianRepository.html#abf3ba8f356e622790a4445b34046ac02" target="_top" xlink:title="Retrieves all technicians in the repository.">
<polygon fill="white" stroke="#666666" points="596,-94.2 476,-94.2 476,-64.2 596,-64.2 596,-94.2"/>
<text text-anchor="start" x="484" y="-82.2" font-family="Helvetica,sans-Serif" font-size="10.00">TechnicianRepository</text>
<text text-anchor="middle" x="536" y="-71.2" font-family="Helvetica,sans-Serif" font-size="10.00">::get_all</text>
</a>
</g>
</g>
<!-- Node2&#45;&gt;Node3 -->
<g id="edge2_Node000002_Node000003" class="edge">
<title>Node2&#45;&gt;Node3</title>
<g id="a_edge2_Node000002_Node000003"><a xlink:title=" ">
<path fill="none" stroke="#63b8ff" d="M424.5,-112.14C440.53,-107.36 458.42,-102.03 475.05,-97.07"/>
<polygon fill="#63b8ff" stroke="#63b8ff" points="476.1,-100.41 484.68,-94.2 474.1,-93.7 476.1,-100.41"/>
</a>
</g>
</g>
<!-- Node4 -->
<g id="Node000004" class="node">
<title>Node4</title>
<g id="a_Node000004"><a xlink:href="classTechnicianRepository.html#a7195867c4915f8aa3ff92b28615b1248" target="_top" xlink:title="Returns the singleton instance of the repository.">
<polygon fill="white" stroke="#666666" points="596,-46.2 476,-46.2 476,-16.2 596,-16.2 596,-46.2"/>
<text text-anchor="start" x="484" y="-34.2" font-family="Helvetica,sans-Serif" font-size="10.00">TechnicianRepository</text>
<text text-anchor="middle" x="536" y="-23.2" font-family="Helvetica,sans-Serif" font-size="10.00">::instance</text>
</a>
</g>
</g>
<!-- Node2&#45;&gt;Node4 -->
<g id="edge3_Node000002_Node000004" class="edge">
<title>Node2&#45;&gt;Node4</title>
<g id="a_edge3_Node000002_Node000004"><a xlink:title=" ">
<path fill="none" stroke="#63b8ff" d="M424.94,-112.15C430.26,-109.58 435.4,-106.61 440,-103.2 461.42,-87.31 454.88,-71.48 476,-55.2 477.78,-53.83 479.65,-52.52 481.58,-51.28"/>
<polygon fill="#63b8ff" stroke="#63b8ff" points="483.43,-54.25 490.38,-46.25 479.96,-48.17 483.43,-54.25"/>
</a>
</g>
</g>
<!-- Node5 -->
<g id="Node000005" class="node">
<title>Node5</title>
<g id="a_Node000005"><a xlink:href="classTechniciansListView.html#a23089732a81569940fd0c4c20f20a48d" target="_top" xlink:title="Emitted when a technician is selected from the list.">
<polygon fill="white" stroke="#666666" points="595.5,-142.2 476.5,-142.2 476.5,-112.2 595.5,-112.2 595.5,-142.2"/>
<text text-anchor="start" x="484.5" y="-130.2" font-family="Helvetica,sans-Serif" font-size="10.00">TechniciansListView</text>
<text text-anchor="middle" x="536" y="-119.2" font-family="Helvetica,sans-Serif" font-size="10.00">::technician_selected</text>
</a>
</g>
</g>
<!-- Node2&#45;&gt;Node5 -->
<g id="edge4_Node000002_Node000005" class="edge">
<title>Node2&#45;&gt;Node5</title>
<g id="a_edge4_Node000002_Node000005"><a xlink:title=" ">
<path fill="none" stroke="#63b8ff" d="M430.31,-127.2C441.81,-127.2 454.04,-127.2 465.93,-127.2"/>
<polygon fill="#63b8ff" stroke="#63b8ff" points="466.26,-130.7 476.26,-127.2 466.26,-123.7 466.26,-130.7"/>
</a>
</g>
</g>
<!-- Node6&#45;&gt;Node4 -->
<g id="edge6_Node000006_Node000004" class="edge">
<title>Node6&#45;&gt;Node4</title>
<g id="a_edge6_Node000006_Node000004"><a xlink:title=" ">
<path fill="none" stroke="#63b8ff" d="M235.48,-40.17C253.4,-28.6 280.1,-13.55 306,-7.2 362.25,6.59 428.17,-2.91 474.8,-13.76"/>
<polygon fill="#63b8ff" stroke="#63b8ff" points="474.2,-17.22 484.75,-16.16 475.85,-10.41 474.2,-17.22"/>
</a>
</g>
</g>
<!-- Node7 -->
<g id="Node000007" class="node">
<title>Node7</title>
<g id="a_Node000007"><a xlink:href="classTechniciansListView.html#ab337e022e046d24caf8482cc7d68be6c" target="_top" xlink:title="Called when the technician repository is updated.">
<polygon fill="white" stroke="#666666" points="440,-46.2 306,-46.2 306,-16.2 440,-16.2 440,-46.2"/>
<text text-anchor="start" x="314" y="-34.2" font-family="Helvetica,sans-Serif" font-size="10.00">TechniciansListView</text>
<text text-anchor="middle" x="373" y="-23.2" font-family="Helvetica,sans-Serif" font-size="10.00">::on_repository_updated</text>
</a>
</g>
</g>
<!-- Node6&#45;&gt;Node7 -->
<g id="edge7_Node000006_Node000007" class="edge">
<title>Node6&#45;&gt;Node7</title>
<g id="a_edge7_Node000006_Node000007"><a xlink:title=" ">
<path fill="none" stroke="#63b8ff" d="M270.15,-46.67C278.44,-45.41 287.09,-44.09 295.7,-42.79"/>
<polygon fill="#63b8ff" stroke="#63b8ff" points="296.41,-46.22 305.77,-41.26 295.36,-39.3 296.41,-46.22"/>
</a>
</g>
</g>
<!-- Node8 -->
<g id="Node000008" class="node">
<title>Node8</title>
<g id="a_Node000008"><a xlink:href="classTechnicianRepository.html#aec84642514e38cee1a7089e9fbdd41a6" target="_top" xlink:title="Subscribes an observer to be notified on repository changes.">
<polygon fill="white" stroke="#666666" points="433,-94.2 313,-94.2 313,-64.2 433,-64.2 433,-94.2"/>
<text text-anchor="start" x="321" y="-82.2" font-family="Helvetica,sans-Serif" font-size="10.00">TechnicianRepository</text>
<text text-anchor="middle" x="373" y="-71.2" font-family="Helvetica,sans-Serif" font-size="10.00">::subscribe</text>
</a>
</g>
</g>
<!-- Node6&#45;&gt;Node8 -->
<g id="edge10_Node000006_Node000008" class="edge">
<title>Node6&#45;&gt;Node8</title>
<g id="a_edge10_Node000006_Node000008"><a xlink:title=" ">
<path fill="none" stroke="#63b8ff" d="M270.15,-63.73C280.74,-65.34 291.94,-67.04 302.87,-68.7"/>
<polygon fill="#63b8ff" stroke="#63b8ff" points="302.41,-72.17 312.82,-70.21 303.46,-65.25 302.41,-72.17"/>
</a>
</g>
</g>
<!-- Node7&#45;&gt;Node3 -->
<g id="edge8_Node000007_Node000003" class="edge">
<title>Node7&#45;&gt;Node3</title>
<g id="a_edge8_Node000007_Node000003"><a xlink:title=" ">
<path fill="none" stroke="#63b8ff" d="M424.5,-46.25C440.53,-51.03 458.42,-56.37 475.05,-61.33"/>
<polygon fill="#63b8ff" stroke="#63b8ff" points="474.1,-64.69 484.68,-64.19 476.1,-57.98 474.1,-64.69"/>
</a>
</g>
</g>
<!-- Node7&#45;&gt;Node4 -->
<g id="edge9_Node000007_Node000004" class="edge">
<title>Node7&#45;&gt;Node4</title>
<g id="a_edge9_Node000007_Node000004"><a xlink:title=" ">
<path fill="none" stroke="#63b8ff" d="M440.41,-31.2C448.79,-31.2 457.37,-31.2 465.79,-31.2"/>
<polygon fill="#63b8ff" stroke="#63b8ff" points="465.95,-34.7 475.95,-31.2 465.95,-27.7 465.95,-34.7"/>
</a>
</g>
</g>
</g>
</svg>
