<?xml version="1.0" encoding="UTF-8" standalone="no"?>
<!DOCTYPE svg PUBLIC "-//W3C//DTD SVG 1.1//EN"
 "http://www.w3.org/Graphics/SVG/1.1/DTD/svg11.dtd">
<!-- Generated by graphviz version 2.43.0 (0)
 -->
<!-- Title: TechMapp::on_login_successful Pages: 1 -->
<svg width="436pt" height="86pt"
 viewBox="0.00 0.00 436.00 86.00" xmlns="http://www.w3.org/2000/svg" xmlns:xlink="http://www.w3.org/1999/xlink">
<g id="graph0" class="graph" transform="scale(1 1) rotate(0) translate(4 82)">
<title>TechMapp::on_login_successful</title>
<!-- Node1 -->
<g id="Node000001" class="node">
<title>Node1</title>
<g id="a_Node000001"><a xlink:title="Called when a login is successful.">
<polygon fill="#999999" stroke="#666666" points="113,-54 0,-54 0,-24 113,-24 113,-54"/>
<text text-anchor="start" x="8" y="-42" font-family="Helvetica,sans-Serif" font-size="10.00">TechMapp::on_login</text>
<text text-anchor="middle" x="56.5" y="-31" font-family="Helvetica,sans-Serif" font-size="10.00">_successful</text>
</a>
</g>
</g>
<!-- Node2 -->
<g id="Node000002" class="node">
<title>Node2</title>
<g id="a_Node000002"><a xlink:href="classTechMapp.html#ada82d1ac29bbec7da9675ae29b7b23f0" target="_top" xlink:title="Updates the UI components based on the user&#39;s role.">
<polygon fill="white" stroke="#666666" points="268,-54 149,-54 149,-24 268,-24 268,-54"/>
<text text-anchor="start" x="157" y="-42" font-family="Helvetica,sans-Serif" font-size="10.00">TechMapp::update_ui</text>
<text text-anchor="middle" x="208.5" y="-31" font-family="Helvetica,sans-Serif" font-size="10.00">_for_role</text>
</a>
</g>
</g>
<!-- Node1&#45;&gt;Node2 -->
<g id="edge1_Node000001_Node000002" class="edge">
<title>Node1&#45;&gt;Node2</title>
<g id="a_edge1_Node000001_Node000002"><a xlink:title=" ">
<path fill="none" stroke="#63b8ff" d="M113.35,-39C121.59,-39 130.15,-39 138.6,-39"/>
<polygon fill="#63b8ff" stroke="#63b8ff" points="138.84,-42.5 148.84,-39 138.84,-35.5 138.84,-42.5"/>
</a>
</g>
</g>
<!-- Node3 -->
<g id="Node000003" class="node">
<title>Node3</title>
<g id="a_Node000003"><a xlink:href="classAuthenticationService.html#a8c681492f74d5e7b0338ec3a5525c0a5" target="_top" xlink:title=" ">
<polygon fill="white" stroke="#666666" points="428,-78 304,-78 304,-48 428,-48 428,-78"/>
<text text-anchor="start" x="312" y="-66" font-family="Helvetica,sans-Serif" font-size="10.00">AuthenticationService</text>
<text text-anchor="middle" x="366" y="-55" font-family="Helvetica,sans-Serif" font-size="10.00">::current_user</text>
</a>
</g>
</g>
<!-- Node2&#45;&gt;Node3 -->
<g id="edge2_Node000002_Node000003" class="edge">
<title>Node2&#45;&gt;Node3</title>
<g id="a_edge2_Node000002_Node000003"><a xlink:title=" ">
<path fill="none" stroke="#63b8ff" d="M268.29,-48.07C276.63,-49.36 285.29,-50.7 293.84,-52.02"/>
<polygon fill="#63b8ff" stroke="#63b8ff" points="293.38,-55.49 303.8,-53.55 294.45,-48.57 293.38,-55.49"/>
</a>
</g>
</g>
<!-- Node4 -->
<g id="Node000004" class="node">
<title>Node4</title>
<g id="a_Node000004"><a xlink:href="classAuthenticationService.html#a2dc8be4689e371d7a773ac008b21cf3a" target="_top" xlink:title=" ">
<polygon fill="white" stroke="#666666" points="428,-30 304,-30 304,0 428,0 428,-30"/>
<text text-anchor="start" x="312" y="-18" font-family="Helvetica,sans-Serif" font-size="10.00">AuthenticationService</text>
<text text-anchor="middle" x="366" y="-7" font-family="Helvetica,sans-Serif" font-size="10.00">::instance</text>
</a>
</g>
</g>
<!-- Node2&#45;&gt;Node4 -->
<g id="edge3_Node000002_Node000004" class="edge">
<title>Node2&#45;&gt;Node4</title>
<g id="a_edge3_Node000002_Node000004"><a xlink:title=" ">
<path fill="none" stroke="#63b8ff" d="M268.29,-29.93C276.63,-28.64 285.29,-27.3 293.84,-25.98"/>
<polygon fill="#63b8ff" stroke="#63b8ff" points="294.45,-29.43 303.8,-24.45 293.38,-22.51 294.45,-29.43"/>
</a>
</g>
</g>
</g>
</svg>
