<?xml version="1.0" encoding="UTF-8" standalone="no"?>
<!DOCTYPE svg PUBLIC "-//W3C//DTD SVG 1.1//EN"
 "http://www.w3.org/Graphics/SVG/1.1/DTD/svg11.dtd">
<!-- Generated by graphviz version 2.43.0 (0)
 -->
<!-- Title: include/TechMa/Entities/ConcreteIntervention.h Pages: 1 -->
<svg width="302pt" height="104pt"
 viewBox="0.00 0.00 302.00 104.00" xmlns="http://www.w3.org/2000/svg" xmlns:xlink="http://www.w3.org/1999/xlink">
<g id="graph0" class="graph" transform="scale(1 1) rotate(0) translate(4 100)">
<title>include/TechMa/Entities/ConcreteIntervention.h</title>
<!-- Node1 -->
<g id="Node000001" class="node">
<title>Node1</title>
<g id="a_Node000001"><a xlink:title="Declares the ConcreteIntervention class, a concrete implementation of AIntervention.">
<polygon fill="#999999" stroke="#666666" points="209,-96 78,-96 78,-66 209,-66 209,-96"/>
<text text-anchor="start" x="86" y="-84" font-family="Helvetica,sans-Serif" font-size="10.00">include/TechMa/Entities</text>
<text text-anchor="middle" x="143.5" y="-73" font-family="Helvetica,sans-Serif" font-size="10.00">/ConcreteIntervention.h</text>
</a>
</g>
</g>
<!-- Node2 -->
<g id="Node000002" class="node">
<title>Node2</title>
<g id="a_Node000002"><a xlink:href="InterventionFactory_8cpp.html" target="_top" xlink:title="Implements the InterventionFactory class.">
<polygon fill="white" stroke="#666666" points="131,-30 0,-30 0,0 131,0 131,-30"/>
<text text-anchor="start" x="8" y="-18" font-family="Helvetica,sans-Serif" font-size="10.00">src/Factory/Intervention</text>
<text text-anchor="middle" x="65.5" y="-7" font-family="Helvetica,sans-Serif" font-size="10.00">Factory.cpp</text>
</a>
</g>
</g>
<!-- Node1&#45;&gt;Node2 -->
<g id="edge1_Node000001_Node000002" class="edge">
<title>Node1&#45;&gt;Node2</title>
<g id="a_edge1_Node000001_Node000002"><a xlink:title=" ">
<path fill="none" stroke="#63b8ff" d="M118.15,-59.2C106.57,-49.7 93.15,-38.69 82.76,-30.16"/>
<polygon fill="#63b8ff" stroke="#63b8ff" points="116.24,-62.16 126.19,-65.8 120.68,-56.75 116.24,-62.16"/>
</a>
</g>
</g>
<!-- Node3 -->
<g id="Node000003" class="node">
<title>Node3</title>
<g id="a_Node000003"><a xlink:href="ConcreteIntervention_8cpp.html" target="_top" xlink:title="Implements the ConcreteIntervention class.">
<polygon fill="white" stroke="#666666" points="294,-30 149,-30 149,0 294,0 294,-30"/>
<text text-anchor="start" x="157" y="-18" font-family="Helvetica,sans-Serif" font-size="10.00">src/Interventions/Concrete</text>
<text text-anchor="middle" x="221.5" y="-7" font-family="Helvetica,sans-Serif" font-size="10.00">Intervention.cpp</text>
</a>
</g>
</g>
<!-- Node1&#45;&gt;Node3 -->
<g id="edge2_Node000001_Node000003" class="edge">
<title>Node1&#45;&gt;Node3</title>
<g id="a_edge2_Node000001_Node000003"><a xlink:title=" ">
<path fill="none" stroke="#63b8ff" d="M168.85,-59.2C180.43,-49.7 193.85,-38.69 204.24,-30.16"/>
<polygon fill="#63b8ff" stroke="#63b8ff" points="166.32,-56.75 160.81,-65.8 170.76,-62.16 166.32,-56.75"/>
</a>
</g>
</g>
</g>
</svg>
