<?xml version="1.0" encoding="UTF-8" standalone="no"?>
<!DOCTYPE svg PUBLIC "-//W3C//DTD SVG 1.1//EN"
 "http://www.w3.org/Graphics/SVG/1.1/DTD/svg11.dtd">
<!-- Generated by graphviz version 2.43.0 (0)
 -->
<!-- Title: src/Interventions/ConcreteIntervention.cpp Pages: 1 -->
<svg width="800pt" height="412pt"
 viewBox="0.00 0.00 800.29 412.00" xmlns="http://www.w3.org/2000/svg" xmlns:xlink="http://www.w3.org/1999/xlink">
<g id="graph0" class="graph" transform="scale(1 1) rotate(0) translate(4 408)">
<title>src/Interventions/ConcreteIntervention.cpp</title>
<!-- Node1 -->
<g id="Node000001" class="node">
<title>Node1</title>
<g id="a_Node000001"><a xlink:title="Implements the ConcreteIntervention class.">
<polygon fill="#999999" stroke="#666666" points="547.79,-404 402.79,-404 402.79,-374 547.79,-374 547.79,-404"/>
<text text-anchor="start" x="410.79" y="-392" font-family="Helvetica,sans-Serif" font-size="10.00">src/Interventions/Concrete</text>
<text text-anchor="middle" x="475.29" y="-381" font-family="Helvetica,sans-Serif" font-size="10.00">Intervention.cpp</text>
</a>
</g>
</g>
<!-- Node2 -->
<g id="Node000002" class="node">
<title>Node2</title>
<g id="a_Node000002"><a xlink:href="ConcreteIntervention_8h.html" target="_top" xlink:title="Declares the ConcreteIntervention class, a concrete implementation of AIntervention.">
<polygon fill="white" stroke="#666666" points="545.29,-338 405.29,-338 405.29,-308 545.29,-308 545.29,-338"/>
<text text-anchor="start" x="413.29" y="-326" font-family="Helvetica,sans-Serif" font-size="10.00">TechMa/Entities/Concrete</text>
<text text-anchor="middle" x="475.29" y="-315" font-family="Helvetica,sans-Serif" font-size="10.00">Intervention.h</text>
</a>
</g>
</g>
<!-- Node1&#45;&gt;Node2 -->
<g id="edge1_Node000001_Node000002" class="edge">
<title>Node1&#45;&gt;Node2</title>
<g id="a_edge1_Node000001_Node000002"><a xlink:title=" ">
<path fill="none" stroke="#63b8ff" d="M475.29,-373.8C475.29,-366.34 475.29,-356.99 475.29,-348.41"/>
<polygon fill="#63b8ff" stroke="#63b8ff" points="478.8,-348.16 475.29,-338.16 471.8,-348.16 478.8,-348.16"/>
</a>
</g>
</g>
<!-- Node3 -->
<g id="Node000003" class="node">
<title>Node3</title>
<g id="a_Node000003"><a xlink:href="AIntervention_8h.html" target="_top" xlink:title="Defines the abstract base class AIntervention for representing interventions.">
<polygon fill="white" stroke="#666666" points="560.79,-272 389.79,-272 389.79,-253 560.79,-253 560.79,-272"/>
<text text-anchor="middle" x="475.29" y="-260" font-family="Helvetica,sans-Serif" font-size="10.00">TechMa/Entities/AIntervention.h</text>
</a>
</g>
</g>
<!-- Node2&#45;&gt;Node3 -->
<g id="edge2_Node000002_Node000003" class="edge">
<title>Node2&#45;&gt;Node3</title>
<g id="a_edge2_Node000002_Node000003"><a xlink:title=" ">
<path fill="none" stroke="#63b8ff" d="M475.29,-307.84C475.29,-300.21 475.29,-290.7 475.29,-282.45"/>
<polygon fill="#63b8ff" stroke="#63b8ff" points="478.8,-282.27 475.29,-272.27 471.8,-282.27 478.8,-282.27"/>
</a>
</g>
</g>
<!-- Node4 -->
<g id="Node000004" class="node">
<title>Node4</title>
<g id="a_Node000004"><a xlink:href="InterventionData_8h.html" target="_top" xlink:title="Defines the InterventionData structure which holds all information related to an intervention.">
<polygon fill="white" stroke="#666666" points="552.79,-217 397.79,-217 397.79,-187 552.79,-187 552.79,-217"/>
<text text-anchor="start" x="405.79" y="-205" font-family="Helvetica,sans-Serif" font-size="10.00">TechMa/Entities/Intervention</text>
<text text-anchor="middle" x="475.29" y="-194" font-family="Helvetica,sans-Serif" font-size="10.00">Data.h</text>
</a>
</g>
</g>
<!-- Node3&#45;&gt;Node4 -->
<g id="edge3_Node000003_Node000004" class="edge">
<title>Node3&#45;&gt;Node4</title>
<g id="a_edge3_Node000003_Node000004"><a xlink:title=" ">
<path fill="none" stroke="#63b8ff" d="M475.29,-252.87C475.29,-246.11 475.29,-236.35 475.29,-227.26"/>
<polygon fill="#63b8ff" stroke="#63b8ff" points="478.8,-227.11 475.29,-217.11 471.8,-227.11 478.8,-227.11"/>
</a>
</g>
</g>
<!-- Node5 -->
<g id="Node000005" class="node">
<title>Node5</title>
<g id="a_Node000005"><a xlink:href="ATechnician_8h.html" target="_top" xlink:title="Defines the abstract base class ATechnician representing a technician entity.">
<polygon fill="white" stroke="#666666" points="164.29,-145.5 2.29,-145.5 2.29,-126.5 164.29,-126.5 164.29,-145.5"/>
<text text-anchor="middle" x="83.29" y="-133.5" font-family="Helvetica,sans-Serif" font-size="10.00">TechMa/Entities/ATechnician.h</text>
</a>
</g>
</g>
<!-- Node4&#45;&gt;Node5 -->
<g id="edge4_Node000004_Node000005" class="edge">
<title>Node4&#45;&gt;Node5</title>
<g id="a_edge4_Node000004_Node000005"><a xlink:title=" ">
<path fill="none" stroke="#63b8ff" d="M397.38,-188.28C323.47,-176.21 213.85,-158.32 145.59,-147.17"/>
<polygon fill="#63b8ff" stroke="#63b8ff" points="145.84,-143.67 135.41,-145.51 144.71,-150.57 145.84,-143.67"/>
</a>
</g>
</g>
<!-- Node6 -->
<g id="Node000006" class="node">
<title>Node6</title>
<g id="a_Node000006"><a xlink:title=" ">
<polygon fill="#e0e0e0" stroke="#999999" points="346.29,-19 302.29,-19 302.29,0 346.29,0 346.29,-19"/>
<text text-anchor="middle" x="324.29" y="-7" font-family="Helvetica,sans-Serif" font-size="10.00">string</text>
</a>
</g>
</g>
<!-- Node4&#45;&gt;Node6 -->
<g id="edge20_Node000004_Node000006" class="edge">
<title>Node4&#45;&gt;Node6</title>
<g id="a_edge20_Node000004_Node000006"><a xlink:title=" ">
<path fill="none" stroke="#63b8ff" d="M406.15,-186.96C381.26,-179.38 354.19,-167.97 333.29,-151 297.42,-121.86 279.45,-99.1 293.29,-55 296.53,-44.71 303.07,-34.72 309.32,-26.82"/>
<polygon fill="#63b8ff" stroke="#63b8ff" points="312.02,-29.04 315.81,-19.15 306.68,-24.52 312.02,-29.04"/>
</a>
</g>
</g>
<!-- Node8 -->
<g id="Node000008" class="node">
<title>Node8</title>
<g id="a_Node000008"><a xlink:href="ExpertiseField_8h.html" target="_top" xlink:title="Declares the ExpertiseField enum class representing technician specializations, and a utility functio...">
<polygon fill="white" stroke="#666666" points="245.79,-79.5 80.79,-79.5 80.79,-60.5 245.79,-60.5 245.79,-79.5"/>
<text text-anchor="middle" x="163.29" y="-67.5" font-family="Helvetica,sans-Serif" font-size="10.00">TechMa/Types/ExpertiseField.h</text>
</a>
</g>
</g>
<!-- Node4&#45;&gt;Node8 -->
<g id="edge11_Node000004_Node000008" class="edge">
<title>Node4&#45;&gt;Node8</title>
<g id="a_edge11_Node000004_Node000008"><a xlink:title=" ">
<path fill="none" stroke="#63b8ff" d="M397.75,-191.8C355.5,-184.65 303.24,-172.23 260.29,-151 227.37,-134.73 195.83,-105.29 178.07,-87.02"/>
<polygon fill="#63b8ff" stroke="#63b8ff" points="180.35,-84.34 170.93,-79.5 175.28,-89.16 180.35,-84.34"/>
</a>
</g>
</g>
<!-- Node9 -->
<g id="Node000009" class="node">
<title>Node9</title>
<g id="a_Node000009"><a xlink:href="Location_8h.html" target="_top" xlink:title="Defines the GPSCoords and Location structures for representing geographical locations.">
<polygon fill="white" stroke="#666666" points="448.29,-79.5 302.29,-79.5 302.29,-60.5 448.29,-60.5 448.29,-79.5"/>
<text text-anchor="middle" x="375.29" y="-67.5" font-family="Helvetica,sans-Serif" font-size="10.00">TechMa/Entities/Location.h</text>
</a>
</g>
</g>
<!-- Node4&#45;&gt;Node9 -->
<g id="edge9_Node000004_Node000009" class="edge">
<title>Node4&#45;&gt;Node9</title>
<g id="a_edge9_Node000004_Node000009"><a xlink:title=" ">
<path fill="none" stroke="#63b8ff" d="M397.61,-188.45C376.53,-181.1 356.04,-169.45 343.29,-151 329.54,-131.08 345.96,-104.39 359.9,-87.44"/>
<polygon fill="#63b8ff" stroke="#63b8ff" points="362.85,-89.38 366.79,-79.55 357.58,-84.77 362.85,-89.38"/>
</a>
</g>
</g>
<!-- Node10 -->
<g id="Node000010" class="node">
<title>Node10</title>
<g id="a_Node000010"><a xlink:href="InterventionComplexity_8h.html" target="_top" xlink:title="Declares the InterventionComplexity enum class representing complexity levels of an intervention.">
<polygon fill="white" stroke="#666666" points="498.29,-151 352.29,-151 352.29,-121 498.29,-121 498.29,-151"/>
<text text-anchor="start" x="360.29" y="-139" font-family="Helvetica,sans-Serif" font-size="10.00">TechMa/Types/Intervention</text>
<text text-anchor="middle" x="425.29" y="-128" font-family="Helvetica,sans-Serif" font-size="10.00">Complexity.h</text>
</a>
</g>
</g>
<!-- Node4&#45;&gt;Node10 -->
<g id="edge12_Node000004_Node000010" class="edge">
<title>Node4&#45;&gt;Node10</title>
<g id="a_edge12_Node000004_Node000010"><a xlink:title=" ">
<path fill="none" stroke="#63b8ff" d="M464.2,-186.8C457.85,-178.68 449.76,-168.31 442.6,-159.15"/>
<polygon fill="#63b8ff" stroke="#63b8ff" points="445.28,-156.89 436.36,-151.16 439.76,-161.2 445.28,-156.89"/>
</a>
</g>
</g>
<!-- Node11 -->
<g id="Node000011" class="node">
<title>Node11</title>
<g id="a_Node000011"><a xlink:href="InterventionStatus_8h.html" target="_top" xlink:title="Declares the InterventionStatus enum and its string conversion function.">
<polygon fill="white" stroke="#666666" points="612.29,-85 466.29,-85 466.29,-55 612.29,-55 612.29,-85"/>
<text text-anchor="start" x="474.29" y="-73" font-family="Helvetica,sans-Serif" font-size="10.00">TechMa/Types/Intervention</text>
<text text-anchor="middle" x="539.29" y="-62" font-family="Helvetica,sans-Serif" font-size="10.00">Status.h</text>
</a>
</g>
</g>
<!-- Node4&#45;&gt;Node11 -->
<g id="edge13_Node000004_Node000011" class="edge">
<title>Node4&#45;&gt;Node11</title>
<g id="a_edge13_Node000004_Node000011"><a xlink:title=" ">
<path fill="none" stroke="#63b8ff" d="M485.28,-186.99C492,-177.19 500.79,-163.65 507.29,-151 516.67,-132.78 525.17,-111.15 531.05,-94.98"/>
<polygon fill="#63b8ff" stroke="#63b8ff" points="534.47,-95.82 534.52,-85.23 527.87,-93.48 534.47,-95.82"/>
</a>
</g>
</g>
<!-- Node12 -->
<g id="Node000012" class="node">
<title>Node12</title>
<g id="a_Node000012"><a xlink:href="InterventionType_8h.html" target="_top" xlink:title="Declares the InterventionType enum class and a string conversion utility.">
<polygon fill="white" stroke="#666666" points="776.29,-85 630.29,-85 630.29,-55 776.29,-55 776.29,-85"/>
<text text-anchor="start" x="638.29" y="-73" font-family="Helvetica,sans-Serif" font-size="10.00">TechMa/Types/Intervention</text>
<text text-anchor="middle" x="703.29" y="-62" font-family="Helvetica,sans-Serif" font-size="10.00">Type.h</text>
</a>
</g>
</g>
<!-- Node4&#45;&gt;Node12 -->
<g id="edge15_Node000004_Node000012" class="edge">
<title>Node4&#45;&gt;Node12</title>
<g id="a_edge15_Node000004_Node000012"><a xlink:title=" ">
<path fill="none" stroke="#63b8ff" d="M491.63,-186.91C512.06,-169.77 548.59,-140.69 583.29,-121 605.35,-108.48 631.17,-97.32 653.19,-88.74"/>
<polygon fill="#63b8ff" stroke="#63b8ff" points="654.61,-91.94 662.69,-85.1 652.1,-85.4 654.61,-91.94"/>
</a>
</g>
</g>
<!-- Node13 -->
<g id="Node000013" class="node">
<title>Node13</title>
<g id="a_Node000013"><a xlink:title=" ">
<polygon fill="#e0e0e0" stroke="#999999" points="642.29,-145.5 592.29,-145.5 592.29,-126.5 642.29,-126.5 642.29,-145.5"/>
<text text-anchor="middle" x="617.29" y="-133.5" font-family="Helvetica,sans-Serif" font-size="10.00">chrono</text>
</a>
</g>
</g>
<!-- Node4&#45;&gt;Node13 -->
<g id="edge17_Node000004_Node000013" class="edge">
<title>Node4&#45;&gt;Node13</title>
<g id="a_edge17_Node000004_Node000013"><a xlink:title=" ">
<path fill="none" stroke="#63b8ff" d="M506.46,-186.95C531.14,-175.83 565.32,-160.42 589.18,-149.67"/>
<polygon fill="#63b8ff" stroke="#63b8ff" points="590.72,-152.82 598.4,-145.52 587.84,-146.44 590.72,-152.82"/>
</a>
</g>
</g>
<!-- Node14 -->
<g id="Node000014" class="node">
<title>Node14</title>
<g id="a_Node000014"><a xlink:title=" ">
<polygon fill="#e0e0e0" stroke="#999999" points="718.29,-145.5 660.29,-145.5 660.29,-126.5 718.29,-126.5 718.29,-145.5"/>
<text text-anchor="middle" x="689.29" y="-133.5" font-family="Helvetica,sans-Serif" font-size="10.00">memory</text>
</a>
</g>
</g>
<!-- Node4&#45;&gt;Node14 -->
<g id="edge18_Node000004_Node000014" class="edge">
<title>Node4&#45;&gt;Node14</title>
<g id="a_edge18_Node000004_Node000014"><a xlink:title=" ">
<path fill="none" stroke="#63b8ff" d="M528.76,-186.95C563.81,-177.46 610.52,-164.28 651.29,-151 653.2,-150.38 655.15,-149.72 657.12,-149.05"/>
<polygon fill="#63b8ff" stroke="#63b8ff" points="658.64,-152.22 666.89,-145.58 656.29,-145.63 658.64,-152.22"/>
</a>
</g>
</g>
<!-- Node15 -->
<g id="Node000015" class="node">
<title>Node15</title>
<g id="a_Node000015"><a xlink:title=" ">
<polygon fill="#e0e0e0" stroke="#999999" points="792.29,-145.5 736.29,-145.5 736.29,-126.5 792.29,-126.5 792.29,-145.5"/>
<text text-anchor="middle" x="764.29" y="-133.5" font-family="Helvetica,sans-Serif" font-size="10.00">optional</text>
</a>
</g>
</g>
<!-- Node4&#45;&gt;Node15 -->
<g id="edge19_Node000004_Node000015" class="edge">
<title>Node4&#45;&gt;Node15</title>
<g id="a_edge19_Node000004_Node000015"><a xlink:title=" ">
<path fill="none" stroke="#63b8ff" d="M553.01,-189.01C603.24,-180.42 669.73,-167.48 727.29,-151 729.44,-150.39 731.64,-149.7 733.84,-148.98"/>
<polygon fill="#63b8ff" stroke="#63b8ff" points="735.1,-152.24 743.37,-145.61 732.77,-145.64 735.1,-152.24"/>
</a>
</g>
</g>
<!-- Node5&#45;&gt;Node6 -->
<g id="edge5_Node000005_Node000006" class="edge">
<title>Node5&#45;&gt;Node6</title>
<g id="a_edge5_Node000005_Node000006"><a xlink:title=" ">
<path fill="none" stroke="#63b8ff" d="M63.89,-126.39C34.07,-112.03 -17.24,-82.05 6.29,-55 43.08,-12.71 218.32,-9.4 291.78,-9.93"/>
<polygon fill="#63b8ff" stroke="#63b8ff" points="291.81,-13.43 301.85,-10.03 291.89,-6.43 291.81,-13.43"/>
</a>
</g>
</g>
<!-- Node7 -->
<g id="Node000007" class="node">
<title>Node7</title>
<g id="a_Node000007"><a xlink:title=" ">
<polygon fill="#e0e0e0" stroke="#999999" points="62.79,-79.5 15.79,-79.5 15.79,-60.5 62.79,-60.5 62.79,-79.5"/>
<text text-anchor="middle" x="39.29" y="-67.5" font-family="Helvetica,sans-Serif" font-size="10.00">vector</text>
</a>
</g>
</g>
<!-- Node5&#45;&gt;Node7 -->
<g id="edge6_Node000005_Node000007" class="edge">
<title>Node5&#45;&gt;Node7</title>
<g id="a_edge6_Node000005_Node000007"><a xlink:title=" ">
<path fill="none" stroke="#63b8ff" d="M77.36,-126.37C70.71,-116.69 59.74,-100.74 51.28,-88.44"/>
<polygon fill="#63b8ff" stroke="#63b8ff" points="53.97,-86.16 45.42,-79.91 48.2,-90.13 53.97,-86.16"/>
</a>
</g>
</g>
<!-- Node5&#45;&gt;Node8 -->
<g id="edge7_Node000005_Node000008" class="edge">
<title>Node5&#45;&gt;Node8</title>
<g id="a_edge7_Node000005_Node000008"><a xlink:title=" ">
<path fill="none" stroke="#63b8ff" d="M94.08,-126.37C106.97,-116.06 128.74,-98.65 144.43,-86.09"/>
<polygon fill="#63b8ff" stroke="#63b8ff" points="146.8,-88.68 152.42,-79.7 142.43,-83.21 146.8,-88.68"/>
</a>
</g>
</g>
<!-- Node8&#45;&gt;Node6 -->
<g id="edge8_Node000008_Node000006" class="edge">
<title>Node8&#45;&gt;Node6</title>
<g id="a_edge8_Node000008_Node000006"><a xlink:title=" ">
<path fill="none" stroke="#63b8ff" d="M186.71,-60.49C214.64,-50.34 261.48,-33.32 292.63,-22.01"/>
<polygon fill="#63b8ff" stroke="#63b8ff" points="293.95,-25.25 302.15,-18.55 291.56,-18.67 293.95,-25.25"/>
</a>
</g>
</g>
<!-- Node9&#45;&gt;Node6 -->
<g id="edge10_Node000009_Node000006" class="edge">
<title>Node9&#45;&gt;Node6</title>
<g id="a_edge10_Node000009_Node000006"><a xlink:title=" ">
<path fill="none" stroke="#63b8ff" d="M367.77,-60.37C360.09,-51.55 347.97,-37.66 338.48,-26.77"/>
<polygon fill="#63b8ff" stroke="#63b8ff" points="341.06,-24.41 331.85,-19.17 335.78,-29.01 341.06,-24.41"/>
</a>
</g>
</g>
<!-- Node11&#45;&gt;Node6 -->
<g id="edge14_Node000011_Node000006" class="edge">
<title>Node11&#45;&gt;Node6</title>
<g id="a_edge14_Node000011_Node000006"><a xlink:title=" ">
<path fill="none" stroke="#63b8ff" d="M487.8,-54.99C446.93,-43.87 391.08,-28.67 356.37,-19.23"/>
<polygon fill="#63b8ff" stroke="#63b8ff" points="356.89,-15.74 346.32,-16.49 355.05,-22.5 356.89,-15.74"/>
</a>
</g>
</g>
<!-- Node12&#45;&gt;Node6 -->
<g id="edge16_Node000012_Node000006" class="edge">
<title>Node12&#45;&gt;Node6</title>
<g id="a_edge16_Node000012_Node000006"><a xlink:title=" ">
<path fill="none" stroke="#63b8ff" d="M629.99,-56.41C627.05,-55.93 624.15,-55.46 621.29,-55 525.01,-39.57 410.89,-22.93 356.38,-15.09"/>
<polygon fill="#63b8ff" stroke="#63b8ff" points="356.7,-11.6 346.3,-13.64 355.7,-18.53 356.7,-11.6"/>
</a>
</g>
</g>
</g>
</svg>
