<?xml version="1.0" encoding="UTF-8" standalone="no"?>
<!DOCTYPE svg PUBLIC "-//W3C//DTD SVG 1.1//EN"
 "http://www.w3.org/Graphics/SVG/1.1/DTD/svg11.dtd">
<!-- Generated by graphviz version 2.43.0 (0)
 -->
<!-- Title: src/Views/Widgets/CreateInterventionDialog.cpp Pages: 1 -->
<svg width="2203pt" height="346pt"
 viewBox="0.00 0.00 2202.50 346.00" xmlns="http://www.w3.org/2000/svg" xmlns:xlink="http://www.w3.org/1999/xlink">
<g id="graph0" class="graph" transform="scale(1 1) rotate(0) translate(4 342)">
<title>src/Views/Widgets/CreateInterventionDialog.cpp</title>
<!-- Node1 -->
<g id="Node000001" class="node">
<title>Node1</title>
<g id="a_Node000001"><a xlink:title="Implements the CreateInterventionDialog class for creating new interventions through a Qt dialog UI.">
<polygon fill="#999999" stroke="#666666" points="1395.5,-338 1254.5,-338 1254.5,-308 1395.5,-308 1395.5,-338"/>
<text text-anchor="start" x="1262.5" y="-326" font-family="Helvetica,sans-Serif" font-size="10.00">src/Views/Widgets/Create</text>
<text text-anchor="middle" x="1325" y="-315" font-family="Helvetica,sans-Serif" font-size="10.00">InterventionDialog.cpp</text>
</a>
</g>
</g>
<!-- Node2 -->
<g id="Node000002" class="node">
<title>Node2</title>
<g id="a_Node000002"><a xlink:href="CreateInterventionDialog_8h.html" target="_top" xlink:title="Declares the CreateInterventionDialog class, a QDialog used to create new interventions.">
<polygon fill="white" stroke="#666666" points="768,-272 616,-272 616,-242 768,-242 768,-272"/>
<text text-anchor="start" x="624" y="-260" font-family="Helvetica,sans-Serif" font-size="10.00">TechMa/Views/Widgets</text>
<text text-anchor="middle" x="692" y="-249" font-family="Helvetica,sans-Serif" font-size="10.00">/CreateInterventionDialog.h</text>
</a>
</g>
</g>
<!-- Node1&#45;&gt;Node2 -->
<g id="edge1_Node000001_Node000002" class="edge">
<title>Node1&#45;&gt;Node2</title>
<g id="a_edge1_Node000001_Node000002"><a xlink:title=" ">
<path fill="none" stroke="#63b8ff" d="M1254.32,-317.19C1151.7,-309.85 955.27,-294.42 778.43,-272.13"/>
<polygon fill="#63b8ff" stroke="#63b8ff" points="778.78,-268.64 768.42,-270.85 777.9,-275.59 778.78,-268.64"/>
</a>
</g>
</g>
<!-- Node7 -->
<g id="Node000007" class="node">
<title>Node7</title>
<g id="a_Node000007"><a xlink:href="ExpertiseField_8h.html" target="_top" xlink:title="Declares the ExpertiseField enum class representing technician specializations, and a utility functio...">
<polygon fill="white" stroke="#666666" points="568.5,-74 403.5,-74 403.5,-55 568.5,-55 568.5,-74"/>
<text text-anchor="middle" x="486" y="-62" font-family="Helvetica,sans-Serif" font-size="10.00">TechMa/Types/ExpertiseField.h</text>
</a>
</g>
</g>
<!-- Node1&#45;&gt;Node7 -->
<g id="edge22_Node000001_Node000007" class="edge">
<title>Node1&#45;&gt;Node7</title>
<g id="a_edge22_Node000001_Node000007"><a xlink:title=" ">
<path fill="none" stroke="#63b8ff" d="M1254.47,-319.57C1095.68,-313.71 714.2,-297.4 588,-272 499.13,-254.11 447.72,-279.75 395,-206 370.19,-171.29 372.41,-146.2 395,-110 404.65,-94.54 421.41,-84.3 437.93,-77.59"/>
<polygon fill="#63b8ff" stroke="#63b8ff" points="439.4,-80.78 447.58,-74.04 436.98,-74.21 439.4,-80.78"/>
</a>
</g>
</g>
<!-- Node9 -->
<g id="Node000009" class="node">
<title>Node9</title>
<g id="a_Node000009"><a xlink:href="InterventionComplexity_8h.html" target="_top" xlink:title="Declares the InterventionComplexity enum class representing complexity levels of an intervention.">
<polygon fill="white" stroke="#666666" points="310,-140 164,-140 164,-110 310,-110 310,-140"/>
<text text-anchor="start" x="172" y="-128" font-family="Helvetica,sans-Serif" font-size="10.00">TechMa/Types/Intervention</text>
<text text-anchor="middle" x="237" y="-117" font-family="Helvetica,sans-Serif" font-size="10.00">Complexity.h</text>
</a>
</g>
</g>
<!-- Node1&#45;&gt;Node9 -->
<g id="edge23_Node000001_Node000009" class="edge">
<title>Node1&#45;&gt;Node9</title>
<g id="a_edge23_Node000001_Node000009"><a xlink:title=" ">
<path fill="none" stroke="#63b8ff" d="M1254.28,-321.53C1045.49,-319.7 441.33,-311.04 362,-272 307.77,-245.32 267.71,-183.31 248.91,-149.32"/>
<polygon fill="#63b8ff" stroke="#63b8ff" points="251.79,-147.28 243.97,-140.13 245.62,-150.6 251.79,-147.28"/>
</a>
</g>
</g>
<!-- Node10 -->
<g id="Node000010" class="node">
<title>Node10</title>
<g id="a_Node000010"><a xlink:href="InterventionStatus_8h.html" target="_top" xlink:title="Declares the InterventionStatus enum and its string conversion function.">
<polygon fill="white" stroke="#666666" points="146,-140 0,-140 0,-110 146,-110 146,-140"/>
<text text-anchor="start" x="8" y="-128" font-family="Helvetica,sans-Serif" font-size="10.00">TechMa/Types/Intervention</text>
<text text-anchor="middle" x="73" y="-117" font-family="Helvetica,sans-Serif" font-size="10.00">Status.h</text>
</a>
</g>
</g>
<!-- Node1&#45;&gt;Node10 -->
<g id="edge24_Node000001_Node000010" class="edge">
<title>Node1&#45;&gt;Node10</title>
<g id="a_edge24_Node000001_Node000010"><a xlink:title=" ">
<path fill="none" stroke="#63b8ff" d="M1254.47,-320.49C1040.03,-315.63 405.04,-299.08 316,-272 228.12,-245.27 139.21,-179.91 97.49,-146.46"/>
<polygon fill="#63b8ff" stroke="#63b8ff" points="99.53,-143.6 89.56,-140.02 95.12,-149.04 99.53,-143.6"/>
</a>
</g>
</g>
<!-- Node11 -->
<g id="Node000011" class="node">
<title>Node11</title>
<g id="a_Node000011"><a xlink:href="InterventionType_8h.html" target="_top" xlink:title="Declares the InterventionType enum class and a string conversion utility.">
<polygon fill="white" stroke="#666666" points="950,-140 804,-140 804,-110 950,-110 950,-140"/>
<text text-anchor="start" x="812" y="-128" font-family="Helvetica,sans-Serif" font-size="10.00">TechMa/Types/Intervention</text>
<text text-anchor="middle" x="877" y="-117" font-family="Helvetica,sans-Serif" font-size="10.00">Type.h</text>
</a>
</g>
</g>
<!-- Node1&#45;&gt;Node11 -->
<g id="edge25_Node000001_Node000011" class="edge">
<title>Node1&#45;&gt;Node11</title>
<g id="a_edge25_Node000001_Node000011"><a xlink:title=" ">
<path fill="none" stroke="#63b8ff" d="M1254.49,-322.42C1082.18,-322.7 650.55,-318.69 607,-272 543.42,-203.84 692.79,-160.66 793.78,-140.14"/>
<polygon fill="#63b8ff" stroke="#63b8ff" points="794.57,-143.56 803.7,-138.17 793.21,-136.69 794.57,-143.56"/>
</a>
</g>
</g>
<!-- Node16 -->
<g id="Node000016" class="node">
<title>Node16</title>
<g id="a_Node000016"><a xlink:href="TechListController_8h.html" target="_top" xlink:title="Declares the TechListController class, a Qt&#45;based controller for managing technician selection UI.">
<polygon fill="white" stroke="#666666" points="928,-272 786,-272 786,-242 928,-242 928,-272"/>
<text text-anchor="start" x="794" y="-260" font-family="Helvetica,sans-Serif" font-size="10.00">TechMa/Views/Controllers</text>
<text text-anchor="middle" x="857" y="-249" font-family="Helvetica,sans-Serif" font-size="10.00">/TechListController.h</text>
</a>
</g>
</g>
<!-- Node1&#45;&gt;Node16 -->
<g id="edge26_Node000001_Node000016" class="edge">
<title>Node1&#45;&gt;Node16</title>
<g id="a_edge26_Node000001_Node000016"><a xlink:title=" ">
<path fill="none" stroke="#63b8ff" d="M1254.26,-313.78C1176.57,-304.54 1048.19,-288.63 938,-272 937.9,-271.98 937.8,-271.97 937.7,-271.95"/>
<polygon fill="#63b8ff" stroke="#63b8ff" points="938.51,-268.54 928.09,-270.46 937.44,-275.46 938.51,-268.54"/>
</a>
</g>
</g>
<!-- Node19 -->
<g id="Node000019" class="node">
<title>Node19</title>
<g id="a_Node000019"><a xlink:title=" ">
<polygon fill="#e0e0e0" stroke="#999999" points="1057.5,-266.5 946.5,-266.5 946.5,-247.5 1057.5,-247.5 1057.5,-266.5"/>
<text text-anchor="middle" x="1002" y="-254.5" font-family="Helvetica,sans-Serif" font-size="10.00">QAbstractItemView</text>
</a>
</g>
</g>
<!-- Node1&#45;&gt;Node19 -->
<g id="edge29_Node000001_Node000019" class="edge">
<title>Node1&#45;&gt;Node19</title>
<g id="a_edge29_Node000001_Node000019"><a xlink:title=" ">
<path fill="none" stroke="#63b8ff" d="M1254.29,-308.71C1202.4,-298.85 1130.25,-284.94 1067,-272 1061.9,-270.96 1056.58,-269.85 1051.28,-268.73"/>
<polygon fill="#63b8ff" stroke="#63b8ff" points="1051.67,-265.23 1041.16,-266.57 1050.21,-272.08 1051.67,-265.23"/>
</a>
</g>
</g>
<!-- Node20 -->
<g id="Node000020" class="node">
<title>Node20</title>
<g id="a_Node000020"><a xlink:title=" ">
<polygon fill="#e0e0e0" stroke="#999999" points="1126,-266.5 1076,-266.5 1076,-247.5 1126,-247.5 1126,-266.5"/>
<text text-anchor="middle" x="1101" y="-254.5" font-family="Helvetica,sans-Serif" font-size="10.00">QColor</text>
</a>
</g>
</g>
<!-- Node1&#45;&gt;Node20 -->
<g id="edge30_Node000001_Node000020" class="edge">
<title>Node1&#45;&gt;Node20</title>
<g id="a_edge30_Node000001_Node000020"><a xlink:title=" ">
<path fill="none" stroke="#63b8ff" d="M1264.44,-307.97C1227.08,-298.83 1178.37,-286.02 1136,-272 1134.33,-271.45 1132.63,-270.86 1130.92,-270.25"/>
<polygon fill="#63b8ff" stroke="#63b8ff" points="1131.79,-266.83 1121.2,-266.57 1129.32,-273.38 1131.79,-266.83"/>
</a>
</g>
</g>
<!-- Node21 -->
<g id="Node000021" class="node">
<title>Node21</title>
<g id="a_Node000021"><a xlink:title=" ">
<polygon fill="#e0e0e0" stroke="#999999" points="1221.5,-266.5 1144.5,-266.5 1144.5,-247.5 1221.5,-247.5 1221.5,-266.5"/>
<text text-anchor="middle" x="1183" y="-254.5" font-family="Helvetica,sans-Serif" font-size="10.00">QComboBox</text>
</a>
</g>
</g>
<!-- Node1&#45;&gt;Node21 -->
<g id="edge31_Node000001_Node000021" class="edge">
<title>Node1&#45;&gt;Node21</title>
<g id="a_edge31_Node000001_Node000021"><a xlink:title=" ">
<path fill="none" stroke="#63b8ff" d="M1293.84,-307.95C1269.15,-296.83 1234.97,-281.42 1211.12,-270.67"/>
<polygon fill="#63b8ff" stroke="#63b8ff" points="1212.45,-267.44 1201.9,-266.52 1209.58,-273.82 1212.45,-267.44"/>
</a>
</g>
</g>
<!-- Node22 -->
<g id="Node000022" class="node">
<title>Node22</title>
<g id="a_Node000022"><a xlink:title=" ">
<polygon fill="#e0e0e0" stroke="#999999" points="1306,-266.5 1240,-266.5 1240,-247.5 1306,-247.5 1306,-266.5"/>
<text text-anchor="middle" x="1273" y="-254.5" font-family="Helvetica,sans-Serif" font-size="10.00">QDateEdit</text>
</a>
</g>
</g>
<!-- Node1&#45;&gt;Node22 -->
<g id="edge32_Node000001_Node000022" class="edge">
<title>Node1&#45;&gt;Node22</title>
<g id="a_edge32_Node000001_Node000022"><a xlink:title=" ">
<path fill="none" stroke="#63b8ff" d="M1313.46,-307.8C1305.51,-298.01 1294.92,-284.98 1286.57,-274.7"/>
<polygon fill="#63b8ff" stroke="#63b8ff" points="1289.21,-272.4 1280.19,-266.84 1283.78,-276.81 1289.21,-272.4"/>
</a>
</g>
</g>
<!-- Node23 -->
<g id="Node000023" class="node">
<title>Node23</title>
<g id="a_Node000023"><a xlink:title=" ">
<polygon fill="#e0e0e0" stroke="#999999" points="1431.5,-266.5 1324.5,-266.5 1324.5,-247.5 1431.5,-247.5 1431.5,-266.5"/>
<text text-anchor="middle" x="1378" y="-254.5" font-family="Helvetica,sans-Serif" font-size="10.00">QDialogButtonBox</text>
</a>
</g>
</g>
<!-- Node1&#45;&gt;Node23 -->
<g id="edge33_Node000001_Node000023" class="edge">
<title>Node1&#45;&gt;Node23</title>
<g id="a_edge33_Node000001_Node000023"><a xlink:title=" ">
<path fill="none" stroke="#63b8ff" d="M1336.76,-307.8C1344.86,-298.01 1355.66,-284.98 1364.17,-274.7"/>
<polygon fill="#63b8ff" stroke="#63b8ff" points="1366.99,-276.78 1370.68,-266.84 1361.6,-272.31 1366.99,-276.78"/>
</a>
</g>
</g>
<!-- Node24 -->
<g id="Node000024" class="node">
<title>Node24</title>
<g id="a_Node000024"><a xlink:title=" ">
<polygon fill="#e0e0e0" stroke="#999999" points="1532,-266.5 1450,-266.5 1450,-247.5 1532,-247.5 1532,-266.5"/>
<text text-anchor="middle" x="1491" y="-254.5" font-family="Helvetica,sans-Serif" font-size="10.00">QFormLayout</text>
</a>
</g>
</g>
<!-- Node1&#45;&gt;Node24 -->
<g id="edge34_Node000001_Node000024" class="edge">
<title>Node1&#45;&gt;Node24</title>
<g id="a_edge34_Node000001_Node000024"><a xlink:title=" ">
<path fill="none" stroke="#63b8ff" d="M1361.43,-307.95C1390.67,-296.68 1431.31,-281.01 1459.24,-270.25"/>
<polygon fill="#63b8ff" stroke="#63b8ff" points="1460.84,-273.38 1468.91,-266.52 1458.32,-266.85 1460.84,-273.38"/>
</a>
</g>
</g>
<!-- Node25 -->
<g id="Node000025" class="node">
<title>Node25</title>
<g id="a_Node000025"><a xlink:title=" ">
<polygon fill="#e0e0e0" stroke="#999999" points="1613.5,-266.5 1550.5,-266.5 1550.5,-247.5 1613.5,-247.5 1613.5,-266.5"/>
<text text-anchor="middle" x="1582" y="-254.5" font-family="Helvetica,sans-Serif" font-size="10.00">QLineEdit</text>
</a>
</g>
</g>
<!-- Node1&#45;&gt;Node25 -->
<g id="edge35_Node000001_Node000025" class="edge">
<title>Node1&#45;&gt;Node25</title>
<g id="a_edge35_Node000001_Node000025"><a xlink:title=" ">
<path fill="none" stroke="#63b8ff" d="M1393.55,-307.99C1436.24,-298.81 1492.15,-285.96 1541,-272 1543.47,-271.29 1546.01,-270.53 1548.55,-269.73"/>
<polygon fill="#63b8ff" stroke="#63b8ff" points="1549.86,-272.99 1558.28,-266.56 1547.69,-266.33 1549.86,-272.99"/>
</a>
</g>
</g>
<!-- Node26 -->
<g id="Node000026" class="node">
<title>Node26</title>
<g id="a_Node000026"><a xlink:title=" ">
<polygon fill="#e0e0e0" stroke="#999999" points="1690,-266.5 1632,-266.5 1632,-247.5 1690,-247.5 1690,-266.5"/>
<text text-anchor="middle" x="1661" y="-254.5" font-family="Helvetica,sans-Serif" font-size="10.00">QPainter</text>
</a>
</g>
</g>
<!-- Node1&#45;&gt;Node26 -->
<g id="edge36_Node000001_Node000026" class="edge">
<title>Node1&#45;&gt;Node26</title>
<g id="a_edge36_Node000001_Node000026"><a xlink:title=" ">
<path fill="none" stroke="#63b8ff" d="M1395.63,-313.93C1456.52,-306.08 1546.44,-292.33 1623,-272 1625.44,-271.35 1627.94,-270.61 1630.44,-269.82"/>
<polygon fill="#63b8ff" stroke="#63b8ff" points="1631.6,-273.12 1639.92,-266.56 1629.33,-266.5 1631.6,-273.12"/>
</a>
</g>
</g>
<!-- Node27 -->
<g id="Node000027" class="node">
<title>Node27</title>
<g id="a_Node000027"><a xlink:title=" ">
<polygon fill="#e0e0e0" stroke="#999999" points="1769.5,-266.5 1708.5,-266.5 1708.5,-247.5 1769.5,-247.5 1769.5,-266.5"/>
<text text-anchor="middle" x="1739" y="-254.5" font-family="Helvetica,sans-Serif" font-size="10.00">QPixmap</text>
</a>
</g>
</g>
<!-- Node1&#45;&gt;Node27 -->
<g id="edge37_Node000001_Node000027" class="edge">
<title>Node1&#45;&gt;Node27</title>
<g id="a_edge37_Node000001_Node000027"><a xlink:title=" ">
<path fill="none" stroke="#63b8ff" d="M1395.75,-316.86C1471.55,-310.36 1594.99,-296.88 1699,-272 1701.82,-271.33 1704.71,-270.53 1707.6,-269.66"/>
<polygon fill="#63b8ff" stroke="#63b8ff" points="1708.81,-272.95 1717.23,-266.52 1706.64,-266.29 1708.81,-272.95"/>
</a>
</g>
</g>
<!-- Node28 -->
<g id="Node000028" class="node">
<title>Node28</title>
<g id="a_Node000028"><a xlink:title=" ">
<polygon fill="#e0e0e0" stroke="#999999" points="1868,-266.5 1788,-266.5 1788,-247.5 1868,-247.5 1868,-266.5"/>
<text text-anchor="middle" x="1828" y="-254.5" font-family="Helvetica,sans-Serif" font-size="10.00">QPushButton</text>
</a>
</g>
</g>
<!-- Node1&#45;&gt;Node28 -->
<g id="edge38_Node000001_Node000028" class="edge">
<title>Node1&#45;&gt;Node28</title>
<g id="a_edge38_Node000001_Node000028"><a xlink:title=" ">
<path fill="none" stroke="#63b8ff" d="M1395.55,-317.93C1485.31,-311.9 1644.78,-298.37 1779,-272 1783.1,-271.19 1787.36,-270.21 1791.57,-269.14"/>
<polygon fill="#63b8ff" stroke="#63b8ff" points="1792.5,-272.51 1801.24,-266.53 1790.67,-265.76 1792.5,-272.51"/>
</a>
</g>
</g>
<!-- Node29 -->
<g id="Node000029" class="node">
<title>Node29</title>
<g id="a_Node000029"><a xlink:title=" ">
<polygon fill="#e0e0e0" stroke="#999999" points="1964,-266.5 1886,-266.5 1886,-247.5 1964,-247.5 1964,-266.5"/>
<text text-anchor="middle" x="1925" y="-254.5" font-family="Helvetica,sans-Serif" font-size="10.00">QShowEvent</text>
</a>
</g>
</g>
<!-- Node1&#45;&gt;Node29 -->
<g id="edge39_Node000001_Node000029" class="edge">
<title>Node1&#45;&gt;Node29</title>
<g id="a_edge39_Node000001_Node000029"><a xlink:title=" ">
<path fill="none" stroke="#63b8ff" d="M1395.75,-319.96C1501.35,-315.94 1706.11,-304.35 1877,-272 1880.96,-271.25 1885.07,-270.31 1889.14,-269.27"/>
<polygon fill="#63b8ff" stroke="#63b8ff" points="1890.34,-272.57 1899.07,-266.56 1888.5,-265.82 1890.34,-272.57"/>
</a>
</g>
</g>
<!-- Node30 -->
<g id="Node000030" class="node">
<title>Node30</title>
<g id="a_Node000030"><a xlink:title=" ">
<polygon fill="#e0e0e0" stroke="#999999" points="2046,-266.5 1982,-266.5 1982,-247.5 2046,-247.5 2046,-266.5"/>
<text text-anchor="middle" x="2014" y="-254.5" font-family="Helvetica,sans-Serif" font-size="10.00">QSpinBox</text>
</a>
</g>
</g>
<!-- Node1&#45;&gt;Node30 -->
<g id="edge40_Node000001_Node000030" class="edge">
<title>Node1&#45;&gt;Node30</title>
<g id="a_edge40_Node000001_Node000030"><a xlink:title=" ">
<path fill="none" stroke="#63b8ff" d="M1395.81,-322.33C1515.83,-321.61 1766.33,-314.55 1973,-272 1976.07,-271.37 1979.22,-270.57 1982.36,-269.68"/>
<polygon fill="#63b8ff" stroke="#63b8ff" points="1983.67,-272.94 1992.15,-266.6 1981.56,-266.26 1983.67,-272.94"/>
</a>
</g>
</g>
<!-- Node31 -->
<g id="Node000031" class="node">
<title>Node31</title>
<g id="a_Node000031"><a xlink:title=" ">
<polygon fill="#e0e0e0" stroke="#999999" points="2117.5,-266.5 2064.5,-266.5 2064.5,-247.5 2117.5,-247.5 2117.5,-266.5"/>
<text text-anchor="middle" x="2091" y="-254.5" font-family="Helvetica,sans-Serif" font-size="10.00">QTimer</text>
</a>
</g>
</g>
<!-- Node1&#45;&gt;Node31 -->
<g id="edge41_Node000001_Node000031" class="edge">
<title>Node1&#45;&gt;Node31</title>
<g id="a_edge41_Node000001_Node000031"><a xlink:title=" ">
<path fill="none" stroke="#63b8ff" d="M1395.53,-319.88C1553.32,-314.7 1930.71,-299.75 2055,-272 2057.52,-271.44 2060.1,-270.73 2062.65,-269.93"/>
<polygon fill="#63b8ff" stroke="#63b8ff" points="2064.02,-273.16 2072.28,-266.51 2061.68,-266.56 2064.02,-273.16"/>
</a>
</g>
</g>
<!-- Node32 -->
<g id="Node000032" class="node">
<title>Node32</title>
<g id="a_Node000032"><a xlink:title=" ">
<polygon fill="#e0e0e0" stroke="#999999" points="2194.5,-266.5 2135.5,-266.5 2135.5,-247.5 2194.5,-247.5 2194.5,-266.5"/>
<text text-anchor="middle" x="2165" y="-254.5" font-family="Helvetica,sans-Serif" font-size="10.00">QVariant</text>
</a>
</g>
</g>
<!-- Node1&#45;&gt;Node32 -->
<g id="edge42_Node000001_Node000032" class="edge">
<title>Node1&#45;&gt;Node32</title>
<g id="a_edge42_Node000001_Node000032"><a xlink:title=" ">
<path fill="none" stroke="#63b8ff" d="M1395.76,-320.22C1564.81,-315.54 1988.36,-301.21 2127,-272 2129.84,-271.4 2132.75,-270.63 2135.63,-269.76"/>
<polygon fill="#63b8ff" stroke="#63b8ff" points="2136.85,-273.05 2145.21,-266.53 2134.61,-266.42 2136.85,-273.05"/>
</a>
</g>
</g>
<!-- Node3 -->
<g id="Node000003" class="node">
<title>Node3</title>
<g id="a_Node000003"><a xlink:href="InterventionData_8h.html" target="_top" xlink:title="Defines the InterventionData structure which holds all information related to an intervention.">
<polygon fill="white" stroke="#666666" points="559.5,-206 404.5,-206 404.5,-176 559.5,-176 559.5,-206"/>
<text text-anchor="start" x="412.5" y="-194" font-family="Helvetica,sans-Serif" font-size="10.00">TechMa/Entities/Intervention</text>
<text text-anchor="middle" x="482" y="-183" font-family="Helvetica,sans-Serif" font-size="10.00">Data.h</text>
</a>
</g>
</g>
<!-- Node2&#45;&gt;Node3 -->
<g id="edge2_Node000002_Node000003" class="edge">
<title>Node2&#45;&gt;Node3</title>
<g id="a_edge2_Node000002_Node000003"><a xlink:title=" ">
<path fill="none" stroke="#63b8ff" d="M645.91,-241.95C614.05,-232.24 571.47,-219.27 537.7,-208.98"/>
<polygon fill="#63b8ff" stroke="#63b8ff" points="538.56,-205.58 527.98,-206.01 536.52,-212.28 538.56,-205.58"/>
</a>
</g>
</g>
<!-- Node14 -->
<g id="Node000014" class="node">
<title>Node14</title>
<g id="a_Node000014"><a xlink:title=" ">
<polygon fill="#e0e0e0" stroke="#999999" points="1024,-134.5 968,-134.5 968,-115.5 1024,-115.5 1024,-134.5"/>
<text text-anchor="middle" x="996" y="-122.5" font-family="Helvetica,sans-Serif" font-size="10.00">optional</text>
</a>
</g>
</g>
<!-- Node2&#45;&gt;Node14 -->
<g id="edge21_Node000002_Node000014" class="edge">
<title>Node2&#45;&gt;Node14</title>
<g id="a_edge21_Node000002_Node000014"><a xlink:title=" ">
<path fill="none" stroke="#63b8ff" d="M687.23,-241.9C682.22,-224.2 677.08,-194 693,-176 732.53,-131.33 901.18,-154.65 959,-140 961.45,-139.38 963.95,-138.65 966.45,-137.85"/>
<polygon fill="#63b8ff" stroke="#63b8ff" points="967.62,-141.15 975.91,-134.55 965.32,-134.54 967.62,-141.15"/>
</a>
</g>
</g>
<!-- Node15 -->
<g id="Node000015" class="node">
<title>Node15</title>
<g id="a_Node000015"><a xlink:title=" ">
<polygon fill="#e0e0e0" stroke="#999999" points="758,-200.5 702,-200.5 702,-181.5 758,-181.5 758,-200.5"/>
<text text-anchor="middle" x="730" y="-188.5" font-family="Helvetica,sans-Serif" font-size="10.00">QDialog</text>
</a>
</g>
</g>
<!-- Node2&#45;&gt;Node15 -->
<g id="edge20_Node000002_Node000015" class="edge">
<title>Node2&#45;&gt;Node15</title>
<g id="a_edge20_Node000002_Node000015"><a xlink:title=" ">
<path fill="none" stroke="#63b8ff" d="M700.43,-241.8C706.07,-232.31 713.52,-219.76 719.53,-209.63"/>
<polygon fill="#63b8ff" stroke="#63b8ff" points="722.65,-211.23 724.75,-200.84 716.63,-207.66 722.65,-211.23"/>
</a>
</g>
</g>
<!-- Node4 -->
<g id="Node000004" class="node">
<title>Node4</title>
<g id="a_Node000004"><a xlink:href="ATechnician_8h.html" target="_top" xlink:title="Defines the abstract base class ATechnician representing a technician entity.">
<polygon fill="white" stroke="#666666" points="748,-134.5 586,-134.5 586,-115.5 748,-115.5 748,-134.5"/>
<text text-anchor="middle" x="667" y="-122.5" font-family="Helvetica,sans-Serif" font-size="10.00">TechMa/Entities/ATechnician.h</text>
</a>
</g>
</g>
<!-- Node3&#45;&gt;Node4 -->
<g id="edge3_Node000003_Node000004" class="edge">
<title>Node3&#45;&gt;Node4</title>
<g id="a_edge3_Node000003_Node000004"><a xlink:title=" ">
<path fill="none" stroke="#63b8ff" d="M522.6,-175.95C555.61,-164.53 601.67,-148.6 632.82,-137.82"/>
<polygon fill="#63b8ff" stroke="#63b8ff" points="634.07,-141.09 642.38,-134.52 631.78,-134.48 634.07,-141.09"/>
</a>
</g>
</g>
<!-- Node5 -->
<g id="Node000005" class="node">
<title>Node5</title>
<g id="a_Node000005"><a xlink:title=" ">
<polygon fill="#e0e0e0" stroke="#999999" points="571,-19 527,-19 527,0 571,0 571,-19"/>
<text text-anchor="middle" x="549" y="-7" font-family="Helvetica,sans-Serif" font-size="10.00">string</text>
</a>
</g>
</g>
<!-- Node3&#45;&gt;Node5 -->
<g id="edge19_Node000003_Node000005" class="edge">
<title>Node3&#45;&gt;Node5</title>
<g id="a_edge19_Node000003_Node000005"><a xlink:title=" ">
<path fill="none" stroke="#63b8ff" d="M438.87,-175.87C422.15,-168.07 404.72,-156.51 395,-140 375.83,-107.44 371.27,-85.18 394,-55 408.76,-35.41 475.95,-21.78 516.87,-15.14"/>
<polygon fill="#63b8ff" stroke="#63b8ff" points="517.57,-18.57 526.9,-13.57 516.48,-11.66 517.57,-18.57"/>
</a>
</g>
</g>
<!-- Node3&#45;&gt;Node7 -->
<g id="edge10_Node000003_Node000007" class="edge">
<title>Node3&#45;&gt;Node7</title>
<g id="a_edge10_Node000003_Node000007"><a xlink:title=" ">
<path fill="none" stroke="#63b8ff" d="M482.46,-175.72C483.18,-153.12 484.6,-109.12 485.4,-84.09"/>
<polygon fill="#63b8ff" stroke="#63b8ff" points="488.9,-84.18 485.72,-74.07 481.91,-83.95 488.9,-84.18"/>
</a>
</g>
</g>
<!-- Node8 -->
<g id="Node000008" class="node">
<title>Node8</title>
<g id="a_Node000008"><a xlink:href="Location_8h.html" target="_top" xlink:title="Defines the GPSCoords and Location structures for representing geographical locations.">
<polygon fill="white" stroke="#666666" points="849,-74 703,-74 703,-55 849,-55 849,-74"/>
<text text-anchor="middle" x="776" y="-62" font-family="Helvetica,sans-Serif" font-size="10.00">TechMa/Entities/Location.h</text>
</a>
</g>
</g>
<!-- Node3&#45;&gt;Node8 -->
<g id="edge8_Node000003_Node000008" class="edge">
<title>Node3&#45;&gt;Node8</title>
<g id="a_edge8_Node000003_Node000008"><a xlink:title=" ">
<path fill="none" stroke="#63b8ff" d="M559.84,-177.95C638.57,-165.45 749.71,-146.79 757,-140 772.15,-125.87 775.91,-101.5 776.53,-84.49"/>
<polygon fill="#63b8ff" stroke="#63b8ff" points="780.03,-84.12 776.55,-74.11 773.03,-84.1 780.03,-84.12"/>
</a>
</g>
</g>
<!-- Node3&#45;&gt;Node9 -->
<g id="edge11_Node000003_Node000009" class="edge">
<title>Node3&#45;&gt;Node9</title>
<g id="a_edge11_Node000003_Node000009"><a xlink:title=" ">
<path fill="none" stroke="#63b8ff" d="M428.23,-175.95C390.58,-166.12 340.11,-152.93 300.47,-142.58"/>
<polygon fill="#63b8ff" stroke="#63b8ff" points="301.2,-139.15 290.64,-140.01 299.43,-145.93 301.2,-139.15"/>
</a>
</g>
</g>
<!-- Node3&#45;&gt;Node10 -->
<g id="edge12_Node000003_Node000010" class="edge">
<title>Node3&#45;&gt;Node10</title>
<g id="a_edge12_Node000003_Node000010"><a xlink:title=" ">
<path fill="none" stroke="#63b8ff" d="M404.31,-178.51C340.35,-168.96 247.02,-154.82 156.22,-140.18"/>
<polygon fill="#63b8ff" stroke="#63b8ff" points="156.74,-136.72 146.31,-138.58 155.62,-143.63 156.74,-136.72"/>
</a>
</g>
</g>
<!-- Node3&#45;&gt;Node11 -->
<g id="edge14_Node000003_Node000011" class="edge">
<title>Node3&#45;&gt;Node11</title>
<g id="a_edge14_Node000003_Node000011"><a xlink:title=" ">
<path fill="none" stroke="#63b8ff" d="M559.57,-177.43C627.13,-166.49 724.83,-150.66 793.96,-139.45"/>
<polygon fill="#63b8ff" stroke="#63b8ff" points="794.63,-142.89 803.94,-137.84 793.51,-135.98 794.63,-142.89"/>
</a>
</g>
</g>
<!-- Node12 -->
<g id="Node000012" class="node">
<title>Node12</title>
<g id="a_Node000012"><a xlink:title=" ">
<polygon fill="#e0e0e0" stroke="#999999" points="454,-134.5 404,-134.5 404,-115.5 454,-115.5 454,-134.5"/>
<text text-anchor="middle" x="429" y="-122.5" font-family="Helvetica,sans-Serif" font-size="10.00">chrono</text>
</a>
</g>
</g>
<!-- Node3&#45;&gt;Node12 -->
<g id="edge16_Node000003_Node000012" class="edge">
<title>Node3&#45;&gt;Node12</title>
<g id="a_edge16_Node000003_Node000012"><a xlink:title=" ">
<path fill="none" stroke="#63b8ff" d="M470.24,-175.8C462.14,-166.01 451.34,-152.98 442.83,-142.7"/>
<polygon fill="#63b8ff" stroke="#63b8ff" points="445.4,-140.31 436.32,-134.84 440.01,-144.78 445.4,-140.31"/>
</a>
</g>
</g>
<!-- Node13 -->
<g id="Node000013" class="node">
<title>Node13</title>
<g id="a_Node000013"><a xlink:title=" ">
<polygon fill="#e0e0e0" stroke="#999999" points="568,-134.5 510,-134.5 510,-115.5 568,-115.5 568,-134.5"/>
<text text-anchor="middle" x="539" y="-122.5" font-family="Helvetica,sans-Serif" font-size="10.00">memory</text>
</a>
</g>
</g>
<!-- Node3&#45;&gt;Node13 -->
<g id="edge17_Node000003_Node000013" class="edge">
<title>Node3&#45;&gt;Node13</title>
<g id="a_edge17_Node000003_Node000013"><a xlink:title=" ">
<path fill="none" stroke="#63b8ff" d="M494.65,-175.8C503.45,-165.92 515.2,-152.72 524.4,-142.39"/>
<polygon fill="#63b8ff" stroke="#63b8ff" points="527.09,-144.64 531.12,-134.84 521.86,-139.98 527.09,-144.64"/>
</a>
</g>
</g>
<!-- Node3&#45;&gt;Node14 -->
<g id="edge18_Node000003_Node000014" class="edge">
<title>Node3&#45;&gt;Node14</title>
<g id="a_edge18_Node000003_Node000014"><a xlink:title=" ">
<path fill="none" stroke="#63b8ff" d="M559.53,-182.97C684.7,-171.47 921.18,-148.98 959,-140 961.51,-139.4 964.09,-138.68 966.65,-137.88"/>
<polygon fill="#63b8ff" stroke="#63b8ff" points="968.03,-141.11 976.32,-134.52 965.73,-134.49 968.03,-141.11"/>
</a>
</g>
</g>
<!-- Node4&#45;&gt;Node5 -->
<g id="edge4_Node000004_Node000005" class="edge">
<title>Node4&#45;&gt;Node5</title>
<g id="a_edge4_Node000004_Node000005"><a xlink:title=" ">
<path fill="none" stroke="#63b8ff" d="M658.13,-115.47C638.4,-96.49 590.62,-50.53 565.33,-26.21"/>
<polygon fill="#63b8ff" stroke="#63b8ff" points="567.61,-23.54 557.97,-19.13 562.75,-28.58 567.61,-23.54"/>
</a>
</g>
</g>
<!-- Node6 -->
<g id="Node000006" class="node">
<title>Node6</title>
<g id="a_Node000006"><a xlink:title=" ">
<polygon fill="#e0e0e0" stroke="#999999" points="684.5,-74 637.5,-74 637.5,-55 684.5,-55 684.5,-74"/>
<text text-anchor="middle" x="661" y="-62" font-family="Helvetica,sans-Serif" font-size="10.00">vector</text>
</a>
</g>
</g>
<!-- Node4&#45;&gt;Node6 -->
<g id="edge5_Node000004_Node000006" class="edge">
<title>Node4&#45;&gt;Node6</title>
<g id="a_edge5_Node000004_Node000006"><a xlink:title=" ">
<path fill="none" stroke="#63b8ff" d="M666.11,-115.37C665.28,-107.25 664.01,-94.81 662.94,-84.39"/>
<polygon fill="#63b8ff" stroke="#63b8ff" points="666.39,-83.76 661.89,-74.17 659.43,-84.47 666.39,-83.76"/>
</a>
</g>
</g>
<!-- Node4&#45;&gt;Node7 -->
<g id="edge6_Node000004_Node000007" class="edge">
<title>Node4&#45;&gt;Node7</title>
<g id="a_edge6_Node000004_Node000007"><a xlink:title=" ">
<path fill="none" stroke="#63b8ff" d="M640.68,-115.49C609.45,-105.4 557.2,-88.51 522.18,-77.19"/>
<polygon fill="#63b8ff" stroke="#63b8ff" points="522.94,-73.76 512.35,-74.02 520.79,-80.42 522.94,-73.76"/>
</a>
</g>
</g>
<!-- Node7&#45;&gt;Node5 -->
<g id="edge7_Node000007_Node000005" class="edge">
<title>Node7&#45;&gt;Node5</title>
<g id="a_edge7_Node000007_Node000005"><a xlink:title=" ">
<path fill="none" stroke="#63b8ff" d="M496.12,-54.98C505.44,-47.15 519.47,-35.34 530.74,-25.86"/>
<polygon fill="#63b8ff" stroke="#63b8ff" points="533.29,-28.29 538.69,-19.17 528.79,-22.93 533.29,-28.29"/>
</a>
</g>
</g>
<!-- Node8&#45;&gt;Node5 -->
<g id="edge9_Node000008_Node000005" class="edge">
<title>Node8&#45;&gt;Node5</title>
<g id="a_edge9_Node000008_Node000005"><a xlink:title=" ">
<path fill="none" stroke="#63b8ff" d="M739.53,-54.98C695.74,-44.76 622.99,-27.78 581.2,-18.02"/>
<polygon fill="#63b8ff" stroke="#63b8ff" points="581.81,-14.57 571.27,-15.7 580.22,-21.38 581.81,-14.57"/>
</a>
</g>
</g>
<!-- Node10&#45;&gt;Node5 -->
<g id="edge13_Node000010_Node000005" class="edge">
<title>Node10&#45;&gt;Node5</title>
<g id="a_edge13_Node000010_Node000005"><a xlink:title=" ">
<path fill="none" stroke="#63b8ff" d="M119.92,-110C170.15,-95.27 252.31,-71.92 324,-55 392.2,-38.9 472.97,-23.91 516.79,-16.11"/>
<polygon fill="#63b8ff" stroke="#63b8ff" points="517.61,-19.52 526.85,-14.33 516.39,-12.62 517.61,-19.52"/>
</a>
</g>
</g>
<!-- Node11&#45;&gt;Node5 -->
<g id="edge15_Node000011_Node000005" class="edge">
<title>Node11&#45;&gt;Node5</title>
<g id="a_edge15_Node000011_Node000005"><a xlink:title=" ">
<path fill="none" stroke="#63b8ff" d="M877.35,-109.76C876.91,-93.9 873.56,-68.72 858,-55 817.4,-19.2 652.04,-12.18 581.32,-10.82"/>
<polygon fill="#63b8ff" stroke="#63b8ff" points="581.27,-7.32 571.21,-10.65 581.15,-14.31 581.27,-7.32"/>
</a>
</g>
</g>
<!-- Node17 -->
<g id="Node000017" class="node">
<title>Node17</title>
<g id="a_Node000017"><a xlink:href="ATechnicianObserver_8h.html" target="_top" xlink:title="Declares the ATechnicianObserver interface used for observing technician&#45;related changes.">
<polygon fill="white" stroke="#666666" points="937.5,-206 776.5,-206 776.5,-176 937.5,-176 937.5,-206"/>
<text text-anchor="start" x="784.5" y="-194" font-family="Helvetica,sans-Serif" font-size="10.00">TechMa/Observer/ATechnician</text>
<text text-anchor="middle" x="857" y="-183" font-family="Helvetica,sans-Serif" font-size="10.00">Observer.h</text>
</a>
</g>
</g>
<!-- Node16&#45;&gt;Node17 -->
<g id="edge27_Node000016_Node000017" class="edge">
<title>Node16&#45;&gt;Node17</title>
<g id="a_edge27_Node000016_Node000017"><a xlink:title=" ">
<path fill="none" stroke="#63b8ff" d="M857,-241.8C857,-234.34 857,-224.99 857,-216.41"/>
<polygon fill="#63b8ff" stroke="#63b8ff" points="860.5,-216.16 857,-206.16 853.5,-216.16 860.5,-216.16"/>
</a>
</g>
</g>
<!-- Node18 -->
<g id="Node000018" class="node">
<title>Node18</title>
<g id="a_Node000018"><a xlink:title=" ">
<polygon fill="#e0e0e0" stroke="#999999" points="1012,-200.5 956,-200.5 956,-181.5 1012,-181.5 1012,-200.5"/>
<text text-anchor="middle" x="984" y="-188.5" font-family="Helvetica,sans-Serif" font-size="10.00">QObject</text>
</a>
</g>
</g>
<!-- Node16&#45;&gt;Node18 -->
<g id="edge28_Node000016_Node000018" class="edge">
<title>Node16&#45;&gt;Node18</title>
<g id="a_edge28_Node000016_Node000018"><a xlink:title=" ">
<path fill="none" stroke="#63b8ff" d="M884.87,-241.95C906.65,-230.98 936.7,-215.83 957.99,-205.11"/>
<polygon fill="#63b8ff" stroke="#63b8ff" points="959.74,-208.14 967.1,-200.52 956.59,-201.89 959.74,-208.14"/>
</a>
</g>
</g>
</g>
</svg>
