<?xml version="1.0" encoding="UTF-8" standalone="no"?>
<!DOCTYPE svg PUBLIC "-//W3C//DTD SVG 1.1//EN"
 "http://www.w3.org/Graphics/SVG/1.1/DTD/svg11.dtd">
<!-- Generated by graphviz version 2.43.0 (0)
 -->
<!-- Title: include/TechMa/Views/Widgets/CreateInterventionDialog.h Pages: 1 -->
<svg width="800pt" height="302pt"
 viewBox="0.00 0.00 800.29 302.00" xmlns="http://www.w3.org/2000/svg" xmlns:xlink="http://www.w3.org/1999/xlink">
<g id="graph0" class="graph" transform="scale(1 1) rotate(0) translate(4 298)">
<title>include/TechMa/Views/Widgets/CreateInterventionDialog.h</title>
<!-- Node1 -->
<g id="Node000001" class="node">
<title>Node1</title>
<g id="a_Node000001"><a xlink:title="Declares the CreateInterventionDialog class, a QDialog used to create new interventions.">
<polygon fill="#999999" stroke="#666666" points="775.29,-294 621.29,-294 621.29,-253 775.29,-253 775.29,-294"/>
<text text-anchor="start" x="629.29" y="-282" font-family="Helvetica,sans-Serif" font-size="10.00">include/TechMa/Views</text>
<text text-anchor="start" x="629.29" y="-271" font-family="Helvetica,sans-Serif" font-size="10.00">/Widgets/CreateIntervention</text>
<text text-anchor="middle" x="698.29" y="-260" font-family="Helvetica,sans-Serif" font-size="10.00">Dialog.h</text>
</a>
</g>
</g>
<!-- Node2 -->
<g id="Node000002" class="node">
<title>Node2</title>
<g id="a_Node000002"><a xlink:href="InterventionData_8h.html" target="_top" xlink:title="Defines the InterventionData structure which holds all information related to an intervention.">
<polygon fill="white" stroke="#666666" points="603.79,-217 448.79,-217 448.79,-187 603.79,-187 603.79,-217"/>
<text text-anchor="start" x="456.79" y="-205" font-family="Helvetica,sans-Serif" font-size="10.00">TechMa/Entities/Intervention</text>
<text text-anchor="middle" x="526.29" y="-194" font-family="Helvetica,sans-Serif" font-size="10.00">Data.h</text>
</a>
</g>
</g>
<!-- Node1&#45;&gt;Node2 -->
<g id="edge1_Node000001_Node000002" class="edge">
<title>Node1&#45;&gt;Node2</title>
<g id="a_edge1_Node000001_Node000002"><a xlink:title=" ">
<path fill="none" stroke="#63b8ff" d="M649.93,-252.96C624.93,-242.85 594.64,-230.62 570.3,-220.78"/>
<polygon fill="#63b8ff" stroke="#63b8ff" points="571.54,-217.51 560.95,-217 568.91,-224 571.54,-217.51"/>
</a>
</g>
</g>
<!-- Node13 -->
<g id="Node000013" class="node">
<title>Node13</title>
<g id="a_Node000013"><a xlink:title=" ">
<polygon fill="#e0e0e0" stroke="#999999" points="792.29,-145.5 736.29,-145.5 736.29,-126.5 792.29,-126.5 792.29,-145.5"/>
<text text-anchor="middle" x="764.29" y="-133.5" font-family="Helvetica,sans-Serif" font-size="10.00">optional</text>
</a>
</g>
</g>
<!-- Node1&#45;&gt;Node13 -->
<g id="edge20_Node000001_Node000013" class="edge">
<title>Node1&#45;&gt;Node13</title>
<g id="a_edge20_Node000001_Node000013"><a xlink:title=" ">
<path fill="none" stroke="#63b8ff" d="M699.69,-252.8C701.63,-234.78 706.27,-207.83 717.29,-187 724.26,-173.84 735.63,-161.61 745.44,-152.54"/>
<polygon fill="#63b8ff" stroke="#63b8ff" points="748,-154.95 753.18,-145.71 743.37,-149.7 748,-154.95"/>
</a>
</g>
</g>
<!-- Node14 -->
<g id="Node000014" class="node">
<title>Node14</title>
<g id="a_Node000014"><a xlink:title=" ">
<polygon fill="#e0e0e0" stroke="#999999" points="782.29,-211.5 726.29,-211.5 726.29,-192.5 782.29,-192.5 782.29,-211.5"/>
<text text-anchor="middle" x="754.29" y="-199.5" font-family="Helvetica,sans-Serif" font-size="10.00">QDialog</text>
</a>
</g>
</g>
<!-- Node1&#45;&gt;Node14 -->
<g id="edge19_Node000001_Node000014" class="edge">
<title>Node1&#45;&gt;Node14</title>
<g id="a_edge19_Node000001_Node000014"><a xlink:title=" ">
<path fill="none" stroke="#63b8ff" d="M714.19,-252.77C722.6,-242.34 732.8,-229.68 740.81,-219.73"/>
<polygon fill="#63b8ff" stroke="#63b8ff" points="743.64,-221.8 747.19,-211.82 738.19,-217.41 743.64,-221.8"/>
</a>
</g>
</g>
<!-- Node3 -->
<g id="Node000003" class="node">
<title>Node3</title>
<g id="a_Node000003"><a xlink:href="ATechnician_8h.html" target="_top" xlink:title="Defines the abstract base class ATechnician representing a technician entity.">
<polygon fill="white" stroke="#666666" points="164.29,-145.5 2.29,-145.5 2.29,-126.5 164.29,-126.5 164.29,-145.5"/>
<text text-anchor="middle" x="83.29" y="-133.5" font-family="Helvetica,sans-Serif" font-size="10.00">TechMa/Entities/ATechnician.h</text>
</a>
</g>
</g>
<!-- Node2&#45;&gt;Node3 -->
<g id="edge2_Node000002_Node000003" class="edge">
<title>Node2&#45;&gt;Node3</title>
<g id="a_edge2_Node000002_Node000003"><a xlink:title=" ">
<path fill="none" stroke="#63b8ff" d="M448.62,-189.78C364.86,-177.68 232.75,-158.59 152.45,-146.99"/>
<polygon fill="#63b8ff" stroke="#63b8ff" points="152.83,-143.51 142.44,-145.54 151.83,-150.44 152.83,-143.51"/>
</a>
</g>
</g>
<!-- Node4 -->
<g id="Node000004" class="node">
<title>Node4</title>
<g id="a_Node000004"><a xlink:title=" ">
<polygon fill="#e0e0e0" stroke="#999999" points="346.29,-19 302.29,-19 302.29,0 346.29,0 346.29,-19"/>
<text text-anchor="middle" x="324.29" y="-7" font-family="Helvetica,sans-Serif" font-size="10.00">string</text>
</a>
</g>
</g>
<!-- Node2&#45;&gt;Node4 -->
<g id="edge18_Node000002_Node000004" class="edge">
<title>Node2&#45;&gt;Node4</title>
<g id="a_edge18_Node000002_Node000004"><a xlink:title=" ">
<path fill="none" stroke="#63b8ff" d="M448.54,-194.25C411.11,-187.82 367.3,-175.31 334.29,-151 296.94,-123.49 279.4,-99.26 293.29,-55 296.53,-44.71 303.07,-34.72 309.32,-26.82"/>
<polygon fill="#63b8ff" stroke="#63b8ff" points="312.02,-29.04 315.81,-19.15 306.68,-24.52 312.02,-29.04"/>
</a>
</g>
</g>
<!-- Node6 -->
<g id="Node000006" class="node">
<title>Node6</title>
<g id="a_Node000006"><a xlink:href="ExpertiseField_8h.html" target="_top" xlink:title="Declares the ExpertiseField enum class representing technician specializations, and a utility functio...">
<polygon fill="white" stroke="#666666" points="245.79,-79.5 80.79,-79.5 80.79,-60.5 245.79,-60.5 245.79,-79.5"/>
<text text-anchor="middle" x="163.29" y="-67.5" font-family="Helvetica,sans-Serif" font-size="10.00">TechMa/Types/ExpertiseField.h</text>
</a>
</g>
</g>
<!-- Node2&#45;&gt;Node6 -->
<g id="edge9_Node000002_Node000006" class="edge">
<title>Node2&#45;&gt;Node6</title>
<g id="a_edge9_Node000002_Node000006"><a xlink:title=" ">
<path fill="none" stroke="#63b8ff" d="M448.64,-196.68C393.85,-191.22 319.88,-178.88 260.29,-151 226.88,-135.36 195.31,-105.51 177.71,-87.02"/>
<polygon fill="#63b8ff" stroke="#63b8ff" points="180.23,-84.59 170.86,-79.65 175.1,-89.35 180.23,-84.59"/>
</a>
</g>
</g>
<!-- Node7 -->
<g id="Node000007" class="node">
<title>Node7</title>
<g id="a_Node000007"><a xlink:href="Location_8h.html" target="_top" xlink:title="Defines the GPSCoords and Location structures for representing geographical locations.">
<polygon fill="white" stroke="#666666" points="448.29,-79.5 302.29,-79.5 302.29,-60.5 448.29,-60.5 448.29,-79.5"/>
<text text-anchor="middle" x="375.29" y="-67.5" font-family="Helvetica,sans-Serif" font-size="10.00">TechMa/Entities/Location.h</text>
</a>
</g>
</g>
<!-- Node2&#45;&gt;Node7 -->
<g id="edge7_Node000002_Node000007" class="edge">
<title>Node2&#45;&gt;Node7</title>
<g id="a_edge7_Node000002_Node000007"><a xlink:title=" ">
<path fill="none" stroke="#63b8ff" d="M448.37,-189.33C404.73,-181.03 356.49,-168.28 343.29,-151 328.47,-131.59 345.58,-104.39 359.91,-87.24"/>
<polygon fill="#63b8ff" stroke="#63b8ff" points="362.57,-89.52 366.57,-79.71 357.33,-84.88 362.57,-89.52"/>
</a>
</g>
</g>
<!-- Node8 -->
<g id="Node000008" class="node">
<title>Node8</title>
<g id="a_Node000008"><a xlink:href="InterventionComplexity_8h.html" target="_top" xlink:title="Declares the InterventionComplexity enum class representing complexity levels of an intervention.">
<polygon fill="white" stroke="#666666" points="498.29,-151 352.29,-151 352.29,-121 498.29,-121 498.29,-151"/>
<text text-anchor="start" x="360.29" y="-139" font-family="Helvetica,sans-Serif" font-size="10.00">TechMa/Types/Intervention</text>
<text text-anchor="middle" x="425.29" y="-128" font-family="Helvetica,sans-Serif" font-size="10.00">Complexity.h</text>
</a>
</g>
</g>
<!-- Node2&#45;&gt;Node8 -->
<g id="edge10_Node000002_Node000008" class="edge">
<title>Node2&#45;&gt;Node8</title>
<g id="a_edge10_Node000002_Node000008"><a xlink:title=" ">
<path fill="none" stroke="#63b8ff" d="M503.88,-186.8C489.89,-177.93 471.68,-166.39 456.31,-156.66"/>
<polygon fill="#63b8ff" stroke="#63b8ff" points="457.97,-153.56 447.65,-151.16 454.22,-159.47 457.97,-153.56"/>
</a>
</g>
</g>
<!-- Node9 -->
<g id="Node000009" class="node">
<title>Node9</title>
<g id="a_Node000009"><a xlink:href="InterventionStatus_8h.html" target="_top" xlink:title="Declares the InterventionStatus enum and its string conversion function.">
<polygon fill="white" stroke="#666666" points="612.29,-85 466.29,-85 466.29,-55 612.29,-55 612.29,-85"/>
<text text-anchor="start" x="474.29" y="-73" font-family="Helvetica,sans-Serif" font-size="10.00">TechMa/Types/Intervention</text>
<text text-anchor="middle" x="539.29" y="-62" font-family="Helvetica,sans-Serif" font-size="10.00">Status.h</text>
</a>
</g>
</g>
<!-- Node2&#45;&gt;Node9 -->
<g id="edge11_Node000002_Node000009" class="edge">
<title>Node2&#45;&gt;Node9</title>
<g id="a_edge11_Node000002_Node000009"><a xlink:title=" ">
<path fill="none" stroke="#63b8ff" d="M527.71,-186.84C529.91,-164.86 534.17,-122.27 536.86,-95.3"/>
<polygon fill="#63b8ff" stroke="#63b8ff" points="540.37,-95.44 537.88,-85.14 533.4,-94.74 540.37,-95.44"/>
</a>
</g>
</g>
<!-- Node10 -->
<g id="Node000010" class="node">
<title>Node10</title>
<g id="a_Node000010"><a xlink:href="InterventionType_8h.html" target="_top" xlink:title="Declares the InterventionType enum class and a string conversion utility.">
<polygon fill="white" stroke="#666666" points="776.29,-85 630.29,-85 630.29,-55 776.29,-55 776.29,-85"/>
<text text-anchor="start" x="638.29" y="-73" font-family="Helvetica,sans-Serif" font-size="10.00">TechMa/Types/Intervention</text>
<text text-anchor="middle" x="703.29" y="-62" font-family="Helvetica,sans-Serif" font-size="10.00">Type.h</text>
</a>
</g>
</g>
<!-- Node2&#45;&gt;Node10 -->
<g id="edge13_Node000002_Node000010" class="edge">
<title>Node2&#45;&gt;Node10</title>
<g id="a_edge13_Node000002_Node000010"><a xlink:title=" ">
<path fill="none" stroke="#63b8ff" d="M533.27,-186.72C542.52,-169.12 560.36,-139.29 583.29,-121 600.81,-107.03 622.79,-96.37 643.13,-88.56"/>
<polygon fill="#63b8ff" stroke="#63b8ff" points="644.47,-91.8 652.65,-85.07 642.06,-85.23 644.47,-91.8"/>
</a>
</g>
</g>
<!-- Node11 -->
<g id="Node000011" class="node">
<title>Node11</title>
<g id="a_Node000011"><a xlink:title=" ">
<polygon fill="#e0e0e0" stroke="#999999" points="642.29,-145.5 592.29,-145.5 592.29,-126.5 642.29,-126.5 642.29,-145.5"/>
<text text-anchor="middle" x="617.29" y="-133.5" font-family="Helvetica,sans-Serif" font-size="10.00">chrono</text>
</a>
</g>
</g>
<!-- Node2&#45;&gt;Node11 -->
<g id="edge15_Node000002_Node000011" class="edge">
<title>Node2&#45;&gt;Node11</title>
<g id="a_edge15_Node000002_Node000011"><a xlink:title=" ">
<path fill="none" stroke="#63b8ff" d="M546.49,-186.8C561.32,-176.37 581.41,-162.24 596.4,-151.69"/>
<polygon fill="#63b8ff" stroke="#63b8ff" points="598.82,-154.27 604.98,-145.66 594.79,-148.55 598.82,-154.27"/>
</a>
</g>
</g>
<!-- Node12 -->
<g id="Node000012" class="node">
<title>Node12</title>
<g id="a_Node000012"><a xlink:title=" ">
<polygon fill="#e0e0e0" stroke="#999999" points="718.29,-145.5 660.29,-145.5 660.29,-126.5 718.29,-126.5 718.29,-145.5"/>
<text text-anchor="middle" x="689.29" y="-133.5" font-family="Helvetica,sans-Serif" font-size="10.00">memory</text>
</a>
</g>
</g>
<!-- Node2&#45;&gt;Node12 -->
<g id="edge16_Node000002_Node000012" class="edge">
<title>Node2&#45;&gt;Node12</title>
<g id="a_edge16_Node000002_Node000012"><a xlink:title=" ">
<path fill="none" stroke="#63b8ff" d="M562.07,-186.95C590.78,-175.68 630.68,-160.01 658.11,-149.25"/>
<polygon fill="#63b8ff" stroke="#63b8ff" points="659.57,-152.43 667.6,-145.52 657.02,-145.91 659.57,-152.43"/>
</a>
</g>
</g>
<!-- Node2&#45;&gt;Node13 -->
<g id="edge17_Node000002_Node000013" class="edge">
<title>Node2&#45;&gt;Node13</title>
<g id="a_edge17_Node000002_Node000013"><a xlink:title=" ">
<path fill="none" stroke="#63b8ff" d="M591.1,-186.92C630.75,-177.81 682.33,-165.05 727.29,-151 729.21,-150.4 731.17,-149.76 733.15,-149.08"/>
<polygon fill="#63b8ff" stroke="#63b8ff" points="734.69,-152.25 742.92,-145.58 732.33,-145.66 734.69,-152.25"/>
</a>
</g>
</g>
<!-- Node3&#45;&gt;Node4 -->
<g id="edge3_Node000003_Node000004" class="edge">
<title>Node3&#45;&gt;Node4</title>
<g id="a_edge3_Node000003_Node000004"><a xlink:title=" ">
<path fill="none" stroke="#63b8ff" d="M63.89,-126.39C34.07,-112.03 -17.24,-82.05 6.29,-55 43.08,-12.71 218.32,-9.4 291.78,-9.93"/>
<polygon fill="#63b8ff" stroke="#63b8ff" points="291.81,-13.43 301.85,-10.03 291.89,-6.43 291.81,-13.43"/>
</a>
</g>
</g>
<!-- Node5 -->
<g id="Node000005" class="node">
<title>Node5</title>
<g id="a_Node000005"><a xlink:title=" ">
<polygon fill="#e0e0e0" stroke="#999999" points="62.79,-79.5 15.79,-79.5 15.79,-60.5 62.79,-60.5 62.79,-79.5"/>
<text text-anchor="middle" x="39.29" y="-67.5" font-family="Helvetica,sans-Serif" font-size="10.00">vector</text>
</a>
</g>
</g>
<!-- Node3&#45;&gt;Node5 -->
<g id="edge4_Node000003_Node000005" class="edge">
<title>Node3&#45;&gt;Node5</title>
<g id="a_edge4_Node000003_Node000005"><a xlink:title=" ">
<path fill="none" stroke="#63b8ff" d="M77.36,-126.37C70.71,-116.69 59.74,-100.74 51.28,-88.44"/>
<polygon fill="#63b8ff" stroke="#63b8ff" points="53.97,-86.16 45.42,-79.91 48.2,-90.13 53.97,-86.16"/>
</a>
</g>
</g>
<!-- Node3&#45;&gt;Node6 -->
<g id="edge5_Node000003_Node000006" class="edge">
<title>Node3&#45;&gt;Node6</title>
<g id="a_edge5_Node000003_Node000006"><a xlink:title=" ">
<path fill="none" stroke="#63b8ff" d="M94.08,-126.37C106.97,-116.06 128.74,-98.65 144.43,-86.09"/>
<polygon fill="#63b8ff" stroke="#63b8ff" points="146.8,-88.68 152.42,-79.7 142.43,-83.21 146.8,-88.68"/>
</a>
</g>
</g>
<!-- Node6&#45;&gt;Node4 -->
<g id="edge6_Node000006_Node000004" class="edge">
<title>Node6&#45;&gt;Node4</title>
<g id="a_edge6_Node000006_Node000004"><a xlink:title=" ">
<path fill="none" stroke="#63b8ff" d="M186.71,-60.49C214.64,-50.34 261.48,-33.32 292.63,-22.01"/>
<polygon fill="#63b8ff" stroke="#63b8ff" points="293.95,-25.25 302.15,-18.55 291.56,-18.67 293.95,-25.25"/>
</a>
</g>
</g>
<!-- Node7&#45;&gt;Node4 -->
<g id="edge8_Node000007_Node000004" class="edge">
<title>Node7&#45;&gt;Node4</title>
<g id="a_edge8_Node000007_Node000004"><a xlink:title=" ">
<path fill="none" stroke="#63b8ff" d="M367.77,-60.37C360.09,-51.55 347.97,-37.66 338.48,-26.77"/>
<polygon fill="#63b8ff" stroke="#63b8ff" points="341.06,-24.41 331.85,-19.17 335.78,-29.01 341.06,-24.41"/>
</a>
</g>
</g>
<!-- Node9&#45;&gt;Node4 -->
<g id="edge12_Node000009_Node000004" class="edge">
<title>Node9&#45;&gt;Node4</title>
<g id="a_edge12_Node000009_Node000004"><a xlink:title=" ">
<path fill="none" stroke="#63b8ff" d="M487.8,-54.99C446.93,-43.87 391.08,-28.67 356.37,-19.23"/>
<polygon fill="#63b8ff" stroke="#63b8ff" points="356.89,-15.74 346.32,-16.49 355.05,-22.5 356.89,-15.74"/>
</a>
</g>
</g>
<!-- Node10&#45;&gt;Node4 -->
<g id="edge14_Node000010_Node000004" class="edge">
<title>Node10&#45;&gt;Node4</title>
<g id="a_edge14_Node000010_Node000004"><a xlink:title=" ">
<path fill="none" stroke="#63b8ff" d="M629.99,-56.41C627.05,-55.93 624.15,-55.46 621.29,-55 525.01,-39.57 410.89,-22.93 356.38,-15.09"/>
<polygon fill="#63b8ff" stroke="#63b8ff" points="356.7,-11.6 346.3,-13.64 355.7,-18.53 356.7,-11.6"/>
</a>
</g>
</g>
</g>
</svg>
