<?xml version="1.0" encoding="UTF-8" standalone="no"?>
<!DOCTYPE svg PUBLIC "-//W3C//DTD SVG 1.1//EN"
 "http://www.w3.org/Graphics/SVG/1.1/DTD/svg11.dtd">
<!-- Generated by graphviz version 2.43.0 (0)
 -->
<!-- Title: include/TechMa/Views/Widgets/CreateTechnicianDialog.h Pages: 1 -->
<svg width="313pt" height="148pt"
 viewBox="0.00 0.00 313.00 148.00" xmlns="http://www.w3.org/2000/svg" xmlns:xlink="http://www.w3.org/1999/xlink">
<g id="graph0" class="graph" transform="scale(1 1) rotate(0) translate(4 144)">
<title>include/TechMa/Views/Widgets/CreateTechnicianDialog.h</title>
<!-- Node1 -->
<g id="Node000001" class="node">
<title>Node1</title>
<g id="a_Node000001"><a xlink:title="Declares the CreateTechnicianDialog class, a dialog for inputting new technician information.">
<polygon fill="#999999" stroke="#666666" points="304.5,-140 118.5,-140 118.5,-110 304.5,-110 304.5,-140"/>
<text text-anchor="start" x="126.5" y="-128" font-family="Helvetica,sans-Serif" font-size="10.00">include/TechMa/Views</text>
<text text-anchor="middle" x="211.5" y="-117" font-family="Helvetica,sans-Serif" font-size="10.00">/Widgets/CreateTechnicianDialog.h</text>
</a>
</g>
</g>
<!-- Node2 -->
<g id="Node000002" class="node">
<title>Node2</title>
<g id="a_Node000002"><a xlink:href="ExpertiseField_8h.html" target="_top" xlink:title="Declares the ExpertiseField enum class representing technician specializations, and a utility functio...">
<polygon fill="white" stroke="#666666" points="165,-74 0,-74 0,-55 165,-55 165,-74"/>
<text text-anchor="middle" x="82.5" y="-62" font-family="Helvetica,sans-Serif" font-size="10.00">TechMa/Types/ExpertiseField.h</text>
</a>
</g>
</g>
<!-- Node1&#45;&gt;Node2 -->
<g id="edge1_Node000001_Node000002" class="edge">
<title>Node1&#45;&gt;Node2</title>
<g id="a_edge1_Node000001_Node000002"><a xlink:title=" ">
<path fill="none" stroke="#63b8ff" d="M180.6,-109.99C159.37,-100.36 131.39,-87.67 110.75,-78.31"/>
<polygon fill="#63b8ff" stroke="#63b8ff" points="112.1,-75.08 101.55,-74.14 109.21,-81.46 112.1,-75.08"/>
</a>
</g>
</g>
<!-- Node4 -->
<g id="Node000004" class="node">
<title>Node4</title>
<g id="a_Node000004"><a xlink:title=" ">
<polygon fill="#e0e0e0" stroke="#999999" points="239.5,-74 183.5,-74 183.5,-55 239.5,-55 239.5,-74"/>
<text text-anchor="middle" x="211.5" y="-62" font-family="Helvetica,sans-Serif" font-size="10.00">QDialog</text>
</a>
</g>
</g>
<!-- Node1&#45;&gt;Node4 -->
<g id="edge3_Node000001_Node000004" class="edge">
<title>Node1&#45;&gt;Node4</title>
<g id="a_edge3_Node000001_Node000004"><a xlink:title=" ">
<path fill="none" stroke="#63b8ff" d="M211.5,-109.84C211.5,-102.21 211.5,-92.7 211.5,-84.45"/>
<polygon fill="#63b8ff" stroke="#63b8ff" points="215,-84.27 211.5,-74.27 208,-84.27 215,-84.27"/>
</a>
</g>
</g>
<!-- Node5 -->
<g id="Node000005" class="node">
<title>Node5</title>
<g id="a_Node000005"><a xlink:title=" ">
<polygon fill="#e0e0e0" stroke="#999999" points="305,-74 258,-74 258,-55 305,-55 305,-74"/>
<text text-anchor="middle" x="281.5" y="-62" font-family="Helvetica,sans-Serif" font-size="10.00">vector</text>
</a>
</g>
</g>
<!-- Node1&#45;&gt;Node5 -->
<g id="edge4_Node000001_Node000005" class="edge">
<title>Node1&#45;&gt;Node5</title>
<g id="a_edge4_Node000001_Node000005"><a xlink:title=" ">
<path fill="none" stroke="#63b8ff" d="M228.45,-109.84C238.92,-101.09 252.36,-89.85 263.09,-80.88"/>
<polygon fill="#63b8ff" stroke="#63b8ff" points="265.58,-83.36 271.01,-74.27 261.09,-77.99 265.58,-83.36"/>
</a>
</g>
</g>
<!-- Node3 -->
<g id="Node000003" class="node">
<title>Node3</title>
<g id="a_Node000003"><a xlink:title=" ">
<polygon fill="#e0e0e0" stroke="#999999" points="104.5,-19 60.5,-19 60.5,0 104.5,0 104.5,-19"/>
<text text-anchor="middle" x="82.5" y="-7" font-family="Helvetica,sans-Serif" font-size="10.00">string</text>
</a>
</g>
</g>
<!-- Node2&#45;&gt;Node3 -->
<g id="edge2_Node000002_Node000003" class="edge">
<title>Node2&#45;&gt;Node3</title>
<g id="a_edge2_Node000002_Node000003"><a xlink:title=" ">
<path fill="none" stroke="#63b8ff" d="M82.5,-54.75C82.5,-47.8 82.5,-37.85 82.5,-29.13"/>
<polygon fill="#63b8ff" stroke="#63b8ff" points="86,-29.09 82.5,-19.09 79,-29.09 86,-29.09"/>
</a>
</g>
</g>
</g>
</svg>
