<?xml version="1.0" encoding="UTF-8" standalone="no"?>
<!DOCTYPE svg PUBLIC "-//W3C//DTD SVG 1.1//EN"
 "http://www.w3.org/Graphics/SVG/1.1/DTD/svg11.dtd">
<!-- Generated by graphviz version 2.43.0 (0)
 -->
<!-- Title: src/Views/Widgets/CreateTechnicianDialog.cpp Pages: 1 -->
<svg width="693pt" height="214pt"
 viewBox="0.00 0.00 692.50 214.00" xmlns="http://www.w3.org/2000/svg" xmlns:xlink="http://www.w3.org/1999/xlink">
<g id="graph0" class="graph" transform="scale(1 1) rotate(0) translate(4 210)">
<title>src/Views/Widgets/CreateTechnicianDialog.cpp</title>
<!-- Node1 -->
<g id="Node000001" class="node">
<title>Node1</title>
<g id="a_Node000001"><a xlink:title="Implements the CreateTechnicianDialog class, a dialog UI for creating new technicians.">
<polygon fill="#999999" stroke="#666666" points="538,-206 397,-206 397,-176 538,-176 538,-206"/>
<text text-anchor="start" x="405" y="-194" font-family="Helvetica,sans-Serif" font-size="10.00">src/Views/Widgets/Create</text>
<text text-anchor="middle" x="467.5" y="-183" font-family="Helvetica,sans-Serif" font-size="10.00">TechnicianDialog.cpp</text>
</a>
</g>
</g>
<!-- Node2 -->
<g id="Node000002" class="node">
<title>Node2</title>
<g id="a_Node000002"><a xlink:href="CreateTechnicianDialog_8h.html" target="_top" xlink:title="Declares the CreateTechnicianDialog class, a dialog for inputting new technician information.">
<polygon fill="white" stroke="#666666" points="283,-140 140,-140 140,-110 283,-110 283,-140"/>
<text text-anchor="start" x="148" y="-128" font-family="Helvetica,sans-Serif" font-size="10.00">TechMa/Views/Widgets</text>
<text text-anchor="middle" x="211.5" y="-117" font-family="Helvetica,sans-Serif" font-size="10.00">/CreateTechnicianDialog.h</text>
</a>
</g>
</g>
<!-- Node1&#45;&gt;Node2 -->
<g id="edge1_Node000001_Node000002" class="edge">
<title>Node1&#45;&gt;Node2</title>
<g id="a_edge1_Node000001_Node000002"><a xlink:title=" ">
<path fill="none" stroke="#63b8ff" d="M411.32,-175.95C371.8,-166.08 318.79,-152.82 277.29,-142.45"/>
<polygon fill="#63b8ff" stroke="#63b8ff" points="278.1,-139.04 267.55,-140.01 276.4,-145.83 278.1,-139.04"/>
</a>
</g>
</g>
<!-- Node7 -->
<g id="Node000007" class="node">
<title>Node7</title>
<g id="a_Node000007"><a xlink:title=" ">
<polygon fill="#e0e0e0" stroke="#999999" points="408,-134.5 301,-134.5 301,-115.5 408,-115.5 408,-134.5"/>
<text text-anchor="middle" x="354.5" y="-122.5" font-family="Helvetica,sans-Serif" font-size="10.00">QDialogButtonBox</text>
</a>
</g>
</g>
<!-- Node1&#45;&gt;Node7 -->
<g id="edge6_Node000001_Node000007" class="edge">
<title>Node1&#45;&gt;Node7</title>
<g id="a_edge6_Node000001_Node000007"><a xlink:title=" ">
<path fill="none" stroke="#63b8ff" d="M442.7,-175.95C423.58,-165.13 397.3,-150.24 378.41,-139.54"/>
<polygon fill="#63b8ff" stroke="#63b8ff" points="379.96,-136.4 369.54,-134.52 376.51,-142.49 379.96,-136.4"/>
</a>
</g>
</g>
<!-- Node8 -->
<g id="Node000008" class="node">
<title>Node8</title>
<g id="a_Node000008"><a xlink:title=" ">
<polygon fill="#e0e0e0" stroke="#999999" points="508.5,-134.5 426.5,-134.5 426.5,-115.5 508.5,-115.5 508.5,-134.5"/>
<text text-anchor="middle" x="467.5" y="-122.5" font-family="Helvetica,sans-Serif" font-size="10.00">QFormLayout</text>
</a>
</g>
</g>
<!-- Node1&#45;&gt;Node8 -->
<g id="edge7_Node000001_Node000008" class="edge">
<title>Node1&#45;&gt;Node8</title>
<g id="a_edge7_Node000001_Node000008"><a xlink:title=" ">
<path fill="none" stroke="#63b8ff" d="M467.5,-175.8C467.5,-166.7 467.5,-154.79 467.5,-144.9"/>
<polygon fill="#63b8ff" stroke="#63b8ff" points="471,-144.84 467.5,-134.84 464,-144.84 471,-144.84"/>
</a>
</g>
</g>
<!-- Node9 -->
<g id="Node000009" class="node">
<title>Node9</title>
<g id="a_Node000009"><a xlink:title=" ">
<polygon fill="#e0e0e0" stroke="#999999" points="590,-134.5 527,-134.5 527,-115.5 590,-115.5 590,-134.5"/>
<text text-anchor="middle" x="558.5" y="-122.5" font-family="Helvetica,sans-Serif" font-size="10.00">QLineEdit</text>
</a>
</g>
</g>
<!-- Node1&#45;&gt;Node9 -->
<g id="edge8_Node000001_Node000009" class="edge">
<title>Node1&#45;&gt;Node9</title>
<g id="a_edge8_Node000001_Node000009"><a xlink:title=" ">
<path fill="none" stroke="#63b8ff" d="M487.7,-175.8C502.53,-165.37 522.61,-151.24 537.61,-140.69"/>
<polygon fill="#63b8ff" stroke="#63b8ff" points="540.02,-143.27 546.19,-134.66 536,-137.55 540.02,-143.27"/>
</a>
</g>
</g>
<!-- Node10 -->
<g id="Node000010" class="node">
<title>Node10</title>
<g id="a_Node000010"><a xlink:title=" ">
<polygon fill="#e0e0e0" stroke="#999999" points="684.5,-134.5 608.5,-134.5 608.5,-115.5 684.5,-115.5 684.5,-134.5"/>
<text text-anchor="middle" x="646.5" y="-122.5" font-family="Helvetica,sans-Serif" font-size="10.00">QListWidget</text>
</a>
</g>
</g>
<!-- Node1&#45;&gt;Node10 -->
<g id="edge9_Node000001_Node000010" class="edge">
<title>Node1&#45;&gt;Node10</title>
<g id="a_edge9_Node000001_Node000010"><a xlink:title=" ">
<path fill="none" stroke="#63b8ff" d="M506.78,-175.95C538.59,-164.58 582.91,-148.74 613.04,-137.96"/>
<polygon fill="#63b8ff" stroke="#63b8ff" points="614.44,-141.18 622.68,-134.52 612.08,-134.59 614.44,-141.18"/>
</a>
</g>
</g>
<!-- Node3 -->
<g id="Node000003" class="node">
<title>Node3</title>
<g id="a_Node000003"><a xlink:href="ExpertiseField_8h.html" target="_top" xlink:title="Declares the ExpertiseField enum class representing technician specializations, and a utility functio...">
<polygon fill="white" stroke="#666666" points="165,-74 0,-74 0,-55 165,-55 165,-74"/>
<text text-anchor="middle" x="82.5" y="-62" font-family="Helvetica,sans-Serif" font-size="10.00">TechMa/Types/ExpertiseField.h</text>
</a>
</g>
</g>
<!-- Node2&#45;&gt;Node3 -->
<g id="edge2_Node000002_Node000003" class="edge">
<title>Node2&#45;&gt;Node3</title>
<g id="a_edge2_Node000002_Node000003"><a xlink:title=" ">
<path fill="none" stroke="#63b8ff" d="M180.6,-109.99C159.37,-100.36 131.39,-87.67 110.75,-78.31"/>
<polygon fill="#63b8ff" stroke="#63b8ff" points="112.1,-75.08 101.55,-74.14 109.21,-81.46 112.1,-75.08"/>
</a>
</g>
</g>
<!-- Node5 -->
<g id="Node000005" class="node">
<title>Node5</title>
<g id="a_Node000005"><a xlink:title=" ">
<polygon fill="#e0e0e0" stroke="#999999" points="239.5,-74 183.5,-74 183.5,-55 239.5,-55 239.5,-74"/>
<text text-anchor="middle" x="211.5" y="-62" font-family="Helvetica,sans-Serif" font-size="10.00">QDialog</text>
</a>
</g>
</g>
<!-- Node2&#45;&gt;Node5 -->
<g id="edge4_Node000002_Node000005" class="edge">
<title>Node2&#45;&gt;Node5</title>
<g id="a_edge4_Node000002_Node000005"><a xlink:title=" ">
<path fill="none" stroke="#63b8ff" d="M211.5,-109.84C211.5,-102.21 211.5,-92.7 211.5,-84.45"/>
<polygon fill="#63b8ff" stroke="#63b8ff" points="215,-84.27 211.5,-74.27 208,-84.27 215,-84.27"/>
</a>
</g>
</g>
<!-- Node6 -->
<g id="Node000006" class="node">
<title>Node6</title>
<g id="a_Node000006"><a xlink:title=" ">
<polygon fill="#e0e0e0" stroke="#999999" points="305,-74 258,-74 258,-55 305,-55 305,-74"/>
<text text-anchor="middle" x="281.5" y="-62" font-family="Helvetica,sans-Serif" font-size="10.00">vector</text>
</a>
</g>
</g>
<!-- Node2&#45;&gt;Node6 -->
<g id="edge5_Node000002_Node000006" class="edge">
<title>Node2&#45;&gt;Node6</title>
<g id="a_edge5_Node000002_Node000006"><a xlink:title=" ">
<path fill="none" stroke="#63b8ff" d="M228.45,-109.84C238.92,-101.09 252.36,-89.85 263.09,-80.88"/>
<polygon fill="#63b8ff" stroke="#63b8ff" points="265.58,-83.36 271.01,-74.27 261.09,-77.99 265.58,-83.36"/>
</a>
</g>
</g>
<!-- Node4 -->
<g id="Node000004" class="node">
<title>Node4</title>
<g id="a_Node000004"><a xlink:title=" ">
<polygon fill="#e0e0e0" stroke="#999999" points="104.5,-19 60.5,-19 60.5,0 104.5,0 104.5,-19"/>
<text text-anchor="middle" x="82.5" y="-7" font-family="Helvetica,sans-Serif" font-size="10.00">string</text>
</a>
</g>
</g>
<!-- Node3&#45;&gt;Node4 -->
<g id="edge3_Node000003_Node000004" class="edge">
<title>Node3&#45;&gt;Node4</title>
<g id="a_edge3_Node000003_Node000004"><a xlink:title=" ">
<path fill="none" stroke="#63b8ff" d="M82.5,-54.75C82.5,-47.8 82.5,-37.85 82.5,-29.13"/>
<polygon fill="#63b8ff" stroke="#63b8ff" points="86,-29.09 82.5,-19.09 79,-29.09 86,-29.09"/>
</a>
</g>
</g>
</g>
</svg>
