<?xml version="1.0" encoding="UTF-8" standalone="no"?>
<!DOCTYPE svg PUBLIC "-//W3C//DTD SVG 1.1//EN"
 "http://www.w3.org/Graphics/SVG/1.1/DTD/svg11.dtd">
<!-- Generated by graphviz version 2.43.0 (0)
 -->
<!-- Title: src/Views Pages: 1 -->
<svg width="328pt" height="125pt"
 viewBox="0.00 0.00 328.00 125.00" xmlns="http://www.w3.org/2000/svg" xmlns:xlink="http://www.w3.org/1999/xlink">
<g id="graph0" class="graph" transform="scale(1 1) rotate(0) translate(4 121)">
<title>src/Views</title>
<g id="clust1" class="cluster">
<title>clusterdir_68267d1309a1af8e8297ef4c3efbcdba</title>
<g id="a_clust1"><a xlink:href="dir_68267d1309a1af8e8297ef4c3efbcdba.html" target="_top" xlink:title="src">
<polygon fill="#edf0f7" stroke="#404040" stroke-dasharray="5,2" points="8,-39 8,-109 312,-109 312,-39 8,-39"/>
<text text-anchor="middle" x="160" y="-97" font-family="Helvetica,sans-Serif" font-size="10.00">src</text>
</a>
</g>
</g>
<g id="clust2" class="cluster">
<title>clusterdir_55aebf04b79808644a3389dad64e5d8a</title>
<g id="a_clust2"><a xlink:href="dir_55aebf04b79808644a3389dad64e5d8a.html" target="_top">
<polygon fill="#edf0f7" stroke="#404040" stroke-width="2" points="16,-47 16,-82 304,-82 304,-47 16,-47"/>
</a>
</g>
</g>
<!-- dir_55aebf04b79808644a3389dad64e5d8a -->
<g id="node1" class="node">
<title>dir_55aebf04b79808644a3389dad64e5d8a</title>
<text text-anchor="middle" x="273" y="-62" font-family="Helvetica,sans-Serif" font-size="10.00">Views</text>
</g>
<!-- dir_d44c64559bbebec7f509842c48db8b23 -->
<g id="node5" class="node">
<title>dir_d44c64559bbebec7f509842c48db8b23</title>
<g id="a_node5"><a xlink:href="dir_d44c64559bbebec7f509842c48db8b23.html" target="_top" xlink:title="include">
<polygon fill="#edf0f7" stroke="red" points="185,-19 133,-19 133,0 185,0 185,-19"/>
<text text-anchor="middle" x="159" y="-7" font-family="Helvetica,sans-Serif" font-size="10.00">include</text>
</a>
</g>
</g>
<!-- dir_55aebf04b79808644a3389dad64e5d8a&#45;&gt;dir_d44c64559bbebec7f509842c48db8b23 -->
<g id="edge1" class="edge">
<title>dir_55aebf04b79808644a3389dad64e5d8a&#45;&gt;dir_d44c64559bbebec7f509842c48db8b23</title>
<g id="a_edge1"><a xlink:href="dir_000022_000009.html" target="_top">
<path fill="none" stroke="#63b8ff" d="M263.47,-54.91C257.39,-49.76 249.13,-43.38 241,-39 226.55,-31.22 209.56,-24.9 194.81,-20.21"/>
<polygon fill="#63b8ff" stroke="#63b8ff" points="195.59,-16.79 185,-17.22 193.55,-23.49 195.59,-16.79"/>
</a>
</g>
<g id="a_edge1&#45;headlabel"><a xlink:href="dir_000022_000009.html" target="_top" xlink:title="53">
<text text-anchor="middle" x="199.86" y="-12.62" font-family="Helvetica,sans-Serif" font-size="10.00" fill="#63b8ff">53</text>
</a>
</g>
</g>
<!-- dir_bbda9074262dc334ad64aabce575cdcd -->
<g id="node2" class="node">
<title>dir_bbda9074262dc334ad64aabce575cdcd</title>
<g id="a_node2"><a xlink:href="dir_bbda9074262dc334ad64aabce575cdcd.html" target="_top" xlink:title="Controllers">
<polygon fill="#a2b4d6" stroke="#404040" points="232,-74 162,-74 162,-55 232,-55 232,-74"/>
<text text-anchor="middle" x="197" y="-62" font-family="Helvetica,sans-Serif" font-size="10.00">Controllers</text>
</a>
</g>
</g>
<!-- dir_bbda9074262dc334ad64aabce575cdcd&#45;&gt;dir_d44c64559bbebec7f509842c48db8b23 -->
<g id="edge2" class="edge">
<title>dir_bbda9074262dc334ad64aabce575cdcd&#45;&gt;dir_d44c64559bbebec7f509842c48db8b23</title>
<g id="a_edge2"><a xlink:href="dir_000003_000009.html" target="_top">
<path fill="none" stroke="#63b8ff" d="M190.73,-54.75C185.41,-47.34 177.64,-36.5 171.12,-27.41"/>
<polygon fill="#63b8ff" stroke="#63b8ff" points="173.83,-25.18 165.16,-19.09 168.14,-29.26 173.83,-25.18"/>
</a>
</g>
<g id="a_edge2&#45;headlabel"><a xlink:href="dir_000003_000009.html" target="_top" xlink:title="3">
<text text-anchor="middle" x="178.23" y="-23.94" font-family="Helvetica,sans-Serif" font-size="10.00" fill="#63b8ff">3</text>
</a>
</g>
</g>
<!-- dir_1fee7e6bfbefa4c3dedc3d03e124c4c0 -->
<g id="node3" class="node">
<title>dir_1fee7e6bfbefa4c3dedc3d03e124c4c0</title>
<g id="a_node3"><a xlink:href="dir_1fee7e6bfbefa4c3dedc3d03e124c4c0.html" target="_top" xlink:title="Pages">
<polygon fill="#a2b4d6" stroke="#404040" points="143.5,-74 98.5,-74 98.5,-55 143.5,-55 143.5,-74"/>
<text text-anchor="middle" x="121" y="-62" font-family="Helvetica,sans-Serif" font-size="10.00">Pages</text>
</a>
</g>
</g>
<!-- dir_1fee7e6bfbefa4c3dedc3d03e124c4c0&#45;&gt;dir_d44c64559bbebec7f509842c48db8b23 -->
<g id="edge3" class="edge">
<title>dir_1fee7e6bfbefa4c3dedc3d03e124c4c0&#45;&gt;dir_d44c64559bbebec7f509842c48db8b23</title>
<g id="a_edge3"><a xlink:href="dir_000013_000009.html" target="_top">
<path fill="none" stroke="#63b8ff" d="M127.27,-54.75C132.59,-47.34 140.36,-36.5 146.88,-27.41"/>
<polygon fill="#63b8ff" stroke="#63b8ff" points="149.86,-29.26 152.84,-19.09 144.17,-25.18 149.86,-29.26"/>
</a>
</g>
<g id="a_edge3&#45;headlabel"><a xlink:href="dir_000013_000009.html" target="_top" xlink:title="21">
<text text-anchor="middle" x="150.07" y="-31.33" font-family="Helvetica,sans-Serif" font-size="10.00" fill="#63b8ff">21</text>
</a>
</g>
</g>
<!-- dir_5919331063be10c77c2eede5d59580de -->
<g id="node4" class="node">
<title>dir_5919331063be10c77c2eede5d59580de</title>
<g id="a_node4"><a xlink:href="dir_5919331063be10c77c2eede5d59580de.html" target="_top" xlink:title="Widgets">
<polygon fill="#a2b4d6" stroke="#404040" points="80,-74 24,-74 24,-55 80,-55 80,-74"/>
<text text-anchor="middle" x="52" y="-62" font-family="Helvetica,sans-Serif" font-size="10.00">Widgets</text>
</a>
</g>
</g>
<!-- dir_5919331063be10c77c2eede5d59580de&#45;&gt;dir_d44c64559bbebec7f509842c48db8b23 -->
<g id="edge4" class="edge">
<title>dir_5919331063be10c77c2eede5d59580de&#45;&gt;dir_d44c64559bbebec7f509842c48db8b23</title>
<g id="a_edge4"><a xlink:href="dir_000024_000009.html" target="_top">
<path fill="none" stroke="#63b8ff" d="M63.98,-54.98C71.3,-49.98 80.96,-43.73 90,-39 101.39,-33.04 114.32,-27.41 125.88,-22.77"/>
<polygon fill="#63b8ff" stroke="#63b8ff" points="127.18,-26.02 135.2,-19.1 124.62,-19.5 127.18,-26.02"/>
</a>
</g>
<g id="a_edge4&#45;headlabel"><a xlink:href="dir_000024_000009.html" target="_top" xlink:title="23">
<text text-anchor="middle" x="124.87" y="-27.47" font-family="Helvetica,sans-Serif" font-size="10.00" fill="#63b8ff">23</text>
</a>
</g>
</g>
</g>
</svg>
