<?xml version="1.0" encoding="UTF-8" standalone="no"?>
<!DOCTYPE svg PUBLIC "-//W3C//DTD SVG 1.1//EN"
 "http://www.w3.org/Graphics/SVG/1.1/DTD/svg11.dtd">
<!-- Generated by graphviz version 2.43.0 (0)
 -->
<!-- Title: include/TechMa/Views Pages: 1 -->
<svg width="370pt" height="196pt"
 viewBox="0.00 0.00 370.00 196.00" xmlns="http://www.w3.org/2000/svg" xmlns:xlink="http://www.w3.org/1999/xlink">
<g id="graph0" class="graph" transform="scale(1 1) rotate(0) translate(4 192)">
<title>include/TechMa/Views</title>
<g id="clust1" class="cluster">
<title>clusterdir_5d3aee0463471ac0b6ec909e76872388</title>
<g id="a_clust1"><a xlink:href="dir_5d3aee0463471ac0b6ec909e76872388.html" target="_top" xlink:title="TechMa">
<polygon fill="#edf0f7" stroke="#7f7f7f" stroke-dasharray="5,2" points="8,-8 8,-180 354,-180 354,-8 8,-8"/>
<text text-anchor="middle" x="181" y="-168" font-family="Helvetica,sans-Serif" font-size="10.00">TechMa</text>
</a>
</g>
</g>
<g id="clust2" class="cluster">
<title>clusterdir_f190d15cd78a86ca7baee5349b9ac7f4</title>
<g id="a_clust2"><a xlink:href="dir_f190d15cd78a86ca7baee5349b9ac7f4.html" target="_top">
<polygon fill="#edf0f7" stroke="#404040" stroke-width="2" points="16,-63 16,-153 230,-153 230,-63 16,-63"/>
</a>
</g>
</g>
<!-- dir_40fd004578351c480c1a0e3e2e329fbd -->
<g id="node1" class="node">
<title>dir_40fd004578351c480c1a0e3e2e329fbd</title>
<g id="a_node1"><a xlink:href="dir_40fd004578351c480c1a0e3e2e329fbd.html" target="_top" xlink:title="Authentication">
<polygon fill="#a2b4d6" stroke="#404040" points="326,-90 238,-90 238,-71 326,-71 326,-90"/>
<text text-anchor="middle" x="282" y="-78" font-family="Helvetica,sans-Serif" font-size="10.00">Authentication</text>
</a>
</g>
</g>
<!-- dir_6a4bef35aeb579fe8380e9178d4cbe13 -->
<g id="node2" class="node">
<title>dir_6a4bef35aeb579fe8380e9178d4cbe13</title>
<g id="a_node2"><a xlink:href="dir_6a4bef35aeb579fe8380e9178d4cbe13.html" target="_top" xlink:title="Observer">
<polygon fill="#a2b4d6" stroke="#404040" points="280.5,-35 219.5,-35 219.5,-16 280.5,-16 280.5,-35"/>
<text text-anchor="middle" x="250" y="-23" font-family="Helvetica,sans-Serif" font-size="10.00">Observer</text>
</a>
</g>
</g>
<!-- dir_620551071714cb573003e07c86c65b46 -->
<g id="node3" class="node">
<title>dir_620551071714cb573003e07c86c65b46</title>
<g id="a_node3"><a xlink:href="dir_620551071714cb573003e07c86c65b46.html" target="_top" xlink:title="Entities">
<polygon fill="#a2b4d6" stroke="#404040" points="73.5,-35 20.5,-35 20.5,-16 73.5,-16 73.5,-35"/>
<text text-anchor="middle" x="47" y="-23" font-family="Helvetica,sans-Serif" font-size="10.00">Entities</text>
</a>
</g>
</g>
<!-- dir_7597ecab336011b63906062b2c65189b -->
<g id="node4" class="node">
<title>dir_7597ecab336011b63906062b2c65189b</title>
<g id="a_node4"><a xlink:href="dir_7597ecab336011b63906062b2c65189b.html" target="_top" xlink:title="Types">
<polygon fill="#a2b4d6" stroke="#404040" points="136,-35 92,-35 92,-16 136,-16 136,-35"/>
<text text-anchor="middle" x="114" y="-23" font-family="Helvetica,sans-Serif" font-size="10.00">Types</text>
</a>
</g>
</g>
<!-- dir_f190d15cd78a86ca7baee5349b9ac7f4 -->
<g id="node5" class="node">
<title>dir_f190d15cd78a86ca7baee5349b9ac7f4</title>
<text text-anchor="middle" x="47" y="-133" font-family="Helvetica,sans-Serif" font-size="10.00">Views</text>
</g>
<!-- dir_f190d15cd78a86ca7baee5349b9ac7f4&#45;&gt;dir_40fd004578351c480c1a0e3e2e329fbd -->
<g id="edge1" class="edge">
<title>dir_f190d15cd78a86ca7baee5349b9ac7f4&#45;&gt;dir_40fd004578351c480c1a0e3e2e329fbd</title>
<g id="a_edge1"><a xlink:href="dir_000021_000000.html" target="_top">
<path fill="none" stroke="#63b8ff" d="M70.04,-128.25C73.05,-127.47 76.09,-126.7 79,-126 130.51,-113.52 189.74,-100.71 230.87,-92.06"/>
<polygon fill="#63b8ff" stroke="#63b8ff" points="231.6,-95.48 240.67,-90.01 230.16,-88.63 231.6,-95.48"/>
</a>
</g>
<g id="a_edge1&#45;headlabel"><a xlink:href="dir_000021_000000.html" target="_top" xlink:title="2">
<text text-anchor="middle" x="228.66" y="-96.5" font-family="Helvetica,sans-Serif" font-size="10.00" fill="#63b8ff">2</text>
</a>
</g>
</g>
<!-- dir_aed7b199acf05fd9166c471de861dee5 -->
<g id="node8" class="node">
<title>dir_aed7b199acf05fd9166c471de861dee5</title>
<g id="a_node8"><a xlink:href="dir_aed7b199acf05fd9166c471de861dee5.html" target="_top" xlink:title="Widgets">
<polygon fill="#a2b4d6" stroke="#404040" points="111,-90 55,-90 55,-71 111,-71 111,-90"/>
<text text-anchor="middle" x="83" y="-78" font-family="Helvetica,sans-Serif" font-size="10.00">Widgets</text>
</a>
</g>
</g>
<!-- dir_f190d15cd78a86ca7baee5349b9ac7f4&#45;&gt;dir_aed7b199acf05fd9166c471de861dee5 -->
<g id="edge2" class="edge">
<title>dir_f190d15cd78a86ca7baee5349b9ac7f4&#45;&gt;dir_aed7b199acf05fd9166c471de861dee5</title>
<g id="a_edge2"><a xlink:href="dir_000021_000023.html" target="_top">
<path fill="none" stroke="#63b8ff" d="M52.94,-125.75C57.98,-118.34 65.34,-107.5 71.51,-98.41"/>
<polygon fill="#63b8ff" stroke="#63b8ff" points="74.44,-100.33 77.17,-90.09 68.65,-96.39 74.44,-100.33"/>
</a>
</g>
<g id="a_edge2&#45;headlabel"><a xlink:href="dir_000021_000023.html" target="_top" xlink:title="1">
<text text-anchor="middle" x="74.77" y="-102.4" font-family="Helvetica,sans-Serif" font-size="10.00" fill="#63b8ff">1</text>
</a>
</g>
</g>
<!-- dir_42adb61198d863213424ff76220747e2 -->
<g id="node6" class="node">
<title>dir_42adb61198d863213424ff76220747e2</title>
<g id="a_node6"><a xlink:href="dir_42adb61198d863213424ff76220747e2.html" target="_top" xlink:title="Controllers">
<polygon fill="#a2b4d6" stroke="#404040" points="222,-145 152,-145 152,-126 222,-126 222,-145"/>
<text text-anchor="middle" x="187" y="-133" font-family="Helvetica,sans-Serif" font-size="10.00">Controllers</text>
</a>
</g>
</g>
<!-- dir_42adb61198d863213424ff76220747e2&#45;&gt;dir_6a4bef35aeb579fe8380e9178d4cbe13 -->
<g id="edge3" class="edge">
<title>dir_42adb61198d863213424ff76220747e2&#45;&gt;dir_6a4bef35aeb579fe8380e9178d4cbe13</title>
<g id="a_edge3"><a xlink:href="dir_000002_000011.html" target="_top">
<path fill="none" stroke="#63b8ff" d="M222.04,-135C257.01,-133.38 309.14,-124.77 335,-90 342.16,-80.37 341.6,-73.02 335,-63 324.95,-47.75 307.07,-38.85 290.29,-33.66"/>
<polygon fill="#63b8ff" stroke="#63b8ff" points="291.17,-30.28 280.6,-31.02 289.32,-37.03 291.17,-30.28"/>
</a>
</g>
<g id="a_edge3&#45;headlabel"><a xlink:href="dir_000002_000011.html" target="_top" xlink:title="1">
<text text-anchor="middle" x="295.38" y="-25.98" font-family="Helvetica,sans-Serif" font-size="10.00" fill="#63b8ff">1</text>
</a>
</g>
</g>
<!-- dir_88a42cf9ae289df55784552dc0ebc0f6 -->
<g id="node7" class="node">
<title>dir_88a42cf9ae289df55784552dc0ebc0f6</title>
<g id="a_node7"><a xlink:href="dir_88a42cf9ae289df55784552dc0ebc0f6.html" target="_top" xlink:title="Pages">
<polygon fill="#a2b4d6" stroke="#404040" points="133.5,-145 88.5,-145 88.5,-126 133.5,-126 133.5,-145"/>
<text text-anchor="middle" x="111" y="-133" font-family="Helvetica,sans-Serif" font-size="10.00">Pages</text>
</a>
</g>
</g>
<!-- dir_88a42cf9ae289df55784552dc0ebc0f6&#45;&gt;dir_40fd004578351c480c1a0e3e2e329fbd -->
<g id="edge4" class="edge">
<title>dir_88a42cf9ae289df55784552dc0ebc0f6&#45;&gt;dir_40fd004578351c480c1a0e3e2e329fbd</title>
<g id="a_edge4"><a xlink:href="dir_000012_000000.html" target="_top">
<path fill="none" stroke="#63b8ff" d="M133.71,-127.46C161.95,-118.71 210.56,-103.64 244.39,-93.16"/>
<polygon fill="#63b8ff" stroke="#63b8ff" points="245.87,-96.36 254.38,-90.06 243.79,-89.68 245.87,-96.36"/>
</a>
</g>
<g id="a_edge4&#45;headlabel"><a xlink:href="dir_000012_000000.html" target="_top" xlink:title="1">
<text text-anchor="middle" x="243.27" y="-97.64" font-family="Helvetica,sans-Serif" font-size="10.00" fill="#63b8ff">1</text>
</a>
</g>
</g>
<!-- dir_aed7b199acf05fd9166c471de861dee5&#45;&gt;dir_6a4bef35aeb579fe8380e9178d4cbe13 -->
<g id="edge6" class="edge">
<title>dir_aed7b199acf05fd9166c471de861dee5&#45;&gt;dir_6a4bef35aeb579fe8380e9178d4cbe13</title>
<g id="a_edge6"><a xlink:href="dir_000023_000011.html" target="_top">
<path fill="none" stroke="#63b8ff" d="M98,-70.93C103.26,-68.15 109.29,-65.22 115,-63 145.91,-51.01 182.26,-41.42 209.44,-35.09"/>
<polygon fill="#63b8ff" stroke="#63b8ff" points="210.41,-38.46 219.39,-32.83 208.86,-31.64 210.41,-38.46"/>
</a>
</g>
<g id="a_edge6&#45;headlabel"><a xlink:href="dir_000023_000011.html" target="_top" xlink:title="1">
<text text-anchor="middle" x="207.54" y="-39.53" font-family="Helvetica,sans-Serif" font-size="10.00" fill="#63b8ff">1</text>
</a>
</g>
</g>
<!-- dir_aed7b199acf05fd9166c471de861dee5&#45;&gt;dir_620551071714cb573003e07c86c65b46 -->
<g id="edge5" class="edge">
<title>dir_aed7b199acf05fd9166c471de861dee5&#45;&gt;dir_620551071714cb573003e07c86c65b46</title>
<g id="a_edge5"><a xlink:href="dir_000023_000004.html" target="_top">
<path fill="none" stroke="#63b8ff" d="M77.06,-70.75C72.02,-63.34 64.66,-52.5 58.49,-43.41"/>
<polygon fill="#63b8ff" stroke="#63b8ff" points="61.35,-41.39 52.83,-35.09 55.56,-45.33 61.35,-41.39"/>
</a>
</g>
<g id="a_edge5&#45;headlabel"><a xlink:href="dir_000023_000004.html" target="_top" xlink:title="2">
<text text-anchor="middle" x="65.72" y="-40.27" font-family="Helvetica,sans-Serif" font-size="10.00" fill="#63b8ff">2</text>
</a>
</g>
</g>
<!-- dir_aed7b199acf05fd9166c471de861dee5&#45;&gt;dir_7597ecab336011b63906062b2c65189b -->
<g id="edge7" class="edge">
<title>dir_aed7b199acf05fd9166c471de861dee5&#45;&gt;dir_7597ecab336011b63906062b2c65189b</title>
<g id="a_edge7"><a xlink:href="dir_000023_000020.html" target="_top">
<path fill="none" stroke="#63b8ff" d="M88.12,-70.75C92.36,-63.49 98.53,-52.95 103.78,-43.98"/>
<polygon fill="#63b8ff" stroke="#63b8ff" points="106.95,-45.49 108.98,-35.09 100.91,-41.95 106.95,-45.49"/>
</a>
</g>
<g id="a_edge7&#45;headlabel"><a xlink:href="dir_000023_000020.html" target="_top" xlink:title="2">
<text text-anchor="middle" x="107.58" y="-47.52" font-family="Helvetica,sans-Serif" font-size="10.00" fill="#63b8ff">2</text>
</a>
</g>
</g>
</g>
</svg>
