<?xml version="1.0" encoding="UTF-8" standalone="no"?>
<!DOCTYPE svg PUBLIC "-//W3C//DTD SVG 1.1//EN"
 "http://www.w3.org/Graphics/SVG/1.1/DTD/svg11.dtd">
<!-- Generated by graphviz version 2.43.0 (0)
 -->
<!-- Title: include/TechMa Pages: 1 -->
<svg width="486pt" height="204pt"
 viewBox="0.00 0.00 486.00 204.00" xmlns="http://www.w3.org/2000/svg" xmlns:xlink="http://www.w3.org/1999/xlink">
<g id="graph0" class="graph" transform="scale(1 1) rotate(0) translate(4 200)">
<title>include/TechMa</title>
<g id="clust1" class="cluster">
<title>clusterdir_d44c64559bbebec7f509842c48db8b23</title>
<g id="a_clust1"><a xlink:href="dir_d44c64559bbebec7f509842c48db8b23.html" target="_top" xlink:title="include">
<polygon fill="#edf0f7" stroke="#404040" stroke-dasharray="5,2" points="8,-8 8,-188 470,-188 470,-8 8,-8"/>
<text text-anchor="middle" x="239" y="-176" font-family="Helvetica,sans-Serif" font-size="10.00">include</text>
</a>
</g>
</g>
<g id="clust2" class="cluster">
<title>clusterdir_5d3aee0463471ac0b6ec909e76872388</title>
<g id="a_clust2"><a xlink:href="dir_5d3aee0463471ac0b6ec909e76872388.html" target="_top">
<polygon fill="#edf0f7" stroke="#404040" stroke-width="2" points="16,-16 16,-161 462,-161 462,-16 16,-16"/>
</a>
</g>
</g>
<!-- dir_5d3aee0463471ac0b6ec909e76872388 -->
<g id="node1" class="node">
<title>dir_5d3aee0463471ac0b6ec909e76872388</title>
<text text-anchor="middle" x="427" y="-141" font-family="Helvetica,sans-Serif" font-size="10.00">TechMa</text>
</g>
<!-- dir_40fd004578351c480c1a0e3e2e329fbd -->
<g id="node2" class="node">
<title>dir_40fd004578351c480c1a0e3e2e329fbd</title>
<g id="a_node2"><a xlink:href="dir_40fd004578351c480c1a0e3e2e329fbd.html" target="_top" xlink:title="Authentication">
<polygon fill="#a2b4d6" stroke="#404040" points="132,-98 44,-98 44,-79 132,-79 132,-98"/>
<text text-anchor="middle" x="88" y="-86" font-family="Helvetica,sans-Serif" font-size="10.00">Authentication</text>
</a>
</g>
</g>
<!-- dir_620551071714cb573003e07c86c65b46 -->
<g id="node3" class="node">
<title>dir_620551071714cb573003e07c86c65b46</title>
<g id="a_node3"><a xlink:href="dir_620551071714cb573003e07c86c65b46.html" target="_top" xlink:title="Entities">
<polygon fill="#a2b4d6" stroke="#404040" points="282.5,-98 229.5,-98 229.5,-79 282.5,-79 282.5,-98"/>
<text text-anchor="middle" x="256" y="-86" font-family="Helvetica,sans-Serif" font-size="10.00">Entities</text>
</a>
</g>
</g>
<!-- dir_7597ecab336011b63906062b2c65189b -->
<g id="node9" class="node">
<title>dir_7597ecab336011b63906062b2c65189b</title>
<g id="a_node9"><a xlink:href="dir_7597ecab336011b63906062b2c65189b.html" target="_top" xlink:title="Types">
<polygon fill="#a2b4d6" stroke="#404040" points="278,-43 234,-43 234,-24 278,-24 278,-43"/>
<text text-anchor="middle" x="256" y="-31" font-family="Helvetica,sans-Serif" font-size="10.00">Types</text>
</a>
</g>
</g>
<!-- dir_620551071714cb573003e07c86c65b46&#45;&gt;dir_7597ecab336011b63906062b2c65189b -->
<g id="edge1" class="edge">
<title>dir_620551071714cb573003e07c86c65b46&#45;&gt;dir_7597ecab336011b63906062b2c65189b</title>
<g id="a_edge1"><a xlink:href="dir_000004_000020.html" target="_top">
<path fill="none" stroke="#63b8ff" d="M256,-78.75C256,-71.8 256,-61.85 256,-53.13"/>
<polygon fill="#63b8ff" stroke="#63b8ff" points="259.5,-53.09 256,-43.09 252.5,-53.09 259.5,-53.09"/>
</a>
</g>
<g id="a_edge1&#45;headlabel"><a xlink:href="dir_000004_000020.html" target="_top" xlink:title="5">
<text text-anchor="middle" x="262.34" y="-54.18" font-family="Helvetica,sans-Serif" font-size="10.00" fill="#63b8ff">5</text>
</a>
</g>
</g>
<!-- dir_af1b94d752c8c9303935b1b0a966929f -->
<g id="node4" class="node">
<title>dir_af1b94d752c8c9303935b1b0a966929f</title>
<g id="a_node4"><a xlink:href="dir_af1b94d752c8c9303935b1b0a966929f.html" target="_top" xlink:title="Facade">
<polygon fill="#a2b4d6" stroke="#404040" points="296,-153 246,-153 246,-134 296,-134 296,-153"/>
<text text-anchor="middle" x="271" y="-141" font-family="Helvetica,sans-Serif" font-size="10.00">Facade</text>
</a>
</g>
</g>
<!-- dir_af1b94d752c8c9303935b1b0a966929f&#45;&gt;dir_620551071714cb573003e07c86c65b46 -->
<g id="edge2" class="edge">
<title>dir_af1b94d752c8c9303935b1b0a966929f&#45;&gt;dir_620551071714cb573003e07c86c65b46</title>
<g id="a_edge2"><a xlink:href="dir_000005_000004.html" target="_top">
<path fill="none" stroke="#63b8ff" d="M268.52,-133.75C266.54,-126.72 263.68,-116.62 261.19,-107.84"/>
<polygon fill="#63b8ff" stroke="#63b8ff" points="264.52,-106.76 258.43,-98.09 257.79,-108.66 264.52,-106.76"/>
</a>
</g>
<g id="a_edge2&#45;headlabel"><a xlink:href="dir_000005_000004.html" target="_top" xlink:title="2">
<text text-anchor="middle" x="268.23" y="-106.94" font-family="Helvetica,sans-Serif" font-size="10.00" fill="#63b8ff">2</text>
</a>
</g>
</g>
<!-- dir_d3358d09fe94f472480e921adf11e437 -->
<g id="node5" class="node">
<title>dir_d3358d09fe94f472480e921adf11e437</title>
<g id="a_node5"><a xlink:href="dir_d3358d09fe94f472480e921adf11e437.html" target="_top" xlink:title="Factory">
<polygon fill="#a2b4d6" stroke="#404040" points="228,-153 176,-153 176,-134 228,-134 228,-153"/>
<text text-anchor="middle" x="202" y="-141" font-family="Helvetica,sans-Serif" font-size="10.00">Factory</text>
</a>
</g>
</g>
<!-- dir_d3358d09fe94f472480e921adf11e437&#45;&gt;dir_620551071714cb573003e07c86c65b46 -->
<g id="edge3" class="edge">
<title>dir_d3358d09fe94f472480e921adf11e437&#45;&gt;dir_620551071714cb573003e07c86c65b46</title>
<g id="a_edge3"><a xlink:href="dir_000007_000004.html" target="_top">
<path fill="none" stroke="#63b8ff" d="M210.92,-133.75C218.78,-126.03 230.43,-114.6 239.92,-105.28"/>
<polygon fill="#63b8ff" stroke="#63b8ff" points="242.56,-107.59 247.25,-98.09 237.66,-102.6 242.56,-107.59"/>
</a>
</g>
<g id="a_edge3&#45;headlabel"><a xlink:href="dir_000007_000004.html" target="_top" xlink:title="2">
<text text-anchor="middle" x="241.99" y="-109.64" font-family="Helvetica,sans-Serif" font-size="10.00" fill="#63b8ff">2</text>
</a>
</g>
</g>
<!-- dir_6a4bef35aeb579fe8380e9178d4cbe13 -->
<g id="node6" class="node">
<title>dir_6a4bef35aeb579fe8380e9178d4cbe13</title>
<g id="a_node6"><a xlink:href="dir_6a4bef35aeb579fe8380e9178d4cbe13.html" target="_top" xlink:title="Observer">
<polygon fill="#a2b4d6" stroke="#404040" points="211.5,-98 150.5,-98 150.5,-79 211.5,-79 211.5,-98"/>
<text text-anchor="middle" x="181" y="-86" font-family="Helvetica,sans-Serif" font-size="10.00">Observer</text>
</a>
</g>
</g>
<!-- dir_06f1efa5139fd120b205819fb4118654 -->
<g id="node7" class="node">
<title>dir_06f1efa5139fd120b205819fb4118654</title>
<g id="a_node7"><a xlink:href="dir_06f1efa5139fd120b205819fb4118654.html" target="_top" xlink:title="Repository">
<polygon fill="#a2b4d6" stroke="#404040" points="157.5,-153 88.5,-153 88.5,-134 157.5,-134 157.5,-153"/>
<text text-anchor="middle" x="123" y="-141" font-family="Helvetica,sans-Serif" font-size="10.00">Repository</text>
</a>
</g>
</g>
<!-- dir_06f1efa5139fd120b205819fb4118654&#45;&gt;dir_40fd004578351c480c1a0e3e2e329fbd -->
<g id="edge4" class="edge">
<title>dir_06f1efa5139fd120b205819fb4118654&#45;&gt;dir_40fd004578351c480c1a0e3e2e329fbd</title>
<g id="a_edge4"><a xlink:href="dir_000014_000000.html" target="_top">
<path fill="none" stroke="#63b8ff" d="M117.22,-133.75C112.38,-126.42 105.32,-115.73 99.36,-106.7"/>
<polygon fill="#63b8ff" stroke="#63b8ff" points="102.1,-104.5 93.67,-98.09 96.26,-108.36 102.1,-104.5"/>
</a>
</g>
<g id="a_edge4&#45;headlabel"><a xlink:href="dir_000014_000000.html" target="_top" xlink:title="2">
<text text-anchor="middle" x="106.45" y="-103.44" font-family="Helvetica,sans-Serif" font-size="10.00" fill="#63b8ff">2</text>
</a>
</g>
</g>
<!-- dir_06f1efa5139fd120b205819fb4118654&#45;&gt;dir_620551071714cb573003e07c86c65b46 -->
<g id="edge5" class="edge">
<title>dir_06f1efa5139fd120b205819fb4118654&#45;&gt;dir_620551071714cb573003e07c86c65b46</title>
<g id="a_edge5"><a xlink:href="dir_000014_000004.html" target="_top">
<path fill="none" stroke="#63b8ff" d="M144.37,-133.98C166.15,-125.3 200.16,-111.75 224.92,-101.88"/>
<polygon fill="#63b8ff" stroke="#63b8ff" points="226.25,-105.12 234.24,-98.17 223.66,-98.62 226.25,-105.12"/>
</a>
</g>
<g id="a_edge5&#45;headlabel"><a xlink:href="dir_000014_000004.html" target="_top" xlink:title="4">
<text text-anchor="middle" x="223.96" y="-106.59" font-family="Helvetica,sans-Serif" font-size="10.00" fill="#63b8ff">4</text>
</a>
</g>
</g>
<!-- dir_06f1efa5139fd120b205819fb4118654&#45;&gt;dir_6a4bef35aeb579fe8380e9178d4cbe13 -->
<g id="edge6" class="edge">
<title>dir_06f1efa5139fd120b205819fb4118654&#45;&gt;dir_6a4bef35aeb579fe8380e9178d4cbe13</title>
<g id="a_edge6"><a xlink:href="dir_000014_000011.html" target="_top">
<path fill="none" stroke="#63b8ff" d="M132.32,-133.98C140.81,-126.23 153.56,-114.58 163.88,-105.14"/>
<polygon fill="#63b8ff" stroke="#63b8ff" points="166.49,-107.5 171.51,-98.17 161.77,-102.33 166.49,-107.5"/>
</a>
</g>
<g id="a_edge6&#45;headlabel"><a xlink:href="dir_000014_000011.html" target="_top" xlink:title="2">
<text text-anchor="middle" x="165.75" y="-109.52" font-family="Helvetica,sans-Serif" font-size="10.00" fill="#63b8ff">2</text>
</a>
</g>
</g>
<!-- dir_08dbe327ffc4264451e7f79045e1bae0 -->
<g id="node8" class="node">
<title>dir_08dbe327ffc4264451e7f79045e1bae0</title>
<g id="a_node8"><a xlink:href="dir_08dbe327ffc4264451e7f79045e1bae0.html" target="_top" xlink:title="Technician">
<polygon fill="#a2b4d6" stroke="#404040" points="382,-153 314,-153 314,-134 382,-134 382,-153"/>
<text text-anchor="middle" x="348" y="-141" font-family="Helvetica,sans-Serif" font-size="10.00">Technician</text>
</a>
</g>
</g>
<!-- dir_08dbe327ffc4264451e7f79045e1bae0&#45;&gt;dir_620551071714cb573003e07c86c65b46 -->
<g id="edge7" class="edge">
<title>dir_08dbe327ffc4264451e7f79045e1bae0&#45;&gt;dir_620551071714cb573003e07c86c65b46</title>
<g id="a_edge7"><a xlink:href="dir_000018_000004.html" target="_top">
<path fill="none" stroke="#63b8ff" d="M333.22,-133.98C318.82,-125.69 296.69,-112.94 279.81,-103.22"/>
<polygon fill="#63b8ff" stroke="#63b8ff" points="281.46,-100.13 271.05,-98.17 277.97,-106.19 281.46,-100.13"/>
</a>
</g>
<g id="a_edge7&#45;headlabel"><a xlink:href="dir_000018_000004.html" target="_top" xlink:title="2">
<text text-anchor="middle" x="285.99" y="-96.96" font-family="Helvetica,sans-Serif" font-size="10.00" fill="#63b8ff">2</text>
</a>
</g>
</g>
<!-- dir_08dbe327ffc4264451e7f79045e1bae0&#45;&gt;dir_7597ecab336011b63906062b2c65189b -->
<g id="edge8" class="edge">
<title>dir_08dbe327ffc4264451e7f79045e1bae0&#45;&gt;dir_7597ecab336011b63906062b2c65189b</title>
<g id="a_edge8"><a xlink:href="dir_000018_000020.html" target="_top">
<path fill="none" stroke="#63b8ff" d="M340.47,-133.66C325.1,-115.61 289.88,-74.28 270.12,-51.08"/>
<polygon fill="#63b8ff" stroke="#63b8ff" points="272.52,-48.5 263.38,-43.16 267.2,-53.04 272.52,-48.5"/>
</a>
</g>
<g id="a_edge8&#45;headlabel"><a xlink:href="dir_000018_000020.html" target="_top" xlink:title="3">
<text text-anchor="middle" x="277.02" y="-46.9" font-family="Helvetica,sans-Serif" font-size="10.00" fill="#63b8ff">3</text>
</a>
</g>
</g>
<!-- dir_f190d15cd78a86ca7baee5349b9ac7f4 -->
<g id="node10" class="node">
<title>dir_f190d15cd78a86ca7baee5349b9ac7f4</title>
<g id="a_node10"><a xlink:href="dir_f190d15cd78a86ca7baee5349b9ac7f4.html" target="_top" xlink:title="Views">
<polygon fill="#a2b4d6" stroke="#404040" points="70,-153 24,-153 24,-134 70,-134 70,-153"/>
<text text-anchor="middle" x="47" y="-141" font-family="Helvetica,sans-Serif" font-size="10.00">Views</text>
</a>
</g>
</g>
<!-- dir_f190d15cd78a86ca7baee5349b9ac7f4&#45;&gt;dir_40fd004578351c480c1a0e3e2e329fbd -->
<g id="edge9" class="edge">
<title>dir_f190d15cd78a86ca7baee5349b9ac7f4&#45;&gt;dir_40fd004578351c480c1a0e3e2e329fbd</title>
<g id="a_edge9"><a xlink:href="dir_000021_000000.html" target="_top">
<path fill="none" stroke="#63b8ff" d="M53.77,-133.75C59.56,-126.26 68.06,-115.28 75.14,-106.13"/>
<polygon fill="#63b8ff" stroke="#63b8ff" points="78.01,-108.14 81.36,-98.09 72.47,-103.86 78.01,-108.14"/>
</a>
</g>
<g id="a_edge9&#45;headlabel"><a xlink:href="dir_000021_000000.html" target="_top" xlink:title="2">
<text text-anchor="middle" x="78.05" y="-110.22" font-family="Helvetica,sans-Serif" font-size="10.00" fill="#63b8ff">2</text>
</a>
</g>
</g>
<!-- dir_f190d15cd78a86ca7baee5349b9ac7f4&#45;&gt;dir_620551071714cb573003e07c86c65b46 -->
<g id="edge11" class="edge">
<title>dir_f190d15cd78a86ca7baee5349b9ac7f4&#45;&gt;dir_620551071714cb573003e07c86c65b46</title>
<g id="a_edge11"><a xlink:href="dir_000021_000004.html" target="_top">
<path fill="none" stroke="#63b8ff" d="M70.08,-136.54C73.41,-135.69 76.79,-134.82 80,-134 128.22,-121.69 183.92,-107.64 219.52,-98.67"/>
<polygon fill="#63b8ff" stroke="#63b8ff" points="220.61,-102.01 229.45,-96.17 218.9,-95.22 220.61,-102.01"/>
</a>
</g>
<g id="a_edge11&#45;headlabel"><a xlink:href="dir_000021_000004.html" target="_top" xlink:title="2">
<text text-anchor="middle" x="217.82" y="-103.14" font-family="Helvetica,sans-Serif" font-size="10.00" fill="#63b8ff">2</text>
</a>
</g>
</g>
<!-- dir_f190d15cd78a86ca7baee5349b9ac7f4&#45;&gt;dir_6a4bef35aeb579fe8380e9178d4cbe13 -->
<g id="edge10" class="edge">
<title>dir_f190d15cd78a86ca7baee5349b9ac7f4&#45;&gt;dir_6a4bef35aeb579fe8380e9178d4cbe13</title>
<g id="a_edge10"><a xlink:href="dir_000021_000011.html" target="_top">
<path fill="none" stroke="#63b8ff" d="M68.53,-133.98C90.47,-125.3 124.74,-111.75 149.69,-101.88"/>
<polygon fill="#63b8ff" stroke="#63b8ff" points="151.07,-105.1 159.08,-98.17 148.49,-98.59 151.07,-105.1"/>
</a>
</g>
<g id="a_edge10&#45;headlabel"><a xlink:href="dir_000021_000011.html" target="_top" xlink:title="2">
<text text-anchor="middle" x="148.77" y="-106.57" font-family="Helvetica,sans-Serif" font-size="10.00" fill="#63b8ff">2</text>
</a>
</g>
</g>
<!-- dir_f190d15cd78a86ca7baee5349b9ac7f4&#45;&gt;dir_7597ecab336011b63906062b2c65189b -->
<g id="edge12" class="edge">
<title>dir_f190d15cd78a86ca7baee5349b9ac7f4&#45;&gt;dir_7597ecab336011b63906062b2c65189b</title>
<g id="a_edge12"><a xlink:href="dir_000021_000020.html" target="_top">
<path fill="none" stroke="#63b8ff" d="M41.33,-133.61C33.59,-120.23 22.06,-94.8 35,-79 58.53,-50.27 168.61,-39.68 224,-36.12"/>
<polygon fill="#63b8ff" stroke="#63b8ff" points="224.22,-39.62 233.99,-35.52 223.8,-32.63 224.22,-39.62"/>
</a>
</g>
<g id="a_edge12&#45;headlabel"><a xlink:href="dir_000021_000020.html" target="_top" xlink:title="2">
<text text-anchor="middle" x="220.8" y="-40.17" font-family="Helvetica,sans-Serif" font-size="10.00" fill="#63b8ff">2</text>
</a>
</g>
</g>
</g>
</svg>
