<?xml version="1.0" encoding="UTF-8" standalone="no"?>
<!DOCTYPE svg PUBLIC "-//W3C//DTD SVG 1.1//EN"
 "http://www.w3.org/Graphics/SVG/1.1/DTD/svg11.dtd">
<!-- Generated by graphviz version 2.43.0 (0)
 -->
<!-- Title: src Pages: 1 -->
<svg width="652pt" height="99pt"
 viewBox="0.00 0.00 652.00 99.14" xmlns="http://www.w3.org/2000/svg" xmlns:xlink="http://www.w3.org/1999/xlink">
<g id="graph0" class="graph" transform="scale(1 1) rotate(0) translate(4 95.14)">
<title>src</title>
<g id="clust1" class="cluster">
<title>clusterdir_68267d1309a1af8e8297ef4c3efbcdba</title>
<g id="a_clust1"><a xlink:href="dir_68267d1309a1af8e8297ef4c3efbcdba.html" target="_top">
<polygon fill="#edf0f7" stroke="#404040" stroke-width="2" points="8,-48.14 8,-83.14 636,-83.14 636,-48.14 8,-48.14"/>
</a>
</g>
</g>
<!-- dir_68267d1309a1af8e8297ef4c3efbcdba -->
<g id="node1" class="node">
<title>dir_68267d1309a1af8e8297ef4c3efbcdba</title>
<text text-anchor="middle" x="612" y="-63.14" font-family="Helvetica,sans-Serif" font-size="10.00">src</text>
</g>
<!-- dir_d44c64559bbebec7f509842c48db8b23 -->
<g id="node9" class="node">
<title>dir_d44c64559bbebec7f509842c48db8b23</title>
<g id="a_node9"><a xlink:href="dir_d44c64559bbebec7f509842c48db8b23.html" target="_top" xlink:title="include">
<polygon fill="#edf0f7" stroke="red" points="362,-20.14 310,-20.14 310,-1.14 362,-1.14 362,-20.14"/>
<text text-anchor="middle" x="336" y="-8.14" font-family="Helvetica,sans-Serif" font-size="10.00">include</text>
</a>
</g>
</g>
<!-- dir_68267d1309a1af8e8297ef4c3efbcdba&#45;&gt;dir_d44c64559bbebec7f509842c48db8b23 -->
<g id="edge1" class="edge">
<title>dir_68267d1309a1af8e8297ef4c3efbcdba&#45;&gt;dir_d44c64559bbebec7f509842c48db8b23</title>
<g id="a_edge1"><a xlink:href="dir_000016_000009.html" target="_top">
<path fill="none" stroke="#63b8ff" d="M601.84,-56.12C597.78,-53.14 592.9,-50.06 588,-48.14 514.98,-19.56 422.16,-13.06 372.04,-11.77"/>
<polygon fill="#63b8ff" stroke="#63b8ff" points="372.09,-8.27 362.02,-11.56 371.94,-15.26 372.09,-8.27"/>
</a>
</g>
<g id="a_edge1&#45;headlabel"><a xlink:href="dir_000016_000009.html" target="_top" xlink:title="73">
<text text-anchor="middle" x="375.74" y="-3" font-family="Helvetica,sans-Serif" font-size="10.00" fill="#63b8ff">73</text>
</a>
</g>
</g>
<!-- dir_bed94b9627b510fc11d6807d53cb60e3 -->
<g id="node2" class="node">
<title>dir_bed94b9627b510fc11d6807d53cb60e3</title>
<g id="a_node2"><a xlink:href="dir_bed94b9627b510fc11d6807d53cb60e3.html" target="_top" xlink:title="Authentication">
<polygon fill="#a2b4d6" stroke="#404040" points="579,-75.14 491,-75.14 491,-56.14 579,-56.14 579,-75.14"/>
<text text-anchor="middle" x="535" y="-63.14" font-family="Helvetica,sans-Serif" font-size="10.00">Authentication</text>
</a>
</g>
</g>
<!-- dir_bed94b9627b510fc11d6807d53cb60e3&#45;&gt;dir_d44c64559bbebec7f509842c48db8b23 -->
<g id="edge2" class="edge">
<title>dir_bed94b9627b510fc11d6807d53cb60e3&#45;&gt;dir_d44c64559bbebec7f509842c48db8b23</title>
<g id="a_edge2"><a xlink:href="dir_000001_000009.html" target="_top">
<path fill="none" stroke="#63b8ff" d="M508.67,-56.12C500.18,-53.46 490.72,-50.58 482,-48.14 444.76,-37.7 401.76,-27.12 372.12,-20.07"/>
<polygon fill="#63b8ff" stroke="#63b8ff" points="372.77,-16.62 362.23,-17.72 371.15,-23.43 372.77,-16.62"/>
</a>
</g>
<g id="a_edge2&#45;headlabel"><a xlink:href="dir_000001_000009.html" target="_top" xlink:title="1">
<text text-anchor="middle" x="376.92" y="-12.19" font-family="Helvetica,sans-Serif" font-size="10.00" fill="#63b8ff">1</text>
</a>
</g>
</g>
<!-- dir_f9ab0b6dc9229052dbade29aa876c209 -->
<g id="node3" class="node">
<title>dir_f9ab0b6dc9229052dbade29aa876c209</title>
<g id="a_node3"><a xlink:href="dir_f9ab0b6dc9229052dbade29aa876c209.html" target="_top" xlink:title="Facade">
<polygon fill="#a2b4d6" stroke="#404040" points="473,-75.14 423,-75.14 423,-56.14 473,-56.14 473,-75.14"/>
<text text-anchor="middle" x="448" y="-63.14" font-family="Helvetica,sans-Serif" font-size="10.00">Facade</text>
</a>
</g>
</g>
<!-- dir_f9ab0b6dc9229052dbade29aa876c209&#45;&gt;dir_d44c64559bbebec7f509842c48db8b23 -->
<g id="edge3" class="edge">
<title>dir_f9ab0b6dc9229052dbade29aa876c209&#45;&gt;dir_d44c64559bbebec7f509842c48db8b23</title>
<g id="a_edge3"><a xlink:href="dir_000006_000009.html" target="_top">
<path fill="none" stroke="#63b8ff" d="M430.38,-56.03C425.12,-53.47 419.33,-50.68 414,-48.14 397.39,-40.22 378.73,-31.49 363.82,-24.54"/>
<polygon fill="#63b8ff" stroke="#63b8ff" points="365.17,-21.31 354.63,-20.27 362.22,-27.66 365.17,-21.31"/>
</a>
</g>
<g id="a_edge3&#45;headlabel"><a xlink:href="dir_000006_000009.html" target="_top" xlink:title="2">
<text text-anchor="middle" x="369.63" y="-17.75" font-family="Helvetica,sans-Serif" font-size="10.00" fill="#63b8ff">2</text>
</a>
</g>
</g>
<!-- dir_ebd355f492f50ea33d294d31d7726b7c -->
<g id="node4" class="node">
<title>dir_ebd355f492f50ea33d294d31d7726b7c</title>
<g id="a_node4"><a xlink:href="dir_ebd355f492f50ea33d294d31d7726b7c.html" target="_top" xlink:title="Factory">
<polygon fill="#a2b4d6" stroke="#404040" points="405,-75.14 353,-75.14 353,-56.14 405,-56.14 405,-75.14"/>
<text text-anchor="middle" x="379" y="-63.14" font-family="Helvetica,sans-Serif" font-size="10.00">Factory</text>
</a>
</g>
</g>
<!-- dir_ebd355f492f50ea33d294d31d7726b7c&#45;&gt;dir_d44c64559bbebec7f509842c48db8b23 -->
<g id="edge4" class="edge">
<title>dir_ebd355f492f50ea33d294d31d7726b7c&#45;&gt;dir_d44c64559bbebec7f509842c48db8b23</title>
<g id="a_edge4"><a xlink:href="dir_000008_000009.html" target="_top">
<path fill="none" stroke="#63b8ff" d="M371.9,-55.89C365.83,-48.4 356.91,-37.42 349.49,-28.27"/>
<polygon fill="#63b8ff" stroke="#63b8ff" points="351.99,-25.79 342.97,-20.23 346.55,-30.2 351.99,-25.79"/>
</a>
</g>
<g id="a_edge4&#45;headlabel"><a xlink:href="dir_000008_000009.html" target="_top" xlink:title="2">
<text text-anchor="middle" x="356.46" y="-24.29" font-family="Helvetica,sans-Serif" font-size="10.00" fill="#63b8ff">2</text>
</a>
</g>
</g>
<!-- dir_b3087d96848d598325567320d8b58b71 -->
<g id="node5" class="node">
<title>dir_b3087d96848d598325567320d8b58b71</title>
<g id="a_node5"><a xlink:href="dir_b3087d96848d598325567320d8b58b71.html" target="_top" xlink:title="Interventions">
<polygon fill="#a2b4d6" stroke="#404040" points="334.5,-75.14 253.5,-75.14 253.5,-56.14 334.5,-56.14 334.5,-75.14"/>
<text text-anchor="middle" x="294" y="-63.14" font-family="Helvetica,sans-Serif" font-size="10.00">Interventions</text>
</a>
</g>
</g>
<!-- dir_b3087d96848d598325567320d8b58b71&#45;&gt;dir_d44c64559bbebec7f509842c48db8b23 -->
<g id="edge5" class="edge">
<title>dir_b3087d96848d598325567320d8b58b71&#45;&gt;dir_d44c64559bbebec7f509842c48db8b23</title>
<g id="a_edge5"><a xlink:href="dir_000010_000009.html" target="_top">
<path fill="none" stroke="#63b8ff" d="M300.94,-55.89C306.87,-48.4 315.57,-37.42 322.82,-28.27"/>
<polygon fill="#63b8ff" stroke="#63b8ff" points="325.73,-30.24 329.19,-20.23 320.24,-25.89 325.73,-30.24"/>
</a>
</g>
<g id="a_edge5&#45;headlabel"><a xlink:href="dir_000010_000009.html" target="_top" xlink:title="1">
<text text-anchor="middle" x="325.72" y="-32.32" font-family="Helvetica,sans-Serif" font-size="10.00" fill="#63b8ff">1</text>
</a>
</g>
</g>
<!-- dir_d3602c4a2871e2f70a9bcb96e0999416 -->
<g id="node6" class="node">
<title>dir_d3602c4a2871e2f70a9bcb96e0999416</title>
<g id="a_node6"><a xlink:href="dir_d3602c4a2871e2f70a9bcb96e0999416.html" target="_top" xlink:title="Repository">
<polygon fill="#a2b4d6" stroke="#404040" points="235.5,-75.14 166.5,-75.14 166.5,-56.14 235.5,-56.14 235.5,-75.14"/>
<text text-anchor="middle" x="201" y="-63.14" font-family="Helvetica,sans-Serif" font-size="10.00">Repository</text>
</a>
</g>
</g>
<!-- dir_d3602c4a2871e2f70a9bcb96e0999416&#45;&gt;dir_d44c64559bbebec7f509842c48db8b23 -->
<g id="edge6" class="edge">
<title>dir_d3602c4a2871e2f70a9bcb96e0999416&#45;&gt;dir_d44c64559bbebec7f509842c48db8b23</title>
<g id="a_edge6"><a xlink:href="dir_000015_000009.html" target="_top">
<path fill="none" stroke="#63b8ff" d="M222.69,-56.12C244.8,-47.44 279.32,-33.89 304.45,-24.02"/>
<polygon fill="#63b8ff" stroke="#63b8ff" points="305.89,-27.22 313.92,-20.31 303.33,-20.71 305.89,-27.22"/>
</a>
</g>
<g id="a_edge6&#45;headlabel"><a xlink:href="dir_000015_000009.html" target="_top" xlink:title="6">
<text text-anchor="middle" x="303.58" y="-28.68" font-family="Helvetica,sans-Serif" font-size="10.00" fill="#63b8ff">6</text>
</a>
</g>
</g>
<!-- dir_d6e2c70a2cef4726c53c22f9dac6e79d -->
<g id="node7" class="node">
<title>dir_d6e2c70a2cef4726c53c22f9dac6e79d</title>
<g id="a_node7"><a xlink:href="dir_d6e2c70a2cef4726c53c22f9dac6e79d.html" target="_top" xlink:title="Technician">
<polygon fill="#a2b4d6" stroke="#404040" points="148,-75.14 80,-75.14 80,-56.14 148,-56.14 148,-75.14"/>
<text text-anchor="middle" x="114" y="-63.14" font-family="Helvetica,sans-Serif" font-size="10.00">Technician</text>
</a>
</g>
</g>
<!-- dir_d6e2c70a2cef4726c53c22f9dac6e79d&#45;&gt;dir_d44c64559bbebec7f509842c48db8b23 -->
<g id="edge7" class="edge">
<title>dir_d6e2c70a2cef4726c53c22f9dac6e79d&#45;&gt;dir_d44c64559bbebec7f509842c48db8b23</title>
<g id="a_edge7"><a xlink:href="dir_000019_000009.html" target="_top">
<path fill="none" stroke="#63b8ff" d="M134.81,-56.07C142.07,-53.29 150.32,-50.35 158,-48.14 206.28,-34.23 263.39,-23.5 299.65,-17.38"/>
<polygon fill="#63b8ff" stroke="#63b8ff" points="300.46,-20.79 309.75,-15.7 299.31,-13.88 300.46,-20.79"/>
</a>
</g>
<g id="a_edge7&#45;headlabel"><a xlink:href="dir_000019_000009.html" target="_top" xlink:title="7">
<text text-anchor="middle" x="297.38" y="-21.68" font-family="Helvetica,sans-Serif" font-size="10.00" fill="#63b8ff">7</text>
</a>
</g>
</g>
<!-- dir_55aebf04b79808644a3389dad64e5d8a -->
<g id="node8" class="node">
<title>dir_55aebf04b79808644a3389dad64e5d8a</title>
<g id="a_node8"><a xlink:href="dir_55aebf04b79808644a3389dad64e5d8a.html" target="_top" xlink:title="Views">
<polygon fill="#a2b4d6" stroke="#404040" points="62,-75.14 16,-75.14 16,-56.14 62,-56.14 62,-75.14"/>
<text text-anchor="middle" x="39" y="-63.14" font-family="Helvetica,sans-Serif" font-size="10.00">Views</text>
</a>
</g>
</g>
<!-- dir_55aebf04b79808644a3389dad64e5d8a&#45;&gt;dir_d44c64559bbebec7f509842c48db8b23 -->
<g id="edge8" class="edge">
<title>dir_55aebf04b79808644a3389dad64e5d8a&#45;&gt;dir_d44c64559bbebec7f509842c48db8b23</title>
<g id="a_edge8"><a xlink:href="dir_000022_000009.html" target="_top">
<path fill="none" stroke="#63b8ff" d="M53.21,-56C58.61,-53.07 64.92,-50.06 71,-48.14 150.12,-23.1 247.9,-15.23 299.74,-12.76"/>
<polygon fill="#63b8ff" stroke="#63b8ff" points="299.94,-16.26 309.78,-12.33 299.64,-9.27 299.94,-16.26"/>
</a>
</g>
<g id="a_edge8&#45;headlabel"><a xlink:href="dir_000022_000009.html" target="_top" xlink:title="53">
<text text-anchor="middle" x="296.47" y="-16.75" font-family="Helvetica,sans-Serif" font-size="10.00" fill="#63b8ff">53</text>
</a>
</g>
</g>
</g>
</svg>
