<?xml version="1.0" encoding="UTF-8" standalone="no"?>
<!DOCTYPE svg PUBLIC "-//W3C//DTD SVG 1.1//EN"
 "http://www.w3.org/Graphics/SVG/1.1/DTD/svg11.dtd">
<!-- Generated by graphviz version 2.43.0 (0)
 -->
<!-- Title: src/Views/Widgets/EntityEditorLayout.cpp Pages: 1 -->
<svg width="506pt" height="159pt"
 viewBox="0.00 0.00 505.50 159.00" xmlns="http://www.w3.org/2000/svg" xmlns:xlink="http://www.w3.org/1999/xlink">
<g id="graph0" class="graph" transform="scale(1 1) rotate(0) translate(4 155)">
<title>src/Views/Widgets/EntityEditorLayout.cpp</title>
<!-- Node1 -->
<g id="Node000001" class="node">
<title>Node1</title>
<g id="a_Node000001"><a xlink:title="Implements the EntityEditorLayout class, a reusable two&#45;panel UI layout with a title and action butto...">
<polygon fill="#999999" stroke="#666666" points="341.5,-151 204.5,-151 204.5,-121 341.5,-121 341.5,-151"/>
<text text-anchor="start" x="212.5" y="-139" font-family="Helvetica,sans-Serif" font-size="10.00">src/Views/Widgets/Entity</text>
<text text-anchor="middle" x="273" y="-128" font-family="Helvetica,sans-Serif" font-size="10.00">EditorLayout.cpp</text>
</a>
</g>
</g>
<!-- Node2 -->
<g id="Node000002" class="node">
<title>Node2</title>
<g id="a_Node000002"><a xlink:href="EntityEditorLayout_8h.html" target="_top" xlink:title="Declares the EntityEditorLayout class, a custom QWidget layout for editing entities with a left/right...">
<polygon fill="white" stroke="#666666" points="128,-85 0,-85 0,-55 128,-55 128,-85"/>
<text text-anchor="start" x="8" y="-73" font-family="Helvetica,sans-Serif" font-size="10.00">TechMa/Views/Widgets</text>
<text text-anchor="middle" x="64" y="-62" font-family="Helvetica,sans-Serif" font-size="10.00">/EntityEditorLayout.h</text>
</a>
</g>
</g>
<!-- Node1&#45;&gt;Node2 -->
<g id="edge1_Node000001_Node000002" class="edge">
<title>Node1&#45;&gt;Node2</title>
<g id="a_edge1_Node000001_Node000002"><a xlink:title=" ">
<path fill="none" stroke="#63b8ff" d="M227.13,-120.95C195.42,-111.24 153.05,-98.27 119.44,-87.98"/>
<polygon fill="#63b8ff" stroke="#63b8ff" points="120.35,-84.59 109.76,-85.01 118.3,-91.29 120.35,-84.59"/>
</a>
</g>
</g>
<!-- Node4 -->
<g id="Node000004" class="node">
<title>Node4</title>
<g id="a_Node000004"><a xlink:title=" ">
<polygon fill="#e0e0e0" stroke="#999999" points="229.5,-79.5 146.5,-79.5 146.5,-60.5 229.5,-60.5 229.5,-79.5"/>
<text text-anchor="middle" x="188" y="-67.5" font-family="Helvetica,sans-Serif" font-size="10.00">QHBoxLayout</text>
</a>
</g>
</g>
<!-- Node1&#45;&gt;Node4 -->
<g id="edge3_Node000001_Node000004" class="edge">
<title>Node1&#45;&gt;Node4</title>
<g id="a_edge3_Node000001_Node000004"><a xlink:title=" ">
<path fill="none" stroke="#63b8ff" d="M254.14,-120.8C240.36,-110.43 221.74,-96.4 207.76,-85.88"/>
<polygon fill="#63b8ff" stroke="#63b8ff" points="209.84,-83.06 199.75,-79.84 205.63,-88.66 209.84,-83.06"/>
</a>
</g>
</g>
<!-- Node5 -->
<g id="Node000005" class="node">
<title>Node5</title>
<g id="a_Node000005"><a xlink:title=" ">
<polygon fill="#e0e0e0" stroke="#999999" points="298,-79.5 248,-79.5 248,-60.5 298,-60.5 298,-79.5"/>
<text text-anchor="middle" x="273" y="-67.5" font-family="Helvetica,sans-Serif" font-size="10.00">QLabel</text>
</a>
</g>
</g>
<!-- Node1&#45;&gt;Node5 -->
<g id="edge4_Node000001_Node000005" class="edge">
<title>Node1&#45;&gt;Node5</title>
<g id="a_edge4_Node000001_Node000005"><a xlink:title=" ">
<path fill="none" stroke="#63b8ff" d="M273,-120.8C273,-111.7 273,-99.79 273,-89.9"/>
<polygon fill="#63b8ff" stroke="#63b8ff" points="276.5,-89.84 273,-79.84 269.5,-89.84 276.5,-89.84"/>
</a>
</g>
</g>
<!-- Node6 -->
<g id="Node000006" class="node">
<title>Node6</title>
<g id="a_Node000006"><a xlink:title=" ">
<polygon fill="#e0e0e0" stroke="#999999" points="396,-79.5 316,-79.5 316,-60.5 396,-60.5 396,-79.5"/>
<text text-anchor="middle" x="356" y="-67.5" font-family="Helvetica,sans-Serif" font-size="10.00">QPushButton</text>
</a>
</g>
</g>
<!-- Node1&#45;&gt;Node6 -->
<g id="edge5_Node000001_Node000006" class="edge">
<title>Node1&#45;&gt;Node6</title>
<g id="a_edge5_Node000001_Node000006"><a xlink:title=" ">
<path fill="none" stroke="#63b8ff" d="M291.42,-120.8C304.74,-110.53 322.71,-96.67 336.31,-86.18"/>
<polygon fill="#63b8ff" stroke="#63b8ff" points="338.75,-88.72 344.53,-79.84 334.47,-83.18 338.75,-88.72"/>
</a>
</g>
</g>
<!-- Node7 -->
<g id="Node000007" class="node">
<title>Node7</title>
<g id="a_Node000007"><a xlink:title=" ">
<polygon fill="#e0e0e0" stroke="#999999" points="497.5,-79.5 414.5,-79.5 414.5,-60.5 497.5,-60.5 497.5,-79.5"/>
<text text-anchor="middle" x="456" y="-67.5" font-family="Helvetica,sans-Serif" font-size="10.00">QVBoxLayout</text>
</a>
</g>
</g>
<!-- Node1&#45;&gt;Node7 -->
<g id="edge6_Node000001_Node000007" class="edge">
<title>Node1&#45;&gt;Node7</title>
<g id="a_edge6_Node000001_Node000007"><a xlink:title=" ">
<path fill="none" stroke="#63b8ff" d="M313.16,-120.95C345.82,-109.53 391.38,-93.6 422.19,-82.82"/>
<polygon fill="#63b8ff" stroke="#63b8ff" points="423.36,-86.12 431.65,-79.52 421.05,-79.51 423.36,-86.12"/>
</a>
</g>
</g>
<!-- Node3 -->
<g id="Node000003" class="node">
<title>Node3</title>
<g id="a_Node000003"><a xlink:title=" ">
<polygon fill="#e0e0e0" stroke="#999999" points="93.5,-19 34.5,-19 34.5,0 93.5,0 93.5,-19"/>
<text text-anchor="middle" x="64" y="-7" font-family="Helvetica,sans-Serif" font-size="10.00">QWidget</text>
</a>
</g>
</g>
<!-- Node2&#45;&gt;Node3 -->
<g id="edge2_Node000002_Node000003" class="edge">
<title>Node2&#45;&gt;Node3</title>
<g id="a_edge2_Node000002_Node000003"><a xlink:title=" ">
<path fill="none" stroke="#63b8ff" d="M64,-54.84C64,-47.21 64,-37.7 64,-29.45"/>
<polygon fill="#63b8ff" stroke="#63b8ff" points="67.5,-29.27 64,-19.27 60.5,-29.27 67.5,-29.27"/>
</a>
</g>
</g>
</g>
</svg>
