<?xml version="1.0" encoding="UTF-8" standalone="no"?>
<!DOCTYPE svg PUBLIC "-//W3C//DTD SVG 1.1//EN"
 "http://www.w3.org/Graphics/SVG/1.1/DTD/svg11.dtd">
<!-- Generated by graphviz version 2.43.0 (0)
 -->
<!-- Title: src/Technician/ExpertiseDecorator.cpp Pages: 1 -->
<svg width="365pt" height="335pt"
 viewBox="0.00 0.00 365.01 335.00" xmlns="http://www.w3.org/2000/svg" xmlns:xlink="http://www.w3.org/1999/xlink">
<g id="graph0" class="graph" transform="scale(1 1) rotate(0) translate(4 331)">
<title>src/Technician/ExpertiseDecorator.cpp</title>
<!-- Node1 -->
<g id="Node000001" class="node">
<title>Node1</title>
<g id="a_Node000001"><a xlink:title="Implements the ExpertiseDecorator class, which extends a technician&#39;s expertise using the Decorator p...">
<polygon fill="#999999" stroke="#666666" points="333,-327 199,-327 199,-297 333,-297 333,-327"/>
<text text-anchor="start" x="207" y="-315" font-family="Helvetica,sans-Serif" font-size="10.00">src/Technician/Expertise</text>
<text text-anchor="middle" x="266" y="-304" font-family="Helvetica,sans-Serif" font-size="10.00">Decorator.cpp</text>
</a>
</g>
</g>
<!-- Node2 -->
<g id="Node000002" class="node">
<title>Node2</title>
<g id="a_Node000002"><a xlink:href="ExpertiseDecorator_8h.html" target="_top" xlink:title="Declares the ExpertiseDecorator class, which adds an expertise field to a technician using the Decora...">
<polygon fill="white" stroke="#666666" points="344,-261 188,-261 188,-231 344,-231 344,-261"/>
<text text-anchor="start" x="196" y="-249" font-family="Helvetica,sans-Serif" font-size="10.00">TechMa/Technician/Expertise</text>
<text text-anchor="middle" x="266" y="-238" font-family="Helvetica,sans-Serif" font-size="10.00">Decorator.h</text>
</a>
</g>
</g>
<!-- Node1&#45;&gt;Node2 -->
<g id="edge1_Node000001_Node000002" class="edge">
<title>Node1&#45;&gt;Node2</title>
<g id="a_edge1_Node000001_Node000002"><a xlink:title=" ">
<path fill="none" stroke="#63b8ff" d="M266,-296.8C266,-289.34 266,-279.99 266,-271.41"/>
<polygon fill="#63b8ff" stroke="#63b8ff" points="269.5,-271.16 266,-261.16 262.5,-271.16 269.5,-271.16"/>
</a>
</g>
</g>
<!-- Node3 -->
<g id="Node000003" class="node">
<title>Node3</title>
<g id="a_Node000003"><a xlink:href="TechnicianDecorator_8h.html" target="_top" xlink:title="Declares the TechnicianDecorator abstract class used to extend technician functionality.">
<polygon fill="white" stroke="#666666" points="270.5,-195 109.5,-195 109.5,-165 270.5,-165 270.5,-195"/>
<text text-anchor="start" x="117.5" y="-183" font-family="Helvetica,sans-Serif" font-size="10.00">TechMa/Technician/Technician</text>
<text text-anchor="middle" x="190" y="-172" font-family="Helvetica,sans-Serif" font-size="10.00">Decorator.h</text>
</a>
</g>
</g>
<!-- Node1&#45;&gt;Node3 -->
<g id="edge11_Node000001_Node000003" class="edge">
<title>Node1&#45;&gt;Node3</title>
<g id="a_edge11_Node000001_Node000003"><a xlink:title=" ">
<path fill="none" stroke="#63b8ff" d="M222.75,-296.95C206.01,-289.15 188.6,-277.59 179,-261 169.11,-243.92 173.43,-221.43 179.31,-204.65"/>
<polygon fill="#63b8ff" stroke="#63b8ff" points="182.69,-205.62 183.07,-195.04 176.17,-203.08 182.69,-205.62"/>
</a>
</g>
</g>
<!-- Node7 -->
<g id="Node000007" class="node">
<title>Node7</title>
<g id="a_Node000007"><a xlink:href="ExpertiseField_8h.html" target="_top" xlink:title="Declares the ExpertiseField enum class representing technician specializations, and a utility functio...">
<polygon fill="white" stroke="#666666" points="313.5,-74 148.5,-74 148.5,-55 313.5,-55 313.5,-74"/>
<text text-anchor="middle" x="231" y="-62" font-family="Helvetica,sans-Serif" font-size="10.00">TechMa/Types/ExpertiseField.h</text>
</a>
</g>
</g>
<!-- Node1&#45;&gt;Node7 -->
<g id="edge12_Node000001_Node000007" class="edge">
<title>Node1&#45;&gt;Node7</title>
<g id="a_edge12_Node000001_Node000007"><a xlink:title=" ">
<path fill="none" stroke="#63b8ff" d="M309.25,-296.95C325.99,-289.15 343.4,-277.59 353,-261 359.68,-249.46 355.69,-244.06 353,-231 341.2,-173.67 338.94,-154.57 301,-110 289.85,-96.9 273.87,-86.34 259.99,-78.8"/>
<polygon fill="#63b8ff" stroke="#63b8ff" points="261.29,-75.53 250.8,-74.07 258.09,-81.76 261.29,-75.53"/>
</a>
</g>
</g>
<!-- Node2&#45;&gt;Node3 -->
<g id="edge2_Node000002_Node000003" class="edge">
<title>Node2&#45;&gt;Node3</title>
<g id="a_edge2_Node000002_Node000003"><a xlink:title=" ">
<path fill="none" stroke="#63b8ff" d="M249.13,-230.8C239,-222.26 225.92,-211.25 214.65,-201.75"/>
<polygon fill="#63b8ff" stroke="#63b8ff" points="216.72,-198.93 206.82,-195.16 212.21,-204.28 216.72,-198.93"/>
</a>
</g>
</g>
<!-- Node2&#45;&gt;Node7 -->
<g id="edge10_Node000002_Node000007" class="edge">
<title>Node2&#45;&gt;Node7</title>
<g id="a_edge10_Node000002_Node000007"><a xlink:title=" ">
<path fill="none" stroke="#63b8ff" d="M272.96,-230.82C284.43,-205.34 304.19,-150.67 285,-110 278.99,-97.26 267.34,-86.92 256.39,-79.44"/>
<polygon fill="#63b8ff" stroke="#63b8ff" points="258.21,-76.44 247.89,-74.05 254.46,-82.36 258.21,-76.44"/>
</a>
</g>
</g>
<!-- Node4 -->
<g id="Node000004" class="node">
<title>Node4</title>
<g id="a_Node000004"><a xlink:href="ATechnician_8h.html" target="_top" xlink:title="Defines the abstract base class ATechnician representing a technician entity.">
<polygon fill="white" stroke="#666666" points="162,-129 0,-129 0,-110 162,-110 162,-129"/>
<text text-anchor="middle" x="81" y="-117" font-family="Helvetica,sans-Serif" font-size="10.00">TechMa/Entities/ATechnician.h</text>
</a>
</g>
</g>
<!-- Node3&#45;&gt;Node4 -->
<g id="edge3_Node000003_Node000004" class="edge">
<title>Node3&#45;&gt;Node4</title>
<g id="a_edge3_Node000003_Node000004"><a xlink:title=" ">
<path fill="none" stroke="#63b8ff" d="M163.89,-164.99C146.36,-155.58 123.38,-143.24 106.06,-133.95"/>
<polygon fill="#63b8ff" stroke="#63b8ff" points="107.56,-130.78 97.1,-129.14 104.25,-136.95 107.56,-130.78"/>
</a>
</g>
</g>
<!-- Node3&#45;&gt;Node7 -->
<g id="edge8_Node000003_Node000007" class="edge">
<title>Node3&#45;&gt;Node7</title>
<g id="a_edge8_Node000003_Node000007"><a xlink:title=" ">
<path fill="none" stroke="#63b8ff" d="M193.09,-164.74C196.34,-150.61 201.97,-128.46 209,-110 212.45,-100.94 217.12,-91.25 221.26,-83.23"/>
<polygon fill="#63b8ff" stroke="#63b8ff" points="224.49,-84.61 226.11,-74.14 218.32,-81.32 224.49,-84.61"/>
</a>
</g>
</g>
<!-- Node8 -->
<g id="Node000008" class="node">
<title>Node8</title>
<g id="a_Node000008"><a xlink:title=" ">
<polygon fill="#e0e0e0" stroke="#999999" points="276,-129 218,-129 218,-110 276,-110 276,-129"/>
<text text-anchor="middle" x="247" y="-117" font-family="Helvetica,sans-Serif" font-size="10.00">memory</text>
</a>
</g>
</g>
<!-- Node3&#45;&gt;Node8 -->
<g id="edge9_Node000003_Node000008" class="edge">
<title>Node3&#45;&gt;Node8</title>
<g id="a_edge9_Node000003_Node000008"><a xlink:title=" ">
<path fill="none" stroke="#63b8ff" d="M203.8,-164.84C212.07,-156.35 222.62,-145.52 231.23,-136.69"/>
<polygon fill="#63b8ff" stroke="#63b8ff" points="233.99,-138.87 238.46,-129.27 228.97,-133.99 233.99,-138.87"/>
</a>
</g>
</g>
<!-- Node5 -->
<g id="Node000005" class="node">
<title>Node5</title>
<g id="a_Node000005"><a xlink:title=" ">
<polygon fill="#e0e0e0" stroke="#999999" points="165,-19 121,-19 121,0 165,0 165,-19"/>
<text text-anchor="middle" x="143" y="-7" font-family="Helvetica,sans-Serif" font-size="10.00">string</text>
</a>
</g>
</g>
<!-- Node4&#45;&gt;Node5 -->
<g id="edge4_Node000004_Node000005" class="edge">
<title>Node4&#45;&gt;Node5</title>
<g id="a_edge4_Node000004_Node000005"><a xlink:title=" ">
<path fill="none" stroke="#63b8ff" d="M76.99,-109.67C71.79,-96.8 64.45,-72.53 74,-55 82.11,-40.11 97.58,-29.45 111.82,-22.31"/>
<polygon fill="#63b8ff" stroke="#63b8ff" points="113.3,-25.48 120.91,-18.11 110.37,-19.12 113.3,-25.48"/>
</a>
</g>
</g>
<!-- Node6 -->
<g id="Node000006" class="node">
<title>Node6</title>
<g id="a_Node000006"><a xlink:title=" ">
<polygon fill="#e0e0e0" stroke="#999999" points="130.5,-74 83.5,-74 83.5,-55 130.5,-55 130.5,-74"/>
<text text-anchor="middle" x="107" y="-62" font-family="Helvetica,sans-Serif" font-size="10.00">vector</text>
</a>
</g>
</g>
<!-- Node4&#45;&gt;Node6 -->
<g id="edge5_Node000004_Node000006" class="edge">
<title>Node4&#45;&gt;Node6</title>
<g id="a_edge5_Node000004_Node000006"><a xlink:title=" ">
<path fill="none" stroke="#63b8ff" d="M85.29,-109.75C88.81,-102.57 93.91,-92.18 98.28,-83.27"/>
<polygon fill="#63b8ff" stroke="#63b8ff" points="101.52,-84.61 102.79,-74.09 95.24,-81.53 101.52,-84.61"/>
</a>
</g>
</g>
<!-- Node4&#45;&gt;Node7 -->
<g id="edge6_Node000004_Node000007" class="edge">
<title>Node4&#45;&gt;Node7</title>
<g id="a_edge6_Node000004_Node000007"><a xlink:title=" ">
<path fill="none" stroke="#63b8ff" d="M105.1,-109.98C129.88,-101.23 168.7,-87.51 196.69,-77.62"/>
<polygon fill="#63b8ff" stroke="#63b8ff" points="198.2,-80.8 206.46,-74.17 195.87,-74.2 198.2,-80.8"/>
</a>
</g>
</g>
<!-- Node7&#45;&gt;Node5 -->
<g id="edge7_Node000007_Node000005" class="edge">
<title>Node7&#45;&gt;Node5</title>
<g id="a_edge7_Node000007_Node000005"><a xlink:title=" ">
<path fill="none" stroke="#63b8ff" d="M216.86,-54.98C203.21,-46.77 182.31,-34.18 166.22,-24.49"/>
<polygon fill="#63b8ff" stroke="#63b8ff" points="167.77,-21.33 157.4,-19.17 164.16,-27.33 167.77,-21.33"/>
</a>
</g>
</g>
</g>
</svg>
