<?xml version="1.0" encoding="UTF-8" standalone="no"?>
<!DOCTYPE svg PUBLIC "-//W3C//DTD SVG 1.1//EN"
 "http://www.w3.org/Graphics/SVG/1.1/DTD/svg11.dtd">
<!-- Generated by graphviz version 2.43.0 (0)
 -->
<!-- Title: to_string Pages: 1 -->
<svg width="589pt" height="278pt"
 viewBox="0.00 0.00 589.00 278.00" xmlns="http://www.w3.org/2000/svg" xmlns:xlink="http://www.w3.org/1999/xlink">
<g id="graph0" class="graph" transform="scale(1 1) rotate(0) translate(4 274)">
<title>to_string</title>
<!-- Node1 -->
<g id="Node000001" class="node">
<title>Node1</title>
<g id="a_Node000001"><a xlink:title="Converts an ExpertiseField enum value to a human&#45;readable string.">
<polygon fill="#999999" stroke="#666666" points="581,-144.5 522,-144.5 522,-125.5 581,-125.5 581,-144.5"/>
<text text-anchor="middle" x="551.5" y="-132.5" font-family="Helvetica,sans-Serif" font-size="10.00">to_string</text>
</a>
</g>
</g>
<!-- Node2 -->
<g id="Node000002" class="node">
<title>Node2</title>
<g id="a_Node000002"><a xlink:href="classInterventionsListView.html#a09c3eb5ea0586743b19fead7d7705b5e" target="_top" xlink:title="Slot called when the intervention repository is updated.">
<polygon fill="white" stroke="#666666" points="483,-270 349,-270 349,-240 483,-240 483,-270"/>
<text text-anchor="start" x="357" y="-258" font-family="Helvetica,sans-Serif" font-size="10.00">InterventionsListView</text>
<text text-anchor="middle" x="416" y="-247" font-family="Helvetica,sans-Serif" font-size="10.00">::on_repository_updated</text>
</a>
</g>
</g>
<!-- Node1&#45;&gt;Node2 -->
<g id="edge1_Node000001_Node000002" class="edge">
<title>Node1&#45;&gt;Node2</title>
<g id="a_edge1_Node000001_Node000002"><a xlink:title=" ">
<path fill="none" stroke="#63b8ff" d="M542.41,-153.8C532.22,-175.35 512.77,-210.36 486,-231 481.58,-234.41 476.64,-237.35 471.49,-239.9"/>
<polygon fill="#63b8ff" stroke="#63b8ff" points="545.6,-155.23 546.54,-144.68 539.22,-152.34 545.6,-155.23"/>
</a>
</g>
</g>
<!-- Node5 -->
<g id="Node000005" class="node">
<title>Node5</title>
<g id="a_Node000005"><a xlink:href="classTechnicianEditPanel.html#adf67fcc26f8635f45f89ef868c405ced" target="_top" xlink:title="Sets the selected expertise fields in the list.">
<polygon fill="white" stroke="#666666" points="472.5,-222 359.5,-222 359.5,-192 472.5,-192 472.5,-222"/>
<text text-anchor="start" x="367.5" y="-210" font-family="Helvetica,sans-Serif" font-size="10.00">TechnicianEditPanel</text>
<text text-anchor="middle" x="416" y="-199" font-family="Helvetica,sans-Serif" font-size="10.00">::set_expertises</text>
</a>
</g>
</g>
<!-- Node1&#45;&gt;Node5 -->
<g id="edge4_Node000001_Node000005" class="edge">
<title>Node1&#45;&gt;Node5</title>
<g id="a_edge4_Node000001_Node000005"><a xlink:title=" ">
<path fill="none" stroke="#63b8ff" d="M532.02,-151.15C519.65,-161.34 502.64,-174.19 486,-183 479.84,-186.27 473.14,-189.24 466.41,-191.89"/>
<polygon fill="#63b8ff" stroke="#63b8ff" points="534.39,-153.73 539.78,-144.6 529.88,-148.37 534.39,-153.73"/>
</a>
</g>
</g>
<!-- Node7 -->
<g id="Node000007" class="node">
<title>Node7</title>
<g id="a_Node000007"><a xlink:href="classCreateInterventionDialog.html#ab34044aab8aa9b63a1e9a4664cae8e30" target="_top" xlink:title="Initializes and arranges all UI components.">
<polygon fill="white" stroke="#666666" points="486,-174 346,-174 346,-144 486,-144 486,-174"/>
<text text-anchor="start" x="354" y="-162" font-family="Helvetica,sans-Serif" font-size="10.00">CreateInterventionDialog</text>
<text text-anchor="middle" x="416" y="-151" font-family="Helvetica,sans-Serif" font-size="10.00">::setup_ui</text>
</a>
</g>
</g>
<!-- Node1&#45;&gt;Node7 -->
<g id="edge6_Node000001_Node000007" class="edge">
<title>Node1&#45;&gt;Node7</title>
<g id="a_edge6_Node000001_Node000007"><a xlink:title=" ">
<path fill="none" stroke="#63b8ff" d="M511.98,-141.92C503.86,-143.38 495.05,-144.97 486.19,-146.56"/>
<polygon fill="#63b8ff" stroke="#63b8ff" points="512.64,-145.36 521.86,-140.15 511.4,-138.47 512.64,-145.36"/>
</a>
</g>
</g>
<!-- Node9 -->
<g id="Node000009" class="node">
<title>Node9</title>
<g id="a_Node000009"><a xlink:href="classCreateTechnicianDialog.html#ae7960dc0958f8442fb97915b1c2ce118" target="_top" xlink:title="Builds and arranges the dialog&#39;s UI components.">
<polygon fill="white" stroke="#666666" points="481.5,-126 350.5,-126 350.5,-96 481.5,-96 481.5,-126"/>
<text text-anchor="start" x="358.5" y="-114" font-family="Helvetica,sans-Serif" font-size="10.00">CreateTechnicianDialog</text>
<text text-anchor="middle" x="416" y="-103" font-family="Helvetica,sans-Serif" font-size="10.00">::setup_ui</text>
</a>
</g>
</g>
<!-- Node1&#45;&gt;Node9 -->
<g id="edge8_Node000001_Node000009" class="edge">
<title>Node1&#45;&gt;Node9</title>
<g id="a_edge8_Node000001_Node000009"><a xlink:title=" ">
<path fill="none" stroke="#63b8ff" d="M511.93,-128.07C502.4,-126.35 491.93,-124.47 481.53,-122.6"/>
<polygon fill="#63b8ff" stroke="#63b8ff" points="511.4,-131.53 521.86,-129.85 512.64,-124.64 511.4,-131.53"/>
</a>
</g>
</g>
<!-- Node11 -->
<g id="Node000011" class="node">
<title>Node11</title>
<g id="a_Node000011"><a xlink:href="classInterventionEditPanel.html#abad2a36d7869a00f21a0ba68de93d4ec" target="_top" xlink:title="Sets up all UI components and layout.">
<polygon fill="white" stroke="#666666" points="476.5,-78 355.5,-78 355.5,-48 476.5,-48 476.5,-78"/>
<text text-anchor="start" x="363.5" y="-66" font-family="Helvetica,sans-Serif" font-size="10.00">InterventionEditPanel</text>
<text text-anchor="middle" x="416" y="-55" font-family="Helvetica,sans-Serif" font-size="10.00">::setup_ui</text>
</a>
</g>
</g>
<!-- Node1&#45;&gt;Node11 -->
<g id="edge10_Node000001_Node000011" class="edge">
<title>Node1&#45;&gt;Node11</title>
<g id="a_edge10_Node000001_Node000011"><a xlink:title=" ">
<path fill="none" stroke="#63b8ff" d="M532.02,-118.85C519.65,-108.66 502.64,-95.81 486,-87 479.84,-83.73 473.14,-80.76 466.41,-78.11"/>
<polygon fill="#63b8ff" stroke="#63b8ff" points="529.88,-121.63 539.78,-125.4 534.39,-116.27 529.88,-121.63"/>
</a>
</g>
</g>
<!-- Node13 -->
<g id="Node000013" class="node">
<title>Node13</title>
<g id="a_Node000013"><a xlink:href="classTechnicianEditPanel.html#a21b377b52502955afce746edc759992b" target="_top" xlink:title="Initializes all UI components and layout.">
<polygon fill="white" stroke="#666666" points="472.5,-30 359.5,-30 359.5,0 472.5,0 472.5,-30"/>
<text text-anchor="start" x="367.5" y="-18" font-family="Helvetica,sans-Serif" font-size="10.00">TechnicianEditPanel</text>
<text text-anchor="middle" x="416" y="-7" font-family="Helvetica,sans-Serif" font-size="10.00">::setup_ui</text>
</a>
</g>
</g>
<!-- Node1&#45;&gt;Node13 -->
<g id="edge12_Node000001_Node000013" class="edge">
<title>Node1&#45;&gt;Node13</title>
<g id="a_edge12_Node000001_Node000013"><a xlink:title=" ">
<path fill="none" stroke="#63b8ff" d="M542.41,-116.2C532.22,-94.65 512.77,-59.64 486,-39 481.58,-35.59 476.64,-32.65 471.49,-30.1"/>
<polygon fill="#63b8ff" stroke="#63b8ff" points="539.22,-117.66 546.54,-125.32 545.6,-114.77 539.22,-117.66"/>
</a>
</g>
</g>
<!-- Node3 -->
<g id="Node000003" class="node">
<title>Node3</title>
<g id="a_Node000003"><a xlink:href="classInterventionsListView.html#a1ff1310c5ed4a038e39dd6e71dfc1915" target="_top" xlink:title="Initializes the list view UI components.">
<polygon fill="white" stroke="#666666" points="298,-270 176,-270 176,-240 298,-240 298,-270"/>
<text text-anchor="start" x="184" y="-258" font-family="Helvetica,sans-Serif" font-size="10.00">InterventionsListView</text>
<text text-anchor="middle" x="237" y="-247" font-family="Helvetica,sans-Serif" font-size="10.00">::setup_ui</text>
</a>
</g>
</g>
<!-- Node2&#45;&gt;Node3 -->
<g id="edge2_Node000002_Node000003" class="edge">
<title>Node2&#45;&gt;Node3</title>
<g id="a_edge2_Node000002_Node000003"><a xlink:title=" ">
<path fill="none" stroke="#63b8ff" d="M338.61,-255C325.11,-255 311.22,-255 298.24,-255"/>
<polygon fill="#63b8ff" stroke="#63b8ff" points="338.84,-258.5 348.84,-255 338.84,-251.5 338.84,-258.5"/>
</a>
</g>
</g>
<!-- Node4 -->
<g id="Node000004" class="node">
<title>Node4</title>
<g id="a_Node000004"><a xlink:href="classInterventionsListView.html#a1e18e26a39a91aaa4ba252033b3d5d57" target="_top" xlink:title="Constructs the list view and initializes its UI.">
<polygon fill="white" stroke="#666666" points="128,-270 0,-270 0,-240 128,-240 128,-270"/>
<text text-anchor="start" x="8" y="-258" font-family="Helvetica,sans-Serif" font-size="10.00">InterventionsListView</text>
<text text-anchor="middle" x="64" y="-247" font-family="Helvetica,sans-Serif" font-size="10.00">::InterventionsListView</text>
</a>
</g>
</g>
<!-- Node3&#45;&gt;Node4 -->
<g id="edge3_Node000003_Node000004" class="edge">
<title>Node3&#45;&gt;Node4</title>
<g id="a_edge3_Node000003_Node000004"><a xlink:title=" ">
<path fill="none" stroke="#63b8ff" d="M165.47,-255C153.12,-255 140.35,-255 128.22,-255"/>
<polygon fill="#63b8ff" stroke="#63b8ff" points="165.71,-258.5 175.71,-255 165.71,-251.5 165.71,-258.5"/>
</a>
</g>
</g>
<!-- Node6 -->
<g id="Node000006" class="node">
<title>Node6</title>
<g id="a_Node000006"><a xlink:href="classTechnicianEditPanel.html#a97a82e304a62d5c3b4c4798972d5c583" target="_top" xlink:title="Loads a technician into the panel for editing.">
<polygon fill="white" stroke="#666666" points="293.5,-222 180.5,-222 180.5,-192 293.5,-192 293.5,-222"/>
<text text-anchor="start" x="188.5" y="-210" font-family="Helvetica,sans-Serif" font-size="10.00">TechnicianEditPanel</text>
<text text-anchor="middle" x="237" y="-199" font-family="Helvetica,sans-Serif" font-size="10.00">::load_technician</text>
</a>
</g>
</g>
<!-- Node5&#45;&gt;Node6 -->
<g id="edge5_Node000005_Node000006" class="edge">
<title>Node5&#45;&gt;Node6</title>
<g id="a_edge5_Node000005_Node000006"><a xlink:title=" ">
<path fill="none" stroke="#63b8ff" d="M349.45,-207C331.11,-207 311.34,-207 293.63,-207"/>
<polygon fill="#63b8ff" stroke="#63b8ff" points="349.48,-210.5 359.48,-207 349.48,-203.5 349.48,-210.5"/>
</a>
</g>
</g>
<!-- Node8 -->
<g id="Node000008" class="node">
<title>Node8</title>
<g id="a_Node000008"><a xlink:href="classCreateInterventionDialog.html#a90408e026b2b8ba7a0da0179623c3e37" target="_top" xlink:title="Constructs the dialog.">
<polygon fill="white" stroke="#666666" points="310,-174 164,-174 164,-144 310,-144 310,-174"/>
<text text-anchor="start" x="172" y="-162" font-family="Helvetica,sans-Serif" font-size="10.00">CreateInterventionDialog</text>
<text text-anchor="middle" x="237" y="-151" font-family="Helvetica,sans-Serif" font-size="10.00">::CreateInterventionDialog</text>
</a>
</g>
</g>
<!-- Node7&#45;&gt;Node8 -->
<g id="edge7_Node000007_Node000008" class="edge">
<title>Node7&#45;&gt;Node8</title>
<g id="a_edge7_Node000007_Node000008"><a xlink:title=" ">
<path fill="none" stroke="#63b8ff" d="M335.53,-159C327.05,-159 318.45,-159 310.06,-159"/>
<polygon fill="#63b8ff" stroke="#63b8ff" points="335.81,-162.5 345.81,-159 335.81,-155.5 335.81,-162.5"/>
</a>
</g>
</g>
<!-- Node10 -->
<g id="Node000010" class="node">
<title>Node10</title>
<g id="a_Node000010"><a xlink:href="classCreateTechnicianDialog.html#a1455bfbc9d01fc3d28103a514c5f170e" target="_top" xlink:title="Constructs the dialog and initializes the UI.">
<polygon fill="white" stroke="#666666" points="305.5,-126 168.5,-126 168.5,-96 305.5,-96 305.5,-126"/>
<text text-anchor="start" x="176.5" y="-114" font-family="Helvetica,sans-Serif" font-size="10.00">CreateTechnicianDialog</text>
<text text-anchor="middle" x="237" y="-103" font-family="Helvetica,sans-Serif" font-size="10.00">::CreateTechnicianDialog</text>
</a>
</g>
</g>
<!-- Node9&#45;&gt;Node10 -->
<g id="edge9_Node000009_Node000010" class="edge">
<title>Node9&#45;&gt;Node10</title>
<g id="a_edge9_Node000009_Node000010"><a xlink:title=" ">
<path fill="none" stroke="#63b8ff" d="M340.01,-111C328.64,-111 316.96,-111 305.75,-111"/>
<polygon fill="#63b8ff" stroke="#63b8ff" points="340.35,-114.5 350.35,-111 340.35,-107.5 340.35,-114.5"/>
</a>
</g>
</g>
<!-- Node12 -->
<g id="Node000012" class="node">
<title>Node12</title>
<g id="a_Node000012"><a xlink:href="classInterventionEditPanel.html#a615c4abb0f0c74b2689a5534b29cdde1" target="_top" xlink:title="Constructs the panel and initializes UI components.">
<polygon fill="white" stroke="#666666" points="300.5,-78 173.5,-78 173.5,-48 300.5,-48 300.5,-78"/>
<text text-anchor="start" x="181.5" y="-66" font-family="Helvetica,sans-Serif" font-size="10.00">InterventionEditPanel</text>
<text text-anchor="middle" x="237" y="-55" font-family="Helvetica,sans-Serif" font-size="10.00">::InterventionEditPanel</text>
</a>
</g>
</g>
<!-- Node11&#45;&gt;Node12 -->
<g id="edge11_Node000011_Node000012" class="edge">
<title>Node11&#45;&gt;Node12</title>
<g id="a_edge11_Node000011_Node000012"><a xlink:title=" ">
<path fill="none" stroke="#63b8ff" d="M345.05,-63C330.37,-63 314.97,-63 300.58,-63"/>
<polygon fill="#63b8ff" stroke="#63b8ff" points="345.08,-66.5 355.08,-63 345.08,-59.5 345.08,-66.5"/>
</a>
</g>
</g>
<!-- Node14 -->
<g id="Node000014" class="node">
<title>Node14</title>
<g id="a_Node000014"><a xlink:href="classTechnicianEditPanel.html#a018abeb1dd6aaa088cb8ffcc9bd875a5" target="_top" xlink:title="Constructs the edit panel and initializes the UI.">
<polygon fill="white" stroke="#666666" points="296.5,-30 177.5,-30 177.5,0 296.5,0 296.5,-30"/>
<text text-anchor="start" x="185.5" y="-18" font-family="Helvetica,sans-Serif" font-size="10.00">TechnicianEditPanel</text>
<text text-anchor="middle" x="237" y="-7" font-family="Helvetica,sans-Serif" font-size="10.00">::TechnicianEditPanel</text>
</a>
</g>
</g>
<!-- Node13&#45;&gt;Node14 -->
<g id="edge13_Node000013_Node000014" class="edge">
<title>Node13&#45;&gt;Node14</title>
<g id="a_edge13_Node000013_Node000014"><a xlink:title=" ">
<path fill="none" stroke="#63b8ff" d="M349.46,-15C332.16,-15 313.6,-15 296.69,-15"/>
<polygon fill="#63b8ff" stroke="#63b8ff" points="349.48,-18.5 359.48,-15 349.48,-11.5 349.48,-18.5"/>
</a>
</g>
</g>
</g>
</svg>
