<?xml version="1.0" encoding="UTF-8" standalone="no"?>
<!DOCTYPE svg PUBLIC "-//W3C//DTD SVG 1.1//EN"
 "http://www.w3.org/Graphics/SVG/1.1/DTD/svg11.dtd">
<!-- Generated by graphviz version 2.43.0 (0)
 -->
<!-- Title: include/TechMa/Technician/ExpertiseDecorator.h Pages: 1 -->
<svg width="328pt" height="269pt"
 viewBox="0.00 0.00 328.00 269.00" xmlns="http://www.w3.org/2000/svg" xmlns:xlink="http://www.w3.org/1999/xlink">
<g id="graph0" class="graph" transform="scale(1 1) rotate(0) translate(4 265)">
<title>include/TechMa/Technician/ExpertiseDecorator.h</title>
<!-- Node1 -->
<g id="Node000001" class="node">
<title>Node1</title>
<g id="a_Node000001"><a xlink:title="Declares the ExpertiseDecorator class, which adds an expertise field to a technician using the Decora...">
<polygon fill="#999999" stroke="#666666" points="320,-261 174,-261 174,-231 320,-231 320,-261"/>
<text text-anchor="start" x="182" y="-249" font-family="Helvetica,sans-Serif" font-size="10.00">include/TechMa/Technician</text>
<text text-anchor="middle" x="247" y="-238" font-family="Helvetica,sans-Serif" font-size="10.00">/ExpertiseDecorator.h</text>
</a>
</g>
</g>
<!-- Node2 -->
<g id="Node000002" class="node">
<title>Node2</title>
<g id="a_Node000002"><a xlink:href="TechnicianDecorator_8h.html" target="_top" xlink:title="Declares the TechnicianDecorator abstract class used to extend technician functionality.">
<polygon fill="white" stroke="#666666" points="273.5,-195 112.5,-195 112.5,-165 273.5,-165 273.5,-195"/>
<text text-anchor="start" x="120.5" y="-183" font-family="Helvetica,sans-Serif" font-size="10.00">TechMa/Technician/Technician</text>
<text text-anchor="middle" x="193" y="-172" font-family="Helvetica,sans-Serif" font-size="10.00">Decorator.h</text>
</a>
</g>
</g>
<!-- Node1&#45;&gt;Node2 -->
<g id="edge1_Node000001_Node000002" class="edge">
<title>Node1&#45;&gt;Node2</title>
<g id="a_edge1_Node000001_Node000002"><a xlink:title=" ">
<path fill="none" stroke="#63b8ff" d="M235.02,-230.8C228.09,-222.59 219.24,-212.1 211.45,-202.87"/>
<polygon fill="#63b8ff" stroke="#63b8ff" points="214.07,-200.55 204.95,-195.16 208.72,-205.06 214.07,-200.55"/>
</a>
</g>
</g>
<!-- Node6 -->
<g id="Node000006" class="node">
<title>Node6</title>
<g id="a_Node000006"><a xlink:href="ExpertiseField_8h.html" target="_top" xlink:title="Declares the ExpertiseField enum class representing technician specializations, and a utility functio...">
<polygon fill="white" stroke="#666666" points="287.5,-74 122.5,-74 122.5,-55 287.5,-55 287.5,-74"/>
<text text-anchor="middle" x="205" y="-62" font-family="Helvetica,sans-Serif" font-size="10.00">TechMa/Types/ExpertiseField.h</text>
</a>
</g>
</g>
<!-- Node1&#45;&gt;Node6 -->
<g id="edge9_Node000001_Node000006" class="edge">
<title>Node1&#45;&gt;Node6</title>
<g id="a_edge9_Node000001_Node000006"><a xlink:title=" ">
<path fill="none" stroke="#63b8ff" d="M260.96,-230.58C269.03,-221.25 278.46,-208.37 283,-195 295.14,-159.22 304.15,-142.57 285,-110 276.26,-95.14 260.56,-84.88 245.37,-77.99"/>
<polygon fill="#63b8ff" stroke="#63b8ff" points="246.62,-74.72 236.05,-74.13 243.94,-81.19 246.62,-74.72"/>
</a>
</g>
</g>
<!-- Node3 -->
<g id="Node000003" class="node">
<title>Node3</title>
<g id="a_Node000003"><a xlink:href="ATechnician_8h.html" target="_top" xlink:title="Defines the abstract base class ATechnician representing a technician entity.">
<polygon fill="white" stroke="#666666" points="162,-129 0,-129 0,-110 162,-110 162,-129"/>
<text text-anchor="middle" x="81" y="-117" font-family="Helvetica,sans-Serif" font-size="10.00">TechMa/Entities/ATechnician.h</text>
</a>
</g>
</g>
<!-- Node2&#45;&gt;Node3 -->
<g id="edge2_Node000002_Node000003" class="edge">
<title>Node2&#45;&gt;Node3</title>
<g id="a_edge2_Node000002_Node000003"><a xlink:title=" ">
<path fill="none" stroke="#63b8ff" d="M166.17,-164.99C148.15,-155.58 124.54,-143.24 106.75,-133.95"/>
<polygon fill="#63b8ff" stroke="#63b8ff" points="108.02,-130.67 97.54,-129.14 104.78,-136.87 108.02,-130.67"/>
</a>
</g>
</g>
<!-- Node2&#45;&gt;Node6 -->
<g id="edge7_Node000002_Node000006" class="edge">
<title>Node2&#45;&gt;Node6</title>
<g id="a_edge7_Node000002_Node000006"><a xlink:title=" ">
<path fill="none" stroke="#63b8ff" d="M194.52,-164.63C196.68,-144.21 200.63,-106.81 203.02,-84.24"/>
<polygon fill="#63b8ff" stroke="#63b8ff" points="206.51,-84.54 204.08,-74.23 199.54,-83.81 206.51,-84.54"/>
</a>
</g>
</g>
<!-- Node7 -->
<g id="Node000007" class="node">
<title>Node7</title>
<g id="a_Node000007"><a xlink:title=" ">
<polygon fill="#e0e0e0" stroke="#999999" points="276,-129 218,-129 218,-110 276,-110 276,-129"/>
<text text-anchor="middle" x="247" y="-117" font-family="Helvetica,sans-Serif" font-size="10.00">memory</text>
</a>
</g>
</g>
<!-- Node2&#45;&gt;Node7 -->
<g id="edge8_Node000002_Node000007" class="edge">
<title>Node2&#45;&gt;Node7</title>
<g id="a_edge8_Node000002_Node000007"><a xlink:title=" ">
<path fill="none" stroke="#63b8ff" d="M206.07,-164.84C213.91,-156.35 223.91,-145.52 232.06,-136.69"/>
<polygon fill="#63b8ff" stroke="#63b8ff" points="234.7,-138.99 238.91,-129.27 229.55,-134.24 234.7,-138.99"/>
</a>
</g>
</g>
<!-- Node4 -->
<g id="Node000004" class="node">
<title>Node4</title>
<g id="a_Node000004"><a xlink:title=" ">
<polygon fill="#e0e0e0" stroke="#999999" points="139,-19 95,-19 95,0 139,0 139,-19"/>
<text text-anchor="middle" x="117" y="-7" font-family="Helvetica,sans-Serif" font-size="10.00">string</text>
</a>
</g>
</g>
<!-- Node3&#45;&gt;Node4 -->
<g id="edge3_Node000003_Node000004" class="edge">
<title>Node3&#45;&gt;Node4</title>
<g id="a_edge3_Node000003_Node000004"><a xlink:title=" ">
<path fill="none" stroke="#63b8ff" d="M70.73,-109.82C57.51,-97.53 37.42,-74.42 48,-55 56.11,-40.11 71.58,-29.45 85.82,-22.31"/>
<polygon fill="#63b8ff" stroke="#63b8ff" points="87.3,-25.48 94.91,-18.11 84.37,-19.12 87.3,-25.48"/>
</a>
</g>
</g>
<!-- Node5 -->
<g id="Node000005" class="node">
<title>Node5</title>
<g id="a_Node000005"><a xlink:title=" ">
<polygon fill="#e0e0e0" stroke="#999999" points="104.5,-74 57.5,-74 57.5,-55 104.5,-55 104.5,-74"/>
<text text-anchor="middle" x="81" y="-62" font-family="Helvetica,sans-Serif" font-size="10.00">vector</text>
</a>
</g>
</g>
<!-- Node3&#45;&gt;Node5 -->
<g id="edge4_Node000003_Node000005" class="edge">
<title>Node3&#45;&gt;Node5</title>
<g id="a_edge4_Node000003_Node000005"><a xlink:title=" ">
<path fill="none" stroke="#63b8ff" d="M81,-109.75C81,-102.8 81,-92.85 81,-84.13"/>
<polygon fill="#63b8ff" stroke="#63b8ff" points="84.5,-84.09 81,-74.09 77.5,-84.09 84.5,-84.09"/>
</a>
</g>
</g>
<!-- Node3&#45;&gt;Node6 -->
<g id="edge5_Node000003_Node000006" class="edge">
<title>Node3&#45;&gt;Node6</title>
<g id="a_edge5_Node000003_Node000006"><a xlink:title=" ">
<path fill="none" stroke="#63b8ff" d="M100.92,-109.98C121.05,-101.38 152.38,-87.99 175.41,-78.15"/>
<polygon fill="#63b8ff" stroke="#63b8ff" points="176.9,-81.32 184.71,-74.17 174.14,-74.88 176.9,-81.32"/>
</a>
</g>
</g>
<!-- Node6&#45;&gt;Node4 -->
<g id="edge6_Node000006_Node000004" class="edge">
<title>Node6&#45;&gt;Node4</title>
<g id="a_edge6_Node000006_Node000004"><a xlink:title=" ">
<path fill="none" stroke="#63b8ff" d="M190.86,-54.98C177.21,-46.77 156.31,-34.18 140.22,-24.49"/>
<polygon fill="#63b8ff" stroke="#63b8ff" points="141.77,-21.33 131.4,-19.17 138.16,-27.33 141.77,-21.33"/>
</a>
</g>
</g>
</g>
</svg>
