<?xml version="1.0" encoding="UTF-8" standalone="no"?>
<!DOCTYPE svg PUBLIC "-//W3C//DTD SVG 1.1//EN"
 "http://www.w3.org/Graphics/SVG/1.1/DTD/svg11.dtd">
<!-- Generated by graphviz version 2.43.0 (0)
 -->
<!-- Title: Graphical Class Hierarchy Pages: 1 -->
<svg width="284pt" height="101pt"
 viewBox="0.00 0.00 284.00 101.00" xmlns="http://www.w3.org/2000/svg" xmlns:xlink="http://www.w3.org/1999/xlink">
<g id="graph0" class="graph" transform="scale(1 1) rotate(0) translate(4 97)">
<title>Graphical Class Hierarchy</title>
<!-- Node0 -->
<g id="Node000000" class="node">
<title>Node0</title>
<g id="a_Node000000"><a xlink:href="classATechnicianObserver.html" target="_top" xlink:title="Interface for classes that need to observe changes in the technician repository.">
<polygon fill="white" stroke="#666666" points="118,-56 0,-56 0,-37 118,-37 118,-56"/>
<text text-anchor="middle" x="59" y="-44" font-family="Helvetica,sans-Serif" font-size="10.00">ATechnicianObserver</text>
</a>
</g>
</g>
<!-- Node1 -->
<g id="Node000001" class="node">
<title>Node1</title>
<g id="a_Node000001"><a xlink:href="classTechListController.html" target="_top" xlink:title="Controls UI elements related to technician selection and observes technician repository updates.">
<polygon fill="white" stroke="#666666" points="267,-93 163,-93 163,-74 267,-74 267,-93"/>
<text text-anchor="middle" x="215" y="-81" font-family="Helvetica,sans-Serif" font-size="10.00">TechListController</text>
</a>
</g>
</g>
<!-- Node0&#45;&gt;Node1 -->
<g id="edge5_Node000000_Node000001" class="edge">
<title>Node0&#45;&gt;Node1</title>
<g id="a_edge5_Node000000_Node000001"><a xlink:title=" ">
<path fill="none" stroke="#63b8ff" d="M109.63,-58.43C130.53,-63.44 154.51,-69.21 174.21,-73.94"/>
<polygon fill="#63b8ff" stroke="#63b8ff" points="110.2,-54.96 99.66,-56.03 108.56,-61.77 110.2,-54.96"/>
</a>
</g>
</g>
<!-- Node3 -->
<g id="Node000003" class="node">
<title>Node3</title>
<g id="a_Node000003"><a xlink:href="classTechniciansListView.html" target="_top" xlink:title="Custom list view displaying available technicians and observing changes in the technician repository.">
<polygon fill="white" stroke="#666666" points="272,-56 158,-56 158,-37 272,-37 272,-56"/>
<text text-anchor="middle" x="215" y="-44" font-family="Helvetica,sans-Serif" font-size="10.00">TechniciansListView</text>
</a>
</g>
</g>
<!-- Node0&#45;&gt;Node3 -->
<g id="edge6_Node000000_Node000003" class="edge">
<title>Node0&#45;&gt;Node3</title>
<g id="a_edge6_Node000000_Node000003"><a xlink:title=" ">
<path fill="none" stroke="#63b8ff" d="M128.42,-46.5C138.31,-46.5 148.39,-46.5 157.99,-46.5"/>
<polygon fill="#63b8ff" stroke="#63b8ff" points="128.22,-43 118.22,-46.5 128.22,-50 128.22,-43"/>
</a>
</g>
</g>
<!-- Node4 -->
<g id="Node000004" class="node">
<title>Node4</title>
<g id="a_Node000004"><a xlink:title=" ">
<polygon fill="#e0e0e0" stroke="#999999" points="91.5,-19 26.5,-19 26.5,0 91.5,0 91.5,-19"/>
<text text-anchor="middle" x="59" y="-7" font-family="Helvetica,sans-Serif" font-size="10.00">QListView</text>
</a>
</g>
</g>
<!-- Node4&#45;&gt;Node3 -->
<g id="edge8_Node000004_Node000003" class="edge">
<title>Node4&#45;&gt;Node3</title>
<g id="a_edge8_Node000004_Node000003"><a xlink:title=" ">
<path fill="none" stroke="#63b8ff" d="M101.52,-19.47C124.13,-24.91 151.96,-31.59 174.28,-36.96"/>
<polygon fill="#63b8ff" stroke="#63b8ff" points="102.08,-16.01 91.54,-17.08 100.44,-22.82 102.08,-16.01"/>
</a>
</g>
</g>
<!-- Node5 -->
<g id="Node000005" class="node">
<title>Node5</title>
<g id="a_Node000005"><a xlink:href="classInterventionsListView.html" target="_top" xlink:title="A custom QListView that displays a list of interventions and emits selection signals.">
<polygon fill="white" stroke="#666666" points="276,-19 154,-19 154,0 276,0 276,-19"/>
<text text-anchor="middle" x="215" y="-7" font-family="Helvetica,sans-Serif" font-size="10.00">InterventionsListView</text>
</a>
</g>
</g>
<!-- Node4&#45;&gt;Node5 -->
<g id="edge7_Node000004_Node000005" class="edge">
<title>Node4&#45;&gt;Node5</title>
<g id="a_edge7_Node000004_Node000005"><a xlink:title=" ">
<path fill="none" stroke="#63b8ff" d="M101.67,-9.5C117.73,-9.5 136.4,-9.5 153.86,-9.5"/>
<polygon fill="#63b8ff" stroke="#63b8ff" points="101.54,-6 91.54,-9.5 101.54,-13 101.54,-6"/>
</a>
</g>
</g>
<!-- Node2 -->
<g id="Node000002" class="node">
<title>Node2</title>
<g id="a_Node000002"><a xlink:title=" ">
<polygon fill="#e0e0e0" stroke="#999999" points="87,-93 31,-93 31,-74 87,-74 87,-93"/>
<text text-anchor="middle" x="59" y="-81" font-family="Helvetica,sans-Serif" font-size="10.00">QObject</text>
</a>
</g>
</g>
<!-- Node2&#45;&gt;Node1 -->
<g id="edge9_Node000002_Node000001" class="edge">
<title>Node2&#45;&gt;Node1</title>
<g id="a_edge9_Node000002_Node000001"><a xlink:title=" ">
<path fill="none" stroke="#63b8ff" d="M97.28,-83.5C116.96,-83.5 141.4,-83.5 162.83,-83.5"/>
<polygon fill="#63b8ff" stroke="#63b8ff" points="97.18,-80 87.18,-83.5 97.18,-87 97.18,-80"/>
</a>
</g>
</g>
</g>
</svg>
