<?xml version="1.0" encoding="UTF-8" standalone="no"?>
<!DOCTYPE svg PUBLIC "-//W3C//DTD SVG 1.1//EN"
 "http://www.w3.org/Graphics/SVG/1.1/DTD/svg11.dtd">
<!-- Generated by graphviz version 2.43.0 (0)
 -->
<!-- Title: Graphical Class Hierarchy Pages: 1 -->
<svg width="240pt" height="64pt"
 viewBox="0.00 0.00 240.00 64.00" xmlns="http://www.w3.org/2000/svg" xmlns:xlink="http://www.w3.org/1999/xlink">
<g id="graph0" class="graph" transform="scale(1 1) rotate(0) translate(4 60)">
<title>Graphical Class Hierarchy</title>
<!-- Node0 -->
<g id="Node000000" class="node">
<title>Node0</title>
<g id="a_Node000000"><a xlink:title=" ">
<polygon fill="#e0e0e0" stroke="#999999" points="56,-37 0,-37 0,-18 56,-18 56,-37"/>
<text text-anchor="middle" x="28" y="-25" font-family="Helvetica,sans-Serif" font-size="10.00">QDialog</text>
</a>
</g>
</g>
<!-- Node1 -->
<g id="Node000001" class="node">
<title>Node1</title>
<g id="a_Node000001"><a xlink:href="classCreateInterventionDialog.html" target="_top" xlink:title="A modal dialog that allows users to input data for a new intervention.">
<polygon fill="white" stroke="#666666" points="232,-56 92,-56 92,-37 232,-37 232,-56"/>
<text text-anchor="middle" x="162" y="-44" font-family="Helvetica,sans-Serif" font-size="10.00">CreateInterventionDialog</text>
</a>
</g>
</g>
<!-- Node0&#45;&gt;Node1 -->
<g id="edge10_Node000000_Node000001" class="edge">
<title>Node0&#45;&gt;Node1</title>
<g id="a_edge10_Node000000_Node000001"><a xlink:title=" ">
<path fill="none" stroke="#63b8ff" d="M66.09,-32.84C75.05,-34.13 84.89,-35.55 94.75,-36.96"/>
<polygon fill="#63b8ff" stroke="#63b8ff" points="66.43,-29.35 56.03,-31.39 65.43,-36.28 66.43,-29.35"/>
</a>
</g>
</g>
<!-- Node2 -->
<g id="Node000002" class="node">
<title>Node2</title>
<g id="a_Node000002"><a xlink:href="classCreateTechnicianDialog.html" target="_top" xlink:title="A dialog UI for creating a new technician, allowing input of name and selection of expertise fields.">
<polygon fill="white" stroke="#666666" points="227.5,-19 96.5,-19 96.5,0 227.5,0 227.5,-19"/>
<text text-anchor="middle" x="162" y="-7" font-family="Helvetica,sans-Serif" font-size="10.00">CreateTechnicianDialog</text>
</a>
</g>
</g>
<!-- Node0&#45;&gt;Node2 -->
<g id="edge11_Node000000_Node000002" class="edge">
<title>Node0&#45;&gt;Node2</title>
<g id="a_edge11_Node000000_Node000002"><a xlink:title=" ">
<path fill="none" stroke="#63b8ff" d="M66.21,-22.43C75.63,-21.14 86.04,-19.72 96.39,-18.31"/>
<polygon fill="#63b8ff" stroke="#63b8ff" points="65.47,-18.99 56.03,-23.81 66.41,-25.93 65.47,-18.99"/>
</a>
</g>
</g>
</g>
</svg>
