<?xml version="1.0" encoding="UTF-8" standalone="no"?>
<!DOCTYPE svg PUBLIC "-//W3C//DTD SVG 1.1//EN"
 "http://www.w3.org/Graphics/SVG/1.1/DTD/svg11.dtd">
<!-- Generated by graphviz version 2.43.0 (0)
 -->
<!-- Title: Graphical Class Hierarchy Pages: 1 -->
<svg width="224pt" height="249pt"
 viewBox="0.00 0.00 224.00 249.00" xmlns="http://www.w3.org/2000/svg" xmlns:xlink="http://www.w3.org/1999/xlink">
<g id="graph0" class="graph" transform="scale(1 1) rotate(0) translate(4 245)">
<title>Graphical Class Hierarchy</title>
<!-- Node0 -->
<g id="Node000000" class="node">
<title>Node0</title>
<g id="a_Node000000"><a xlink:title=" ">
<polygon fill="#e0e0e0" stroke="#999999" points="59,-130 0,-130 0,-111 59,-111 59,-130"/>
<text text-anchor="middle" x="29.5" y="-118" font-family="Helvetica,sans-Serif" font-size="10.00">QWidget</text>
</a>
</g>
</g>
<!-- Node1 -->
<g id="Node000001" class="node">
<title>Node1</title>
<g id="a_Node000001"><a xlink:href="classEntityEditorLayout.html" target="_top" xlink:title="A UI layout widget that provides a reusable interface structure with a header, action button,...">
<polygon fill="white" stroke="#666666" points="209,-241 102,-241 102,-222 209,-222 209,-241"/>
<text text-anchor="middle" x="155.5" y="-229" font-family="Helvetica,sans-Serif" font-size="10.00">EntityEditorLayout</text>
</a>
</g>
</g>
<!-- Node0&#45;&gt;Node1 -->
<g id="edge14_Node000000_Node000001" class="edge">
<title>Node0&#45;&gt;Node1</title>
<g id="a_edge14_Node000000_Node000001"><a xlink:title=" ">
<path fill="none" stroke="#63b8ff" d="M38.9,-139.51C49.17,-160.61 68.51,-194.22 95,-213.5 99.71,-216.93 105.08,-219.71 110.63,-221.97"/>
<polygon fill="#63b8ff" stroke="#63b8ff" points="41.99,-137.86 34.59,-130.28 35.65,-140.82 41.99,-137.86"/>
</a>
</g>
</g>
<!-- Node2 -->
<g id="Node000002" class="node">
<title>Node2</title>
<g id="a_Node000002"><a xlink:href="classInterventionEditPanel.html" target="_top" xlink:title="A QWidget&#45;based panel for editing an existing intervention.">
<polygon fill="white" stroke="#666666" points="216,-204 95,-204 95,-185 216,-185 216,-204"/>
<text text-anchor="middle" x="155.5" y="-192" font-family="Helvetica,sans-Serif" font-size="10.00">InterventionEditPanel</text>
</a>
</g>
</g>
<!-- Node0&#45;&gt;Node2 -->
<g id="edge15_Node000000_Node000002" class="edge">
<title>Node0&#45;&gt;Node2</title>
<g id="a_edge15_Node000000_Node000002"><a xlink:title=" ">
<path fill="none" stroke="#63b8ff" d="M46.32,-137.68C58.55,-150.04 76.47,-166.27 95,-176.5 101.05,-179.84 107.79,-182.63 114.5,-184.95"/>
<polygon fill="#63b8ff" stroke="#63b8ff" points="48.61,-135.01 39.16,-130.22 43.56,-139.86 48.61,-135.01"/>
</a>
</g>
</g>
<!-- Node3 -->
<g id="Node000003" class="node">
<title>Node3</title>
<g id="a_Node000003"><a xlink:href="classInterventionPage.html" target="_top" xlink:title="Main QWidget that displays and manages all intervention&#45;related UI components.">
<polygon fill="white" stroke="#666666" points="205,-167 106,-167 106,-148 205,-148 205,-167"/>
<text text-anchor="middle" x="155.5" y="-155" font-family="Helvetica,sans-Serif" font-size="10.00">InterventionPage</text>
</a>
</g>
</g>
<!-- Node0&#45;&gt;Node3 -->
<g id="edge16_Node000000_Node000003" class="edge">
<title>Node0&#45;&gt;Node3</title>
<g id="a_edge16_Node000000_Node000003"><a xlink:title=" ">
<path fill="none" stroke="#63b8ff" d="M68.98,-131.98C86.12,-137.1 106.08,-143.05 122.41,-147.92"/>
<polygon fill="#63b8ff" stroke="#63b8ff" points="69.84,-128.59 59.26,-129.08 67.84,-135.29 69.84,-128.59"/>
</a>
</g>
</g>
<!-- Node4 -->
<g id="Node000004" class="node">
<title>Node4</title>
<g id="a_Node000004"><a xlink:href="classLoginPage.html" target="_top" xlink:title="A QWidget&#45;based login page that handles user authentication and role&#45;based access.">
<polygon fill="white" stroke="#666666" points="188.5,-130 122.5,-130 122.5,-111 188.5,-111 188.5,-130"/>
<text text-anchor="middle" x="155.5" y="-118" font-family="Helvetica,sans-Serif" font-size="10.00">LoginPage</text>
</a>
</g>
</g>
<!-- Node0&#45;&gt;Node4 -->
<g id="edge17_Node000000_Node000004" class="edge">
<title>Node0&#45;&gt;Node4</title>
<g id="a_edge17_Node000000_Node000004"><a xlink:title=" ">
<path fill="none" stroke="#63b8ff" d="M69.46,-120.5C86.5,-120.5 106.23,-120.5 122.41,-120.5"/>
<polygon fill="#63b8ff" stroke="#63b8ff" points="69.26,-117 59.26,-120.5 69.26,-124 69.26,-117"/>
</a>
</g>
</g>
<!-- Node5 -->
<g id="Node000005" class="node">
<title>Node5</title>
<g id="a_Node000005"><a xlink:href="classParametersPage.html" target="_top" xlink:title="A QWidget&#45;based page used to display and manage application parameters or settings.">
<polygon fill="white" stroke="#666666" points="203,-93 108,-93 108,-74 203,-74 203,-93"/>
<text text-anchor="middle" x="155.5" y="-81" font-family="Helvetica,sans-Serif" font-size="10.00">ParametersPage</text>
</a>
</g>
</g>
<!-- Node0&#45;&gt;Node5 -->
<g id="edge18_Node000000_Node000005" class="edge">
<title>Node0&#45;&gt;Node5</title>
<g id="a_edge18_Node000000_Node000005"><a xlink:title=" ">
<path fill="none" stroke="#63b8ff" d="M68.98,-109.02C86.12,-103.9 106.08,-97.95 122.41,-93.08"/>
<polygon fill="#63b8ff" stroke="#63b8ff" points="67.84,-105.71 59.26,-111.92 69.84,-112.41 67.84,-105.71"/>
</a>
</g>
</g>
<!-- Node6 -->
<g id="Node000006" class="node">
<title>Node6</title>
<g id="a_Node000006"><a xlink:href="classTechnicianEditPanel.html" target="_top" xlink:title="A QWidget&#45;based editor for modifying technician data.">
<polygon fill="white" stroke="#666666" points="212,-56 99,-56 99,-37 212,-37 212,-56"/>
<text text-anchor="middle" x="155.5" y="-44" font-family="Helvetica,sans-Serif" font-size="10.00">TechnicianEditPanel</text>
</a>
</g>
</g>
<!-- Node0&#45;&gt;Node6 -->
<g id="edge19_Node000000_Node000006" class="edge">
<title>Node0&#45;&gt;Node6</title>
<g id="a_edge19_Node000000_Node000006"><a xlink:title=" ">
<path fill="none" stroke="#63b8ff" d="M46.85,-103.3C59.12,-91.27 76.85,-75.59 95,-65.5 101.73,-61.76 109.3,-58.63 116.73,-56.06"/>
<polygon fill="#63b8ff" stroke="#63b8ff" points="44.18,-101.03 39.63,-110.6 49.15,-105.95 44.18,-101.03"/>
</a>
</g>
</g>
<!-- Node7 -->
<g id="Node000007" class="node">
<title>Node7</title>
<g id="a_Node000007"><a xlink:href="classTechniciansPage.html" target="_top" xlink:title="A QWidget page for displaying, creating, and editing technicians.">
<polygon fill="white" stroke="#666666" points="203.5,-19 107.5,-19 107.5,0 203.5,0 203.5,-19"/>
<text text-anchor="middle" x="155.5" y="-7" font-family="Helvetica,sans-Serif" font-size="10.00">TechniciansPage</text>
</a>
</g>
</g>
<!-- Node0&#45;&gt;Node7 -->
<g id="edge20_Node000000_Node000007" class="edge">
<title>Node0&#45;&gt;Node7</title>
<g id="a_edge20_Node000000_Node000007"><a xlink:title=" ">
<path fill="none" stroke="#63b8ff" d="M39,-101.77C49.37,-80.96 68.8,-47.77 95,-28.5 100.24,-24.64 106.29,-21.55 112.49,-19.08"/>
<polygon fill="#63b8ff" stroke="#63b8ff" points="35.81,-100.34 34.65,-110.87 42.12,-103.36 35.81,-100.34"/>
</a>
</g>
</g>
</g>
</svg>
