<?xml version="1.0" encoding="UTF-8" standalone="no"?>
<!DOCTYPE svg PUBLIC "-//W3C//DTD SVG 1.1//EN"
 "http://www.w3.org/Graphics/SVG/1.1/DTD/svg11.dtd">
<!-- Generated by graphviz version 2.43.0 (0)
 -->
<!-- Title: Graphical Class Hierarchy Pages: 1 -->
<svg width="380pt" height="64pt"
 viewBox="0.00 0.00 380.00 64.00" xmlns="http://www.w3.org/2000/svg" xmlns:xlink="http://www.w3.org/1999/xlink">
<g id="graph0" class="graph" transform="scale(1 1) rotate(0) translate(4 60)">
<title>Graphical Class Hierarchy</title>
<!-- Node0 -->
<g id="Node000000" class="node">
<title>Node0</title>
<g id="a_Node000000"><a xlink:href="classATechnician.html" target="_top" xlink:title="Abstract base class that represents a technician and their expertise.">
<polygon fill="white" stroke="#666666" points="74,-37 0,-37 0,-18 74,-18 74,-37"/>
<text text-anchor="middle" x="37" y="-25" font-family="Helvetica,sans-Serif" font-size="10.00">ATechnician</text>
</a>
</g>
</g>
<!-- Node1 -->
<g id="Node000001" class="node">
<title>Node1</title>
<g id="a_Node000001"><a xlink:href="classBasicTechnician.html" target="_top" xlink:title="A basic implementation of the ATechnician interface.">
<polygon fill="white" stroke="#666666" points="215,-56 121,-56 121,-37 215,-37 215,-56"/>
<text text-anchor="middle" x="168" y="-44" font-family="Helvetica,sans-Serif" font-size="10.00">BasicTechnician</text>
</a>
</g>
</g>
<!-- Node0&#45;&gt;Node1 -->
<g id="edge2_Node000000_Node000001" class="edge">
<title>Node0&#45;&gt;Node1</title>
<g id="a_edge2_Node000000_Node000001"><a xlink:title=" ">
<path fill="none" stroke="#63b8ff" d="M84.42,-34.34C96.28,-36.08 109.02,-37.96 120.86,-39.7"/>
<polygon fill="#63b8ff" stroke="#63b8ff" points="84.68,-30.84 74.28,-32.84 83.66,-37.76 84.68,-30.84"/>
</a>
</g>
</g>
<!-- Node2 -->
<g id="Node000002" class="node">
<title>Node2</title>
<g id="a_Node000002"><a xlink:href="classTechnicianDecorator.html" target="_top" xlink:title="Abstract base class for decorating ATechnician instances with additional behaviors.">
<polygon fill="white" stroke="#666666" points="226,-19 110,-19 110,0 226,0 226,-19"/>
<text text-anchor="middle" x="168" y="-7" font-family="Helvetica,sans-Serif" font-size="10.00">TechnicianDecorator</text>
</a>
</g>
</g>
<!-- Node0&#45;&gt;Node2 -->
<g id="edge3_Node000000_Node000002" class="edge">
<title>Node0&#45;&gt;Node2</title>
<g id="a_edge3_Node000000_Node000002"><a xlink:title=" ">
<path fill="none" stroke="#63b8ff" d="M84.42,-21.02C92.64,-19.88 101.29,-18.67 109.76,-17.49"/>
<polygon fill="#63b8ff" stroke="#63b8ff" points="83.7,-17.59 74.28,-22.44 84.66,-24.52 83.7,-17.59"/>
</a>
</g>
</g>
<!-- Node3 -->
<g id="Node000003" class="node">
<title>Node3</title>
<g id="a_Node000003"><a xlink:href="classExpertiseDecorator.html" target="_top" xlink:title="A concrete decorator that adds an expertise field to a technician.">
<polygon fill="white" stroke="#666666" points="372,-19 262,-19 262,0 372,0 372,-19"/>
<text text-anchor="middle" x="317" y="-7" font-family="Helvetica,sans-Serif" font-size="10.00">ExpertiseDecorator</text>
</a>
</g>
</g>
<!-- Node2&#45;&gt;Node3 -->
<g id="edge4_Node000002_Node000003" class="edge">
<title>Node2&#45;&gt;Node3</title>
<g id="a_edge4_Node000002_Node000003"><a xlink:title=" ">
<path fill="none" stroke="#63b8ff" d="M236.43,-9.5C244.85,-9.5 253.37,-9.5 261.55,-9.5"/>
<polygon fill="#63b8ff" stroke="#63b8ff" points="236.25,-6 226.25,-9.5 236.25,-13 236.25,-6"/>
</a>
</g>
</g>
</g>
</svg>
