<?xml version="1.0" encoding="UTF-8" standalone="no"?>
<!DOCTYPE svg PUBLIC "-//W3C//DTD SVG 1.1//EN"
 "http://www.w3.org/Graphics/SVG/1.1/DTD/svg11.dtd">
<!-- Generated by graphviz version 2.43.0 (0)
 -->
<!-- Title: include/TechMa/Repository/InterventionRepositoryProxy.h Pages: 1 -->
<svg width="989pt" height="412pt"
 viewBox="0.00 0.00 988.83 412.00" xmlns="http://www.w3.org/2000/svg" xmlns:xlink="http://www.w3.org/1999/xlink">
<g id="graph0" class="graph" transform="scale(1 1) rotate(0) translate(4 408)">
<title>include/TechMa/Repository/InterventionRepositoryProxy.h</title>
<!-- Node1 -->
<g id="Node000001" class="node">
<title>Node1</title>
<g id="a_Node000001"><a xlink:title="Declares the InterventionRepositoryProxy class, a proxy to the actual intervention repository.">
<polygon fill="#999999" stroke="#666666" points="446.33,-404 279.33,-404 279.33,-374 446.33,-374 446.33,-404"/>
<text text-anchor="start" x="287.33" y="-392" font-family="Helvetica,sans-Serif" font-size="10.00">include/TechMa/Repository</text>
<text text-anchor="middle" x="362.83" y="-381" font-family="Helvetica,sans-Serif" font-size="10.00">/InterventionRepositoryProxy.h</text>
</a>
</g>
</g>
<!-- Node2 -->
<g id="Node000002" class="node">
<title>Node2</title>
<g id="a_Node000002"><a xlink:href="UserAuthentication_8h.html" target="_top" xlink:title="Declaration of the User and AuthenticationService classes for managing authentication.">
<polygon fill="white" stroke="#666666" points="144.83,-217 16.83,-217 16.83,-187 144.83,-187 144.83,-217"/>
<text text-anchor="start" x="24.83" y="-205" font-family="Helvetica,sans-Serif" font-size="10.00">TechMa/Authentication</text>
<text text-anchor="middle" x="80.83" y="-194" font-family="Helvetica,sans-Serif" font-size="10.00">/UserAuthentication.h</text>
</a>
</g>
</g>
<!-- Node1&#45;&gt;Node2 -->
<g id="edge1_Node000001_Node000002" class="edge">
<title>Node1&#45;&gt;Node2</title>
<g id="a_edge1_Node000001_Node000002"><a xlink:title=" ">
<path fill="none" stroke="#63b8ff" d="M284.09,-373.99C255.07,-366.41 222.94,-354.99 196.83,-338 151.29,-308.37 113.59,-255.77 94.44,-225.72"/>
<polygon fill="#63b8ff" stroke="#63b8ff" points="97.36,-223.8 89.1,-217.17 91.42,-227.5 97.36,-223.8"/>
</a>
</g>
</g>
<!-- Node3 -->
<g id="Node000003" class="node">
<title>Node3</title>
<g id="a_Node000003"><a xlink:title=" ">
<polygon fill="#e0e0e0" stroke="#999999" points="238.83,-145.5 180.83,-145.5 180.83,-126.5 238.83,-126.5 238.83,-145.5"/>
<text text-anchor="middle" x="209.83" y="-133.5" font-family="Helvetica,sans-Serif" font-size="10.00">memory</text>
</a>
</g>
</g>
<!-- Node1&#45;&gt;Node3 -->
<g id="edge33_Node000001_Node000003" class="edge">
<title>Node1&#45;&gt;Node3</title>
<g id="a_edge33_Node000001_Node000003"><a xlink:title=" ">
<path fill="none" stroke="#63b8ff" d="M305.88,-373.96C286.09,-366.38 265.46,-354.97 251.83,-338 208.12,-283.6 206.7,-194.87 208.45,-156.12"/>
<polygon fill="#63b8ff" stroke="#63b8ff" points="211.96,-155.98 209.05,-145.79 204.97,-155.57 211.96,-155.98"/>
</a>
</g>
</g>
<!-- Node4 -->
<g id="Node000004" class="node">
<title>Node4</title>
<g id="a_Node000004"><a xlink:title=" ">
<polygon fill="#e0e0e0" stroke="#999999" points="312.83,-145.5 256.83,-145.5 256.83,-126.5 312.83,-126.5 312.83,-145.5"/>
<text text-anchor="middle" x="284.83" y="-133.5" font-family="Helvetica,sans-Serif" font-size="10.00">optional</text>
</a>
</g>
</g>
<!-- Node1&#45;&gt;Node4 -->
<g id="edge34_Node000001_Node000004" class="edge">
<title>Node1&#45;&gt;Node4</title>
<g id="a_edge34_Node000001_Node000004"><a xlink:title=" ">
<path fill="none" stroke="#63b8ff" d="M313.22,-373.82C295.74,-366.18 277.94,-354.75 267.83,-338 232.41,-279.33 261.07,-192.91 276.54,-155.45"/>
<polygon fill="#63b8ff" stroke="#63b8ff" points="279.93,-156.42 280.66,-145.86 273.5,-153.66 279.93,-156.42"/>
</a>
</g>
</g>
<!-- Node7 -->
<g id="Node000007" class="node">
<title>Node7</title>
<g id="a_Node000007"><a xlink:href="AIntervention_8h.html" target="_top" xlink:title="Defines the abstract base class AIntervention for representing interventions.">
<polygon fill="white" stroke="#666666" points="562.33,-272 391.33,-272 391.33,-253 562.33,-253 562.33,-272"/>
<text text-anchor="middle" x="476.83" y="-260" font-family="Helvetica,sans-Serif" font-size="10.00">TechMa/Entities/AIntervention.h</text>
</a>
</g>
</g>
<!-- Node1&#45;&gt;Node7 -->
<g id="edge6_Node000001_Node000007" class="edge">
<title>Node1&#45;&gt;Node7</title>
<g id="a_edge6_Node000001_Node000007"><a xlink:title=" ">
<path fill="none" stroke="#63b8ff" d="M405.88,-373.93C423.98,-366 443.82,-354.34 456.83,-338 469.44,-322.15 474.13,-299.01 475.86,-282.74"/>
<polygon fill="#63b8ff" stroke="#63b8ff" points="479.38,-282.55 476.66,-272.31 472.4,-282.01 479.38,-282.55"/>
</a>
</g>
</g>
<!-- Node10 -->
<g id="Node000010" class="node">
<title>Node10</title>
<g id="a_Node000010"><a xlink:title=" ">
<polygon fill="#e0e0e0" stroke="#999999" points="966.33,-79.5 919.33,-79.5 919.33,-60.5 966.33,-60.5 966.33,-79.5"/>
<text text-anchor="middle" x="942.83" y="-67.5" font-family="Helvetica,sans-Serif" font-size="10.00">vector</text>
</a>
</g>
</g>
<!-- Node1&#45;&gt;Node10 -->
<g id="edge35_Node000001_Node000010" class="edge">
<title>Node1&#45;&gt;Node10</title>
<g id="a_edge35_Node000001_Node000010"><a xlink:title=" ">
<path fill="none" stroke="#63b8ff" d="M446.49,-388.39C615.32,-386.9 980.83,-371.24 980.83,-263.5 980.83,-263.5 980.83,-263.5 980.83,-201 980.83,-159.44 962.71,-113.3 951.5,-88.71"/>
<polygon fill="#63b8ff" stroke="#63b8ff" points="954.62,-87.12 947.19,-79.57 948.29,-90.11 954.62,-87.12"/>
</a>
</g>
</g>
<!-- Node17 -->
<g id="Node000017" class="node">
<title>Node17</title>
<g id="a_Node000017"><a xlink:href="InterventionRepository_8h.html" target="_top" xlink:title="Declares the InterventionRepository class, which manages storage and access to interventions.">
<polygon fill="white" stroke="#666666" points="448.33,-338 277.33,-338 277.33,-308 448.33,-308 448.33,-338"/>
<text text-anchor="start" x="285.33" y="-326" font-family="Helvetica,sans-Serif" font-size="10.00">TechMa/Repository/Intervention</text>
<text text-anchor="middle" x="362.83" y="-315" font-family="Helvetica,sans-Serif" font-size="10.00">Repository.h</text>
</a>
</g>
</g>
<!-- Node1&#45;&gt;Node17 -->
<g id="edge25_Node000001_Node000017" class="edge">
<title>Node1&#45;&gt;Node17</title>
<g id="a_edge25_Node000001_Node000017"><a xlink:title=" ">
<path fill="none" stroke="#63b8ff" d="M362.83,-373.8C362.83,-366.34 362.83,-356.99 362.83,-348.41"/>
<polygon fill="#63b8ff" stroke="#63b8ff" points="366.33,-348.16 362.83,-338.16 359.33,-348.16 366.33,-348.16"/>
</a>
</g>
</g>
<!-- Node18 -->
<g id="Node000018" class="node">
<title>Node18</title>
<g id="a_Node000018"><a xlink:title=" ">
<polygon fill="#e0e0e0" stroke="#999999" points="952.83,-272 896.83,-272 896.83,-253 952.83,-253 952.83,-272"/>
<text text-anchor="middle" x="924.83" y="-260" font-family="Helvetica,sans-Serif" font-size="10.00">QObject</text>
</a>
</g>
</g>
<!-- Node1&#45;&gt;Node18 -->
<g id="edge32_Node000001_Node000018" class="edge">
<title>Node1&#45;&gt;Node18</title>
<g id="a_edge32_Node000001_Node000018"><a xlink:title=" ">
<path fill="none" stroke="#63b8ff" d="M426.2,-373.96C543.66,-347.94 791.82,-292.96 886.77,-271.93"/>
<polygon fill="#63b8ff" stroke="#63b8ff" points="887.79,-275.29 896.79,-269.71 886.27,-268.46 887.79,-275.29"/>
</a>
</g>
</g>
<!-- Node2&#45;&gt;Node3 -->
<g id="edge2_Node000002_Node000003" class="edge">
<title>Node2&#45;&gt;Node3</title>
<g id="a_edge2_Node000002_Node000003"><a xlink:title=" ">
<path fill="none" stroke="#63b8ff" d="M109.14,-186.95C131.26,-175.98 161.78,-160.83 183.41,-150.11"/>
<polygon fill="#63b8ff" stroke="#63b8ff" points="185.26,-153.1 192.66,-145.52 182.14,-146.83 185.26,-153.1"/>
</a>
</g>
</g>
<!-- Node2&#45;&gt;Node4 -->
<g id="edge3_Node000002_Node000004" class="edge">
<title>Node2&#45;&gt;Node4</title>
<g id="a_edge3_Node000002_Node000004"><a xlink:title=" ">
<path fill="none" stroke="#63b8ff" d="M131.18,-186.93C164.47,-177.38 208.98,-164.15 247.83,-151 249.68,-150.37 251.58,-149.71 253.49,-149.03"/>
<polygon fill="#63b8ff" stroke="#63b8ff" points="254.82,-152.27 263.01,-145.55 252.41,-145.7 254.82,-152.27"/>
</a>
</g>
</g>
<!-- Node5 -->
<g id="Node000005" class="node">
<title>Node5</title>
<g id="a_Node000005"><a xlink:title=" ">
<polygon fill="#e0e0e0" stroke="#999999" points="443.83,-19 399.83,-19 399.83,0 443.83,0 443.83,-19"/>
<text text-anchor="middle" x="421.83" y="-7" font-family="Helvetica,sans-Serif" font-size="10.00">string</text>
</a>
</g>
</g>
<!-- Node2&#45;&gt;Node5 -->
<g id="edge4_Node000002_Node000005" class="edge">
<title>Node2&#45;&gt;Node5</title>
<g id="a_edge4_Node000002_Node000005"><a xlink:title=" ">
<path fill="none" stroke="#63b8ff" d="M64.25,-186.58C33.86,-158.45 -24.5,-95.48 11.83,-55 36.95,-27 297.18,-14.98 389.54,-11.58"/>
<polygon fill="#63b8ff" stroke="#63b8ff" points="389.82,-15.07 399.69,-11.21 389.57,-8.07 389.82,-15.07"/>
</a>
</g>
</g>
<!-- Node6 -->
<g id="Node000006" class="node">
<title>Node6</title>
<g id="a_Node000006"><a xlink:title=" ">
<polygon fill="#e0e0e0" stroke="#999999" points="145.33,-145.5 52.33,-145.5 52.33,-126.5 145.33,-126.5 145.33,-145.5"/>
<text text-anchor="middle" x="98.83" y="-133.5" font-family="Helvetica,sans-Serif" font-size="10.00">unordered_map</text>
</a>
</g>
</g>
<!-- Node2&#45;&gt;Node6 -->
<g id="edge5_Node000002_Node000006" class="edge">
<title>Node2&#45;&gt;Node6</title>
<g id="a_edge5_Node000002_Node000006"><a xlink:title=" ">
<path fill="none" stroke="#63b8ff" d="M84.82,-186.8C87.41,-177.6 90.8,-165.53 93.6,-155.58"/>
<polygon fill="#63b8ff" stroke="#63b8ff" points="97,-156.42 96.34,-145.84 90.26,-154.52 97,-156.42"/>
</a>
</g>
</g>
<!-- Node8 -->
<g id="Node000008" class="node">
<title>Node8</title>
<g id="a_Node000008"><a xlink:href="InterventionData_8h.html" target="_top" xlink:title="Defines the InterventionData structure which holds all information related to an intervention.">
<polygon fill="white" stroke="#666666" points="547.33,-217 392.33,-217 392.33,-187 547.33,-187 547.33,-217"/>
<text text-anchor="start" x="400.33" y="-205" font-family="Helvetica,sans-Serif" font-size="10.00">TechMa/Entities/Intervention</text>
<text text-anchor="middle" x="469.83" y="-194" font-family="Helvetica,sans-Serif" font-size="10.00">Data.h</text>
</a>
</g>
</g>
<!-- Node7&#45;&gt;Node8 -->
<g id="edge7_Node000007_Node000008" class="edge">
<title>Node7&#45;&gt;Node8</title>
<g id="a_edge7_Node000007_Node000008"><a xlink:title=" ">
<path fill="none" stroke="#63b8ff" d="M475.79,-252.87C474.98,-246.11 473.82,-236.35 472.73,-227.26"/>
<polygon fill="#63b8ff" stroke="#63b8ff" points="476.18,-226.63 471.51,-217.11 469.23,-227.46 476.18,-226.63"/>
</a>
</g>
</g>
<!-- Node8&#45;&gt;Node3 -->
<g id="edge22_Node000008_Node000003" class="edge">
<title>Node8&#45;&gt;Node3</title>
<g id="a_edge22_Node000008_Node000003"><a xlink:title=" ">
<path fill="none" stroke="#63b8ff" d="M396.21,-186.95C352.69,-178.02 296.7,-165.44 247.83,-151 245.69,-150.37 243.5,-149.68 241.3,-148.96"/>
<polygon fill="#63b8ff" stroke="#63b8ff" points="242.36,-145.62 231.76,-145.64 240.06,-152.23 242.36,-145.62"/>
</a>
</g>
</g>
<!-- Node8&#45;&gt;Node4 -->
<g id="edge23_Node000008_Node000004" class="edge">
<title>Node8&#45;&gt;Node4</title>
<g id="a_edge23_Node000008_Node000004"><a xlink:title=" ">
<path fill="none" stroke="#63b8ff" d="M429.23,-186.95C396.21,-175.53 350.15,-159.6 319,-148.82"/>
<polygon fill="#63b8ff" stroke="#63b8ff" points="320.04,-145.48 309.45,-145.52 317.75,-152.09 320.04,-145.48"/>
</a>
</g>
</g>
<!-- Node8&#45;&gt;Node5 -->
<g id="edge24_Node000008_Node000005" class="edge">
<title>Node8&#45;&gt;Node5</title>
<g id="a_edge24_Node000008_Node000005"><a xlink:title=" ">
<path fill="none" stroke="#63b8ff" d="M482.81,-186.92C490.57,-177.51 499.69,-164.44 503.83,-151 516.38,-110.22 525.64,-91.67 503.83,-55 492.99,-36.8 471.83,-25.58 453.71,-18.96"/>
<polygon fill="#63b8ff" stroke="#63b8ff" points="454.64,-15.58 444.05,-15.74 452.43,-22.22 454.64,-15.58"/>
</a>
</g>
</g>
<!-- Node9 -->
<g id="Node000009" class="node">
<title>Node9</title>
<g id="a_Node000009"><a xlink:href="ATechnician_8h.html" target="_top" xlink:title="Defines the abstract base class ATechnician representing a technician entity.">
<polygon fill="white" stroke="#666666" points="750.83,-145.5 588.83,-145.5 588.83,-126.5 750.83,-126.5 750.83,-145.5"/>
<text text-anchor="middle" x="669.83" y="-133.5" font-family="Helvetica,sans-Serif" font-size="10.00">TechMa/Entities/ATechnician.h</text>
</a>
</g>
</g>
<!-- Node8&#45;&gt;Node9 -->
<g id="edge8_Node000008_Node000009" class="edge">
<title>Node8&#45;&gt;Node9</title>
<g id="a_edge8_Node000008_Node000009"><a xlink:title=" ">
<path fill="none" stroke="#63b8ff" d="M513.72,-186.95C549.56,-175.48 599.63,-159.46 633.32,-148.68"/>
<polygon fill="#63b8ff" stroke="#63b8ff" points="634.75,-151.9 643.21,-145.52 632.62,-145.23 634.75,-151.9"/>
</a>
</g>
</g>
<!-- Node11 -->
<g id="Node000011" class="node">
<title>Node11</title>
<g id="a_Node000011"><a xlink:href="ExpertiseField_8h.html" target="_top" xlink:title="Declares the ExpertiseField enum class representing technician specializations, and a utility functio...">
<polygon fill="white" stroke="#666666" points="716.33,-79.5 551.33,-79.5 551.33,-60.5 716.33,-60.5 716.33,-79.5"/>
<text text-anchor="middle" x="633.83" y="-67.5" font-family="Helvetica,sans-Serif" font-size="10.00">TechMa/Types/ExpertiseField.h</text>
</a>
</g>
</g>
<!-- Node8&#45;&gt;Node11 -->
<g id="edge15_Node000008_Node000011" class="edge">
<title>Node8&#45;&gt;Node11</title>
<g id="a_edge15_Node000008_Node000011"><a xlink:title=" ">
<path fill="none" stroke="#63b8ff" d="M489.37,-186.81C502.83,-176.93 521.07,-163.37 536.83,-151 564.95,-128.93 596.79,-102.36 616.08,-86.08"/>
<polygon fill="#63b8ff" stroke="#63b8ff" points="618.39,-88.7 623.76,-79.57 613.87,-83.36 618.39,-88.7"/>
</a>
</g>
</g>
<!-- Node12 -->
<g id="Node000012" class="node">
<title>Node12</title>
<g id="a_Node000012"><a xlink:href="Location_8h.html" target="_top" xlink:title="Defines the GPSCoords and Location structures for representing geographical locations.">
<polygon fill="white" stroke="#666666" points="166.83,-79.5 20.83,-79.5 20.83,-60.5 166.83,-60.5 166.83,-79.5"/>
<text text-anchor="middle" x="93.83" y="-67.5" font-family="Helvetica,sans-Serif" font-size="10.00">TechMa/Entities/Location.h</text>
</a>
</g>
</g>
<!-- Node8&#45;&gt;Node12 -->
<g id="edge13_Node000008_Node000012" class="edge">
<title>Node8&#45;&gt;Node12</title>
<g id="a_edge13_Node000008_Node000012"><a xlink:title=" ">
<path fill="none" stroke="#63b8ff" d="M428.8,-186.94C406.08,-178.24 377.86,-165.89 354.83,-151 338.18,-140.24 339.44,-130.1 321.83,-121 306.54,-113.1 211.23,-93.69 148.77,-81.5"/>
<polygon fill="#63b8ff" stroke="#63b8ff" points="149.15,-78.01 138.67,-79.54 147.82,-84.88 149.15,-78.01"/>
</a>
</g>
</g>
<!-- Node13 -->
<g id="Node000013" class="node">
<title>Node13</title>
<g id="a_Node000013"><a xlink:href="InterventionComplexity_8h.html" target="_top" xlink:title="Declares the InterventionComplexity enum class representing complexity levels of an intervention.">
<polygon fill="white" stroke="#666666" points="914.83,-151 768.83,-151 768.83,-121 914.83,-121 914.83,-151"/>
<text text-anchor="start" x="776.83" y="-139" font-family="Helvetica,sans-Serif" font-size="10.00">TechMa/Types/Intervention</text>
<text text-anchor="middle" x="841.83" y="-128" font-family="Helvetica,sans-Serif" font-size="10.00">Complexity.h</text>
</a>
</g>
</g>
<!-- Node8&#45;&gt;Node13 -->
<g id="edge16_Node000008_Node000013" class="edge">
<title>Node8&#45;&gt;Node13</title>
<g id="a_edge16_Node000008_Node000013"><a xlink:title=" ">
<path fill="none" stroke="#63b8ff" d="M547.36,-187.66C609.21,-177.02 695.65,-162.15 758.88,-151.27"/>
<polygon fill="#63b8ff" stroke="#63b8ff" points="759.56,-154.7 768.82,-149.56 758.37,-147.81 759.56,-154.7"/>
</a>
</g>
</g>
<!-- Node14 -->
<g id="Node000014" class="node">
<title>Node14</title>
<g id="a_Node000014"><a xlink:href="InterventionStatus_8h.html" target="_top" xlink:title="Declares the InterventionStatus enum and its string conversion function.">
<polygon fill="white" stroke="#666666" points="330.83,-85 184.83,-85 184.83,-55 330.83,-55 330.83,-85"/>
<text text-anchor="start" x="192.83" y="-73" font-family="Helvetica,sans-Serif" font-size="10.00">TechMa/Types/Intervention</text>
<text text-anchor="middle" x="257.83" y="-62" font-family="Helvetica,sans-Serif" font-size="10.00">Status.h</text>
</a>
</g>
</g>
<!-- Node8&#45;&gt;Node14 -->
<g id="edge17_Node000008_Node000014" class="edge">
<title>Node8&#45;&gt;Node14</title>
<g id="a_edge17_Node000008_Node000014"><a xlink:title=" ">
<path fill="none" stroke="#63b8ff" d="M451.21,-186.91C428.88,-170.27 390.04,-142.2 354.83,-121 336.17,-109.77 314.7,-98.54 296.72,-89.58"/>
<polygon fill="#63b8ff" stroke="#63b8ff" points="298.18,-86.4 287.67,-85.11 295.08,-92.67 298.18,-86.4"/>
</a>
</g>
</g>
<!-- Node15 -->
<g id="Node000015" class="node">
<title>Node15</title>
<g id="a_Node000015"><a xlink:href="InterventionType_8h.html" target="_top" xlink:title="Declares the InterventionType enum class and a string conversion utility.">
<polygon fill="white" stroke="#666666" points="494.83,-85 348.83,-85 348.83,-55 494.83,-55 494.83,-85"/>
<text text-anchor="start" x="356.83" y="-73" font-family="Helvetica,sans-Serif" font-size="10.00">TechMa/Types/Intervention</text>
<text text-anchor="middle" x="421.83" y="-62" font-family="Helvetica,sans-Serif" font-size="10.00">Type.h</text>
</a>
</g>
</g>
<!-- Node8&#45;&gt;Node15 -->
<g id="edge19_Node000008_Node000015" class="edge">
<title>Node8&#45;&gt;Node15</title>
<g id="a_edge19_Node000008_Node000015"><a xlink:title=" ">
<path fill="none" stroke="#63b8ff" d="M457.62,-186.64C450.18,-177.12 441.11,-164.04 435.83,-151 428.59,-133.16 425.09,-111.6 423.4,-95.36"/>
<polygon fill="#63b8ff" stroke="#63b8ff" points="426.86,-94.73 422.5,-85.08 419.89,-95.35 426.86,-94.73"/>
</a>
</g>
</g>
<!-- Node16 -->
<g id="Node000016" class="node">
<title>Node16</title>
<g id="a_Node000016"><a xlink:title=" ">
<polygon fill="#e0e0e0" stroke="#999999" points="494.83,-145.5 444.83,-145.5 444.83,-126.5 494.83,-126.5 494.83,-145.5"/>
<text text-anchor="middle" x="469.83" y="-133.5" font-family="Helvetica,sans-Serif" font-size="10.00">chrono</text>
</a>
</g>
</g>
<!-- Node8&#45;&gt;Node16 -->
<g id="edge21_Node000008_Node000016" class="edge">
<title>Node8&#45;&gt;Node16</title>
<g id="a_edge21_Node000008_Node000016"><a xlink:title=" ">
<path fill="none" stroke="#63b8ff" d="M469.83,-186.8C469.83,-177.7 469.83,-165.79 469.83,-155.9"/>
<polygon fill="#63b8ff" stroke="#63b8ff" points="473.33,-155.84 469.83,-145.84 466.33,-155.84 473.33,-155.84"/>
</a>
</g>
</g>
<!-- Node9&#45;&gt;Node5 -->
<g id="edge9_Node000009_Node000005" class="edge">
<title>Node9&#45;&gt;Node5</title>
<g id="a_edge9_Node000009_Node000005"><a xlink:title=" ">
<path fill="none" stroke="#63b8ff" d="M683.44,-126.38C705.75,-111.22 745.65,-79.11 724.83,-55 690.11,-14.82 525.1,-10.25 454.26,-10.18"/>
<polygon fill="#63b8ff" stroke="#63b8ff" points="454.12,-6.68 444.12,-10.2 454.13,-13.68 454.12,-6.68"/>
</a>
</g>
</g>
<!-- Node9&#45;&gt;Node10 -->
<g id="edge10_Node000009_Node000010" class="edge">
<title>Node9&#45;&gt;Node10</title>
<g id="a_edge10_Node000009_Node000010"><a xlink:title=" ">
<path fill="none" stroke="#63b8ff" d="M706.36,-126.44C759.51,-113.98 857.41,-91.02 909,-78.93"/>
<polygon fill="#63b8ff" stroke="#63b8ff" points="910.03,-82.28 918.97,-76.59 908.43,-75.47 910.03,-82.28"/>
</a>
</g>
</g>
<!-- Node9&#45;&gt;Node11 -->
<g id="edge11_Node000009_Node000011" class="edge">
<title>Node9&#45;&gt;Node11</title>
<g id="a_edge11_Node000009_Node000011"><a xlink:title=" ">
<path fill="none" stroke="#63b8ff" d="M664.97,-126.37C659.58,-116.78 650.73,-101.05 643.84,-88.8"/>
<polygon fill="#63b8ff" stroke="#63b8ff" points="646.79,-86.91 638.84,-79.91 640.69,-90.34 646.79,-86.91"/>
</a>
</g>
</g>
<!-- Node11&#45;&gt;Node5 -->
<g id="edge12_Node000011_Node000005" class="edge">
<title>Node11&#45;&gt;Node5</title>
<g id="a_edge12_Node000011_Node000005"><a xlink:title=" ">
<path fill="none" stroke="#63b8ff" d="M603,-60.49C563.17,-49.5 494.17,-30.46 453.8,-19.32"/>
<polygon fill="#63b8ff" stroke="#63b8ff" points="454.51,-15.89 443.94,-16.6 452.65,-22.64 454.51,-15.89"/>
</a>
</g>
</g>
<!-- Node12&#45;&gt;Node5 -->
<g id="edge14_Node000012_Node000005" class="edge">
<title>Node12&#45;&gt;Node5</title>
<g id="a_edge14_Node000012_Node000005"><a xlink:title=" ">
<path fill="none" stroke="#63b8ff" d="M141.52,-60.49C209.26,-48.41 331.55,-26.6 389.58,-16.25"/>
<polygon fill="#63b8ff" stroke="#63b8ff" points="390.41,-19.66 399.64,-14.46 389.19,-12.77 390.41,-19.66"/>
</a>
</g>
</g>
<!-- Node14&#45;&gt;Node5 -->
<g id="edge18_Node000014_Node000005" class="edge">
<title>Node14&#45;&gt;Node5</title>
<g id="a_edge18_Node000014_Node000005"><a xlink:title=" ">
<path fill="none" stroke="#63b8ff" d="M297.11,-54.99C325.51,-44.86 363.4,-31.34 389.93,-21.88"/>
<polygon fill="#63b8ff" stroke="#63b8ff" points="391.26,-25.12 399.5,-18.46 388.91,-18.53 391.26,-25.12"/>
</a>
</g>
</g>
<!-- Node15&#45;&gt;Node5 -->
<g id="edge20_Node000015_Node000005" class="edge">
<title>Node15&#45;&gt;Node5</title>
<g id="a_edge20_Node000015_Node000005"><a xlink:title=" ">
<path fill="none" stroke="#63b8ff" d="M421.83,-54.84C421.83,-47.21 421.83,-37.7 421.83,-29.45"/>
<polygon fill="#63b8ff" stroke="#63b8ff" points="425.33,-29.27 421.83,-19.27 418.33,-29.27 425.33,-29.27"/>
</a>
</g>
</g>
<!-- Node17&#45;&gt;Node3 -->
<g id="edge28_Node000017_Node000003" class="edge">
<title>Node17&#45;&gt;Node3</title>
<g id="a_edge28_Node000017_Node000003"><a xlink:title=" ">
<path fill="none" stroke="#63b8ff" d="M351.07,-307.79C323.21,-274.09 253.23,-189.49 223.52,-153.55"/>
<polygon fill="#63b8ff" stroke="#63b8ff" points="225.95,-151 216.88,-145.53 220.56,-155.47 225.95,-151"/>
</a>
</g>
</g>
<!-- Node17&#45;&gt;Node4 -->
<g id="edge29_Node000017_Node000004" class="edge">
<title>Node17&#45;&gt;Node4</title>
<g id="a_edge29_Node000017_Node000004"><a xlink:title=" ">
<path fill="none" stroke="#63b8ff" d="M358.36,-307.84C353.83,-293.78 346.4,-271.69 338.83,-253 324.42,-217.47 304.9,-177.13 293.7,-154.61"/>
<polygon fill="#63b8ff" stroke="#63b8ff" points="296.8,-152.98 289.19,-145.6 290.54,-156.11 296.8,-152.98"/>
</a>
</g>
</g>
<!-- Node17&#45;&gt;Node6 -->
<g id="edge30_Node000017_Node000006" class="edge">
<title>Node17&#45;&gt;Node6</title>
<g id="a_edge30_Node000017_Node000006"><a xlink:title=" ">
<path fill="none" stroke="#63b8ff" d="M342.55,-307.79C293.45,-273.38 168.58,-185.88 119.29,-151.34"/>
<polygon fill="#63b8ff" stroke="#63b8ff" points="121.2,-148.4 111,-145.53 117.18,-154.13 121.2,-148.4"/>
</a>
</g>
</g>
<!-- Node17&#45;&gt;Node7 -->
<g id="edge26_Node000017_Node000007" class="edge">
<title>Node17&#45;&gt;Node7</title>
<g id="a_edge26_Node000017_Node000007"><a xlink:title=" ">
<path fill="none" stroke="#63b8ff" d="M390.13,-307.99C408.47,-298.58 432.5,-286.24 450.61,-276.95"/>
<polygon fill="#63b8ff" stroke="#63b8ff" points="452.69,-279.82 459.99,-272.14 449.5,-273.59 452.69,-279.82"/>
</a>
</g>
</g>
<!-- Node17&#45;&gt;Node10 -->
<g id="edge31_Node000017_Node000010" class="edge">
<title>Node17&#45;&gt;Node10</title>
<g id="a_edge31_Node000017_Node000010"><a xlink:title=" ">
<path fill="none" stroke="#63b8ff" d="M448.46,-321.66C572.4,-316.25 800.41,-287.01 923.83,-151 939.01,-134.27 942.68,-107.65 943.27,-89.77"/>
<polygon fill="#63b8ff" stroke="#63b8ff" points="946.77,-89.71 943.31,-79.69 939.77,-89.68 946.77,-89.71"/>
</a>
</g>
</g>
<!-- Node17&#45;&gt;Node18 -->
<g id="edge27_Node000017_Node000018" class="edge">
<title>Node17&#45;&gt;Node18</title>
<g id="a_edge27_Node000017_Node000018"><a xlink:title=" ">
<path fill="none" stroke="#63b8ff" d="M448.73,-316.48C552.11,-309.21 730.77,-294.63 882.83,-272 883.93,-271.84 885.05,-271.66 886.18,-271.48"/>
<polygon fill="#63b8ff" stroke="#63b8ff" points="887.19,-274.85 896.43,-269.66 885.97,-267.96 887.19,-274.85"/>
</a>
</g>
</g>
</g>
</svg>
