<?xml version="1.0" encoding="UTF-8" standalone="no"?>
<!DOCTYPE svg PUBLIC "-//W3C//DTD SVG 1.1//EN"
 "http://www.w3.org/Graphics/SVG/1.1/DTD/svg11.dtd">
<!-- Generated by graphviz version 2.43.0 (0)
 -->
<!-- Title: src/Views/Widgets/InterventionEditPanel.cpp Pages: 1 -->
<svg width="1537pt" height="346pt"
 viewBox="0.00 0.00 1536.85 346.00" xmlns="http://www.w3.org/2000/svg" xmlns:xlink="http://www.w3.org/1999/xlink">
<g id="graph0" class="graph" transform="scale(1 1) rotate(0) translate(4 342)">
<title>src/Views/Widgets/InterventionEditPanel.cpp</title>
<!-- Node1 -->
<g id="Node000001" class="node">
<title>Node1</title>
<g id="a_Node000001"><a xlink:title="Implements the InterventionEditPanel class, a QWidget for editing intervention data.">
<polygon fill="#999999" stroke="#666666" points="1015.85,-338 847.85,-338 847.85,-308 1015.85,-308 1015.85,-338"/>
<text text-anchor="start" x="855.85" y="-326" font-family="Helvetica,sans-Serif" font-size="10.00">src/Views/Widgets/Intervention</text>
<text text-anchor="middle" x="931.85" y="-315" font-family="Helvetica,sans-Serif" font-size="10.00">EditPanel.cpp</text>
</a>
</g>
</g>
<!-- Node2 -->
<g id="Node000002" class="node">
<title>Node2</title>
<g id="a_Node000002"><a xlink:href="InterventionEditPanel_8h.html" target="_top" xlink:title="Declares the InterventionEditPanel class, a QWidget for editing existing intervention data.">
<polygon fill="white" stroke="#666666" points="583.35,-272 450.35,-272 450.35,-242 583.35,-242 583.35,-272"/>
<text text-anchor="start" x="458.35" y="-260" font-family="Helvetica,sans-Serif" font-size="10.00">TechMa/Views/Widgets</text>
<text text-anchor="middle" x="516.85" y="-249" font-family="Helvetica,sans-Serif" font-size="10.00">/InterventionEditPanel.h</text>
</a>
</g>
</g>
<!-- Node1&#45;&gt;Node2 -->
<g id="edge1_Node000001_Node000002" class="edge">
<title>Node1&#45;&gt;Node2</title>
<g id="a_edge1_Node000001_Node000002"><a xlink:title=" ">
<path fill="none" stroke="#63b8ff" d="M847.69,-309.94C780.11,-300.12 682.8,-285.7 597.85,-272 596.4,-271.77 594.93,-271.53 593.45,-271.29"/>
<polygon fill="#63b8ff" stroke="#63b8ff" points="594.01,-267.83 583.58,-269.66 592.87,-274.74 594.01,-267.83"/>
</a>
</g>
</g>
<!-- Node7 -->
<g id="Node000007" class="node">
<title>Node7</title>
<g id="a_Node000007"><a xlink:href="ExpertiseField_8h.html" target="_top" xlink:title="Declares the ExpertiseField enum class representing technician specializations, and a utility functio...">
<polygon fill="white" stroke="#666666" points="202.35,-74 37.35,-74 37.35,-55 202.35,-55 202.35,-74"/>
<text text-anchor="middle" x="119.85" y="-62" font-family="Helvetica,sans-Serif" font-size="10.00">TechMa/Types/ExpertiseField.h</text>
</a>
</g>
</g>
<!-- Node1&#45;&gt;Node7 -->
<g id="edge21_Node000001_Node000007" class="edge">
<title>Node1&#45;&gt;Node7</title>
<g id="a_edge21_Node000001_Node000007"><a xlink:title=" ">
<path fill="none" stroke="#63b8ff" d="M847.77,-319.25C638.86,-310.41 105.82,-274.81 5.85,-140 -2.09,-129.29 -1.67,-121.01 5.85,-110 16.82,-93.94 34.52,-83.68 52.74,-77.12"/>
<polygon fill="#63b8ff" stroke="#63b8ff" points="53.85,-80.43 62.28,-74.01 51.69,-73.78 53.85,-80.43"/>
</a>
</g>
</g>
<!-- Node9 -->
<g id="Node000009" class="node">
<title>Node9</title>
<g id="a_Node000009"><a xlink:href="InterventionComplexity_8h.html" target="_top" xlink:title="Declares the InterventionComplexity enum class representing complexity levels of an intervention.">
<polygon fill="white" stroke="#666666" points="1000.85,-140 854.85,-140 854.85,-110 1000.85,-110 1000.85,-140"/>
<text text-anchor="start" x="862.85" y="-128" font-family="Helvetica,sans-Serif" font-size="10.00">TechMa/Types/Intervention</text>
<text text-anchor="middle" x="927.85" y="-117" font-family="Helvetica,sans-Serif" font-size="10.00">Complexity.h</text>
</a>
</g>
</g>
<!-- Node1&#45;&gt;Node9 -->
<g id="edge22_Node000001_Node000009" class="edge">
<title>Node1&#45;&gt;Node9</title>
<g id="a_edge22_Node000001_Node000009"><a xlink:title=" ">
<path fill="none" stroke="#63b8ff" d="M847.71,-314.19C791.44,-307.03 724.57,-294.08 706.85,-272 680.15,-238.72 680.22,-209.33 706.85,-176 711.41,-170.3 785.03,-154.39 846.06,-142.03"/>
<polygon fill="#63b8ff" stroke="#63b8ff" points="847.01,-145.41 856.12,-140 845.63,-138.55 847.01,-145.41"/>
</a>
</g>
</g>
<!-- Node10 -->
<g id="Node000010" class="node">
<title>Node10</title>
<g id="a_Node000010"><a xlink:href="InterventionStatus_8h.html" target="_top" xlink:title="Declares the InterventionStatus enum and its string conversion function.">
<polygon fill="white" stroke="#666666" points="672.85,-140 526.85,-140 526.85,-110 672.85,-110 672.85,-140"/>
<text text-anchor="start" x="534.85" y="-128" font-family="Helvetica,sans-Serif" font-size="10.00">TechMa/Types/Intervention</text>
<text text-anchor="middle" x="599.85" y="-117" font-family="Helvetica,sans-Serif" font-size="10.00">Status.h</text>
</a>
</g>
</g>
<!-- Node1&#45;&gt;Node10 -->
<g id="edge23_Node000001_Node000010" class="edge">
<title>Node1&#45;&gt;Node10</title>
<g id="a_edge23_Node000001_Node000010"><a xlink:title=" ">
<path fill="none" stroke="#63b8ff" d="M847.74,-314.54C781.03,-307.12 694.56,-293.66 666.85,-272 627.96,-241.6 610.82,-183.45 603.95,-150.45"/>
<polygon fill="#63b8ff" stroke="#63b8ff" points="607.32,-149.46 601.99,-140.3 600.44,-150.78 607.32,-149.46"/>
</a>
</g>
</g>
<!-- Node11 -->
<g id="Node000011" class="node">
<title>Node11</title>
<g id="a_Node000011"><a xlink:href="InterventionType_8h.html" target="_top" xlink:title="Declares the InterventionType enum class and a string conversion utility.">
<polygon fill="white" stroke="#666666" points="836.85,-140 690.85,-140 690.85,-110 836.85,-110 836.85,-140"/>
<text text-anchor="start" x="698.85" y="-128" font-family="Helvetica,sans-Serif" font-size="10.00">TechMa/Types/Intervention</text>
<text text-anchor="middle" x="763.85" y="-117" font-family="Helvetica,sans-Serif" font-size="10.00">Type.h</text>
</a>
</g>
</g>
<!-- Node1&#45;&gt;Node11 -->
<g id="edge24_Node000001_Node000011" class="edge">
<title>Node1&#45;&gt;Node11</title>
<g id="a_edge24_Node000001_Node000011"><a xlink:title=" ">
<path fill="none" stroke="#63b8ff" d="M847.72,-316C785.08,-309.58 707.07,-296.76 686.85,-272 659.87,-238.95 666.49,-213.5 686.85,-176 693.96,-162.91 706.13,-152.72 718.73,-145.05"/>
<polygon fill="#63b8ff" stroke="#63b8ff" points="720.47,-148.09 727.47,-140.14 717.03,-141.99 720.47,-148.09"/>
</a>
</g>
</g>
<!-- Node16 -->
<g id="Node000016" class="node">
<title>Node16</title>
<g id="a_Node000016"><a xlink:href="TechListController_8h.html" target="_top" xlink:title="Declares the TechListController class, a Qt&#45;based controller for managing technician selection UI.">
<polygon fill="white" stroke="#666666" points="857.85,-272 715.85,-272 715.85,-242 857.85,-242 857.85,-272"/>
<text text-anchor="start" x="723.85" y="-260" font-family="Helvetica,sans-Serif" font-size="10.00">TechMa/Views/Controllers</text>
<text text-anchor="middle" x="786.85" y="-249" font-family="Helvetica,sans-Serif" font-size="10.00">/TechListController.h</text>
</a>
</g>
</g>
<!-- Node1&#45;&gt;Node16 -->
<g id="edge25_Node000001_Node000016" class="edge">
<title>Node1&#45;&gt;Node16</title>
<g id="a_edge25_Node000001_Node000016"><a xlink:title=" ">
<path fill="none" stroke="#63b8ff" d="M900.03,-307.95C878.88,-298.62 850.89,-286.27 828.04,-276.18"/>
<polygon fill="#63b8ff" stroke="#63b8ff" points="829.16,-272.85 818.6,-272.01 826.33,-279.25 829.16,-272.85"/>
</a>
</g>
</g>
<!-- Node19 -->
<g id="Node000019" class="node">
<title>Node19</title>
<g id="a_Node000019"><a xlink:title=" ">
<polygon fill="#e0e0e0" stroke="#999999" points="987.35,-266.5 876.35,-266.5 876.35,-247.5 987.35,-247.5 987.35,-266.5"/>
<text text-anchor="middle" x="931.85" y="-254.5" font-family="Helvetica,sans-Serif" font-size="10.00">QAbstractItemView</text>
</a>
</g>
</g>
<!-- Node1&#45;&gt;Node19 -->
<g id="edge28_Node000001_Node000019" class="edge">
<title>Node1&#45;&gt;Node19</title>
<g id="a_edge28_Node000001_Node000019"><a xlink:title=" ">
<path fill="none" stroke="#63b8ff" d="M931.85,-307.8C931.85,-298.7 931.85,-286.79 931.85,-276.9"/>
<polygon fill="#63b8ff" stroke="#63b8ff" points="935.35,-276.84 931.85,-266.84 928.35,-276.84 935.35,-276.84"/>
</a>
</g>
</g>
<!-- Node20 -->
<g id="Node000020" class="node">
<title>Node20</title>
<g id="a_Node000020"><a xlink:title=" ">
<polygon fill="#e0e0e0" stroke="#999999" points="1082.35,-266.5 1005.35,-266.5 1005.35,-247.5 1082.35,-247.5 1082.35,-266.5"/>
<text text-anchor="middle" x="1043.85" y="-254.5" font-family="Helvetica,sans-Serif" font-size="10.00">QComboBox</text>
</a>
</g>
</g>
<!-- Node1&#45;&gt;Node20 -->
<g id="edge29_Node000001_Node000020" class="edge">
<title>Node1&#45;&gt;Node20</title>
<g id="a_edge29_Node000001_Node000020"><a xlink:title=" ">
<path fill="none" stroke="#63b8ff" d="M956.43,-307.95C975.38,-297.13 1001.43,-282.24 1020.15,-271.54"/>
<polygon fill="#63b8ff" stroke="#63b8ff" points="1022,-274.52 1028.95,-266.52 1018.53,-268.44 1022,-274.52"/>
</a>
</g>
</g>
<!-- Node21 -->
<g id="Node000021" class="node">
<title>Node21</title>
<g id="a_Node000021"><a xlink:title=" ">
<polygon fill="#e0e0e0" stroke="#999999" points="1166.85,-266.5 1100.85,-266.5 1100.85,-247.5 1166.85,-247.5 1166.85,-266.5"/>
<text text-anchor="middle" x="1133.85" y="-254.5" font-family="Helvetica,sans-Serif" font-size="10.00">QDateEdit</text>
</a>
</g>
</g>
<!-- Node1&#45;&gt;Node21 -->
<g id="edge30_Node000001_Node000021" class="edge">
<title>Node1&#45;&gt;Node21</title>
<g id="a_edge30_Node000001_Node000021"><a xlink:title=" ">
<path fill="none" stroke="#63b8ff" d="M977.79,-307.9C1009.81,-298 1053.49,-284.38 1091.85,-272 1094.13,-271.26 1096.49,-270.5 1098.85,-269.72"/>
<polygon fill="#63b8ff" stroke="#63b8ff" points="1100.16,-272.98 1108.56,-266.52 1097.96,-266.33 1100.16,-272.98"/>
</a>
</g>
</g>
<!-- Node22 -->
<g id="Node000022" class="node">
<title>Node22</title>
<g id="a_Node000022"><a xlink:title=" ">
<polygon fill="#e0e0e0" stroke="#999999" points="1266.85,-266.5 1184.85,-266.5 1184.85,-247.5 1266.85,-247.5 1266.85,-266.5"/>
<text text-anchor="middle" x="1225.85" y="-254.5" font-family="Helvetica,sans-Serif" font-size="10.00">QFormLayout</text>
</a>
</g>
</g>
<!-- Node1&#45;&gt;Node22 -->
<g id="edge31_Node000001_Node000022" class="edge">
<title>Node1&#45;&gt;Node22</title>
<g id="a_edge31_Node000001_Node000022"><a xlink:title=" ">
<path fill="none" stroke="#63b8ff" d="M1007.18,-307.99C1055.56,-298.65 1119.64,-285.61 1175.85,-272 1179.44,-271.13 1183.15,-270.18 1186.86,-269.2"/>
<polygon fill="#63b8ff" stroke="#63b8ff" points="1187.86,-272.56 1196.6,-266.57 1186.03,-265.8 1187.86,-272.56"/>
</a>
</g>
</g>
<!-- Node23 -->
<g id="Node000023" class="node">
<title>Node23</title>
<g id="a_Node000023"><a xlink:title=" ">
<polygon fill="#e0e0e0" stroke="#999999" points="1348.35,-266.5 1285.35,-266.5 1285.35,-247.5 1348.35,-247.5 1348.35,-266.5"/>
<text text-anchor="middle" x="1316.85" y="-254.5" font-family="Helvetica,sans-Serif" font-size="10.00">QLineEdit</text>
</a>
</g>
</g>
<!-- Node1&#45;&gt;Node23 -->
<g id="edge32_Node000001_Node000023" class="edge">
<title>Node1&#45;&gt;Node23</title>
<g id="a_edge32_Node000001_Node000023"><a xlink:title=" ">
<path fill="none" stroke="#63b8ff" d="M1016.09,-314.15C1086.25,-306.56 1188.44,-293.09 1275.85,-272 1278.66,-271.32 1281.55,-270.53 1284.44,-269.68"/>
<polygon fill="#63b8ff" stroke="#63b8ff" points="1285.62,-272.98 1294.09,-266.61 1283.5,-266.31 1285.62,-272.98"/>
</a>
</g>
</g>
<!-- Node24 -->
<g id="Node000024" class="node">
<title>Node24</title>
<g id="a_Node000024"><a xlink:title=" ">
<polygon fill="#e0e0e0" stroke="#999999" points="1446.85,-266.5 1366.85,-266.5 1366.85,-247.5 1446.85,-247.5 1446.85,-266.5"/>
<text text-anchor="middle" x="1406.85" y="-254.5" font-family="Helvetica,sans-Serif" font-size="10.00">QPushButton</text>
</a>
</g>
</g>
<!-- Node1&#45;&gt;Node24 -->
<g id="edge33_Node000001_Node000024" class="edge">
<title>Node1&#45;&gt;Node24</title>
<g id="a_edge33_Node000001_Node000024"><a xlink:title=" ">
<path fill="none" stroke="#63b8ff" d="M1016.14,-316.14C1102.54,-309.2 1240.48,-295.5 1357.85,-272 1361.79,-271.21 1365.87,-270.26 1369.92,-269.24"/>
<polygon fill="#63b8ff" stroke="#63b8ff" points="1371.08,-272.55 1379.83,-266.56 1369.26,-265.79 1371.08,-272.55"/>
</a>
</g>
</g>
<!-- Node25 -->
<g id="Node000025" class="node">
<title>Node25</title>
<g id="a_Node000025"><a xlink:title=" ">
<polygon fill="#e0e0e0" stroke="#999999" points="1528.85,-266.5 1464.85,-266.5 1464.85,-247.5 1528.85,-247.5 1528.85,-266.5"/>
<text text-anchor="middle" x="1496.85" y="-254.5" font-family="Helvetica,sans-Serif" font-size="10.00">QSpinBox</text>
</a>
</g>
</g>
<!-- Node1&#45;&gt;Node25 -->
<g id="edge34_Node000001_Node000025" class="edge">
<title>Node1&#45;&gt;Node25</title>
<g id="a_edge34_Node000001_Node000025"><a xlink:title=" ">
<path fill="none" stroke="#63b8ff" d="M1016.27,-320C1120.6,-316.15 1303.08,-304.9 1455.85,-272 1458.91,-271.34 1462.07,-270.52 1465.2,-269.62"/>
<polygon fill="#63b8ff" stroke="#63b8ff" points="1466.51,-272.88 1474.99,-266.52 1464.4,-266.2 1466.51,-272.88"/>
</a>
</g>
</g>
<!-- Node3 -->
<g id="Node000003" class="node">
<title>Node3</title>
<g id="a_Node000003"><a xlink:href="InterventionData_8h.html" target="_top" xlink:title="Defines the InterventionData structure which holds all information related to an intervention.">
<polygon fill="white" stroke="#666666" points="482.35,-206 327.35,-206 327.35,-176 482.35,-176 482.35,-206"/>
<text text-anchor="start" x="335.35" y="-194" font-family="Helvetica,sans-Serif" font-size="10.00">TechMa/Entities/Intervention</text>
<text text-anchor="middle" x="404.85" y="-183" font-family="Helvetica,sans-Serif" font-size="10.00">Data.h</text>
</a>
</g>
</g>
<!-- Node2&#45;&gt;Node3 -->
<g id="edge2_Node000002_Node000003" class="edge">
<title>Node2&#45;&gt;Node3</title>
<g id="a_edge2_Node000002_Node000003"><a xlink:title=" ">
<path fill="none" stroke="#63b8ff" d="M492.27,-241.95C476.37,-232.87 455.47,-220.93 438.09,-211"/>
<polygon fill="#63b8ff" stroke="#63b8ff" points="439.79,-207.93 429.37,-206.01 436.32,-214.01 439.79,-207.93"/>
</a>
</g>
</g>
<!-- Node15 -->
<g id="Node000015" class="node">
<title>Node15</title>
<g id="a_Node000015"><a xlink:title=" ">
<polygon fill="#e0e0e0" stroke="#999999" points="559.35,-200.5 500.35,-200.5 500.35,-181.5 559.35,-181.5 559.35,-200.5"/>
<text text-anchor="middle" x="529.85" y="-188.5" font-family="Helvetica,sans-Serif" font-size="10.00">QWidget</text>
</a>
</g>
</g>
<!-- Node2&#45;&gt;Node15 -->
<g id="edge20_Node000002_Node000015" class="edge">
<title>Node2&#45;&gt;Node15</title>
<g id="a_edge20_Node000002_Node000015"><a xlink:title=" ">
<path fill="none" stroke="#63b8ff" d="M519.74,-241.8C521.58,-232.7 524,-220.79 526.01,-210.9"/>
<polygon fill="#63b8ff" stroke="#63b8ff" points="529.49,-211.34 528.05,-200.84 522.63,-209.95 529.49,-211.34"/>
</a>
</g>
</g>
<!-- Node4 -->
<g id="Node000004" class="node">
<title>Node4</title>
<g id="a_Node000004"><a xlink:href="ATechnician_8h.html" target="_top" xlink:title="Defines the abstract base class ATechnician representing a technician entity.">
<polygon fill="white" stroke="#666666" points="364.85,-134.5 202.85,-134.5 202.85,-115.5 364.85,-115.5 364.85,-134.5"/>
<text text-anchor="middle" x="283.85" y="-122.5" font-family="Helvetica,sans-Serif" font-size="10.00">TechMa/Entities/ATechnician.h</text>
</a>
</g>
</g>
<!-- Node3&#45;&gt;Node4 -->
<g id="edge3_Node000003_Node000004" class="edge">
<title>Node3&#45;&gt;Node4</title>
<g id="a_edge3_Node000003_Node000004"><a xlink:title=" ">
<path fill="none" stroke="#63b8ff" d="M378.3,-175.95C357.64,-165.03 329.17,-149.97 308.9,-139.25"/>
<polygon fill="#63b8ff" stroke="#63b8ff" points="310.43,-136.1 299.95,-134.52 307.16,-142.29 310.43,-136.1"/>
</a>
</g>
</g>
<!-- Node5 -->
<g id="Node000005" class="node">
<title>Node5</title>
<g id="a_Node000005"><a xlink:title=" ">
<polygon fill="#e0e0e0" stroke="#999999" points="469.85,-19 425.85,-19 425.85,0 469.85,0 469.85,-19"/>
<text text-anchor="middle" x="447.85" y="-7" font-family="Helvetica,sans-Serif" font-size="10.00">string</text>
</a>
</g>
</g>
<!-- Node3&#45;&gt;Node5 -->
<g id="edge19_Node000003_Node000005" class="edge">
<title>Node3&#45;&gt;Node5</title>
<g id="a_edge19_Node000003_Node000005"><a xlink:title=" ">
<path fill="none" stroke="#63b8ff" d="M439.92,-175.85C455.08,-167.77 471.29,-156 479.85,-140 497.68,-106.69 491.44,-90.96 479.85,-55 476.51,-44.62 469.75,-34.62 463.3,-26.74"/>
<polygon fill="#63b8ff" stroke="#63b8ff" points="465.83,-24.31 456.6,-19.1 460.56,-28.92 465.83,-24.31"/>
</a>
</g>
</g>
<!-- Node3&#45;&gt;Node7 -->
<g id="edge10_Node000003_Node000007" class="edge">
<title>Node3&#45;&gt;Node7</title>
<g id="a_edge10_Node000003_Node000007"><a xlink:title=" ">
<path fill="none" stroke="#63b8ff" d="M327.14,-182.07C285.56,-175.31 234.66,-162.86 193.85,-140 167.98,-125.51 145.11,-99.36 131.88,-82.21"/>
<polygon fill="#63b8ff" stroke="#63b8ff" points="134.66,-80.09 125.87,-74.18 129.05,-84.28 134.66,-80.09"/>
</a>
</g>
</g>
<!-- Node8 -->
<g id="Node000008" class="node">
<title>Node8</title>
<g id="a_Node000008"><a xlink:href="Location_8h.html" target="_top" xlink:title="Defines the GPSCoords and Location structures for representing geographical locations.">
<polygon fill="white" stroke="#666666" points="470.85,-74 324.85,-74 324.85,-55 470.85,-55 470.85,-74"/>
<text text-anchor="middle" x="397.85" y="-62" font-family="Helvetica,sans-Serif" font-size="10.00">TechMa/Entities/Location.h</text>
</a>
</g>
</g>
<!-- Node3&#45;&gt;Node8 -->
<g id="edge8_Node000003_Node000008" class="edge">
<title>Node3&#45;&gt;Node8</title>
<g id="a_edge8_Node000003_Node000008"><a xlink:title=" ">
<path fill="none" stroke="#63b8ff" d="M404.05,-175.72C402.78,-153.12 400.3,-109.12 398.9,-84.09"/>
<polygon fill="#63b8ff" stroke="#63b8ff" points="402.39,-83.86 398.33,-74.07 395.4,-84.25 402.39,-83.86"/>
</a>
</g>
</g>
<!-- Node3&#45;&gt;Node9 -->
<g id="edge11_Node000003_Node000009" class="edge">
<title>Node3&#45;&gt;Node9</title>
<g id="a_edge11_Node000003_Node000009"><a xlink:title=" ">
<path fill="none" stroke="#63b8ff" d="M482.64,-177.12C485.41,-176.73 488.15,-176.36 490.85,-176 644.85,-155.68 686.99,-161.12 844.52,-140.12"/>
<polygon fill="#63b8ff" stroke="#63b8ff" points="845.13,-143.57 854.57,-138.77 844.19,-136.63 845.13,-143.57"/>
</a>
</g>
</g>
<!-- Node3&#45;&gt;Node10 -->
<g id="edge12_Node000003_Node000010" class="edge">
<title>Node3&#45;&gt;Node10</title>
<g id="a_edge12_Node000003_Node000010"><a xlink:title=" ">
<path fill="none" stroke="#63b8ff" d="M447.64,-175.95C476.98,-166.33 516.09,-153.49 547.32,-143.24"/>
<polygon fill="#63b8ff" stroke="#63b8ff" points="548.75,-146.46 557.16,-140.01 546.56,-139.81 548.75,-146.46"/>
</a>
</g>
</g>
<!-- Node3&#45;&gt;Node11 -->
<g id="edge14_Node000003_Node000011" class="edge">
<title>Node3&#45;&gt;Node11</title>
<g id="a_edge14_Node000003_Node000011"><a xlink:title=" ">
<path fill="none" stroke="#63b8ff" d="M482.75,-176.11C541.13,-165.7 620.9,-151.48 680.55,-140.85"/>
<polygon fill="#63b8ff" stroke="#63b8ff" points="681.47,-144.24 690.7,-139.04 680.24,-137.35 681.47,-144.24"/>
</a>
</g>
</g>
<!-- Node12 -->
<g id="Node000012" class="node">
<title>Node12</title>
<g id="a_Node000012"><a xlink:title=" ">
<polygon fill="#e0e0e0" stroke="#999999" points="470.85,-134.5 420.85,-134.5 420.85,-115.5 470.85,-115.5 470.85,-134.5"/>
<text text-anchor="middle" x="445.85" y="-122.5" font-family="Helvetica,sans-Serif" font-size="10.00">chrono</text>
</a>
</g>
</g>
<!-- Node3&#45;&gt;Node12 -->
<g id="edge16_Node000003_Node000012" class="edge">
<title>Node3&#45;&gt;Node12</title>
<g id="a_edge16_Node000003_Node000012"><a xlink:title=" ">
<path fill="none" stroke="#63b8ff" d="M413.95,-175.8C420.09,-166.21 428.23,-153.5 434.76,-143.32"/>
<polygon fill="#63b8ff" stroke="#63b8ff" points="437.74,-145.15 440.19,-134.84 431.84,-141.38 437.74,-145.15"/>
</a>
</g>
</g>
<!-- Node13 -->
<g id="Node000013" class="node">
<title>Node13</title>
<g id="a_Node000013"><a xlink:title=" ">
<polygon fill="#e0e0e0" stroke="#999999" points="72.85,-134.5 14.85,-134.5 14.85,-115.5 72.85,-115.5 72.85,-134.5"/>
<text text-anchor="middle" x="43.85" y="-122.5" font-family="Helvetica,sans-Serif" font-size="10.00">memory</text>
</a>
</g>
</g>
<!-- Node3&#45;&gt;Node13 -->
<g id="edge17_Node000003_Node000013" class="edge">
<title>Node3&#45;&gt;Node13</title>
<g id="a_edge17_Node000003_Node000013"><a xlink:title=" ">
<path fill="none" stroke="#63b8ff" d="M327.29,-182.39C261.31,-174.87 164.39,-161.36 81.85,-140 79.41,-139.37 76.91,-138.64 74.41,-137.85"/>
<polygon fill="#63b8ff" stroke="#63b8ff" points="75.51,-134.53 64.92,-134.61 73.25,-141.15 75.51,-134.53"/>
</a>
</g>
</g>
<!-- Node14 -->
<g id="Node000014" class="node">
<title>Node14</title>
<g id="a_Node000014"><a xlink:title=" ">
<polygon fill="#e0e0e0" stroke="#999999" points="146.85,-134.5 90.85,-134.5 90.85,-115.5 146.85,-115.5 146.85,-134.5"/>
<text text-anchor="middle" x="118.85" y="-122.5" font-family="Helvetica,sans-Serif" font-size="10.00">optional</text>
</a>
</g>
</g>
<!-- Node3&#45;&gt;Node14 -->
<g id="edge18_Node000003_Node000014" class="edge">
<title>Node3&#45;&gt;Node14</title>
<g id="a_edge18_Node000003_Node000014"><a xlink:title=" ">
<path fill="none" stroke="#63b8ff" d="M327.1,-176.52C278.89,-167.56 215.88,-154.75 160.85,-140 158.23,-139.3 155.53,-138.52 152.82,-137.71"/>
<polygon fill="#63b8ff" stroke="#63b8ff" points="153.72,-134.32 143.13,-134.64 151.61,-140.99 153.72,-134.32"/>
</a>
</g>
</g>
<!-- Node4&#45;&gt;Node5 -->
<g id="edge4_Node000004_Node000005" class="edge">
<title>Node4&#45;&gt;Node5</title>
<g id="a_edge4_Node000004_Node000005"><a xlink:title=" ">
<path fill="none" stroke="#63b8ff" d="M273.65,-115.25C258.78,-101.44 234.5,-74.19 249.85,-55 270.25,-29.51 364.87,-17.61 415.57,-12.97"/>
<polygon fill="#63b8ff" stroke="#63b8ff" points="416.02,-16.45 425.68,-12.09 415.41,-9.47 416.02,-16.45"/>
</a>
</g>
</g>
<!-- Node6 -->
<g id="Node000006" class="node">
<title>Node6</title>
<g id="a_Node000006"><a xlink:title=" ">
<polygon fill="#e0e0e0" stroke="#999999" points="306.35,-74 259.35,-74 259.35,-55 306.35,-55 306.35,-74"/>
<text text-anchor="middle" x="282.85" y="-62" font-family="Helvetica,sans-Serif" font-size="10.00">vector</text>
</a>
</g>
</g>
<!-- Node4&#45;&gt;Node6 -->
<g id="edge5_Node000004_Node000006" class="edge">
<title>Node4&#45;&gt;Node6</title>
<g id="a_edge5_Node000004_Node000006"><a xlink:title=" ">
<path fill="none" stroke="#63b8ff" d="M283.7,-115.37C283.56,-107.25 283.35,-94.81 283.17,-84.39"/>
<polygon fill="#63b8ff" stroke="#63b8ff" points="286.67,-84.11 283,-74.17 279.67,-84.23 286.67,-84.11"/>
</a>
</g>
</g>
<!-- Node4&#45;&gt;Node7 -->
<g id="edge6_Node000004_Node000007" class="edge">
<title>Node4&#45;&gt;Node7</title>
<g id="a_edge6_Node000004_Node000007"><a xlink:title=" ">
<path fill="none" stroke="#63b8ff" d="M260,-115.49C231.95,-105.49 185.18,-88.8 153.45,-77.49"/>
<polygon fill="#63b8ff" stroke="#63b8ff" points="154.32,-74.08 143.73,-74.02 151.97,-80.67 154.32,-74.08"/>
</a>
</g>
</g>
<!-- Node7&#45;&gt;Node5 -->
<g id="edge7_Node000007_Node000005" class="edge">
<title>Node7&#45;&gt;Node5</title>
<g id="a_edge7_Node000007_Node000005"><a xlink:title=" ">
<path fill="none" stroke="#63b8ff" d="M172.55,-54.98C241.11,-43.91 358.81,-24.89 415.49,-15.73"/>
<polygon fill="#63b8ff" stroke="#63b8ff" points="416.34,-19.14 425.65,-14.09 415.22,-12.23 416.34,-19.14"/>
</a>
</g>
</g>
<!-- Node8&#45;&gt;Node5 -->
<g id="edge9_Node000008_Node000005" class="edge">
<title>Node8&#45;&gt;Node5</title>
<g id="a_edge9_Node000008_Node000005"><a xlink:title=" ">
<path fill="none" stroke="#63b8ff" d="M406.11,-54.75C413.32,-47.11 423.96,-35.82 432.7,-26.56"/>
<polygon fill="#63b8ff" stroke="#63b8ff" points="435.43,-28.76 439.75,-19.09 430.34,-23.96 435.43,-28.76"/>
</a>
</g>
</g>
<!-- Node10&#45;&gt;Node5 -->
<g id="edge13_Node000010_Node000005" class="edge">
<title>Node10&#45;&gt;Node5</title>
<g id="a_edge13_Node000010_Node000005"><a xlink:title=" ">
<path fill="none" stroke="#63b8ff" d="M582.8,-109.89C565.45,-95.68 537.68,-73.31 512.85,-55 498.68,-44.55 482.32,-33.35 469.56,-24.81"/>
<polygon fill="#63b8ff" stroke="#63b8ff" points="471.25,-21.73 460.99,-19.1 467.37,-27.56 471.25,-21.73"/>
</a>
</g>
</g>
<!-- Node11&#45;&gt;Node5 -->
<g id="edge15_Node000011_Node000005" class="edge">
<title>Node11&#45;&gt;Node5</title>
<g id="a_edge15_Node000011_Node000005"><a xlink:title=" ">
<path fill="none" stroke="#63b8ff" d="M724.79,-109.97C661.54,-87.25 537.95,-42.86 479.69,-21.93"/>
<polygon fill="#63b8ff" stroke="#63b8ff" points="480.52,-18.52 469.93,-18.43 478.15,-25.1 480.52,-18.52"/>
</a>
</g>
</g>
<!-- Node17 -->
<g id="Node000017" class="node">
<title>Node17</title>
<g id="a_Node000017"><a xlink:href="ATechnicianObserver_8h.html" target="_top" xlink:title="Declares the ATechnicianObserver interface used for observing technician&#45;related changes.">
<polygon fill="white" stroke="#666666" points="877.35,-206 716.35,-206 716.35,-176 877.35,-176 877.35,-206"/>
<text text-anchor="start" x="724.35" y="-194" font-family="Helvetica,sans-Serif" font-size="10.00">TechMa/Observer/ATechnician</text>
<text text-anchor="middle" x="796.85" y="-183" font-family="Helvetica,sans-Serif" font-size="10.00">Observer.h</text>
</a>
</g>
</g>
<!-- Node16&#45;&gt;Node17 -->
<g id="edge26_Node000016_Node000017" class="edge">
<title>Node16&#45;&gt;Node17</title>
<g id="a_edge26_Node000016_Node000017"><a xlink:title=" ">
<path fill="none" stroke="#63b8ff" d="M789.07,-241.8C790.25,-234.26 791.73,-224.78 793.08,-216.13"/>
<polygon fill="#63b8ff" stroke="#63b8ff" points="796.55,-216.58 794.64,-206.16 789.64,-215.5 796.55,-216.58"/>
</a>
</g>
</g>
<!-- Node18 -->
<g id="Node000018" class="node">
<title>Node18</title>
<g id="a_Node000018"><a xlink:title=" ">
<polygon fill="#e0e0e0" stroke="#999999" points="951.85,-200.5 895.85,-200.5 895.85,-181.5 951.85,-181.5 951.85,-200.5"/>
<text text-anchor="middle" x="923.85" y="-188.5" font-family="Helvetica,sans-Serif" font-size="10.00">QObject</text>
</a>
</g>
</g>
<!-- Node16&#45;&gt;Node18 -->
<g id="edge27_Node000016_Node000018" class="edge">
<title>Node16&#45;&gt;Node18</title>
<g id="a_edge27_Node000016_Node000018"><a xlink:title=" ">
<path fill="none" stroke="#63b8ff" d="M816.92,-241.95C840.63,-230.88 873.42,-215.56 896.42,-204.82"/>
<polygon fill="#63b8ff" stroke="#63b8ff" points="898.04,-207.92 905.62,-200.52 895.08,-201.58 898.04,-207.92"/>
</a>
</g>
</g>
</g>
</svg>
