<?xml version="1.0" encoding="UTF-8" standalone="no"?>
<!DOCTYPE svg PUBLIC "-//W3C//DTD SVG 1.1//EN"
 "http://www.w3.org/Graphics/SVG/1.1/DTD/svg11.dtd">
<!-- Generated by graphviz version 2.43.0 (0)
 -->
<!-- Title: src/Views/Widgets/InterventionsListView.cpp Pages: 1 -->
<svg width="1303pt" height="412pt"
 viewBox="0.00 0.00 1303.00 412.00" xmlns="http://www.w3.org/2000/svg" xmlns:xlink="http://www.w3.org/1999/xlink">
<g id="graph0" class="graph" transform="scale(1 1) rotate(0) translate(4 408)">
<title>src/Views/Widgets/InterventionsListView.cpp</title>
<!-- Node1 -->
<g id="Node000001" class="node">
<title>Node1</title>
<g id="a_Node000001"><a xlink:title="Implements the InterventionsListView class, a QListView for browsing interventions.">
<polygon fill="#999999" stroke="#666666" points="416.5,-404 243.5,-404 243.5,-374 416.5,-374 416.5,-404"/>
<text text-anchor="start" x="251.5" y="-392" font-family="Helvetica,sans-Serif" font-size="10.00">src/Views/Widgets/Interventions</text>
<text text-anchor="middle" x="330" y="-381" font-family="Helvetica,sans-Serif" font-size="10.00">ListView.cpp</text>
</a>
</g>
</g>
<!-- Node2 -->
<g id="Node000002" class="node">
<title>Node2</title>
<g id="a_Node000002"><a xlink:href="InterventionsListView_8h.html" target="_top" xlink:title="Declares the InterventionsListView class, a QListView for displaying and selecting interventions.">
<polygon fill="white" stroke="#666666" points="134,-338 0,-338 0,-308 134,-308 134,-338"/>
<text text-anchor="start" x="8" y="-326" font-family="Helvetica,sans-Serif" font-size="10.00">TechMa/Views/Widgets</text>
<text text-anchor="middle" x="67" y="-315" font-family="Helvetica,sans-Serif" font-size="10.00">/InterventionsListView.h</text>
</a>
</g>
</g>
<!-- Node1&#45;&gt;Node2 -->
<g id="edge1_Node000001_Node000002" class="edge">
<title>Node1&#45;&gt;Node2</title>
<g id="a_edge1_Node000001_Node000002"><a xlink:title=" ">
<path fill="none" stroke="#63b8ff" d="M272.28,-373.95C231.6,-364.06 176.99,-350.77 134.32,-340.38"/>
<polygon fill="#63b8ff" stroke="#63b8ff" points="135.13,-336.98 124.58,-338.01 133.47,-343.78 135.13,-336.98"/>
</a>
</g>
</g>
<!-- Node4 -->
<g id="Node000004" class="node">
<title>Node4</title>
<g id="a_Node000004"><a xlink:href="InterventionRepository_8h.html" target="_top" xlink:title="Declares the InterventionRepository class, which manages storage and access to interventions.">
<polygon fill="white" stroke="#666666" points="472.5,-338 301.5,-338 301.5,-308 472.5,-308 472.5,-338"/>
<text text-anchor="start" x="309.5" y="-326" font-family="Helvetica,sans-Serif" font-size="10.00">TechMa/Repository/Intervention</text>
<text text-anchor="middle" x="387" y="-315" font-family="Helvetica,sans-Serif" font-size="10.00">Repository.h</text>
</a>
</g>
</g>
<!-- Node1&#45;&gt;Node4 -->
<g id="edge3_Node000001_Node000004" class="edge">
<title>Node1&#45;&gt;Node4</title>
<g id="a_edge3_Node000001_Node000004"><a xlink:title=" ">
<path fill="none" stroke="#63b8ff" d="M342.65,-373.8C349.96,-365.59 359.3,-355.1 367.52,-345.87"/>
<polygon fill="#63b8ff" stroke="#63b8ff" points="370.35,-347.96 374.39,-338.16 365.12,-343.3 370.35,-347.96"/>
</a>
</g>
</g>
<!-- Node10 -->
<g id="Node000010" class="node">
<title>Node10</title>
<g id="a_Node000010"><a xlink:href="ExpertiseField_8h.html" target="_top" xlink:title="Declares the ExpertiseField enum class representing technician specializations, and a utility functio...">
<polygon fill="white" stroke="#666666" points="743.5,-79.5 578.5,-79.5 578.5,-60.5 743.5,-60.5 743.5,-79.5"/>
<text text-anchor="middle" x="661" y="-67.5" font-family="Helvetica,sans-Serif" font-size="10.00">TechMa/Types/ExpertiseField.h</text>
</a>
</g>
</g>
<!-- Node1&#45;&gt;Node10 -->
<g id="edge35_Node000001_Node000010" class="edge">
<title>Node1&#45;&gt;Node10</title>
<g id="a_edge35_Node000001_Node000010"><a xlink:title=" ">
<path fill="none" stroke="#63b8ff" d="M279.14,-373.92C229.69,-356.76 162,-322.49 162,-263.5 162,-263.5 162,-263.5 162,-201 162,-164.46 153.54,-145.12 181,-121 209.45,-96.01 437.11,-81.38 568.42,-74.94"/>
<polygon fill="#63b8ff" stroke="#63b8ff" points="568.66,-78.43 578.48,-74.45 568.33,-71.44 568.66,-78.43"/>
</a>
</g>
</g>
<!-- Node20 -->
<g id="Node000020" class="node">
<title>Node20</title>
<g id="a_Node000020"><a xlink:href="TechnicianRepository_8h.html" target="_top" xlink:title="Declares the TechnicianRepository class, responsible for storing and managing technicians.">
<polygon fill="white" stroke="#666666" points="502.5,-217 339.5,-217 339.5,-187 502.5,-187 502.5,-217"/>
<text text-anchor="start" x="347.5" y="-205" font-family="Helvetica,sans-Serif" font-size="10.00">TechMa/Repository/Technician</text>
<text text-anchor="middle" x="421" y="-194" font-family="Helvetica,sans-Serif" font-size="10.00">Repository.h</text>
</a>
</g>
</g>
<!-- Node1&#45;&gt;Node20 -->
<g id="edge28_Node000001_Node000020" class="edge">
<title>Node1&#45;&gt;Node20</title>
<g id="a_edge28_Node000001_Node000020"><a xlink:title=" ">
<path fill="none" stroke="#63b8ff" d="M315.47,-373.8C300.92,-357.78 282.14,-330.96 293,-308 311.46,-268.98 352.31,-239.61 382.93,-221.99"/>
<polygon fill="#63b8ff" stroke="#63b8ff" points="384.64,-225.05 391.67,-217.12 381.23,-218.93 384.64,-225.05"/>
</a>
</g>
</g>
<!-- Node22 -->
<g id="Node000022" class="node">
<title>Node22</title>
<g id="a_Node000022"><a xlink:title=" ">
<polygon fill="#e0e0e0" stroke="#999999" points="537.5,-332.5 490.5,-332.5 490.5,-313.5 537.5,-313.5 537.5,-332.5"/>
<text text-anchor="middle" x="514" y="-320.5" font-family="Helvetica,sans-Serif" font-size="10.00">QDate</text>
</a>
</g>
</g>
<!-- Node1&#45;&gt;Node22 -->
<g id="edge36_Node000001_Node000022" class="edge">
<title>Node1&#45;&gt;Node22</title>
<g id="a_edge36_Node000001_Node000022"><a xlink:title=" ">
<path fill="none" stroke="#63b8ff" d="M376.63,-373.92C406.91,-364.47 447.1,-351.34 482,-338 483.21,-337.54 484.44,-337.05 485.68,-336.56"/>
<polygon fill="#63b8ff" stroke="#63b8ff" points="487.3,-339.68 495.17,-332.59 484.59,-333.22 487.3,-339.68"/>
</a>
</g>
</g>
<!-- Node23 -->
<g id="Node000023" class="node">
<title>Node23</title>
<g id="a_Node000023"><a xlink:title=" ">
<polygon fill="#e0e0e0" stroke="#999999" points="656,-332.5 556,-332.5 556,-313.5 656,-313.5 656,-332.5"/>
<text text-anchor="middle" x="606" y="-320.5" font-family="Helvetica,sans-Serif" font-size="10.00">QStringListModel</text>
</a>
</g>
</g>
<!-- Node1&#45;&gt;Node23 -->
<g id="edge37_Node000001_Node000023" class="edge">
<title>Node1&#45;&gt;Node23</title>
<g id="a_edge37_Node000001_Node000023"><a xlink:title=" ">
<path fill="none" stroke="#63b8ff" d="M391.29,-373.99C434.77,-364.02 494.49,-350.28 547,-338 551.33,-336.99 555.83,-335.93 560.33,-334.87"/>
<polygon fill="#63b8ff" stroke="#63b8ff" points="561.2,-338.26 570.13,-332.55 559.59,-331.45 561.2,-338.26"/>
</a>
</g>
</g>
<!-- Node3 -->
<g id="Node000003" class="node">
<title>Node3</title>
<g id="a_Node000003"><a xlink:title=" ">
<polygon fill="#e0e0e0" stroke="#999999" points="99.5,-272 34.5,-272 34.5,-253 99.5,-253 99.5,-272"/>
<text text-anchor="middle" x="67" y="-260" font-family="Helvetica,sans-Serif" font-size="10.00">QListView</text>
</a>
</g>
</g>
<!-- Node2&#45;&gt;Node3 -->
<g id="edge2_Node000002_Node000003" class="edge">
<title>Node2&#45;&gt;Node3</title>
<g id="a_edge2_Node000002_Node000003"><a xlink:title=" ">
<path fill="none" stroke="#63b8ff" d="M67,-307.84C67,-300.21 67,-290.7 67,-282.45"/>
<polygon fill="#63b8ff" stroke="#63b8ff" points="70.5,-282.27 67,-272.27 63.5,-282.27 70.5,-282.27"/>
</a>
</g>
</g>
<!-- Node5 -->
<g id="Node000005" class="node">
<title>Node5</title>
<g id="a_Node000005"><a xlink:href="AIntervention_8h.html" target="_top" xlink:title="Defines the abstract base class AIntervention for representing interventions.">
<polygon fill="white" stroke="#666666" points="947.5,-272 776.5,-272 776.5,-253 947.5,-253 947.5,-272"/>
<text text-anchor="middle" x="862" y="-260" font-family="Helvetica,sans-Serif" font-size="10.00">TechMa/Entities/AIntervention.h</text>
</a>
</g>
</g>
<!-- Node4&#45;&gt;Node5 -->
<g id="edge4_Node000004_Node000005" class="edge">
<title>Node4&#45;&gt;Node5</title>
<g id="a_edge4_Node000004_Node000005"><a xlink:title=" ">
<path fill="none" stroke="#63b8ff" d="M472.69,-309.25C475.83,-308.82 478.94,-308.4 482,-308 581.57,-294.84 696.09,-281.7 773.17,-273.15"/>
<polygon fill="#63b8ff" stroke="#63b8ff" points="773.76,-276.6 783.31,-272.02 772.99,-269.65 773.76,-276.6"/>
</a>
</g>
</g>
<!-- Node9 -->
<g id="Node000009" class="node">
<title>Node9</title>
<g id="a_Node000009"><a xlink:title=" ">
<polygon fill="#e0e0e0" stroke="#999999" points="335.5,-79.5 288.5,-79.5 288.5,-60.5 335.5,-60.5 335.5,-79.5"/>
<text text-anchor="middle" x="312" y="-67.5" font-family="Helvetica,sans-Serif" font-size="10.00">vector</text>
</a>
</g>
</g>
<!-- Node4&#45;&gt;Node9 -->
<g id="edge27_Node000004_Node000009" class="edge">
<title>Node4&#45;&gt;Node9</title>
<g id="a_edge27_Node000004_Node000009"><a xlink:title=" ">
<path fill="none" stroke="#63b8ff" d="M357.07,-307.99C309.35,-283.77 217.65,-229.05 181,-151 175.33,-138.93 173.44,-131.98 181,-121 202.77,-89.39 247.42,-77.75 278.51,-73.47"/>
<polygon fill="#63b8ff" stroke="#63b8ff" points="278.96,-76.94 288.47,-72.29 278.13,-69.99 278.96,-76.94"/>
</a>
</g>
</g>
<!-- Node16 -->
<g id="Node000016" class="node">
<title>Node16</title>
<g id="a_Node000016"><a xlink:title=" ">
<polygon fill="#e0e0e0" stroke="#999999" points="758,-145.5 700,-145.5 700,-126.5 758,-126.5 758,-145.5"/>
<text text-anchor="middle" x="729" y="-133.5" font-family="Helvetica,sans-Serif" font-size="10.00">memory</text>
</a>
</g>
</g>
<!-- Node4&#45;&gt;Node16 -->
<g id="edge24_Node000004_Node000016" class="edge">
<title>Node4&#45;&gt;Node16</title>
<g id="a_edge24_Node000004_Node000016"><a xlink:title=" ">
<path fill="none" stroke="#63b8ff" d="M412.99,-307.94C477.04,-273.29 641.82,-184.16 704.4,-150.31"/>
<polygon fill="#63b8ff" stroke="#63b8ff" points="706.07,-153.38 713.2,-145.55 702.74,-147.23 706.07,-153.38"/>
</a>
</g>
</g>
<!-- Node17 -->
<g id="Node000017" class="node">
<title>Node17</title>
<g id="a_Node000017"><a xlink:title=" ">
<polygon fill="#e0e0e0" stroke="#999999" points="832,-145.5 776,-145.5 776,-126.5 832,-126.5 832,-145.5"/>
<text text-anchor="middle" x="804" y="-133.5" font-family="Helvetica,sans-Serif" font-size="10.00">optional</text>
</a>
</g>
</g>
<!-- Node4&#45;&gt;Node17 -->
<g id="edge25_Node000004_Node000017" class="edge">
<title>Node4&#45;&gt;Node17</title>
<g id="a_edge25_Node000004_Node000017"><a xlink:title=" ">
<path fill="none" stroke="#63b8ff" d="M472.37,-307.99C528.82,-297.97 597.19,-284.16 624,-272 691.96,-241.18 758.73,-181.18 788.24,-152.71"/>
<polygon fill="#63b8ff" stroke="#63b8ff" points="790.84,-155.06 795.54,-145.57 785.95,-150.06 790.84,-155.06"/>
</a>
</g>
</g>
<!-- Node18 -->
<g id="Node000018" class="node">
<title>Node18</title>
<g id="a_Node000018"><a xlink:title=" ">
<polygon fill="#e0e0e0" stroke="#999999" points="615,-272 559,-272 559,-253 615,-253 615,-272"/>
<text text-anchor="middle" x="587" y="-260" font-family="Helvetica,sans-Serif" font-size="10.00">QObject</text>
</a>
</g>
</g>
<!-- Node4&#45;&gt;Node18 -->
<g id="edge23_Node000004_Node000018" class="edge">
<title>Node4&#45;&gt;Node18</title>
<g id="a_edge23_Node000004_Node000018"><a xlink:title=" ">
<path fill="none" stroke="#63b8ff" d="M434.9,-307.99C469.84,-297.77 516.54,-284.11 548.93,-274.63"/>
<polygon fill="#63b8ff" stroke="#63b8ff" points="550.3,-277.88 558.92,-271.71 548.34,-271.16 550.3,-277.88"/>
</a>
</g>
</g>
<!-- Node19 -->
<g id="Node000019" class="node">
<title>Node19</title>
<g id="a_Node000019"><a xlink:title=" ">
<polygon fill="#e0e0e0" stroke="#999999" points="283.5,-145.5 190.5,-145.5 190.5,-126.5 283.5,-126.5 283.5,-145.5"/>
<text text-anchor="middle" x="237" y="-133.5" font-family="Helvetica,sans-Serif" font-size="10.00">unordered_map</text>
</a>
</g>
</g>
<!-- Node4&#45;&gt;Node19 -->
<g id="edge26_Node000004_Node000019" class="edge">
<title>Node4&#45;&gt;Node19</title>
<g id="a_edge26_Node000004_Node000019"><a xlink:title=" ">
<path fill="none" stroke="#63b8ff" d="M375.48,-307.79C348.16,-274.09 279.56,-189.49 250.42,-153.55"/>
<polygon fill="#63b8ff" stroke="#63b8ff" points="252.93,-151.09 243.92,-145.53 247.49,-155.5 252.93,-151.09"/>
</a>
</g>
</g>
<!-- Node6 -->
<g id="Node000006" class="node">
<title>Node6</title>
<g id="a_Node000006"><a xlink:href="InterventionData_8h.html" target="_top" xlink:title="Defines the InterventionData structure which holds all information related to an intervention.">
<polygon fill="white" stroke="#666666" points="975.5,-217 820.5,-217 820.5,-187 975.5,-187 975.5,-217"/>
<text text-anchor="start" x="828.5" y="-205" font-family="Helvetica,sans-Serif" font-size="10.00">TechMa/Entities/Intervention</text>
<text text-anchor="middle" x="898" y="-194" font-family="Helvetica,sans-Serif" font-size="10.00">Data.h</text>
</a>
</g>
</g>
<!-- Node5&#45;&gt;Node6 -->
<g id="edge5_Node000005_Node000006" class="edge">
<title>Node5&#45;&gt;Node6</title>
<g id="a_edge5_Node000005_Node000006"><a xlink:title=" ">
<path fill="none" stroke="#63b8ff" d="M867.31,-252.87C871.7,-245.74 878.13,-235.28 883.98,-225.79"/>
<polygon fill="#63b8ff" stroke="#63b8ff" points="887.05,-227.47 889.31,-217.11 881.09,-223.8 887.05,-227.47"/>
</a>
</g>
</g>
<!-- Node7 -->
<g id="Node000007" class="node">
<title>Node7</title>
<g id="a_Node000007"><a xlink:href="ATechnician_8h.html" target="_top" xlink:title="Defines the abstract base class ATechnician representing a technician entity.">
<polygon fill="white" stroke="#666666" points="682,-145.5 520,-145.5 520,-126.5 682,-126.5 682,-145.5"/>
<text text-anchor="middle" x="601" y="-133.5" font-family="Helvetica,sans-Serif" font-size="10.00">TechMa/Entities/ATechnician.h</text>
</a>
</g>
</g>
<!-- Node6&#45;&gt;Node7 -->
<g id="edge6_Node000006_Node000007" class="edge">
<title>Node6&#45;&gt;Node7</title>
<g id="a_edge6_Node000006_Node000007"><a xlink:title=" ">
<path fill="none" stroke="#63b8ff" d="M832.82,-186.95C777.87,-175.11 700.41,-158.42 650.44,-147.65"/>
<polygon fill="#63b8ff" stroke="#63b8ff" points="651.04,-144.2 640.53,-145.52 649.56,-151.05 651.04,-144.2"/>
</a>
</g>
</g>
<!-- Node8 -->
<g id="Node000008" class="node">
<title>Node8</title>
<g id="a_Node000008"><a xlink:title=" ">
<polygon fill="#e0e0e0" stroke="#999999" points="907,-19 863,-19 863,0 907,0 907,-19"/>
<text text-anchor="middle" x="885" y="-7" font-family="Helvetica,sans-Serif" font-size="10.00">string</text>
</a>
</g>
</g>
<!-- Node6&#45;&gt;Node8 -->
<g id="edge22_Node000006_Node000008" class="edge">
<title>Node6&#45;&gt;Node8</title>
<g id="a_edge22_Node000006_Node000008"><a xlink:title=" ">
<path fill="none" stroke="#63b8ff" d="M903.79,-186.95C913.84,-160.48 932.05,-101.71 917,-55 913.66,-44.62 906.9,-34.62 900.45,-26.74"/>
<polygon fill="#63b8ff" stroke="#63b8ff" points="902.97,-24.31 893.75,-19.1 897.71,-28.92 902.97,-24.31"/>
</a>
</g>
</g>
<!-- Node6&#45;&gt;Node10 -->
<g id="edge13_Node000006_Node000010" class="edge">
<title>Node6&#45;&gt;Node10</title>
<g id="a_edge13_Node000006_Node000010"><a xlink:title=" ">
<path fill="none" stroke="#63b8ff" d="M891.68,-186.88C882.9,-168.87 865.3,-138.03 841,-121 820.57,-106.68 759.67,-91.51 714.34,-81.69"/>
<polygon fill="#63b8ff" stroke="#63b8ff" points="714.85,-78.22 704.34,-79.55 713.39,-85.06 714.85,-78.22"/>
</a>
</g>
</g>
<!-- Node11 -->
<g id="Node000011" class="node">
<title>Node11</title>
<g id="a_Node000011"><a xlink:href="Location_8h.html" target="_top" xlink:title="Defines the GPSCoords and Location structures for representing geographical locations.">
<polygon fill="white" stroke="#666666" points="1110,-79.5 964,-79.5 964,-60.5 1110,-60.5 1110,-79.5"/>
<text text-anchor="middle" x="1037" y="-67.5" font-family="Helvetica,sans-Serif" font-size="10.00">TechMa/Entities/Location.h</text>
</a>
</g>
</g>
<!-- Node6&#45;&gt;Node11 -->
<g id="edge11_Node000006_Node000011" class="edge">
<title>Node6&#45;&gt;Node11</title>
<g id="a_edge11_Node000006_Node000011"><a xlink:title=" ">
<path fill="none" stroke="#63b8ff" d="M913.14,-186.84C939.28,-162.39 992.71,-112.42 1020.06,-86.85"/>
<polygon fill="#63b8ff" stroke="#63b8ff" points="1022.73,-89.14 1027.65,-79.75 1017.95,-84.02 1022.73,-89.14"/>
</a>
</g>
</g>
<!-- Node12 -->
<g id="Node000012" class="node">
<title>Node12</title>
<g id="a_Node000012"><a xlink:href="InterventionComplexity_8h.html" target="_top" xlink:title="Declares the InterventionComplexity enum class representing complexity levels of an intervention.">
<polygon fill="white" stroke="#666666" points="1148,-151 1002,-151 1002,-121 1148,-121 1148,-151"/>
<text text-anchor="start" x="1010" y="-139" font-family="Helvetica,sans-Serif" font-size="10.00">TechMa/Types/Intervention</text>
<text text-anchor="middle" x="1075" y="-128" font-family="Helvetica,sans-Serif" font-size="10.00">Complexity.h</text>
</a>
</g>
</g>
<!-- Node6&#45;&gt;Node12 -->
<g id="edge14_Node000006_Node000012" class="edge">
<title>Node6&#45;&gt;Node12</title>
<g id="a_edge14_Node000006_Node000012"><a xlink:title=" ">
<path fill="none" stroke="#63b8ff" d="M936.84,-186.95C963.24,-177.41 998.36,-164.71 1026.58,-154.51"/>
<polygon fill="#63b8ff" stroke="#63b8ff" points="1028.03,-157.7 1036.25,-151.01 1025.65,-151.12 1028.03,-157.7"/>
</a>
</g>
</g>
<!-- Node13 -->
<g id="Node000013" class="node">
<title>Node13</title>
<g id="a_Node000013"><a xlink:href="InterventionStatus_8h.html" target="_top" xlink:title="Declares the InterventionStatus enum and its string conversion function.">
<polygon fill="white" stroke="#666666" points="1295,-85 1149,-85 1149,-55 1295,-55 1295,-85"/>
<text text-anchor="start" x="1157" y="-73" font-family="Helvetica,sans-Serif" font-size="10.00">TechMa/Types/Intervention</text>
<text text-anchor="middle" x="1222" y="-62" font-family="Helvetica,sans-Serif" font-size="10.00">Status.h</text>
</a>
</g>
</g>
<!-- Node6&#45;&gt;Node13 -->
<g id="edge15_Node000006_Node000013" class="edge">
<title>Node6&#45;&gt;Node13</title>
<g id="a_edge15_Node000006_Node000013"><a xlink:title=" ">
<path fill="none" stroke="#63b8ff" d="M975.83,-200.32C1062.18,-197.73 1193.52,-187.65 1225,-151 1238.09,-135.75 1235.44,-112.2 1230.65,-94.59"/>
<polygon fill="#63b8ff" stroke="#63b8ff" points="1233.98,-93.54 1227.68,-85.02 1227.3,-95.61 1233.98,-93.54"/>
</a>
</g>
</g>
<!-- Node14 -->
<g id="Node000014" class="node">
<title>Node14</title>
<g id="a_Node000014"><a xlink:href="InterventionType_8h.html" target="_top" xlink:title="Declares the InterventionType enum class and a string conversion utility.">
<polygon fill="white" stroke="#666666" points="908,-85 762,-85 762,-55 908,-55 908,-85"/>
<text text-anchor="start" x="770" y="-73" font-family="Helvetica,sans-Serif" font-size="10.00">TechMa/Types/Intervention</text>
<text text-anchor="middle" x="835" y="-62" font-family="Helvetica,sans-Serif" font-size="10.00">Type.h</text>
</a>
</g>
</g>
<!-- Node6&#45;&gt;Node14 -->
<g id="edge17_Node000006_Node000014" class="edge">
<title>Node6&#45;&gt;Node14</title>
<g id="a_edge17_Node000006_Node000014"><a xlink:title=" ">
<path fill="none" stroke="#63b8ff" d="M895.41,-186.81C892.02,-170.33 885.18,-142.64 874,-121 868.92,-111.17 861.82,-101.35 855.07,-93.05"/>
<polygon fill="#63b8ff" stroke="#63b8ff" points="857.65,-90.69 848.52,-85.31 852.3,-95.21 857.65,-90.69"/>
</a>
</g>
</g>
<!-- Node15 -->
<g id="Node000015" class="node">
<title>Node15</title>
<g id="a_Node000015"><a xlink:title=" ">
<polygon fill="#e0e0e0" stroke="#999999" points="1216,-145.5 1166,-145.5 1166,-126.5 1216,-126.5 1216,-145.5"/>
<text text-anchor="middle" x="1191" y="-133.5" font-family="Helvetica,sans-Serif" font-size="10.00">chrono</text>
</a>
</g>
</g>
<!-- Node6&#45;&gt;Node15 -->
<g id="edge19_Node000006_Node000015" class="edge">
<title>Node6&#45;&gt;Node15</title>
<g id="a_edge19_Node000006_Node000015"><a xlink:title=" ">
<path fill="none" stroke="#63b8ff" d="M975.76,-190.15C1027.71,-181.89 1097.22,-168.88 1157,-151 1158.88,-150.44 1160.8,-149.81 1162.72,-149.14"/>
<polygon fill="#63b8ff" stroke="#63b8ff" points="1164.08,-152.36 1172.18,-145.53 1161.59,-145.82 1164.08,-152.36"/>
</a>
</g>
</g>
<!-- Node6&#45;&gt;Node16 -->
<g id="edge20_Node000006_Node000016" class="edge">
<title>Node6&#45;&gt;Node16</title>
<g id="a_edge20_Node000006_Node000016"><a xlink:title=" ">
<path fill="none" stroke="#63b8ff" d="M860.91,-186.95C831.01,-175.63 789.4,-159.88 760.96,-149.1"/>
<polygon fill="#63b8ff" stroke="#63b8ff" points="762.08,-145.79 751.49,-145.52 759.6,-152.33 762.08,-145.79"/>
</a>
</g>
</g>
<!-- Node6&#45;&gt;Node17 -->
<g id="edge21_Node000006_Node000017" class="edge">
<title>Node6&#45;&gt;Node17</title>
<g id="a_edge21_Node000006_Node000017"><a xlink:title=" ">
<path fill="none" stroke="#63b8ff" d="M877.14,-186.8C861.68,-176.27 840.68,-161.97 825.15,-151.4"/>
<polygon fill="#63b8ff" stroke="#63b8ff" points="826.95,-148.39 816.72,-145.66 823.01,-154.18 826.95,-148.39"/>
</a>
</g>
</g>
<!-- Node7&#45;&gt;Node8 -->
<g id="edge7_Node000007_Node000008" class="edge">
<title>Node7&#45;&gt;Node8</title>
<g id="a_edge7_Node000007_Node000008"><a xlink:title=" ">
<path fill="none" stroke="#63b8ff" d="M592.41,-126.3C577.78,-110.44 551.34,-76.48 570,-55 606.35,-13.16 779.31,-9.57 852.34,-9.97"/>
<polygon fill="#63b8ff" stroke="#63b8ff" points="852.73,-13.48 862.76,-10.06 852.79,-6.48 852.73,-13.48"/>
</a>
</g>
</g>
<!-- Node7&#45;&gt;Node9 -->
<g id="edge8_Node000007_Node000009" class="edge">
<title>Node7&#45;&gt;Node9</title>
<g id="a_edge8_Node000007_Node000009"><a xlink:title=" ">
<path fill="none" stroke="#63b8ff" d="M562.32,-126.44C505.37,-113.82 399.85,-90.46 345.81,-78.49"/>
<polygon fill="#63b8ff" stroke="#63b8ff" points="346.24,-75 335.72,-76.25 344.73,-81.83 346.24,-75"/>
</a>
</g>
</g>
<!-- Node7&#45;&gt;Node10 -->
<g id="edge9_Node000007_Node000010" class="edge">
<title>Node7&#45;&gt;Node10</title>
<g id="a_edge9_Node000007_Node000010"><a xlink:title=" ">
<path fill="none" stroke="#63b8ff" d="M609.09,-126.37C618.43,-116.4 634.01,-99.79 645.66,-87.36"/>
<polygon fill="#63b8ff" stroke="#63b8ff" points="648.37,-89.59 652.65,-79.91 643.26,-84.81 648.37,-89.59"/>
</a>
</g>
</g>
<!-- Node10&#45;&gt;Node8 -->
<g id="edge10_Node000010_Node000008" class="edge">
<title>Node10&#45;&gt;Node8</title>
<g id="a_edge10_Node000010_Node000008"><a xlink:title=" ">
<path fill="none" stroke="#63b8ff" d="M693.57,-60.49C736.28,-49.34 810.74,-29.89 853.11,-18.83"/>
<polygon fill="#63b8ff" stroke="#63b8ff" points="854.11,-22.19 862.9,-16.27 852.34,-15.41 854.11,-22.19"/>
</a>
</g>
</g>
<!-- Node11&#45;&gt;Node8 -->
<g id="edge12_Node000011_Node000008" class="edge">
<title>Node11&#45;&gt;Node8</title>
<g id="a_edge12_Node000011_Node000008"><a xlink:title=" ">
<path fill="none" stroke="#63b8ff" d="M1014.9,-60.49C989.01,-50.53 945.92,-33.95 916.53,-22.63"/>
<polygon fill="#63b8ff" stroke="#63b8ff" points="917.72,-19.34 907.13,-19.02 915.2,-25.88 917.72,-19.34"/>
</a>
</g>
</g>
<!-- Node13&#45;&gt;Node8 -->
<g id="edge16_Node000013_Node000008" class="edge">
<title>Node13&#45;&gt;Node8</title>
<g id="a_edge16_Node000013_Node000008"><a xlink:title=" ">
<path fill="none" stroke="#63b8ff" d="M1148.88,-56.31C1076.98,-43.83 970.53,-25.35 917.5,-16.14"/>
<polygon fill="#63b8ff" stroke="#63b8ff" points="917.78,-12.64 907.33,-14.38 916.58,-19.53 917.78,-12.64"/>
</a>
</g>
</g>
<!-- Node14&#45;&gt;Node8 -->
<g id="edge18_Node000014_Node000008" class="edge">
<title>Node14&#45;&gt;Node8</title>
<g id="a_edge18_Node000014_Node000008"><a xlink:title=" ">
<path fill="none" stroke="#63b8ff" d="M847.1,-54.84C854.29,-46.43 863.43,-35.74 870.93,-26.96"/>
<polygon fill="#63b8ff" stroke="#63b8ff" points="873.67,-29.14 877.51,-19.27 868.35,-24.59 873.67,-29.14"/>
</a>
</g>
</g>
<!-- Node20&#45;&gt;Node7 -->
<g id="edge29_Node000020_Node000007" class="edge">
<title>Node20&#45;&gt;Node7</title>
<g id="a_edge29_Node000020_Node000007"><a xlink:title=" ">
<path fill="none" stroke="#63b8ff" d="M460.5,-186.95C492.49,-175.58 537.05,-159.74 567.35,-148.96"/>
<polygon fill="#63b8ff" stroke="#63b8ff" points="568.8,-152.17 577.05,-145.52 566.45,-145.57 568.8,-152.17"/>
</a>
</g>
</g>
<!-- Node20&#45;&gt;Node9 -->
<g id="edge34_Node000020_Node000009" class="edge">
<title>Node20&#45;&gt;Node9</title>
<g id="a_edge34_Node000020_Node000009"><a xlink:title=" ">
<path fill="none" stroke="#63b8ff" d="M381,-186.95C363.58,-178.94 344.37,-167.2 332,-151 318.39,-133.17 313.95,-107.2 312.55,-89.73"/>
<polygon fill="#63b8ff" stroke="#63b8ff" points="316.04,-89.45 312,-79.65 309.05,-89.82 316.04,-89.45"/>
</a>
</g>
</g>
<!-- Node20&#45;&gt;Node16 -->
<g id="edge31_Node000020_Node000016" class="edge">
<title>Node20&#45;&gt;Node16</title>
<g id="a_edge31_Node000020_Node000016"><a xlink:title=" ">
<path fill="none" stroke="#63b8ff" d="M502.82,-187.42C568.88,-176.16 656.35,-160.52 691,-151 693.29,-150.37 695.63,-149.67 697.98,-148.91"/>
<polygon fill="#63b8ff" stroke="#63b8ff" points="699.18,-152.2 707.5,-145.64 696.91,-145.58 699.18,-152.2"/>
</a>
</g>
</g>
<!-- Node20&#45;&gt;Node17 -->
<g id="edge32_Node000020_Node000017" class="edge">
<title>Node20&#45;&gt;Node17</title>
<g id="a_edge32_Node000020_Node000017"><a xlink:title=" ">
<path fill="none" stroke="#63b8ff" d="M502.74,-194.26C573.48,-187.23 678.11,-173.94 767,-151 769.44,-150.37 771.95,-149.63 774.45,-148.83"/>
<polygon fill="#63b8ff" stroke="#63b8ff" points="775.62,-152.13 783.9,-145.51 773.31,-145.52 775.62,-152.13"/>
</a>
</g>
</g>
<!-- Node20&#45;&gt;Node19 -->
<g id="edge33_Node000020_Node000019" class="edge">
<title>Node20&#45;&gt;Node19</title>
<g id="a_edge33_Node000020_Node000019"><a xlink:title=" ">
<path fill="none" stroke="#63b8ff" d="M380.62,-186.95C347.78,-175.53 301.97,-159.6 270.99,-148.82"/>
<polygon fill="#63b8ff" stroke="#63b8ff" points="272.08,-145.5 261.49,-145.52 269.78,-152.11 272.08,-145.5"/>
</a>
</g>
</g>
<!-- Node21 -->
<g id="Node000021" class="node">
<title>Node21</title>
<g id="a_Node000021"><a xlink:href="ATechnicianObserver_8h.html" target="_top" xlink:title="Declares the ATechnicianObserver interface used for observing technician&#45;related changes.">
<polygon fill="white" stroke="#666666" points="501.5,-151 340.5,-151 340.5,-121 501.5,-121 501.5,-151"/>
<text text-anchor="start" x="348.5" y="-139" font-family="Helvetica,sans-Serif" font-size="10.00">TechMa/Observer/ATechnician</text>
<text text-anchor="middle" x="421" y="-128" font-family="Helvetica,sans-Serif" font-size="10.00">Observer.h</text>
</a>
</g>
</g>
<!-- Node20&#45;&gt;Node21 -->
<g id="edge30_Node000020_Node000021" class="edge">
<title>Node20&#45;&gt;Node21</title>
<g id="a_edge30_Node000020_Node000021"><a xlink:title=" ">
<path fill="none" stroke="#63b8ff" d="M421,-186.8C421,-179.34 421,-169.99 421,-161.41"/>
<polygon fill="#63b8ff" stroke="#63b8ff" points="424.5,-161.16 421,-151.16 417.5,-161.16 424.5,-161.16"/>
</a>
</g>
</g>
</g>
</svg>
