<?xml version="1.0" encoding="UTF-8" standalone="no"?>
<!DOCTYPE svg PUBLIC "-//W3C//DTD SVG 1.1//EN"
 "http://www.w3.org/Graphics/SVG/1.1/DTD/svg11.dtd">
<!-- Generated by graphviz version 2.43.0 (0)
 -->
<!-- Title: include/TechMa/Types/InterventionComplexity.h Pages: 1 -->
<svg width="1489pt" height="379pt"
 viewBox="0.00 0.00 1488.50 379.00" xmlns="http://www.w3.org/2000/svg" xmlns:xlink="http://www.w3.org/1999/xlink">
<g id="graph0" class="graph" transform="scale(1 1) rotate(0) translate(4 375)">
<title>include/TechMa/Types/InterventionComplexity.h</title>
<!-- Node1 -->
<g id="Node000001" class="node">
<title>Node1</title>
<g id="a_Node000001"><a xlink:title="Declares the InterventionComplexity enum class representing complexity levels of an intervention.">
<polygon fill="#999999" stroke="#666666" points="837.5,-371 694.5,-371 694.5,-341 837.5,-341 837.5,-371"/>
<text text-anchor="start" x="702.5" y="-359" font-family="Helvetica,sans-Serif" font-size="10.00">include/TechMa/Types</text>
<text text-anchor="middle" x="766" y="-348" font-family="Helvetica,sans-Serif" font-size="10.00">/InterventionComplexity.h</text>
</a>
</g>
</g>
<!-- Node2 -->
<g id="Node000002" class="node">
<title>Node2</title>
<g id="a_Node000002"><a xlink:href="InterventionData_8h.html" target="_top" xlink:title="Defines the InterventionData structure which holds all information related to an intervention.">
<polygon fill="white" stroke="#666666" points="651.5,-305 520.5,-305 520.5,-275 651.5,-275 651.5,-305"/>
<text text-anchor="start" x="528.5" y="-293" font-family="Helvetica,sans-Serif" font-size="10.00">include/TechMa/Entities</text>
<text text-anchor="middle" x="586" y="-282" font-family="Helvetica,sans-Serif" font-size="10.00">/InterventionData.h</text>
</a>
</g>
</g>
<!-- Node1&#45;&gt;Node2 -->
<g id="edge1_Node000001_Node000002" class="edge">
<title>Node1&#45;&gt;Node2</title>
<g id="a_edge1_Node000001_Node000002"><a xlink:title=" ">
<path fill="none" stroke="#63b8ff" d="M717.03,-337.59C688.26,-327.36 652.35,-314.59 625.41,-305.01"/>
<polygon fill="#63b8ff" stroke="#63b8ff" points="715.9,-340.9 726.5,-340.95 718.25,-334.31 715.9,-340.9"/>
</a>
</g>
</g>
<!-- Node17 -->
<g id="Node000017" class="node">
<title>Node17</title>
<g id="a_Node000017"><a xlink:href="CreateInterventionDialog_8cpp.html" target="_top" xlink:title="Implements the CreateInterventionDialog class for creating new interventions through a Qt dialog UI.">
<polygon fill="white" stroke="#666666" points="1480.5,-162 1339.5,-162 1339.5,-132 1480.5,-132 1480.5,-162"/>
<text text-anchor="start" x="1347.5" y="-150" font-family="Helvetica,sans-Serif" font-size="10.00">src/Views/Widgets/Create</text>
<text text-anchor="middle" x="1410" y="-139" font-family="Helvetica,sans-Serif" font-size="10.00">InterventionDialog.cpp</text>
</a>
</g>
</g>
<!-- Node1&#45;&gt;Node17 -->
<g id="edge28_Node000001_Node000017" class="edge">
<title>Node1&#45;&gt;Node17</title>
<g id="a_edge28_Node000001_Node000017"><a xlink:title=" ">
<path fill="none" stroke="#63b8ff" d="M824.34,-338.15C899.64,-316.21 1034.57,-276.26 1149,-239 1228.4,-213.15 1320.44,-180.4 1371.26,-162.07"/>
<polygon fill="#63b8ff" stroke="#63b8ff" points="823.19,-334.84 814.57,-340.99 825.15,-341.56 823.19,-334.84"/>
</a>
</g>
</g>
<!-- Node19 -->
<g id="Node000019" class="node">
<title>Node19</title>
<g id="a_Node000019"><a xlink:href="InterventionEditPanel_8cpp.html" target="_top" xlink:title="Implements the InterventionEditPanel class, a QWidget for editing intervention data.">
<polygon fill="white" stroke="#666666" points="168,-162 0,-162 0,-132 168,-132 168,-162"/>
<text text-anchor="start" x="8" y="-150" font-family="Helvetica,sans-Serif" font-size="10.00">src/Views/Widgets/Intervention</text>
<text text-anchor="middle" x="84" y="-139" font-family="Helvetica,sans-Serif" font-size="10.00">EditPanel.cpp</text>
</a>
</g>
</g>
<!-- Node1&#45;&gt;Node19 -->
<g id="edge29_Node000001_Node000019" class="edge">
<title>Node1&#45;&gt;Node19</title>
<g id="a_edge29_Node000001_Node000019"><a xlink:title=" ">
<path fill="none" stroke="#63b8ff" d="M684.28,-351.84C525.73,-343.99 184.75,-318.12 103,-239 82.24,-218.91 81.22,-182.42 82.49,-162.29"/>
<polygon fill="#63b8ff" stroke="#63b8ff" points="684.3,-355.35 694.46,-352.33 684.64,-348.36 684.3,-355.35"/>
</a>
</g>
</g>
<!-- Node20 -->
<g id="Node000020" class="node">
<title>Node20</title>
<g id="a_Node000020"><a xlink:href="TechListController_8cpp.html" target="_top" xlink:title="Implements the TechListController class, which manages technician&#45;related combo boxes and observes re...">
<polygon fill="white" stroke="#666666" points="1322,-305 1196,-305 1196,-275 1322,-275 1322,-305"/>
<text text-anchor="start" x="1204" y="-293" font-family="Helvetica,sans-Serif" font-size="10.00">src/Views/Controllers</text>
<text text-anchor="middle" x="1259" y="-282" font-family="Helvetica,sans-Serif" font-size="10.00">/TechListController.cpp</text>
</a>
</g>
</g>
<!-- Node1&#45;&gt;Node20 -->
<g id="edge27_Node000001_Node000020" class="edge">
<title>Node1&#45;&gt;Node20</title>
<g id="a_edge27_Node000001_Node000020"><a xlink:title=" ">
<path fill="none" stroke="#63b8ff" d="M847.57,-346.66C931.59,-337.73 1066.23,-322.47 1182,-305 1186.43,-304.33 1191,-303.6 1195.6,-302.84"/>
<polygon fill="#63b8ff" stroke="#63b8ff" points="847.16,-343.19 837.58,-347.72 847.89,-350.15 847.16,-343.19"/>
</a>
</g>
</g>
<!-- Node3 -->
<g id="Node000003" class="node">
<title>Node3</title>
<g id="a_Node000003"><a xlink:href="AIntervention_8h.html" target="_top" xlink:title="Defines the abstract base class AIntervention for representing interventions.">
<polygon fill="white" stroke="#666666" points="712.5,-233.5 581.5,-233.5 581.5,-203.5 712.5,-203.5 712.5,-233.5"/>
<text text-anchor="start" x="589.5" y="-221.5" font-family="Helvetica,sans-Serif" font-size="10.00">include/TechMa/Entities</text>
<text text-anchor="middle" x="647" y="-210.5" font-family="Helvetica,sans-Serif" font-size="10.00">/AIntervention.h</text>
</a>
</g>
</g>
<!-- Node2&#45;&gt;Node3 -->
<g id="edge2_Node000002_Node000003" class="edge">
<title>Node2&#45;&gt;Node3</title>
<g id="a_edge2_Node000002_Node000003"><a xlink:title=" ">
<path fill="none" stroke="#63b8ff" d="M605,-267.35C614.68,-256.33 626.16,-243.24 634.67,-233.54"/>
<polygon fill="#63b8ff" stroke="#63b8ff" points="602.31,-265.11 598.34,-274.94 607.57,-269.73 602.31,-265.11"/>
</a>
</g>
</g>
<!-- Node7 -->
<g id="Node000007" class="node">
<title>Node7</title>
<g id="a_Node000007"><a xlink:href="InterventionCreatorFacade_8h.html" target="_top" xlink:title="Declares the InterventionCreatorFacade class, which provides a simplified interface for creating inte...">
<polygon fill="white" stroke="#666666" points="427,-162 269,-162 269,-132 427,-132 427,-162"/>
<text text-anchor="start" x="277" y="-150" font-family="Helvetica,sans-Serif" font-size="10.00">include/TechMa/Facade</text>
<text text-anchor="middle" x="348" y="-139" font-family="Helvetica,sans-Serif" font-size="10.00">/InterventionCreatorFacade.h</text>
</a>
</g>
</g>
<!-- Node2&#45;&gt;Node7 -->
<g id="edge19_Node000002_Node000007" class="edge">
<title>Node2&#45;&gt;Node7</title>
<g id="a_edge19_Node000002_Node000007"><a xlink:title=" ">
<path fill="none" stroke="#63b8ff" d="M553.48,-269.73C505,-241.01 414.88,-187.62 371.95,-162.19"/>
<polygon fill="#63b8ff" stroke="#63b8ff" points="551.92,-272.88 562.31,-274.96 555.49,-266.86 551.92,-272.88"/>
</a>
</g>
</g>
<!-- Node10 -->
<g id="Node000010" class="node">
<title>Node10</title>
<g id="a_Node000010"><a xlink:href="InterventionFactory_8h.html" target="_top" xlink:title="Declares the InterventionFactory class responsible for creating intervention instances.">
<polygon fill="white" stroke="#666666" points="577,-162 447,-162 447,-132 577,-132 577,-162"/>
<text text-anchor="start" x="455" y="-150" font-family="Helvetica,sans-Serif" font-size="10.00">include/TechMa/Factory</text>
<text text-anchor="middle" x="512" y="-139" font-family="Helvetica,sans-Serif" font-size="10.00">/InterventionFactory.h</text>
</a>
</g>
</g>
<!-- Node2&#45;&gt;Node10 -->
<g id="edge20_Node000002_Node000010" class="edge">
<title>Node2&#45;&gt;Node10</title>
<g id="a_edge20_Node000002_Node000010"><a xlink:title=" ">
<path fill="none" stroke="#63b8ff" d="M573.86,-265.86C558.46,-236.52 532.37,-186.81 519.56,-162.4"/>
<polygon fill="#63b8ff" stroke="#63b8ff" points="570.89,-267.74 578.63,-274.96 577.09,-264.48 570.89,-267.74"/>
</a>
</g>
</g>
<!-- Node16 -->
<g id="Node000016" class="node">
<title>Node16</title>
<g id="a_Node000016"><a xlink:href="CreateInterventionDialog_8h.html" target="_top" xlink:title="Declares the CreateInterventionDialog class, a QDialog used to create new interventions.">
<polygon fill="white" stroke="#666666" points="1140,-239 986,-239 986,-198 1140,-198 1140,-239"/>
<text text-anchor="start" x="994" y="-227" font-family="Helvetica,sans-Serif" font-size="10.00">include/TechMa/Views</text>
<text text-anchor="start" x="994" y="-216" font-family="Helvetica,sans-Serif" font-size="10.00">/Widgets/CreateIntervention</text>
<text text-anchor="middle" x="1063" y="-205" font-family="Helvetica,sans-Serif" font-size="10.00">Dialog.h</text>
</a>
</g>
</g>
<!-- Node2&#45;&gt;Node16 -->
<g id="edge21_Node000002_Node000016" class="edge">
<title>Node2&#45;&gt;Node16</title>
<g id="a_edge21_Node000002_Node000016"><a xlink:title=" ">
<path fill="none" stroke="#63b8ff" d="M661.81,-277.95C750.43,-265.04 896.32,-243.79 985.61,-230.78"/>
<polygon fill="#63b8ff" stroke="#63b8ff" points="661.21,-274.5 651.82,-279.41 662.22,-281.43 661.21,-274.5"/>
</a>
</g>
</g>
<!-- Node18 -->
<g id="Node000018" class="node">
<title>Node18</title>
<g id="a_Node000018"><a xlink:href="InterventionEditPanel_8h.html" target="_top" xlink:title="Declares the InterventionEditPanel class, a QWidget for editing existing intervention data.">
<polygon fill="white" stroke="#666666" points="288,-233.5 112,-233.5 112,-203.5 288,-203.5 288,-233.5"/>
<text text-anchor="start" x="120" y="-221.5" font-family="Helvetica,sans-Serif" font-size="10.00">include/TechMa/Views</text>
<text text-anchor="middle" x="200" y="-210.5" font-family="Helvetica,sans-Serif" font-size="10.00">/Widgets/InterventionEditPanel.h</text>
</a>
</g>
</g>
<!-- Node2&#45;&gt;Node18 -->
<g id="edge24_Node000002_Node000018" class="edge">
<title>Node2&#45;&gt;Node18</title>
<g id="a_edge24_Node000002_Node000018"><a xlink:title=" ">
<path fill="none" stroke="#63b8ff" d="M510,-275.32C442.94,-263.24 345.6,-245.72 277.95,-233.54"/>
<polygon fill="#63b8ff" stroke="#63b8ff" points="509.62,-278.8 520.08,-277.13 510.86,-271.91 509.62,-278.8"/>
</a>
</g>
</g>
<!-- Node4 -->
<g id="Node000004" class="node">
<title>Node4</title>
<g id="a_Node000004"><a xlink:href="ConcreteIntervention_8h.html" target="_top" xlink:title="Declares the ConcreteIntervention class, a concrete implementation of AIntervention.">
<polygon fill="white" stroke="#666666" points="726.5,-162 595.5,-162 595.5,-132 726.5,-132 726.5,-162"/>
<text text-anchor="start" x="603.5" y="-150" font-family="Helvetica,sans-Serif" font-size="10.00">include/TechMa/Entities</text>
<text text-anchor="middle" x="661" y="-139" font-family="Helvetica,sans-Serif" font-size="10.00">/ConcreteIntervention.h</text>
</a>
</g>
</g>
<!-- Node3&#45;&gt;Node4 -->
<g id="edge3_Node000003_Node000004" class="edge">
<title>Node3&#45;&gt;Node4</title>
<g id="a_edge3_Node000003_Node000004"><a xlink:title=" ">
<path fill="none" stroke="#63b8ff" d="M651.82,-193.58C653.94,-183.06 656.35,-171.08 658.17,-162.04"/>
<polygon fill="#63b8ff" stroke="#63b8ff" points="648.38,-192.94 649.83,-203.44 655.24,-194.32 648.38,-192.94"/>
</a>
</g>
</g>
<!-- Node3&#45;&gt;Node7 -->
<g id="edge6_Node000003_Node000007" class="edge">
<title>Node3&#45;&gt;Node7</title>
<g id="a_edge6_Node000003_Node000007"><a xlink:title=" ">
<path fill="none" stroke="#63b8ff" d="M576.51,-201.12C525.41,-189.24 457.03,-173.34 408.42,-162.04"/>
<polygon fill="#63b8ff" stroke="#63b8ff" points="575.96,-204.58 586.49,-203.44 577.55,-197.76 575.96,-204.58"/>
</a>
</g>
</g>
<!-- Node3&#45;&gt;Node10 -->
<g id="edge9_Node000003_Node000010" class="edge">
<title>Node3&#45;&gt;Node10</title>
<g id="a_edge9_Node000003_Node000010"><a xlink:title=" ">
<path fill="none" stroke="#63b8ff" d="M610.76,-198.84C588.28,-187.27 559.85,-172.64 539.28,-162.04"/>
<polygon fill="#63b8ff" stroke="#63b8ff" points="609.19,-201.97 619.68,-203.44 612.39,-195.75 609.19,-201.97"/>
</a>
</g>
</g>
<!-- Node11 -->
<g id="Node000011" class="node">
<title>Node11</title>
<g id="a_Node000011"><a xlink:href="InterventionRepository_8h.html" target="_top" xlink:title="Declares the InterventionRepository class, which manages storage and access to interventions.">
<polygon fill="white" stroke="#666666" points="981.5,-162 834.5,-162 834.5,-132 981.5,-132 981.5,-162"/>
<text text-anchor="start" x="842.5" y="-150" font-family="Helvetica,sans-Serif" font-size="10.00">include/TechMa/Repository</text>
<text text-anchor="middle" x="908" y="-139" font-family="Helvetica,sans-Serif" font-size="10.00">/InterventionRepository.h</text>
</a>
</g>
</g>
<!-- Node3&#45;&gt;Node11 -->
<g id="edge12_Node000003_Node000011" class="edge">
<title>Node3&#45;&gt;Node11</title>
<g id="a_edge12_Node000003_Node000011"><a xlink:title=" ">
<path fill="none" stroke="#63b8ff" d="M709.65,-200.82C754.13,-188.97 813.18,-173.25 855.26,-162.04"/>
<polygon fill="#63b8ff" stroke="#63b8ff" points="708.58,-197.48 699.82,-203.44 710.38,-204.24 708.58,-197.48"/>
</a>
</g>
</g>
<!-- Node12 -->
<g id="Node000012" class="node">
<title>Node12</title>
<g id="a_Node000012"><a xlink:href="InterventionRepositoryProxy_8h.html" target="_top" xlink:title="Declares the InterventionRepositoryProxy class, a proxy to the actual intervention repository.">
<polygon fill="white" stroke="#666666" points="1283.5,-96 1116.5,-96 1116.5,-66 1283.5,-66 1283.5,-96"/>
<text text-anchor="start" x="1124.5" y="-84" font-family="Helvetica,sans-Serif" font-size="10.00">include/TechMa/Repository</text>
<text text-anchor="middle" x="1200" y="-73" font-family="Helvetica,sans-Serif" font-size="10.00">/InterventionRepositoryProxy.h</text>
</a>
</g>
</g>
<!-- Node3&#45;&gt;Node12 -->
<g id="edge18_Node000003_Node000012" class="edge">
<title>Node3&#45;&gt;Node12</title>
<g id="a_edge18_Node000003_Node000012"><a xlink:title=" ">
<path fill="none" stroke="#63b8ff" d="M722.61,-209.83C792.95,-201.63 900.24,-186.41 991,-162 1056.09,-144.49 1128.95,-113.97 1169.15,-96.11"/>
<polygon fill="#63b8ff" stroke="#63b8ff" points="722.05,-206.37 712.51,-210.99 722.84,-213.33 722.05,-206.37"/>
</a>
</g>
</g>
<!-- Node5 -->
<g id="Node000005" class="node">
<title>Node5</title>
<g id="a_Node000005"><a xlink:href="InterventionFactory_8cpp.html" target="_top" xlink:title="Implements the InterventionFactory class.">
<polygon fill="white" stroke="#666666" points="577.5,-96 446.5,-96 446.5,-66 577.5,-66 577.5,-96"/>
<text text-anchor="start" x="454.5" y="-84" font-family="Helvetica,sans-Serif" font-size="10.00">src/Factory/Intervention</text>
<text text-anchor="middle" x="512" y="-73" font-family="Helvetica,sans-Serif" font-size="10.00">Factory.cpp</text>
</a>
</g>
</g>
<!-- Node4&#45;&gt;Node5 -->
<g id="edge4_Node000004_Node000005" class="edge">
<title>Node4&#45;&gt;Node5</title>
<g id="a_edge4_Node000004_Node000005"><a xlink:title=" ">
<path fill="none" stroke="#63b8ff" d="M618.91,-127.92C595.36,-117.8 566.44,-105.38 544.62,-96.01"/>
<polygon fill="#63b8ff" stroke="#63b8ff" points="617.73,-131.22 628.3,-131.95 620.49,-124.79 617.73,-131.22"/>
</a>
</g>
</g>
<!-- Node6 -->
<g id="Node000006" class="node">
<title>Node6</title>
<g id="a_Node000006"><a xlink:href="ConcreteIntervention_8cpp.html" target="_top" xlink:title="Implements the ConcreteIntervention class.">
<polygon fill="white" stroke="#666666" points="740.5,-96 595.5,-96 595.5,-66 740.5,-66 740.5,-96"/>
<text text-anchor="start" x="603.5" y="-84" font-family="Helvetica,sans-Serif" font-size="10.00">src/Interventions/Concrete</text>
<text text-anchor="middle" x="668" y="-73" font-family="Helvetica,sans-Serif" font-size="10.00">Intervention.cpp</text>
</a>
</g>
</g>
<!-- Node4&#45;&gt;Node6 -->
<g id="edge5_Node000004_Node000006" class="edge">
<title>Node4&#45;&gt;Node6</title>
<g id="a_edge5_Node000004_Node000006"><a xlink:title=" ">
<path fill="none" stroke="#63b8ff" d="M663.64,-121.83C664.59,-113.17 665.63,-103.7 666.45,-96.16"/>
<polygon fill="#63b8ff" stroke="#63b8ff" points="660.16,-121.48 662.55,-131.8 667.12,-122.24 660.16,-121.48"/>
</a>
</g>
</g>
<!-- Node8 -->
<g id="Node000008" class="node">
<title>Node8</title>
<g id="a_Node000008"><a xlink:href="InterventionCreatorFacade_8cpp.html" target="_top" xlink:title="Implements the InterventionCreatorFacade class.">
<polygon fill="white" stroke="#666666" points="428,-96 262,-96 262,-66 428,-66 428,-96"/>
<text text-anchor="start" x="270" y="-84" font-family="Helvetica,sans-Serif" font-size="10.00">src/Facade/InterventionCreator</text>
<text text-anchor="middle" x="345" y="-73" font-family="Helvetica,sans-Serif" font-size="10.00">Facade.cpp</text>
</a>
</g>
</g>
<!-- Node7&#45;&gt;Node8 -->
<g id="edge7_Node000007_Node000008" class="edge">
<title>Node7&#45;&gt;Node8</title>
<g id="a_edge7_Node000007_Node000008"><a xlink:title=" ">
<path fill="none" stroke="#63b8ff" d="M346.85,-121.54C346.45,-112.96 346.01,-103.61 345.66,-96.16"/>
<polygon fill="#63b8ff" stroke="#63b8ff" points="343.37,-121.97 347.33,-131.8 350.36,-121.64 343.37,-121.97"/>
</a>
</g>
</g>
<!-- Node9 -->
<g id="Node000009" class="node">
<title>Node9</title>
<g id="a_Node000009"><a xlink:href="InterventionPage_8cpp.html" target="_top" xlink:title="Implements the InterventionPage class, a QWidget handling intervention&#45;related UI and interactions.">
<polygon fill="white" stroke="#666666" points="710.5,-30 553.5,-30 553.5,0 710.5,0 710.5,-30"/>
<text text-anchor="start" x="561.5" y="-18" font-family="Helvetica,sans-Serif" font-size="10.00">src/Views/Pages/Intervention</text>
<text text-anchor="middle" x="632" y="-7" font-family="Helvetica,sans-Serif" font-size="10.00">Page.cpp</text>
</a>
</g>
</g>
<!-- Node7&#45;&gt;Node9 -->
<g id="edge8_Node000007_Node000009" class="edge">
<title>Node7&#45;&gt;Node9</title>
<g id="a_edge8_Node000007_Node000009"><a xlink:title=" ">
<path fill="none" stroke="#63b8ff" d="M299.74,-127.85C266.61,-112.72 232.08,-89.86 253,-66 272.47,-43.79 448.1,-28.29 553.31,-20.91"/>
<polygon fill="#63b8ff" stroke="#63b8ff" points="298.44,-131.1 309.01,-131.91 301.25,-124.69 298.44,-131.1"/>
</a>
</g>
</g>
<!-- Node10&#45;&gt;Node5 -->
<g id="edge11_Node000010_Node000005" class="edge">
<title>Node10&#45;&gt;Node5</title>
<g id="a_edge11_Node000010_Node000005"><a xlink:title=" ">
<path fill="none" stroke="#63b8ff" d="M512,-121.54C512,-112.96 512,-103.61 512,-96.16"/>
<polygon fill="#63b8ff" stroke="#63b8ff" points="508.5,-121.8 512,-131.8 515.5,-121.8 508.5,-121.8"/>
</a>
</g>
</g>
<!-- Node10&#45;&gt;Node8 -->
<g id="edge10_Node000010_Node000008" class="edge">
<title>Node10&#45;&gt;Node8</title>
<g id="a_edge10_Node000010_Node000008"><a xlink:title=" ">
<path fill="none" stroke="#63b8ff" d="M465.87,-128.32C439.29,-118.14 406.34,-105.51 381.56,-96.01"/>
<polygon fill="#63b8ff" stroke="#63b8ff" points="464.76,-131.64 475.35,-131.95 467.27,-125.11 464.76,-131.64"/>
</a>
</g>
</g>
<!-- Node11&#45;&gt;Node12 -->
<g id="edge13_Node000011_Node000012" class="edge">
<title>Node11&#45;&gt;Node12</title>
<g id="a_edge13_Node000011_Node000012"><a xlink:title=" ">
<path fill="none" stroke="#63b8ff" d="M982.01,-129.78C1029.54,-119.36 1090.65,-105.97 1136.07,-96.01"/>
<polygon fill="#63b8ff" stroke="#63b8ff" points="981.1,-126.4 972.08,-131.95 982.6,-133.23 981.1,-126.4"/>
</a>
</g>
</g>
<!-- Node14 -->
<g id="Node000014" class="node">
<title>Node14</title>
<g id="a_Node000014"><a xlink:href="InterventionRepository_8cpp.html" target="_top" xlink:title="Implements the InterventionRepository singleton class.">
<polygon fill="white" stroke="#666666" points="1098.5,-96 949.5,-96 949.5,-66 1098.5,-66 1098.5,-96"/>
<text text-anchor="start" x="957.5" y="-84" font-family="Helvetica,sans-Serif" font-size="10.00">src/Repository/Intervention</text>
<text text-anchor="middle" x="1024" y="-73" font-family="Helvetica,sans-Serif" font-size="10.00">Repository.cpp</text>
</a>
</g>
</g>
<!-- Node11&#45;&gt;Node14 -->
<g id="edge16_Node000011_Node000014" class="edge">
<title>Node11&#45;&gt;Node14</title>
<g id="a_edge16_Node000011_Node000014"><a xlink:title=" ">
<path fill="none" stroke="#63b8ff" d="M942.49,-126.97C960.5,-117.03 982.15,-105.09 998.6,-96.01"/>
<polygon fill="#63b8ff" stroke="#63b8ff" points="940.52,-124.06 933.46,-131.95 943.9,-130.19 940.52,-124.06"/>
</a>
</g>
</g>
<!-- Node15 -->
<g id="Node000015" class="node">
<title>Node15</title>
<g id="a_Node000015"><a xlink:href="InterventionsListView_8cpp.html" target="_top" xlink:title="Implements the InterventionsListView class, a QListView for browsing interventions.">
<polygon fill="white" stroke="#666666" points="931.5,-96 758.5,-96 758.5,-66 931.5,-66 931.5,-96"/>
<text text-anchor="start" x="766.5" y="-84" font-family="Helvetica,sans-Serif" font-size="10.00">src/Views/Widgets/Interventions</text>
<text text-anchor="middle" x="845" y="-73" font-family="Helvetica,sans-Serif" font-size="10.00">ListView.cpp</text>
</a>
</g>
</g>
<!-- Node11&#45;&gt;Node15 -->
<g id="edge17_Node000011_Node000015" class="edge">
<title>Node11&#45;&gt;Node15</title>
<g id="a_edge17_Node000011_Node000015"><a xlink:title=" ">
<path fill="none" stroke="#63b8ff" d="M886.98,-124.65C877.75,-115.27 867.17,-104.53 858.94,-96.16"/>
<polygon fill="#63b8ff" stroke="#63b8ff" points="884.51,-127.13 894.02,-131.8 889.5,-122.21 884.51,-127.13"/>
</a>
</g>
</g>
<!-- Node12&#45;&gt;Node9 -->
<g id="edge15_Node000012_Node000009" class="edge">
<title>Node12&#45;&gt;Node9</title>
<g id="a_edge15_Node000012_Node000009"><a xlink:title=" ">
<path fill="none" stroke="#63b8ff" d="M1106.31,-65.82C961.22,-47.35 803.28,-31.8 710.88,-23.16"/>
<polygon fill="#63b8ff" stroke="#63b8ff" points="1105.92,-69.29 1116.29,-67.09 1106.81,-62.35 1105.92,-69.29"/>
</a>
</g>
</g>
<!-- Node13 -->
<g id="Node000013" class="node">
<title>Node13</title>
<g id="a_Node000013"><a xlink:href="InterventionRepositoryProxy_8cpp.html" target="_top" xlink:title="Implements the InterventionRepositoryProxy class, a secure proxy to the InterventionRepository.">
<polygon fill="white" stroke="#666666" points="1274.5,-30 1125.5,-30 1125.5,0 1274.5,0 1274.5,-30"/>
<text text-anchor="start" x="1133.5" y="-18" font-family="Helvetica,sans-Serif" font-size="10.00">src/Repository/Intervention</text>
<text text-anchor="middle" x="1200" y="-7" font-family="Helvetica,sans-Serif" font-size="10.00">RepositoryProxy.cpp</text>
</a>
</g>
</g>
<!-- Node12&#45;&gt;Node13 -->
<g id="edge14_Node000012_Node000013" class="edge">
<title>Node12&#45;&gt;Node13</title>
<g id="a_edge14_Node000012_Node000013"><a xlink:title=" ">
<path fill="none" stroke="#63b8ff" d="M1200,-55.54C1200,-46.96 1200,-37.61 1200,-30.16"/>
<polygon fill="#63b8ff" stroke="#63b8ff" points="1196.5,-55.8 1200,-65.8 1203.5,-55.8 1196.5,-55.8"/>
</a>
</g>
</g>
<!-- Node16&#45;&gt;Node9 -->
<g id="edge22_Node000016_Node000009" class="edge">
<title>Node16&#45;&gt;Node9</title>
<g id="a_edge22_Node000016_Node000009"><a xlink:title=" ">
<path fill="none" stroke="#63b8ff" d="M1150.02,-195.56C1235.73,-170.01 1346.61,-123.82 1293,-66 1254.12,-24.07 877.2,-17.11 710.55,-16.09"/>
<polygon fill="#63b8ff" stroke="#63b8ff" points="1148.85,-192.26 1140.24,-198.42 1150.82,-198.98 1148.85,-192.26"/>
</a>
</g>
</g>
<!-- Node16&#45;&gt;Node17 -->
<g id="edge23_Node000016_Node000017" class="edge">
<title>Node16&#45;&gt;Node17</title>
<g id="a_edge23_Node000016_Node000017"><a xlink:title=" ">
<path fill="none" stroke="#63b8ff" d="M1150.23,-198.77C1151.5,-198.51 1152.75,-198.26 1154,-198 1216.55,-185.19 1287.86,-171.32 1339.3,-161.45"/>
<polygon fill="#63b8ff" stroke="#63b8ff" points="1149.51,-195.35 1140.43,-200.81 1150.93,-202.2 1149.51,-195.35"/>
</a>
</g>
</g>
<!-- Node18&#45;&gt;Node9 -->
<g id="edge25_Node000018_Node000009" class="edge">
<title>Node18&#45;&gt;Node9</title>
<g id="a_edge25_Node000018_Node000009"><a xlink:title=" ">
<path fill="none" stroke="#63b8ff" d="M199.27,-193.1C199.69,-159.05 205.99,-97.88 243,-66 288.14,-27.12 453.35,-18.03 553.37,-16.17"/>
<polygon fill="#63b8ff" stroke="#63b8ff" points="195.77,-193.15 199.31,-203.13 202.77,-193.12 195.77,-193.15"/>
</a>
</g>
</g>
<!-- Node18&#45;&gt;Node19 -->
<g id="edge26_Node000018_Node000019" class="edge">
<title>Node18&#45;&gt;Node19</title>
<g id="a_edge26_Node000018_Node000019"><a xlink:title=" ">
<path fill="none" stroke="#63b8ff" d="M167.83,-198.22C148.68,-186.75 124.8,-172.45 107.44,-162.04"/>
<polygon fill="#63b8ff" stroke="#63b8ff" points="166.15,-201.3 176.53,-203.44 169.75,-195.29 166.15,-201.3"/>
</a>
</g>
</g>
</g>
</svg>
