<?xml version="1.0" encoding="UTF-8" standalone="no"?>
<!DOCTYPE svg PUBLIC "-//W3C//DTD SVG 1.1//EN"
 "http://www.w3.org/Graphics/SVG/1.1/DTD/svg11.dtd">
<!-- Generated by graphviz version 2.43.0 (0)
 -->
<!-- Title: src/Repository/InterventionRepositoryProxy.cpp Pages: 1 -->
<svg width="1468pt" height="489pt"
 viewBox="0.00 0.00 1468.00 489.00" xmlns="http://www.w3.org/2000/svg" xmlns:xlink="http://www.w3.org/1999/xlink">
<g id="graph0" class="graph" transform="scale(1 1) rotate(0) translate(4 485)">
<title>src/Repository/InterventionRepositoryProxy.cpp</title>
<!-- Node1 -->
<g id="Node000001" class="node">
<title>Node1</title>
<g id="a_Node000001"><a xlink:title="Implements the InterventionRepositoryProxy class, a secure proxy to the InterventionRepository.">
<polygon fill="#999999" stroke="#666666" points="385.5,-481 236.5,-481 236.5,-451 385.5,-451 385.5,-481"/>
<text text-anchor="start" x="244.5" y="-469" font-family="Helvetica,sans-Serif" font-size="10.00">src/Repository/Intervention</text>
<text text-anchor="middle" x="311" y="-458" font-family="Helvetica,sans-Serif" font-size="10.00">RepositoryProxy.cpp</text>
</a>
</g>
</g>
<!-- Node2 -->
<g id="Node000002" class="node">
<title>Node2</title>
<g id="a_Node000002"><a xlink:href="InterventionRepositoryProxy_8h.html" target="_top" xlink:title="Declares the InterventionRepositoryProxy class, a proxy to the actual intervention repository.">
<polygon fill="white" stroke="#666666" points="795.5,-415 624.5,-415 624.5,-385 795.5,-385 795.5,-415"/>
<text text-anchor="start" x="632.5" y="-403" font-family="Helvetica,sans-Serif" font-size="10.00">TechMa/Repository/Intervention</text>
<text text-anchor="middle" x="710" y="-392" font-family="Helvetica,sans-Serif" font-size="10.00">RepositoryProxy.h</text>
</a>
</g>
</g>
<!-- Node1&#45;&gt;Node2 -->
<g id="edge1_Node000001_Node000002" class="edge">
<title>Node1&#45;&gt;Node2</title>
<g id="a_edge1_Node000001_Node000002"><a xlink:title=" ">
<path fill="none" stroke="#63b8ff" d="M385.58,-453.04C450.18,-442.67 544.03,-427.62 614.18,-416.37"/>
<polygon fill="#63b8ff" stroke="#63b8ff" points="615.04,-419.78 624.36,-414.74 613.93,-412.87 615.04,-419.78"/>
</a>
</g>
</g>
<!-- Node20 -->
<g id="Node000020" class="node">
<title>Node20</title>
<g id="a_Node000020"><a xlink:href="TechnicianRepositoryProxy_8h.html" target="_top" xlink:title="Declares the TechnicianRepositoryProxy class and the AccessDeniedException.">
<polygon fill="white" stroke="#666666" points="336.5,-283 173.5,-283 173.5,-253 336.5,-253 336.5,-283"/>
<text text-anchor="start" x="181.5" y="-271" font-family="Helvetica,sans-Serif" font-size="10.00">TechMa/Repository/Technician</text>
<text text-anchor="middle" x="255" y="-260" font-family="Helvetica,sans-Serif" font-size="10.00">RepositoryProxy.h</text>
</a>
</g>
</g>
<!-- Node1&#45;&gt;Node20 -->
<g id="edge37_Node000001_Node000020" class="edge">
<title>Node1&#45;&gt;Node20</title>
<g id="a_edge37_Node000001_Node000020"><a xlink:title=" ">
<path fill="none" stroke="#63b8ff" d="M306.97,-450.9C297.49,-417.72 273.67,-334.35 261.86,-293.01"/>
<polygon fill="#63b8ff" stroke="#63b8ff" points="265.18,-291.89 259.07,-283.23 258.45,-293.81 265.18,-291.89"/>
</a>
</g>
</g>
<!-- Node3 -->
<g id="Node000003" class="node">
<title>Node3</title>
<g id="a_Node000003"><a xlink:href="UserAuthentication_8h.html" target="_top" xlink:title="Declaration of the User and AuthenticationService classes for managing authentication.">
<polygon fill="white" stroke="#666666" points="764,-217 636,-217 636,-187 764,-187 764,-217"/>
<text text-anchor="start" x="644" y="-205" font-family="Helvetica,sans-Serif" font-size="10.00">TechMa/Authentication</text>
<text text-anchor="middle" x="700" y="-194" font-family="Helvetica,sans-Serif" font-size="10.00">/UserAuthentication.h</text>
</a>
</g>
</g>
<!-- Node2&#45;&gt;Node3 -->
<g id="edge2_Node000002_Node000003" class="edge">
<title>Node2&#45;&gt;Node3</title>
<g id="a_edge2_Node000002_Node000003"><a xlink:title=" ">
<path fill="none" stroke="#63b8ff" d="M731.03,-384.97C767.24,-359.02 834.65,-301.74 804,-253 795.12,-238.89 781.03,-228.66 766.04,-221.29"/>
<polygon fill="#63b8ff" stroke="#63b8ff" points="767.19,-217.97 756.64,-217.07 764.32,-224.36 767.19,-217.97"/>
</a>
</g>
</g>
<!-- Node4 -->
<g id="Node000004" class="node">
<title>Node4</title>
<g id="a_Node000004"><a xlink:title=" ">
<polygon fill="#e0e0e0" stroke="#999999" points="822,-145.5 764,-145.5 764,-126.5 822,-126.5 822,-145.5"/>
<text text-anchor="middle" x="793" y="-133.5" font-family="Helvetica,sans-Serif" font-size="10.00">memory</text>
</a>
</g>
</g>
<!-- Node2&#45;&gt;Node4 -->
<g id="edge34_Node000002_Node000004" class="edge">
<title>Node2&#45;&gt;Node4</title>
<g id="a_edge34_Node000002_Node000004"><a xlink:title=" ">
<path fill="none" stroke="#63b8ff" d="M749.43,-384.81C767.04,-376.72 786.76,-364.96 800,-349 819.75,-325.21 817.05,-313.52 822,-283 828.86,-240.74 824.97,-228.39 814,-187 811.06,-175.91 806.16,-164.04 801.83,-154.65"/>
<polygon fill="#63b8ff" stroke="#63b8ff" points="804.96,-153.09 797.48,-145.59 798.65,-156.12 804.96,-153.09"/>
</a>
</g>
</g>
<!-- Node5 -->
<g id="Node000005" class="node">
<title>Node5</title>
<g id="a_Node000005"><a xlink:title=" ">
<polygon fill="#e0e0e0" stroke="#999999" points="708,-145.5 652,-145.5 652,-126.5 708,-126.5 708,-145.5"/>
<text text-anchor="middle" x="680" y="-133.5" font-family="Helvetica,sans-Serif" font-size="10.00">optional</text>
</a>
</g>
</g>
<!-- Node2&#45;&gt;Node5 -->
<g id="edge35_Node000002_Node000005" class="edge">
<title>Node2&#45;&gt;Node5</title>
<g id="a_edge35_Node000002_Node000005"><a xlink:title=" ">
<path fill="none" stroke="#63b8ff" d="M624.42,-390.14C598.92,-383.04 573.64,-370.6 558,-349 525.37,-303.92 541.88,-282.34 616,-187 627.11,-172.71 643.17,-160.18 656.42,-151.23"/>
<polygon fill="#63b8ff" stroke="#63b8ff" points="658.57,-154.02 665.06,-145.64 654.76,-148.14 658.57,-154.02"/>
</a>
</g>
</g>
<!-- Node8 -->
<g id="Node000008" class="node">
<title>Node8</title>
<g id="a_Node000008"><a xlink:href="AIntervention_8h.html" target="_top" xlink:title="Defines the abstract base class AIntervention for representing interventions.">
<polygon fill="white" stroke="#666666" points="1067.5,-277.5 896.5,-277.5 896.5,-258.5 1067.5,-258.5 1067.5,-277.5"/>
<text text-anchor="middle" x="982" y="-265.5" font-family="Helvetica,sans-Serif" font-size="10.00">TechMa/Entities/AIntervention.h</text>
</a>
</g>
</g>
<!-- Node2&#45;&gt;Node8 -->
<g id="edge7_Node000002_Node000008" class="edge">
<title>Node2&#45;&gt;Node8</title>
<g id="a_edge7_Node000002_Node000008"><a xlink:title=" ">
<path fill="none" stroke="#63b8ff" d="M781.01,-384.99C812.99,-377.03 850.54,-365.33 882,-349 915,-331.87 947.57,-302.97 966.18,-285"/>
<polygon fill="#63b8ff" stroke="#63b8ff" points="968.81,-287.32 973.48,-277.81 963.9,-282.33 968.81,-287.32"/>
</a>
</g>
</g>
<!-- Node11 -->
<g id="Node000011" class="node">
<title>Node11</title>
<g id="a_Node000011"><a xlink:title=" ">
<polygon fill="#e0e0e0" stroke="#999999" points="85.5,-79.5 38.5,-79.5 38.5,-60.5 85.5,-60.5 85.5,-79.5"/>
<text text-anchor="middle" x="62" y="-67.5" font-family="Helvetica,sans-Serif" font-size="10.00">vector</text>
</a>
</g>
</g>
<!-- Node2&#45;&gt;Node11 -->
<g id="edge36_Node000002_Node000011" class="edge">
<title>Node2&#45;&gt;Node11</title>
<g id="a_edge36_Node000002_Node000011"><a xlink:title=" ">
<path fill="none" stroke="#63b8ff" d="M624.36,-392.18C435.52,-375.98 0,-331.81 0,-269 0,-269 0,-269 0,-201 0,-156.66 29.75,-111.36 48.04,-87.72"/>
<polygon fill="#63b8ff" stroke="#63b8ff" points="50.89,-89.76 54.4,-79.76 45.42,-85.39 50.89,-89.76"/>
</a>
</g>
</g>
<!-- Node18 -->
<g id="Node000018" class="node">
<title>Node18</title>
<g id="a_Node000018"><a xlink:href="InterventionRepository_8h.html" target="_top" xlink:title="Declares the InterventionRepository class, which manages storage and access to interventions.">
<polygon fill="white" stroke="#666666" points="738.5,-349 567.5,-349 567.5,-319 738.5,-319 738.5,-349"/>
<text text-anchor="start" x="575.5" y="-337" font-family="Helvetica,sans-Serif" font-size="10.00">TechMa/Repository/Intervention</text>
<text text-anchor="middle" x="653" y="-326" font-family="Helvetica,sans-Serif" font-size="10.00">Repository.h</text>
</a>
</g>
</g>
<!-- Node2&#45;&gt;Node18 -->
<g id="edge26_Node000002_Node000018" class="edge">
<title>Node2&#45;&gt;Node18</title>
<g id="a_edge26_Node000002_Node000018"><a xlink:title=" ">
<path fill="none" stroke="#63b8ff" d="M697.35,-384.8C690.04,-376.59 680.7,-366.1 672.48,-356.87"/>
<polygon fill="#63b8ff" stroke="#63b8ff" points="674.88,-354.3 665.61,-349.16 669.65,-358.96 674.88,-354.3"/>
</a>
</g>
</g>
<!-- Node19 -->
<g id="Node000019" class="node">
<title>Node19</title>
<g id="a_Node000019"><a xlink:title=" ">
<polygon fill="#e0e0e0" stroke="#999999" points="795,-277.5 739,-277.5 739,-258.5 795,-258.5 795,-277.5"/>
<text text-anchor="middle" x="767" y="-265.5" font-family="Helvetica,sans-Serif" font-size="10.00">QObject</text>
</a>
</g>
</g>
<!-- Node2&#45;&gt;Node19 -->
<g id="edge33_Node000002_Node000019" class="edge">
<title>Node2&#45;&gt;Node19</title>
<g id="a_edge33_Node000002_Node000019"><a xlink:title=" ">
<path fill="none" stroke="#63b8ff" d="M722.99,-384.67C730.98,-375.17 740.82,-362.09 747,-349 756.33,-329.22 761.65,-304.57 764.42,-287.89"/>
<polygon fill="#63b8ff" stroke="#63b8ff" points="767.91,-288.19 765.95,-277.78 760.99,-287.15 767.91,-288.19"/>
</a>
</g>
</g>
<!-- Node3&#45;&gt;Node4 -->
<g id="edge3_Node000003_Node000004" class="edge">
<title>Node3&#45;&gt;Node4</title>
<g id="a_edge3_Node000003_Node000004"><a xlink:title=" ">
<path fill="none" stroke="#63b8ff" d="M720.64,-186.8C735.94,-176.27 756.71,-161.97 772.08,-151.4"/>
<polygon fill="#63b8ff" stroke="#63b8ff" points="774.16,-154.21 780.42,-145.66 770.2,-148.44 774.16,-154.21"/>
</a>
</g>
</g>
<!-- Node3&#45;&gt;Node5 -->
<g id="edge4_Node000003_Node000005" class="edge">
<title>Node3&#45;&gt;Node5</title>
<g id="a_edge4_Node000003_Node000005"><a xlink:title=" ">
<path fill="none" stroke="#63b8ff" d="M695.56,-186.8C692.69,-177.6 688.92,-165.53 685.81,-155.58"/>
<polygon fill="#63b8ff" stroke="#63b8ff" points="689.09,-154.35 682.76,-145.84 682.41,-156.43 689.09,-154.35"/>
</a>
</g>
</g>
<!-- Node6 -->
<g id="Node000006" class="node">
<title>Node6</title>
<g id="a_Node000006"><a xlink:title=" ">
<polygon fill="#e0e0e0" stroke="#999999" points="956,-19 912,-19 912,0 956,0 956,-19"/>
<text text-anchor="middle" x="934" y="-7" font-family="Helvetica,sans-Serif" font-size="10.00">string</text>
</a>
</g>
</g>
<!-- Node3&#45;&gt;Node6 -->
<g id="edge5_Node000003_Node000006" class="edge">
<title>Node3&#45;&gt;Node6</title>
<g id="a_edge5_Node000003_Node000006"><a xlink:title=" ">
<path fill="none" stroke="#63b8ff" d="M704.88,-187C717.35,-151.35 749.79,-59.64 755,-55 795.98,-18.54 862.26,-10.95 901.64,-9.92"/>
<polygon fill="#63b8ff" stroke="#63b8ff" points="901.8,-13.41 911.75,-9.78 901.7,-6.42 901.8,-13.41"/>
</a>
</g>
</g>
<!-- Node7 -->
<g id="Node000007" class="node">
<title>Node7</title>
<g id="a_Node000007"><a xlink:title=" ">
<polygon fill="#e0e0e0" stroke="#999999" points="633.5,-145.5 540.5,-145.5 540.5,-126.5 633.5,-126.5 633.5,-145.5"/>
<text text-anchor="middle" x="587" y="-133.5" font-family="Helvetica,sans-Serif" font-size="10.00">unordered_map</text>
</a>
</g>
</g>
<!-- Node3&#45;&gt;Node7 -->
<g id="edge6_Node000003_Node000007" class="edge">
<title>Node3&#45;&gt;Node7</title>
<g id="a_edge6_Node000003_Node000007"><a xlink:title=" ">
<path fill="none" stroke="#63b8ff" d="M675.2,-186.95C656.08,-176.13 629.8,-161.24 610.91,-150.54"/>
<polygon fill="#63b8ff" stroke="#63b8ff" points="612.46,-147.4 602.04,-145.52 609.01,-153.49 612.46,-147.4"/>
</a>
</g>
</g>
<!-- Node9 -->
<g id="Node000009" class="node">
<title>Node9</title>
<g id="a_Node000009"><a xlink:href="InterventionData_8h.html" target="_top" xlink:title="Defines the InterventionData structure which holds all information related to an intervention.">
<polygon fill="white" stroke="#666666" points="1059.5,-217 904.5,-217 904.5,-187 1059.5,-187 1059.5,-217"/>
<text text-anchor="start" x="912.5" y="-205" font-family="Helvetica,sans-Serif" font-size="10.00">TechMa/Entities/Intervention</text>
<text text-anchor="middle" x="982" y="-194" font-family="Helvetica,sans-Serif" font-size="10.00">Data.h</text>
</a>
</g>
</g>
<!-- Node8&#45;&gt;Node9 -->
<g id="edge8_Node000008_Node000009" class="edge">
<title>Node8&#45;&gt;Node9</title>
<g id="a_edge8_Node000008_Node000009"><a xlink:title=" ">
<path fill="none" stroke="#63b8ff" d="M982,-258.37C982,-250.49 982,-238.45 982,-227.6"/>
<polygon fill="#63b8ff" stroke="#63b8ff" points="985.5,-227.36 982,-217.36 978.5,-227.36 985.5,-227.36"/>
</a>
</g>
</g>
<!-- Node9&#45;&gt;Node4 -->
<g id="edge23_Node000009_Node000004" class="edge">
<title>Node9&#45;&gt;Node4</title>
<g id="a_edge23_Node000009_Node000004"><a xlink:title=" ">
<path fill="none" stroke="#63b8ff" d="M940.52,-186.95C906.79,-175.53 859.74,-159.6 827.91,-148.82"/>
<polygon fill="#63b8ff" stroke="#63b8ff" points="828.75,-145.41 818.15,-145.52 826.5,-152.04 828.75,-145.41"/>
</a>
</g>
</g>
<!-- Node9&#45;&gt;Node5 -->
<g id="edge24_Node000009_Node000005" class="edge">
<title>Node9&#45;&gt;Node5</title>
<g id="a_edge24_Node000009_Node000005"><a xlink:title=" ">
<path fill="none" stroke="#63b8ff" d="M915.72,-186.95C855.26,-174.14 768,-155.65 718.37,-145.13"/>
<polygon fill="#63b8ff" stroke="#63b8ff" points="718.88,-141.66 708.37,-143.01 717.43,-148.51 718.88,-141.66"/>
</a>
</g>
</g>
<!-- Node9&#45;&gt;Node6 -->
<g id="edge25_Node000009_Node000006" class="edge">
<title>Node9&#45;&gt;Node6</title>
<g id="a_edge25_Node000009_Node000006"><a xlink:title=" ">
<path fill="none" stroke="#63b8ff" d="M1059.65,-195.37C1089.41,-188.97 1120.6,-176.17 1139,-151 1146.87,-140.24 1142.29,-133.92 1139,-121 1130.74,-88.62 1129.3,-75.6 1103,-55 1063,-23.67 1003.01,-14.29 966.3,-11.54"/>
<polygon fill="#63b8ff" stroke="#63b8ff" points="966.35,-8.04 956.16,-10.91 965.92,-15.03 966.35,-8.04"/>
</a>
</g>
</g>
<!-- Node10 -->
<g id="Node000010" class="node">
<title>Node10</title>
<g id="a_Node000010"><a xlink:href="ATechnician_8h.html" target="_top" xlink:title="Defines the abstract base class ATechnician representing a technician entity.">
<polygon fill="white" stroke="#666666" points="522,-145.5 360,-145.5 360,-126.5 522,-126.5 522,-145.5"/>
<text text-anchor="middle" x="441" y="-133.5" font-family="Helvetica,sans-Serif" font-size="10.00">TechMa/Entities/ATechnician.h</text>
</a>
</g>
</g>
<!-- Node9&#45;&gt;Node10 -->
<g id="edge9_Node000009_Node000010" class="edge">
<title>Node9&#45;&gt;Node10</title>
<g id="a_edge9_Node000009_Node000010"><a xlink:title=" ">
<path fill="none" stroke="#63b8ff" d="M904.46,-193.45C814.51,-184.45 661.8,-168.42 531,-151 522.02,-149.8 512.55,-148.44 503.27,-147.05"/>
<polygon fill="#63b8ff" stroke="#63b8ff" points="503.71,-143.58 493.29,-145.53 502.65,-150.5 503.71,-143.58"/>
</a>
</g>
</g>
<!-- Node12 -->
<g id="Node000012" class="node">
<title>Node12</title>
<g id="a_Node000012"><a xlink:href="ExpertiseField_8h.html" target="_top" xlink:title="Declares the ExpertiseField enum class representing technician specializations, and a utility functio...">
<polygon fill="white" stroke="#666666" points="929.5,-79.5 764.5,-79.5 764.5,-60.5 929.5,-60.5 929.5,-79.5"/>
<text text-anchor="middle" x="847" y="-67.5" font-family="Helvetica,sans-Serif" font-size="10.00">TechMa/Types/ExpertiseField.h</text>
</a>
</g>
</g>
<!-- Node9&#45;&gt;Node12 -->
<g id="edge16_Node000009_Node000012" class="edge">
<title>Node9&#45;&gt;Node12</title>
<g id="a_edge16_Node000009_Node000012"><a xlink:title=" ">
<path fill="none" stroke="#63b8ff" d="M950.05,-186.85C932.96,-178.2 912.33,-165.93 897,-151 878.26,-132.76 863.45,-106.15 854.95,-88.71"/>
<polygon fill="#63b8ff" stroke="#63b8ff" points="858.11,-87.2 850.7,-79.63 851.77,-90.17 858.11,-87.2"/>
</a>
</g>
</g>
<!-- Node13 -->
<g id="Node000013" class="node">
<title>Node13</title>
<g id="a_Node000013"><a xlink:href="Location_8h.html" target="_top" xlink:title="Defines the GPSCoords and Location structures for representing geographical locations.">
<polygon fill="white" stroke="#666666" points="1296,-79.5 1150,-79.5 1150,-60.5 1296,-60.5 1296,-79.5"/>
<text text-anchor="middle" x="1223" y="-67.5" font-family="Helvetica,sans-Serif" font-size="10.00">TechMa/Entities/Location.h</text>
</a>
</g>
</g>
<!-- Node9&#45;&gt;Node13 -->
<g id="edge14_Node000009_Node000013" class="edge">
<title>Node9&#45;&gt;Node13</title>
<g id="a_edge14_Node000009_Node000013"><a xlink:title=" ">
<path fill="none" stroke="#63b8ff" d="M1059.76,-193.76C1096.58,-187.2 1139.48,-174.72 1172,-151 1193.57,-135.26 1208.27,-107.38 1216.15,-89.05"/>
<polygon fill="#63b8ff" stroke="#63b8ff" points="1219.41,-90.33 1219.92,-79.75 1212.92,-87.7 1219.41,-90.33"/>
</a>
</g>
</g>
<!-- Node14 -->
<g id="Node000014" class="node">
<title>Node14</title>
<g id="a_Node000014"><a xlink:href="InterventionComplexity_8h.html" target="_top" xlink:title="Declares the InterventionComplexity enum class representing complexity levels of an intervention.">
<polygon fill="white" stroke="#666666" points="1062,-151 916,-151 916,-121 1062,-121 1062,-151"/>
<text text-anchor="start" x="924" y="-139" font-family="Helvetica,sans-Serif" font-size="10.00">TechMa/Types/Intervention</text>
<text text-anchor="middle" x="989" y="-128" font-family="Helvetica,sans-Serif" font-size="10.00">Complexity.h</text>
</a>
</g>
</g>
<!-- Node9&#45;&gt;Node14 -->
<g id="edge17_Node000009_Node000014" class="edge">
<title>Node9&#45;&gt;Node14</title>
<g id="a_edge17_Node000009_Node000014"><a xlink:title=" ">
<path fill="none" stroke="#63b8ff" d="M983.55,-186.8C984.38,-179.26 985.41,-169.78 986.36,-161.13"/>
<polygon fill="#63b8ff" stroke="#63b8ff" points="989.84,-161.49 987.45,-151.16 982.88,-160.72 989.84,-161.49"/>
</a>
</g>
</g>
<!-- Node15 -->
<g id="Node000015" class="node">
<title>Node15</title>
<g id="a_Node000015"><a xlink:href="InterventionStatus_8h.html" target="_top" xlink:title="Declares the InterventionStatus enum and its string conversion function.">
<polygon fill="white" stroke="#666666" points="1460,-85 1314,-85 1314,-55 1460,-55 1460,-85"/>
<text text-anchor="start" x="1322" y="-73" font-family="Helvetica,sans-Serif" font-size="10.00">TechMa/Types/Intervention</text>
<text text-anchor="middle" x="1387" y="-62" font-family="Helvetica,sans-Serif" font-size="10.00">Status.h</text>
</a>
</g>
</g>
<!-- Node9&#45;&gt;Node15 -->
<g id="edge18_Node000009_Node000015" class="edge">
<title>Node9&#45;&gt;Node15</title>
<g id="a_edge18_Node000009_Node000015"><a xlink:title=" ">
<path fill="none" stroke="#63b8ff" d="M1057.71,-186.96C1099.81,-178.31 1152.86,-166 1199,-151 1252.26,-133.68 1311.34,-107.29 1348.8,-89.61"/>
<polygon fill="#63b8ff" stroke="#63b8ff" points="1350.77,-92.55 1358.3,-85.09 1347.77,-86.23 1350.77,-92.55"/>
</a>
</g>
</g>
<!-- Node16 -->
<g id="Node000016" class="node">
<title>Node16</title>
<g id="a_Node000016"><a xlink:href="InterventionType_8h.html" target="_top" xlink:title="Declares the InterventionType enum class and a string conversion utility.">
<polygon fill="white" stroke="#666666" points="1094,-85 948,-85 948,-55 1094,-55 1094,-85"/>
<text text-anchor="start" x="956" y="-73" font-family="Helvetica,sans-Serif" font-size="10.00">TechMa/Types/Intervention</text>
<text text-anchor="middle" x="1021" y="-62" font-family="Helvetica,sans-Serif" font-size="10.00">Type.h</text>
</a>
</g>
</g>
<!-- Node9&#45;&gt;Node16 -->
<g id="edge20_Node000009_Node000016" class="edge">
<title>Node9&#45;&gt;Node16</title>
<g id="a_edge20_Node000009_Node000016"><a xlink:title=" ">
<path fill="none" stroke="#63b8ff" d="M946.93,-186.85C931.77,-178.77 915.57,-167 907,-151 900.71,-139.24 899.71,-132.16 907,-121 916.39,-106.63 930.92,-96.37 946.5,-89.04"/>
<polygon fill="#63b8ff" stroke="#63b8ff" points="947.96,-92.22 955.77,-85.06 945.2,-85.79 947.96,-92.22"/>
</a>
</g>
</g>
<!-- Node17 -->
<g id="Node000017" class="node">
<title>Node17</title>
<g id="a_Node000017"><a xlink:title=" ">
<polygon fill="#e0e0e0" stroke="#999999" points="1130,-145.5 1080,-145.5 1080,-126.5 1130,-126.5 1130,-145.5"/>
<text text-anchor="middle" x="1105" y="-133.5" font-family="Helvetica,sans-Serif" font-size="10.00">chrono</text>
</a>
</g>
</g>
<!-- Node9&#45;&gt;Node17 -->
<g id="edge22_Node000009_Node000017" class="edge">
<title>Node9&#45;&gt;Node17</title>
<g id="a_edge22_Node000009_Node000017"><a xlink:title=" ">
<path fill="none" stroke="#63b8ff" d="M1008.99,-186.95C1029.99,-176.03 1058.93,-160.97 1079.53,-150.25"/>
<polygon fill="#63b8ff" stroke="#63b8ff" points="1081.38,-153.24 1088.63,-145.52 1078.14,-147.03 1081.38,-153.24"/>
</a>
</g>
</g>
<!-- Node10&#45;&gt;Node6 -->
<g id="edge10_Node000010_Node000006" class="edge">
<title>Node10&#45;&gt;Node6</title>
<g id="a_edge10_Node000010_Node000006"><a xlink:title=" ">
<path fill="none" stroke="#63b8ff" d="M468.74,-126.4C518.97,-110.98 628.44,-78.11 722,-55 785.45,-39.33 860.44,-24.43 902.07,-16.47"/>
<polygon fill="#63b8ff" stroke="#63b8ff" points="902.74,-19.91 911.91,-14.6 901.43,-13.03 902.74,-19.91"/>
</a>
</g>
</g>
<!-- Node10&#45;&gt;Node11 -->
<g id="edge11_Node000010_Node000011" class="edge">
<title>Node10&#45;&gt;Node11</title>
<g id="a_edge11_Node000010_Node000011"><a xlink:title=" ">
<path fill="none" stroke="#63b8ff" d="M390.28,-126.44C311.59,-113.15 162.22,-87.92 95.57,-76.67"/>
<polygon fill="#63b8ff" stroke="#63b8ff" points="96.05,-73.2 85.61,-74.99 94.88,-80.1 96.05,-73.2"/>
</a>
</g>
</g>
<!-- Node10&#45;&gt;Node12 -->
<g id="edge12_Node000010_Node000012" class="edge">
<title>Node10&#45;&gt;Node12</title>
<g id="a_edge12_Node000010_Node000012"><a xlink:title=" ">
<path fill="none" stroke="#63b8ff" d="M495.33,-126.44C569.78,-114.7 703.27,-93.66 782.64,-81.15"/>
<polygon fill="#63b8ff" stroke="#63b8ff" points="783.66,-84.53 792.99,-79.51 782.56,-77.61 783.66,-84.53"/>
</a>
</g>
</g>
<!-- Node12&#45;&gt;Node6 -->
<g id="edge13_Node000012_Node000006" class="edge">
<title>Node12&#45;&gt;Node6</title>
<g id="a_edge13_Node000012_Node000006"><a xlink:title=" ">
<path fill="none" stroke="#63b8ff" d="M859.84,-60.37C873.72,-51.04 896.07,-36.01 912.61,-24.88"/>
<polygon fill="#63b8ff" stroke="#63b8ff" points="914.76,-27.65 921.11,-19.17 910.86,-21.84 914.76,-27.65"/>
</a>
</g>
</g>
<!-- Node13&#45;&gt;Node6 -->
<g id="edge15_Node000013_Node000006" class="edge">
<title>Node13&#45;&gt;Node6</title>
<g id="a_edge15_Node000013_Node000006"><a xlink:title=" ">
<path fill="none" stroke="#63b8ff" d="M1180.98,-60.49C1122.69,-48.69 1018.56,-27.62 966.09,-17"/>
<polygon fill="#63b8ff" stroke="#63b8ff" points="966.51,-13.51 956.01,-14.96 965.12,-20.37 966.51,-13.51"/>
</a>
</g>
</g>
<!-- Node15&#45;&gt;Node6 -->
<g id="edge19_Node000015_Node000006" class="edge">
<title>Node15&#45;&gt;Node6</title>
<g id="a_edge19_Node000015_Node000006"><a xlink:title=" ">
<path fill="none" stroke="#63b8ff" d="M1313.71,-56.3C1310.77,-55.85 1307.86,-55.42 1305,-55 1180.03,-36.85 1030.6,-20.57 966.17,-13.81"/>
<polygon fill="#63b8ff" stroke="#63b8ff" points="966.52,-10.33 956.21,-12.77 965.8,-17.29 966.52,-10.33"/>
</a>
</g>
</g>
<!-- Node16&#45;&gt;Node6 -->
<g id="edge21_Node000016_Node000006" class="edge">
<title>Node16&#45;&gt;Node6</title>
<g id="a_edge21_Node000016_Node000006"><a xlink:title=" ">
<path fill="none" stroke="#63b8ff" d="M999.94,-54.84C986.46,-45.77 969.01,-34.04 955.45,-24.92"/>
<polygon fill="#63b8ff" stroke="#63b8ff" points="957.03,-21.77 946.78,-19.09 953.13,-27.58 957.03,-21.77"/>
</a>
</g>
</g>
<!-- Node18&#45;&gt;Node4 -->
<g id="edge29_Node000018_Node000004" class="edge">
<title>Node18&#45;&gt;Node4</title>
<g id="a_edge29_Node000018_Node000004"><a xlink:title=" ">
<path fill="none" stroke="#63b8ff" d="M664.41,-318.71C678.54,-301.64 703.95,-272.88 730,-253 756.56,-232.73 778.94,-245.73 796,-217 807.06,-198.37 803.54,-172.77 799.09,-155.6"/>
<polygon fill="#63b8ff" stroke="#63b8ff" points="802.36,-154.29 796.18,-145.68 795.64,-156.26 802.36,-154.29"/>
</a>
</g>
</g>
<!-- Node18&#45;&gt;Node5 -->
<g id="edge30_Node000018_Node000005" class="edge">
<title>Node18&#45;&gt;Node5</title>
<g id="a_edge30_Node000018_Node000005"><a xlink:title=" ">
<path fill="none" stroke="#63b8ff" d="M645.27,-318.7C631.84,-291.82 607.42,-232.39 627,-187 633.23,-172.56 645.91,-160.35 657.3,-151.62"/>
<polygon fill="#63b8ff" stroke="#63b8ff" points="659.55,-154.31 665.63,-145.63 655.47,-148.62 659.55,-154.31"/>
</a>
</g>
</g>
<!-- Node18&#45;&gt;Node7 -->
<g id="edge31_Node000018_Node000007" class="edge">
<title>Node18&#45;&gt;Node7</title>
<g id="a_edge31_Node000018_Node000007"><a xlink:title=" ">
<path fill="none" stroke="#63b8ff" d="M641.31,-318.98C633.89,-309.4 624.64,-296.11 619,-283 600.33,-239.64 592.04,-184.17 588.8,-155.7"/>
<polygon fill="#63b8ff" stroke="#63b8ff" points="592.26,-155.16 587.73,-145.58 585.3,-155.89 592.26,-155.16"/>
</a>
</g>
</g>
<!-- Node18&#45;&gt;Node8 -->
<g id="edge27_Node000018_Node000008" class="edge">
<title>Node18&#45;&gt;Node8</title>
<g id="a_edge27_Node000018_Node000008"><a xlink:title=" ">
<path fill="none" stroke="#63b8ff" d="M725.2,-318.95C786.46,-307.04 872.96,-290.21 928.27,-279.45"/>
<polygon fill="#63b8ff" stroke="#63b8ff" points="929.07,-282.86 938.22,-277.52 927.73,-275.99 929.07,-282.86"/>
</a>
</g>
</g>
<!-- Node18&#45;&gt;Node11 -->
<g id="edge32_Node000018_Node000011" class="edge">
<title>Node18&#45;&gt;Node11</title>
<g id="a_edge32_Node000018_Node000011"><a xlink:title=" ">
<path fill="none" stroke="#63b8ff" d="M567.39,-331.11C446.65,-327.28 233.32,-315.94 164,-283 98.95,-252.09 87.85,-220.77 70,-151 64.77,-130.54 62.92,-106.33 62.29,-89.94"/>
<polygon fill="#63b8ff" stroke="#63b8ff" points="65.78,-89.46 62.02,-79.55 58.78,-89.64 65.78,-89.46"/>
</a>
</g>
</g>
<!-- Node18&#45;&gt;Node19 -->
<g id="edge28_Node000018_Node000019" class="edge">
<title>Node18&#45;&gt;Node19</title>
<g id="a_edge28_Node000018_Node000019"><a xlink:title=" ">
<path fill="none" stroke="#63b8ff" d="M678.02,-318.95C697.31,-308.13 723.82,-293.24 742.88,-282.54"/>
<polygon fill="#63b8ff" stroke="#63b8ff" points="744.82,-285.46 751.83,-277.52 741.4,-279.36 744.82,-285.46"/>
</a>
</g>
</g>
<!-- Node20&#45;&gt;Node3 -->
<g id="edge38_Node000020_Node000003" class="edge">
<title>Node20&#45;&gt;Node3</title>
<g id="a_edge38_Node000020_Node000003"><a xlink:title=" ">
<path fill="none" stroke="#63b8ff" d="M336.62,-255.26C419.27,-243.37 545.99,-225.15 625.86,-213.66"/>
<polygon fill="#63b8ff" stroke="#63b8ff" points="626.44,-217.12 635.84,-212.23 625.44,-210.19 626.44,-217.12"/>
</a>
</g>
</g>
<!-- Node20&#45;&gt;Node4 -->
<g id="edge48_Node000020_Node000004" class="edge">
<title>Node20&#45;&gt;Node4</title>
<g id="a_edge48_Node000020_Node000004"><a xlink:title=" ">
<path fill="none" stroke="#63b8ff" d="M336.77,-264.22C474.43,-258.8 740.7,-244.82 773,-217 790.43,-201.99 793.86,-174.31 794,-155.78"/>
<polygon fill="#63b8ff" stroke="#63b8ff" points="797.49,-155.53 793.75,-145.61 790.49,-155.7 797.49,-155.53"/>
</a>
</g>
</g>
<!-- Node20&#45;&gt;Node5 -->
<g id="edge49_Node000020_Node000005" class="edge">
<title>Node20&#45;&gt;Node5</title>
<g id="a_edge49_Node000020_Node000005"><a xlink:title=" ">
<path fill="none" stroke="#63b8ff" d="M336.61,-255.84C378.82,-248.23 430.48,-235.99 474,-217 495.69,-207.53 496.59,-197.09 518,-187 569.91,-162.53 587.49,-168.93 642,-151 643.9,-150.37 645.85,-149.71 647.82,-149.03"/>
<polygon fill="#63b8ff" stroke="#63b8ff" points="649.34,-152.21 657.59,-145.55 646.99,-145.61 649.34,-152.21"/>
</a>
</g>
</g>
<!-- Node20&#45;&gt;Node6 -->
<g id="edge51_Node000020_Node000006" class="edge">
<title>Node20&#45;&gt;Node6</title>
<g id="a_edge51_Node000020_Node000006"><a xlink:title=" ">
<path fill="none" stroke="#63b8ff" d="M251.36,-252.75C246.21,-235.17 235.2,-205.37 216,-187 186.94,-159.21 155.06,-184.62 133,-151 125.68,-139.85 124.24,-131.05 133,-121 184.56,-61.81 757.5,-21.7 901.37,-12.51"/>
<polygon fill="#63b8ff" stroke="#63b8ff" points="901.97,-15.98 911.73,-11.85 901.53,-8.99 901.97,-15.98"/>
</a>
</g>
</g>
<!-- Node20&#45;&gt;Node10 -->
<g id="edge39_Node000020_Node000010" class="edge">
<title>Node20&#45;&gt;Node10</title>
<g id="a_edge39_Node000020_Node000010"><a xlink:title=" ">
<path fill="none" stroke="#63b8ff" d="M258.12,-252.8C262.75,-234.99 273.12,-204.67 293,-187 315.21,-167.26 345.51,-155.26 372.91,-147.99"/>
<polygon fill="#63b8ff" stroke="#63b8ff" points="374,-151.33 382.86,-145.52 372.31,-144.53 374,-151.33"/>
</a>
</g>
</g>
<!-- Node20&#45;&gt;Node11 -->
<g id="edge52_Node000020_Node000011" class="edge">
<title>Node20&#45;&gt;Node11</title>
<g id="a_edge52_Node000020_Node000011"><a xlink:title=" ">
<path fill="none" stroke="#63b8ff" d="M188.55,-252.97C165.83,-245.44 141.7,-234.06 124,-217 87.08,-181.42 71.06,-120.35 65.08,-89.7"/>
<polygon fill="#63b8ff" stroke="#63b8ff" points="68.47,-88.78 63.25,-79.56 61.58,-90.02 68.47,-88.78"/>
</a>
</g>
</g>
<!-- Node21 -->
<g id="Node000021" class="node">
<title>Node21</title>
<g id="a_Node000021"><a xlink:href="ATechnicianObserver_8h.html" target="_top" xlink:title="Declares the ATechnicianObserver interface used for observing technician&#45;related changes.">
<polygon fill="white" stroke="#666666" points="303.5,-151 142.5,-151 142.5,-121 303.5,-121 303.5,-151"/>
<text text-anchor="start" x="150.5" y="-139" font-family="Helvetica,sans-Serif" font-size="10.00">TechMa/Observer/ATechnician</text>
<text text-anchor="middle" x="223" y="-128" font-family="Helvetica,sans-Serif" font-size="10.00">Observer.h</text>
</a>
</g>
</g>
<!-- Node20&#45;&gt;Node21 -->
<g id="edge40_Node000020_Node000021" class="edge">
<title>Node20&#45;&gt;Node21</title>
<g id="a_edge40_Node000020_Node000021"><a xlink:title=" ">
<path fill="none" stroke="#63b8ff" d="M182.43,-252.9C163.17,-245.49 144.54,-234.2 133,-217 125.57,-205.93 126.24,-198.49 133,-187 141.03,-173.35 154.28,-163.16 168.18,-155.67"/>
<polygon fill="#63b8ff" stroke="#63b8ff" points="169.95,-158.7 177.35,-151.13 166.84,-152.43 169.95,-158.7"/>
</a>
</g>
</g>
<!-- Node22 -->
<g id="Node000022" class="node">
<title>Node22</title>
<g id="a_Node000022"><a xlink:href="TechnicianRepository_8h.html" target="_top" xlink:title="Declares the TechnicianRepository class, responsible for storing and managing technicians.">
<polygon fill="white" stroke="#666666" points="465.5,-217 302.5,-217 302.5,-187 465.5,-187 465.5,-217"/>
<text text-anchor="start" x="310.5" y="-205" font-family="Helvetica,sans-Serif" font-size="10.00">TechMa/Repository/Technician</text>
<text text-anchor="middle" x="384" y="-194" font-family="Helvetica,sans-Serif" font-size="10.00">Repository.h</text>
</a>
</g>
</g>
<!-- Node20&#45;&gt;Node22 -->
<g id="edge41_Node000020_Node000022" class="edge">
<title>Node20&#45;&gt;Node22</title>
<g id="a_edge41_Node000020_Node000022"><a xlink:title=" ">
<path fill="none" stroke="#63b8ff" d="M283.31,-252.95C301.88,-243.74 326.36,-231.6 346.54,-221.59"/>
<polygon fill="#63b8ff" stroke="#63b8ff" points="348.35,-224.59 355.76,-217.01 345.24,-218.32 348.35,-224.59"/>
</a>
</g>
</g>
<!-- Node23 -->
<g id="Node000023" class="node">
<title>Node23</title>
<g id="a_Node000023"><a xlink:title=" ">
<polygon fill="#e0e0e0" stroke="#999999" points="207.5,-211.5 142.5,-211.5 142.5,-192.5 207.5,-192.5 207.5,-211.5"/>
<text text-anchor="middle" x="175" y="-199.5" font-family="Helvetica,sans-Serif" font-size="10.00">stdexcept</text>
</a>
</g>
</g>
<!-- Node20&#45;&gt;Node23 -->
<g id="edge50_Node000020_Node000023" class="edge">
<title>Node20&#45;&gt;Node23</title>
<g id="a_edge50_Node000020_Node000023"><a xlink:title=" ">
<path fill="none" stroke="#63b8ff" d="M237.25,-252.8C224.41,-242.53 207.08,-228.67 193.97,-218.18"/>
<polygon fill="#63b8ff" stroke="#63b8ff" points="196.05,-215.36 186.06,-211.84 191.68,-220.82 196.05,-215.36"/>
</a>
</g>
</g>
<!-- Node22&#45;&gt;Node4 -->
<g id="edge44_Node000022_Node000004" class="edge">
<title>Node22&#45;&gt;Node4</title>
<g id="a_edge44_Node000022_Node000004"><a xlink:title=" ">
<path fill="none" stroke="#63b8ff" d="M465.55,-189.53C533.04,-179.84 631.37,-165.31 717,-151 728.97,-149 741.98,-146.66 753.79,-144.48"/>
<polygon fill="#63b8ff" stroke="#63b8ff" points="754.62,-147.89 763.81,-142.61 753.33,-141 754.62,-147.89"/>
</a>
</g>
</g>
<!-- Node22&#45;&gt;Node5 -->
<g id="edge45_Node000022_Node000005" class="edge">
<title>Node22&#45;&gt;Node5</title>
<g id="a_edge45_Node000022_Node000005"><a xlink:title=" ">
<path fill="none" stroke="#63b8ff" d="M465.55,-188.67C516.7,-180.08 583.77,-167.25 642,-151 644.29,-150.36 646.63,-149.65 648.98,-148.89"/>
<polygon fill="#63b8ff" stroke="#63b8ff" points="650.18,-152.18 658.5,-145.61 647.9,-145.56 650.18,-152.18"/>
</a>
</g>
</g>
<!-- Node22&#45;&gt;Node7 -->
<g id="edge46_Node000022_Node000007" class="edge">
<title>Node22&#45;&gt;Node7</title>
<g id="a_edge46_Node000022_Node000007"><a xlink:title=" ">
<path fill="none" stroke="#63b8ff" d="M428.55,-186.95C465.09,-175.43 516.19,-159.32 550.38,-148.54"/>
<polygon fill="#63b8ff" stroke="#63b8ff" points="551.5,-151.86 559.98,-145.52 549.39,-145.19 551.5,-151.86"/>
</a>
</g>
</g>
<!-- Node22&#45;&gt;Node10 -->
<g id="edge42_Node000022_Node000010" class="edge">
<title>Node22&#45;&gt;Node10</title>
<g id="a_edge42_Node000022_Node000010"><a xlink:title=" ">
<path fill="none" stroke="#63b8ff" d="M396.65,-186.8C405.45,-176.92 417.2,-163.72 426.4,-153.39"/>
<polygon fill="#63b8ff" stroke="#63b8ff" points="429.09,-155.64 433.12,-145.84 423.86,-150.98 429.09,-155.64"/>
</a>
</g>
</g>
<!-- Node22&#45;&gt;Node11 -->
<g id="edge47_Node000022_Node000011" class="edge">
<title>Node22&#45;&gt;Node11</title>
<g id="a_edge47_Node000022_Node000011"><a xlink:title=" ">
<path fill="none" stroke="#63b8ff" d="M375.47,-186.9C363.63,-168.62 340.41,-137.18 312,-121 242.34,-81.33 146.11,-72.76 95.78,-71.15"/>
<polygon fill="#63b8ff" stroke="#63b8ff" points="95.84,-67.65 85.76,-70.9 95.67,-74.65 95.84,-67.65"/>
</a>
</g>
</g>
<!-- Node22&#45;&gt;Node21 -->
<g id="edge43_Node000022_Node000021" class="edge">
<title>Node22&#45;&gt;Node21</title>
<g id="a_edge43_Node000022_Node000021"><a xlink:title=" ">
<path fill="none" stroke="#63b8ff" d="M348.67,-186.95C324.87,-177.49 293.27,-164.93 267.72,-154.78"/>
<polygon fill="#63b8ff" stroke="#63b8ff" points="268.84,-151.45 258.25,-151.01 266.25,-157.96 268.84,-151.45"/>
</a>
</g>
</g>
</g>
</svg>
