<?xml version="1.0" encoding="UTF-8" standalone="no"?>
<!DOCTYPE svg PUBLIC "-//W3C//DTD SVG 1.1//EN"
 "http://www.w3.org/Graphics/SVG/1.1/DTD/svg11.dtd">
<!-- Generated by graphviz version 2.43.0 (0)
 -->
<!-- Title: include/TechMa/Repository/InterventionRepository.h Pages: 1 -->
<svg width="609pt" height="170pt"
 viewBox="0.00 0.00 609.00 170.00" xmlns="http://www.w3.org/2000/svg" xmlns:xlink="http://www.w3.org/1999/xlink">
<g id="graph0" class="graph" transform="scale(1 1) rotate(0) translate(4 166)">
<title>include/TechMa/Repository/InterventionRepository.h</title>
<!-- Node1 -->
<g id="Node000001" class="node">
<title>Node1</title>
<g id="a_Node000001"><a xlink:title="Declares the InterventionRepository class, which manages storage and access to interventions.">
<polygon fill="#999999" stroke="#666666" points="409,-162 262,-162 262,-132 409,-132 409,-162"/>
<text text-anchor="start" x="270" y="-150" font-family="Helvetica,sans-Serif" font-size="10.00">include/TechMa/Repository</text>
<text text-anchor="middle" x="335.5" y="-139" font-family="Helvetica,sans-Serif" font-size="10.00">/InterventionRepository.h</text>
</a>
</g>
</g>
<!-- Node2 -->
<g id="Node000002" class="node">
<title>Node2</title>
<g id="a_Node000002"><a xlink:href="InterventionRepositoryProxy_8h.html" target="_top" xlink:title="Declares the InterventionRepositoryProxy class, a proxy to the actual intervention repository.">
<polygon fill="white" stroke="#666666" points="243,-96 76,-96 76,-66 243,-66 243,-96"/>
<text text-anchor="start" x="84" y="-84" font-family="Helvetica,sans-Serif" font-size="10.00">include/TechMa/Repository</text>
<text text-anchor="middle" x="159.5" y="-73" font-family="Helvetica,sans-Serif" font-size="10.00">/InterventionRepositoryProxy.h</text>
</a>
</g>
</g>
<!-- Node1&#45;&gt;Node2 -->
<g id="edge1_Node000001_Node000002" class="edge">
<title>Node1&#45;&gt;Node2</title>
<g id="a_edge1_Node000001_Node000002"><a xlink:title=" ">
<path fill="none" stroke="#63b8ff" d="M287.26,-128.46C259.18,-118.25 224.26,-105.55 198.03,-96.01"/>
<polygon fill="#63b8ff" stroke="#63b8ff" points="286.28,-131.83 296.88,-131.95 288.67,-125.25 286.28,-131.83"/>
</a>
</g>
</g>
<!-- Node5 -->
<g id="Node000005" class="node">
<title>Node5</title>
<g id="a_Node000005"><a xlink:href="InterventionRepository_8cpp.html" target="_top" xlink:title="Implements the InterventionRepository singleton class.">
<polygon fill="white" stroke="#666666" points="410,-96 261,-96 261,-66 410,-66 410,-96"/>
<text text-anchor="start" x="269" y="-84" font-family="Helvetica,sans-Serif" font-size="10.00">src/Repository/Intervention</text>
<text text-anchor="middle" x="335.5" y="-73" font-family="Helvetica,sans-Serif" font-size="10.00">Repository.cpp</text>
</a>
</g>
</g>
<!-- Node1&#45;&gt;Node5 -->
<g id="edge4_Node000001_Node000005" class="edge">
<title>Node1&#45;&gt;Node5</title>
<g id="a_edge4_Node000001_Node000005"><a xlink:title=" ">
<path fill="none" stroke="#63b8ff" d="M335.5,-121.54C335.5,-112.96 335.5,-103.61 335.5,-96.16"/>
<polygon fill="#63b8ff" stroke="#63b8ff" points="332,-121.8 335.5,-131.8 339,-121.8 332,-121.8"/>
</a>
</g>
</g>
<!-- Node6 -->
<g id="Node000006" class="node">
<title>Node6</title>
<g id="a_Node000006"><a xlink:href="InterventionsListView_8cpp.html" target="_top" xlink:title="Implements the InterventionsListView class, a QListView for browsing interventions.">
<polygon fill="white" stroke="#666666" points="601,-96 428,-96 428,-66 601,-66 601,-96"/>
<text text-anchor="start" x="436" y="-84" font-family="Helvetica,sans-Serif" font-size="10.00">src/Views/Widgets/Interventions</text>
<text text-anchor="middle" x="514.5" y="-73" font-family="Helvetica,sans-Serif" font-size="10.00">ListView.cpp</text>
</a>
</g>
</g>
<!-- Node1&#45;&gt;Node6 -->
<g id="edge5_Node000001_Node000006" class="edge">
<title>Node1&#45;&gt;Node6</title>
<g id="a_edge5_Node000001_Node000006"><a xlink:title=" ">
<path fill="none" stroke="#63b8ff" d="M384.57,-128.46C413.12,-118.25 448.63,-105.55 475.31,-96.01"/>
<polygon fill="#63b8ff" stroke="#63b8ff" points="383.02,-125.29 374.78,-131.95 385.38,-131.88 383.02,-125.29"/>
</a>
</g>
</g>
<!-- Node3 -->
<g id="Node000003" class="node">
<title>Node3</title>
<g id="a_Node000003"><a xlink:href="InterventionRepositoryProxy_8cpp.html" target="_top" xlink:title="Implements the InterventionRepositoryProxy class, a secure proxy to the InterventionRepository.">
<polygon fill="white" stroke="#666666" points="149,-30 0,-30 0,0 149,0 149,-30"/>
<text text-anchor="start" x="8" y="-18" font-family="Helvetica,sans-Serif" font-size="10.00">src/Repository/Intervention</text>
<text text-anchor="middle" x="74.5" y="-7" font-family="Helvetica,sans-Serif" font-size="10.00">RepositoryProxy.cpp</text>
</a>
</g>
</g>
<!-- Node2&#45;&gt;Node3 -->
<g id="edge2_Node000002_Node000003" class="edge">
<title>Node2&#45;&gt;Node3</title>
<g id="a_edge2_Node000002_Node000003"><a xlink:title=" ">
<path fill="none" stroke="#63b8ff" d="M132.61,-59.75C119.83,-50.13 104.86,-38.86 93.31,-30.16"/>
<polygon fill="#63b8ff" stroke="#63b8ff" points="130.54,-62.58 140.64,-65.8 134.75,-56.99 130.54,-62.58"/>
</a>
</g>
</g>
<!-- Node4 -->
<g id="Node000004" class="node">
<title>Node4</title>
<g id="a_Node000004"><a xlink:href="InterventionPage_8cpp.html" target="_top" xlink:title="Implements the InterventionPage class, a QWidget handling intervention&#45;related UI and interactions.">
<polygon fill="white" stroke="#666666" points="324,-30 167,-30 167,0 324,0 324,-30"/>
<text text-anchor="start" x="175" y="-18" font-family="Helvetica,sans-Serif" font-size="10.00">src/Views/Pages/Intervention</text>
<text text-anchor="middle" x="245.5" y="-7" font-family="Helvetica,sans-Serif" font-size="10.00">Page.cpp</text>
</a>
</g>
</g>
<!-- Node2&#45;&gt;Node4 -->
<g id="edge3_Node000002_Node000004" class="edge">
<title>Node2&#45;&gt;Node4</title>
<g id="a_edge3_Node000002_Node000004"><a xlink:title=" ">
<path fill="none" stroke="#63b8ff" d="M186.71,-59.75C199.64,-50.13 214.79,-38.86 226.47,-30.16"/>
<polygon fill="#63b8ff" stroke="#63b8ff" points="184.52,-57.02 178.59,-65.8 188.7,-62.63 184.52,-57.02"/>
</a>
</g>
</g>
</g>
</svg>
