<?xml version="1.0" encoding="UTF-8" standalone="no"?>
<!DOCTYPE svg PUBLIC "-//W3C//DTD SVG 1.1//EN"
 "http://www.w3.org/Graphics/SVG/1.1/DTD/svg11.dtd">
<!-- Generated by graphviz version 2.43.0 (0)
 -->
<!-- Title: src/Facade/InterventionCreatorFacade.cpp Pages: 1 -->
<svg width="1126pt" height="412pt"
 viewBox="0.00 0.00 1125.50 412.00" xmlns="http://www.w3.org/2000/svg" xmlns:xlink="http://www.w3.org/1999/xlink">
<g id="graph0" class="graph" transform="scale(1 1) rotate(0) translate(4 408)">
<title>src/Facade/InterventionCreatorFacade.cpp</title>
<!-- Node1 -->
<g id="Node000001" class="node">
<title>Node1</title>
<g id="a_Node000001"><a xlink:title="Implements the InterventionCreatorFacade class.">
<polygon fill="#999999" stroke="#666666" points="1033.5,-404 867.5,-404 867.5,-374 1033.5,-374 1033.5,-404"/>
<text text-anchor="start" x="875.5" y="-392" font-family="Helvetica,sans-Serif" font-size="10.00">src/Facade/InterventionCreator</text>
<text text-anchor="middle" x="950.5" y="-381" font-family="Helvetica,sans-Serif" font-size="10.00">Facade.cpp</text>
</a>
</g>
</g>
<!-- Node2 -->
<g id="Node000002" class="node">
<title>Node2</title>
<g id="a_Node000002"><a xlink:href="InterventionCreatorFacade_8h.html" target="_top" xlink:title="Declares the InterventionCreatorFacade class, which provides a simplified interface for creating inte...">
<polygon fill="white" stroke="#666666" points="1112.5,-338 960.5,-338 960.5,-308 1112.5,-308 1112.5,-338"/>
<text text-anchor="start" x="968.5" y="-326" font-family="Helvetica,sans-Serif" font-size="10.00">TechMa/Facade/Intervention</text>
<text text-anchor="middle" x="1036.5" y="-315" font-family="Helvetica,sans-Serif" font-size="10.00">CreatorFacade.h</text>
</a>
</g>
</g>
<!-- Node1&#45;&gt;Node2 -->
<g id="edge1_Node000001_Node000002" class="edge">
<title>Node1&#45;&gt;Node2</title>
<g id="a_edge1_Node000001_Node000002"><a xlink:title=" ">
<path fill="none" stroke="#63b8ff" d="M969.59,-373.8C981.28,-365.1 996.43,-353.82 1009.35,-344.2"/>
<polygon fill="#63b8ff" stroke="#63b8ff" points="1011.53,-346.94 1017.47,-338.16 1007.36,-341.33 1011.53,-346.94"/>
</a>
</g>
</g>
<!-- Node16 -->
<g id="Node000016" class="node">
<title>Node16</title>
<g id="a_Node000016"><a xlink:href="InterventionFactory_8h.html" target="_top" xlink:title="Declares the InterventionFactory class responsible for creating intervention instances.">
<polygon fill="white" stroke="#666666" points="942.5,-338 788.5,-338 788.5,-308 942.5,-308 942.5,-338"/>
<text text-anchor="start" x="796.5" y="-326" font-family="Helvetica,sans-Serif" font-size="10.00">TechMa/Factory/Intervention</text>
<text text-anchor="middle" x="865.5" y="-315" font-family="Helvetica,sans-Serif" font-size="10.00">Factory.h</text>
</a>
</g>
</g>
<!-- Node1&#45;&gt;Node16 -->
<g id="edge23_Node000001_Node000016" class="edge">
<title>Node1&#45;&gt;Node16</title>
<g id="a_edge23_Node000001_Node000016"><a xlink:title=" ">
<path fill="none" stroke="#63b8ff" d="M931.64,-373.8C920.08,-365.1 905.11,-353.82 892.33,-344.2"/>
<polygon fill="#63b8ff" stroke="#63b8ff" points="894.41,-341.38 884.31,-338.16 890.19,-346.98 894.41,-341.38"/>
</a>
</g>
</g>
<!-- Node3 -->
<g id="Node000003" class="node">
<title>Node3</title>
<g id="a_Node000003"><a xlink:href="AIntervention_8h.html" target="_top" xlink:title="Defines the abstract base class AIntervention for representing interventions.">
<polygon fill="white" stroke="#666666" points="954,-272 783,-272 783,-253 954,-253 954,-272"/>
<text text-anchor="middle" x="868.5" y="-260" font-family="Helvetica,sans-Serif" font-size="10.00">TechMa/Entities/AIntervention.h</text>
</a>
</g>
</g>
<!-- Node2&#45;&gt;Node3 -->
<g id="edge2_Node000002_Node000003" class="edge">
<title>Node2&#45;&gt;Node3</title>
<g id="a_edge2_Node000002_Node000003"><a xlink:title=" ">
<path fill="none" stroke="#63b8ff" d="M996.26,-307.99C967.73,-298.05 929.85,-284.86 902.77,-275.43"/>
<polygon fill="#63b8ff" stroke="#63b8ff" points="903.9,-272.12 893.31,-272.14 901.6,-278.73 903.9,-272.12"/>
</a>
</g>
</g>
<!-- Node4 -->
<g id="Node000004" class="node">
<title>Node4</title>
<g id="a_Node000004"><a xlink:href="InterventionData_8h.html" target="_top" xlink:title="Defines the InterventionData structure which holds all information related to an intervention.">
<polygon fill="white" stroke="#666666" points="832,-217 677,-217 677,-187 832,-187 832,-217"/>
<text text-anchor="start" x="685" y="-205" font-family="Helvetica,sans-Serif" font-size="10.00">TechMa/Entities/Intervention</text>
<text text-anchor="middle" x="754.5" y="-194" font-family="Helvetica,sans-Serif" font-size="10.00">Data.h</text>
</a>
</g>
</g>
<!-- Node2&#45;&gt;Node4 -->
<g id="edge21_Node000002_Node000004" class="edge">
<title>Node2&#45;&gt;Node4</title>
<g id="a_edge21_Node000002_Node000004"><a xlink:title=" ">
<path fill="none" stroke="#63b8ff" d="M1025.45,-307.81C1012.37,-292 989.11,-266.86 963.5,-253 926.45,-232.95 881.43,-220.86 842.67,-213.61"/>
<polygon fill="#63b8ff" stroke="#63b8ff" points="842.9,-210.1 832.44,-211.78 841.67,-216.99 842.9,-210.1"/>
</a>
</g>
</g>
<!-- Node14 -->
<g id="Node000014" class="node">
<title>Node14</title>
<g id="a_Node000014"><a xlink:title=" ">
<polygon fill="#e0e0e0" stroke="#999999" points="1117.5,-145.5 1059.5,-145.5 1059.5,-126.5 1117.5,-126.5 1117.5,-145.5"/>
<text text-anchor="middle" x="1088.5" y="-133.5" font-family="Helvetica,sans-Serif" font-size="10.00">memory</text>
</a>
</g>
</g>
<!-- Node2&#45;&gt;Node14 -->
<g id="edge22_Node000002_Node000014" class="edge">
<title>Node2&#45;&gt;Node14</title>
<g id="a_edge22_Node000002_Node000014"><a xlink:title=" ">
<path fill="none" stroke="#63b8ff" d="M1040.49,-307.79C1049.8,-274.67 1072.95,-192.34 1083.32,-155.42"/>
<polygon fill="#63b8ff" stroke="#63b8ff" points="1086.77,-156.1 1086.1,-145.53 1080.03,-154.21 1086.77,-156.1"/>
</a>
</g>
</g>
<!-- Node3&#45;&gt;Node4 -->
<g id="edge3_Node000003_Node000004" class="edge">
<title>Node3&#45;&gt;Node4</title>
<g id="a_edge3_Node000003_Node000004"><a xlink:title=" ">
<path fill="none" stroke="#63b8ff" d="M851.68,-252.87C835.78,-244.71 811.4,-232.2 791.03,-221.75"/>
<polygon fill="#63b8ff" stroke="#63b8ff" points="792.5,-218.57 782.01,-217.11 789.3,-224.79 792.5,-218.57"/>
</a>
</g>
</g>
<!-- Node5 -->
<g id="Node000005" class="node">
<title>Node5</title>
<g id="a_Node000005"><a xlink:href="ATechnician_8h.html" target="_top" xlink:title="Defines the abstract base class ATechnician representing a technician entity.">
<polygon fill="white" stroke="#666666" points="309.5,-145.5 147.5,-145.5 147.5,-126.5 309.5,-126.5 309.5,-145.5"/>
<text text-anchor="middle" x="228.5" y="-133.5" font-family="Helvetica,sans-Serif" font-size="10.00">TechMa/Entities/ATechnician.h</text>
</a>
</g>
</g>
<!-- Node4&#45;&gt;Node5 -->
<g id="edge4_Node000004_Node000005" class="edge">
<title>Node4&#45;&gt;Node5</title>
<g id="a_edge4_Node000004_Node000005"><a xlink:title=" ">
<path fill="none" stroke="#63b8ff" d="M676.89,-191.56C578.12,-179.54 408.37,-158.88 308.48,-146.73"/>
<polygon fill="#63b8ff" stroke="#63b8ff" points="308.79,-143.24 298.44,-145.51 307.94,-150.19 308.79,-143.24"/>
</a>
</g>
</g>
<!-- Node6 -->
<g id="Node000006" class="node">
<title>Node6</title>
<g id="a_Node000006"><a xlink:title=" ">
<polygon fill="#e0e0e0" stroke="#999999" points="463.5,-19 419.5,-19 419.5,0 463.5,0 463.5,-19"/>
<text text-anchor="middle" x="441.5" y="-7" font-family="Helvetica,sans-Serif" font-size="10.00">string</text>
</a>
</g>
</g>
<!-- Node4&#45;&gt;Node6 -->
<g id="edge20_Node000004_Node000006" class="edge">
<title>Node4&#45;&gt;Node6</title>
<g id="a_edge20_Node000004_Node000006"><a xlink:title=" ">
<path fill="none" stroke="#63b8ff" d="M749.18,-186.8C743.9,-170.55 737.51,-143.31 744.5,-121 750.32,-102.41 763.68,-103.59 769.5,-85 773.48,-72.28 778.27,-65.04 769.5,-55 731.31,-11.27 549.06,-8.85 473.96,-9.77"/>
<polygon fill="#63b8ff" stroke="#63b8ff" points="473.63,-6.28 463.69,-9.93 473.74,-13.27 473.63,-6.28"/>
</a>
</g>
</g>
<!-- Node8 -->
<g id="Node000008" class="node">
<title>Node8</title>
<g id="a_Node000008"><a xlink:href="ExpertiseField_8h.html" target="_top" xlink:title="Declares the ExpertiseField enum class representing technician specializations, and a utility functio...">
<polygon fill="white" stroke="#666666" points="165,-79.5 0,-79.5 0,-60.5 165,-60.5 165,-79.5"/>
<text text-anchor="middle" x="82.5" y="-67.5" font-family="Helvetica,sans-Serif" font-size="10.00">TechMa/Types/ExpertiseField.h</text>
</a>
</g>
</g>
<!-- Node4&#45;&gt;Node8 -->
<g id="edge11_Node000004_Node000008" class="edge">
<title>Node4&#45;&gt;Node8</title>
<g id="a_edge11_Node000004_Node000008"><a xlink:title=" ">
<path fill="none" stroke="#63b8ff" d="M676.96,-198.38C521.83,-192.61 184.17,-177.18 138.5,-151 114.3,-137.13 98.08,-108.04 89.57,-89.03"/>
<polygon fill="#63b8ff" stroke="#63b8ff" points="92.74,-87.53 85.64,-79.66 86.28,-90.24 92.74,-87.53"/>
</a>
</g>
</g>
<!-- Node9 -->
<g id="Node000009" class="node">
<title>Node9</title>
<g id="a_Node000009"><a xlink:href="Location_8h.html" target="_top" xlink:title="Defines the GPSCoords and Location structures for representing geographical locations.">
<polygon fill="white" stroke="#666666" points="432.5,-79.5 286.5,-79.5 286.5,-60.5 432.5,-60.5 432.5,-79.5"/>
<text text-anchor="middle" x="359.5" y="-67.5" font-family="Helvetica,sans-Serif" font-size="10.00">TechMa/Entities/Location.h</text>
</a>
</g>
</g>
<!-- Node4&#45;&gt;Node9 -->
<g id="edge9_Node000004_Node000009" class="edge">
<title>Node4&#45;&gt;Node9</title>
<g id="a_edge9_Node000004_Node000009"><a xlink:title=" ">
<path fill="none" stroke="#63b8ff" d="M711.85,-186.96C633.55,-161.19 468.2,-106.78 395.31,-82.78"/>
<polygon fill="#63b8ff" stroke="#63b8ff" points="396.25,-79.41 385.65,-79.61 394.06,-86.06 396.25,-79.41"/>
</a>
</g>
</g>
<!-- Node10 -->
<g id="Node000010" class="node">
<title>Node10</title>
<g id="a_Node000010"><a xlink:href="InterventionComplexity_8h.html" target="_top" xlink:title="Declares the InterventionComplexity enum class representing complexity levels of an intervention.">
<polygon fill="white" stroke="#666666" points="899.5,-151 753.5,-151 753.5,-121 899.5,-121 899.5,-151"/>
<text text-anchor="start" x="761.5" y="-139" font-family="Helvetica,sans-Serif" font-size="10.00">TechMa/Types/Intervention</text>
<text text-anchor="middle" x="826.5" y="-128" font-family="Helvetica,sans-Serif" font-size="10.00">Complexity.h</text>
</a>
</g>
</g>
<!-- Node4&#45;&gt;Node10 -->
<g id="edge12_Node000004_Node000010" class="edge">
<title>Node4&#45;&gt;Node10</title>
<g id="a_edge12_Node000004_Node000010"><a xlink:title=" ">
<path fill="none" stroke="#63b8ff" d="M770.48,-186.8C779.99,-178.34 792.23,-167.46 802.84,-158.03"/>
<polygon fill="#63b8ff" stroke="#63b8ff" points="805.42,-160.42 810.57,-151.16 800.77,-155.19 805.42,-160.42"/>
</a>
</g>
</g>
<!-- Node11 -->
<g id="Node000011" class="node">
<title>Node11</title>
<g id="a_Node000011"><a xlink:href="InterventionStatus_8h.html" target="_top" xlink:title="Declares the InterventionStatus enum and its string conversion function.">
<polygon fill="white" stroke="#666666" points="596.5,-85 450.5,-85 450.5,-55 596.5,-55 596.5,-85"/>
<text text-anchor="start" x="458.5" y="-73" font-family="Helvetica,sans-Serif" font-size="10.00">TechMa/Types/Intervention</text>
<text text-anchor="middle" x="523.5" y="-62" font-family="Helvetica,sans-Serif" font-size="10.00">Status.h</text>
</a>
</g>
</g>
<!-- Node4&#45;&gt;Node11 -->
<g id="edge13_Node000004_Node000011" class="edge">
<title>Node4&#45;&gt;Node11</title>
<g id="a_edge13_Node000004_Node000011"><a xlink:title=" ">
<path fill="none" stroke="#63b8ff" d="M729.34,-186.84C687.68,-163.4 604.34,-116.49 557.49,-90.13"/>
<polygon fill="#63b8ff" stroke="#63b8ff" points="559.06,-87 548.63,-85.14 555.63,-93.1 559.06,-87"/>
</a>
</g>
</g>
<!-- Node12 -->
<g id="Node000012" class="node">
<title>Node12</title>
<g id="a_Node000012"><a xlink:href="InterventionType_8h.html" target="_top" xlink:title="Declares the InterventionType enum class and a string conversion utility.">
<polygon fill="white" stroke="#666666" points="760.5,-85 614.5,-85 614.5,-55 760.5,-55 760.5,-85"/>
<text text-anchor="start" x="622.5" y="-73" font-family="Helvetica,sans-Serif" font-size="10.00">TechMa/Types/Intervention</text>
<text text-anchor="middle" x="687.5" y="-62" font-family="Helvetica,sans-Serif" font-size="10.00">Type.h</text>
</a>
</g>
</g>
<!-- Node4&#45;&gt;Node12 -->
<g id="edge15_Node000004_Node000012" class="edge">
<title>Node4&#45;&gt;Node12</title>
<g id="a_edge15_Node000004_Node000012"><a xlink:title=" ">
<path fill="none" stroke="#63b8ff" d="M739.53,-186.93C730.3,-177.53 718.87,-164.46 711.5,-151 701.9,-133.47 695.68,-111.63 691.99,-95.2"/>
<polygon fill="#63b8ff" stroke="#63b8ff" points="695.39,-94.36 689.91,-85.29 688.53,-95.79 695.39,-94.36"/>
</a>
</g>
</g>
<!-- Node13 -->
<g id="Node000013" class="node">
<title>Node13</title>
<g id="a_Node000013"><a xlink:title=" ">
<polygon fill="#e0e0e0" stroke="#999999" points="967.5,-145.5 917.5,-145.5 917.5,-126.5 967.5,-126.5 967.5,-145.5"/>
<text text-anchor="middle" x="942.5" y="-133.5" font-family="Helvetica,sans-Serif" font-size="10.00">chrono</text>
</a>
</g>
</g>
<!-- Node4&#45;&gt;Node13 -->
<g id="edge17_Node000004_Node000013" class="edge">
<title>Node4&#45;&gt;Node13</title>
<g id="a_edge17_Node000004_Node000013"><a xlink:title=" ">
<path fill="none" stroke="#63b8ff" d="M800.98,-186.93C831.7,-177.38 872.75,-164.14 908.5,-151 909.92,-150.48 911.37,-149.93 912.84,-149.37"/>
<polygon fill="#63b8ff" stroke="#63b8ff" points="914.46,-152.49 922.46,-145.55 911.88,-145.98 914.46,-152.49"/>
</a>
</g>
</g>
<!-- Node4&#45;&gt;Node14 -->
<g id="edge18_Node000004_Node000014" class="edge">
<title>Node4&#45;&gt;Node14</title>
<g id="a_edge18_Node000004_Node000014"><a xlink:title=" ">
<path fill="none" stroke="#63b8ff" d="M832,-191.92C892.21,-183.9 977.47,-170.44 1050.5,-151 1052.94,-150.35 1055.44,-149.61 1057.94,-148.81"/>
<polygon fill="#63b8ff" stroke="#63b8ff" points="1059.1,-152.11 1067.42,-145.56 1056.83,-145.49 1059.1,-152.11"/>
</a>
</g>
</g>
<!-- Node15 -->
<g id="Node000015" class="node">
<title>Node15</title>
<g id="a_Node000015"><a xlink:title=" ">
<polygon fill="#e0e0e0" stroke="#999999" points="1041.5,-145.5 985.5,-145.5 985.5,-126.5 1041.5,-126.5 1041.5,-145.5"/>
<text text-anchor="middle" x="1013.5" y="-133.5" font-family="Helvetica,sans-Serif" font-size="10.00">optional</text>
</a>
</g>
</g>
<!-- Node4&#45;&gt;Node15 -->
<g id="edge19_Node000004_Node000015" class="edge">
<title>Node4&#45;&gt;Node15</title>
<g id="a_edge19_Node000004_Node000015"><a xlink:title=" ">
<path fill="none" stroke="#63b8ff" d="M828.92,-186.96C872.35,-178.09 927.97,-165.57 976.5,-151 978.64,-150.36 980.83,-149.65 983.03,-148.91"/>
<polygon fill="#63b8ff" stroke="#63b8ff" points="984.3,-152.17 992.54,-145.51 981.95,-145.58 984.3,-152.17"/>
</a>
</g>
</g>
<!-- Node5&#45;&gt;Node6 -->
<g id="edge5_Node000005_Node000006" class="edge">
<title>Node5&#45;&gt;Node6</title>
<g id="a_edge5_Node000005_Node000006"><a xlink:title=" ">
<path fill="none" stroke="#63b8ff" d="M231.37,-126.27C237.27,-109.75 252.35,-73.85 277.5,-55 316.55,-25.74 373.59,-15.71 409.08,-12.28"/>
<polygon fill="#63b8ff" stroke="#63b8ff" points="409.69,-15.74 419.36,-11.41 409.1,-8.77 409.69,-15.74"/>
</a>
</g>
</g>
<!-- Node7 -->
<g id="Node000007" class="node">
<title>Node7</title>
<g id="a_Node000007"><a xlink:title=" ">
<polygon fill="#e0e0e0" stroke="#999999" points="230,-79.5 183,-79.5 183,-60.5 230,-60.5 230,-79.5"/>
<text text-anchor="middle" x="206.5" y="-67.5" font-family="Helvetica,sans-Serif" font-size="10.00">vector</text>
</a>
</g>
</g>
<!-- Node5&#45;&gt;Node7 -->
<g id="edge6_Node000005_Node000007" class="edge">
<title>Node5&#45;&gt;Node7</title>
<g id="a_edge6_Node000005_Node000007"><a xlink:title=" ">
<path fill="none" stroke="#63b8ff" d="M225.53,-126.37C222.3,-116.97 217.04,-101.67 212.87,-89.53"/>
<polygon fill="#63b8ff" stroke="#63b8ff" points="216.12,-88.22 209.56,-79.91 209.5,-90.5 216.12,-88.22"/>
</a>
</g>
</g>
<!-- Node5&#45;&gt;Node8 -->
<g id="edge7_Node000005_Node000008" class="edge">
<title>Node5&#45;&gt;Node8</title>
<g id="a_edge7_Node000005_Node000008"><a xlink:title=" ">
<path fill="none" stroke="#63b8ff" d="M208.81,-126.37C183.77,-115.39 140.35,-96.36 111.52,-83.72"/>
<polygon fill="#63b8ff" stroke="#63b8ff" points="112.91,-80.51 102.34,-79.7 110.1,-86.92 112.91,-80.51"/>
</a>
</g>
</g>
<!-- Node8&#45;&gt;Node6 -->
<g id="edge8_Node000008_Node000006" class="edge">
<title>Node8&#45;&gt;Node6</title>
<g id="a_edge8_Node000008_Node000006"><a xlink:title=" ">
<path fill="none" stroke="#63b8ff" d="M134.7,-60.49C210.07,-48.21 347.14,-25.88 409.31,-15.75"/>
<polygon fill="#63b8ff" stroke="#63b8ff" points="410.01,-19.18 419.32,-14.11 408.88,-12.27 410.01,-19.18"/>
</a>
</g>
</g>
<!-- Node9&#45;&gt;Node6 -->
<g id="edge10_Node000009_Node000006" class="edge">
<title>Node9&#45;&gt;Node6</title>
<g id="a_edge10_Node000009_Node000006"><a xlink:title=" ">
<path fill="none" stroke="#63b8ff" d="M371.6,-60.37C384.56,-51.12 405.36,-36.28 420.9,-25.19"/>
<polygon fill="#63b8ff" stroke="#63b8ff" points="423.24,-27.82 429.35,-19.17 419.18,-22.13 423.24,-27.82"/>
</a>
</g>
</g>
<!-- Node11&#45;&gt;Node6 -->
<g id="edge14_Node000011_Node000006" class="edge">
<title>Node11&#45;&gt;Node6</title>
<g id="a_edge14_Node000011_Node000006"><a xlink:title=" ">
<path fill="none" stroke="#63b8ff" d="M503.65,-54.84C491.02,-45.83 474.7,-34.18 461.95,-25.09"/>
<polygon fill="#63b8ff" stroke="#63b8ff" points="463.96,-22.22 453.79,-19.27 459.9,-27.92 463.96,-22.22"/>
</a>
</g>
</g>
<!-- Node12&#45;&gt;Node6 -->
<g id="edge16_Node000012_Node000006" class="edge">
<title>Node12&#45;&gt;Node6</title>
<g id="a_edge16_Node000012_Node000006"><a xlink:title=" ">
<path fill="none" stroke="#63b8ff" d="M628.58,-54.99C579.91,-43.41 512.67,-27.42 473.46,-18.1"/>
<polygon fill="#63b8ff" stroke="#63b8ff" points="474.19,-14.68 463.66,-15.77 472.57,-21.49 474.19,-14.68"/>
</a>
</g>
</g>
<!-- Node16&#45;&gt;Node3 -->
<g id="edge24_Node000016_Node000003" class="edge">
<title>Node16&#45;&gt;Node3</title>
<g id="a_edge24_Node000016_Node000003"><a xlink:title=" ">
<path fill="none" stroke="#63b8ff" d="M866.23,-307.84C866.62,-300.21 867.1,-290.7 867.53,-282.45"/>
<polygon fill="#63b8ff" stroke="#63b8ff" points="871.03,-282.43 868.05,-272.27 864.04,-282.07 871.03,-282.43"/>
</a>
</g>
</g>
<!-- Node16&#45;&gt;Node4 -->
<g id="edge25_Node000016_Node000004" class="edge">
<title>Node16&#45;&gt;Node4</title>
<g id="a_edge25_Node000016_Node000004"><a xlink:title=" ">
<path fill="none" stroke="#63b8ff" d="M823.87,-307.9C806.04,-299.92 786.38,-288.23 773.5,-272 763.41,-259.28 758.67,-241.57 756.44,-227.27"/>
<polygon fill="#63b8ff" stroke="#63b8ff" points="759.89,-226.64 755.19,-217.14 752.95,-227.5 759.89,-226.64"/>
</a>
</g>
</g>
<!-- Node16&#45;&gt;Node14 -->
<g id="edge26_Node000016_Node000014" class="edge">
<title>Node16&#45;&gt;Node14</title>
<g id="a_edge26_Node000016_Node000014"><a xlink:title=" ">
<path fill="none" stroke="#63b8ff" d="M900.34,-307.86C919.89,-299.06 944.16,-286.64 963.5,-272 1010.87,-236.15 1055.38,-181.14 1076.19,-153.73"/>
<polygon fill="#63b8ff" stroke="#63b8ff" points="1079.12,-155.66 1082.31,-145.56 1073.51,-151.47 1079.12,-155.66"/>
</a>
</g>
</g>
</g>
</svg>
