<?xml version="1.0" encoding="UTF-8" standalone="no"?>
<!DOCTYPE svg PUBLIC "-//W3C//DTD SVG 1.1//EN"
 "http://www.w3.org/Graphics/SVG/1.1/DTD/svg11.dtd">
<!-- Generated by graphviz version 2.43.0 (0)
 -->
<!-- Title: src/Factory/InterventionFactory.cpp Pages: 1 -->
<svg width="800pt" height="412pt"
 viewBox="0.00 0.00 800.29 412.00" xmlns="http://www.w3.org/2000/svg" xmlns:xlink="http://www.w3.org/1999/xlink">
<g id="graph0" class="graph" transform="scale(1 1) rotate(0) translate(4 408)">
<title>src/Factory/InterventionFactory.cpp</title>
<!-- Node1 -->
<g id="Node000001" class="node">
<title>Node1</title>
<g id="a_Node000001"><a xlink:title="Implements the InterventionFactory class.">
<polygon fill="#999999" stroke="#666666" points="649.79,-404 518.79,-404 518.79,-374 649.79,-374 649.79,-404"/>
<text text-anchor="start" x="526.79" y="-392" font-family="Helvetica,sans-Serif" font-size="10.00">src/Factory/Intervention</text>
<text text-anchor="middle" x="584.29" y="-381" font-family="Helvetica,sans-Serif" font-size="10.00">Factory.cpp</text>
</a>
</g>
</g>
<!-- Node2 -->
<g id="Node000002" class="node">
<title>Node2</title>
<g id="a_Node000002"><a xlink:href="InterventionFactory_8h.html" target="_top" xlink:title="Declares the InterventionFactory class responsible for creating intervention instances.">
<polygon fill="white" stroke="#666666" points="744.29,-338 590.29,-338 590.29,-308 744.29,-308 744.29,-338"/>
<text text-anchor="start" x="598.29" y="-326" font-family="Helvetica,sans-Serif" font-size="10.00">TechMa/Factory/Intervention</text>
<text text-anchor="middle" x="667.29" y="-315" font-family="Helvetica,sans-Serif" font-size="10.00">Factory.h</text>
</a>
</g>
</g>
<!-- Node1&#45;&gt;Node2 -->
<g id="edge1_Node000001_Node000002" class="edge">
<title>Node1&#45;&gt;Node2</title>
<g id="a_edge1_Node000001_Node000002"><a xlink:title=" ">
<path fill="none" stroke="#63b8ff" d="M602.72,-373.8C613.89,-365.18 628.34,-354.04 640.74,-344.48"/>
<polygon fill="#63b8ff" stroke="#63b8ff" points="643.14,-347.04 648.93,-338.16 638.87,-341.5 643.14,-347.04"/>
</a>
</g>
</g>
<!-- Node16 -->
<g id="Node000016" class="node">
<title>Node16</title>
<g id="a_Node000016"><a xlink:href="ConcreteIntervention_8h.html" target="_top" xlink:title="Declares the ConcreteIntervention class, a concrete implementation of AIntervention.">
<polygon fill="white" stroke="#666666" points="572.29,-338 432.29,-338 432.29,-308 572.29,-308 572.29,-338"/>
<text text-anchor="start" x="440.29" y="-326" font-family="Helvetica,sans-Serif" font-size="10.00">TechMa/Entities/Concrete</text>
<text text-anchor="middle" x="502.29" y="-315" font-family="Helvetica,sans-Serif" font-size="10.00">Intervention.h</text>
</a>
</g>
</g>
<!-- Node1&#45;&gt;Node16 -->
<g id="edge23_Node000001_Node000016" class="edge">
<title>Node1&#45;&gt;Node16</title>
<g id="a_edge23_Node000001_Node000016"><a xlink:title=" ">
<path fill="none" stroke="#63b8ff" d="M566.1,-373.8C555.06,-365.18 540.78,-354.04 528.53,-344.48"/>
<polygon fill="#63b8ff" stroke="#63b8ff" points="530.48,-341.56 520.44,-338.16 526.17,-347.08 530.48,-341.56"/>
</a>
</g>
</g>
<!-- Node3 -->
<g id="Node000003" class="node">
<title>Node3</title>
<g id="a_Node000003"><a xlink:href="AIntervention_8h.html" target="_top" xlink:title="Defines the abstract base class AIntervention for representing interventions.">
<polygon fill="white" stroke="#666666" points="611.79,-272 440.79,-272 440.79,-253 611.79,-253 611.79,-272"/>
<text text-anchor="middle" x="526.29" y="-260" font-family="Helvetica,sans-Serif" font-size="10.00">TechMa/Entities/AIntervention.h</text>
</a>
</g>
</g>
<!-- Node2&#45;&gt;Node3 -->
<g id="edge2_Node000002_Node000003" class="edge">
<title>Node2&#45;&gt;Node3</title>
<g id="a_edge2_Node000002_Node000003"><a xlink:title=" ">
<path fill="none" stroke="#63b8ff" d="M633.52,-307.99C610.1,-298.27 579.18,-285.44 556.56,-276.06"/>
<polygon fill="#63b8ff" stroke="#63b8ff" points="557.7,-272.74 547.12,-272.14 555.01,-279.2 557.7,-272.74"/>
</a>
</g>
</g>
<!-- Node4 -->
<g id="Node000004" class="node">
<title>Node4</title>
<g id="a_Node000004"><a xlink:href="InterventionData_8h.html" target="_top" xlink:title="Defines the InterventionData structure which holds all information related to an intervention.">
<polygon fill="white" stroke="#666666" points="603.79,-217 448.79,-217 448.79,-187 603.79,-187 603.79,-217"/>
<text text-anchor="start" x="456.79" y="-205" font-family="Helvetica,sans-Serif" font-size="10.00">TechMa/Entities/Intervention</text>
<text text-anchor="middle" x="526.29" y="-194" font-family="Helvetica,sans-Serif" font-size="10.00">Data.h</text>
</a>
</g>
</g>
<!-- Node2&#45;&gt;Node4 -->
<g id="edge21_Node000002_Node000004" class="edge">
<title>Node2&#45;&gt;Node4</title>
<g id="a_edge21_Node000002_Node000004"><a xlink:title=" ">
<path fill="none" stroke="#63b8ff" d="M660.54,-307.8C652.78,-292.68 638.83,-268.81 621.29,-253 606.93,-240.05 588.6,-229.38 571.88,-221.27"/>
<polygon fill="#63b8ff" stroke="#63b8ff" points="573.33,-218.09 562.79,-217.03 570.37,-224.43 573.33,-218.09"/>
</a>
</g>
</g>
<!-- Node14 -->
<g id="Node000014" class="node">
<title>Node14</title>
<g id="a_Node000014"><a xlink:title=" ">
<polygon fill="#e0e0e0" stroke="#999999" points="792.29,-145.5 734.29,-145.5 734.29,-126.5 792.29,-126.5 792.29,-145.5"/>
<text text-anchor="middle" x="763.29" y="-133.5" font-family="Helvetica,sans-Serif" font-size="10.00">memory</text>
</a>
</g>
</g>
<!-- Node2&#45;&gt;Node14 -->
<g id="edge22_Node000002_Node000014" class="edge">
<title>Node2&#45;&gt;Node14</title>
<g id="a_edge22_Node000002_Node000014"><a xlink:title=" ">
<path fill="none" stroke="#63b8ff" d="M674.67,-307.79C692.01,-274.38 735.32,-190.92 754.22,-154.48"/>
<polygon fill="#63b8ff" stroke="#63b8ff" points="757.37,-156.02 758.87,-145.53 751.16,-152.79 757.37,-156.02"/>
</a>
</g>
</g>
<!-- Node3&#45;&gt;Node4 -->
<g id="edge3_Node000003_Node000004" class="edge">
<title>Node3&#45;&gt;Node4</title>
<g id="a_edge3_Node000003_Node000004"><a xlink:title=" ">
<path fill="none" stroke="#63b8ff" d="M526.29,-252.87C526.29,-246.11 526.29,-236.35 526.29,-227.26"/>
<polygon fill="#63b8ff" stroke="#63b8ff" points="529.8,-227.11 526.29,-217.11 522.8,-227.11 529.8,-227.11"/>
</a>
</g>
</g>
<!-- Node5 -->
<g id="Node000005" class="node">
<title>Node5</title>
<g id="a_Node000005"><a xlink:href="ATechnician_8h.html" target="_top" xlink:title="Defines the abstract base class ATechnician representing a technician entity.">
<polygon fill="white" stroke="#666666" points="164.29,-145.5 2.29,-145.5 2.29,-126.5 164.29,-126.5 164.29,-145.5"/>
<text text-anchor="middle" x="83.29" y="-133.5" font-family="Helvetica,sans-Serif" font-size="10.00">TechMa/Entities/ATechnician.h</text>
</a>
</g>
</g>
<!-- Node4&#45;&gt;Node5 -->
<g id="edge4_Node000004_Node000005" class="edge">
<title>Node4&#45;&gt;Node5</title>
<g id="a_edge4_Node000004_Node000005"><a xlink:title=" ">
<path fill="none" stroke="#63b8ff" d="M448.62,-189.78C364.86,-177.68 232.75,-158.59 152.45,-146.99"/>
<polygon fill="#63b8ff" stroke="#63b8ff" points="152.83,-143.51 142.44,-145.54 151.83,-150.44 152.83,-143.51"/>
</a>
</g>
</g>
<!-- Node6 -->
<g id="Node000006" class="node">
<title>Node6</title>
<g id="a_Node000006"><a xlink:title=" ">
<polygon fill="#e0e0e0" stroke="#999999" points="346.29,-19 302.29,-19 302.29,0 346.29,0 346.29,-19"/>
<text text-anchor="middle" x="324.29" y="-7" font-family="Helvetica,sans-Serif" font-size="10.00">string</text>
</a>
</g>
</g>
<!-- Node4&#45;&gt;Node6 -->
<g id="edge20_Node000004_Node000006" class="edge">
<title>Node4&#45;&gt;Node6</title>
<g id="a_edge20_Node000004_Node000006"><a xlink:title=" ">
<path fill="none" stroke="#63b8ff" d="M448.54,-194.25C411.11,-187.82 367.3,-175.31 334.29,-151 296.94,-123.49 279.4,-99.26 293.29,-55 296.53,-44.71 303.07,-34.72 309.32,-26.82"/>
<polygon fill="#63b8ff" stroke="#63b8ff" points="312.02,-29.04 315.81,-19.15 306.68,-24.52 312.02,-29.04"/>
</a>
</g>
</g>
<!-- Node8 -->
<g id="Node000008" class="node">
<title>Node8</title>
<g id="a_Node000008"><a xlink:href="ExpertiseField_8h.html" target="_top" xlink:title="Declares the ExpertiseField enum class representing technician specializations, and a utility functio...">
<polygon fill="white" stroke="#666666" points="245.79,-79.5 80.79,-79.5 80.79,-60.5 245.79,-60.5 245.79,-79.5"/>
<text text-anchor="middle" x="163.29" y="-67.5" font-family="Helvetica,sans-Serif" font-size="10.00">TechMa/Types/ExpertiseField.h</text>
</a>
</g>
</g>
<!-- Node4&#45;&gt;Node8 -->
<g id="edge11_Node000004_Node000008" class="edge">
<title>Node4&#45;&gt;Node8</title>
<g id="a_edge11_Node000004_Node000008"><a xlink:title=" ">
<path fill="none" stroke="#63b8ff" d="M448.64,-196.68C393.85,-191.22 319.88,-178.88 260.29,-151 226.88,-135.36 195.31,-105.51 177.71,-87.02"/>
<polygon fill="#63b8ff" stroke="#63b8ff" points="180.23,-84.59 170.86,-79.65 175.1,-89.35 180.23,-84.59"/>
</a>
</g>
</g>
<!-- Node9 -->
<g id="Node000009" class="node">
<title>Node9</title>
<g id="a_Node000009"><a xlink:href="Location_8h.html" target="_top" xlink:title="Defines the GPSCoords and Location structures for representing geographical locations.">
<polygon fill="white" stroke="#666666" points="448.29,-79.5 302.29,-79.5 302.29,-60.5 448.29,-60.5 448.29,-79.5"/>
<text text-anchor="middle" x="375.29" y="-67.5" font-family="Helvetica,sans-Serif" font-size="10.00">TechMa/Entities/Location.h</text>
</a>
</g>
</g>
<!-- Node4&#45;&gt;Node9 -->
<g id="edge9_Node000004_Node000009" class="edge">
<title>Node4&#45;&gt;Node9</title>
<g id="a_edge9_Node000004_Node000009"><a xlink:title=" ">
<path fill="none" stroke="#63b8ff" d="M448.37,-189.33C404.73,-181.03 356.49,-168.28 343.29,-151 328.47,-131.59 345.58,-104.39 359.91,-87.24"/>
<polygon fill="#63b8ff" stroke="#63b8ff" points="362.57,-89.52 366.57,-79.71 357.33,-84.88 362.57,-89.52"/>
</a>
</g>
</g>
<!-- Node10 -->
<g id="Node000010" class="node">
<title>Node10</title>
<g id="a_Node000010"><a xlink:href="InterventionComplexity_8h.html" target="_top" xlink:title="Declares the InterventionComplexity enum class representing complexity levels of an intervention.">
<polygon fill="white" stroke="#666666" points="498.29,-151 352.29,-151 352.29,-121 498.29,-121 498.29,-151"/>
<text text-anchor="start" x="360.29" y="-139" font-family="Helvetica,sans-Serif" font-size="10.00">TechMa/Types/Intervention</text>
<text text-anchor="middle" x="425.29" y="-128" font-family="Helvetica,sans-Serif" font-size="10.00">Complexity.h</text>
</a>
</g>
</g>
<!-- Node4&#45;&gt;Node10 -->
<g id="edge12_Node000004_Node000010" class="edge">
<title>Node4&#45;&gt;Node10</title>
<g id="a_edge12_Node000004_Node000010"><a xlink:title=" ">
<path fill="none" stroke="#63b8ff" d="M503.88,-186.8C489.89,-177.93 471.68,-166.39 456.31,-156.66"/>
<polygon fill="#63b8ff" stroke="#63b8ff" points="457.97,-153.56 447.65,-151.16 454.22,-159.47 457.97,-153.56"/>
</a>
</g>
</g>
<!-- Node11 -->
<g id="Node000011" class="node">
<title>Node11</title>
<g id="a_Node000011"><a xlink:href="InterventionStatus_8h.html" target="_top" xlink:title="Declares the InterventionStatus enum and its string conversion function.">
<polygon fill="white" stroke="#666666" points="612.29,-85 466.29,-85 466.29,-55 612.29,-55 612.29,-85"/>
<text text-anchor="start" x="474.29" y="-73" font-family="Helvetica,sans-Serif" font-size="10.00">TechMa/Types/Intervention</text>
<text text-anchor="middle" x="539.29" y="-62" font-family="Helvetica,sans-Serif" font-size="10.00">Status.h</text>
</a>
</g>
</g>
<!-- Node4&#45;&gt;Node11 -->
<g id="edge13_Node000004_Node000011" class="edge">
<title>Node4&#45;&gt;Node11</title>
<g id="a_edge13_Node000004_Node000011"><a xlink:title=" ">
<path fill="none" stroke="#63b8ff" d="M527.71,-186.84C529.91,-164.86 534.17,-122.27 536.86,-95.3"/>
<polygon fill="#63b8ff" stroke="#63b8ff" points="540.37,-95.44 537.88,-85.14 533.4,-94.74 540.37,-95.44"/>
</a>
</g>
</g>
<!-- Node12 -->
<g id="Node000012" class="node">
<title>Node12</title>
<g id="a_Node000012"><a xlink:href="InterventionType_8h.html" target="_top" xlink:title="Declares the InterventionType enum class and a string conversion utility.">
<polygon fill="white" stroke="#666666" points="776.29,-85 630.29,-85 630.29,-55 776.29,-55 776.29,-85"/>
<text text-anchor="start" x="638.29" y="-73" font-family="Helvetica,sans-Serif" font-size="10.00">TechMa/Types/Intervention</text>
<text text-anchor="middle" x="703.29" y="-62" font-family="Helvetica,sans-Serif" font-size="10.00">Type.h</text>
</a>
</g>
</g>
<!-- Node4&#45;&gt;Node12 -->
<g id="edge15_Node000004_Node000012" class="edge">
<title>Node4&#45;&gt;Node12</title>
<g id="a_edge15_Node000004_Node000012"><a xlink:title=" ">
<path fill="none" stroke="#63b8ff" d="M533.27,-186.72C542.52,-169.12 560.36,-139.29 583.29,-121 600.81,-107.03 622.79,-96.37 643.13,-88.56"/>
<polygon fill="#63b8ff" stroke="#63b8ff" points="644.47,-91.8 652.65,-85.07 642.06,-85.23 644.47,-91.8"/>
</a>
</g>
</g>
<!-- Node13 -->
<g id="Node000013" class="node">
<title>Node13</title>
<g id="a_Node000013"><a xlink:title=" ">
<polygon fill="#e0e0e0" stroke="#999999" points="642.29,-145.5 592.29,-145.5 592.29,-126.5 642.29,-126.5 642.29,-145.5"/>
<text text-anchor="middle" x="617.29" y="-133.5" font-family="Helvetica,sans-Serif" font-size="10.00">chrono</text>
</a>
</g>
</g>
<!-- Node4&#45;&gt;Node13 -->
<g id="edge17_Node000004_Node000013" class="edge">
<title>Node4&#45;&gt;Node13</title>
<g id="a_edge17_Node000004_Node000013"><a xlink:title=" ">
<path fill="none" stroke="#63b8ff" d="M546.49,-186.8C561.32,-176.37 581.41,-162.24 596.4,-151.69"/>
<polygon fill="#63b8ff" stroke="#63b8ff" points="598.82,-154.27 604.98,-145.66 594.79,-148.55 598.82,-154.27"/>
</a>
</g>
</g>
<!-- Node4&#45;&gt;Node14 -->
<g id="edge18_Node000004_Node000014" class="edge">
<title>Node4&#45;&gt;Node14</title>
<g id="a_edge18_Node000004_Node000014"><a xlink:title=" ">
<path fill="none" stroke="#63b8ff" d="M589.51,-186.94C628.86,-177.74 680.37,-164.88 725.29,-151 727.42,-150.34 729.61,-149.63 731.8,-148.9"/>
<polygon fill="#63b8ff" stroke="#63b8ff" points="733.05,-152.16 741.33,-145.55 730.73,-145.56 733.05,-152.16"/>
</a>
</g>
</g>
<!-- Node15 -->
<g id="Node000015" class="node">
<title>Node15</title>
<g id="a_Node000015"><a xlink:title=" ">
<polygon fill="#e0e0e0" stroke="#999999" points="716.29,-145.5 660.29,-145.5 660.29,-126.5 716.29,-126.5 716.29,-145.5"/>
<text text-anchor="middle" x="688.29" y="-133.5" font-family="Helvetica,sans-Serif" font-size="10.00">optional</text>
</a>
</g>
</g>
<!-- Node4&#45;&gt;Node15 -->
<g id="edge19_Node000004_Node000015" class="edge">
<title>Node4&#45;&gt;Node15</title>
<g id="a_edge19_Node000004_Node000015"><a xlink:title=" ">
<path fill="none" stroke="#63b8ff" d="M561.85,-186.95C590.38,-175.68 630.04,-160.01 657.3,-149.25"/>
<polygon fill="#63b8ff" stroke="#63b8ff" points="658.72,-152.45 666.74,-145.52 656.15,-145.94 658.72,-152.45"/>
</a>
</g>
</g>
<!-- Node5&#45;&gt;Node6 -->
<g id="edge5_Node000005_Node000006" class="edge">
<title>Node5&#45;&gt;Node6</title>
<g id="a_edge5_Node000005_Node000006"><a xlink:title=" ">
<path fill="none" stroke="#63b8ff" d="M63.89,-126.39C34.07,-112.03 -17.24,-82.05 6.29,-55 43.08,-12.71 218.32,-9.4 291.78,-9.93"/>
<polygon fill="#63b8ff" stroke="#63b8ff" points="291.81,-13.43 301.85,-10.03 291.89,-6.43 291.81,-13.43"/>
</a>
</g>
</g>
<!-- Node7 -->
<g id="Node000007" class="node">
<title>Node7</title>
<g id="a_Node000007"><a xlink:title=" ">
<polygon fill="#e0e0e0" stroke="#999999" points="62.79,-79.5 15.79,-79.5 15.79,-60.5 62.79,-60.5 62.79,-79.5"/>
<text text-anchor="middle" x="39.29" y="-67.5" font-family="Helvetica,sans-Serif" font-size="10.00">vector</text>
</a>
</g>
</g>
<!-- Node5&#45;&gt;Node7 -->
<g id="edge6_Node000005_Node000007" class="edge">
<title>Node5&#45;&gt;Node7</title>
<g id="a_edge6_Node000005_Node000007"><a xlink:title=" ">
<path fill="none" stroke="#63b8ff" d="M77.36,-126.37C70.71,-116.69 59.74,-100.74 51.28,-88.44"/>
<polygon fill="#63b8ff" stroke="#63b8ff" points="53.97,-86.16 45.42,-79.91 48.2,-90.13 53.97,-86.16"/>
</a>
</g>
</g>
<!-- Node5&#45;&gt;Node8 -->
<g id="edge7_Node000005_Node000008" class="edge">
<title>Node5&#45;&gt;Node8</title>
<g id="a_edge7_Node000005_Node000008"><a xlink:title=" ">
<path fill="none" stroke="#63b8ff" d="M94.08,-126.37C106.97,-116.06 128.74,-98.65 144.43,-86.09"/>
<polygon fill="#63b8ff" stroke="#63b8ff" points="146.8,-88.68 152.42,-79.7 142.43,-83.21 146.8,-88.68"/>
</a>
</g>
</g>
<!-- Node8&#45;&gt;Node6 -->
<g id="edge8_Node000008_Node000006" class="edge">
<title>Node8&#45;&gt;Node6</title>
<g id="a_edge8_Node000008_Node000006"><a xlink:title=" ">
<path fill="none" stroke="#63b8ff" d="M186.71,-60.49C214.64,-50.34 261.48,-33.32 292.63,-22.01"/>
<polygon fill="#63b8ff" stroke="#63b8ff" points="293.95,-25.25 302.15,-18.55 291.56,-18.67 293.95,-25.25"/>
</a>
</g>
</g>
<!-- Node9&#45;&gt;Node6 -->
<g id="edge10_Node000009_Node000006" class="edge">
<title>Node9&#45;&gt;Node6</title>
<g id="a_edge10_Node000009_Node000006"><a xlink:title=" ">
<path fill="none" stroke="#63b8ff" d="M367.77,-60.37C360.09,-51.55 347.97,-37.66 338.48,-26.77"/>
<polygon fill="#63b8ff" stroke="#63b8ff" points="341.06,-24.41 331.85,-19.17 335.78,-29.01 341.06,-24.41"/>
</a>
</g>
</g>
<!-- Node11&#45;&gt;Node6 -->
<g id="edge14_Node000011_Node000006" class="edge">
<title>Node11&#45;&gt;Node6</title>
<g id="a_edge14_Node000011_Node000006"><a xlink:title=" ">
<path fill="none" stroke="#63b8ff" d="M487.8,-54.99C446.93,-43.87 391.08,-28.67 356.37,-19.23"/>
<polygon fill="#63b8ff" stroke="#63b8ff" points="356.89,-15.74 346.32,-16.49 355.05,-22.5 356.89,-15.74"/>
</a>
</g>
</g>
<!-- Node12&#45;&gt;Node6 -->
<g id="edge16_Node000012_Node000006" class="edge">
<title>Node12&#45;&gt;Node6</title>
<g id="a_edge16_Node000012_Node000006"><a xlink:title=" ">
<path fill="none" stroke="#63b8ff" d="M629.99,-56.41C627.05,-55.93 624.15,-55.46 621.29,-55 525.01,-39.57 410.89,-22.93 356.38,-15.09"/>
<polygon fill="#63b8ff" stroke="#63b8ff" points="356.7,-11.6 346.3,-13.64 355.7,-18.53 356.7,-11.6"/>
</a>
</g>
</g>
<!-- Node16&#45;&gt;Node3 -->
<g id="edge24_Node000016_Node000003" class="edge">
<title>Node16&#45;&gt;Node3</title>
<g id="a_edge24_Node000016_Node000003"><a xlink:title=" ">
<path fill="none" stroke="#63b8ff" d="M508.1,-307.84C511.34,-299.95 515.4,-290.05 518.87,-281.61"/>
<polygon fill="#63b8ff" stroke="#63b8ff" points="522.14,-282.85 522.7,-272.27 515.66,-280.19 522.14,-282.85"/>
</a>
</g>
</g>
</g>
</svg>
