<?xml version="1.0" encoding="UTF-8" standalone="no"?>
<!DOCTYPE svg PUBLIC "-//W3C//DTD SVG 1.1//EN"
 "http://www.w3.org/Graphics/SVG/1.1/DTD/svg11.dtd">
<!-- Generated by graphviz version 2.43.0 (0)
 -->
<!-- Title: include/TechMa/Repository/InterventionRepository.h Pages: 1 -->
<svg width="1112pt" height="346pt"
 viewBox="0.00 0.00 1111.50 346.00" xmlns="http://www.w3.org/2000/svg" xmlns:xlink="http://www.w3.org/1999/xlink">
<g id="graph0" class="graph" transform="scale(1 1) rotate(0) translate(4 342)">
<title>include/TechMa/Repository/InterventionRepository.h</title>
<!-- Node1 -->
<g id="Node000001" class="node">
<title>Node1</title>
<g id="a_Node000001"><a xlink:title="Declares the InterventionRepository class, which manages storage and access to interventions.">
<polygon fill="#999999" stroke="#666666" points="962.5,-338 815.5,-338 815.5,-308 962.5,-308 962.5,-338"/>
<text text-anchor="start" x="823.5" y="-326" font-family="Helvetica,sans-Serif" font-size="10.00">include/TechMa/Repository</text>
<text text-anchor="middle" x="889" y="-315" font-family="Helvetica,sans-Serif" font-size="10.00">/InterventionRepository.h</text>
</a>
</g>
</g>
<!-- Node2 -->
<g id="Node000002" class="node">
<title>Node2</title>
<g id="a_Node000002"><a xlink:href="AIntervention_8h.html" target="_top" xlink:title="Defines the abstract base class AIntervention for representing interventions.">
<polygon fill="white" stroke="#666666" points="677.5,-272 506.5,-272 506.5,-253 677.5,-253 677.5,-272"/>
<text text-anchor="middle" x="592" y="-260" font-family="Helvetica,sans-Serif" font-size="10.00">TechMa/Entities/AIntervention.h</text>
</a>
</g>
</g>
<!-- Node1&#45;&gt;Node2 -->
<g id="edge1_Node000001_Node000002" class="edge">
<title>Node1&#45;&gt;Node2</title>
<g id="a_edge1_Node000001_Node000002"><a xlink:title=" ">
<path fill="none" stroke="#63b8ff" d="M817.86,-307.99C764.83,-297.54 693.54,-283.5 645.34,-274.01"/>
<polygon fill="#63b8ff" stroke="#63b8ff" points="645.91,-270.55 635.43,-272.05 644.56,-277.42 645.91,-270.55"/>
</a>
</g>
</g>
<!-- Node6 -->
<g id="Node000006" class="node">
<title>Node6</title>
<g id="a_Node000006"><a xlink:title=" ">
<polygon fill="#e0e0e0" stroke="#999999" points="865.5,-79.5 818.5,-79.5 818.5,-60.5 865.5,-60.5 865.5,-79.5"/>
<text text-anchor="middle" x="842" y="-67.5" font-family="Helvetica,sans-Serif" font-size="10.00">vector</text>
</a>
</g>
</g>
<!-- Node1&#45;&gt;Node6 -->
<g id="edge24_Node000001_Node000006" class="edge">
<title>Node1&#45;&gt;Node6</title>
<g id="a_edge24_Node000001_Node000006"><a xlink:title=" ">
<path fill="none" stroke="#63b8ff" d="M892.48,-307.92C900.09,-274.14 915.53,-186.5 889,-121 883.42,-107.23 872.13,-95.02 862.01,-86.11"/>
<polygon fill="#63b8ff" stroke="#63b8ff" points="864.22,-83.39 854.28,-79.7 859.75,-88.78 864.22,-83.39"/>
</a>
</g>
</g>
<!-- Node13 -->
<g id="Node000013" class="node">
<title>Node13</title>
<g id="a_Node000013"><a xlink:title=" ">
<polygon fill="#e0e0e0" stroke="#999999" points="806,-145.5 748,-145.5 748,-126.5 806,-126.5 806,-145.5"/>
<text text-anchor="middle" x="777" y="-133.5" font-family="Helvetica,sans-Serif" font-size="10.00">memory</text>
</a>
</g>
</g>
<!-- Node1&#45;&gt;Node13 -->
<g id="edge21_Node000001_Node000013" class="edge">
<title>Node1&#45;&gt;Node13</title>
<g id="a_edge21_Node000001_Node000013"><a xlink:title=" ">
<path fill="none" stroke="#63b8ff" d="M880.4,-307.79C860.17,-274.38 809.64,-190.92 787.58,-154.48"/>
<polygon fill="#63b8ff" stroke="#63b8ff" points="790.34,-152.27 782.16,-145.53 784.35,-155.9 790.34,-152.27"/>
</a>
</g>
</g>
<!-- Node14 -->
<g id="Node000014" class="node">
<title>Node14</title>
<g id="a_Node000014"><a xlink:title=" ">
<polygon fill="#e0e0e0" stroke="#999999" points="880,-145.5 824,-145.5 824,-126.5 880,-126.5 880,-145.5"/>
<text text-anchor="middle" x="852" y="-133.5" font-family="Helvetica,sans-Serif" font-size="10.00">optional</text>
</a>
</g>
</g>
<!-- Node1&#45;&gt;Node14 -->
<g id="edge22_Node000001_Node000014" class="edge">
<title>Node1&#45;&gt;Node14</title>
<g id="a_edge22_Node000001_Node000014"><a xlink:title=" ">
<path fill="none" stroke="#63b8ff" d="M886.16,-307.79C879.53,-274.67 863.07,-192.34 855.68,-155.42"/>
<polygon fill="#63b8ff" stroke="#63b8ff" points="859.1,-154.65 853.71,-145.53 852.23,-156.02 859.1,-154.65"/>
</a>
</g>
</g>
<!-- Node15 -->
<g id="Node000015" class="node">
<title>Node15</title>
<g id="a_Node000015"><a xlink:title=" ">
<polygon fill="#e0e0e0" stroke="#999999" points="992,-272 936,-272 936,-253 992,-253 992,-272"/>
<text text-anchor="middle" x="964" y="-260" font-family="Helvetica,sans-Serif" font-size="10.00">QObject</text>
</a>
</g>
</g>
<!-- Node1&#45;&gt;Node15 -->
<g id="edge20_Node000001_Node000015" class="edge">
<title>Node1&#45;&gt;Node15</title>
<g id="a_edge20_Node000001_Node000015"><a xlink:title=" ">
<path fill="none" stroke="#63b8ff" d="M907.16,-307.84C918.49,-299 933.06,-287.63 944.62,-278.62"/>
<polygon fill="#63b8ff" stroke="#63b8ff" points="947.03,-281.18 952.76,-272.27 942.72,-275.66 947.03,-281.18"/>
</a>
</g>
</g>
<!-- Node16 -->
<g id="Node000016" class="node">
<title>Node16</title>
<g id="a_Node000016"><a xlink:title=" ">
<polygon fill="#e0e0e0" stroke="#999999" points="1103.5,-272 1010.5,-272 1010.5,-253 1103.5,-253 1103.5,-272"/>
<text text-anchor="middle" x="1057" y="-260" font-family="Helvetica,sans-Serif" font-size="10.00">unordered_map</text>
</a>
</g>
</g>
<!-- Node1&#45;&gt;Node16 -->
<g id="edge23_Node000001_Node000016" class="edge">
<title>Node1&#45;&gt;Node16</title>
<g id="a_edge23_Node000001_Node000016"><a xlink:title=" ">
<path fill="none" stroke="#63b8ff" d="M929.24,-307.99C957.77,-298.05 995.65,-284.86 1022.73,-275.43"/>
<polygon fill="#63b8ff" stroke="#63b8ff" points="1023.9,-278.73 1032.19,-272.14 1021.6,-272.12 1023.9,-278.73"/>
</a>
</g>
</g>
<!-- Node3 -->
<g id="Node000003" class="node">
<title>Node3</title>
<g id="a_Node000003"><a xlink:href="InterventionData_8h.html" target="_top" xlink:title="Defines the InterventionData structure which holds all information related to an intervention.">
<polygon fill="white" stroke="#666666" points="579.5,-217 424.5,-217 424.5,-187 579.5,-187 579.5,-217"/>
<text text-anchor="start" x="432.5" y="-205" font-family="Helvetica,sans-Serif" font-size="10.00">TechMa/Entities/Intervention</text>
<text text-anchor="middle" x="502" y="-194" font-family="Helvetica,sans-Serif" font-size="10.00">Data.h</text>
</a>
</g>
</g>
<!-- Node2&#45;&gt;Node3 -->
<g id="edge2_Node000002_Node000003" class="edge">
<title>Node2&#45;&gt;Node3</title>
<g id="a_edge2_Node000002_Node000003"><a xlink:title=" ">
<path fill="none" stroke="#63b8ff" d="M578.72,-252.87C566.51,-244.93 547.96,-232.87 532.15,-222.6"/>
<polygon fill="#63b8ff" stroke="#63b8ff" points="534.01,-219.63 523.71,-217.11 530.19,-225.5 534.01,-219.63"/>
</a>
</g>
</g>
<!-- Node4 -->
<g id="Node000004" class="node">
<title>Node4</title>
<g id="a_Node000004"><a xlink:href="ATechnician_8h.html" target="_top" xlink:title="Defines the abstract base class ATechnician representing a technician entity.">
<polygon fill="white" stroke="#666666" points="730,-145.5 568,-145.5 568,-126.5 730,-126.5 730,-145.5"/>
<text text-anchor="middle" x="649" y="-133.5" font-family="Helvetica,sans-Serif" font-size="10.00">TechMa/Entities/ATechnician.h</text>
</a>
</g>
</g>
<!-- Node3&#45;&gt;Node4 -->
<g id="edge3_Node000003_Node000004" class="edge">
<title>Node3&#45;&gt;Node4</title>
<g id="a_edge3_Node000003_Node000004"><a xlink:title=" ">
<path fill="none" stroke="#63b8ff" d="M534.26,-186.95C559.93,-175.78 595.51,-160.29 620.22,-149.53"/>
<polygon fill="#63b8ff" stroke="#63b8ff" points="621.67,-152.72 629.44,-145.52 618.87,-146.3 621.67,-152.72"/>
</a>
</g>
</g>
<!-- Node5 -->
<g id="Node000005" class="node">
<title>Node5</title>
<g id="a_Node000005"><a xlink:title=" ">
<polygon fill="#e0e0e0" stroke="#999999" points="473,-19 429,-19 429,0 473,0 473,-19"/>
<text text-anchor="middle" x="451" y="-7" font-family="Helvetica,sans-Serif" font-size="10.00">string</text>
</a>
</g>
</g>
<!-- Node3&#45;&gt;Node5 -->
<g id="edge19_Node000003_Node000005" class="edge">
<title>Node3&#45;&gt;Node5</title>
<g id="a_edge19_Node000003_Node000005"><a xlink:title=" ">
<path fill="none" stroke="#63b8ff" d="M502.41,-186.75C502.71,-159.95 501.04,-100.64 483,-55 478.99,-44.86 472.16,-34.89 465.84,-26.96"/>
<polygon fill="#63b8ff" stroke="#63b8ff" points="468.46,-24.63 459.34,-19.25 463.11,-29.15 468.46,-24.63"/>
</a>
</g>
</g>
<!-- Node7 -->
<g id="Node000007" class="node">
<title>Node7</title>
<g id="a_Node000007"><a xlink:href="ExpertiseField_8h.html" target="_top" xlink:title="Declares the ExpertiseField enum class representing technician specializations, and a utility functio...">
<polygon fill="white" stroke="#666666" points="695.5,-79.5 530.5,-79.5 530.5,-60.5 695.5,-60.5 695.5,-79.5"/>
<text text-anchor="middle" x="613" y="-67.5" font-family="Helvetica,sans-Serif" font-size="10.00">TechMa/Types/ExpertiseField.h</text>
</a>
</g>
</g>
<!-- Node3&#45;&gt;Node7 -->
<g id="edge10_Node000003_Node000007" class="edge">
<title>Node3&#45;&gt;Node7</title>
<g id="a_edge10_Node000003_Node000007"><a xlink:title=" ">
<path fill="none" stroke="#63b8ff" d="M510.87,-186.77C521.44,-170.24 540.08,-142.51 559,-121 570.03,-108.46 583.87,-95.7 594.78,-86.2"/>
<polygon fill="#63b8ff" stroke="#63b8ff" points="597.13,-88.8 602.45,-79.64 592.58,-83.48 597.13,-88.8"/>
</a>
</g>
</g>
<!-- Node8 -->
<g id="Node000008" class="node">
<title>Node8</title>
<g id="a_Node000008"><a xlink:href="Location_8h.html" target="_top" xlink:title="Defines the GPSCoords and Location structures for representing geographical locations.">
<polygon fill="white" stroke="#666666" points="146,-79.5 0,-79.5 0,-60.5 146,-60.5 146,-79.5"/>
<text text-anchor="middle" x="73" y="-67.5" font-family="Helvetica,sans-Serif" font-size="10.00">TechMa/Entities/Location.h</text>
</a>
</g>
</g>
<!-- Node3&#45;&gt;Node8 -->
<g id="edge8_Node000003_Node000008" class="edge">
<title>Node3&#45;&gt;Node8</title>
<g id="a_edge8_Node000003_Node000008"><a xlink:title=" ">
<path fill="none" stroke="#63b8ff" d="M468.3,-186.95C448.28,-177.93 422.82,-165.26 402,-151 385.65,-139.8 386.83,-129.66 369,-121 282.25,-78.85 250.09,-101.12 155,-85 147.85,-83.79 140.36,-82.51 132.92,-81.25"/>
<polygon fill="#63b8ff" stroke="#63b8ff" points="133.31,-77.76 122.86,-79.53 132.13,-84.66 133.31,-77.76"/>
</a>
</g>
</g>
<!-- Node9 -->
<g id="Node000009" class="node">
<title>Node9</title>
<g id="a_Node000009"><a xlink:href="InterventionComplexity_8h.html" target="_top" xlink:title="Declares the InterventionComplexity enum class representing complexity levels of an intervention.">
<polygon fill="white" stroke="#666666" points="292,-151 146,-151 146,-121 292,-121 292,-151"/>
<text text-anchor="start" x="154" y="-139" font-family="Helvetica,sans-Serif" font-size="10.00">TechMa/Types/Intervention</text>
<text text-anchor="middle" x="219" y="-128" font-family="Helvetica,sans-Serif" font-size="10.00">Complexity.h</text>
</a>
</g>
</g>
<!-- Node3&#45;&gt;Node9 -->
<g id="edge11_Node000003_Node000009" class="edge">
<title>Node3&#45;&gt;Node9</title>
<g id="a_edge11_Node000003_Node000009"><a xlink:title=" ">
<path fill="none" stroke="#63b8ff" d="M439.89,-186.95C395.94,-177.01 336.86,-163.65 290.86,-153.25"/>
<polygon fill="#63b8ff" stroke="#63b8ff" points="291.49,-149.8 280.96,-151.01 289.94,-156.63 291.49,-149.8"/>
</a>
</g>
</g>
<!-- Node10 -->
<g id="Node000010" class="node">
<title>Node10</title>
<g id="a_Node000010"><a xlink:href="InterventionStatus_8h.html" target="_top" xlink:title="Declares the InterventionStatus enum and its string conversion function.">
<polygon fill="white" stroke="#666666" points="310,-85 164,-85 164,-55 310,-55 310,-85"/>
<text text-anchor="start" x="172" y="-73" font-family="Helvetica,sans-Serif" font-size="10.00">TechMa/Types/Intervention</text>
<text text-anchor="middle" x="237" y="-62" font-family="Helvetica,sans-Serif" font-size="10.00">Status.h</text>
</a>
</g>
</g>
<!-- Node3&#45;&gt;Node10 -->
<g id="edge12_Node000003_Node000010" class="edge">
<title>Node3&#45;&gt;Node10</title>
<g id="a_edge12_Node000003_Node000010"><a xlink:title=" ">
<path fill="none" stroke="#63b8ff" d="M484.62,-186.96C456.6,-164.34 404.3,-122.21 402,-121 374.63,-106.6 342.48,-95.67 313.86,-87.77"/>
<polygon fill="#63b8ff" stroke="#63b8ff" points="314.47,-84.31 303.9,-85.1 312.65,-91.07 314.47,-84.31"/>
</a>
</g>
</g>
<!-- Node11 -->
<g id="Node000011" class="node">
<title>Node11</title>
<g id="a_Node000011"><a xlink:href="InterventionType_8h.html" target="_top" xlink:title="Declares the InterventionType enum class and a string conversion utility.">
<polygon fill="white" stroke="#666666" points="474,-85 328,-85 328,-55 474,-55 474,-85"/>
<text text-anchor="start" x="336" y="-73" font-family="Helvetica,sans-Serif" font-size="10.00">TechMa/Types/Intervention</text>
<text text-anchor="middle" x="401" y="-62" font-family="Helvetica,sans-Serif" font-size="10.00">Type.h</text>
</a>
</g>
</g>
<!-- Node3&#45;&gt;Node11 -->
<g id="edge14_Node000003_Node000011" class="edge">
<title>Node3&#45;&gt;Node11</title>
<g id="a_edge14_Node000003_Node000011"><a xlink:title=" ">
<path fill="none" stroke="#63b8ff" d="M491.04,-186.83C478.66,-170.83 457.9,-144.03 440,-121 433.01,-112 425.29,-102.11 418.58,-93.51"/>
<polygon fill="#63b8ff" stroke="#63b8ff" points="421.19,-91.16 412.28,-85.43 415.67,-95.47 421.19,-91.16"/>
</a>
</g>
</g>
<!-- Node12 -->
<g id="Node000012" class="node">
<title>Node12</title>
<g id="a_Node000012"><a xlink:title=" ">
<polygon fill="#e0e0e0" stroke="#999999" points="360,-145.5 310,-145.5 310,-126.5 360,-126.5 360,-145.5"/>
<text text-anchor="middle" x="335" y="-133.5" font-family="Helvetica,sans-Serif" font-size="10.00">chrono</text>
</a>
</g>
</g>
<!-- Node3&#45;&gt;Node12 -->
<g id="edge16_Node000003_Node000012" class="edge">
<title>Node3&#45;&gt;Node12</title>
<g id="a_edge16_Node000003_Node000012"><a xlink:title=" ">
<path fill="none" stroke="#63b8ff" d="M465.35,-186.95C435.81,-175.63 394.69,-159.88 366.58,-149.1"/>
<polygon fill="#63b8ff" stroke="#63b8ff" points="367.82,-145.83 357.22,-145.52 365.31,-152.36 367.82,-145.83"/>
</a>
</g>
</g>
<!-- Node3&#45;&gt;Node13 -->
<g id="edge17_Node000003_Node000013" class="edge">
<title>Node3&#45;&gt;Node13</title>
<g id="a_edge17_Node000003_Node000013"><a xlink:title=" ">
<path fill="none" stroke="#63b8ff" d="M579.55,-187.58C626.17,-178.79 686.47,-166.13 739,-151 741.28,-150.34 743.62,-149.62 745.96,-148.85"/>
<polygon fill="#63b8ff" stroke="#63b8ff" points="747.18,-152.13 755.48,-145.55 744.88,-145.52 747.18,-152.13"/>
</a>
</g>
</g>
<!-- Node3&#45;&gt;Node14 -->
<g id="edge18_Node000003_Node000014" class="edge">
<title>Node3&#45;&gt;Node14</title>
<g id="a_edge18_Node000003_Node000014"><a xlink:title=" ">
<path fill="none" stroke="#63b8ff" d="M579.77,-193.03C643.67,-185.43 736.16,-171.98 815,-151 817.3,-150.39 819.65,-149.69 822,-148.93"/>
<polygon fill="#63b8ff" stroke="#63b8ff" points="823.22,-152.21 831.5,-145.6 820.9,-145.61 823.22,-152.21"/>
</a>
</g>
</g>
<!-- Node4&#45;&gt;Node5 -->
<g id="edge4_Node000004_Node000005" class="edge">
<title>Node4&#45;&gt;Node5</title>
<g id="a_edge4_Node000004_Node000005"><a xlink:title=" ">
<path fill="none" stroke="#63b8ff" d="M662.54,-126.44C684.74,-111.38 724.48,-79.4 704,-55 676.21,-21.89 545.42,-13.41 483.57,-11.24"/>
<polygon fill="#63b8ff" stroke="#63b8ff" points="483.32,-7.73 473.21,-10.91 483.1,-14.73 483.32,-7.73"/>
</a>
</g>
</g>
<!-- Node4&#45;&gt;Node6 -->
<g id="edge5_Node000004_Node000006" class="edge">
<title>Node4&#45;&gt;Node6</title>
<g id="a_edge5_Node000004_Node000006"><a xlink:title=" ">
<path fill="none" stroke="#63b8ff" d="M675.03,-126.37C709.69,-114.87 771.03,-94.53 808.93,-81.97"/>
<polygon fill="#63b8ff" stroke="#63b8ff" points="810.11,-85.26 818.5,-78.79 807.9,-78.62 810.11,-85.26"/>
</a>
</g>
</g>
<!-- Node4&#45;&gt;Node7 -->
<g id="edge6_Node000004_Node000007" class="edge">
<title>Node4&#45;&gt;Node7</title>
<g id="a_edge6_Node000004_Node000007"><a xlink:title=" ">
<path fill="none" stroke="#63b8ff" d="M644.14,-126.37C638.75,-116.78 629.9,-101.05 623.01,-88.8"/>
<polygon fill="#63b8ff" stroke="#63b8ff" points="625.96,-86.91 618.01,-79.91 619.86,-90.34 625.96,-86.91"/>
</a>
</g>
</g>
<!-- Node7&#45;&gt;Node5 -->
<g id="edge7_Node000007_Node000005" class="edge">
<title>Node7&#45;&gt;Node5</title>
<g id="a_edge7_Node000007_Node000005"><a xlink:title=" ">
<path fill="none" stroke="#63b8ff" d="M589.44,-60.49C561.25,-50.31 513.94,-33.23 482.6,-21.91"/>
<polygon fill="#63b8ff" stroke="#63b8ff" points="483.62,-18.56 473.02,-18.45 481.24,-25.14 483.62,-18.56"/>
</a>
</g>
</g>
<!-- Node8&#45;&gt;Node5 -->
<g id="edge9_Node000008_Node000005" class="edge">
<title>Node8&#45;&gt;Node5</title>
<g id="a_edge9_Node000008_Node000005"><a xlink:title=" ">
<path fill="none" stroke="#63b8ff" d="M121.97,-60.48C132.84,-58.63 144.31,-56.72 155,-55 250.72,-39.63 364.13,-23.03 418.61,-15.15"/>
<polygon fill="#63b8ff" stroke="#63b8ff" points="419.3,-18.59 428.7,-13.7 418.3,-11.66 419.3,-18.59"/>
</a>
</g>
</g>
<!-- Node10&#45;&gt;Node5 -->
<g id="edge13_Node000010_Node000005" class="edge">
<title>Node10&#45;&gt;Node5</title>
<g id="a_edge13_Node000010_Node000005"><a xlink:title=" ">
<path fill="none" stroke="#63b8ff" d="M288.26,-54.99C328.82,-43.9 384.22,-28.76 418.79,-19.31"/>
<polygon fill="#63b8ff" stroke="#63b8ff" points="420.08,-22.58 428.81,-16.57 418.24,-15.83 420.08,-22.58"/>
</a>
</g>
</g>
<!-- Node11&#45;&gt;Node5 -->
<g id="edge15_Node000011_Node000005" class="edge">
<title>Node11&#45;&gt;Node5</title>
<g id="a_edge15_Node000011_Node000005"><a xlink:title=" ">
<path fill="none" stroke="#63b8ff" d="M413.1,-54.84C420.29,-46.43 429.43,-35.74 436.93,-26.96"/>
<polygon fill="#63b8ff" stroke="#63b8ff" points="439.67,-29.14 443.51,-19.27 434.35,-24.59 439.67,-29.14"/>
</a>
</g>
</g>
</g>
</svg>
