<?xml version="1.0" encoding="UTF-8" standalone="no"?>
<!DOCTYPE svg PUBLIC "-//W3C//DTD SVG 1.1//EN"
 "http://www.w3.org/Graphics/SVG/1.1/DTD/svg11.dtd">
<!-- Generated by graphviz version 2.43.0 (0)
 -->
<!-- Title: include/TechMa/Types/InterventionStatus.h Pages: 1 -->
<svg width="1489pt" height="379pt"
 viewBox="0.00 0.00 1488.50 379.00" xmlns="http://www.w3.org/2000/svg" xmlns:xlink="http://www.w3.org/1999/xlink">
<g id="graph0" class="graph" transform="scale(1 1) rotate(0) translate(4 375)">
<title>include/TechMa/Types/InterventionStatus.h</title>
<!-- Node1 -->
<g id="Node000001" class="node">
<title>Node1</title>
<g id="a_Node000001"><a xlink:title="Declares the InterventionStatus enum and its string conversion function.">
<polygon fill="#999999" stroke="#666666" points="572,-371 450,-371 450,-341 572,-341 572,-371"/>
<text text-anchor="start" x="458" y="-359" font-family="Helvetica,sans-Serif" font-size="10.00">include/TechMa/Types</text>
<text text-anchor="middle" x="511" y="-348" font-family="Helvetica,sans-Serif" font-size="10.00">/InterventionStatus.h</text>
</a>
</g>
</g>
<!-- Node2 -->
<g id="Node000002" class="node">
<title>Node2</title>
<g id="a_Node000002"><a xlink:href="InterventionData_8h.html" target="_top" xlink:title="Defines the InterventionData structure which holds all information related to an intervention.">
<polygon fill="white" stroke="#666666" points="576.5,-305 445.5,-305 445.5,-275 576.5,-275 576.5,-305"/>
<text text-anchor="start" x="453.5" y="-293" font-family="Helvetica,sans-Serif" font-size="10.00">include/TechMa/Entities</text>
<text text-anchor="middle" x="511" y="-282" font-family="Helvetica,sans-Serif" font-size="10.00">/InterventionData.h</text>
</a>
</g>
</g>
<!-- Node1&#45;&gt;Node2 -->
<g id="edge1_Node000001_Node000002" class="edge">
<title>Node1&#45;&gt;Node2</title>
<g id="a_edge1_Node000001_Node000002"><a xlink:title=" ">
<path fill="none" stroke="#63b8ff" d="M511,-330.54C511,-321.96 511,-312.61 511,-305.16"/>
<polygon fill="#63b8ff" stroke="#63b8ff" points="507.5,-330.8 511,-340.8 514.5,-330.8 507.5,-330.8"/>
</a>
</g>
</g>
<!-- Node17 -->
<g id="Node000017" class="node">
<title>Node17</title>
<g id="a_Node000017"><a xlink:href="CreateInterventionDialog_8cpp.html" target="_top" xlink:title="Implements the CreateInterventionDialog class for creating new interventions through a Qt dialog UI.">
<polygon fill="white" stroke="#666666" points="1480.5,-162 1339.5,-162 1339.5,-132 1480.5,-132 1480.5,-162"/>
<text text-anchor="start" x="1347.5" y="-150" font-family="Helvetica,sans-Serif" font-size="10.00">src/Views/Widgets/Create</text>
<text text-anchor="middle" x="1410" y="-139" font-family="Helvetica,sans-Serif" font-size="10.00">InterventionDialog.cpp</text>
</a>
</g>
</g>
<!-- Node1&#45;&gt;Node17 -->
<g id="edge27_Node000001_Node000017" class="edge">
<title>Node1&#45;&gt;Node17</title>
<g id="a_edge27_Node000001_Node000017"><a xlink:title=" ">
<path fill="none" stroke="#63b8ff" d="M582.35,-355.8C770.56,-356.38 1274.05,-347.52 1391,-239 1412.3,-219.24 1413.04,-182.28 1411.6,-162.07"/>
<polygon fill="#63b8ff" stroke="#63b8ff" points="582.3,-352.3 572.29,-355.76 582.27,-359.3 582.3,-352.3"/>
</a>
</g>
</g>
<!-- Node19 -->
<g id="Node000019" class="node">
<title>Node19</title>
<g id="a_Node000019"><a xlink:href="InterventionEditPanel_8cpp.html" target="_top" xlink:title="Implements the InterventionEditPanel class, a QWidget for editing intervention data.">
<polygon fill="white" stroke="#666666" points="168,-162 0,-162 0,-132 168,-132 168,-162"/>
<text text-anchor="start" x="8" y="-150" font-family="Helvetica,sans-Serif" font-size="10.00">src/Views/Widgets/Intervention</text>
<text text-anchor="middle" x="84" y="-139" font-family="Helvetica,sans-Serif" font-size="10.00">EditPanel.cpp</text>
</a>
</g>
</g>
<!-- Node1&#45;&gt;Node19 -->
<g id="edge28_Node000001_Node000019" class="edge">
<title>Node1&#45;&gt;Node19</title>
<g id="a_edge28_Node000001_Node000019"><a xlink:title=" ">
<path fill="none" stroke="#63b8ff" d="M439.78,-343.8C335.5,-325.96 148.65,-288.03 103,-239 83.31,-217.86 81.87,-181.79 82.78,-162.01"/>
<polygon fill="#63b8ff" stroke="#63b8ff" points="439.47,-347.3 449.92,-345.52 440.64,-340.4 439.47,-347.3"/>
</a>
</g>
</g>
<!-- Node3 -->
<g id="Node000003" class="node">
<title>Node3</title>
<g id="a_Node000003"><a xlink:href="AIntervention_8h.html" target="_top" xlink:title="Defines the abstract base class AIntervention for representing interventions.">
<polygon fill="white" stroke="#666666" points="698.5,-233.5 567.5,-233.5 567.5,-203.5 698.5,-203.5 698.5,-233.5"/>
<text text-anchor="start" x="575.5" y="-221.5" font-family="Helvetica,sans-Serif" font-size="10.00">include/TechMa/Entities</text>
<text text-anchor="middle" x="633" y="-210.5" font-family="Helvetica,sans-Serif" font-size="10.00">/AIntervention.h</text>
</a>
</g>
</g>
<!-- Node2&#45;&gt;Node3 -->
<g id="edge2_Node000002_Node000003" class="edge">
<title>Node2&#45;&gt;Node3</title>
<g id="a_edge2_Node000002_Node000003"><a xlink:title=" ">
<path fill="none" stroke="#63b8ff" d="M544.56,-269.88C564.75,-258.38 590,-243.99 608.35,-233.54"/>
<polygon fill="#63b8ff" stroke="#63b8ff" points="542.65,-266.94 535.69,-274.94 546.11,-273.03 542.65,-266.94"/>
</a>
</g>
</g>
<!-- Node7 -->
<g id="Node000007" class="node">
<title>Node7</title>
<g id="a_Node000007"><a xlink:href="InterventionCreatorFacade_8h.html" target="_top" xlink:title="Declares the InterventionCreatorFacade class, which provides a simplified interface for creating inte...">
<polygon fill="white" stroke="#666666" points="426,-162 268,-162 268,-132 426,-132 426,-162"/>
<text text-anchor="start" x="276" y="-150" font-family="Helvetica,sans-Serif" font-size="10.00">include/TechMa/Facade</text>
<text text-anchor="middle" x="347" y="-139" font-family="Helvetica,sans-Serif" font-size="10.00">/InterventionCreatorFacade.h</text>
</a>
</g>
</g>
<!-- Node2&#45;&gt;Node7 -->
<g id="edge19_Node000002_Node000007" class="edge">
<title>Node2&#45;&gt;Node7</title>
<g id="a_edge19_Node000002_Node000007"><a xlink:title=" ">
<path fill="none" stroke="#63b8ff" d="M486.71,-268.11C452.99,-239.13 392.88,-187.44 363.75,-162.4"/>
<polygon fill="#63b8ff" stroke="#63b8ff" points="484.81,-271.1 494.68,-274.96 489.37,-265.79 484.81,-271.1"/>
</a>
</g>
</g>
<!-- Node10 -->
<g id="Node000010" class="node">
<title>Node10</title>
<g id="a_Node000010"><a xlink:href="InterventionFactory_8h.html" target="_top" xlink:title="Declares the InterventionFactory class responsible for creating intervention instances.">
<polygon fill="white" stroke="#666666" points="576,-162 446,-162 446,-132 576,-132 576,-162"/>
<text text-anchor="start" x="454" y="-150" font-family="Helvetica,sans-Serif" font-size="10.00">include/TechMa/Factory</text>
<text text-anchor="middle" x="511" y="-139" font-family="Helvetica,sans-Serif" font-size="10.00">/InterventionFactory.h</text>
</a>
</g>
</g>
<!-- Node2&#45;&gt;Node10 -->
<g id="edge20_Node000002_Node000010" class="edge">
<title>Node2&#45;&gt;Node10</title>
<g id="a_edge20_Node000002_Node000010"><a xlink:title=" ">
<path fill="none" stroke="#63b8ff" d="M511,-264.7C511,-235.22 511,-186.49 511,-162.4"/>
<polygon fill="#63b8ff" stroke="#63b8ff" points="507.5,-264.96 511,-274.96 514.5,-264.96 507.5,-264.96"/>
</a>
</g>
</g>
<!-- Node16 -->
<g id="Node000016" class="node">
<title>Node16</title>
<g id="a_Node000016"><a xlink:href="CreateInterventionDialog_8h.html" target="_top" xlink:title="Declares the CreateInterventionDialog class, a QDialog used to create new interventions.">
<polygon fill="white" stroke="#666666" points="1382,-239 1228,-239 1228,-198 1382,-198 1382,-239"/>
<text text-anchor="start" x="1236" y="-227" font-family="Helvetica,sans-Serif" font-size="10.00">include/TechMa/Views</text>
<text text-anchor="start" x="1236" y="-216" font-family="Helvetica,sans-Serif" font-size="10.00">/Widgets/CreateIntervention</text>
<text text-anchor="middle" x="1305" y="-205" font-family="Helvetica,sans-Serif" font-size="10.00">Dialog.h</text>
</a>
</g>
</g>
<!-- Node2&#45;&gt;Node16 -->
<g id="edge21_Node000002_Node000016" class="edge">
<title>Node2&#45;&gt;Node16</title>
<g id="a_edge21_Node000002_Node000016"><a xlink:title=" ">
<path fill="none" stroke="#63b8ff" d="M586.77,-282.37C737.9,-269.14 1075.37,-239.6 1227.73,-226.26"/>
<polygon fill="#63b8ff" stroke="#63b8ff" points="586.31,-278.89 576.65,-283.25 586.92,-285.87 586.31,-278.89"/>
</a>
</g>
</g>
<!-- Node18 -->
<g id="Node000018" class="node">
<title>Node18</title>
<g id="a_Node000018"><a xlink:href="InterventionEditPanel_8h.html" target="_top" xlink:title="Declares the InterventionEditPanel class, a QWidget for editing existing intervention data.">
<polygon fill="white" stroke="#666666" points="288,-233.5 112,-233.5 112,-203.5 288,-203.5 288,-233.5"/>
<text text-anchor="start" x="120" y="-221.5" font-family="Helvetica,sans-Serif" font-size="10.00">include/TechMa/Views</text>
<text text-anchor="middle" x="200" y="-210.5" font-family="Helvetica,sans-Serif" font-size="10.00">/Widgets/InterventionEditPanel.h</text>
</a>
</g>
</g>
<!-- Node2&#45;&gt;Node18 -->
<g id="edge24_Node000002_Node000018" class="edge">
<title>Node2&#45;&gt;Node18</title>
<g id="a_edge24_Node000002_Node000018"><a xlink:title=" ">
<path fill="none" stroke="#63b8ff" d="M438.02,-272.69C384.83,-260.8 313.51,-244.87 262.84,-233.54"/>
<polygon fill="#63b8ff" stroke="#63b8ff" points="437.54,-276.17 448.06,-274.94 439.07,-269.34 437.54,-276.17"/>
</a>
</g>
</g>
<!-- Node4 -->
<g id="Node000004" class="node">
<title>Node4</title>
<g id="a_Node000004"><a xlink:href="ConcreteIntervention_8h.html" target="_top" xlink:title="Declares the ConcreteIntervention class, a concrete implementation of AIntervention.">
<polygon fill="white" stroke="#666666" points="725.5,-162 594.5,-162 594.5,-132 725.5,-132 725.5,-162"/>
<text text-anchor="start" x="602.5" y="-150" font-family="Helvetica,sans-Serif" font-size="10.00">include/TechMa/Entities</text>
<text text-anchor="middle" x="660" y="-139" font-family="Helvetica,sans-Serif" font-size="10.00">/ConcreteIntervention.h</text>
</a>
</g>
</g>
<!-- Node3&#45;&gt;Node4 -->
<g id="edge3_Node000003_Node000004" class="edge">
<title>Node3&#45;&gt;Node4</title>
<g id="a_edge3_Node000003_Node000004"><a xlink:title=" ">
<path fill="none" stroke="#63b8ff" d="M642.17,-193.9C646.28,-183.31 651,-171.18 654.54,-162.04"/>
<polygon fill="#63b8ff" stroke="#63b8ff" points="638.82,-192.85 638.46,-203.44 645.35,-195.38 638.82,-192.85"/>
</a>
</g>
</g>
<!-- Node3&#45;&gt;Node7 -->
<g id="edge6_Node000003_Node000007" class="edge">
<title>Node3&#45;&gt;Node7</title>
<g id="a_edge6_Node000003_Node000007"><a xlink:title=" ">
<path fill="none" stroke="#63b8ff" d="M565.27,-201.04C516.43,-189.17 451.19,-173.32 404.79,-162.04"/>
<polygon fill="#63b8ff" stroke="#63b8ff" points="564.58,-204.48 575.12,-203.44 566.23,-197.67 564.58,-204.48"/>
</a>
</g>
</g>
<!-- Node3&#45;&gt;Node10 -->
<g id="edge9_Node000003_Node000010" class="edge">
<title>Node3&#45;&gt;Node10</title>
<g id="a_edge9_Node000003_Node000010"><a xlink:title=" ">
<path fill="none" stroke="#63b8ff" d="M599.44,-198.38C579.25,-186.88 554,-172.49 535.65,-162.04"/>
<polygon fill="#63b8ff" stroke="#63b8ff" points="597.89,-201.53 608.31,-203.44 601.35,-195.44 597.89,-201.53"/>
</a>
</g>
</g>
<!-- Node11 -->
<g id="Node000011" class="node">
<title>Node11</title>
<g id="a_Node000011"><a xlink:href="InterventionRepository_8h.html" target="_top" xlink:title="Declares the InterventionRepository class, which manages storage and access to interventions.">
<polygon fill="white" stroke="#666666" points="981.5,-162 834.5,-162 834.5,-132 981.5,-132 981.5,-162"/>
<text text-anchor="start" x="842.5" y="-150" font-family="Helvetica,sans-Serif" font-size="10.00">include/TechMa/Repository</text>
<text text-anchor="middle" x="908" y="-139" font-family="Helvetica,sans-Serif" font-size="10.00">/InterventionRepository.h</text>
</a>
</g>
</g>
<!-- Node3&#45;&gt;Node11 -->
<g id="edge12_Node000003_Node000011" class="edge">
<title>Node3&#45;&gt;Node11</title>
<g id="a_edge12_Node000003_Node000011"><a xlink:title=" ">
<path fill="none" stroke="#63b8ff" d="M698.42,-200.97C745.35,-189.11 807.91,-173.3 852.43,-162.04"/>
<polygon fill="#63b8ff" stroke="#63b8ff" points="697.49,-197.59 688.65,-203.44 699.2,-204.38 697.49,-197.59"/>
</a>
</g>
</g>
<!-- Node12 -->
<g id="Node000012" class="node">
<title>Node12</title>
<g id="a_Node000012"><a xlink:href="InterventionRepositoryProxy_8h.html" target="_top" xlink:title="Declares the InterventionRepositoryProxy class, a proxy to the actual intervention repository.">
<polygon fill="white" stroke="#666666" points="1283.5,-96 1116.5,-96 1116.5,-66 1283.5,-66 1283.5,-96"/>
<text text-anchor="start" x="1124.5" y="-84" font-family="Helvetica,sans-Serif" font-size="10.00">include/TechMa/Repository</text>
<text text-anchor="middle" x="1200" y="-73" font-family="Helvetica,sans-Serif" font-size="10.00">/InterventionRepositoryProxy.h</text>
</a>
</g>
</g>
<!-- Node3&#45;&gt;Node12 -->
<g id="edge18_Node000003_Node000012" class="edge">
<title>Node3&#45;&gt;Node12</title>
<g id="a_edge18_Node000003_Node000012"><a xlink:title=" ">
<path fill="none" stroke="#63b8ff" d="M708.57,-210.48C781.69,-202.6 895.21,-187.45 991,-162 1056.34,-144.64 1129.41,-113.92 1169.52,-96.02"/>
<polygon fill="#63b8ff" stroke="#63b8ff" points="708.1,-207.01 698.53,-211.55 708.84,-213.97 708.1,-207.01"/>
</a>
</g>
</g>
<!-- Node5 -->
<g id="Node000005" class="node">
<title>Node5</title>
<g id="a_Node000005"><a xlink:href="InterventionFactory_8cpp.html" target="_top" xlink:title="Implements the InterventionFactory class.">
<polygon fill="white" stroke="#666666" points="577.5,-96 446.5,-96 446.5,-66 577.5,-66 577.5,-96"/>
<text text-anchor="start" x="454.5" y="-84" font-family="Helvetica,sans-Serif" font-size="10.00">src/Factory/Intervention</text>
<text text-anchor="middle" x="512" y="-73" font-family="Helvetica,sans-Serif" font-size="10.00">Factory.cpp</text>
</a>
</g>
</g>
<!-- Node4&#45;&gt;Node5 -->
<g id="edge4_Node000004_Node000005" class="edge">
<title>Node4&#45;&gt;Node5</title>
<g id="a_edge4_Node000004_Node000005"><a xlink:title=" ">
<path fill="none" stroke="#63b8ff" d="M618.19,-127.92C594.8,-117.8 566.08,-105.38 544.4,-96.01"/>
<polygon fill="#63b8ff" stroke="#63b8ff" points="616.95,-131.2 627.52,-131.95 619.73,-124.77 616.95,-131.2"/>
</a>
</g>
</g>
<!-- Node6 -->
<g id="Node000006" class="node">
<title>Node6</title>
<g id="a_Node000006"><a xlink:href="ConcreteIntervention_8cpp.html" target="_top" xlink:title="Implements the ConcreteIntervention class.">
<polygon fill="white" stroke="#666666" points="740.5,-96 595.5,-96 595.5,-66 740.5,-66 740.5,-96"/>
<text text-anchor="start" x="603.5" y="-84" font-family="Helvetica,sans-Serif" font-size="10.00">src/Interventions/Concrete</text>
<text text-anchor="middle" x="668" y="-73" font-family="Helvetica,sans-Serif" font-size="10.00">Intervention.cpp</text>
</a>
</g>
</g>
<!-- Node4&#45;&gt;Node6 -->
<g id="edge5_Node000004_Node000006" class="edge">
<title>Node4&#45;&gt;Node6</title>
<g id="a_edge5_Node000004_Node000006"><a xlink:title=" ">
<path fill="none" stroke="#63b8ff" d="M663.02,-121.83C664.1,-113.17 665.29,-103.7 666.23,-96.16"/>
<polygon fill="#63b8ff" stroke="#63b8ff" points="659.54,-121.44 661.78,-131.8 666.49,-122.31 659.54,-121.44"/>
</a>
</g>
</g>
<!-- Node8 -->
<g id="Node000008" class="node">
<title>Node8</title>
<g id="a_Node000008"><a xlink:href="InterventionCreatorFacade_8cpp.html" target="_top" xlink:title="Implements the InterventionCreatorFacade class.">
<polygon fill="white" stroke="#666666" points="428,-96 262,-96 262,-66 428,-66 428,-96"/>
<text text-anchor="start" x="270" y="-84" font-family="Helvetica,sans-Serif" font-size="10.00">src/Facade/InterventionCreator</text>
<text text-anchor="middle" x="345" y="-73" font-family="Helvetica,sans-Serif" font-size="10.00">Facade.cpp</text>
</a>
</g>
</g>
<!-- Node7&#45;&gt;Node8 -->
<g id="edge7_Node000007_Node000008" class="edge">
<title>Node7&#45;&gt;Node8</title>
<g id="a_edge7_Node000007_Node000008"><a xlink:title=" ">
<path fill="none" stroke="#63b8ff" d="M346.24,-121.54C345.97,-112.96 345.68,-103.61 345.44,-96.16"/>
<polygon fill="#63b8ff" stroke="#63b8ff" points="342.75,-121.91 346.56,-131.8 349.74,-121.69 342.75,-121.91"/>
</a>
</g>
</g>
<!-- Node9 -->
<g id="Node000009" class="node">
<title>Node9</title>
<g id="a_Node000009"><a xlink:href="InterventionPage_8cpp.html" target="_top" xlink:title="Implements the InterventionPage class, a QWidget handling intervention&#45;related UI and interactions.">
<polygon fill="white" stroke="#666666" points="710.5,-30 553.5,-30 553.5,0 710.5,0 710.5,-30"/>
<text text-anchor="start" x="561.5" y="-18" font-family="Helvetica,sans-Serif" font-size="10.00">src/Views/Pages/Intervention</text>
<text text-anchor="middle" x="632" y="-7" font-family="Helvetica,sans-Serif" font-size="10.00">Page.cpp</text>
</a>
</g>
</g>
<!-- Node7&#45;&gt;Node9 -->
<g id="edge8_Node000007_Node000009" class="edge">
<title>Node7&#45;&gt;Node9</title>
<g id="a_edge8_Node000007_Node000009"><a xlink:title=" ">
<path fill="none" stroke="#63b8ff" d="M299.51,-127.92C266.6,-112.74 232.15,-89.79 253,-66 272.47,-43.79 448.1,-28.29 553.31,-20.91"/>
<polygon fill="#63b8ff" stroke="#63b8ff" points="298.14,-131.14 308.7,-131.98 300.97,-124.74 298.14,-131.14"/>
</a>
</g>
</g>
<!-- Node10&#45;&gt;Node5 -->
<g id="edge11_Node000010_Node000005" class="edge">
<title>Node10&#45;&gt;Node5</title>
<g id="a_edge11_Node000010_Node000005"><a xlink:title=" ">
<path fill="none" stroke="#63b8ff" d="M511.38,-121.54C511.52,-112.96 511.66,-103.61 511.78,-96.16"/>
<polygon fill="#63b8ff" stroke="#63b8ff" points="507.88,-121.74 511.22,-131.8 514.88,-121.85 507.88,-121.74"/>
</a>
</g>
</g>
<!-- Node10&#45;&gt;Node8 -->
<g id="edge10_Node000010_Node000008" class="edge">
<title>Node10&#45;&gt;Node8</title>
<g id="a_edge10_Node000010_Node000008"><a xlink:title=" ">
<path fill="none" stroke="#63b8ff" d="M465.15,-128.32C438.73,-118.14 405.98,-105.51 381.34,-96.01"/>
<polygon fill="#63b8ff" stroke="#63b8ff" points="463.98,-131.62 474.57,-131.95 466.5,-125.09 463.98,-131.62"/>
</a>
</g>
</g>
<!-- Node11&#45;&gt;Node12 -->
<g id="edge13_Node000011_Node000012" class="edge">
<title>Node11&#45;&gt;Node12</title>
<g id="a_edge13_Node000011_Node000012"><a xlink:title=" ">
<path fill="none" stroke="#63b8ff" d="M982.01,-129.78C1029.54,-119.36 1090.65,-105.97 1136.07,-96.01"/>
<polygon fill="#63b8ff" stroke="#63b8ff" points="981.1,-126.4 972.08,-131.95 982.6,-133.23 981.1,-126.4"/>
</a>
</g>
</g>
<!-- Node14 -->
<g id="Node000014" class="node">
<title>Node14</title>
<g id="a_Node000014"><a xlink:href="InterventionRepository_8cpp.html" target="_top" xlink:title="Implements the InterventionRepository singleton class.">
<polygon fill="white" stroke="#666666" points="1098.5,-96 949.5,-96 949.5,-66 1098.5,-66 1098.5,-96"/>
<text text-anchor="start" x="957.5" y="-84" font-family="Helvetica,sans-Serif" font-size="10.00">src/Repository/Intervention</text>
<text text-anchor="middle" x="1024" y="-73" font-family="Helvetica,sans-Serif" font-size="10.00">Repository.cpp</text>
</a>
</g>
</g>
<!-- Node11&#45;&gt;Node14 -->
<g id="edge16_Node000011_Node000014" class="edge">
<title>Node11&#45;&gt;Node14</title>
<g id="a_edge16_Node000011_Node000014"><a xlink:title=" ">
<path fill="none" stroke="#63b8ff" d="M942.49,-126.97C960.5,-117.03 982.15,-105.09 998.6,-96.01"/>
<polygon fill="#63b8ff" stroke="#63b8ff" points="940.52,-124.06 933.46,-131.95 943.9,-130.19 940.52,-124.06"/>
</a>
</g>
</g>
<!-- Node15 -->
<g id="Node000015" class="node">
<title>Node15</title>
<g id="a_Node000015"><a xlink:href="InterventionsListView_8cpp.html" target="_top" xlink:title="Implements the InterventionsListView class, a QListView for browsing interventions.">
<polygon fill="white" stroke="#666666" points="931.5,-96 758.5,-96 758.5,-66 931.5,-66 931.5,-96"/>
<text text-anchor="start" x="766.5" y="-84" font-family="Helvetica,sans-Serif" font-size="10.00">src/Views/Widgets/Interventions</text>
<text text-anchor="middle" x="845" y="-73" font-family="Helvetica,sans-Serif" font-size="10.00">ListView.cpp</text>
</a>
</g>
</g>
<!-- Node11&#45;&gt;Node15 -->
<g id="edge17_Node000011_Node000015" class="edge">
<title>Node11&#45;&gt;Node15</title>
<g id="a_edge17_Node000011_Node000015"><a xlink:title=" ">
<path fill="none" stroke="#63b8ff" d="M886.98,-124.65C877.75,-115.27 867.17,-104.53 858.94,-96.16"/>
<polygon fill="#63b8ff" stroke="#63b8ff" points="884.51,-127.13 894.02,-131.8 889.5,-122.21 884.51,-127.13"/>
</a>
</g>
</g>
<!-- Node12&#45;&gt;Node9 -->
<g id="edge15_Node000012_Node000009" class="edge">
<title>Node12&#45;&gt;Node9</title>
<g id="a_edge15_Node000012_Node000009"><a xlink:title=" ">
<path fill="none" stroke="#63b8ff" d="M1106.31,-65.82C961.22,-47.35 803.28,-31.8 710.88,-23.16"/>
<polygon fill="#63b8ff" stroke="#63b8ff" points="1105.92,-69.29 1116.29,-67.09 1106.81,-62.35 1105.92,-69.29"/>
</a>
</g>
</g>
<!-- Node13 -->
<g id="Node000013" class="node">
<title>Node13</title>
<g id="a_Node000013"><a xlink:href="InterventionRepositoryProxy_8cpp.html" target="_top" xlink:title="Implements the InterventionRepositoryProxy class, a secure proxy to the InterventionRepository.">
<polygon fill="white" stroke="#666666" points="1274.5,-30 1125.5,-30 1125.5,0 1274.5,0 1274.5,-30"/>
<text text-anchor="start" x="1133.5" y="-18" font-family="Helvetica,sans-Serif" font-size="10.00">src/Repository/Intervention</text>
<text text-anchor="middle" x="1200" y="-7" font-family="Helvetica,sans-Serif" font-size="10.00">RepositoryProxy.cpp</text>
</a>
</g>
</g>
<!-- Node12&#45;&gt;Node13 -->
<g id="edge14_Node000012_Node000013" class="edge">
<title>Node12&#45;&gt;Node13</title>
<g id="a_edge14_Node000012_Node000013"><a xlink:title=" ">
<path fill="none" stroke="#63b8ff" d="M1200,-55.54C1200,-46.96 1200,-37.61 1200,-30.16"/>
<polygon fill="#63b8ff" stroke="#63b8ff" points="1196.5,-55.8 1200,-65.8 1203.5,-55.8 1196.5,-55.8"/>
</a>
</g>
</g>
<!-- Node16&#45;&gt;Node9 -->
<g id="edge22_Node000016_Node000009" class="edge">
<title>Node16&#45;&gt;Node9</title>
<g id="a_edge22_Node000016_Node000009"><a xlink:title=" ">
<path fill="none" stroke="#63b8ff" d="M1312.73,-187.82C1319.7,-153.43 1324.59,-97.48 1293,-66 1252.52,-25.66 876.94,-17.82 710.62,-16.33"/>
<polygon fill="#63b8ff" stroke="#63b8ff" points="1309.27,-187.22 1310.53,-197.74 1316.11,-188.73 1309.27,-187.22"/>
</a>
</g>
</g>
<!-- Node16&#45;&gt;Node17 -->
<g id="edge23_Node000016_Node000017" class="edge">
<title>Node16&#45;&gt;Node17</title>
<g id="a_edge23_Node000016_Node000017"><a xlink:title=" ">
<path fill="none" stroke="#63b8ff" d="M1343.29,-192.15C1358.6,-182.02 1375.65,-170.74 1388.68,-162.11"/>
<polygon fill="#63b8ff" stroke="#63b8ff" points="1340.93,-189.52 1334.53,-197.96 1344.8,-195.35 1340.93,-189.52"/>
</a>
</g>
</g>
<!-- Node18&#45;&gt;Node9 -->
<g id="edge25_Node000018_Node000009" class="edge">
<title>Node18&#45;&gt;Node9</title>
<g id="a_edge25_Node000018_Node000009"><a xlink:title=" ">
<path fill="none" stroke="#63b8ff" d="M199.27,-193.1C199.69,-159.05 205.99,-97.88 243,-66 288.14,-27.12 453.35,-18.03 553.37,-16.17"/>
<polygon fill="#63b8ff" stroke="#63b8ff" points="195.77,-193.15 199.31,-203.13 202.77,-193.12 195.77,-193.15"/>
</a>
</g>
</g>
<!-- Node18&#45;&gt;Node19 -->
<g id="edge26_Node000018_Node000019" class="edge">
<title>Node18&#45;&gt;Node19</title>
<g id="a_edge26_Node000018_Node000019"><a xlink:title=" ">
<path fill="none" stroke="#63b8ff" d="M167.83,-198.22C148.68,-186.75 124.8,-172.45 107.44,-162.04"/>
<polygon fill="#63b8ff" stroke="#63b8ff" points="166.15,-201.3 176.53,-203.44 169.75,-195.29 166.15,-201.3"/>
</a>
</g>
</g>
</g>
</svg>
