<?xml version="1.0" encoding="UTF-8" standalone="no"?>
<!DOCTYPE svg PUBLIC "-//W3C//DTD SVG 1.1//EN"
 "http://www.w3.org/Graphics/SVG/1.1/DTD/svg11.dtd">
<!-- Generated by graphviz version 2.43.0 (0)
 -->
<!-- Title: include/TechMa/Views/Widgets/InterventionsListView.h Pages: 1 -->
<svg width="356pt" height="104pt"
 viewBox="0.00 0.00 356.00 104.00" xmlns="http://www.w3.org/2000/svg" xmlns:xlink="http://www.w3.org/1999/xlink">
<g id="graph0" class="graph" transform="scale(1 1) rotate(0) translate(4 100)">
<title>include/TechMa/Views/Widgets/InterventionsListView.h</title>
<!-- Node1 -->
<g id="Node000001" class="node">
<title>Node1</title>
<g id="a_Node000001"><a xlink:title="Declares the InterventionsListView class, a QListView for displaying and selecting interventions.">
<polygon fill="#999999" stroke="#666666" points="257.5,-96 81.5,-96 81.5,-66 257.5,-66 257.5,-96"/>
<text text-anchor="start" x="89.5" y="-84" font-family="Helvetica,sans-Serif" font-size="10.00">include/TechMa/Views</text>
<text text-anchor="middle" x="169.5" y="-73" font-family="Helvetica,sans-Serif" font-size="10.00">/Widgets/InterventionsListView.h</text>
</a>
</g>
</g>
<!-- Node2 -->
<g id="Node000002" class="node">
<title>Node2</title>
<g id="a_Node000002"><a xlink:href="InterventionPage_8cpp.html" target="_top" xlink:title="Implements the InterventionPage class, a QWidget handling intervention&#45;related UI and interactions.">
<polygon fill="white" stroke="#666666" points="157,-30 0,-30 0,0 157,0 157,-30"/>
<text text-anchor="start" x="8" y="-18" font-family="Helvetica,sans-Serif" font-size="10.00">src/Views/Pages/Intervention</text>
<text text-anchor="middle" x="78.5" y="-7" font-family="Helvetica,sans-Serif" font-size="10.00">Page.cpp</text>
</a>
</g>
</g>
<!-- Node1&#45;&gt;Node2 -->
<g id="edge1_Node000001_Node000002" class="edge">
<title>Node1&#45;&gt;Node2</title>
<g id="a_edge1_Node000001_Node000002"><a xlink:title=" ">
<path fill="none" stroke="#63b8ff" d="M141.1,-60.03C127.33,-50.34 111.12,-38.94 98.64,-30.16"/>
<polygon fill="#63b8ff" stroke="#63b8ff" points="139.11,-62.91 149.3,-65.8 143.14,-57.18 139.11,-62.91"/>
</a>
</g>
</g>
<!-- Node3 -->
<g id="Node000003" class="node">
<title>Node3</title>
<g id="a_Node000003"><a xlink:href="InterventionsListView_8cpp.html" target="_top" xlink:title="Implements the InterventionsListView class, a QListView for browsing interventions.">
<polygon fill="white" stroke="#666666" points="348,-30 175,-30 175,0 348,0 348,-30"/>
<text text-anchor="start" x="183" y="-18" font-family="Helvetica,sans-Serif" font-size="10.00">src/Views/Widgets/Interventions</text>
<text text-anchor="middle" x="261.5" y="-7" font-family="Helvetica,sans-Serif" font-size="10.00">ListView.cpp</text>
</a>
</g>
</g>
<!-- Node1&#45;&gt;Node3 -->
<g id="edge2_Node000001_Node000003" class="edge">
<title>Node1&#45;&gt;Node3</title>
<g id="a_edge2_Node000001_Node000003"><a xlink:title=" ">
<path fill="none" stroke="#63b8ff" d="M198.21,-60.03C212.13,-50.34 228.53,-38.94 241.14,-30.16"/>
<polygon fill="#63b8ff" stroke="#63b8ff" points="196.13,-57.21 189.92,-65.8 200.13,-62.96 196.13,-57.21"/>
</a>
</g>
</g>
</g>
</svg>
