<?xml version="1.0" encoding="UTF-8" standalone="no"?>
<!DOCTYPE svg PUBLIC "-//W3C//DTD SVG 1.1//EN"
 "http://www.w3.org/Graphics/SVG/1.1/DTD/svg11.dtd">
<!-- Generated by graphviz version 2.43.0 (0)
 -->
<!-- Title: include/TechMa/Factory/InterventionFactory.h Pages: 1 -->
<svg width="324pt" height="104pt"
 viewBox="0.00 0.00 323.50 104.00" xmlns="http://www.w3.org/2000/svg" xmlns:xlink="http://www.w3.org/1999/xlink">
<g id="graph0" class="graph" transform="scale(1 1) rotate(0) translate(4 100)">
<title>include/TechMa/Factory/InterventionFactory.h</title>
<!-- Node1 -->
<g id="Node000001" class="node">
<title>Node1</title>
<g id="a_Node000001"><a xlink:title="Declares the InterventionFactory class responsible for creating intervention instances.">
<polygon fill="#999999" stroke="#666666" points="231,-96 101,-96 101,-66 231,-66 231,-96"/>
<text text-anchor="start" x="109" y="-84" font-family="Helvetica,sans-Serif" font-size="10.00">include/TechMa/Factory</text>
<text text-anchor="middle" x="166" y="-73" font-family="Helvetica,sans-Serif" font-size="10.00">/InterventionFactory.h</text>
</a>
</g>
</g>
<!-- Node2 -->
<g id="Node000002" class="node">
<title>Node2</title>
<g id="a_Node000002"><a xlink:href="InterventionCreatorFacade_8cpp.html" target="_top" xlink:title="Implements the InterventionCreatorFacade class.">
<polygon fill="white" stroke="#666666" points="166,-30 0,-30 0,0 166,0 166,-30"/>
<text text-anchor="start" x="8" y="-18" font-family="Helvetica,sans-Serif" font-size="10.00">src/Facade/InterventionCreator</text>
<text text-anchor="middle" x="83" y="-7" font-family="Helvetica,sans-Serif" font-size="10.00">Facade.cpp</text>
</a>
</g>
</g>
<!-- Node1&#45;&gt;Node2 -->
<g id="edge1_Node000001_Node000002" class="edge">
<title>Node1&#45;&gt;Node2</title>
<g id="a_edge1_Node000001_Node000002"><a xlink:title=" ">
<path fill="none" stroke="#63b8ff" d="M139.39,-59.48C126.98,-49.91 112.53,-38.77 101.37,-30.16"/>
<polygon fill="#63b8ff" stroke="#63b8ff" points="137.52,-62.46 147.58,-65.8 141.8,-56.92 137.52,-62.46"/>
</a>
</g>
</g>
<!-- Node3 -->
<g id="Node000003" class="node">
<title>Node3</title>
<g id="a_Node000003"><a xlink:href="InterventionFactory_8cpp.html" target="_top" xlink:title="Implements the InterventionFactory class.">
<polygon fill="white" stroke="#666666" points="315.5,-30 184.5,-30 184.5,0 315.5,0 315.5,-30"/>
<text text-anchor="start" x="192.5" y="-18" font-family="Helvetica,sans-Serif" font-size="10.00">src/Factory/Intervention</text>
<text text-anchor="middle" x="250" y="-7" font-family="Helvetica,sans-Serif" font-size="10.00">Factory.cpp</text>
</a>
</g>
</g>
<!-- Node1&#45;&gt;Node3 -->
<g id="edge2_Node000001_Node000003" class="edge">
<title>Node1&#45;&gt;Node3</title>
<g id="a_edge2_Node000001_Node000003"><a xlink:title=" ">
<path fill="none" stroke="#63b8ff" d="M192.94,-59.48C205.49,-49.91 220.11,-38.77 231.41,-30.16"/>
<polygon fill="#63b8ff" stroke="#63b8ff" points="190.48,-56.95 184.64,-65.8 194.72,-62.52 190.48,-56.95"/>
</a>
</g>
</g>
</g>
</svg>
