<?xml version="1.0" encoding="UTF-8" standalone="no"?>
<!DOCTYPE svg PUBLIC "-//W3C//DTD SVG 1.1//EN"
 "http://www.w3.org/Graphics/SVG/1.1/DTD/svg11.dtd">
<!-- Generated by graphviz version 2.43.0 (0)
 -->
<!-- Title: include/TechMa/Entities/Location.h Pages: 1 -->
<svg width="1414pt" height="379pt"
 viewBox="0.00 0.00 1414.45 379.00" xmlns="http://www.w3.org/2000/svg" xmlns:xlink="http://www.w3.org/1999/xlink">
<g id="graph0" class="graph" transform="scale(1 1) rotate(0) translate(4 375)">
<title>include/TechMa/Entities/Location.h</title>
<!-- Node1 -->
<g id="Node000001" class="node">
<title>Node1</title>
<g id="a_Node000001"><a xlink:title="Defines the GPSCoords and Location structures for representing geographical locations.">
<polygon fill="#999999" stroke="#666666" points="995,-371 864,-371 864,-341 995,-341 995,-371"/>
<text text-anchor="start" x="872" y="-359" font-family="Helvetica,sans-Serif" font-size="10.00">include/TechMa/Entities</text>
<text text-anchor="middle" x="929.5" y="-348" font-family="Helvetica,sans-Serif" font-size="10.00">/Location.h</text>
</a>
</g>
</g>
<!-- Node2 -->
<g id="Node000002" class="node">
<title>Node2</title>
<g id="a_Node000002"><a xlink:href="InterventionData_8h.html" target="_top" xlink:title="Defines the InterventionData structure which holds all information related to an intervention.">
<polygon fill="white" stroke="#666666" points="995,-305 864,-305 864,-275 995,-275 995,-305"/>
<text text-anchor="start" x="872" y="-293" font-family="Helvetica,sans-Serif" font-size="10.00">include/TechMa/Entities</text>
<text text-anchor="middle" x="929.5" y="-282" font-family="Helvetica,sans-Serif" font-size="10.00">/InterventionData.h</text>
</a>
</g>
</g>
<!-- Node1&#45;&gt;Node2 -->
<g id="edge1_Node000001_Node000002" class="edge">
<title>Node1&#45;&gt;Node2</title>
<g id="a_edge1_Node000001_Node000002"><a xlink:title=" ">
<path fill="none" stroke="#63b8ff" d="M929.5,-330.54C929.5,-321.96 929.5,-312.61 929.5,-305.16"/>
<polygon fill="#63b8ff" stroke="#63b8ff" points="926,-330.8 929.5,-340.8 933,-330.8 926,-330.8"/>
</a>
</g>
</g>
<!-- Node3 -->
<g id="Node000003" class="node">
<title>Node3</title>
<g id="a_Node000003"><a xlink:href="AIntervention_8h.html" target="_top" xlink:title="Defines the abstract base class AIntervention for representing interventions.">
<polygon fill="white" stroke="#666666" points="759,-233.5 628,-233.5 628,-203.5 759,-203.5 759,-233.5"/>
<text text-anchor="start" x="636" y="-221.5" font-family="Helvetica,sans-Serif" font-size="10.00">include/TechMa/Entities</text>
<text text-anchor="middle" x="693.5" y="-210.5" font-family="Helvetica,sans-Serif" font-size="10.00">/AIntervention.h</text>
</a>
</g>
</g>
<!-- Node2&#45;&gt;Node3 -->
<g id="edge2_Node000002_Node000003" class="edge">
<title>Node2&#45;&gt;Node3</title>
<g id="a_edge2_Node000002_Node000003"><a xlink:title=" ">
<path fill="none" stroke="#63b8ff" d="M872.09,-272.09C831.96,-260.28 778.99,-244.68 741.19,-233.54"/>
<polygon fill="#63b8ff" stroke="#63b8ff" points="871.16,-275.47 881.74,-274.94 873.14,-268.75 871.16,-275.47"/>
</a>
</g>
</g>
<!-- Node7 -->
<g id="Node000007" class="node">
<title>Node7</title>
<g id="a_Node000007"><a xlink:href="InterventionCreatorFacade_8h.html" target="_top" xlink:title="Declares the InterventionCreatorFacade class, which provides a simplified interface for creating inte...">
<polygon fill="white" stroke="#666666" points="1008.5,-162 850.5,-162 850.5,-132 1008.5,-132 1008.5,-162"/>
<text text-anchor="start" x="858.5" y="-150" font-family="Helvetica,sans-Serif" font-size="10.00">include/TechMa/Facade</text>
<text text-anchor="middle" x="929.5" y="-139" font-family="Helvetica,sans-Serif" font-size="10.00">/InterventionCreatorFacade.h</text>
</a>
</g>
</g>
<!-- Node2&#45;&gt;Node7 -->
<g id="edge19_Node000002_Node000007" class="edge">
<title>Node2&#45;&gt;Node7</title>
<g id="a_edge19_Node000002_Node000007"><a xlink:title=" ">
<path fill="none" stroke="#63b8ff" d="M929.5,-264.7C929.5,-235.22 929.5,-186.49 929.5,-162.4"/>
<polygon fill="#63b8ff" stroke="#63b8ff" points="926,-264.96 929.5,-274.96 933,-264.96 926,-264.96"/>
</a>
</g>
</g>
<!-- Node10 -->
<g id="Node000010" class="node">
<title>Node10</title>
<g id="a_Node000010"><a xlink:href="InterventionFactory_8h.html" target="_top" xlink:title="Declares the InterventionFactory class responsible for creating intervention instances.">
<polygon fill="white" stroke="#666666" points="832.5,-162 702.5,-162 702.5,-132 832.5,-132 832.5,-162"/>
<text text-anchor="start" x="710.5" y="-150" font-family="Helvetica,sans-Serif" font-size="10.00">include/TechMa/Factory</text>
<text text-anchor="middle" x="767.5" y="-139" font-family="Helvetica,sans-Serif" font-size="10.00">/InterventionFactory.h</text>
</a>
</g>
</g>
<!-- Node2&#45;&gt;Node10 -->
<g id="edge20_Node000002_Node000010" class="edge">
<title>Node2&#45;&gt;Node10</title>
<g id="a_edge20_Node000002_Node000010"><a xlink:title=" ">
<path fill="none" stroke="#63b8ff" d="M905.5,-268.11C872.2,-239.13 812.82,-187.44 784.04,-162.4"/>
<polygon fill="#63b8ff" stroke="#63b8ff" points="903.53,-271.04 913.37,-274.96 908.13,-265.76 903.53,-271.04"/>
</a>
</g>
</g>
<!-- Node16 -->
<g id="Node000016" class="node">
<title>Node16</title>
<g id="a_Node000016"><a xlink:href="CreateInterventionDialog_8h.html" target="_top" xlink:title="Declares the CreateInterventionDialog class, a QDialog used to create new interventions.">
<polygon fill="white" stroke="#666666" points="1174.5,-239 1020.5,-239 1020.5,-198 1174.5,-198 1174.5,-239"/>
<text text-anchor="start" x="1028.5" y="-227" font-family="Helvetica,sans-Serif" font-size="10.00">include/TechMa/Views</text>
<text text-anchor="start" x="1028.5" y="-216" font-family="Helvetica,sans-Serif" font-size="10.00">/Widgets/CreateIntervention</text>
<text text-anchor="middle" x="1097.5" y="-205" font-family="Helvetica,sans-Serif" font-size="10.00">Dialog.h</text>
</a>
</g>
</g>
<!-- Node2&#45;&gt;Node16 -->
<g id="edge21_Node000002_Node000016" class="edge">
<title>Node2&#45;&gt;Node16</title>
<g id="a_edge21_Node000002_Node000016"><a xlink:title=" ">
<path fill="none" stroke="#63b8ff" d="M972.93,-271.03C996.6,-261.24 1025.93,-249.11 1050.19,-239.07"/>
<polygon fill="#63b8ff" stroke="#63b8ff" points="971.4,-267.88 963.5,-274.94 974.08,-274.35 971.4,-267.88"/>
</a>
</g>
</g>
<!-- Node18 -->
<g id="Node000018" class="node">
<title>Node18</title>
<g id="a_Node000018"><a xlink:href="InterventionEditPanel_8h.html" target="_top" xlink:title="Declares the InterventionEditPanel class, a QWidget for editing existing intervention data.">
<polygon fill="white" stroke="#666666" points="1396.5,-233.5 1220.5,-233.5 1220.5,-203.5 1396.5,-203.5 1396.5,-233.5"/>
<text text-anchor="start" x="1228.5" y="-221.5" font-family="Helvetica,sans-Serif" font-size="10.00">include/TechMa/Views</text>
<text text-anchor="middle" x="1308.5" y="-210.5" font-family="Helvetica,sans-Serif" font-size="10.00">/Widgets/InterventionEditPanel.h</text>
</a>
</g>
</g>
<!-- Node2&#45;&gt;Node18 -->
<g id="edge24_Node000002_Node000018" class="edge">
<title>Node2&#45;&gt;Node18</title>
<g id="a_edge24_Node000002_Node000018"><a xlink:title=" ">
<path fill="none" stroke="#63b8ff" d="M1004.98,-275.16C1070.81,-263.09 1165.85,-245.66 1231.98,-233.53"/>
<polygon fill="#63b8ff" stroke="#63b8ff" points="1004.29,-271.73 995.08,-276.97 1005.55,-278.61 1004.29,-271.73"/>
</a>
</g>
</g>
<!-- Node4 -->
<g id="Node000004" class="node">
<title>Node4</title>
<g id="a_Node000004"><a xlink:href="ConcreteIntervention_8h.html" target="_top" xlink:title="Declares the ConcreteIntervention class, a concrete implementation of AIntervention.">
<polygon fill="white" stroke="#666666" points="684,-162 553,-162 553,-132 684,-132 684,-162"/>
<text text-anchor="start" x="561" y="-150" font-family="Helvetica,sans-Serif" font-size="10.00">include/TechMa/Entities</text>
<text text-anchor="middle" x="618.5" y="-139" font-family="Helvetica,sans-Serif" font-size="10.00">/ConcreteIntervention.h</text>
</a>
</g>
</g>
<!-- Node3&#45;&gt;Node4 -->
<g id="edge3_Node000003_Node000004" class="edge">
<title>Node3&#45;&gt;Node4</title>
<g id="a_edge3_Node000003_Node000004"><a xlink:title=" ">
<path fill="none" stroke="#63b8ff" d="M670.83,-196.49C658.79,-185.34 644.32,-171.93 633.65,-162.04"/>
<polygon fill="#63b8ff" stroke="#63b8ff" points="668.61,-199.21 678.32,-203.44 673.37,-194.07 668.61,-199.21"/>
</a>
</g>
</g>
<!-- Node3&#45;&gt;Node7 -->
<g id="edge6_Node000003_Node000007" class="edge">
<title>Node3&#45;&gt;Node7</title>
<g id="a_edge6_Node000003_Node000007"><a xlink:title=" ">
<path fill="none" stroke="#63b8ff" d="M750.91,-200.59C791.04,-188.78 844.01,-173.18 881.81,-162.04"/>
<polygon fill="#63b8ff" stroke="#63b8ff" points="749.86,-197.25 741.26,-203.44 751.84,-203.97 749.86,-197.25"/>
</a>
</g>
</g>
<!-- Node3&#45;&gt;Node10 -->
<g id="edge9_Node000003_Node000010" class="edge">
<title>Node3&#45;&gt;Node10</title>
<g id="a_edge9_Node000003_Node000010"><a xlink:title=" ">
<path fill="none" stroke="#63b8ff" d="M715.87,-196.49C727.75,-185.34 742.02,-171.93 752.55,-162.04"/>
<polygon fill="#63b8ff" stroke="#63b8ff" points="713.37,-194.04 708.48,-203.44 718.16,-199.14 713.37,-194.04"/>
</a>
</g>
</g>
<!-- Node11 -->
<g id="Node000011" class="node">
<title>Node11</title>
<g id="a_Node000011"><a xlink:href="InterventionRepository_8h.html" target="_top" xlink:title="Declares the InterventionRepository class, which manages storage and access to interventions.">
<polygon fill="white" stroke="#666666" points="417,-162 270,-162 270,-132 417,-132 417,-162"/>
<text text-anchor="start" x="278" y="-150" font-family="Helvetica,sans-Serif" font-size="10.00">include/TechMa/Repository</text>
<text text-anchor="middle" x="343.5" y="-139" font-family="Helvetica,sans-Serif" font-size="10.00">/InterventionRepository.h</text>
</a>
</g>
</g>
<!-- Node3&#45;&gt;Node11 -->
<g id="edge12_Node000003_Node000011" class="edge">
<title>Node3&#45;&gt;Node11</title>
<g id="a_edge12_Node000003_Node000011"><a xlink:title=" ">
<path fill="none" stroke="#63b8ff" d="M617.8,-202.47C557.34,-190.46 473.24,-173.76 414.15,-162.03"/>
<polygon fill="#63b8ff" stroke="#63b8ff" points="617.18,-205.91 627.67,-204.43 618.54,-199.05 617.18,-205.91"/>
</a>
</g>
</g>
<!-- Node12 -->
<g id="Node000012" class="node">
<title>Node12</title>
<g id="a_Node000012"><a xlink:href="InterventionRepositoryProxy_8h.html" target="_top" xlink:title="Declares the InterventionRepositoryProxy class, a proxy to the actual intervention repository.">
<polygon fill="white" stroke="#666666" points="525,-96 358,-96 358,-66 525,-66 525,-96"/>
<text text-anchor="start" x="366" y="-84" font-family="Helvetica,sans-Serif" font-size="10.00">include/TechMa/Repository</text>
<text text-anchor="middle" x="441.5" y="-73" font-family="Helvetica,sans-Serif" font-size="10.00">/InterventionRepositoryProxy.h</text>
</a>
</g>
</g>
<!-- Node3&#45;&gt;Node12 -->
<g id="edge18_Node000003_Node000012" class="edge">
<title>Node3&#45;&gt;Node12</title>
<g id="a_edge18_Node000003_Node000012"><a xlink:title=" ">
<path fill="none" stroke="#63b8ff" d="M634.07,-200.25C605.73,-190.85 571.9,-177.88 543.5,-162 509.71,-143.11 475.28,-113.49 456.33,-96.09"/>
<polygon fill="#63b8ff" stroke="#63b8ff" points="633.25,-203.66 643.85,-203.42 635.42,-197 633.25,-203.66"/>
</a>
</g>
</g>
<!-- Node5 -->
<g id="Node000005" class="node">
<title>Node5</title>
<g id="a_Node000005"><a xlink:href="InterventionFactory_8cpp.html" target="_top" xlink:title="Implements the InterventionFactory class.">
<polygon fill="white" stroke="#666666" points="837,-96 706,-96 706,-66 837,-66 837,-96"/>
<text text-anchor="start" x="714" y="-84" font-family="Helvetica,sans-Serif" font-size="10.00">src/Factory/Intervention</text>
<text text-anchor="middle" x="771.5" y="-73" font-family="Helvetica,sans-Serif" font-size="10.00">Factory.cpp</text>
</a>
</g>
</g>
<!-- Node4&#45;&gt;Node5 -->
<g id="edge4_Node000004_Node000005" class="edge">
<title>Node4&#45;&gt;Node5</title>
<g id="a_edge4_Node000004_Node000005"><a xlink:title=" ">
<path fill="none" stroke="#63b8ff" d="M661.4,-128.05C685.64,-117.91 715.5,-105.43 738,-96.01"/>
<polygon fill="#63b8ff" stroke="#63b8ff" points="659.95,-124.87 652.08,-131.95 662.65,-131.32 659.95,-124.87"/>
</a>
</g>
</g>
<!-- Node6 -->
<g id="Node000006" class="node">
<title>Node6</title>
<g id="a_Node000006"><a xlink:href="ConcreteIntervention_8cpp.html" target="_top" xlink:title="Implements the ConcreteIntervention class.">
<polygon fill="white" stroke="#666666" points="688,-96 543,-96 543,-66 688,-66 688,-96"/>
<text text-anchor="start" x="551" y="-84" font-family="Helvetica,sans-Serif" font-size="10.00">src/Interventions/Concrete</text>
<text text-anchor="middle" x="615.5" y="-73" font-family="Helvetica,sans-Serif" font-size="10.00">Intervention.cpp</text>
</a>
</g>
</g>
<!-- Node4&#45;&gt;Node6 -->
<g id="edge5_Node000004_Node000006" class="edge">
<title>Node4&#45;&gt;Node6</title>
<g id="a_edge5_Node000004_Node000006"><a xlink:title=" ">
<path fill="none" stroke="#63b8ff" d="M617.35,-121.54C616.95,-112.96 616.51,-103.61 616.16,-96.16"/>
<polygon fill="#63b8ff" stroke="#63b8ff" points="613.87,-121.97 617.83,-131.8 620.86,-121.64 613.87,-121.97"/>
</a>
</g>
</g>
<!-- Node8 -->
<g id="Node000008" class="node">
<title>Node8</title>
<g id="a_Node000008"><a xlink:href="InterventionCreatorFacade_8cpp.html" target="_top" xlink:title="Implements the InterventionCreatorFacade class.">
<polygon fill="white" stroke="#666666" points="1021.5,-96 855.5,-96 855.5,-66 1021.5,-66 1021.5,-96"/>
<text text-anchor="start" x="863.5" y="-84" font-family="Helvetica,sans-Serif" font-size="10.00">src/Facade/InterventionCreator</text>
<text text-anchor="middle" x="938.5" y="-73" font-family="Helvetica,sans-Serif" font-size="10.00">Facade.cpp</text>
</a>
</g>
</g>
<!-- Node7&#45;&gt;Node8 -->
<g id="edge7_Node000007_Node000008" class="edge">
<title>Node7&#45;&gt;Node8</title>
<g id="a_edge7_Node000007_Node000008"><a xlink:title=" ">
<path fill="none" stroke="#63b8ff" d="M932.9,-121.83C934.12,-113.17 935.45,-103.7 936.51,-96.16"/>
<polygon fill="#63b8ff" stroke="#63b8ff" points="929.42,-121.41 931.5,-131.8 936.36,-122.38 929.42,-121.41"/>
</a>
</g>
</g>
<!-- Node9 -->
<g id="Node000009" class="node">
<title>Node9</title>
<g id="a_Node000009"><a xlink:href="InterventionPage_8cpp.html" target="_top" xlink:title="Implements the InterventionPage class, a QWidget handling intervention&#45;related UI and interactions.">
<polygon fill="white" stroke="#666666" points="1228,-30 1071,-30 1071,0 1228,0 1228,-30"/>
<text text-anchor="start" x="1079" y="-18" font-family="Helvetica,sans-Serif" font-size="10.00">src/Views/Pages/Intervention</text>
<text text-anchor="middle" x="1149.5" y="-7" font-family="Helvetica,sans-Serif" font-size="10.00">Page.cpp</text>
</a>
</g>
</g>
<!-- Node7&#45;&gt;Node9 -->
<g id="edge8_Node000007_Node000009" class="edge">
<title>Node7&#45;&gt;Node9</title>
<g id="a_edge8_Node000007_Node000009"><a xlink:title=" ">
<path fill="none" stroke="#63b8ff" d="M969.72,-127.6C988.49,-118.62 1010.96,-107.34 1030.5,-96 1066.89,-74.89 1107.09,-46.78 1130.22,-30.12"/>
<polygon fill="#63b8ff" stroke="#63b8ff" points="968.09,-124.49 960.55,-131.93 971.09,-130.82 968.09,-124.49"/>
</a>
</g>
</g>
<!-- Node10&#45;&gt;Node5 -->
<g id="edge11_Node000010_Node000005" class="edge">
<title>Node10&#45;&gt;Node5</title>
<g id="a_edge11_Node000010_Node000005"><a xlink:title=" ">
<path fill="none" stroke="#63b8ff" d="M769.03,-121.54C769.56,-112.96 770.15,-103.61 770.61,-96.16"/>
<polygon fill="#63b8ff" stroke="#63b8ff" points="765.52,-121.6 768.39,-131.8 772.5,-122.03 765.52,-121.6"/>
</a>
</g>
</g>
<!-- Node10&#45;&gt;Node8 -->
<g id="edge10_Node000010_Node000008" class="edge">
<title>Node10&#45;&gt;Node8</title>
<g id="a_edge10_Node000010_Node000008"><a xlink:title=" ">
<path fill="none" stroke="#63b8ff" d="M814.73,-128.32C841.95,-118.14 875.69,-105.51 901.06,-96.01"/>
<polygon fill="#63b8ff" stroke="#63b8ff" points="813.17,-125.17 805.03,-131.95 815.62,-131.73 813.17,-125.17"/>
</a>
</g>
</g>
<!-- Node11&#45;&gt;Node12 -->
<g id="edge13_Node000011_Node000012" class="edge">
<title>Node11&#45;&gt;Node12</title>
<g id="a_edge13_Node000011_Node000012"><a xlink:title=" ">
<path fill="none" stroke="#63b8ff" d="M373.66,-126.3C388.58,-116.56 406.25,-105.02 419.81,-96.16"/>
<polygon fill="#63b8ff" stroke="#63b8ff" points="371.71,-123.4 365.25,-131.8 375.54,-129.26 371.71,-123.4"/>
</a>
</g>
</g>
<!-- Node14 -->
<g id="Node000014" class="node">
<title>Node14</title>
<g id="a_Node000014"><a xlink:href="InterventionRepository_8cpp.html" target="_top" xlink:title="Implements the InterventionRepository singleton class.">
<polygon fill="white" stroke="#666666" points="340,-96 191,-96 191,-66 340,-66 340,-96"/>
<text text-anchor="start" x="199" y="-84" font-family="Helvetica,sans-Serif" font-size="10.00">src/Repository/Intervention</text>
<text text-anchor="middle" x="265.5" y="-73" font-family="Helvetica,sans-Serif" font-size="10.00">Repository.cpp</text>
</a>
</g>
</g>
<!-- Node11&#45;&gt;Node14 -->
<g id="edge16_Node000011_Node000014" class="edge">
<title>Node11&#45;&gt;Node14</title>
<g id="a_edge16_Node000011_Node000014"><a xlink:title=" ">
<path fill="none" stroke="#63b8ff" d="M318.15,-125.2C306.57,-115.7 293.15,-104.69 282.76,-96.16"/>
<polygon fill="#63b8ff" stroke="#63b8ff" points="316.24,-128.16 326.19,-131.8 320.68,-122.75 316.24,-128.16"/>
</a>
</g>
</g>
<!-- Node15 -->
<g id="Node000015" class="node">
<title>Node15</title>
<g id="a_Node000015"><a xlink:href="InterventionsListView_8cpp.html" target="_top" xlink:title="Implements the InterventionsListView class, a QListView for browsing interventions.">
<polygon fill="white" stroke="#666666" points="173,-96 0,-96 0,-66 173,-66 173,-96"/>
<text text-anchor="start" x="8" y="-84" font-family="Helvetica,sans-Serif" font-size="10.00">src/Views/Widgets/Interventions</text>
<text text-anchor="middle" x="86.5" y="-73" font-family="Helvetica,sans-Serif" font-size="10.00">ListView.cpp</text>
</a>
</g>
</g>
<!-- Node11&#45;&gt;Node15 -->
<g id="edge17_Node000011_Node000015" class="edge">
<title>Node11&#45;&gt;Node15</title>
<g id="a_edge17_Node000011_Node000015"><a xlink:title=" ">
<path fill="none" stroke="#63b8ff" d="M277.31,-129.52C235.63,-119.14 182.41,-105.88 142.77,-96.01"/>
<polygon fill="#63b8ff" stroke="#63b8ff" points="276.55,-132.93 287.1,-131.95 278.24,-126.14 276.55,-132.93"/>
</a>
</g>
</g>
<!-- Node12&#45;&gt;Node9 -->
<g id="edge15_Node000012_Node000009" class="edge">
<title>Node12&#45;&gt;Node9</title>
<g id="a_edge15_Node000012_Node000009"><a xlink:title=" ">
<path fill="none" stroke="#63b8ff" d="M535.22,-65.85C733.39,-43.07 955.15,-27.8 1070.56,-20.63"/>
<polygon fill="#63b8ff" stroke="#63b8ff" points="534.73,-62.38 525.2,-67.01 535.54,-69.33 534.73,-62.38"/>
</a>
</g>
</g>
<!-- Node13 -->
<g id="Node000013" class="node">
<title>Node13</title>
<g id="a_Node000013"><a xlink:href="InterventionRepositoryProxy_8cpp.html" target="_top" xlink:title="Implements the InterventionRepositoryProxy class, a secure proxy to the InterventionRepository.">
<polygon fill="white" stroke="#666666" points="516,-30 367,-30 367,0 516,0 516,-30"/>
<text text-anchor="start" x="375" y="-18" font-family="Helvetica,sans-Serif" font-size="10.00">src/Repository/Intervention</text>
<text text-anchor="middle" x="441.5" y="-7" font-family="Helvetica,sans-Serif" font-size="10.00">RepositoryProxy.cpp</text>
</a>
</g>
</g>
<!-- Node12&#45;&gt;Node13 -->
<g id="edge14_Node000012_Node000013" class="edge">
<title>Node12&#45;&gt;Node13</title>
<g id="a_edge14_Node000012_Node000013"><a xlink:title=" ">
<path fill="none" stroke="#63b8ff" d="M441.5,-55.54C441.5,-46.96 441.5,-37.61 441.5,-30.16"/>
<polygon fill="#63b8ff" stroke="#63b8ff" points="438,-55.8 441.5,-65.8 445,-55.8 438,-55.8"/>
</a>
</g>
</g>
<!-- Node16&#45;&gt;Node9 -->
<g id="edge22_Node000016_Node000009" class="edge">
<title>Node16&#45;&gt;Node9</title>
<g id="a_edge22_Node000016_Node000009"><a xlink:title=" ">
<path fill="none" stroke="#63b8ff" d="M1149.19,-192.48C1160.54,-184.41 1171.07,-174.29 1177.5,-162 1200.6,-117.87 1172.95,-57.3 1157.95,-30.16"/>
<polygon fill="#63b8ff" stroke="#63b8ff" points="1147.26,-189.56 1140.84,-198 1151.11,-195.41 1147.26,-189.56"/>
</a>
</g>
</g>
<!-- Node17 -->
<g id="Node000017" class="node">
<title>Node17</title>
<g id="a_Node000017"><a xlink:href="CreateInterventionDialog_8cpp.html" target="_top" xlink:title="Implements the CreateInterventionDialog class for creating new interventions through a Qt dialog UI.">
<polygon fill="white" stroke="#666666" points="1168,-162 1027,-162 1027,-132 1168,-132 1168,-162"/>
<text text-anchor="start" x="1035" y="-150" font-family="Helvetica,sans-Serif" font-size="10.00">src/Views/Widgets/Create</text>
<text text-anchor="middle" x="1097.5" y="-139" font-family="Helvetica,sans-Serif" font-size="10.00">InterventionDialog.cpp</text>
</a>
</g>
</g>
<!-- Node16&#45;&gt;Node17 -->
<g id="edge23_Node000016_Node000017" class="edge">
<title>Node16&#45;&gt;Node17</title>
<g id="a_edge23_Node000016_Node000017"><a xlink:title=" ">
<path fill="none" stroke="#63b8ff" d="M1097.5,-187.66C1097.5,-178.76 1097.5,-169.42 1097.5,-162.04"/>
<polygon fill="#63b8ff" stroke="#63b8ff" points="1094,-187.77 1097.5,-197.77 1101,-187.77 1094,-187.77"/>
</a>
</g>
</g>
<!-- Node18&#45;&gt;Node9 -->
<g id="edge25_Node000018_Node000009" class="edge">
<title>Node18&#45;&gt;Node9</title>
<g id="a_edge25_Node000018_Node000009"><a xlink:title=" ">
<path fill="none" stroke="#63b8ff" d="M1353.89,-199.11C1385.44,-183.46 1418.94,-159.23 1401.5,-132 1363.57,-72.79 1286.94,-43.39 1228.09,-29.05"/>
<polygon fill="#63b8ff" stroke="#63b8ff" points="1352.2,-196.04 1344.66,-203.48 1355.2,-202.36 1352.2,-196.04"/>
</a>
</g>
</g>
<!-- Node19 -->
<g id="Node000019" class="node">
<title>Node19</title>
<g id="a_Node000019"><a xlink:href="InterventionEditPanel_8cpp.html" target="_top" xlink:title="Implements the InterventionEditPanel class, a QWidget for editing intervention data.">
<polygon fill="white" stroke="#666666" points="1392.5,-162 1224.5,-162 1224.5,-132 1392.5,-132 1392.5,-162"/>
<text text-anchor="start" x="1232.5" y="-150" font-family="Helvetica,sans-Serif" font-size="10.00">src/Views/Widgets/Intervention</text>
<text text-anchor="middle" x="1308.5" y="-139" font-family="Helvetica,sans-Serif" font-size="10.00">EditPanel.cpp</text>
</a>
</g>
</g>
<!-- Node18&#45;&gt;Node19 -->
<g id="edge26_Node000018_Node000019" class="edge">
<title>Node18&#45;&gt;Node19</title>
<g id="a_edge26_Node000018_Node000019"><a xlink:title=" ">
<path fill="none" stroke="#63b8ff" d="M1308.5,-193.25C1308.5,-182.81 1308.5,-170.99 1308.5,-162.04"/>
<polygon fill="#63b8ff" stroke="#63b8ff" points="1305,-193.44 1308.5,-203.44 1312,-193.44 1305,-193.44"/>
</a>
</g>
</g>
</g>
</svg>
