<?xml version="1.0" encoding="UTF-8" standalone="no"?>
<!DOCTYPE svg PUBLIC "-//W3C//DTD SVG 1.1//EN"
 "http://www.w3.org/Graphics/SVG/1.1/DTD/svg11.dtd">
<!-- Generated by graphviz version 2.43.0 (0)
 -->
<!-- Title: src/Views/Pages/LoginPage.cpp Pages: 1 -->
<svg width="1162pt" height="214pt"
 viewBox="0.00 0.00 1161.50 214.00" xmlns="http://www.w3.org/2000/svg" xmlns:xlink="http://www.w3.org/1999/xlink">
<g id="graph0" class="graph" transform="scale(1 1) rotate(0) translate(4 210)">
<title>src/Views/Pages/LoginPage.cpp</title>
<!-- Node1 -->
<g id="Node000001" class="node">
<title>Node1</title>
<g id="a_Node000001"><a xlink:title="Implements the LoginPage class, handling user login/logout UI and interactions.">
<polygon fill="#999999" stroke="#666666" points="704.5,-206 537.5,-206 537.5,-187 704.5,-187 704.5,-206"/>
<text text-anchor="middle" x="621" y="-194" font-family="Helvetica,sans-Serif" font-size="10.00">src/Views/Pages/LoginPage.cpp</text>
</a>
</g>
</g>
<!-- Node2 -->
<g id="Node000002" class="node">
<title>Node2</title>
<g id="a_Node000002"><a xlink:href="LoginPage_8h.html" target="_top" xlink:title="Declares the LoginPage class, the user interface component for login and authentication.">
<polygon fill="white" stroke="#666666" points="455.5,-151 338.5,-151 338.5,-121 455.5,-121 455.5,-151"/>
<text text-anchor="start" x="346.5" y="-139" font-family="Helvetica,sans-Serif" font-size="10.00">TechMa/Views/Pages</text>
<text text-anchor="middle" x="397" y="-128" font-family="Helvetica,sans-Serif" font-size="10.00">/LoginPage.h</text>
</a>
</g>
</g>
<!-- Node1&#45;&gt;Node2 -->
<g id="edge1_Node000001_Node000002" class="edge">
<title>Node1&#45;&gt;Node2</title>
<g id="a_edge1_Node000001_Node000002"><a xlink:title=" ">
<path fill="none" stroke="#63b8ff" d="M588.43,-186.99C555.07,-178.28 502.33,-164.51 460.65,-153.62"/>
<polygon fill="#63b8ff" stroke="#63b8ff" points="461.41,-150.2 450.85,-151.06 459.64,-156.98 461.41,-150.2"/>
</a>
</g>
</g>
<!-- Node3 -->
<g id="Node000003" class="node">
<title>Node3</title>
<g id="a_Node000003"><a xlink:href="UserAuthentication_8h.html" target="_top" xlink:title="Declaration of the User and AuthenticationService classes for managing authentication.">
<polygon fill="white" stroke="#666666" points="202,-85 74,-85 74,-55 202,-55 202,-85"/>
<text text-anchor="start" x="82" y="-73" font-family="Helvetica,sans-Serif" font-size="10.00">TechMa/Authentication</text>
<text text-anchor="middle" x="138" y="-62" font-family="Helvetica,sans-Serif" font-size="10.00">/UserAuthentication.h</text>
</a>
</g>
</g>
<!-- Node1&#45;&gt;Node3 -->
<g id="edge12_Node000001_Node000003" class="edge">
<title>Node1&#45;&gt;Node3</title>
<g id="a_edge12_Node000001_Node000003"><a xlink:title=" ">
<path fill="none" stroke="#63b8ff" d="M537.2,-194.15C465.56,-190.8 360.63,-180.64 274,-151 233.25,-137.06 191.25,-110.07 164.92,-91.31"/>
<polygon fill="#63b8ff" stroke="#63b8ff" points="166.76,-88.33 156.61,-85.3 162.66,-94 166.76,-88.33"/>
</a>
</g>
</g>
<!-- Node8 -->
<g id="Node000008" class="node">
<title>Node8</title>
<g id="a_Node000008"><a xlink:title=" ">
<polygon fill="#e0e0e0" stroke="#999999" points="270,-79.5 220,-79.5 220,-60.5 270,-60.5 270,-79.5"/>
<text text-anchor="middle" x="245" y="-67.5" font-family="Helvetica,sans-Serif" font-size="10.00">QLabel</text>
</a>
</g>
</g>
<!-- Node1&#45;&gt;Node8 -->
<g id="edge17_Node000001_Node000008" class="edge">
<title>Node1&#45;&gt;Node8</title>
<g id="a_edge17_Node000001_Node000008"><a xlink:title=" ">
<path fill="none" stroke="#63b8ff" d="M537.37,-190.18C459.38,-184.02 349.58,-171.94 312,-151 285.72,-136.36 265.34,-107.05 254.27,-88.27"/>
<polygon fill="#63b8ff" stroke="#63b8ff" points="257.3,-86.52 249.34,-79.53 251.21,-89.96 257.3,-86.52"/>
</a>
</g>
</g>
<!-- Node9 -->
<g id="Node000009" class="node">
<title>Node9</title>
<g id="a_Node000009"><a xlink:title=" ">
<polygon fill="#e0e0e0" stroke="#999999" points="351.5,-79.5 288.5,-79.5 288.5,-60.5 351.5,-60.5 351.5,-79.5"/>
<text text-anchor="middle" x="320" y="-67.5" font-family="Helvetica,sans-Serif" font-size="10.00">QLineEdit</text>
</a>
</g>
</g>
<!-- Node1&#45;&gt;Node9 -->
<g id="edge18_Node000001_Node000009" class="edge">
<title>Node1&#45;&gt;Node9</title>
<g id="a_edge18_Node000001_Node000009"><a xlink:title=" ">
<path fill="none" stroke="#63b8ff" d="M537.37,-193.62C461.75,-190.04 358.07,-179.85 330,-151 314.48,-135.05 314.38,-108.05 316.53,-89.88"/>
<polygon fill="#63b8ff" stroke="#63b8ff" points="320.01,-90.3 318.05,-79.89 313.09,-89.25 320.01,-90.3"/>
</a>
</g>
</g>
<!-- Node10 -->
<g id="Node000010" class="node">
<title>Node10</title>
<g id="a_Node000010"><a xlink:title=" ">
<polygon fill="#e0e0e0" stroke="#999999" points="624,-79.5 544,-79.5 544,-60.5 624,-60.5 624,-79.5"/>
<text text-anchor="middle" x="584" y="-67.5" font-family="Helvetica,sans-Serif" font-size="10.00">QPushButton</text>
</a>
</g>
</g>
<!-- Node1&#45;&gt;Node10 -->
<g id="edge21_Node000001_Node000010" class="edge">
<title>Node1&#45;&gt;Node10</title>
<g id="a_edge21_Node000001_Node000010"><a xlink:title=" ">
<path fill="none" stroke="#63b8ff" d="M559.61,-186.96C538.07,-180.69 516.01,-169.82 503,-151 495.42,-140.03 496.5,-132.64 503,-121 512.62,-103.75 530.92,-91.71 547.69,-83.77"/>
<polygon fill="#63b8ff" stroke="#63b8ff" points="549.56,-86.78 557.32,-79.56 546.75,-80.36 549.56,-86.78"/>
</a>
</g>
</g>
<!-- Node13 -->
<g id="Node000013" class="node">
<title>Node13</title>
<g id="a_Node000013"><a xlink:title=" ">
<polygon fill="#e0e0e0" stroke="#999999" points="562,-145.5 512,-145.5 512,-126.5 562,-126.5 562,-145.5"/>
<text text-anchor="middle" x="537" y="-133.5" font-family="Helvetica,sans-Serif" font-size="10.00">QColor</text>
</a>
</g>
</g>
<!-- Node1&#45;&gt;Node13 -->
<g id="edge13_Node000001_Node000013" class="edge">
<title>Node1&#45;&gt;Node13</title>
<g id="a_edge13_Node000001_Node000013"><a xlink:title=" ">
<path fill="none" stroke="#63b8ff" d="M608.61,-186.87C595.21,-177.54 573.62,-162.51 557.65,-151.38"/>
<polygon fill="#63b8ff" stroke="#63b8ff" points="559.65,-148.51 549.45,-145.67 555.65,-154.25 559.65,-148.51"/>
</a>
</g>
</g>
<!-- Node14 -->
<g id="Node000014" class="node">
<title>Node14</title>
<g id="a_Node000014"><a xlink:title=" ">
<polygon fill="#e0e0e0" stroke="#999999" points="662,-145.5 580,-145.5 580,-126.5 662,-126.5 662,-145.5"/>
<text text-anchor="middle" x="621" y="-133.5" font-family="Helvetica,sans-Serif" font-size="10.00">QFormLayout</text>
</a>
</g>
</g>
<!-- Node1&#45;&gt;Node14 -->
<g id="edge14_Node000001_Node000014" class="edge">
<title>Node1&#45;&gt;Node14</title>
<g id="a_edge14_Node000001_Node000014"><a xlink:title=" ">
<path fill="none" stroke="#63b8ff" d="M621,-186.87C621,-178.75 621,-166.31 621,-155.89"/>
<polygon fill="#63b8ff" stroke="#63b8ff" points="624.5,-155.67 621,-145.67 617.5,-155.67 624.5,-155.67"/>
</a>
</g>
</g>
<!-- Node15 -->
<g id="Node000015" class="node">
<title>Node15</title>
<g id="a_Node000015"><a xlink:title=" ">
<polygon fill="#e0e0e0" stroke="#999999" points="763.5,-145.5 680.5,-145.5 680.5,-126.5 763.5,-126.5 763.5,-145.5"/>
<text text-anchor="middle" x="722" y="-133.5" font-family="Helvetica,sans-Serif" font-size="10.00">QHBoxLayout</text>
</a>
</g>
</g>
<!-- Node1&#45;&gt;Node15 -->
<g id="edge15_Node000001_Node000015" class="edge">
<title>Node1&#45;&gt;Node15</title>
<g id="a_edge15_Node000001_Node000015"><a xlink:title=" ">
<path fill="none" stroke="#63b8ff" d="M635.9,-186.87C652.31,-177.36 678.93,-161.95 698.23,-150.77"/>
<polygon fill="#63b8ff" stroke="#63b8ff" points="700.14,-153.71 707.04,-145.67 696.63,-147.65 700.14,-153.71"/>
</a>
</g>
</g>
<!-- Node16 -->
<g id="Node000016" class="node">
<title>Node16</title>
<g id="a_Node000016"><a xlink:title=" ">
<polygon fill="#e0e0e0" stroke="#999999" points="826,-145.5 782,-145.5 782,-126.5 826,-126.5 826,-145.5"/>
<text text-anchor="middle" x="804" y="-133.5" font-family="Helvetica,sans-Serif" font-size="10.00">QIcon</text>
</a>
</g>
</g>
<!-- Node1&#45;&gt;Node16 -->
<g id="edge16_Node000001_Node000016" class="edge">
<title>Node1&#45;&gt;Node16</title>
<g id="a_edge16_Node000001_Node000016"><a xlink:title=" ">
<path fill="none" stroke="#63b8ff" d="M655.25,-186.94C686.35,-178.82 733.29,-165.7 773,-151 774.21,-150.55 775.45,-150.07 776.69,-149.58"/>
<polygon fill="#63b8ff" stroke="#63b8ff" points="778.3,-152.7 786.15,-145.57 775.57,-146.25 778.3,-152.7"/>
</a>
</g>
</g>
<!-- Node17 -->
<g id="Node000017" class="node">
<title>Node17</title>
<g id="a_Node000017"><a xlink:title=" ">
<polygon fill="#e0e0e0" stroke="#999999" points="902,-145.5 844,-145.5 844,-126.5 902,-126.5 902,-145.5"/>
<text text-anchor="middle" x="873" y="-133.5" font-family="Helvetica,sans-Serif" font-size="10.00">QPainter</text>
</a>
</g>
</g>
<!-- Node1&#45;&gt;Node17 -->
<g id="edge19_Node000001_Node000017" class="edge">
<title>Node1&#45;&gt;Node17</title>
<g id="a_edge19_Node000001_Node000017"><a xlink:title=" ">
<path fill="none" stroke="#63b8ff" d="M672.54,-186.99C716.21,-179.26 780.28,-166.68 835,-151 837.28,-150.35 839.62,-149.62 841.97,-148.86"/>
<polygon fill="#63b8ff" stroke="#63b8ff" points="843.18,-152.14 851.48,-145.56 840.89,-145.53 843.18,-152.14"/>
</a>
</g>
</g>
<!-- Node18 -->
<g id="Node000018" class="node">
<title>Node18</title>
<g id="a_Node000018"><a xlink:title=" ">
<polygon fill="#e0e0e0" stroke="#999999" points="981.5,-145.5 920.5,-145.5 920.5,-126.5 981.5,-126.5 981.5,-145.5"/>
<text text-anchor="middle" x="951" y="-133.5" font-family="Helvetica,sans-Serif" font-size="10.00">QPixmap</text>
</a>
</g>
</g>
<!-- Node1&#45;&gt;Node18 -->
<g id="edge20_Node000001_Node000018" class="edge">
<title>Node1&#45;&gt;Node18</title>
<g id="a_edge20_Node000001_Node000018"><a xlink:title=" ">
<path fill="none" stroke="#63b8ff" d="M703.36,-186.96C761.85,-179.91 841.93,-168.23 911,-151 913.65,-150.34 916.38,-149.57 919.1,-148.75"/>
<polygon fill="#63b8ff" stroke="#63b8ff" points="920.37,-152.02 928.8,-145.59 918.2,-145.36 920.37,-152.02"/>
</a>
</g>
</g>
<!-- Node19 -->
<g id="Node000019" class="node">
<title>Node19</title>
<g id="a_Node000019"><a xlink:title=" ">
<polygon fill="#e0e0e0" stroke="#999999" points="1052.5,-145.5 999.5,-145.5 999.5,-126.5 1052.5,-126.5 1052.5,-145.5"/>
<text text-anchor="middle" x="1026" y="-133.5" font-family="Helvetica,sans-Serif" font-size="10.00">QTimer</text>
</a>
</g>
</g>
<!-- Node1&#45;&gt;Node19 -->
<g id="edge22_Node000001_Node000019" class="edge">
<title>Node1&#45;&gt;Node19</title>
<g id="a_edge22_Node000001_Node000019"><a xlink:title=" ">
<path fill="none" stroke="#63b8ff" d="M704.8,-191.66C780.55,-186.72 894.62,-175.62 991,-151 993.16,-150.45 995.37,-149.79 997.58,-149.07"/>
<polygon fill="#63b8ff" stroke="#63b8ff" points="998.85,-152.34 1007.05,-145.62 996.45,-145.76 998.85,-152.34"/>
</a>
</g>
</g>
<!-- Node20 -->
<g id="Node000020" class="node">
<title>Node20</title>
<g id="a_Node000020"><a xlink:title=" ">
<polygon fill="#e0e0e0" stroke="#999999" points="1153.5,-145.5 1070.5,-145.5 1070.5,-126.5 1153.5,-126.5 1153.5,-145.5"/>
<text text-anchor="middle" x="1112" y="-133.5" font-family="Helvetica,sans-Serif" font-size="10.00">QVBoxLayout</text>
</a>
</g>
</g>
<!-- Node1&#45;&gt;Node20 -->
<g id="edge23_Node000001_Node000020" class="edge">
<title>Node1&#45;&gt;Node20</title>
<g id="a_edge23_Node000001_Node000020"><a xlink:title=" ">
<path fill="none" stroke="#63b8ff" d="M704.52,-191.37C793.67,-185.96 938.75,-174.29 1062,-151 1066.19,-150.21 1070.53,-149.23 1074.83,-148.17"/>
<polygon fill="#63b8ff" stroke="#63b8ff" points="1075.92,-151.5 1084.69,-145.56 1074.13,-144.73 1075.92,-151.5"/>
</a>
</g>
</g>
<!-- Node2&#45;&gt;Node3 -->
<g id="edge2_Node000002_Node000003" class="edge">
<title>Node2&#45;&gt;Node3</title>
<g id="a_edge2_Node000002_Node000003"><a xlink:title=" ">
<path fill="none" stroke="#63b8ff" d="M340.16,-120.95C300.18,-111.08 246.54,-97.82 204.56,-87.45"/>
<polygon fill="#63b8ff" stroke="#63b8ff" points="205.25,-84.01 194.71,-85.01 203.57,-90.81 205.25,-84.01"/>
</a>
</g>
</g>
<!-- Node2&#45;&gt;Node8 -->
<g id="edge7_Node000002_Node000008" class="edge">
<title>Node2&#45;&gt;Node8</title>
<g id="a_edge7_Node000002_Node000008"><a xlink:title=" ">
<path fill="none" stroke="#63b8ff" d="M363.64,-120.95C337.1,-109.78 300.31,-94.29 274.76,-83.53"/>
<polygon fill="#63b8ff" stroke="#63b8ff" points="275.8,-80.17 265.23,-79.52 273.09,-86.62 275.8,-80.17"/>
</a>
</g>
</g>
<!-- Node2&#45;&gt;Node9 -->
<g id="edge8_Node000002_Node000009" class="edge">
<title>Node2&#45;&gt;Node9</title>
<g id="a_edge8_Node000002_Node000009"><a xlink:title=" ">
<path fill="none" stroke="#63b8ff" d="M379.91,-120.8C367.67,-110.62 351.2,-96.93 338.62,-86.48"/>
<polygon fill="#63b8ff" stroke="#63b8ff" points="340.57,-83.54 330.64,-79.84 336.09,-88.93 340.57,-83.54"/>
</a>
</g>
</g>
<!-- Node2&#45;&gt;Node10 -->
<g id="edge9_Node000002_Node000010" class="edge">
<title>Node2&#45;&gt;Node10</title>
<g id="a_edge9_Node000002_Node000010"><a xlink:title=" ">
<path fill="none" stroke="#63b8ff" d="M438.04,-120.95C471.41,-109.53 517.97,-93.6 549.46,-82.82"/>
<polygon fill="#63b8ff" stroke="#63b8ff" points="550.79,-86.07 559.11,-79.52 548.52,-79.44 550.79,-86.07"/>
</a>
</g>
</g>
<!-- Node11 -->
<g id="Node000011" class="node">
<title>Node11</title>
<g id="a_Node000011"><a xlink:title=" ">
<polygon fill="#e0e0e0" stroke="#999999" points="448,-79.5 370,-79.5 370,-60.5 448,-60.5 448,-79.5"/>
<text text-anchor="middle" x="409" y="-67.5" font-family="Helvetica,sans-Serif" font-size="10.00">QShowEvent</text>
</a>
</g>
</g>
<!-- Node2&#45;&gt;Node11 -->
<g id="edge10_Node000002_Node000011" class="edge">
<title>Node2&#45;&gt;Node11</title>
<g id="a_edge10_Node000002_Node000011"><a xlink:title=" ">
<path fill="none" stroke="#63b8ff" d="M399.66,-120.8C401.37,-111.7 403.6,-99.79 405.46,-89.9"/>
<polygon fill="#63b8ff" stroke="#63b8ff" points="408.94,-90.32 407.34,-79.84 402.06,-89.03 408.94,-90.32"/>
</a>
</g>
</g>
<!-- Node12 -->
<g id="Node000012" class="node">
<title>Node12</title>
<g id="a_Node000012"><a xlink:title=" ">
<polygon fill="#e0e0e0" stroke="#999999" points="525.5,-79.5 466.5,-79.5 466.5,-60.5 525.5,-60.5 525.5,-79.5"/>
<text text-anchor="middle" x="496" y="-67.5" font-family="Helvetica,sans-Serif" font-size="10.00">QWidget</text>
</a>
</g>
</g>
<!-- Node2&#45;&gt;Node12 -->
<g id="edge11_Node000002_Node000012" class="edge">
<title>Node2&#45;&gt;Node12</title>
<g id="a_edge11_Node000002_Node000012"><a xlink:title=" ">
<path fill="none" stroke="#63b8ff" d="M418.97,-120.8C435.41,-110.17 457.79,-95.7 474.19,-85.1"/>
<polygon fill="#63b8ff" stroke="#63b8ff" points="476.11,-88.03 482.61,-79.66 472.31,-82.15 476.11,-88.03"/>
</a>
</g>
</g>
<!-- Node4 -->
<g id="Node000004" class="node">
<title>Node4</title>
<g id="a_Node000004"><a xlink:title=" ">
<polygon fill="#e0e0e0" stroke="#999999" points="58,-19 0,-19 0,0 58,0 58,-19"/>
<text text-anchor="middle" x="29" y="-7" font-family="Helvetica,sans-Serif" font-size="10.00">memory</text>
</a>
</g>
</g>
<!-- Node3&#45;&gt;Node4 -->
<g id="edge3_Node000003_Node000004" class="edge">
<title>Node3&#45;&gt;Node4</title>
<g id="a_edge3_Node000003_Node000004"><a xlink:title=" ">
<path fill="none" stroke="#63b8ff" d="M111.89,-54.99C94.36,-45.58 71.38,-33.24 54.06,-23.95"/>
<polygon fill="#63b8ff" stroke="#63b8ff" points="55.56,-20.78 45.1,-19.14 52.25,-26.95 55.56,-20.78"/>
</a>
</g>
</g>
<!-- Node5 -->
<g id="Node000005" class="node">
<title>Node5</title>
<g id="a_Node000005"><a xlink:title=" ">
<polygon fill="#e0e0e0" stroke="#999999" points="132,-19 76,-19 76,0 132,0 132,-19"/>
<text text-anchor="middle" x="104" y="-7" font-family="Helvetica,sans-Serif" font-size="10.00">optional</text>
</a>
</g>
</g>
<!-- Node3&#45;&gt;Node5 -->
<g id="edge4_Node000003_Node000005" class="edge">
<title>Node3&#45;&gt;Node5</title>
<g id="a_edge4_Node000003_Node000005"><a xlink:title=" ">
<path fill="none" stroke="#63b8ff" d="M129.77,-54.84C125.09,-46.78 119.18,-36.62 114.2,-28.06"/>
<polygon fill="#63b8ff" stroke="#63b8ff" points="117.15,-26.15 109.09,-19.27 111.09,-29.67 117.15,-26.15"/>
</a>
</g>
</g>
<!-- Node6 -->
<g id="Node000006" class="node">
<title>Node6</title>
<g id="a_Node000006"><a xlink:title=" ">
<polygon fill="#e0e0e0" stroke="#999999" points="194,-19 150,-19 150,0 194,0 194,-19"/>
<text text-anchor="middle" x="172" y="-7" font-family="Helvetica,sans-Serif" font-size="10.00">string</text>
</a>
</g>
</g>
<!-- Node3&#45;&gt;Node6 -->
<g id="edge5_Node000003_Node000006" class="edge">
<title>Node3&#45;&gt;Node6</title>
<g id="a_edge5_Node000003_Node000006"><a xlink:title=" ">
<path fill="none" stroke="#63b8ff" d="M146.23,-54.84C150.91,-46.78 156.82,-36.62 161.8,-28.06"/>
<polygon fill="#63b8ff" stroke="#63b8ff" points="164.91,-29.67 166.91,-19.27 158.85,-26.15 164.91,-29.67"/>
</a>
</g>
</g>
<!-- Node7 -->
<g id="Node000007" class="node">
<title>Node7</title>
<g id="a_Node000007"><a xlink:title=" ">
<polygon fill="#e0e0e0" stroke="#999999" points="305.5,-19 212.5,-19 212.5,0 305.5,0 305.5,-19"/>
<text text-anchor="middle" x="259" y="-7" font-family="Helvetica,sans-Serif" font-size="10.00">unordered_map</text>
</a>
</g>
</g>
<!-- Node3&#45;&gt;Node7 -->
<g id="edge6_Node000003_Node000007" class="edge">
<title>Node3&#45;&gt;Node7</title>
<g id="a_edge6_Node000003_Node000007"><a xlink:title=" ">
<path fill="none" stroke="#63b8ff" d="M166.98,-54.99C186.72,-45.45 212.67,-32.9 231.97,-23.57"/>
<polygon fill="#63b8ff" stroke="#63b8ff" points="233.65,-26.64 241.13,-19.14 230.6,-20.34 233.65,-26.64"/>
</a>
</g>
</g>
</g>
</svg>
