<?xml version="1.0" encoding="UTF-8" standalone="no"?>
<!DOCTYPE svg PUBLIC "-//W3C//DTD SVG 1.1//EN"
 "http://www.w3.org/Graphics/SVG/1.1/DTD/svg11.dtd">
<!-- Generated by graphviz version 2.43.0 (0)
 -->
<!-- Title: include/TechMa/Views/Pages/LoginPage.h Pages: 1 -->
<svg width="328pt" height="93pt"
 viewBox="0.00 0.00 328.00 93.00" xmlns="http://www.w3.org/2000/svg" xmlns:xlink="http://www.w3.org/1999/xlink">
<g id="graph0" class="graph" transform="scale(1 1) rotate(0) translate(4 89)">
<title>include/TechMa/Views/Pages/LoginPage.h</title>
<!-- Node1 -->
<g id="Node000001" class="node">
<title>Node1</title>
<g id="a_Node000001"><a xlink:title="Declares the LoginPage class, the user interface component for login and authentication.">
<polygon fill="#999999" stroke="#666666" points="229.5,-85 105.5,-85 105.5,-55 229.5,-55 229.5,-85"/>
<text text-anchor="start" x="113.5" y="-73" font-family="Helvetica,sans-Serif" font-size="10.00">include/TechMa/Views</text>
<text text-anchor="middle" x="167.5" y="-62" font-family="Helvetica,sans-Serif" font-size="10.00">/Pages/LoginPage.h</text>
</a>
</g>
</g>
<!-- Node2 -->
<g id="Node000002" class="node">
<title>Node2</title>
<g id="a_Node000002"><a xlink:href="LoginPage_8cpp.html" target="_top" xlink:title="Implements the LoginPage class, handling user login/logout UI and interactions.">
<polygon fill="white" stroke="#666666" points="167,-19 0,-19 0,0 167,0 167,-19"/>
<text text-anchor="middle" x="83.5" y="-7" font-family="Helvetica,sans-Serif" font-size="10.00">src/Views/Pages/LoginPage.cpp</text>
</a>
</g>
</g>
<!-- Node1&#45;&gt;Node2 -->
<g id="edge1_Node000001_Node000002" class="edge">
<title>Node1&#45;&gt;Node2</title>
<g id="a_edge1_Node000001_Node000002"><a xlink:title=" ">
<path fill="none" stroke="#63b8ff" d="M138.93,-49.1C124.36,-38.95 107.38,-27.13 96.09,-19.27"/>
<polygon fill="#63b8ff" stroke="#63b8ff" points="136.96,-52 147.17,-54.84 140.96,-46.25 136.96,-52"/>
</a>
</g>
</g>
<!-- Node3 -->
<g id="Node000003" class="node">
<title>Node3</title>
<g id="a_Node000003"><a xlink:href="TechMapp_8cpp.html" target="_top" xlink:title="Implements the TechMapp class, the main application window for TechMa.">
<polygon fill="white" stroke="#666666" points="320,-19 185,-19 185,0 320,0 320,-19"/>
<text text-anchor="middle" x="252.5" y="-7" font-family="Helvetica,sans-Serif" font-size="10.00">src/Views/TechMapp.cpp</text>
</a>
</g>
</g>
<!-- Node1&#45;&gt;Node3 -->
<g id="edge2_Node000001_Node000003" class="edge">
<title>Node1&#45;&gt;Node3</title>
<g id="a_edge2_Node000001_Node000003"><a xlink:title=" ">
<path fill="none" stroke="#63b8ff" d="M196.41,-49.1C211.16,-38.95 228.34,-27.13 239.76,-19.27"/>
<polygon fill="#63b8ff" stroke="#63b8ff" points="194.33,-46.29 188.08,-54.84 198.3,-52.05 194.33,-46.29"/>
</a>
</g>
</g>
</g>
</svg>
