<?xml version="1.0" encoding="UTF-8" standalone="no"?>
<!DOCTYPE svg PUBLIC "-//W3C//DTD SVG 1.1//EN"
 "http://www.w3.org/Graphics/SVG/1.1/DTD/svg11.dtd">
<!-- Generated by graphviz version 2.43.0 (0)
 -->
<!-- Title: include/TechMa/Views/Widgets/NavigationBar.h Pages: 1 -->
<svg width="380pt" height="159pt"
 viewBox="0.00 0.00 379.50 159.00" xmlns="http://www.w3.org/2000/svg" xmlns:xlink="http://www.w3.org/1999/xlink">
<g id="graph0" class="graph" transform="scale(1 1) rotate(0) translate(4 155)">
<title>include/TechMa/Views/Widgets/NavigationBar.h</title>
<!-- Node1 -->
<g id="Node000001" class="node">
<title>Node1</title>
<g id="a_Node000001"><a xlink:title="Declares the NavigationBar class, a custom QTabBar with SVG icon rendering.">
<polygon fill="#999999" stroke="#666666" points="279.5,-151 139.5,-151 139.5,-121 279.5,-121 279.5,-151"/>
<text text-anchor="start" x="147.5" y="-139" font-family="Helvetica,sans-Serif" font-size="10.00">include/TechMa/Views</text>
<text text-anchor="middle" x="209.5" y="-128" font-family="Helvetica,sans-Serif" font-size="10.00">/Widgets/NavigationBar.h</text>
</a>
</g>
</g>
<!-- Node2 -->
<g id="Node000002" class="node">
<title>Node2</title>
<g id="a_Node000002"><a xlink:href="TechMapp_8h.html" target="_top" xlink:title="Declares the TechMapp class, the main application window for the TechMa system.">
<polygon fill="white" stroke="#666666" points="191.5,-85 67.5,-85 67.5,-55 191.5,-55 191.5,-85"/>
<text text-anchor="start" x="75.5" y="-73" font-family="Helvetica,sans-Serif" font-size="10.00">include/TechMa/Views</text>
<text text-anchor="middle" x="129.5" y="-62" font-family="Helvetica,sans-Serif" font-size="10.00">/TechMapp.h</text>
</a>
</g>
</g>
<!-- Node1&#45;&gt;Node2 -->
<g id="edge1_Node000001_Node000002" class="edge">
<title>Node1&#45;&gt;Node2</title>
<g id="a_edge1_Node000001_Node000002"><a xlink:title=" ">
<path fill="none" stroke="#63b8ff" d="M183.85,-114.48C171.89,-104.91 157.97,-93.77 147.2,-85.16"/>
<polygon fill="#63b8ff" stroke="#63b8ff" points="181.75,-117.28 191.75,-120.8 186.12,-111.82 181.75,-117.28"/>
</a>
</g>
</g>
<!-- Node5 -->
<g id="Node000005" class="node">
<title>Node5</title>
<g id="a_Node000005"><a xlink:href="NavigationBar_8cpp.html" target="_top" xlink:title="Implements the NavigationBar class, a custom tab bar with icon rendering and navigation support.">
<polygon fill="white" stroke="#666666" points="371.5,-85 209.5,-85 209.5,-55 371.5,-55 371.5,-85"/>
<text text-anchor="start" x="217.5" y="-73" font-family="Helvetica,sans-Serif" font-size="10.00">src/Views/Widgets/Navigation</text>
<text text-anchor="middle" x="290.5" y="-62" font-family="Helvetica,sans-Serif" font-size="10.00">Bar.cpp</text>
</a>
</g>
</g>
<!-- Node1&#45;&gt;Node5 -->
<g id="edge4_Node000001_Node000005" class="edge">
<title>Node1&#45;&gt;Node5</title>
<g id="a_edge4_Node000001_Node000005"><a xlink:title=" ">
<path fill="none" stroke="#63b8ff" d="M235.47,-114.48C247.58,-104.91 261.68,-93.77 272.57,-85.16"/>
<polygon fill="#63b8ff" stroke="#63b8ff" points="233.15,-111.85 227.48,-120.8 237.49,-117.34 233.15,-111.85"/>
</a>
</g>
</g>
<!-- Node3 -->
<g id="Node000003" class="node">
<title>Node3</title>
<g id="a_Node000003"><a xlink:href="TechMapp_8cpp.html" target="_top" xlink:title="Implements the TechMapp class, the main application window for TechMa.">
<polygon fill="white" stroke="#666666" points="135,-19 0,-19 0,0 135,0 135,-19"/>
<text text-anchor="middle" x="67.5" y="-7" font-family="Helvetica,sans-Serif" font-size="10.00">src/Views/TechMapp.cpp</text>
</a>
</g>
</g>
<!-- Node2&#45;&gt;Node3 -->
<g id="edge2_Node000002_Node000003" class="edge">
<title>Node2&#45;&gt;Node3</title>
<g id="a_edge2_Node000002_Node000003"><a xlink:title=" ">
<path fill="none" stroke="#63b8ff" d="M107.2,-47.96C96.72,-38.07 84.81,-26.83 76.79,-19.27"/>
<polygon fill="#63b8ff" stroke="#63b8ff" points="104.82,-50.52 114.49,-54.84 109.62,-45.43 104.82,-50.52"/>
</a>
</g>
</g>
<!-- Node4 -->
<g id="Node000004" class="node">
<title>Node4</title>
<g id="a_Node000004"><a xlink:href="main_8cpp.html" target="_top" xlink:title="Entry point for the TechMa application.">
<polygon fill="white" stroke="#666666" points="232,-19 153,-19 153,0 232,0 232,-19"/>
<text text-anchor="middle" x="192.5" y="-7" font-family="Helvetica,sans-Serif" font-size="10.00">src/main.cpp</text>
</a>
</g>
</g>
<!-- Node2&#45;&gt;Node4 -->
<g id="edge3_Node000002_Node000004" class="edge">
<title>Node2&#45;&gt;Node4</title>
<g id="a_edge3_Node000002_Node000004"><a xlink:title=" ">
<path fill="none" stroke="#63b8ff" d="M152.16,-47.96C162.8,-38.07 174.91,-26.83 183.06,-19.27"/>
<polygon fill="#63b8ff" stroke="#63b8ff" points="149.7,-45.47 144.75,-54.84 154.46,-50.6 149.7,-45.47"/>
</a>
</g>
</g>
</g>
</svg>
