<?xml version="1.0" encoding="UTF-8" standalone="no"?>
<!DOCTYPE svg PUBLIC "-//W3C//DTD SVG 1.1//EN"
 "http://www.w3.org/Graphics/SVG/1.1/DTD/svg11.dtd">
<!-- Generated by graphviz version 2.43.0 (0)
 -->
<!-- Title: src/Views/Widgets/NavigationBar.cpp Pages: 1 -->
<svg width="316pt" height="159pt"
 viewBox="0.00 0.00 315.50 159.00" xmlns="http://www.w3.org/2000/svg" xmlns:xlink="http://www.w3.org/1999/xlink">
<g id="graph0" class="graph" transform="scale(1 1) rotate(0) translate(4 155)">
<title>src/Views/Widgets/NavigationBar.cpp</title>
<!-- Node1 -->
<g id="Node000001" class="node">
<title>Node1</title>
<g id="a_Node000001"><a xlink:title="Implements the NavigationBar class, a custom tab bar with icon rendering and navigation support.">
<polygon fill="#999999" stroke="#666666" points="290.5,-151 128.5,-151 128.5,-121 290.5,-121 290.5,-151"/>
<text text-anchor="start" x="136.5" y="-139" font-family="Helvetica,sans-Serif" font-size="10.00">src/Views/Widgets/Navigation</text>
<text text-anchor="middle" x="209.5" y="-128" font-family="Helvetica,sans-Serif" font-size="10.00">Bar.cpp</text>
</a>
</g>
</g>
<!-- Node2 -->
<g id="Node000002" class="node">
<title>Node2</title>
<g id="a_Node000002"><a xlink:href="NavigationBar_8h.html" target="_top" xlink:title="Declares the NavigationBar class, a custom QTabBar with SVG icon rendering.">
<polygon fill="white" stroke="#666666" points="169.5,-85 41.5,-85 41.5,-55 169.5,-55 169.5,-85"/>
<text text-anchor="start" x="49.5" y="-73" font-family="Helvetica,sans-Serif" font-size="10.00">TechMa/Views/Widgets</text>
<text text-anchor="middle" x="105.5" y="-62" font-family="Helvetica,sans-Serif" font-size="10.00">/NavigationBar.h</text>
</a>
</g>
</g>
<!-- Node1&#45;&gt;Node2 -->
<g id="edge1_Node000001_Node000002" class="edge">
<title>Node1&#45;&gt;Node2</title>
<g id="a_edge1_Node000001_Node000002"><a xlink:title=" ">
<path fill="none" stroke="#63b8ff" d="M186.68,-120.95C172.05,-111.95 152.86,-100.14 136.81,-90.27"/>
<polygon fill="#63b8ff" stroke="#63b8ff" points="138.62,-87.27 128.27,-85.01 134.95,-93.23 138.62,-87.27"/>
</a>
</g>
</g>
<!-- Node6 -->
<g id="Node000006" class="node">
<title>Node6</title>
<g id="a_Node000006"><a xlink:title=" ">
<polygon fill="#e0e0e0" stroke="#999999" points="231.5,-79.5 187.5,-79.5 187.5,-60.5 231.5,-60.5 231.5,-79.5"/>
<text text-anchor="middle" x="209.5" y="-67.5" font-family="Helvetica,sans-Serif" font-size="10.00">QIcon</text>
</a>
</g>
</g>
<!-- Node1&#45;&gt;Node6 -->
<g id="edge5_Node000001_Node000006" class="edge">
<title>Node1&#45;&gt;Node6</title>
<g id="a_edge5_Node000001_Node000006"><a xlink:title=" ">
<path fill="none" stroke="#63b8ff" d="M209.5,-120.8C209.5,-111.7 209.5,-99.79 209.5,-89.9"/>
<polygon fill="#63b8ff" stroke="#63b8ff" points="213,-89.84 209.5,-79.84 206,-89.84 213,-89.84"/>
</a>
</g>
</g>
<!-- Node7 -->
<g id="Node000007" class="node">
<title>Node7</title>
<g id="a_Node000007"><a xlink:title=" ">
<polygon fill="#e0e0e0" stroke="#999999" points="307.5,-79.5 249.5,-79.5 249.5,-60.5 307.5,-60.5 307.5,-79.5"/>
<text text-anchor="middle" x="278.5" y="-67.5" font-family="Helvetica,sans-Serif" font-size="10.00">QPainter</text>
</a>
</g>
</g>
<!-- Node1&#45;&gt;Node7 -->
<g id="edge6_Node000001_Node000007" class="edge">
<title>Node1&#45;&gt;Node7</title>
<g id="a_edge6_Node000001_Node000007"><a xlink:title=" ">
<path fill="none" stroke="#63b8ff" d="M224.81,-120.8C235.68,-110.72 250.26,-97.19 261.49,-86.78"/>
<polygon fill="#63b8ff" stroke="#63b8ff" points="264.01,-89.21 268.96,-79.84 259.25,-84.08 264.01,-89.21"/>
</a>
</g>
</g>
<!-- Node3 -->
<g id="Node000003" class="node">
<title>Node3</title>
<g id="a_Node000003"><a xlink:title=" ">
<polygon fill="#e0e0e0" stroke="#999999" points="61,-19 0,-19 0,0 61,0 61,-19"/>
<text text-anchor="middle" x="30.5" y="-7" font-family="Helvetica,sans-Serif" font-size="10.00">QPixmap</text>
</a>
</g>
</g>
<!-- Node2&#45;&gt;Node3 -->
<g id="edge2_Node000002_Node000003" class="edge">
<title>Node2&#45;&gt;Node3</title>
<g id="a_edge2_Node000002_Node000003"><a xlink:title=" ">
<path fill="none" stroke="#63b8ff" d="M87.34,-54.84C76.01,-46 61.44,-34.63 49.88,-25.62"/>
<polygon fill="#63b8ff" stroke="#63b8ff" points="51.78,-22.66 41.74,-19.27 47.47,-28.18 51.78,-22.66"/>
</a>
</g>
</g>
<!-- Node4 -->
<g id="Node000004" class="node">
<title>Node4</title>
<g id="a_Node000004"><a xlink:title=" ">
<polygon fill="#e0e0e0" stroke="#999999" points="132,-19 79,-19 79,0 132,0 132,-19"/>
<text text-anchor="middle" x="105.5" y="-7" font-family="Helvetica,sans-Serif" font-size="10.00">QString</text>
</a>
</g>
</g>
<!-- Node2&#45;&gt;Node4 -->
<g id="edge3_Node000002_Node000004" class="edge">
<title>Node2&#45;&gt;Node4</title>
<g id="a_edge3_Node000002_Node000004"><a xlink:title=" ">
<path fill="none" stroke="#63b8ff" d="M105.5,-54.84C105.5,-47.21 105.5,-37.7 105.5,-29.45"/>
<polygon fill="#63b8ff" stroke="#63b8ff" points="109,-29.27 105.5,-19.27 102,-29.27 109,-29.27"/>
</a>
</g>
</g>
<!-- Node5 -->
<g id="Node000005" class="node">
<title>Node5</title>
<g id="a_Node000005"><a xlink:title=" ">
<polygon fill="#e0e0e0" stroke="#999999" points="207,-19 150,-19 150,0 207,0 207,-19"/>
<text text-anchor="middle" x="178.5" y="-7" font-family="Helvetica,sans-Serif" font-size="10.00">QTabBar</text>
</a>
</g>
</g>
<!-- Node2&#45;&gt;Node5 -->
<g id="edge4_Node000002_Node000005" class="edge">
<title>Node2&#45;&gt;Node5</title>
<g id="a_edge4_Node000002_Node000005"><a xlink:title=" ">
<path fill="none" stroke="#63b8ff" d="M123.17,-54.84C134.2,-46 148.39,-34.63 159.63,-25.62"/>
<polygon fill="#63b8ff" stroke="#63b8ff" points="161.95,-28.25 167.56,-19.27 157.57,-22.79 161.95,-28.25"/>
</a>
</g>
</g>
</g>
</svg>
