<?xml version="1.0" encoding="UTF-8" standalone="no"?>
<!DOCTYPE svg PUBLIC "-//W3C//DTD SVG 1.1//EN"
 "http://www.w3.org/Graphics/SVG/1.1/DTD/svg11.dtd">
<!-- Generated by graphviz version 2.43.0 (0)
 -->
<!-- Title: src/Views/Pages/ParametersPage.cpp Pages: 1 -->
<svg width="194pt" height="159pt"
 viewBox="0.00 0.00 194.00 159.00" xmlns="http://www.w3.org/2000/svg" xmlns:xlink="http://www.w3.org/1999/xlink">
<g id="graph0" class="graph" transform="scale(1 1) rotate(0) translate(4 155)">
<title>src/Views/Pages/ParametersPage.cpp</title>
<!-- Node1 -->
<g id="Node000001" class="node">
<title>Node1</title>
<g id="a_Node000001"><a xlink:title="Implements the ParametersPage class, which displays basic application parameters UI.">
<polygon fill="#999999" stroke="#666666" points="186,-151 33,-151 33,-121 186,-121 186,-151"/>
<text text-anchor="start" x="41" y="-139" font-family="Helvetica,sans-Serif" font-size="10.00">src/Views/Pages/Parameters</text>
<text text-anchor="middle" x="109.5" y="-128" font-family="Helvetica,sans-Serif" font-size="10.00">Page.cpp</text>
</a>
</g>
</g>
<!-- Node2 -->
<g id="Node000002" class="node">
<title>Node2</title>
<g id="a_Node000002"><a xlink:href="ParametersPage_8h.html" target="_top" xlink:title="Declares the ParametersPage class, a UI component for application settings or preferences.">
<polygon fill="white" stroke="#666666" points="117,-85 0,-85 0,-55 117,-55 117,-85"/>
<text text-anchor="start" x="8" y="-73" font-family="Helvetica,sans-Serif" font-size="10.00">TechMa/Views/Pages</text>
<text text-anchor="middle" x="58.5" y="-62" font-family="Helvetica,sans-Serif" font-size="10.00">/ParametersPage.h</text>
</a>
</g>
</g>
<!-- Node1&#45;&gt;Node2 -->
<g id="edge1_Node000001_Node000002" class="edge">
<title>Node1&#45;&gt;Node2</title>
<g id="a_edge1_Node000001_Node000002"><a xlink:title=" ">
<path fill="none" stroke="#63b8ff" d="M98.18,-120.8C91.71,-112.68 83.45,-102.31 76.15,-93.15"/>
<polygon fill="#63b8ff" stroke="#63b8ff" points="78.76,-90.8 69.79,-85.16 73.28,-95.17 78.76,-90.8"/>
</a>
</g>
</g>
<!-- Node4 -->
<g id="Node000004" class="node">
<title>Node4</title>
<g id="a_Node000004"><a xlink:title=" ">
<polygon fill="#e0e0e0" stroke="#999999" points="185.5,-79.5 135.5,-79.5 135.5,-60.5 185.5,-60.5 185.5,-79.5"/>
<text text-anchor="middle" x="160.5" y="-67.5" font-family="Helvetica,sans-Serif" font-size="10.00">QLabel</text>
</a>
</g>
</g>
<!-- Node1&#45;&gt;Node4 -->
<g id="edge3_Node000001_Node000004" class="edge">
<title>Node1&#45;&gt;Node4</title>
<g id="a_edge3_Node000001_Node000004"><a xlink:title=" ">
<path fill="none" stroke="#63b8ff" d="M120.82,-120.8C128.61,-111.01 139,-97.98 147.19,-87.7"/>
<polygon fill="#63b8ff" stroke="#63b8ff" points="149.96,-89.85 153.45,-79.84 144.48,-85.48 149.96,-89.85"/>
</a>
</g>
</g>
<!-- Node3 -->
<g id="Node000003" class="node">
<title>Node3</title>
<g id="a_Node000003"><a xlink:title=" ">
<polygon fill="#e0e0e0" stroke="#999999" points="88,-19 29,-19 29,0 88,0 88,-19"/>
<text text-anchor="middle" x="58.5" y="-7" font-family="Helvetica,sans-Serif" font-size="10.00">QWidget</text>
</a>
</g>
</g>
<!-- Node2&#45;&gt;Node3 -->
<g id="edge2_Node000002_Node000003" class="edge">
<title>Node2&#45;&gt;Node3</title>
<g id="a_edge2_Node000002_Node000003"><a xlink:title=" ">
<path fill="none" stroke="#63b8ff" d="M58.5,-54.84C58.5,-47.21 58.5,-37.7 58.5,-29.45"/>
<polygon fill="#63b8ff" stroke="#63b8ff" points="62,-29.27 58.5,-19.27 55,-29.27 62,-29.27"/>
</a>
</g>
</g>
</g>
</svg>
