<?xml version="1.0" encoding="UTF-8" standalone="no"?>
<!DOCTYPE svg PUBLIC "-//W3C//DTD SVG 1.1//EN"
 "http://www.w3.org/Graphics/SVG/1.1/DTD/svg11.dtd">
<!-- Generated by graphviz version 2.43.0 (0)
 -->
<!-- Title: include/TechMa/Technician/TechnicianDecorator.h Pages: 1 -->
<svg width="289pt" height="203pt"
 viewBox="0.00 0.00 288.50 203.00" xmlns="http://www.w3.org/2000/svg" xmlns:xlink="http://www.w3.org/1999/xlink">
<g id="graph0" class="graph" transform="scale(1 1) rotate(0) translate(4 199)">
<title>include/TechMa/Technician/TechnicianDecorator.h</title>
<!-- Node1 -->
<g id="Node000001" class="node">
<title>Node1</title>
<g id="a_Node000001"><a xlink:title="Declares the TechnicianDecorator abstract class used to extend technician functionality.">
<polygon fill="#999999" stroke="#666666" points="267,-195 121,-195 121,-165 267,-165 267,-195"/>
<text text-anchor="start" x="129" y="-183" font-family="Helvetica,sans-Serif" font-size="10.00">include/TechMa/Technician</text>
<text text-anchor="middle" x="194" y="-172" font-family="Helvetica,sans-Serif" font-size="10.00">/TechnicianDecorator.h</text>
</a>
</g>
</g>
<!-- Node2 -->
<g id="Node000002" class="node">
<title>Node2</title>
<g id="a_Node000002"><a xlink:href="ATechnician_8h.html" target="_top" xlink:title="Defines the abstract base class ATechnician representing a technician entity.">
<polygon fill="white" stroke="#666666" points="162,-129 0,-129 0,-110 162,-110 162,-129"/>
<text text-anchor="middle" x="81" y="-117" font-family="Helvetica,sans-Serif" font-size="10.00">TechMa/Entities/ATechnician.h</text>
</a>
</g>
</g>
<!-- Node1&#45;&gt;Node2 -->
<g id="edge1_Node000001_Node000002" class="edge">
<title>Node1&#45;&gt;Node2</title>
<g id="a_edge1_Node000001_Node000002"><a xlink:title=" ">
<path fill="none" stroke="#63b8ff" d="M166.93,-164.99C148.75,-155.58 124.93,-143.24 106.98,-133.95"/>
<polygon fill="#63b8ff" stroke="#63b8ff" points="108.18,-130.63 97.69,-129.14 104.96,-136.84 108.18,-130.63"/>
</a>
</g>
</g>
<!-- Node5 -->
<g id="Node000005" class="node">
<title>Node5</title>
<g id="a_Node000005"><a xlink:href="ExpertiseField_8h.html" target="_top" xlink:title="Declares the ExpertiseField enum class representing technician specializations, and a utility functio...">
<polygon fill="white" stroke="#666666" points="280.5,-74 115.5,-74 115.5,-55 280.5,-55 280.5,-74"/>
<text text-anchor="middle" x="198" y="-62" font-family="Helvetica,sans-Serif" font-size="10.00">TechMa/Types/ExpertiseField.h</text>
</a>
</g>
</g>
<!-- Node1&#45;&gt;Node5 -->
<g id="edge6_Node000001_Node000005" class="edge">
<title>Node1&#45;&gt;Node5</title>
<g id="a_edge6_Node000001_Node000005"><a xlink:title=" ">
<path fill="none" stroke="#63b8ff" d="M194.51,-164.63C195.23,-144.21 196.54,-106.81 197.34,-84.24"/>
<polygon fill="#63b8ff" stroke="#63b8ff" points="200.84,-84.35 197.69,-74.23 193.84,-84.1 200.84,-84.35"/>
</a>
</g>
</g>
<!-- Node6 -->
<g id="Node000006" class="node">
<title>Node6</title>
<g id="a_Node000006"><a xlink:title=" ">
<polygon fill="#e0e0e0" stroke="#999999" points="280,-129 222,-129 222,-110 280,-110 280,-129"/>
<text text-anchor="middle" x="251" y="-117" font-family="Helvetica,sans-Serif" font-size="10.00">memory</text>
</a>
</g>
</g>
<!-- Node1&#45;&gt;Node6 -->
<g id="edge7_Node000001_Node000006" class="edge">
<title>Node1&#45;&gt;Node6</title>
<g id="a_edge7_Node000001_Node000006"><a xlink:title=" ">
<path fill="none" stroke="#63b8ff" d="M207.8,-164.84C216.07,-156.35 226.62,-145.52 235.23,-136.69"/>
<polygon fill="#63b8ff" stroke="#63b8ff" points="237.99,-138.87 242.46,-129.27 232.97,-133.99 237.99,-138.87"/>
</a>
</g>
</g>
<!-- Node3 -->
<g id="Node000003" class="node">
<title>Node3</title>
<g id="a_Node000003"><a xlink:title=" ">
<polygon fill="#e0e0e0" stroke="#999999" points="132,-19 88,-19 88,0 132,0 132,-19"/>
<text text-anchor="middle" x="110" y="-7" font-family="Helvetica,sans-Serif" font-size="10.00">string</text>
</a>
</g>
</g>
<!-- Node2&#45;&gt;Node3 -->
<g id="edge2_Node000002_Node000003" class="edge">
<title>Node2&#45;&gt;Node3</title>
<g id="a_edge2_Node000002_Node000003"><a xlink:title=" ">
<path fill="none" stroke="#63b8ff" d="M68.77,-109.88C53.31,-97.85 29.96,-75.25 41,-55 49.11,-40.11 64.58,-29.45 78.82,-22.31"/>
<polygon fill="#63b8ff" stroke="#63b8ff" points="80.3,-25.48 87.91,-18.11 77.37,-19.12 80.3,-25.48"/>
</a>
</g>
</g>
<!-- Node4 -->
<g id="Node000004" class="node">
<title>Node4</title>
<g id="a_Node000004"><a xlink:title=" ">
<polygon fill="#e0e0e0" stroke="#999999" points="97.5,-74 50.5,-74 50.5,-55 97.5,-55 97.5,-74"/>
<text text-anchor="middle" x="74" y="-62" font-family="Helvetica,sans-Serif" font-size="10.00">vector</text>
</a>
</g>
</g>
<!-- Node2&#45;&gt;Node4 -->
<g id="edge3_Node000002_Node000004" class="edge">
<title>Node2&#45;&gt;Node4</title>
<g id="a_edge3_Node000002_Node000004"><a xlink:title=" ">
<path fill="none" stroke="#63b8ff" d="M79.84,-109.75C78.93,-102.8 77.61,-92.85 76.46,-84.13"/>
<polygon fill="#63b8ff" stroke="#63b8ff" points="79.91,-83.54 75.13,-74.09 72.97,-84.46 79.91,-83.54"/>
</a>
</g>
</g>
<!-- Node2&#45;&gt;Node5 -->
<g id="edge4_Node000002_Node000005" class="edge">
<title>Node2&#45;&gt;Node5</title>
<g id="a_edge4_Node000002_Node000005"><a xlink:title=" ">
<path fill="none" stroke="#63b8ff" d="M99.8,-109.98C118.62,-101.46 147.82,-88.23 169.5,-78.41"/>
<polygon fill="#63b8ff" stroke="#63b8ff" points="171.2,-81.48 178.86,-74.17 168.31,-75.11 171.2,-81.48"/>
</a>
</g>
</g>
<!-- Node5&#45;&gt;Node3 -->
<g id="edge5_Node000005_Node000003" class="edge">
<title>Node5&#45;&gt;Node3</title>
<g id="a_edge5_Node000005_Node000003"><a xlink:title=" ">
<path fill="none" stroke="#63b8ff" d="M183.86,-54.98C170.21,-46.77 149.31,-34.18 133.22,-24.49"/>
<polygon fill="#63b8ff" stroke="#63b8ff" points="134.77,-21.33 124.4,-19.17 131.16,-27.33 134.77,-21.33"/>
</a>
</g>
</g>
</g>
</svg>
