<?xml version="1.0" encoding="UTF-8" standalone="no"?>
<!DOCTYPE svg PUBLIC "-//W3C//DTD SVG 1.1//EN"
 "http://www.w3.org/Graphics/SVG/1.1/DTD/svg11.dtd">
<!-- Generated by graphviz version 2.43.0 (0)
 -->
<!-- Title: include/TechMa/Technician/TechnicianDecorator.h Pages: 1 -->
<svg width="407pt" height="170pt"
 viewBox="0.00 0.00 406.50 170.00" xmlns="http://www.w3.org/2000/svg" xmlns:xlink="http://www.w3.org/1999/xlink">
<g id="graph0" class="graph" transform="scale(1 1) rotate(0) translate(4 166)">
<title>include/TechMa/Technician/TechnicianDecorator.h</title>
<!-- Node1 -->
<g id="Node000001" class="node">
<title>Node1</title>
<g id="a_Node000001"><a xlink:title="Declares the TechnicianDecorator abstract class used to extend technician functionality.">
<polygon fill="#999999" stroke="#666666" points="241,-162 95,-162 95,-132 241,-132 241,-162"/>
<text text-anchor="start" x="103" y="-150" font-family="Helvetica,sans-Serif" font-size="10.00">include/TechMa/Technician</text>
<text text-anchor="middle" x="168" y="-139" font-family="Helvetica,sans-Serif" font-size="10.00">/TechnicianDecorator.h</text>
</a>
</g>
</g>
<!-- Node2 -->
<g id="Node000002" class="node">
<title>Node2</title>
<g id="a_Node000002"><a xlink:href="ExpertiseDecorator_8h.html" target="_top" xlink:title="Declares the ExpertiseDecorator class, which adds an expertise field to a technician using the Decora...">
<polygon fill="white" stroke="#666666" points="241,-96 95,-96 95,-66 241,-66 241,-96"/>
<text text-anchor="start" x="103" y="-84" font-family="Helvetica,sans-Serif" font-size="10.00">include/TechMa/Technician</text>
<text text-anchor="middle" x="168" y="-73" font-family="Helvetica,sans-Serif" font-size="10.00">/ExpertiseDecorator.h</text>
</a>
</g>
</g>
<!-- Node1&#45;&gt;Node2 -->
<g id="edge1_Node000001_Node000002" class="edge">
<title>Node1&#45;&gt;Node2</title>
<g id="a_edge1_Node000001_Node000002"><a xlink:title=" ">
<path fill="none" stroke="#63b8ff" d="M168,-121.54C168,-112.96 168,-103.61 168,-96.16"/>
<polygon fill="#63b8ff" stroke="#63b8ff" points="164.5,-121.8 168,-131.8 171.5,-121.8 164.5,-121.8"/>
</a>
</g>
</g>
<!-- Node3 -->
<g id="Node000003" class="node">
<title>Node3</title>
<g id="a_Node000003"><a xlink:href="ExpertiseDecorator_8cpp.html" target="_top" xlink:title="Implements the ExpertiseDecorator class, which extends a technician&#39;s expertise using the Decorator p...">
<polygon fill="white" stroke="#666666" points="134,-30 0,-30 0,0 134,0 134,-30"/>
<text text-anchor="start" x="8" y="-18" font-family="Helvetica,sans-Serif" font-size="10.00">src/Technician/Expertise</text>
<text text-anchor="middle" x="67" y="-7" font-family="Helvetica,sans-Serif" font-size="10.00">Decorator.cpp</text>
</a>
</g>
</g>
<!-- Node1&#45;&gt;Node3 -->
<g id="edge4_Node000001_Node000003" class="edge">
<title>Node1&#45;&gt;Node3</title>
<g id="a_edge4_Node000001_Node000003"><a xlink:title=" ">
<path fill="none" stroke="#63b8ff" d="M123.31,-127.19C109.52,-119.39 95.49,-109.06 86,-96 71.65,-76.25 68,-47.19 67.15,-30.07"/>
<polygon fill="#63b8ff" stroke="#63b8ff" points="121.81,-130.36 132.29,-131.95 125.09,-124.17 121.81,-130.36"/>
</a>
</g>
</g>
<!-- Node5 -->
<g id="Node000005" class="node">
<title>Node5</title>
<g id="a_Node000005"><a xlink:href="TechnicianDecorator_8cpp.html" target="_top" xlink:title="Implements the TechnicianDecorator abstract class, which delegates functionality to a wrapped ATechni...">
<polygon fill="white" stroke="#666666" points="398.5,-96 259.5,-96 259.5,-66 398.5,-66 398.5,-96"/>
<text text-anchor="start" x="267.5" y="-84" font-family="Helvetica,sans-Serif" font-size="10.00">src/Technician/Technician</text>
<text text-anchor="middle" x="329" y="-73" font-family="Helvetica,sans-Serif" font-size="10.00">Decorator.cpp</text>
</a>
</g>
</g>
<!-- Node1&#45;&gt;Node5 -->
<g id="edge5_Node000001_Node000005" class="edge">
<title>Node1&#45;&gt;Node5</title>
<g id="a_edge5_Node000001_Node000005"><a xlink:title=" ">
<path fill="none" stroke="#63b8ff" d="M212.81,-128.19C238.37,-118.02 269.97,-105.47 293.75,-96.01"/>
<polygon fill="#63b8ff" stroke="#63b8ff" points="211.33,-125.01 203.33,-131.95 213.92,-131.51 211.33,-125.01"/>
</a>
</g>
</g>
<!-- Node2&#45;&gt;Node3 -->
<g id="edge2_Node000002_Node000003" class="edge">
<title>Node2&#45;&gt;Node3</title>
<g id="a_edge2_Node000002_Node000003"><a xlink:title=" ">
<path fill="none" stroke="#63b8ff" d="M136.91,-60.3C121.54,-50.56 103.33,-39.02 89.35,-30.16"/>
<polygon fill="#63b8ff" stroke="#63b8ff" points="135.26,-63.4 145.58,-65.8 139.01,-57.49 135.26,-63.4"/>
</a>
</g>
</g>
<!-- Node4 -->
<g id="Node000004" class="node">
<title>Node4</title>
<g id="a_Node000004"><a xlink:href="TechniciansPage_8cpp.html" target="_top" xlink:title="Implements the TechniciansPage class, managing the technician creation and edition UI.">
<polygon fill="white" stroke="#666666" points="306,-30 152,-30 152,0 306,0 306,-30"/>
<text text-anchor="start" x="160" y="-18" font-family="Helvetica,sans-Serif" font-size="10.00">src/Views/Pages/Technicians</text>
<text text-anchor="middle" x="229" y="-7" font-family="Helvetica,sans-Serif" font-size="10.00">Page.cpp</text>
</a>
</g>
</g>
<!-- Node2&#45;&gt;Node4 -->
<g id="edge3_Node000002_Node000004" class="edge">
<title>Node2&#45;&gt;Node4</title>
<g id="a_edge3_Node000002_Node000004"><a xlink:title=" ">
<path fill="none" stroke="#63b8ff" d="M188.62,-58.37C197.49,-49.06 207.61,-38.44 215.5,-30.16"/>
<polygon fill="#63b8ff" stroke="#63b8ff" points="185.9,-56.14 181.54,-65.8 190.97,-60.97 185.9,-56.14"/>
</a>
</g>
</g>
</g>
</svg>
