<?xml version="1.0" encoding="UTF-8" standalone="no"?>
<!DOCTYPE svg PUBLIC "-//W3C//DTD SVG 1.1//EN"
 "http://www.w3.org/Graphics/SVG/1.1/DTD/svg11.dtd">
<!-- Generated by graphviz version 2.43.0 (0)
 -->
<!-- Title: include/TechMa/Repository/TechnicianRepository.h Pages: 1 -->
<svg width="675pt" height="214pt"
 viewBox="0.00 0.00 674.96 214.00" xmlns="http://www.w3.org/2000/svg" xmlns:xlink="http://www.w3.org/1999/xlink">
<g id="graph0" class="graph" transform="scale(1 1) rotate(0) translate(4 210)">
<title>include/TechMa/Repository/TechnicianRepository.h</title>
<!-- Node1 -->
<g id="Node000001" class="node">
<title>Node1</title>
<g id="a_Node000001"><a xlink:title="Declares the TechnicianRepository class, responsible for storing and managing technicians.">
<polygon fill="#999999" stroke="#666666" points="461.96,-206 314.96,-206 314.96,-176 461.96,-176 461.96,-206"/>
<text text-anchor="start" x="322.96" y="-194" font-family="Helvetica,sans-Serif" font-size="10.00">include/TechMa/Repository</text>
<text text-anchor="middle" x="388.46" y="-183" font-family="Helvetica,sans-Serif" font-size="10.00">/TechnicianRepository.h</text>
</a>
</g>
</g>
<!-- Node2 -->
<g id="Node000002" class="node">
<title>Node2</title>
<g id="a_Node000002"><a xlink:href="ATechnician_8h.html" target="_top" xlink:title="Defines the abstract base class ATechnician representing a technician entity.">
<polygon fill="white" stroke="#666666" points="183.46,-134.5 21.46,-134.5 21.46,-115.5 183.46,-115.5 183.46,-134.5"/>
<text text-anchor="middle" x="102.46" y="-122.5" font-family="Helvetica,sans-Serif" font-size="10.00">TechMa/Entities/ATechnician.h</text>
</a>
</g>
</g>
<!-- Node1&#45;&gt;Node2 -->
<g id="edge1_Node000001_Node000002" class="edge">
<title>Node1&#45;&gt;Node2</title>
<g id="a_edge1_Node000001_Node000002"><a xlink:title=" ">
<path fill="none" stroke="#63b8ff" d="M325.7,-175.95C272.89,-164.14 198.5,-147.49 150.38,-136.72"/>
<polygon fill="#63b8ff" stroke="#63b8ff" points="151.05,-133.29 140.52,-134.52 149.52,-140.12 151.05,-133.29"/>
</a>
</g>
</g>
<!-- Node4 -->
<g id="Node000004" class="node">
<title>Node4</title>
<g id="a_Node000004"><a xlink:title=" ">
<polygon fill="#e0e0e0" stroke="#999999" points="242.96,-74 195.96,-74 195.96,-55 242.96,-55 242.96,-74"/>
<text text-anchor="middle" x="219.46" y="-62" font-family="Helvetica,sans-Serif" font-size="10.00">vector</text>
</a>
</g>
</g>
<!-- Node1&#45;&gt;Node4 -->
<g id="edge10_Node000001_Node000004" class="edge">
<title>Node1&#45;&gt;Node4</title>
<g id="a_edge10_Node000001_Node000004"><a xlink:title=" ">
<path fill="none" stroke="#63b8ff" d="M314.83,-181.77C286.33,-174.94 255.76,-162.53 235.46,-140 221.79,-124.83 218.79,-100.86 218.56,-84.23"/>
<polygon fill="#63b8ff" stroke="#63b8ff" points="222.07,-84.14 218.75,-74.08 215.07,-84.01 222.07,-84.14"/>
</a>
</g>
</g>
<!-- Node6 -->
<g id="Node000006" class="node">
<title>Node6</title>
<g id="a_Node000006"><a xlink:href="ATechnicianObserver_8h.html" target="_top" xlink:title="Declares the ATechnicianObserver interface used for observing technician&#45;related changes.">
<polygon fill="white" stroke="#666666" points="404.96,-140 243.96,-140 243.96,-110 404.96,-110 404.96,-140"/>
<text text-anchor="start" x="251.96" y="-128" font-family="Helvetica,sans-Serif" font-size="10.00">TechMa/Observer/ATechnician</text>
<text text-anchor="middle" x="324.46" y="-117" font-family="Helvetica,sans-Serif" font-size="10.00">Observer.h</text>
</a>
</g>
</g>
<!-- Node1&#45;&gt;Node6 -->
<g id="edge6_Node000001_Node000006" class="edge">
<title>Node1&#45;&gt;Node6</title>
<g id="a_edge6_Node000001_Node000006"><a xlink:title=" ">
<path fill="none" stroke="#63b8ff" d="M374.26,-175.8C365.89,-167.43 355.14,-156.68 345.77,-147.31"/>
<polygon fill="#63b8ff" stroke="#63b8ff" points="348.17,-144.76 338.63,-140.16 343.22,-149.71 348.17,-144.76"/>
</a>
</g>
</g>
<!-- Node7 -->
<g id="Node000007" class="node">
<title>Node7</title>
<g id="a_Node000007"><a xlink:title=" ">
<polygon fill="#e0e0e0" stroke="#999999" points="481.46,-134.5 423.46,-134.5 423.46,-115.5 481.46,-115.5 481.46,-134.5"/>
<text text-anchor="middle" x="452.46" y="-122.5" font-family="Helvetica,sans-Serif" font-size="10.00">memory</text>
</a>
</g>
</g>
<!-- Node1&#45;&gt;Node7 -->
<g id="edge7_Node000001_Node000007" class="edge">
<title>Node1&#45;&gt;Node7</title>
<g id="a_edge7_Node000001_Node000007"><a xlink:title=" ">
<path fill="none" stroke="#63b8ff" d="M402.67,-175.8C412.64,-165.82 426.01,-152.46 436.38,-142.09"/>
<polygon fill="#63b8ff" stroke="#63b8ff" points="439.02,-144.39 443.62,-134.84 434.07,-139.44 439.02,-144.39"/>
</a>
</g>
</g>
<!-- Node8 -->
<g id="Node000008" class="node">
<title>Node8</title>
<g id="a_Node000008"><a xlink:title=" ">
<polygon fill="#e0e0e0" stroke="#999999" points="555.46,-134.5 499.46,-134.5 499.46,-115.5 555.46,-115.5 555.46,-134.5"/>
<text text-anchor="middle" x="527.46" y="-122.5" font-family="Helvetica,sans-Serif" font-size="10.00">optional</text>
</a>
</g>
</g>
<!-- Node1&#45;&gt;Node8 -->
<g id="edge8_Node000001_Node000008" class="edge">
<title>Node1&#45;&gt;Node8</title>
<g id="a_edge8_Node000001_Node000008"><a xlink:title=" ">
<path fill="none" stroke="#63b8ff" d="M418.97,-175.95C443.02,-164.88 476.29,-149.56 499.63,-138.82"/>
<polygon fill="#63b8ff" stroke="#63b8ff" points="501.34,-141.88 508.96,-134.52 498.42,-135.52 501.34,-141.88"/>
</a>
</g>
</g>
<!-- Node9 -->
<g id="Node000009" class="node">
<title>Node9</title>
<g id="a_Node000009"><a xlink:title=" ">
<polygon fill="#e0e0e0" stroke="#999999" points="666.96,-134.5 573.96,-134.5 573.96,-115.5 666.96,-115.5 666.96,-134.5"/>
<text text-anchor="middle" x="620.46" y="-122.5" font-family="Helvetica,sans-Serif" font-size="10.00">unordered_map</text>
</a>
</g>
</g>
<!-- Node1&#45;&gt;Node9 -->
<g id="edge9_Node000001_Node000009" class="edge">
<title>Node1&#45;&gt;Node9</title>
<g id="a_edge9_Node000001_Node000009"><a xlink:title=" ">
<path fill="none" stroke="#63b8ff" d="M439.38,-175.95C481.5,-164.34 540.54,-148.05 579.62,-137.27"/>
<polygon fill="#63b8ff" stroke="#63b8ff" points="580.88,-140.55 589.59,-134.52 579.02,-133.8 580.88,-140.55"/>
</a>
</g>
</g>
<!-- Node3 -->
<g id="Node000003" class="node">
<title>Node3</title>
<g id="a_Node000003"><a xlink:title=" ">
<polygon fill="#e0e0e0" stroke="#999999" points="61.46,-19 17.46,-19 17.46,0 61.46,0 61.46,-19"/>
<text text-anchor="middle" x="39.46" y="-7" font-family="Helvetica,sans-Serif" font-size="10.00">string</text>
</a>
</g>
</g>
<!-- Node2&#45;&gt;Node3 -->
<g id="edge2_Node000002_Node000003" class="edge">
<title>Node2&#45;&gt;Node3</title>
<g id="a_edge2_Node000002_Node000003"><a xlink:title=" ">
<path fill="none" stroke="#63b8ff" d="M64.66,-115.41C42.69,-108.26 16.78,-95.65 3.46,-74 -6.42,-57.94 7.35,-39.1 20.61,-26.13"/>
<polygon fill="#63b8ff" stroke="#63b8ff" points="23.14,-28.56 28.18,-19.24 18.43,-23.39 23.14,-28.56"/>
</a>
</g>
</g>
<!-- Node2&#45;&gt;Node4 -->
<g id="edge3_Node000002_Node000004" class="edge">
<title>Node2&#45;&gt;Node4</title>
<g id="a_edge3_Node000002_Node000004"><a xlink:title=" ">
<path fill="none" stroke="#63b8ff" d="M119.48,-115.49C138.88,-105.79 170.85,-89.81 193.4,-78.53"/>
<polygon fill="#63b8ff" stroke="#63b8ff" points="195.05,-81.62 202.43,-74.02 191.92,-75.36 195.05,-81.62"/>
</a>
</g>
</g>
<!-- Node5 -->
<g id="Node000005" class="node">
<title>Node5</title>
<g id="a_Node000005"><a xlink:href="ExpertiseField_8h.html" target="_top" xlink:title="Declares the ExpertiseField enum class representing technician specializations, and a utility functio...">
<polygon fill="white" stroke="#666666" points="177.96,-74 12.96,-74 12.96,-55 177.96,-55 177.96,-74"/>
<text text-anchor="middle" x="95.46" y="-62" font-family="Helvetica,sans-Serif" font-size="10.00">TechMa/Types/ExpertiseField.h</text>
</a>
</g>
</g>
<!-- Node2&#45;&gt;Node5 -->
<g id="edge4_Node000002_Node000005" class="edge">
<title>Node2&#45;&gt;Node5</title>
<g id="a_edge4_Node000002_Node000005"><a xlink:title=" ">
<path fill="none" stroke="#63b8ff" d="M101.43,-115.37C100.46,-107.25 98.97,-94.81 97.72,-84.39"/>
<polygon fill="#63b8ff" stroke="#63b8ff" points="101.16,-83.68 96.5,-74.17 94.21,-84.51 101.16,-83.68"/>
</a>
</g>
</g>
<!-- Node5&#45;&gt;Node3 -->
<g id="edge5_Node000005_Node000003" class="edge">
<title>Node5&#45;&gt;Node3</title>
<g id="a_edge5_Node000005_Node000003"><a xlink:title=" ">
<path fill="none" stroke="#63b8ff" d="M86.47,-54.98C78.27,-47.23 65.96,-35.58 55.99,-26.14"/>
<polygon fill="#63b8ff" stroke="#63b8ff" points="58.29,-23.5 48.62,-19.17 53.48,-28.59 58.29,-23.5"/>
</a>
</g>
</g>
</g>
</svg>
