<?xml version="1.0" encoding="UTF-8" standalone="no"?>
<!DOCTYPE svg PUBLIC "-//W3C//DTD SVG 1.1//EN"
 "http://www.w3.org/Graphics/SVG/1.1/DTD/svg11.dtd">
<!-- Generated by graphviz version 2.43.0 (0)
 -->
<!-- Title: src/Views/Widgets/TechniciansListView.cpp Pages: 1 -->
<svg width="732pt" height="280pt"
 viewBox="0.00 0.00 732.00 280.00" xmlns="http://www.w3.org/2000/svg" xmlns:xlink="http://www.w3.org/1999/xlink">
<g id="graph0" class="graph" transform="scale(1 1) rotate(0) translate(4 276)">
<title>src/Views/Widgets/TechniciansListView.cpp</title>
<!-- Node1 -->
<g id="Node000001" class="node">
<title>Node1</title>
<g id="a_Node000001"><a xlink:title="Implements the TechniciansListView class, which displays a list of technicians and handles selection ...">
<polygon fill="#999999" stroke="#666666" points="535,-272 370,-272 370,-242 535,-242 535,-272"/>
<text text-anchor="start" x="378" y="-260" font-family="Helvetica,sans-Serif" font-size="10.00">src/Views/Widgets/Technicians</text>
<text text-anchor="middle" x="452.5" y="-249" font-family="Helvetica,sans-Serif" font-size="10.00">ListView.cpp</text>
</a>
</g>
</g>
<!-- Node2 -->
<g id="Node000002" class="node">
<title>Node2</title>
<g id="a_Node000002"><a xlink:href="TechniciansListView_8h.html" target="_top" xlink:title="Declares the TechniciansListView class, a QListView for displaying and selecting technicians.">
<polygon fill="white" stroke="#666666" points="227.5,-206 99.5,-206 99.5,-176 227.5,-176 227.5,-206"/>
<text text-anchor="start" x="107.5" y="-194" font-family="Helvetica,sans-Serif" font-size="10.00">TechMa/Views/Widgets</text>
<text text-anchor="middle" x="163.5" y="-183" font-family="Helvetica,sans-Serif" font-size="10.00">/TechniciansListView.h</text>
</a>
</g>
</g>
<!-- Node1&#45;&gt;Node2 -->
<g id="edge1_Node000001_Node000002" class="edge">
<title>Node1&#45;&gt;Node2</title>
<g id="a_edge1_Node000001_Node000002"><a xlink:title=" ">
<path fill="none" stroke="#63b8ff" d="M389.08,-241.95C344.09,-231.99 283.61,-218.6 236.59,-208.19"/>
<polygon fill="#63b8ff" stroke="#63b8ff" points="237.29,-204.76 226.77,-206.01 235.78,-211.59 237.29,-204.76"/>
</a>
</g>
</g>
<!-- Node5 -->
<g id="Node000005" class="node">
<title>Node5</title>
<g id="a_Node000005"><a xlink:href="TechnicianRepository_8h.html" target="_top" xlink:title="Declares the TechnicianRepository class, responsible for storing and managing technicians.">
<polygon fill="white" stroke="#666666" points="534,-206 371,-206 371,-176 534,-176 534,-206"/>
<text text-anchor="start" x="379" y="-194" font-family="Helvetica,sans-Serif" font-size="10.00">TechMa/Repository/Technician</text>
<text text-anchor="middle" x="452.5" y="-183" font-family="Helvetica,sans-Serif" font-size="10.00">Repository.h</text>
</a>
</g>
</g>
<!-- Node1&#45;&gt;Node5 -->
<g id="edge4_Node000001_Node000005" class="edge">
<title>Node1&#45;&gt;Node5</title>
<g id="a_edge4_Node000001_Node000005"><a xlink:title=" ">
<path fill="none" stroke="#63b8ff" d="M452.5,-241.8C452.5,-234.34 452.5,-224.99 452.5,-216.41"/>
<polygon fill="#63b8ff" stroke="#63b8ff" points="456,-216.16 452.5,-206.16 449,-216.16 456,-216.16"/>
</a>
</g>
</g>
<!-- Node13 -->
<g id="Node000013" class="node">
<title>Node13</title>
<g id="a_Node000013"><a xlink:title=" ">
<polygon fill="#e0e0e0" stroke="#999999" points="652.5,-200.5 552.5,-200.5 552.5,-181.5 652.5,-181.5 652.5,-200.5"/>
<text text-anchor="middle" x="602.5" y="-188.5" font-family="Helvetica,sans-Serif" font-size="10.00">QStringListModel</text>
</a>
</g>
</g>
<!-- Node1&#45;&gt;Node13 -->
<g id="edge15_Node000001_Node000013" class="edge">
<title>Node1&#45;&gt;Node13</title>
<g id="a_edge15_Node000001_Node000013"><a xlink:title=" ">
<path fill="none" stroke="#63b8ff" d="M485.42,-241.95C511.61,-230.78 547.92,-215.29 573.13,-204.53"/>
<polygon fill="#63b8ff" stroke="#63b8ff" points="574.71,-207.66 582.54,-200.52 571.97,-201.22 574.71,-207.66"/>
</a>
</g>
</g>
<!-- Node3 -->
<g id="Node000003" class="node">
<title>Node3</title>
<g id="a_Node000003"><a xlink:href="ATechnicianObserver_8h.html" target="_top" xlink:title="Declares the ATechnicianObserver interface used for observing technician&#45;related changes.">
<polygon fill="white" stroke="#666666" points="244,-140 83,-140 83,-110 244,-110 244,-140"/>
<text text-anchor="start" x="91" y="-128" font-family="Helvetica,sans-Serif" font-size="10.00">TechMa/Observer/ATechnician</text>
<text text-anchor="middle" x="163.5" y="-117" font-family="Helvetica,sans-Serif" font-size="10.00">Observer.h</text>
</a>
</g>
</g>
<!-- Node2&#45;&gt;Node3 -->
<g id="edge2_Node000002_Node000003" class="edge">
<title>Node2&#45;&gt;Node3</title>
<g id="a_edge2_Node000002_Node000003"><a xlink:title=" ">
<path fill="none" stroke="#63b8ff" d="M163.5,-175.8C163.5,-168.34 163.5,-158.99 163.5,-150.41"/>
<polygon fill="#63b8ff" stroke="#63b8ff" points="167,-150.16 163.5,-140.16 160,-150.16 167,-150.16"/>
</a>
</g>
</g>
<!-- Node4 -->
<g id="Node000004" class="node">
<title>Node4</title>
<g id="a_Node000004"><a xlink:title=" ">
<polygon fill="#e0e0e0" stroke="#999999" points="65,-134.5 0,-134.5 0,-115.5 65,-115.5 65,-134.5"/>
<text text-anchor="middle" x="32.5" y="-122.5" font-family="Helvetica,sans-Serif" font-size="10.00">QListView</text>
</a>
</g>
</g>
<!-- Node2&#45;&gt;Node4 -->
<g id="edge3_Node000002_Node000004" class="edge">
<title>Node2&#45;&gt;Node4</title>
<g id="a_edge3_Node000002_Node000004"><a xlink:title=" ">
<path fill="none" stroke="#63b8ff" d="M134.75,-175.95C112.18,-164.93 81.01,-149.7 59.03,-138.96"/>
<polygon fill="#63b8ff" stroke="#63b8ff" points="60.46,-135.76 49.93,-134.52 57.38,-142.05 60.46,-135.76"/>
</a>
</g>
</g>
<!-- Node5&#45;&gt;Node3 -->
<g id="edge10_Node000005_Node000003" class="edge">
<title>Node5&#45;&gt;Node3</title>
<g id="a_edge10_Node000005_Node000003"><a xlink:title=" ">
<path fill="none" stroke="#63b8ff" d="M389.08,-175.95C344.09,-165.99 283.61,-152.6 236.59,-142.19"/>
<polygon fill="#63b8ff" stroke="#63b8ff" points="237.29,-138.76 226.77,-140.01 235.78,-145.59 237.29,-138.76"/>
</a>
</g>
</g>
<!-- Node6 -->
<g id="Node000006" class="node">
<title>Node6</title>
<g id="a_Node000006"><a xlink:href="ATechnician_8h.html" target="_top" xlink:title="Defines the abstract base class ATechnician representing a technician entity.">
<polygon fill="white" stroke="#666666" points="424.5,-134.5 262.5,-134.5 262.5,-115.5 424.5,-115.5 424.5,-134.5"/>
<text text-anchor="middle" x="343.5" y="-122.5" font-family="Helvetica,sans-Serif" font-size="10.00">TechMa/Entities/ATechnician.h</text>
</a>
</g>
</g>
<!-- Node5&#45;&gt;Node6 -->
<g id="edge5_Node000005_Node000006" class="edge">
<title>Node5&#45;&gt;Node6</title>
<g id="a_edge5_Node000005_Node000006"><a xlink:title=" ">
<path fill="none" stroke="#63b8ff" d="M428.58,-175.95C410.22,-165.18 385.02,-150.38 366.81,-139.69"/>
<polygon fill="#63b8ff" stroke="#63b8ff" points="368.4,-136.56 358.01,-134.52 364.86,-142.6 368.4,-136.56"/>
</a>
</g>
</g>
<!-- Node8 -->
<g id="Node000008" class="node">
<title>Node8</title>
<g id="a_Node000008"><a xlink:title=" ">
<polygon fill="#e0e0e0" stroke="#999999" points="483,-74 436,-74 436,-55 483,-55 483,-74"/>
<text text-anchor="middle" x="459.5" y="-62" font-family="Helvetica,sans-Serif" font-size="10.00">vector</text>
</a>
</g>
</g>
<!-- Node5&#45;&gt;Node8 -->
<g id="edge14_Node000005_Node000008" class="edge">
<title>Node5&#45;&gt;Node8</title>
<g id="a_edge14_Node000005_Node000008"><a xlink:title=" ">
<path fill="none" stroke="#63b8ff" d="M453.3,-175.72C454.57,-153.12 457.05,-109.12 458.45,-84.09"/>
<polygon fill="#63b8ff" stroke="#63b8ff" points="461.95,-84.25 459.02,-74.07 454.96,-83.86 461.95,-84.25"/>
</a>
</g>
</g>
<!-- Node10 -->
<g id="Node000010" class="node">
<title>Node10</title>
<g id="a_Node000010"><a xlink:title=" ">
<polygon fill="#e0e0e0" stroke="#999999" points="538.5,-134.5 480.5,-134.5 480.5,-115.5 538.5,-115.5 538.5,-134.5"/>
<text text-anchor="middle" x="509.5" y="-122.5" font-family="Helvetica,sans-Serif" font-size="10.00">memory</text>
</a>
</g>
</g>
<!-- Node5&#45;&gt;Node10 -->
<g id="edge11_Node000005_Node000010" class="edge">
<title>Node5&#45;&gt;Node10</title>
<g id="a_edge11_Node000005_Node000010"><a xlink:title=" ">
<path fill="none" stroke="#63b8ff" d="M465.15,-175.8C473.95,-165.92 485.7,-152.72 494.9,-142.39"/>
<polygon fill="#63b8ff" stroke="#63b8ff" points="497.59,-144.64 501.62,-134.84 492.36,-139.98 497.59,-144.64"/>
</a>
</g>
</g>
<!-- Node11 -->
<g id="Node000011" class="node">
<title>Node11</title>
<g id="a_Node000011"><a xlink:title=" ">
<polygon fill="#e0e0e0" stroke="#999999" points="612.5,-134.5 556.5,-134.5 556.5,-115.5 612.5,-115.5 612.5,-134.5"/>
<text text-anchor="middle" x="584.5" y="-122.5" font-family="Helvetica,sans-Serif" font-size="10.00">optional</text>
</a>
</g>
</g>
<!-- Node5&#45;&gt;Node11 -->
<g id="edge12_Node000005_Node000011" class="edge">
<title>Node5&#45;&gt;Node11</title>
<g id="a_edge12_Node000005_Node000011"><a xlink:title=" ">
<path fill="none" stroke="#63b8ff" d="M481.47,-175.95C504.21,-164.93 535.62,-149.7 557.77,-138.96"/>
<polygon fill="#63b8ff" stroke="#63b8ff" points="559.46,-142.03 566.93,-134.52 556.41,-135.73 559.46,-142.03"/>
</a>
</g>
</g>
<!-- Node12 -->
<g id="Node000012" class="node">
<title>Node12</title>
<g id="a_Node000012"><a xlink:title=" ">
<polygon fill="#e0e0e0" stroke="#999999" points="724,-134.5 631,-134.5 631,-115.5 724,-115.5 724,-134.5"/>
<text text-anchor="middle" x="677.5" y="-122.5" font-family="Helvetica,sans-Serif" font-size="10.00">unordered_map</text>
</a>
</g>
</g>
<!-- Node5&#45;&gt;Node12 -->
<g id="edge13_Node000005_Node000012" class="edge">
<title>Node5&#45;&gt;Node12</title>
<g id="a_edge13_Node000005_Node000012"><a xlink:title=" ">
<path fill="none" stroke="#63b8ff" d="M501.88,-175.95C542.73,-164.34 599.99,-148.05 637.89,-137.27"/>
<polygon fill="#63b8ff" stroke="#63b8ff" points="638.9,-140.62 647.56,-134.52 636.98,-133.89 638.9,-140.62"/>
</a>
</g>
</g>
<!-- Node7 -->
<g id="Node000007" class="node">
<title>Node7</title>
<g id="a_Node000007"><a xlink:title=" ">
<polygon fill="#e0e0e0" stroke="#999999" points="301.5,-19 257.5,-19 257.5,0 301.5,0 301.5,-19"/>
<text text-anchor="middle" x="279.5" y="-7" font-family="Helvetica,sans-Serif" font-size="10.00">string</text>
</a>
</g>
</g>
<!-- Node6&#45;&gt;Node7 -->
<g id="edge6_Node000006_Node000007" class="edge">
<title>Node6&#45;&gt;Node7</title>
<g id="a_edge6_Node000006_Node000007"><a xlink:title=" ">
<path fill="none" stroke="#63b8ff" d="M305.69,-115.41C283.72,-108.26 257.82,-95.65 244.5,-74 234.68,-58.05 248.1,-39.19 261.06,-26.19"/>
<polygon fill="#63b8ff" stroke="#63b8ff" points="263.54,-28.66 268.46,-19.28 258.77,-23.55 263.54,-28.66"/>
</a>
</g>
</g>
<!-- Node6&#45;&gt;Node8 -->
<g id="edge7_Node000006_Node000008" class="edge">
<title>Node6&#45;&gt;Node8</title>
<g id="a_edge7_Node000006_Node000008"><a xlink:title=" ">
<path fill="none" stroke="#63b8ff" d="M360.62,-115.37C379.72,-105.73 410.87,-90.03 433.1,-78.81"/>
<polygon fill="#63b8ff" stroke="#63b8ff" points="434.96,-81.8 442.31,-74.17 431.81,-75.55 434.96,-81.8"/>
</a>
</g>
</g>
<!-- Node9 -->
<g id="Node000009" class="node">
<title>Node9</title>
<g id="a_Node000009"><a xlink:href="ExpertiseField_8h.html" target="_top" xlink:title="Declares the ExpertiseField enum class representing technician specializations, and a utility functio...">
<polygon fill="white" stroke="#666666" points="418,-74 253,-74 253,-55 418,-55 418,-74"/>
<text text-anchor="middle" x="335.5" y="-62" font-family="Helvetica,sans-Serif" font-size="10.00">TechMa/Types/ExpertiseField.h</text>
</a>
</g>
</g>
<!-- Node6&#45;&gt;Node9 -->
<g id="edge8_Node000006_Node000009" class="edge">
<title>Node6&#45;&gt;Node9</title>
<g id="a_edge8_Node000006_Node000009"><a xlink:title=" ">
<path fill="none" stroke="#63b8ff" d="M342.32,-115.37C341.21,-107.25 339.51,-94.81 338.08,-84.39"/>
<polygon fill="#63b8ff" stroke="#63b8ff" points="341.51,-83.6 336.69,-74.17 334.57,-84.55 341.51,-83.6"/>
</a>
</g>
</g>
<!-- Node9&#45;&gt;Node7 -->
<g id="edge9_Node000009_Node000007" class="edge">
<title>Node9&#45;&gt;Node7</title>
<g id="a_edge9_Node000009_Node000007"><a xlink:title=" ">
<path fill="none" stroke="#63b8ff" d="M326.5,-54.98C318.31,-47.23 305.99,-35.58 296.03,-26.14"/>
<polygon fill="#63b8ff" stroke="#63b8ff" points="298.33,-23.5 288.66,-19.17 293.52,-28.59 298.33,-23.5"/>
</a>
</g>
</g>
</g>
</svg>
