<?xml version="1.0" encoding="UTF-8" standalone="no"?>
<!DOCTYPE svg PUBLIC "-//W3C//DTD SVG 1.1//EN"
 "http://www.w3.org/Graphics/SVG/1.1/DTD/svg11.dtd">
<!-- Generated by graphviz version 2.43.0 (0)
 -->
<!-- Title: src/Views/Pages/TechniciansPage.cpp Pages: 1 -->
<svg width="2045pt" height="346pt"
 viewBox="0.00 0.00 2045.00 346.00" xmlns="http://www.w3.org/2000/svg" xmlns:xlink="http://www.w3.org/1999/xlink">
<g id="graph0" class="graph" transform="scale(1 1) rotate(0) translate(4 342)">
<title>src/Views/Pages/TechniciansPage.cpp</title>
<!-- Node1 -->
<g id="Node000001" class="node">
<title>Node1</title>
<g id="a_Node000001"><a xlink:title="Implements the TechniciansPage class, managing the technician creation and edition UI.">
<polygon fill="#999999" stroke="#666666" points="1450,-338 1296,-338 1296,-308 1450,-308 1450,-338"/>
<text text-anchor="start" x="1304" y="-326" font-family="Helvetica,sans-Serif" font-size="10.00">src/Views/Pages/Technicians</text>
<text text-anchor="middle" x="1373" y="-315" font-family="Helvetica,sans-Serif" font-size="10.00">Page.cpp</text>
</a>
</g>
</g>
<!-- Node2 -->
<g id="Node000002" class="node">
<title>Node2</title>
<g id="a_Node000002"><a xlink:href="TechniciansPage_8h.html" target="_top" xlink:title="Declares the TechniciansPage class, a QWidget for managing technician&#45;related data in the UI.">
<polygon fill="white" stroke="#666666" points="229.5,-272 112.5,-272 112.5,-242 229.5,-242 229.5,-272"/>
<text text-anchor="start" x="120.5" y="-260" font-family="Helvetica,sans-Serif" font-size="10.00">TechMa/Views/Pages</text>
<text text-anchor="middle" x="171" y="-249" font-family="Helvetica,sans-Serif" font-size="10.00">/TechniciansPage.h</text>
</a>
</g>
</g>
<!-- Node1&#45;&gt;Node2 -->
<g id="edge1_Node000001_Node000002" class="edge">
<title>Node1&#45;&gt;Node2</title>
<g id="a_edge1_Node000001_Node000002"><a xlink:title=" ">
<path fill="none" stroke="#63b8ff" d="M1295.93,-318.88C1126.32,-311.85 707.98,-293.72 358,-272 318.81,-269.57 275.05,-266.32 239.72,-263.57"/>
<polygon fill="#63b8ff" stroke="#63b8ff" points="239.75,-260.06 229.51,-262.77 239.21,-267.04 239.75,-260.06"/>
</a>
</g>
</g>
<!-- Node6 -->
<g id="Node000006" class="node">
<title>Node6</title>
<g id="a_Node000006"><a xlink:href="UserAuthentication_8h.html" target="_top" xlink:title="Declaration of the User and AuthenticationService classes for managing authentication.">
<polygon fill="white" stroke="#666666" points="338,-206 210,-206 210,-176 338,-176 338,-206"/>
<text text-anchor="start" x="218" y="-194" font-family="Helvetica,sans-Serif" font-size="10.00">TechMa/Authentication</text>
<text text-anchor="middle" x="274" y="-183" font-family="Helvetica,sans-Serif" font-size="10.00">/UserAuthentication.h</text>
</a>
</g>
</g>
<!-- Node1&#45;&gt;Node6 -->
<g id="edge5_Node000001_Node000006" class="edge">
<title>Node1&#45;&gt;Node6</title>
<g id="a_edge5_Node000001_Node000006"><a xlink:title=" ">
<path fill="none" stroke="#63b8ff" d="M1295.84,-321.54C1103.7,-319.81 607.83,-311.53 448,-272 395.78,-259.08 340.07,-230.54 306.13,-211.28"/>
<polygon fill="#63b8ff" stroke="#63b8ff" points="307.58,-208.07 297.16,-206.12 304.08,-214.14 307.58,-208.07"/>
</a>
</g>
</g>
<!-- Node10 -->
<g id="Node000010" class="node">
<title>Node10</title>
<g id="a_Node000010"><a xlink:href="TechnicianRepositoryProxy_8h.html" target="_top" xlink:title="Declares the TechnicianRepositoryProxy class and the AccessDeniedException.">
<polygon fill="white" stroke="#666666" points="620.5,-272 457.5,-272 457.5,-242 620.5,-242 620.5,-272"/>
<text text-anchor="start" x="465.5" y="-260" font-family="Helvetica,sans-Serif" font-size="10.00">TechMa/Repository/Technician</text>
<text text-anchor="middle" x="539" y="-249" font-family="Helvetica,sans-Serif" font-size="10.00">RepositoryProxy.h</text>
</a>
</g>
</g>
<!-- Node1&#45;&gt;Node10 -->
<g id="edge10_Node000001_Node000010" class="edge">
<title>Node1&#45;&gt;Node10</title>
<g id="a_edge10_Node000001_Node000010"><a xlink:title=" ">
<path fill="none" stroke="#63b8ff" d="M1295.8,-318.98C1162.36,-313.28 879.81,-299.11 630.77,-272.02"/>
<polygon fill="#63b8ff" stroke="#63b8ff" points="631.13,-268.53 620.81,-270.92 630.37,-275.49 631.13,-268.53"/>
</a>
</g>
</g>
<!-- Node17 -->
<g id="Node000017" class="node">
<title>Node17</title>
<g id="a_Node000017"><a xlink:href="BasicTechnician_8h.html" target="_top" xlink:title="Declares the BasicTechnician class, a simple implementation of the ATechnician interface.">
<polygon fill="white" stroke="#666666" points="1614.5,-200.5 1417.5,-200.5 1417.5,-181.5 1614.5,-181.5 1614.5,-200.5"/>
<text text-anchor="middle" x="1516" y="-188.5" font-family="Helvetica,sans-Serif" font-size="10.00">TechMa/Technician/BasicTechnician.h</text>
</a>
</g>
</g>
<!-- Node1&#45;&gt;Node17 -->
<g id="edge30_Node000001_Node000017" class="edge">
<title>Node1&#45;&gt;Node17</title>
<g id="a_edge30_Node000001_Node000017"><a xlink:title=" ">
<path fill="none" stroke="#63b8ff" d="M1388.58,-307.84C1415.59,-283.28 1470.91,-232.99 1498.93,-207.52"/>
<polygon fill="#63b8ff" stroke="#63b8ff" points="1501.33,-210.06 1506.38,-200.75 1496.62,-204.89 1501.33,-210.06"/>
</a>
</g>
</g>
<!-- Node18 -->
<g id="Node000018" class="node">
<title>Node18</title>
<g id="a_Node000018"><a xlink:href="ExpertiseDecorator_8h.html" target="_top" xlink:title="Declares the ExpertiseDecorator class, which adds an expertise field to a technician using the Decora...">
<polygon fill="white" stroke="#666666" points="1233,-272 1077,-272 1077,-242 1233,-242 1233,-272"/>
<text text-anchor="start" x="1085" y="-260" font-family="Helvetica,sans-Serif" font-size="10.00">TechMa/Technician/Expertise</text>
<text text-anchor="middle" x="1155" y="-249" font-family="Helvetica,sans-Serif" font-size="10.00">Decorator.h</text>
</a>
</g>
</g>
<!-- Node1&#45;&gt;Node18 -->
<g id="edge34_Node000001_Node000018" class="edge">
<title>Node1&#45;&gt;Node18</title>
<g id="a_edge34_Node000001_Node000018"><a xlink:title=" ">
<path fill="none" stroke="#63b8ff" d="M1325.16,-307.95C1291.94,-298.2 1247.5,-285.16 1212.37,-274.84"/>
<polygon fill="#63b8ff" stroke="#63b8ff" points="1213.31,-271.47 1202.73,-272.01 1211.34,-278.19 1213.31,-271.47"/>
</a>
</g>
</g>
<!-- Node20 -->
<g id="Node000020" class="node">
<title>Node20</title>
<g id="a_Node000020"><a xlink:href="CreateTechnicianDialog_8h.html" target="_top" xlink:title="Declares the CreateTechnicianDialog class, a dialog for inputting new technician information.">
<polygon fill="white" stroke="#666666" points="1394.5,-272 1251.5,-272 1251.5,-242 1394.5,-242 1394.5,-272"/>
<text text-anchor="start" x="1259.5" y="-260" font-family="Helvetica,sans-Serif" font-size="10.00">TechMa/Views/Widgets</text>
<text text-anchor="middle" x="1323" y="-249" font-family="Helvetica,sans-Serif" font-size="10.00">/CreateTechnicianDialog.h</text>
</a>
</g>
</g>
<!-- Node1&#45;&gt;Node20 -->
<g id="edge40_Node000001_Node000020" class="edge">
<title>Node1&#45;&gt;Node20</title>
<g id="a_edge40_Node000001_Node000020"><a xlink:title=" ">
<path fill="none" stroke="#63b8ff" d="M1361.9,-307.8C1355.56,-299.68 1347.46,-289.31 1340.3,-280.15"/>
<polygon fill="#63b8ff" stroke="#63b8ff" points="1342.98,-277.89 1334.07,-272.16 1337.46,-282.2 1342.98,-277.89"/>
</a>
</g>
</g>
<!-- Node21 -->
<g id="Node000021" class="node">
<title>Node21</title>
<g id="a_Node000021"><a xlink:title=" ">
<polygon fill="#e0e0e0" stroke="#999999" points="1399,-200.5 1343,-200.5 1343,-181.5 1399,-181.5 1399,-200.5"/>
<text text-anchor="middle" x="1371" y="-188.5" font-family="Helvetica,sans-Serif" font-size="10.00">QDialog</text>
</a>
</g>
</g>
<!-- Node1&#45;&gt;Node21 -->
<g id="edge53_Node000001_Node000021" class="edge">
<title>Node1&#45;&gt;Node21</title>
<g id="a_edge53_Node000001_Node000021"><a xlink:title=" ">
<path fill="none" stroke="#63b8ff" d="M1384.86,-307.72C1391.93,-298.24 1400.25,-285.16 1404,-272 1407.65,-259.18 1407.83,-254.77 1404,-242 1400.33,-229.77 1392.59,-217.77 1385.53,-208.6"/>
<polygon fill="#63b8ff" stroke="#63b8ff" points="1388.16,-206.28 1379.12,-200.75 1382.73,-210.71 1388.16,-206.28"/>
</a>
</g>
</g>
<!-- Node22 -->
<g id="Node000022" class="node">
<title>Node22</title>
<g id="a_Node000022"><a xlink:href="EntityEditorLayout_8h.html" target="_top" xlink:title="Declares the EntityEditorLayout class, a custom QWidget layout for editing entities with a left/right...">
<polygon fill="white" stroke="#666666" points="913,-272 785,-272 785,-242 913,-242 913,-272"/>
<text text-anchor="start" x="793" y="-260" font-family="Helvetica,sans-Serif" font-size="10.00">TechMa/Views/Widgets</text>
<text text-anchor="middle" x="849" y="-249" font-family="Helvetica,sans-Serif" font-size="10.00">/EntityEditorLayout.h</text>
</a>
</g>
</g>
<!-- Node1&#45;&gt;Node22 -->
<g id="edge44_Node000001_Node000022" class="edge">
<title>Node1&#45;&gt;Node22</title>
<g id="a_edge44_Node000001_Node000022"><a xlink:title=" ">
<path fill="none" stroke="#63b8ff" d="M1295.75,-315.31C1207.94,-307.28 1060.1,-292.49 923.29,-272.12"/>
<polygon fill="#63b8ff" stroke="#63b8ff" points="923.45,-268.6 913.04,-270.58 922.41,-275.53 923.45,-268.6"/>
</a>
</g>
</g>
<!-- Node23 -->
<g id="Node000023" class="node">
<title>Node23</title>
<g id="a_Node000023"><a xlink:href="TechnicianEditPanel_8h.html" target="_top" xlink:title="Declares the TechnicianEditPanel class, a widget to edit a technician&#39;s name and expertise fields.">
<polygon fill="white" stroke="#666666" points="1059,-272 931,-272 931,-242 1059,-242 1059,-272"/>
<text text-anchor="start" x="939" y="-260" font-family="Helvetica,sans-Serif" font-size="10.00">TechMa/Views/Widgets</text>
<text text-anchor="middle" x="995" y="-249" font-family="Helvetica,sans-Serif" font-size="10.00">/TechnicianEditPanel.h</text>
</a>
</g>
</g>
<!-- Node1&#45;&gt;Node23 -->
<g id="edge46_Node000001_Node000023" class="edge">
<title>Node1&#45;&gt;Node23</title>
<g id="a_edge46_Node000001_Node000023"><a xlink:title=" ">
<path fill="none" stroke="#63b8ff" d="M1295.81,-309.94C1236.44,-300.52 1152.11,-286.85 1068.95,-272.14"/>
<polygon fill="#63b8ff" stroke="#63b8ff" points="1069.53,-268.69 1059.08,-270.39 1068.31,-275.58 1069.53,-268.69"/>
</a>
</g>
</g>
<!-- Node24 -->
<g id="Node000024" class="node">
<title>Node24</title>
<g id="a_Node000024"><a xlink:href="TechniciansListView_8h.html" target="_top" xlink:title="Declares the TechniciansListView class, a QListView for displaying and selecting technicians.">
<polygon fill="white" stroke="#666666" points="767,-272 639,-272 639,-242 767,-242 767,-272"/>
<text text-anchor="start" x="647" y="-260" font-family="Helvetica,sans-Serif" font-size="10.00">TechMa/Views/Widgets</text>
<text text-anchor="middle" x="703" y="-249" font-family="Helvetica,sans-Serif" font-size="10.00">/TechniciansListView.h</text>
</a>
</g>
</g>
<!-- Node1&#45;&gt;Node24 -->
<g id="edge50_Node000001_Node000024" class="edge">
<title>Node1&#45;&gt;Node24</title>
<g id="a_edge50_Node000001_Node000024"><a xlink:title=" ">
<path fill="none" stroke="#63b8ff" d="M1295.91,-318.16C1183.83,-311.99 969.23,-298 777.03,-272.04"/>
<polygon fill="#63b8ff" stroke="#63b8ff" points="777.41,-268.56 767.03,-270.68 776.47,-275.5 777.41,-268.56"/>
</a>
</g>
</g>
<!-- Node26 -->
<g id="Node000026" class="node">
<title>Node26</title>
<g id="a_Node000026"><a xlink:title=" ">
<polygon fill="#e0e0e0" stroke="#999999" points="1572.5,-266.5 1489.5,-266.5 1489.5,-247.5 1572.5,-247.5 1572.5,-266.5"/>
<text text-anchor="middle" x="1531" y="-254.5" font-family="Helvetica,sans-Serif" font-size="10.00">QHBoxLayout</text>
</a>
</g>
</g>
<!-- Node1&#45;&gt;Node26 -->
<g id="edge54_Node000001_Node000026" class="edge">
<title>Node1&#45;&gt;Node26</title>
<g id="a_edge54_Node000001_Node000026"><a xlink:title=" ">
<path fill="none" stroke="#63b8ff" d="M1407.67,-307.95C1435.38,-296.73 1473.85,-281.15 1500.42,-270.39"/>
<polygon fill="#63b8ff" stroke="#63b8ff" points="1502.02,-273.52 1509.97,-266.52 1499.39,-267.03 1502.02,-273.52"/>
</a>
</g>
</g>
<!-- Node27 -->
<g id="Node000027" class="node">
<title>Node27</title>
<g id="a_Node000027"><a xlink:title=" ">
<polygon fill="#e0e0e0" stroke="#999999" points="1641,-266.5 1591,-266.5 1591,-247.5 1641,-247.5 1641,-266.5"/>
<text text-anchor="middle" x="1616" y="-254.5" font-family="Helvetica,sans-Serif" font-size="10.00">QLabel</text>
</a>
</g>
</g>
<!-- Node1&#45;&gt;Node27 -->
<g id="edge55_Node000001_Node000027" class="edge">
<title>Node1&#45;&gt;Node27</title>
<g id="a_edge55_Node000001_Node000027"><a xlink:title=" ">
<path fill="none" stroke="#63b8ff" d="M1443.9,-307.91C1484.72,-299.09 1536.74,-286.63 1582,-272 1583.67,-271.46 1585.37,-270.87 1587.09,-270.26"/>
<polygon fill="#63b8ff" stroke="#63b8ff" points="1588.7,-273.39 1596.78,-266.53 1586.19,-266.85 1588.7,-273.39"/>
</a>
</g>
</g>
<!-- Node28 -->
<g id="Node000028" class="node">
<title>Node28</title>
<g id="a_Node000028"><a xlink:title=" ">
<polygon fill="#e0e0e0" stroke="#999999" points="1735,-266.5 1659,-266.5 1659,-247.5 1735,-247.5 1735,-266.5"/>
<text text-anchor="middle" x="1697" y="-254.5" font-family="Helvetica,sans-Serif" font-size="10.00">QListWidget</text>
</a>
</g>
</g>
<!-- Node1&#45;&gt;Node28 -->
<g id="edge56_Node000001_Node000028" class="edge">
<title>Node1&#45;&gt;Node28</title>
<g id="a_edge56_Node000001_Node000028"><a xlink:title=" ">
<path fill="none" stroke="#63b8ff" d="M1450.19,-310.42C1506.03,-301.48 1583.09,-287.95 1650,-272 1653.42,-271.19 1656.95,-270.27 1660.48,-269.31"/>
<polygon fill="#63b8ff" stroke="#63b8ff" points="1661.64,-272.62 1670.3,-266.51 1659.72,-265.88 1661.64,-272.62"/>
</a>
</g>
</g>
<!-- Node29 -->
<g id="Node000029" class="node">
<title>Node29</title>
<g id="a_Node000029"><a xlink:title=" ">
<polygon fill="#e0e0e0" stroke="#999999" points="1839,-266.5 1753,-266.5 1753,-247.5 1839,-247.5 1839,-266.5"/>
<text text-anchor="middle" x="1796" y="-254.5" font-family="Helvetica,sans-Serif" font-size="10.00">QMessageBox</text>
</a>
</g>
</g>
<!-- Node1&#45;&gt;Node29 -->
<g id="edge57_Node000001_Node000029" class="edge">
<title>Node1&#45;&gt;Node29</title>
<g id="a_edge57_Node000001_Node000029"><a xlink:title=" ">
<path fill="none" stroke="#63b8ff" d="M1450.22,-314.53C1525.6,-306.55 1643.33,-292.25 1744,-272 1748.23,-271.15 1752.62,-270.15 1756.98,-269.09"/>
<polygon fill="#63b8ff" stroke="#63b8ff" points="1758.19,-272.39 1767,-266.52 1756.45,-265.61 1758.19,-272.39"/>
</a>
</g>
</g>
<!-- Node30 -->
<g id="Node000030" class="node">
<title>Node30</title>
<g id="a_Node000030"><a xlink:title=" ">
<polygon fill="#e0e0e0" stroke="#999999" points="1937,-266.5 1857,-266.5 1857,-247.5 1937,-247.5 1937,-266.5"/>
<text text-anchor="middle" x="1897" y="-254.5" font-family="Helvetica,sans-Serif" font-size="10.00">QPushButton</text>
</a>
</g>
</g>
<!-- Node1&#45;&gt;Node30 -->
<g id="edge58_Node000001_Node000030" class="edge">
<title>Node1&#45;&gt;Node30</title>
<g id="a_edge58_Node000001_Node000030"><a xlink:title=" ">
<path fill="none" stroke="#63b8ff" d="M1450.12,-318C1544.59,-312.16 1709.21,-298.92 1848,-272 1852.1,-271.2 1856.36,-270.22 1860.58,-269.16"/>
<polygon fill="#63b8ff" stroke="#63b8ff" points="1861.5,-272.53 1870.25,-266.55 1859.68,-265.77 1861.5,-272.53"/>
</a>
</g>
</g>
<!-- Node31 -->
<g id="Node000031" class="node">
<title>Node31</title>
<g id="a_Node000031"><a xlink:title=" ">
<polygon fill="#e0e0e0" stroke="#999999" points="2037,-266.5 1955,-266.5 1955,-247.5 2037,-247.5 2037,-266.5"/>
<text text-anchor="middle" x="1996" y="-254.5" font-family="Helvetica,sans-Serif" font-size="10.00">QFormLayout</text>
</a>
</g>
</g>
<!-- Node1&#45;&gt;Node31 -->
<g id="edge59_Node000001_Node000031" class="edge">
<title>Node1&#45;&gt;Node31</title>
<g id="a_edge59_Node000001_Node000031"><a xlink:title=" ">
<path fill="none" stroke="#63b8ff" d="M1450.07,-319.82C1560.65,-315.67 1770.39,-303.96 1946,-272 1950.24,-271.23 1954.64,-270.26 1958.99,-269.19"/>
<polygon fill="#63b8ff" stroke="#63b8ff" points="1960.19,-272.49 1968.97,-266.56 1958.4,-265.72 1960.19,-272.49"/>
</a>
</g>
</g>
<!-- Node3 -->
<g id="Node000003" class="node">
<title>Node3</title>
<g id="a_Node000003"><a xlink:title=" ">
<polygon fill="#e0e0e0" stroke="#999999" points="78,-200.5 0,-200.5 0,-181.5 78,-181.5 78,-200.5"/>
<text text-anchor="middle" x="39" y="-188.5" font-family="Helvetica,sans-Serif" font-size="10.00">QShowEvent</text>
</a>
</g>
</g>
<!-- Node2&#45;&gt;Node3 -->
<g id="edge2_Node000002_Node000003" class="edge">
<title>Node2&#45;&gt;Node3</title>
<g id="a_edge2_Node000002_Node000003"><a xlink:title=" ">
<path fill="none" stroke="#63b8ff" d="M142.03,-241.95C119.29,-230.93 87.88,-215.7 65.73,-204.96"/>
<polygon fill="#63b8ff" stroke="#63b8ff" points="67.09,-201.73 56.57,-200.52 64.04,-208.03 67.09,-201.73"/>
</a>
</g>
</g>
<!-- Node4 -->
<g id="Node000004" class="node">
<title>Node4</title>
<g id="a_Node000004"><a xlink:title=" ">
<polygon fill="#e0e0e0" stroke="#999999" points="954.5,-200.5 895.5,-200.5 895.5,-181.5 954.5,-181.5 954.5,-200.5"/>
<text text-anchor="middle" x="925" y="-188.5" font-family="Helvetica,sans-Serif" font-size="10.00">QWidget</text>
</a>
</g>
</g>
<!-- Node2&#45;&gt;Node4 -->
<g id="edge3_Node000002_Node000004" class="edge">
<title>Node2&#45;&gt;Node4</title>
<g id="a_edge3_Node000002_Node000004"><a xlink:title=" ">
<path fill="none" stroke="#63b8ff" d="M229.53,-252.87C389.01,-244.19 823.53,-219.62 887,-206 889.68,-205.43 892.42,-204.7 895.15,-203.89"/>
<polygon fill="#63b8ff" stroke="#63b8ff" points="896.44,-207.15 904.81,-200.64 894.21,-200.51 896.44,-207.15"/>
</a>
</g>
</g>
<!-- Node5 -->
<g id="Node000005" class="node">
<title>Node5</title>
<g id="a_Node000005"><a xlink:title=" ">
<polygon fill="#e0e0e0" stroke="#999999" points="272,-134.5 216,-134.5 216,-115.5 272,-115.5 272,-134.5"/>
<text text-anchor="middle" x="244" y="-122.5" font-family="Helvetica,sans-Serif" font-size="10.00">optional</text>
</a>
</g>
</g>
<!-- Node2&#45;&gt;Node5 -->
<g id="edge4_Node000002_Node000005" class="edge">
<title>Node2&#45;&gt;Node5</title>
<g id="a_edge4_Node000002_Node000005"><a xlink:title=" ">
<path fill="none" stroke="#63b8ff" d="M166.33,-241.73C161.73,-224.92 156.85,-196.68 168,-176 177.15,-159.03 194.85,-146.88 210.86,-138.81"/>
<polygon fill="#63b8ff" stroke="#63b8ff" points="212.45,-141.93 220.02,-134.52 209.48,-135.59 212.45,-141.93"/>
</a>
</g>
</g>
<!-- Node6&#45;&gt;Node5 -->
<g id="edge7_Node000006_Node000005" class="edge">
<title>Node6&#45;&gt;Node5</title>
<g id="a_edge7_Node000006_Node000005"><a xlink:title=" ">
<path fill="none" stroke="#63b8ff" d="M267.34,-175.8C262.94,-166.41 257.13,-154.02 252.41,-143.95"/>
<polygon fill="#63b8ff" stroke="#63b8ff" points="255.56,-142.41 248.15,-134.84 249.22,-145.38 255.56,-142.41"/>
</a>
</g>
</g>
<!-- Node7 -->
<g id="Node000007" class="node">
<title>Node7</title>
<g id="a_Node000007"><a xlink:title=" ">
<polygon fill="#e0e0e0" stroke="#999999" points="561,-134.5 503,-134.5 503,-115.5 561,-115.5 561,-134.5"/>
<text text-anchor="middle" x="532" y="-122.5" font-family="Helvetica,sans-Serif" font-size="10.00">memory</text>
</a>
</g>
</g>
<!-- Node6&#45;&gt;Node7 -->
<g id="edge6_Node000006_Node000007" class="edge">
<title>Node6&#45;&gt;Node7</title>
<g id="a_edge6_Node000006_Node000007"><a xlink:title=" ">
<path fill="none" stroke="#63b8ff" d="M330.62,-175.95C379.78,-163.76 449.68,-146.42 492.87,-135.71"/>
<polygon fill="#63b8ff" stroke="#63b8ff" points="493.85,-139.07 502.72,-133.26 492.17,-132.27 493.85,-139.07"/>
</a>
</g>
</g>
<!-- Node8 -->
<g id="Node000008" class="node">
<title>Node8</title>
<g id="a_Node000008"><a xlink:title=" ">
<polygon fill="#e0e0e0" stroke="#999999" points="1076,-19 1032,-19 1032,0 1076,0 1076,-19"/>
<text text-anchor="middle" x="1054" y="-7" font-family="Helvetica,sans-Serif" font-size="10.00">string</text>
</a>
</g>
</g>
<!-- Node6&#45;&gt;Node8 -->
<g id="edge8_Node000006_Node000008" class="edge">
<title>Node6&#45;&gt;Node8</title>
<g id="a_edge8_Node000006_Node000008"><a xlink:title=" ">
<path fill="none" stroke="#63b8ff" d="M281.2,-175.98C291.52,-157.48 312.34,-125.46 340,-110 459.83,-43.01 898.62,-17.77 1021.7,-11.91"/>
<polygon fill="#63b8ff" stroke="#63b8ff" points="1022.14,-15.4 1031.97,-11.44 1021.82,-8.4 1022.14,-15.4"/>
</a>
</g>
</g>
<!-- Node9 -->
<g id="Node000009" class="node">
<title>Node9</title>
<g id="a_Node000009"><a xlink:title=" ">
<polygon fill="#e0e0e0" stroke="#999999" points="442.5,-134.5 349.5,-134.5 349.5,-115.5 442.5,-115.5 442.5,-134.5"/>
<text text-anchor="middle" x="396" y="-122.5" font-family="Helvetica,sans-Serif" font-size="10.00">unordered_map</text>
</a>
</g>
</g>
<!-- Node6&#45;&gt;Node9 -->
<g id="edge9_Node000006_Node000009" class="edge">
<title>Node6&#45;&gt;Node9</title>
<g id="a_edge9_Node000006_Node000009"><a xlink:title=" ">
<path fill="none" stroke="#63b8ff" d="M300.77,-175.95C321.6,-165.03 350.31,-149.97 370.74,-139.25"/>
<polygon fill="#63b8ff" stroke="#63b8ff" points="372.53,-142.26 379.76,-134.52 369.28,-136.06 372.53,-142.26"/>
</a>
</g>
</g>
<!-- Node10&#45;&gt;Node5 -->
<g id="edge26_Node000010_Node000005" class="edge">
<title>Node10&#45;&gt;Node5</title>
<g id="a_edge26_Node000010_Node000005"><a xlink:title=" ">
<path fill="none" stroke="#63b8ff" d="M457.38,-255.69C368.14,-253.41 233.46,-243.61 201,-206 184.03,-186.33 206.71,-158.84 225.04,-141.75"/>
<polygon fill="#63b8ff" stroke="#63b8ff" points="227.84,-143.94 233,-134.69 223.19,-138.71 227.84,-143.94"/>
</a>
</g>
</g>
<!-- Node10&#45;&gt;Node6 -->
<g id="edge11_Node000010_Node000006" class="edge">
<title>Node10&#45;&gt;Node6</title>
<g id="a_edge11_Node000010_Node000006"><a xlink:title=" ">
<path fill="none" stroke="#63b8ff" d="M480.84,-241.95C439.85,-232.06 384.83,-218.77 341.84,-208.38"/>
<polygon fill="#63b8ff" stroke="#63b8ff" points="342.56,-204.96 332.02,-206.01 340.92,-211.76 342.56,-204.96"/>
</a>
</g>
</g>
<!-- Node10&#45;&gt;Node7 -->
<g id="edge25_Node000010_Node000007" class="edge">
<title>Node10&#45;&gt;Node7</title>
<g id="a_edge25_Node000010_Node000007"><a xlink:title=" ">
<path fill="none" stroke="#63b8ff" d="M538.24,-241.84C536.97,-218.34 534.44,-171.26 533.02,-144.93"/>
<polygon fill="#63b8ff" stroke="#63b8ff" points="536.5,-144.55 532.47,-134.75 529.51,-144.92 536.5,-144.55"/>
</a>
</g>
</g>
<!-- Node10&#45;&gt;Node8 -->
<g id="edge28_Node000010_Node000008" class="edge">
<title>Node10&#45;&gt;Node8</title>
<g id="a_edge28_Node000010_Node000008"><a xlink:title=" ">
<path fill="none" stroke="#63b8ff" d="M457.27,-256.06C365.7,-254.18 225.62,-244.82 192,-206 175.52,-186.97 192.77,-124.18 207,-110 265.9,-51.31 873.56,-19.01 1021.61,-11.97"/>
<polygon fill="#63b8ff" stroke="#63b8ff" points="1022.02,-15.46 1031.85,-11.49 1021.69,-8.46 1022.02,-15.46"/>
</a>
</g>
</g>
<!-- Node11 -->
<g id="Node000011" class="node">
<title>Node11</title>
<g id="a_Node000011"><a xlink:href="ATechnician_8h.html" target="_top" xlink:title="Defines the abstract base class ATechnician representing a technician entity.">
<polygon fill="white" stroke="#666666" points="1135,-134.5 973,-134.5 973,-115.5 1135,-115.5 1135,-134.5"/>
<text text-anchor="middle" x="1054" y="-122.5" font-family="Helvetica,sans-Serif" font-size="10.00">TechMa/Entities/ATechnician.h</text>
</a>
</g>
</g>
<!-- Node10&#45;&gt;Node11 -->
<g id="edge12_Node000010_Node000011" class="edge">
<title>Node10&#45;&gt;Node11</title>
<g id="a_edge12_Node000010_Node000011"><a xlink:title=" ">
<path fill="none" stroke="#63b8ff" d="M592.52,-242C628.23,-232.43 676.13,-219.14 718,-206 756.62,-193.88 764.95,-186.66 804,-176 866.65,-158.9 939.6,-144.97 990.47,-136.2"/>
<polygon fill="#63b8ff" stroke="#63b8ff" points="991.07,-139.65 1000.34,-134.52 989.9,-132.75 991.07,-139.65"/>
</a>
</g>
</g>
<!-- Node12 -->
<g id="Node000012" class="node">
<title>Node12</title>
<g id="a_Node000012"><a xlink:title=" ">
<polygon fill="#e0e0e0" stroke="#999999" points="968.5,-74 921.5,-74 921.5,-55 968.5,-55 968.5,-74"/>
<text text-anchor="middle" x="945" y="-62" font-family="Helvetica,sans-Serif" font-size="10.00">vector</text>
</a>
</g>
</g>
<!-- Node10&#45;&gt;Node12 -->
<g id="edge29_Node000010_Node000012" class="edge">
<title>Node10&#45;&gt;Node12</title>
<g id="a_edge29_Node000010_Node000012"><a xlink:title=" ">
<path fill="none" stroke="#63b8ff" d="M591.42,-241.98C612.17,-234.23 634.87,-222.69 651,-206 683.01,-172.89 654.16,-138.92 690,-110 723.49,-82.98 849.57,-71.48 910.97,-67.41"/>
<polygon fill="#63b8ff" stroke="#63b8ff" points="911.54,-70.88 921.3,-66.75 911.1,-63.89 911.54,-70.88"/>
</a>
</g>
</g>
<!-- Node14 -->
<g id="Node000014" class="node">
<title>Node14</title>
<g id="a_Node000014"><a xlink:href="ATechnicianObserver_8h.html" target="_top" xlink:title="Declares the ATechnicianObserver interface used for observing technician&#45;related changes.">
<polygon fill="white" stroke="#666666" points="859.5,-140 698.5,-140 698.5,-110 859.5,-110 859.5,-140"/>
<text text-anchor="start" x="706.5" y="-128" font-family="Helvetica,sans-Serif" font-size="10.00">TechMa/Observer/ATechnician</text>
<text text-anchor="middle" x="779" y="-117" font-family="Helvetica,sans-Serif" font-size="10.00">Observer.h</text>
</a>
</g>
</g>
<!-- Node10&#45;&gt;Node14 -->
<g id="edge17_Node000010_Node000014" class="edge">
<title>Node10&#45;&gt;Node14</title>
<g id="a_edge17_Node000010_Node000014"><a xlink:title=" ">
<path fill="none" stroke="#63b8ff" d="M595.1,-241.9C622.89,-233.64 656.32,-221.7 684,-206 712.23,-189.99 740.1,-165.15 758.28,-147.4"/>
<polygon fill="#63b8ff" stroke="#63b8ff" points="760.82,-149.81 765.45,-140.28 755.89,-144.84 760.82,-149.81"/>
</a>
</g>
</g>
<!-- Node15 -->
<g id="Node000015" class="node">
<title>Node15</title>
<g id="a_Node000015"><a xlink:href="TechnicianRepository_8h.html" target="_top" xlink:title="Declares the TechnicianRepository class, responsible for storing and managing technicians.">
<polygon fill="white" stroke="#666666" points="519.5,-206 356.5,-206 356.5,-176 519.5,-176 519.5,-206"/>
<text text-anchor="start" x="364.5" y="-194" font-family="Helvetica,sans-Serif" font-size="10.00">TechMa/Repository/Technician</text>
<text text-anchor="middle" x="438" y="-183" font-family="Helvetica,sans-Serif" font-size="10.00">Repository.h</text>
</a>
</g>
</g>
<!-- Node10&#45;&gt;Node15 -->
<g id="edge18_Node000010_Node000015" class="edge">
<title>Node10&#45;&gt;Node15</title>
<g id="a_edge18_Node000010_Node000015"><a xlink:title=" ">
<path fill="none" stroke="#63b8ff" d="M516.58,-241.8C502.59,-232.93 484.38,-221.39 469.02,-211.66"/>
<polygon fill="#63b8ff" stroke="#63b8ff" points="470.67,-208.56 460.35,-206.16 466.93,-214.47 470.67,-208.56"/>
</a>
</g>
</g>
<!-- Node16 -->
<g id="Node000016" class="node">
<title>Node16</title>
<g id="a_Node000016"><a xlink:title=" ">
<polygon fill="#e0e0e0" stroke="#999999" points="641.5,-200.5 576.5,-200.5 576.5,-181.5 641.5,-181.5 641.5,-200.5"/>
<text text-anchor="middle" x="609" y="-188.5" font-family="Helvetica,sans-Serif" font-size="10.00">stdexcept</text>
</a>
</g>
</g>
<!-- Node10&#45;&gt;Node16 -->
<g id="edge27_Node000010_Node000016" class="edge">
<title>Node10&#45;&gt;Node16</title>
<g id="a_edge27_Node000010_Node000016"><a xlink:title=" ">
<path fill="none" stroke="#63b8ff" d="M554.54,-241.8C565.56,-231.72 580.35,-218.19 591.74,-207.78"/>
<polygon fill="#63b8ff" stroke="#63b8ff" points="594.31,-210.18 599.33,-200.84 589.58,-205.01 594.31,-210.18"/>
</a>
</g>
</g>
<!-- Node11&#45;&gt;Node8 -->
<g id="edge13_Node000011_Node000008" class="edge">
<title>Node11&#45;&gt;Node8</title>
<g id="a_edge13_Node000011_Node000008"><a xlink:title=" ">
<path fill="none" stroke="#63b8ff" d="M1054,-115.47C1054,-97.23 1054,-54.07 1054,-29.14"/>
<polygon fill="#63b8ff" stroke="#63b8ff" points="1057.5,-29.13 1054,-19.13 1050.5,-29.13 1057.5,-29.13"/>
</a>
</g>
</g>
<!-- Node11&#45;&gt;Node12 -->
<g id="edge14_Node000011_Node000012" class="edge">
<title>Node11&#45;&gt;Node12</title>
<g id="a_edge14_Node000011_Node000012"><a xlink:title=" ">
<path fill="none" stroke="#63b8ff" d="M1037.92,-115.37C1020.05,-105.78 990.96,-90.17 970.09,-78.97"/>
<polygon fill="#63b8ff" stroke="#63b8ff" points="971.62,-75.81 961.15,-74.17 968.31,-81.98 971.62,-75.81"/>
</a>
</g>
</g>
<!-- Node13 -->
<g id="Node000013" class="node">
<title>Node13</title>
<g id="a_Node000013"><a xlink:href="ExpertiseField_8h.html" target="_top" xlink:title="Declares the ExpertiseField enum class representing technician specializations, and a utility functio...">
<polygon fill="white" stroke="#666666" points="1321.5,-74 1156.5,-74 1156.5,-55 1321.5,-55 1321.5,-74"/>
<text text-anchor="middle" x="1239" y="-62" font-family="Helvetica,sans-Serif" font-size="10.00">TechMa/Types/ExpertiseField.h</text>
</a>
</g>
</g>
<!-- Node11&#45;&gt;Node13 -->
<g id="edge15_Node000011_Node000013" class="edge">
<title>Node11&#45;&gt;Node13</title>
<g id="a_edge15_Node000011_Node000013"><a xlink:title=" ">
<path fill="none" stroke="#63b8ff" d="M1080.9,-115.49C1112.96,-105.36 1166.68,-88.37 1202.48,-77.05"/>
<polygon fill="#63b8ff" stroke="#63b8ff" points="1203.59,-80.37 1212.07,-74.02 1201.48,-73.69 1203.59,-80.37"/>
</a>
</g>
</g>
<!-- Node13&#45;&gt;Node8 -->
<g id="edge16_Node000013_Node000008" class="edge">
<title>Node13&#45;&gt;Node8</title>
<g id="a_edge16_Node000013_Node000008"><a xlink:title=" ">
<path fill="none" stroke="#63b8ff" d="M1209.28,-54.98C1175.44,-45.29 1120.38,-29.52 1085.73,-19.59"/>
<polygon fill="#63b8ff" stroke="#63b8ff" points="1086.68,-16.22 1076.1,-16.83 1084.75,-22.95 1086.68,-16.22"/>
</a>
</g>
</g>
<!-- Node15&#45;&gt;Node5 -->
<g id="edge22_Node000015_Node000005" class="edge">
<title>Node15&#45;&gt;Node5</title>
<g id="a_edge22_Node000015_Node000005"><a xlink:title=" ">
<path fill="none" stroke="#63b8ff" d="M395.43,-175.95C360.65,-164.48 312.09,-148.46 279.41,-137.68"/>
<polygon fill="#63b8ff" stroke="#63b8ff" points="280.41,-134.33 269.82,-134.52 278.22,-140.97 280.41,-134.33"/>
</a>
</g>
</g>
<!-- Node15&#45;&gt;Node7 -->
<g id="edge21_Node000015_Node000007" class="edge">
<title>Node15&#45;&gt;Node7</title>
<g id="a_edge21_Node000015_Node000007"><a xlink:title=" ">
<path fill="none" stroke="#63b8ff" d="M458.86,-175.8C474.32,-165.27 495.32,-150.97 510.85,-140.4"/>
<polygon fill="#63b8ff" stroke="#63b8ff" points="512.99,-143.18 519.28,-134.66 509.05,-137.39 512.99,-143.18"/>
</a>
</g>
</g>
<!-- Node15&#45;&gt;Node9 -->
<g id="edge23_Node000015_Node000009" class="edge">
<title>Node15&#45;&gt;Node9</title>
<g id="a_edge23_Node000015_Node000009"><a xlink:title=" ">
<path fill="none" stroke="#63b8ff" d="M428.68,-175.8C422.39,-166.21 414.05,-153.5 407.37,-143.32"/>
<polygon fill="#63b8ff" stroke="#63b8ff" points="410.22,-141.28 401.8,-134.84 404.36,-145.13 410.22,-141.28"/>
</a>
</g>
</g>
<!-- Node15&#45;&gt;Node11 -->
<g id="edge19_Node000015_Node000011" class="edge">
<title>Node15&#45;&gt;Node11</title>
<g id="a_edge19_Node000015_Node000011"><a xlink:title=" ">
<path fill="none" stroke="#63b8ff" d="M519.82,-181.13C535.8,-179.41 552.42,-177.64 568,-176 705.48,-161.53 864.9,-145.21 962.59,-135.27"/>
<polygon fill="#63b8ff" stroke="#63b8ff" points="963.13,-138.74 972.73,-134.24 962.42,-131.77 963.13,-138.74"/>
</a>
</g>
</g>
<!-- Node15&#45;&gt;Node12 -->
<g id="edge24_Node000015_Node000012" class="edge">
<title>Node15&#45;&gt;Node12</title>
<g id="a_edge24_Node000015_Node000012"><a xlink:title=" ">
<path fill="none" stroke="#63b8ff" d="M443.44,-175.86C451.43,-157.23 468.24,-125.06 494,-110 564.72,-68.64 818.84,-65.12 911.17,-65.25"/>
<polygon fill="#63b8ff" stroke="#63b8ff" points="911.34,-68.75 921.35,-65.28 911.36,-61.75 911.34,-68.75"/>
</a>
</g>
</g>
<!-- Node15&#45;&gt;Node14 -->
<g id="edge20_Node000015_Node000014" class="edge">
<title>Node15&#45;&gt;Node14</title>
<g id="a_edge20_Node000015_Node000014"><a xlink:title=" ">
<path fill="none" stroke="#63b8ff" d="M512.83,-175.95C566.47,-165.89 638.78,-152.32 694.49,-141.86"/>
<polygon fill="#63b8ff" stroke="#63b8ff" points="695.16,-145.3 704.34,-140.01 693.87,-138.42 695.16,-145.3"/>
</a>
</g>
</g>
<!-- Node17&#45;&gt;Node8 -->
<g id="edge31_Node000017_Node000008" class="edge">
<title>Node17&#45;&gt;Node8</title>
<g id="a_edge31_Node000017_Node000008"><a xlink:title=" ">
<path fill="none" stroke="#63b8ff" d="M1507.34,-181.25C1482.47,-156.72 1407.71,-86.97 1331,-55 1247.51,-20.21 1139.38,-12.48 1086.3,-10.85"/>
<polygon fill="#63b8ff" stroke="#63b8ff" points="1086.22,-7.35 1076.14,-10.6 1086.05,-14.35 1086.22,-7.35"/>
</a>
</g>
</g>
<!-- Node17&#45;&gt;Node11 -->
<g id="edge32_Node000017_Node000011" class="edge">
<title>Node17&#45;&gt;Node11</title>
<g id="a_edge32_Node000017_Node000011"><a xlink:title=" ">
<path fill="none" stroke="#63b8ff" d="M1454.17,-181.44C1368.94,-169.63 1215.69,-148.4 1125.59,-135.92"/>
<polygon fill="#63b8ff" stroke="#63b8ff" points="1125.85,-132.42 1115.46,-134.51 1124.89,-139.35 1125.85,-132.42"/>
</a>
</g>
</g>
<!-- Node17&#45;&gt;Node13 -->
<g id="edge33_Node000017_Node000013" class="edge">
<title>Node17&#45;&gt;Node13</title>
<g id="a_edge33_Node000017_Node000013"><a xlink:title=" ">
<path fill="none" stroke="#63b8ff" d="M1496.96,-181.44C1449.22,-159.99 1324.22,-103.8 1267.6,-78.35"/>
<polygon fill="#63b8ff" stroke="#63b8ff" points="1268.73,-75.02 1258.17,-74.12 1265.86,-81.41 1268.73,-75.02"/>
</a>
</g>
</g>
<!-- Node18&#45;&gt;Node13 -->
<g id="edge39_Node000018_Node000013" class="edge">
<title>Node18&#45;&gt;Node13</title>
<g id="a_edge39_Node000018_Node000013"><a xlink:title=" ">
<path fill="none" stroke="#63b8ff" d="M1175.49,-241.81C1187.89,-232.56 1203.48,-219.7 1215,-206 1236.79,-180.09 1244.26,-172.7 1253,-140 1258.03,-121.18 1252.56,-99.2 1247.05,-84.02"/>
<polygon fill="#63b8ff" stroke="#63b8ff" points="1250.14,-82.31 1243.18,-74.31 1243.63,-84.9 1250.14,-82.31"/>
</a>
</g>
</g>
<!-- Node19 -->
<g id="Node000019" class="node">
<title>Node19</title>
<g id="a_Node000019"><a xlink:href="TechnicianDecorator_8h.html" target="_top" xlink:title="Declares the TechnicianDecorator abstract class used to extend technician functionality.">
<polygon fill="white" stroke="#666666" points="1172.5,-206 1011.5,-206 1011.5,-176 1172.5,-176 1172.5,-206"/>
<text text-anchor="start" x="1019.5" y="-194" font-family="Helvetica,sans-Serif" font-size="10.00">TechMa/Technician/Technician</text>
<text text-anchor="middle" x="1092" y="-183" font-family="Helvetica,sans-Serif" font-size="10.00">Decorator.h</text>
</a>
</g>
</g>
<!-- Node18&#45;&gt;Node19 -->
<g id="edge35_Node000018_Node000019" class="edge">
<title>Node18&#45;&gt;Node19</title>
<g id="a_edge35_Node000018_Node000019"><a xlink:title=" ">
<path fill="none" stroke="#63b8ff" d="M1141.02,-241.8C1132.78,-233.43 1122.2,-222.68 1112.98,-213.31"/>
<polygon fill="#63b8ff" stroke="#63b8ff" points="1115.45,-210.84 1105.94,-206.16 1110.46,-215.75 1115.45,-210.84"/>
</a>
</g>
</g>
<!-- Node19&#45;&gt;Node7 -->
<g id="edge38_Node000019_Node000007" class="edge">
<title>Node19&#45;&gt;Node7</title>
<g id="a_edge38_Node000019_Node000007"><a xlink:title=" ">
<path fill="none" stroke="#63b8ff" d="M1011.47,-180.8C889.48,-166.86 662.44,-140.91 571.33,-130.49"/>
<polygon fill="#63b8ff" stroke="#63b8ff" points="571.49,-126.99 561.16,-129.33 570.7,-133.95 571.49,-126.99"/>
</a>
</g>
</g>
<!-- Node19&#45;&gt;Node11 -->
<g id="edge36_Node000019_Node000011" class="edge">
<title>Node19&#45;&gt;Node11</title>
<g id="a_edge36_Node000019_Node000011"><a xlink:title=" ">
<path fill="none" stroke="#63b8ff" d="M1083.57,-175.8C1077.93,-166.31 1070.48,-153.76 1064.47,-143.63"/>
<polygon fill="#63b8ff" stroke="#63b8ff" points="1067.37,-141.66 1059.25,-134.84 1061.35,-145.23 1067.37,-141.66"/>
</a>
</g>
</g>
<!-- Node19&#45;&gt;Node13 -->
<g id="edge37_Node000019_Node000013" class="edge">
<title>Node19&#45;&gt;Node13</title>
<g id="a_edge37_Node000019_Node000013"><a xlink:title=" ">
<path fill="none" stroke="#63b8ff" d="M1108.58,-175.96C1136.46,-152.35 1192.5,-104.88 1221.19,-80.58"/>
<polygon fill="#63b8ff" stroke="#63b8ff" points="1223.47,-83.24 1228.83,-74.11 1218.94,-77.9 1223.47,-83.24"/>
</a>
</g>
</g>
<!-- Node20&#45;&gt;Node12 -->
<g id="edge43_Node000020_Node000012" class="edge">
<title>Node20&#45;&gt;Node12</title>
<g id="a_edge43_Node000020_Node000012"><a xlink:title=" ">
<path fill="none" stroke="#63b8ff" d="M1310.18,-241.81C1282.76,-212.37 1215.06,-144.51 1144,-110 1089.66,-83.61 1019.34,-72.63 978.49,-68.24"/>
<polygon fill="#63b8ff" stroke="#63b8ff" points="978.82,-64.76 968.52,-67.24 978.12,-71.72 978.82,-64.76"/>
</a>
</g>
</g>
<!-- Node20&#45;&gt;Node13 -->
<g id="edge41_Node000020_Node000013" class="edge">
<title>Node20&#45;&gt;Node13</title>
<g id="a_edge41_Node000020_Node000013"><a xlink:title=" ">
<path fill="none" stroke="#63b8ff" d="M1318.62,-241.93C1310.16,-215.43 1290.32,-156.61 1267,-110 1262.3,-100.61 1256.18,-90.68 1250.85,-82.58"/>
<polygon fill="#63b8ff" stroke="#63b8ff" points="1253.6,-80.4 1245.1,-74.07 1247.8,-84.32 1253.6,-80.4"/>
</a>
</g>
</g>
<!-- Node20&#45;&gt;Node21 -->
<g id="edge42_Node000020_Node000021" class="edge">
<title>Node20&#45;&gt;Node21</title>
<g id="a_edge42_Node000020_Node000021"><a xlink:title=" ">
<path fill="none" stroke="#63b8ff" d="M1333.65,-241.8C1340.92,-232.11 1350.57,-219.24 1358.24,-209.01"/>
<polygon fill="#63b8ff" stroke="#63b8ff" points="1361.17,-210.94 1364.37,-200.84 1355.57,-206.74 1361.17,-210.94"/>
</a>
</g>
</g>
<!-- Node22&#45;&gt;Node4 -->
<g id="edge45_Node000022_Node000004" class="edge">
<title>Node22&#45;&gt;Node4</title>
<g id="a_edge45_Node000022_Node000004"><a xlink:title=" ">
<path fill="none" stroke="#63b8ff" d="M865.87,-241.8C877.95,-231.62 894.21,-217.93 906.62,-207.48"/>
<polygon fill="#63b8ff" stroke="#63b8ff" points="909.1,-209.96 914.5,-200.84 904.59,-204.61 909.1,-209.96"/>
</a>
</g>
</g>
<!-- Node23&#45;&gt;Node4 -->
<g id="edge48_Node000023_Node000004" class="edge">
<title>Node23&#45;&gt;Node4</title>
<g id="a_edge48_Node000023_Node000004"><a xlink:title=" ">
<path fill="none" stroke="#63b8ff" d="M979.46,-241.8C968.44,-231.72 953.65,-218.19 942.26,-207.78"/>
<polygon fill="#63b8ff" stroke="#63b8ff" points="944.42,-205.01 934.67,-200.84 939.69,-210.18 944.42,-205.01"/>
</a>
</g>
</g>
<!-- Node23&#45;&gt;Node12 -->
<g id="edge49_Node000023_Node000012" class="edge">
<title>Node23&#45;&gt;Node12</title>
<g id="a_edge49_Node000023_Node000012"><a xlink:title=" ">
<path fill="none" stroke="#63b8ff" d="M991.13,-241.73C985.21,-219.85 973.59,-176.71 964,-140 959.06,-121.06 953.54,-99.38 949.73,-84.31"/>
<polygon fill="#63b8ff" stroke="#63b8ff" points="953.03,-83.07 947.19,-74.23 946.24,-84.78 953.03,-83.07"/>
</a>
</g>
</g>
<!-- Node23&#45;&gt;Node13 -->
<g id="edge47_Node000023_Node000013" class="edge">
<title>Node23&#45;&gt;Node13</title>
<g id="a_edge47_Node000023_Node000013"><a xlink:title=" ">
<path fill="none" stroke="#63b8ff" d="M1058.77,-241.9C1109.14,-230.28 1172.49,-214.4 1182,-206 1218.57,-173.71 1232.06,-114.54 1236.73,-84.33"/>
<polygon fill="#63b8ff" stroke="#63b8ff" points="1240.21,-84.67 1238.11,-74.29 1233.28,-83.71 1240.21,-84.67"/>
</a>
</g>
</g>
<!-- Node24&#45;&gt;Node14 -->
<g id="edge51_Node000024_Node000014" class="edge">
<title>Node24&#45;&gt;Node14</title>
<g id="a_edge51_Node000024_Node000014"><a xlink:title=" ">
<path fill="none" stroke="#63b8ff" d="M711.28,-241.84C724.36,-219.47 749.92,-175.74 765.62,-148.88"/>
<polygon fill="#63b8ff" stroke="#63b8ff" points="768.71,-150.54 770.73,-140.14 762.66,-147.01 768.71,-150.54"/>
</a>
</g>
</g>
<!-- Node25 -->
<g id="Node000025" class="node">
<title>Node25</title>
<g id="a_Node000025"><a xlink:title=" ">
<polygon fill="#e0e0e0" stroke="#999999" points="877.5,-200.5 812.5,-200.5 812.5,-181.5 877.5,-181.5 877.5,-200.5"/>
<text text-anchor="middle" x="845" y="-188.5" font-family="Helvetica,sans-Serif" font-size="10.00">QListView</text>
</a>
</g>
</g>
<!-- Node24&#45;&gt;Node25 -->
<g id="edge52_Node000024_Node000025" class="edge">
<title>Node24&#45;&gt;Node25</title>
<g id="a_edge52_Node000024_Node000025"><a xlink:title=" ">
<path fill="none" stroke="#63b8ff" d="M734.16,-241.95C758.85,-230.83 793.03,-215.42 816.88,-204.67"/>
<polygon fill="#63b8ff" stroke="#63b8ff" points="818.42,-207.82 826.1,-200.52 815.55,-201.44 818.42,-207.82"/>
</a>
</g>
</g>
</g>
</svg>
