<?xml version="1.0" encoding="UTF-8" standalone="no"?>
<!DOCTYPE svg PUBLIC "-//W3C//DTD SVG 1.1//EN"
 "http://www.w3.org/Graphics/SVG/1.1/DTD/svg11.dtd">
<!-- Generated by graphviz version 2.43.0 (0)
 -->
<!-- Title: src/Views/TechMapp.cpp Pages: 1 -->
<svg width="1587pt" height="214pt"
 viewBox="0.00 0.00 1587.00 214.00" xmlns="http://www.w3.org/2000/svg" xmlns:xlink="http://www.w3.org/1999/xlink">
<g id="graph0" class="graph" transform="scale(1 1) rotate(0) translate(4 210)">
<title>src/Views/TechMapp.cpp</title>
<!-- Node1 -->
<g id="Node000001" class="node">
<title>Node1</title>
<g id="a_Node000001"><a xlink:title="Implements the TechMapp class, the main application window for TechMa.">
<polygon fill="#999999" stroke="#666666" points="860,-206 725,-206 725,-187 860,-187 860,-206"/>
<text text-anchor="middle" x="792.5" y="-194" font-family="Helvetica,sans-Serif" font-size="10.00">src/Views/TechMapp.cpp</text>
</a>
</g>
</g>
<!-- Node2 -->
<g id="Node000002" class="node">
<title>Node2</title>
<g id="a_Node000002"><a xlink:href="TechMapp_8h.html" target="_top" xlink:title="Declares the TechMapp class, the main application window for the TechMa system.">
<polygon fill="white" stroke="#666666" points="800.5,-145.5 654.5,-145.5 654.5,-126.5 800.5,-126.5 800.5,-145.5"/>
<text text-anchor="middle" x="727.5" y="-133.5" font-family="Helvetica,sans-Serif" font-size="10.00">TechMa/Views/TechMapp.h</text>
</a>
</g>
</g>
<!-- Node1&#45;&gt;Node2 -->
<g id="edge1_Node000001_Node000002" class="edge">
<title>Node1&#45;&gt;Node2</title>
<g id="a_edge1_Node000001_Node000002"><a xlink:title=" ">
<path fill="none" stroke="#63b8ff" d="M782.91,-186.87C772.92,-177.88 757.07,-163.61 744.87,-152.64"/>
<polygon fill="#63b8ff" stroke="#63b8ff" points="746.9,-149.76 737.13,-145.67 742.22,-154.96 746.9,-149.76"/>
</a>
</g>
</g>
<!-- Node3 -->
<g id="Node000003" class="node">
<title>Node3</title>
<g id="a_Node000003"><a xlink:href="UserAuthentication_8h.html" target="_top" xlink:title="Declaration of the User and AuthenticationService classes for managing authentication.">
<polygon fill="white" stroke="#666666" points="647.5,-85 519.5,-85 519.5,-55 647.5,-55 647.5,-85"/>
<text text-anchor="start" x="527.5" y="-73" font-family="Helvetica,sans-Serif" font-size="10.00">TechMa/Authentication</text>
<text text-anchor="middle" x="583.5" y="-62" font-family="Helvetica,sans-Serif" font-size="10.00">/UserAuthentication.h</text>
</a>
</g>
</g>
<!-- Node1&#45;&gt;Node3 -->
<g id="edge13_Node000001_Node000003" class="edge">
<title>Node1&#45;&gt;Node3</title>
<g id="a_edge13_Node000001_Node000003"><a xlink:title=" ">
<path fill="none" stroke="#63b8ff" d="M724.89,-186.95C695.59,-180.67 662.18,-169.8 636.5,-151 616.76,-136.55 602.23,-112.37 593.43,-94.36"/>
<polygon fill="#63b8ff" stroke="#63b8ff" points="596.51,-92.69 589.13,-85.1 590.16,-95.64 596.51,-92.69"/>
</a>
</g>
</g>
<!-- Node12 -->
<g id="Node000012" class="node">
<title>Node12</title>
<g id="a_Node000012"><a xlink:title=" ">
<polygon fill="#e0e0e0" stroke="#999999" points="715.5,-79.5 665.5,-79.5 665.5,-60.5 715.5,-60.5 715.5,-79.5"/>
<text text-anchor="middle" x="690.5" y="-67.5" font-family="Helvetica,sans-Serif" font-size="10.00">QLabel</text>
</a>
</g>
</g>
<!-- Node1&#45;&gt;Node12 -->
<g id="edge35_Node000001_Node000012" class="edge">
<title>Node1&#45;&gt;Node12</title>
<g id="a_edge35_Node000001_Node000012"><a xlink:title=" ">
<path fill="none" stroke="#63b8ff" d="M724.85,-192.35C695.57,-187.21 663.85,-175.73 645.5,-151 629.94,-130.03 652.75,-103.12 671.17,-86.47"/>
<polygon fill="#63b8ff" stroke="#63b8ff" points="673.87,-88.77 679.18,-79.6 669.31,-83.46 673.87,-88.77"/>
</a>
</g>
</g>
<!-- Node14 -->
<g id="Node000014" class="node">
<title>Node14</title>
<g id="a_Node000014"><a xlink:href="InterventionPage_8h.html" target="_top" xlink:title="Declares the InterventionPage class, the main widget for managing interventions in the UI.">
<polygon fill="white" stroke="#666666" points="117,-151 0,-151 0,-121 117,-121 117,-151"/>
<text text-anchor="start" x="8" y="-139" font-family="Helvetica,sans-Serif" font-size="10.00">TechMa/Views/Pages</text>
<text text-anchor="middle" x="58.5" y="-128" font-family="Helvetica,sans-Serif" font-size="10.00">/InterventionPage.h</text>
</a>
</g>
</g>
<!-- Node1&#45;&gt;Node14 -->
<g id="edge14_Node000001_Node000014" class="edge">
<title>Node1&#45;&gt;Node14</title>
<g id="a_edge14_Node000001_Node000014"><a xlink:title=" ">
<path fill="none" stroke="#63b8ff" d="M724.97,-194.1C605.95,-190.96 351,-181.18 127.21,-151.11"/>
<polygon fill="#63b8ff" stroke="#63b8ff" points="127.63,-147.64 117.25,-149.76 126.68,-154.57 127.63,-147.64"/>
</a>
</g>
</g>
<!-- Node17 -->
<g id="Node000017" class="node">
<title>Node17</title>
<g id="a_Node000017"><a xlink:href="LoginPage_8h.html" target="_top" xlink:title="Declares the LoginPage class, the user interface component for login and authentication.">
<polygon fill="white" stroke="#666666" points="522,-151 405,-151 405,-121 522,-121 522,-151"/>
<text text-anchor="start" x="413" y="-139" font-family="Helvetica,sans-Serif" font-size="10.00">TechMa/Views/Pages</text>
<text text-anchor="middle" x="463.5" y="-128" font-family="Helvetica,sans-Serif" font-size="10.00">/LoginPage.h</text>
</a>
</g>
</g>
<!-- Node1&#45;&gt;Node17 -->
<g id="edge18_Node000001_Node000017" class="edge">
<title>Node1&#45;&gt;Node17</title>
<g id="a_edge18_Node000001_Node000017"><a xlink:title=" ">
<path fill="none" stroke="#63b8ff" d="M741.94,-186.98C690.26,-178.2 607.72,-164.02 536.5,-151 535.03,-150.73 533.55,-150.46 532.05,-150.18"/>
<polygon fill="#63b8ff" stroke="#63b8ff" points="532.53,-146.71 522.05,-148.32 531.24,-153.59 532.53,-146.71"/>
</a>
</g>
</g>
<!-- Node19 -->
<g id="Node000019" class="node">
<title>Node19</title>
<g id="a_Node000019"><a xlink:title=" ">
<polygon fill="#e0e0e0" stroke="#999999" points="501.5,-79.5 421.5,-79.5 421.5,-60.5 501.5,-60.5 501.5,-79.5"/>
<text text-anchor="middle" x="461.5" y="-67.5" font-family="Helvetica,sans-Serif" font-size="10.00">QPushButton</text>
</a>
</g>
</g>
<!-- Node1&#45;&gt;Node19 -->
<g id="edge37_Node000001_Node000019" class="edge">
<title>Node1&#45;&gt;Node19</title>
<g id="a_edge37_Node000001_Node000019"><a xlink:title=" ">
<path fill="none" stroke="#63b8ff" d="M740.45,-186.94C702.52,-179.77 650.31,-167.97 606.5,-151 560.01,-133 509.98,-102.68 482.53,-84.99"/>
<polygon fill="#63b8ff" stroke="#63b8ff" points="484.41,-82.04 474.12,-79.51 480.59,-87.9 484.41,-82.04"/>
</a>
</g>
</g>
<!-- Node20 -->
<g id="Node000020" class="node">
<title>Node20</title>
<g id="a_Node000020"><a xlink:href="ParametersPage_8h.html" target="_top" xlink:title="Declares the ParametersPage class, a UI component for application settings or preferences.">
<polygon fill="white" stroke="#666666" points="387,-151 270,-151 270,-121 387,-121 387,-151"/>
<text text-anchor="start" x="278" y="-139" font-family="Helvetica,sans-Serif" font-size="10.00">TechMa/Views/Pages</text>
<text text-anchor="middle" x="328.5" y="-128" font-family="Helvetica,sans-Serif" font-size="10.00">/ParametersPage.h</text>
</a>
</g>
</g>
<!-- Node1&#45;&gt;Node20 -->
<g id="edge25_Node000001_Node000020" class="edge">
<title>Node1&#45;&gt;Node20</title>
<g id="a_edge25_Node000001_Node000020"><a xlink:title=" ">
<path fill="none" stroke="#63b8ff" d="M724.8,-189.87C647.74,-183.03 517.89,-170.15 397.41,-151.22"/>
<polygon fill="#63b8ff" stroke="#63b8ff" points="397.69,-147.72 387.27,-149.61 396.59,-154.63 397.69,-147.72"/>
</a>
</g>
</g>
<!-- Node21 -->
<g id="Node000021" class="node">
<title>Node21</title>
<g id="a_Node000021"><a xlink:href="TechniciansPage_8h.html" target="_top" xlink:title="Declares the TechniciansPage class, a QWidget for managing technician&#45;related data in the UI.">
<polygon fill="white" stroke="#666666" points="252,-151 135,-151 135,-121 252,-121 252,-151"/>
<text text-anchor="start" x="143" y="-139" font-family="Helvetica,sans-Serif" font-size="10.00">TechMa/Views/Pages</text>
<text text-anchor="middle" x="193.5" y="-128" font-family="Helvetica,sans-Serif" font-size="10.00">/TechniciansPage.h</text>
</a>
</g>
</g>
<!-- Node1&#45;&gt;Node21 -->
<g id="edge27_Node000001_Node000021" class="edge">
<title>Node1&#45;&gt;Node21</title>
<g id="a_edge27_Node000001_Node000021"><a xlink:title=" ">
<path fill="none" stroke="#63b8ff" d="M724.59,-192.49C625.1,-187.48 433.74,-175.62 262.22,-151.14"/>
<polygon fill="#63b8ff" stroke="#63b8ff" points="262.65,-147.67 252.25,-149.7 261.65,-154.6 262.65,-147.67"/>
</a>
</g>
</g>
<!-- Node22 -->
<g id="Node000022" class="node">
<title>Node22</title>
<g id="a_Node000022"><a xlink:title=" ">
<polygon fill="#e0e0e0" stroke="#999999" points="898,-145.5 819,-145.5 819,-126.5 898,-126.5 898,-145.5"/>
<text text-anchor="middle" x="858.5" y="-133.5" font-family="Helvetica,sans-Serif" font-size="10.00">QApplication</text>
</a>
</g>
</g>
<!-- Node1&#45;&gt;Node22 -->
<g id="edge31_Node000001_Node000022" class="edge">
<title>Node1&#45;&gt;Node22</title>
<g id="a_edge31_Node000001_Node000022"><a xlink:title=" ">
<path fill="none" stroke="#63b8ff" d="M802.24,-186.87C812.47,-177.8 828.79,-163.34 841.22,-152.32"/>
<polygon fill="#63b8ff" stroke="#63b8ff" points="843.56,-154.92 848.72,-145.67 838.92,-149.68 843.56,-154.92"/>
</a>
</g>
</g>
<!-- Node23 -->
<g id="Node000023" class="node">
<title>Node23</title>
<g id="a_Node000023"><a xlink:title=" ">
<polygon fill="#e0e0e0" stroke="#999999" points="957,-145.5 916,-145.5 916,-126.5 957,-126.5 957,-145.5"/>
<text text-anchor="middle" x="936.5" y="-133.5" font-family="Helvetica,sans-Serif" font-size="10.00">QFile</text>
</a>
</g>
</g>
<!-- Node1&#45;&gt;Node23 -->
<g id="edge32_Node000001_Node000023" class="edge">
<title>Node1&#45;&gt;Node23</title>
<g id="a_edge32_Node000001_Node000023"><a xlink:title=" ">
<path fill="none" stroke="#63b8ff" d="M816.51,-186.85C839.94,-178.26 876.47,-164.47 907.5,-151 908.35,-150.63 909.22,-150.25 910.09,-149.86"/>
<polygon fill="#63b8ff" stroke="#63b8ff" points="911.83,-152.91 919.43,-145.52 908.89,-146.56 911.83,-152.91"/>
</a>
</g>
</g>
<!-- Node24 -->
<g id="Node000024" class="node">
<title>Node24</title>
<g id="a_Node000024"><a xlink:title=" ">
<polygon fill="#e0e0e0" stroke="#999999" points="1067.5,-145.5 975.5,-145.5 975.5,-126.5 1067.5,-126.5 1067.5,-145.5"/>
<text text-anchor="middle" x="1021.5" y="-133.5" font-family="Helvetica,sans-Serif" font-size="10.00">QFontDatabase</text>
</a>
</g>
</g>
<!-- Node1&#45;&gt;Node24 -->
<g id="edge33_Node000001_Node000024" class="edge">
<title>Node1&#45;&gt;Node24</title>
<g id="a_edge33_Node000001_Node000024"><a xlink:title=" ">
<path fill="none" stroke="#63b8ff" d="M825.8,-186.99C866.08,-176.7 933.98,-159.36 978.27,-148.04"/>
<polygon fill="#63b8ff" stroke="#63b8ff" points="979.34,-151.38 988.16,-145.52 977.61,-144.6 979.34,-151.38"/>
</a>
</g>
</g>
<!-- Node25 -->
<g id="Node000025" class="node">
<title>Node25</title>
<g id="a_Node000025"><a xlink:title=" ">
<polygon fill="#e0e0e0" stroke="#999999" points="1169,-145.5 1086,-145.5 1086,-126.5 1169,-126.5 1169,-145.5"/>
<text text-anchor="middle" x="1127.5" y="-133.5" font-family="Helvetica,sans-Serif" font-size="10.00">QHBoxLayout</text>
</a>
</g>
</g>
<!-- Node1&#45;&gt;Node25 -->
<g id="edge34_Node000001_Node000025" class="edge">
<title>Node1&#45;&gt;Node25</title>
<g id="a_edge34_Node000001_Node000025"><a xlink:title=" ">
<path fill="none" stroke="#63b8ff" d="M860.03,-187.1C917.82,-179.39 1003.07,-166.78 1076.5,-151 1080.43,-150.16 1084.5,-149.19 1088.56,-148.17"/>
<polygon fill="#63b8ff" stroke="#63b8ff" points="1089.73,-151.49 1098.51,-145.56 1087.95,-144.71 1089.73,-151.49"/>
</a>
</g>
</g>
<!-- Node26 -->
<g id="Node000026" class="node">
<title>Node26</title>
<g id="a_Node000026"><a xlink:title=" ">
<polygon fill="#e0e0e0" stroke="#999999" points="1273.5,-145.5 1187.5,-145.5 1187.5,-126.5 1273.5,-126.5 1273.5,-145.5"/>
<text text-anchor="middle" x="1230.5" y="-133.5" font-family="Helvetica,sans-Serif" font-size="10.00">QMessageBox</text>
</a>
</g>
</g>
<!-- Node1&#45;&gt;Node26 -->
<g id="edge36_Node000001_Node000026" class="edge">
<title>Node1&#45;&gt;Node26</title>
<g id="a_edge36_Node000001_Node000026"><a xlink:title=" ">
<path fill="none" stroke="#63b8ff" d="M860.25,-190.75C937.69,-184.61 1068.01,-172.12 1178.5,-151 1182.91,-150.16 1187.49,-149.14 1192.02,-148.04"/>
<polygon fill="#63b8ff" stroke="#63b8ff" points="1192.97,-151.41 1201.8,-145.54 1191.24,-144.63 1192.97,-151.41"/>
</a>
</g>
</g>
<!-- Node27 -->
<g id="Node000027" class="node">
<title>Node27</title>
<g id="a_Node000027"><a xlink:title=" ">
<polygon fill="#e0e0e0" stroke="#999999" points="1389,-145.5 1292,-145.5 1292,-126.5 1389,-126.5 1389,-145.5"/>
<text text-anchor="middle" x="1340.5" y="-133.5" font-family="Helvetica,sans-Serif" font-size="10.00">QStackedWidget</text>
</a>
</g>
</g>
<!-- Node1&#45;&gt;Node27 -->
<g id="edge38_Node000001_Node000027" class="edge">
<title>Node1&#45;&gt;Node27</title>
<g id="a_edge38_Node000001_Node000027"><a xlink:title=" ">
<path fill="none" stroke="#63b8ff" d="M860.27,-192.48C955.19,-187.55 1132.91,-175.71 1282.5,-151 1287.87,-150.11 1293.47,-149 1298.99,-147.79"/>
<polygon fill="#63b8ff" stroke="#63b8ff" points="1299.8,-151.2 1308.76,-145.55 1298.23,-144.38 1299.8,-151.2"/>
</a>
</g>
</g>
<!-- Node28 -->
<g id="Node000028" class="node">
<title>Node28</title>
<g id="a_Node000028"><a xlink:title=" ">
<polygon fill="#e0e0e0" stroke="#999999" points="1478,-145.5 1407,-145.5 1407,-126.5 1478,-126.5 1478,-145.5"/>
<text text-anchor="middle" x="1442.5" y="-133.5" font-family="Helvetica,sans-Serif" font-size="10.00">QStatusBar</text>
</a>
</g>
</g>
<!-- Node1&#45;&gt;Node28 -->
<g id="edge39_Node000001_Node000028" class="edge">
<title>Node1&#45;&gt;Node28</title>
<g id="a_edge39_Node000001_Node000028"><a xlink:title=" ">
<path fill="none" stroke="#63b8ff" d="M860.44,-195.68C973.24,-194.83 1205.84,-188.19 1398.5,-151 1401.99,-150.33 1405.59,-149.47 1409.16,-148.5"/>
<polygon fill="#63b8ff" stroke="#63b8ff" points="1410.42,-151.78 1419.02,-145.59 1408.43,-145.07 1410.42,-151.78"/>
</a>
</g>
</g>
<!-- Node29 -->
<g id="Node000029" class="node">
<title>Node29</title>
<g id="a_Node000029"><a xlink:title=" ">
<polygon fill="#e0e0e0" stroke="#999999" points="1579,-145.5 1496,-145.5 1496,-126.5 1579,-126.5 1579,-145.5"/>
<text text-anchor="middle" x="1537.5" y="-133.5" font-family="Helvetica,sans-Serif" font-size="10.00">QVBoxLayout</text>
</a>
</g>
</g>
<!-- Node1&#45;&gt;Node29 -->
<g id="edge40_Node000001_Node000029" class="edge">
<title>Node1&#45;&gt;Node29</title>
<g id="a_edge40_Node000001_Node000029"><a xlink:title=" ">
<path fill="none" stroke="#63b8ff" d="M860.13,-195.84C985.01,-195.43 1259.84,-189.72 1487.5,-151 1491.97,-150.24 1496.61,-149.24 1501.19,-148.12"/>
<polygon fill="#63b8ff" stroke="#63b8ff" points="1502.23,-151.46 1511.01,-145.53 1500.45,-144.7 1502.23,-151.46"/>
</a>
</g>
</g>
<!-- Node2&#45;&gt;Node3 -->
<g id="edge2_Node000002_Node000003" class="edge">
<title>Node2&#45;&gt;Node3</title>
<g id="a_edge2_Node000002_Node000003"><a xlink:title=" ">
<path fill="none" stroke="#63b8ff" d="M708.08,-126.37C686.79,-116.91 652.02,-101.45 624.61,-89.27"/>
<polygon fill="#63b8ff" stroke="#63b8ff" points="625.82,-85.98 615.26,-85.12 622.98,-92.38 625.82,-85.98"/>
</a>
</g>
</g>
<!-- Node8 -->
<g id="Node000008" class="node">
<title>Node8</title>
<g id="a_Node000008"><a xlink:href="NavigationBar_8h.html" target="_top" xlink:title="Declares the NavigationBar class, a custom QTabBar with SVG icon rendering.">
<polygon fill="white" stroke="#666666" points="861.5,-85 733.5,-85 733.5,-55 861.5,-55 861.5,-85"/>
<text text-anchor="start" x="741.5" y="-73" font-family="Helvetica,sans-Serif" font-size="10.00">TechMa/Views/Widgets</text>
<text text-anchor="middle" x="797.5" y="-62" font-family="Helvetica,sans-Serif" font-size="10.00">/NavigationBar.h</text>
</a>
</g>
</g>
<!-- Node2&#45;&gt;Node8 -->
<g id="edge7_Node000002_Node000008" class="edge">
<title>Node2&#45;&gt;Node8</title>
<g id="a_edge7_Node000002_Node000008"><a xlink:title=" ">
<path fill="none" stroke="#63b8ff" d="M736.94,-126.37C746.52,-117.61 761.72,-103.71 774.49,-92.04"/>
<polygon fill="#63b8ff" stroke="#63b8ff" points="777.04,-94.45 782.06,-85.12 772.32,-89.28 777.04,-94.45"/>
</a>
</g>
</g>
<!-- Node2&#45;&gt;Node12 -->
<g id="edge11_Node000002_Node000012" class="edge">
<title>Node2&#45;&gt;Node12</title>
<g id="a_edge11_Node000002_Node000012"><a xlink:title=" ">
<path fill="none" stroke="#63b8ff" d="M722.51,-126.37C716.97,-116.78 707.87,-101.05 700.79,-88.8"/>
<polygon fill="#63b8ff" stroke="#63b8ff" points="703.68,-86.81 695.65,-79.91 697.62,-90.31 703.68,-86.81"/>
</a>
</g>
</g>
<!-- Node13 -->
<g id="Node000013" class="node">
<title>Node13</title>
<g id="a_Node000013"><a xlink:title=" ">
<polygon fill="#e0e0e0" stroke="#999999" points="967,-79.5 880,-79.5 880,-60.5 967,-60.5 967,-79.5"/>
<text text-anchor="middle" x="923.5" y="-67.5" font-family="Helvetica,sans-Serif" font-size="10.00">QMainWindow</text>
</a>
</g>
</g>
<!-- Node2&#45;&gt;Node13 -->
<g id="edge12_Node000002_Node000013" class="edge">
<title>Node2&#45;&gt;Node13</title>
<g id="a_edge12_Node000002_Node000013"><a xlink:title=" ">
<path fill="none" stroke="#63b8ff" d="M753.93,-126.37C788.37,-115.12 848.72,-95.42 887.37,-82.8"/>
<polygon fill="#63b8ff" stroke="#63b8ff" points="888.75,-86.03 897.17,-79.6 886.58,-79.37 888.75,-86.03"/>
</a>
</g>
</g>
<!-- Node4 -->
<g id="Node000004" class="node">
<title>Node4</title>
<g id="a_Node000004"><a xlink:title=" ">
<polygon fill="#e0e0e0" stroke="#999999" points="521.5,-19 463.5,-19 463.5,0 521.5,0 521.5,-19"/>
<text text-anchor="middle" x="492.5" y="-7" font-family="Helvetica,sans-Serif" font-size="10.00">memory</text>
</a>
</g>
</g>
<!-- Node3&#45;&gt;Node4 -->
<g id="edge3_Node000003_Node000004" class="edge">
<title>Node3&#45;&gt;Node4</title>
<g id="a_edge3_Node000003_Node000004"><a xlink:title=" ">
<path fill="none" stroke="#63b8ff" d="M561.47,-54.84C547.23,-45.68 528.77,-33.82 514.53,-24.66"/>
<polygon fill="#63b8ff" stroke="#63b8ff" points="516.17,-21.56 505.87,-19.09 512.39,-27.45 516.17,-21.56"/>
</a>
</g>
</g>
<!-- Node5 -->
<g id="Node000005" class="node">
<title>Node5</title>
<g id="a_Node000005"><a xlink:title=" ">
<polygon fill="#e0e0e0" stroke="#999999" points="156.5,-19 100.5,-19 100.5,0 156.5,0 156.5,-19"/>
<text text-anchor="middle" x="128.5" y="-7" font-family="Helvetica,sans-Serif" font-size="10.00">optional</text>
</a>
</g>
</g>
<!-- Node3&#45;&gt;Node5 -->
<g id="edge4_Node000003_Node000005" class="edge">
<title>Node3&#45;&gt;Node5</title>
<g id="a_edge4_Node000003_Node000005"><a xlink:title=" ">
<path fill="none" stroke="#63b8ff" d="M519.45,-56.44C516.43,-55.93 513.43,-55.45 510.5,-55 385.28,-35.73 235.81,-20.57 166.84,-14.02"/>
<polygon fill="#63b8ff" stroke="#63b8ff" points="167.15,-10.54 156.87,-13.08 166.5,-17.51 167.15,-10.54"/>
</a>
</g>
</g>
<!-- Node6 -->
<g id="Node000006" class="node">
<title>Node6</title>
<g id="a_Node000006"><a xlink:title=" ">
<polygon fill="#e0e0e0" stroke="#999999" points="583.5,-19 539.5,-19 539.5,0 583.5,0 583.5,-19"/>
<text text-anchor="middle" x="561.5" y="-7" font-family="Helvetica,sans-Serif" font-size="10.00">string</text>
</a>
</g>
</g>
<!-- Node3&#45;&gt;Node6 -->
<g id="edge5_Node000003_Node000006" class="edge">
<title>Node3&#45;&gt;Node6</title>
<g id="a_edge5_Node000003_Node000006"><a xlink:title=" ">
<path fill="none" stroke="#63b8ff" d="M578.17,-54.84C575.24,-47.04 571.57,-37.27 568.42,-28.89"/>
<polygon fill="#63b8ff" stroke="#63b8ff" points="571.59,-27.39 564.8,-19.27 565.04,-29.86 571.59,-27.39"/>
</a>
</g>
</g>
<!-- Node7 -->
<g id="Node000007" class="node">
<title>Node7</title>
<g id="a_Node000007"><a xlink:title=" ">
<polygon fill="#e0e0e0" stroke="#999999" points="695,-19 602,-19 602,0 695,0 695,-19"/>
<text text-anchor="middle" x="648.5" y="-7" font-family="Helvetica,sans-Serif" font-size="10.00">unordered_map</text>
</a>
</g>
</g>
<!-- Node3&#45;&gt;Node7 -->
<g id="edge6_Node000003_Node000007" class="edge">
<title>Node3&#45;&gt;Node7</title>
<g id="a_edge6_Node000003_Node000007"><a xlink:title=" ">
<path fill="none" stroke="#63b8ff" d="M599.23,-54.84C608.86,-46.17 621.19,-35.08 631.11,-26.15"/>
<polygon fill="#63b8ff" stroke="#63b8ff" points="633.67,-28.56 638.76,-19.27 628.99,-23.35 633.67,-28.56"/>
</a>
</g>
</g>
<!-- Node9 -->
<g id="Node000009" class="node">
<title>Node9</title>
<g id="a_Node000009"><a xlink:title=" ">
<polygon fill="#e0e0e0" stroke="#999999" points="774,-19 713,-19 713,0 774,0 774,-19"/>
<text text-anchor="middle" x="743.5" y="-7" font-family="Helvetica,sans-Serif" font-size="10.00">QPixmap</text>
</a>
</g>
</g>
<!-- Node8&#45;&gt;Node9 -->
<g id="edge8_Node000008_Node000009" class="edge">
<title>Node8&#45;&gt;Node9</title>
<g id="a_edge8_Node000008_Node000009"><a xlink:title=" ">
<path fill="none" stroke="#63b8ff" d="M784.43,-54.84C776.59,-46.35 766.59,-35.52 758.44,-26.69"/>
<polygon fill="#63b8ff" stroke="#63b8ff" points="760.95,-24.24 751.59,-19.27 755.8,-28.99 760.95,-24.24"/>
</a>
</g>
</g>
<!-- Node10 -->
<g id="Node000010" class="node">
<title>Node10</title>
<g id="a_Node000010"><a xlink:title=" ">
<polygon fill="#e0e0e0" stroke="#999999" points="845,-19 792,-19 792,0 845,0 845,-19"/>
<text text-anchor="middle" x="818.5" y="-7" font-family="Helvetica,sans-Serif" font-size="10.00">QString</text>
</a>
</g>
</g>
<!-- Node8&#45;&gt;Node10 -->
<g id="edge9_Node000008_Node000010" class="edge">
<title>Node8&#45;&gt;Node10</title>
<g id="a_edge9_Node000008_Node000010"><a xlink:title=" ">
<path fill="none" stroke="#63b8ff" d="M802.58,-54.84C805.38,-47.04 808.89,-37.27 811.9,-28.89"/>
<polygon fill="#63b8ff" stroke="#63b8ff" points="815.27,-29.86 815.35,-19.27 808.68,-27.5 815.27,-29.86"/>
</a>
</g>
</g>
<!-- Node11 -->
<g id="Node000011" class="node">
<title>Node11</title>
<g id="a_Node000011"><a xlink:title=" ">
<polygon fill="#e0e0e0" stroke="#999999" points="920,-19 863,-19 863,0 920,0 920,-19"/>
<text text-anchor="middle" x="891.5" y="-7" font-family="Helvetica,sans-Serif" font-size="10.00">QTabBar</text>
</a>
</g>
</g>
<!-- Node8&#45;&gt;Node11 -->
<g id="edge10_Node000008_Node000011" class="edge">
<title>Node8&#45;&gt;Node11</title>
<g id="a_edge10_Node000008_Node000011"><a xlink:title=" ">
<path fill="none" stroke="#63b8ff" d="M820.25,-54.84C835.1,-45.6 854.4,-33.59 869.16,-24.4"/>
<polygon fill="#63b8ff" stroke="#63b8ff" points="871.05,-27.35 877.69,-19.09 867.35,-21.41 871.05,-27.35"/>
</a>
</g>
</g>
<!-- Node14&#45;&gt;Node5 -->
<g id="edge17_Node000014_Node000005" class="edge">
<title>Node14&#45;&gt;Node5</title>
<g id="a_edge17_Node000014_Node000005"><a xlink:title=" ">
<path fill="none" stroke="#63b8ff" d="M66.53,-120.72C79.41,-97.81 104.64,-52.93 118.61,-28.09"/>
<polygon fill="#63b8ff" stroke="#63b8ff" points="121.83,-29.5 123.68,-19.07 115.73,-26.07 121.83,-29.5"/>
</a>
</g>
</g>
<!-- Node15 -->
<g id="Node000015" class="node">
<title>Node15</title>
<g id="a_Node000015"><a xlink:title=" ">
<polygon fill="#e0e0e0" stroke="#999999" points="234.5,-79.5 156.5,-79.5 156.5,-60.5 234.5,-60.5 234.5,-79.5"/>
<text text-anchor="middle" x="195.5" y="-67.5" font-family="Helvetica,sans-Serif" font-size="10.00">QShowEvent</text>
</a>
</g>
</g>
<!-- Node14&#45;&gt;Node15 -->
<g id="edge15_Node000014_Node000015" class="edge">
<title>Node14&#45;&gt;Node15</title>
<g id="a_edge15_Node000014_Node000015"><a xlink:title=" ">
<path fill="none" stroke="#63b8ff" d="M88.57,-120.95C112.27,-109.88 145.06,-94.56 168.06,-83.82"/>
<polygon fill="#63b8ff" stroke="#63b8ff" points="169.69,-86.92 177.27,-79.52 166.73,-80.58 169.69,-86.92"/>
</a>
</g>
</g>
<!-- Node16 -->
<g id="Node000016" class="node">
<title>Node16</title>
<g id="a_Node000016"><a xlink:title=" ">
<polygon fill="#e0e0e0" stroke="#999999" points="319,-79.5 260,-79.5 260,-60.5 319,-60.5 319,-79.5"/>
<text text-anchor="middle" x="289.5" y="-67.5" font-family="Helvetica,sans-Serif" font-size="10.00">QWidget</text>
</a>
</g>
</g>
<!-- Node14&#45;&gt;Node16 -->
<g id="edge16_Node000014_Node000016" class="edge">
<title>Node14&#45;&gt;Node16</title>
<g id="a_edge16_Node000014_Node000016"><a xlink:title=" ">
<path fill="none" stroke="#63b8ff" d="M112.46,-120.9C149.42,-111.12 199.53,-97.63 243.5,-85 246.28,-84.2 249.16,-83.36 252.04,-82.51"/>
<polygon fill="#63b8ff" stroke="#63b8ff" points="253.24,-85.8 261.81,-79.58 251.23,-79.1 253.24,-85.8"/>
</a>
</g>
</g>
<!-- Node17&#45;&gt;Node3 -->
<g id="edge19_Node000017_Node000003" class="edge">
<title>Node17&#45;&gt;Node3</title>
<g id="a_edge19_Node000017_Node000003"><a xlink:title=" ">
<path fill="none" stroke="#63b8ff" d="M489.83,-120.95C507.03,-111.78 529.68,-99.71 548.39,-89.72"/>
<polygon fill="#63b8ff" stroke="#63b8ff" points="550.05,-92.81 557.23,-85.01 546.76,-86.63 550.05,-92.81"/>
</a>
</g>
</g>
<!-- Node17&#45;&gt;Node12 -->
<g id="edge20_Node000017_Node000012" class="edge">
<title>Node17&#45;&gt;Node12</title>
<g id="a_edge20_Node000017_Node000012"><a xlink:title=" ">
<path fill="none" stroke="#63b8ff" d="M522.38,-121.96C560.93,-112.89 612.17,-99.79 656.5,-85 658.12,-84.46 659.78,-83.88 661.44,-83.27"/>
<polygon fill="#63b8ff" stroke="#63b8ff" points="662.84,-86.48 670.9,-79.61 660.31,-79.96 662.84,-86.48"/>
</a>
</g>
</g>
<!-- Node17&#45;&gt;Node15 -->
<g id="edge23_Node000017_Node000015" class="edge">
<title>Node17&#45;&gt;Node15</title>
<g id="a_edge23_Node000017_Node000015"><a xlink:title=" ">
<path fill="none" stroke="#63b8ff" d="M404.66,-121.5C361.86,-111.6 302.52,-97.73 250.5,-85 246.63,-84.05 242.6,-83.05 238.57,-82.05"/>
<polygon fill="#63b8ff" stroke="#63b8ff" points="239.18,-78.59 228.63,-79.54 237.47,-85.38 239.18,-78.59"/>
</a>
</g>
</g>
<!-- Node17&#45;&gt;Node16 -->
<g id="edge24_Node000017_Node000016" class="edge">
<title>Node17&#45;&gt;Node16</title>
<g id="a_edge24_Node000017_Node000016"><a xlink:title=" ">
<path fill="none" stroke="#63b8ff" d="M425.31,-120.95C394.53,-109.63 351.69,-93.88 322.41,-83.1"/>
<polygon fill="#63b8ff" stroke="#63b8ff" points="323.25,-79.68 312.66,-79.52 320.83,-86.25 323.25,-79.68"/>
</a>
</g>
</g>
<!-- Node18 -->
<g id="Node000018" class="node">
<title>Node18</title>
<g id="a_Node000018"><a xlink:title=" ">
<polygon fill="#e0e0e0" stroke="#999999" points="403,-79.5 340,-79.5 340,-60.5 403,-60.5 403,-79.5"/>
<text text-anchor="middle" x="371.5" y="-67.5" font-family="Helvetica,sans-Serif" font-size="10.00">QLineEdit</text>
</a>
</g>
</g>
<!-- Node17&#45;&gt;Node18 -->
<g id="edge21_Node000017_Node000018" class="edge">
<title>Node17&#45;&gt;Node18</title>
<g id="a_edge21_Node000017_Node000018"><a xlink:title=" ">
<path fill="none" stroke="#63b8ff" d="M443.08,-120.8C427.95,-110.27 407.4,-95.97 392.2,-85.4"/>
<polygon fill="#63b8ff" stroke="#63b8ff" points="394.15,-82.5 383.95,-79.66 390.16,-88.24 394.15,-82.5"/>
</a>
</g>
</g>
<!-- Node17&#45;&gt;Node19 -->
<g id="edge22_Node000017_Node000019" class="edge">
<title>Node17&#45;&gt;Node19</title>
<g id="a_edge22_Node000017_Node000019"><a xlink:title=" ">
<path fill="none" stroke="#63b8ff" d="M463.06,-120.8C462.77,-111.7 462.4,-99.79 462.09,-89.9"/>
<polygon fill="#63b8ff" stroke="#63b8ff" points="465.59,-89.73 461.78,-79.84 458.59,-89.95 465.59,-89.73"/>
</a>
</g>
</g>
<!-- Node20&#45;&gt;Node16 -->
<g id="edge26_Node000020_Node000016" class="edge">
<title>Node20&#45;&gt;Node16</title>
<g id="a_edge26_Node000020_Node000016"><a xlink:title=" ">
<path fill="none" stroke="#63b8ff" d="M319.84,-120.8C314.06,-111.31 306.42,-98.76 300.24,-88.63"/>
<polygon fill="#63b8ff" stroke="#63b8ff" points="303.08,-86.56 294.89,-79.84 297.1,-90.21 303.08,-86.56"/>
</a>
</g>
</g>
<!-- Node21&#45;&gt;Node5 -->
<g id="edge30_Node000021_Node000005" class="edge">
<title>Node21&#45;&gt;Node5</title>
<g id="a_edge30_Node000021_Node000005"><a xlink:title=" ">
<path fill="none" stroke="#63b8ff" d="M176.8,-120.81C166.92,-111.55 154.92,-98.69 147.5,-85 137.98,-67.44 133.1,-44.94 130.68,-29.29"/>
<polygon fill="#63b8ff" stroke="#63b8ff" points="134.14,-28.71 129.33,-19.27 127.2,-29.65 134.14,-28.71"/>
</a>
</g>
</g>
<!-- Node21&#45;&gt;Node15 -->
<g id="edge28_Node000021_Node000015" class="edge">
<title>Node21&#45;&gt;Node15</title>
<g id="a_edge28_Node000021_Node000015"><a xlink:title=" ">
<path fill="none" stroke="#63b8ff" d="M193.94,-120.8C194.23,-111.7 194.6,-99.79 194.91,-89.9"/>
<polygon fill="#63b8ff" stroke="#63b8ff" points="198.41,-89.95 195.22,-79.84 191.41,-89.73 198.41,-89.95"/>
</a>
</g>
</g>
<!-- Node21&#45;&gt;Node16 -->
<g id="edge29_Node000021_Node000016" class="edge">
<title>Node21&#45;&gt;Node16</title>
<g id="a_edge29_Node000021_Node000016"><a xlink:title=" ">
<path fill="none" stroke="#63b8ff" d="M214.81,-120.8C230.6,-110.27 252.04,-95.97 267.9,-85.4"/>
<polygon fill="#63b8ff" stroke="#63b8ff" points="270.13,-88.12 276.51,-79.66 266.25,-82.29 270.13,-88.12"/>
</a>
</g>
</g>
</g>
</svg>
