<?xml version="1.0" encoding="UTF-8" standalone="no"?>
<!DOCTYPE svg PUBLIC "-//W3C//DTD SVG 1.1//EN"
 "http://www.w3.org/Graphics/SVG/1.1/DTD/svg11.dtd">
<!-- Generated by graphviz version 2.43.0 (0)
 -->
<!-- Title: include/TechMa/Views/Pages/TechniciansPage.h Pages: 1 -->
<svg width="238pt" height="93pt"
 viewBox="0.00 0.00 238.00 93.00" xmlns="http://www.w3.org/2000/svg" xmlns:xlink="http://www.w3.org/1999/xlink">
<g id="graph0" class="graph" transform="scale(1 1) rotate(0) translate(4 89)">
<title>include/TechMa/Views/Pages/TechniciansPage.h</title>
<!-- Node1 -->
<g id="Node000001" class="node">
<title>Node1</title>
<g id="a_Node000001"><a xlink:title="Declares the TechniciansPage class, a QWidget for managing technician&#45;related data in the UI.">
<polygon fill="#999999" stroke="#666666" points="196,-85 56,-85 56,-55 196,-55 196,-85"/>
<text text-anchor="start" x="64" y="-73" font-family="Helvetica,sans-Serif" font-size="10.00">include/TechMa/Views</text>
<text text-anchor="middle" x="126" y="-62" font-family="Helvetica,sans-Serif" font-size="10.00">/Pages/TechniciansPage.h</text>
</a>
</g>
</g>
<!-- Node2 -->
<g id="Node000002" class="node">
<title>Node2</title>
<g id="a_Node000002"><a xlink:title=" ">
<polygon fill="#e0e0e0" stroke="#999999" points="78,-19 0,-19 0,0 78,0 78,-19"/>
<text text-anchor="middle" x="39" y="-7" font-family="Helvetica,sans-Serif" font-size="10.00">QShowEvent</text>
</a>
</g>
</g>
<!-- Node1&#45;&gt;Node2 -->
<g id="edge1_Node000001_Node000002" class="edge">
<title>Node1&#45;&gt;Node2</title>
<g id="a_edge1_Node000001_Node000002"><a xlink:title=" ">
<path fill="none" stroke="#63b8ff" d="M104.94,-54.84C91.46,-45.77 74.01,-34.04 60.45,-24.92"/>
<polygon fill="#63b8ff" stroke="#63b8ff" points="62.03,-21.77 51.78,-19.09 58.13,-27.58 62.03,-21.77"/>
</a>
</g>
</g>
<!-- Node3 -->
<g id="Node000003" class="node">
<title>Node3</title>
<g id="a_Node000003"><a xlink:title=" ">
<polygon fill="#e0e0e0" stroke="#999999" points="155.5,-19 96.5,-19 96.5,0 155.5,0 155.5,-19"/>
<text text-anchor="middle" x="126" y="-7" font-family="Helvetica,sans-Serif" font-size="10.00">QWidget</text>
</a>
</g>
</g>
<!-- Node1&#45;&gt;Node3 -->
<g id="edge2_Node000001_Node000003" class="edge">
<title>Node1&#45;&gt;Node3</title>
<g id="a_edge2_Node000001_Node000003"><a xlink:title=" ">
<path fill="none" stroke="#63b8ff" d="M126,-54.84C126,-47.21 126,-37.7 126,-29.45"/>
<polygon fill="#63b8ff" stroke="#63b8ff" points="129.5,-29.27 126,-19.27 122.5,-29.27 129.5,-29.27"/>
</a>
</g>
</g>
<!-- Node4 -->
<g id="Node000004" class="node">
<title>Node4</title>
<g id="a_Node000004"><a xlink:title=" ">
<polygon fill="#e0e0e0" stroke="#999999" points="230,-19 174,-19 174,0 230,0 230,-19"/>
<text text-anchor="middle" x="202" y="-7" font-family="Helvetica,sans-Serif" font-size="10.00">optional</text>
</a>
</g>
</g>
<!-- Node1&#45;&gt;Node4 -->
<g id="edge3_Node000001_Node000004" class="edge">
<title>Node1&#45;&gt;Node4</title>
<g id="a_edge3_Node000001_Node000004"><a xlink:title=" ">
<path fill="none" stroke="#63b8ff" d="M144.4,-54.84C155.88,-46 170.65,-34.63 182.36,-25.62"/>
<polygon fill="#63b8ff" stroke="#63b8ff" points="184.82,-28.14 190.61,-19.27 180.55,-22.59 184.82,-28.14"/>
</a>
</g>
</g>
</g>
</svg>
