<?xml version="1.0" encoding="UTF-8" standalone="no"?>
<!DOCTYPE svg PUBLIC "-//W3C//DTD SVG 1.1//EN"
 "http://www.w3.org/Graphics/SVG/1.1/DTD/svg11.dtd">
<!-- Generated by graphviz version 2.43.0 (0)
 -->
<!-- Title: src/Views/Widgets/TechnicianEditPanel.cpp Pages: 1 -->
<svg width="649pt" height="214pt"
 viewBox="0.00 0.00 648.50 214.00" xmlns="http://www.w3.org/2000/svg" xmlns:xlink="http://www.w3.org/1999/xlink">
<g id="graph0" class="graph" transform="scale(1 1) rotate(0) translate(4 210)">
<title>src/Views/Widgets/TechnicianEditPanel.cpp</title>
<!-- Node1 -->
<g id="Node000001" class="node">
<title>Node1</title>
<g id="a_Node000001"><a xlink:title="Implements the TechnicianEditPanel class, providing a UI panel for editing technician data.">
<polygon fill="#999999" stroke="#666666" points="450.5,-206 290.5,-206 290.5,-176 450.5,-176 450.5,-206"/>
<text text-anchor="start" x="298.5" y="-194" font-family="Helvetica,sans-Serif" font-size="10.00">src/Views/Widgets/Technician</text>
<text text-anchor="middle" x="370.5" y="-183" font-family="Helvetica,sans-Serif" font-size="10.00">EditPanel.cpp</text>
</a>
</g>
</g>
<!-- Node2 -->
<g id="Node000002" class="node">
<title>Node2</title>
<g id="a_Node000002"><a xlink:href="TechnicianEditPanel_8h.html" target="_top" xlink:title="Declares the TechnicianEditPanel class, a widget to edit a technician&#39;s name and expertise fields.">
<polygon fill="white" stroke="#666666" points="266.5,-140 138.5,-140 138.5,-110 266.5,-110 266.5,-140"/>
<text text-anchor="start" x="146.5" y="-128" font-family="Helvetica,sans-Serif" font-size="10.00">TechMa/Views/Widgets</text>
<text text-anchor="middle" x="202.5" y="-117" font-family="Helvetica,sans-Serif" font-size="10.00">/TechnicianEditPanel.h</text>
</a>
</g>
</g>
<!-- Node1&#45;&gt;Node2 -->
<g id="edge1_Node000001_Node000002" class="edge">
<title>Node1&#45;&gt;Node2</title>
<g id="a_edge1_Node000001_Node000002"><a xlink:title=" ">
<path fill="none" stroke="#63b8ff" d="M333.63,-175.95C308.68,-166.45 275.54,-153.82 248.81,-143.64"/>
<polygon fill="#63b8ff" stroke="#63b8ff" points="249.87,-140.3 239.28,-140.01 247.38,-146.84 249.87,-140.3"/>
</a>
</g>
</g>
<!-- Node3 -->
<g id="Node000003" class="node">
<title>Node3</title>
<g id="a_Node000003"><a xlink:href="ExpertiseField_8h.html" target="_top" xlink:title="Declares the ExpertiseField enum class representing technician specializations, and a utility functio...">
<polygon fill="white" stroke="#666666" points="165,-74 0,-74 0,-55 165,-55 165,-74"/>
<text text-anchor="middle" x="82.5" y="-62" font-family="Helvetica,sans-Serif" font-size="10.00">TechMa/Types/ExpertiseField.h</text>
</a>
</g>
</g>
<!-- Node1&#45;&gt;Node3 -->
<g id="edge6_Node000001_Node000003" class="edge">
<title>Node1&#45;&gt;Node3</title>
<g id="a_edge6_Node000001_Node000003"><a xlink:title=" ">
<path fill="none" stroke="#63b8ff" d="M290.25,-188.96C240.14,-184.75 176.47,-172.57 129.5,-140 109.52,-126.14 96.23,-100.76 89.02,-83.51"/>
<polygon fill="#63b8ff" stroke="#63b8ff" points="92.21,-82.05 85.32,-74 85.69,-84.59 92.21,-82.05"/>
</a>
</g>
</g>
<!-- Node7 -->
<g id="Node000007" class="node">
<title>Node7</title>
<g id="a_Node000007"><a xlink:title=" ">
<polygon fill="#e0e0e0" stroke="#999999" points="366.5,-134.5 284.5,-134.5 284.5,-115.5 366.5,-115.5 366.5,-134.5"/>
<text text-anchor="middle" x="325.5" y="-122.5" font-family="Helvetica,sans-Serif" font-size="10.00">QFormLayout</text>
</a>
</g>
</g>
<!-- Node1&#45;&gt;Node7 -->
<g id="edge7_Node000001_Node000007" class="edge">
<title>Node1&#45;&gt;Node7</title>
<g id="a_edge7_Node000001_Node000007"><a xlink:title=" ">
<path fill="none" stroke="#63b8ff" d="M360.51,-175.8C353.77,-166.21 344.84,-153.5 337.68,-143.32"/>
<polygon fill="#63b8ff" stroke="#63b8ff" points="340.33,-141.01 331.72,-134.84 334.61,-145.04 340.33,-141.01"/>
</a>
</g>
</g>
<!-- Node8 -->
<g id="Node000008" class="node">
<title>Node8</title>
<g id="a_Node000008"><a xlink:title=" ">
<polygon fill="#e0e0e0" stroke="#999999" points="448,-134.5 385,-134.5 385,-115.5 448,-115.5 448,-134.5"/>
<text text-anchor="middle" x="416.5" y="-122.5" font-family="Helvetica,sans-Serif" font-size="10.00">QLineEdit</text>
</a>
</g>
</g>
<!-- Node1&#45;&gt;Node8 -->
<g id="edge8_Node000001_Node000008" class="edge">
<title>Node1&#45;&gt;Node8</title>
<g id="a_edge8_Node000001_Node000008"><a xlink:title=" ">
<path fill="none" stroke="#63b8ff" d="M380.71,-175.8C387.67,-166.11 396.92,-153.24 404.27,-143.01"/>
<polygon fill="#63b8ff" stroke="#63b8ff" points="407.15,-145.01 410.14,-134.84 401.46,-140.92 407.15,-145.01"/>
</a>
</g>
</g>
<!-- Node9 -->
<g id="Node000009" class="node">
<title>Node9</title>
<g id="a_Node000009"><a xlink:title=" ">
<polygon fill="#e0e0e0" stroke="#999999" points="542.5,-134.5 466.5,-134.5 466.5,-115.5 542.5,-115.5 542.5,-134.5"/>
<text text-anchor="middle" x="504.5" y="-122.5" font-family="Helvetica,sans-Serif" font-size="10.00">QListWidget</text>
</a>
</g>
</g>
<!-- Node1&#45;&gt;Node9 -->
<g id="edge9_Node000001_Node000009" class="edge">
<title>Node1&#45;&gt;Node9</title>
<g id="a_edge9_Node000001_Node000009"><a xlink:title=" ">
<path fill="none" stroke="#63b8ff" d="M399.91,-175.95C422.99,-164.93 454.88,-149.7 477.36,-138.96"/>
<polygon fill="#63b8ff" stroke="#63b8ff" points="479.15,-141.99 486.67,-134.52 476.13,-135.67 479.15,-141.99"/>
</a>
</g>
</g>
<!-- Node10 -->
<g id="Node000010" class="node">
<title>Node10</title>
<g id="a_Node000010"><a xlink:title=" ">
<polygon fill="#e0e0e0" stroke="#999999" points="640.5,-134.5 560.5,-134.5 560.5,-115.5 640.5,-115.5 640.5,-134.5"/>
<text text-anchor="middle" x="600.5" y="-122.5" font-family="Helvetica,sans-Serif" font-size="10.00">QPushButton</text>
</a>
</g>
</g>
<!-- Node1&#45;&gt;Node10 -->
<g id="edge10_Node000001_Node000010" class="edge">
<title>Node1&#45;&gt;Node10</title>
<g id="a_edge10_Node000001_Node000010"><a xlink:title=" ">
<path fill="none" stroke="#63b8ff" d="M422.03,-175.9C458.26,-165.94 507.87,-152.26 551.5,-140 554.61,-139.13 557.83,-138.22 561.06,-137.3"/>
<polygon fill="#63b8ff" stroke="#63b8ff" points="562.05,-140.66 570.71,-134.56 560.14,-133.92 562.05,-140.66"/>
</a>
</g>
</g>
<!-- Node2&#45;&gt;Node3 -->
<g id="edge2_Node000002_Node000003" class="edge">
<title>Node2&#45;&gt;Node3</title>
<g id="a_edge2_Node000002_Node000003"><a xlink:title=" ">
<path fill="none" stroke="#63b8ff" d="M173.76,-109.99C154.18,-100.45 128.45,-87.9 109.3,-78.57"/>
<polygon fill="#63b8ff" stroke="#63b8ff" points="110.74,-75.38 100.22,-74.14 107.68,-81.67 110.74,-75.38"/>
</a>
</g>
</g>
<!-- Node5 -->
<g id="Node000005" class="node">
<title>Node5</title>
<g id="a_Node000005"><a xlink:title=" ">
<polygon fill="#e0e0e0" stroke="#999999" points="242,-74 183,-74 183,-55 242,-55 242,-74"/>
<text text-anchor="middle" x="212.5" y="-62" font-family="Helvetica,sans-Serif" font-size="10.00">QWidget</text>
</a>
</g>
</g>
<!-- Node2&#45;&gt;Node5 -->
<g id="edge4_Node000002_Node000005" class="edge">
<title>Node2&#45;&gt;Node5</title>
<g id="a_edge4_Node000002_Node000005"><a xlink:title=" ">
<path fill="none" stroke="#63b8ff" d="M204.92,-109.84C206.24,-102.13 207.89,-92.49 209.31,-84.17"/>
<polygon fill="#63b8ff" stroke="#63b8ff" points="212.77,-84.71 211,-74.27 205.87,-83.53 212.77,-84.71"/>
</a>
</g>
</g>
<!-- Node6 -->
<g id="Node000006" class="node">
<title>Node6</title>
<g id="a_Node000006"><a xlink:title=" ">
<polygon fill="#e0e0e0" stroke="#999999" points="307,-74 260,-74 260,-55 307,-55 307,-74"/>
<text text-anchor="middle" x="283.5" y="-62" font-family="Helvetica,sans-Serif" font-size="10.00">vector</text>
</a>
</g>
</g>
<!-- Node2&#45;&gt;Node6 -->
<g id="edge5_Node000002_Node000006" class="edge">
<title>Node2&#45;&gt;Node6</title>
<g id="a_edge5_Node000002_Node000006"><a xlink:title=" ">
<path fill="none" stroke="#63b8ff" d="M222.11,-109.84C234.47,-100.91 250.4,-89.41 262.93,-80.35"/>
<polygon fill="#63b8ff" stroke="#63b8ff" points="265.3,-82.96 271.36,-74.27 261.21,-77.28 265.3,-82.96"/>
</a>
</g>
</g>
<!-- Node4 -->
<g id="Node000004" class="node">
<title>Node4</title>
<g id="a_Node000004"><a xlink:title=" ">
<polygon fill="#e0e0e0" stroke="#999999" points="104.5,-19 60.5,-19 60.5,0 104.5,0 104.5,-19"/>
<text text-anchor="middle" x="82.5" y="-7" font-family="Helvetica,sans-Serif" font-size="10.00">string</text>
</a>
</g>
</g>
<!-- Node3&#45;&gt;Node4 -->
<g id="edge3_Node000003_Node000004" class="edge">
<title>Node3&#45;&gt;Node4</title>
<g id="a_edge3_Node000003_Node000004"><a xlink:title=" ">
<path fill="none" stroke="#63b8ff" d="M82.5,-54.75C82.5,-47.8 82.5,-37.85 82.5,-29.13"/>
<polygon fill="#63b8ff" stroke="#63b8ff" points="86,-29.09 82.5,-19.09 79,-29.09 86,-29.09"/>
</a>
</g>
</g>
</g>
</svg>
