<?xml version="1.0" encoding="UTF-8" standalone="no"?>
<!DOCTYPE svg PUBLIC "-//W3C//DTD SVG 1.1//EN"
 "http://www.w3.org/Graphics/SVG/1.1/DTD/svg11.dtd">
<!-- Generated by graphviz version 2.43.0 (0)
 -->
<!-- Title: include/TechMa/Views/Controllers/TechListController.h Pages: 1 -->
<svg width="480pt" height="104pt"
 viewBox="0.00 0.00 480.00 104.00" xmlns="http://www.w3.org/2000/svg" xmlns:xlink="http://www.w3.org/1999/xlink">
<g id="graph0" class="graph" transform="scale(1 1) rotate(0) translate(4 100)">
<title>include/TechMa/Views/Controllers/TechListController.h</title>
<!-- Node1 -->
<g id="Node000001" class="node">
<title>Node1</title>
<g id="a_Node000001"><a xlink:title="Declares the TechListController class, a Qt&#45;based controller for managing technician selection UI.">
<polygon fill="#999999" stroke="#666666" points="300.5,-96 129.5,-96 129.5,-66 300.5,-66 300.5,-96"/>
<text text-anchor="start" x="137.5" y="-84" font-family="Helvetica,sans-Serif" font-size="10.00">include/TechMa/Views</text>
<text text-anchor="middle" x="215" y="-73" font-family="Helvetica,sans-Serif" font-size="10.00">/Controllers/TechListController.h</text>
</a>
</g>
</g>
<!-- Node2 -->
<g id="Node000002" class="node">
<title>Node2</title>
<g id="a_Node000002"><a xlink:href="TechListController_8cpp.html" target="_top" xlink:title="Implements the TechListController class, which manages technician&#45;related combo boxes and observes re...">
<polygon fill="white" stroke="#666666" points="126,-30 0,-30 0,0 126,0 126,-30"/>
<text text-anchor="start" x="8" y="-18" font-family="Helvetica,sans-Serif" font-size="10.00">src/Views/Controllers</text>
<text text-anchor="middle" x="63" y="-7" font-family="Helvetica,sans-Serif" font-size="10.00">/TechListController.cpp</text>
</a>
</g>
</g>
<!-- Node1&#45;&gt;Node2 -->
<g id="edge1_Node000001_Node000002" class="edge">
<title>Node1&#45;&gt;Node2</title>
<g id="a_edge1_Node000001_Node000002"><a xlink:title=" ">
<path fill="none" stroke="#63b8ff" d="M172.38,-62.05C148.3,-51.91 118.64,-39.43 96.28,-30.01"/>
<polygon fill="#63b8ff" stroke="#63b8ff" points="171.07,-65.3 181.64,-65.95 173.78,-58.85 171.07,-65.3"/>
</a>
</g>
</g>
<!-- Node3 -->
<g id="Node000003" class="node">
<title>Node3</title>
<g id="a_Node000003"><a xlink:href="CreateInterventionDialog_8cpp.html" target="_top" xlink:title="Implements the CreateInterventionDialog class for creating new interventions through a Qt dialog UI.">
<polygon fill="white" stroke="#666666" points="285.5,-30 144.5,-30 144.5,0 285.5,0 285.5,-30"/>
<text text-anchor="start" x="152.5" y="-18" font-family="Helvetica,sans-Serif" font-size="10.00">src/Views/Widgets/Create</text>
<text text-anchor="middle" x="215" y="-7" font-family="Helvetica,sans-Serif" font-size="10.00">InterventionDialog.cpp</text>
</a>
</g>
</g>
<!-- Node1&#45;&gt;Node3 -->
<g id="edge2_Node000001_Node000003" class="edge">
<title>Node1&#45;&gt;Node3</title>
<g id="a_edge2_Node000001_Node000003"><a xlink:title=" ">
<path fill="none" stroke="#63b8ff" d="M215,-55.54C215,-46.96 215,-37.61 215,-30.16"/>
<polygon fill="#63b8ff" stroke="#63b8ff" points="211.5,-55.8 215,-65.8 218.5,-55.8 211.5,-55.8"/>
</a>
</g>
</g>
<!-- Node4 -->
<g id="Node000004" class="node">
<title>Node4</title>
<g id="a_Node000004"><a xlink:href="InterventionEditPanel_8cpp.html" target="_top" xlink:title="Implements the InterventionEditPanel class, a QWidget for editing intervention data.">
<polygon fill="white" stroke="#666666" points="472,-30 304,-30 304,0 472,0 472,-30"/>
<text text-anchor="start" x="312" y="-18" font-family="Helvetica,sans-Serif" font-size="10.00">src/Views/Widgets/Intervention</text>
<text text-anchor="middle" x="388" y="-7" font-family="Helvetica,sans-Serif" font-size="10.00">EditPanel.cpp</text>
</a>
</g>
</g>
<!-- Node1&#45;&gt;Node4 -->
<g id="edge3_Node000001_Node000004" class="edge">
<title>Node1&#45;&gt;Node4</title>
<g id="a_edge3_Node000001_Node000004"><a xlink:title=" ">
<path fill="none" stroke="#63b8ff" d="M262.42,-62.46C290.02,-52.25 324.34,-39.55 350.12,-30.01"/>
<polygon fill="#63b8ff" stroke="#63b8ff" points="261.13,-59.2 252.97,-65.95 263.56,-65.77 261.13,-59.2"/>
</a>
</g>
</g>
</g>
</svg>
