<?xml version="1.0" encoding="UTF-8" standalone="no"?>
<!DOCTYPE svg PUBLIC "-//W3C//DTD SVG 1.1//EN"
 "http://www.w3.org/Graphics/SVG/1.1/DTD/svg11.dtd">
<!-- Generated by graphviz version 2.43.0 (0)
 -->
<!-- Title: include/TechMa/Repository/TechnicianRepository.h Pages: 1 -->
<svg width="1084pt" height="170pt"
 viewBox="0.00 0.00 1084.00 170.00" xmlns="http://www.w3.org/2000/svg" xmlns:xlink="http://www.w3.org/1999/xlink">
<g id="graph0" class="graph" transform="scale(1 1) rotate(0) translate(4 166)">
<title>include/TechMa/Repository/TechnicianRepository.h</title>
<!-- Node1 -->
<g id="Node000001" class="node">
<title>Node1</title>
<g id="a_Node000001"><a xlink:title="Declares the TechnicianRepository class, responsible for storing and managing technicians.">
<polygon fill="#999999" stroke="#666666" points="712,-162 565,-162 565,-132 712,-132 712,-162"/>
<text text-anchor="start" x="573" y="-150" font-family="Helvetica,sans-Serif" font-size="10.00">include/TechMa/Repository</text>
<text text-anchor="middle" x="638.5" y="-139" font-family="Helvetica,sans-Serif" font-size="10.00">/TechnicianRepository.h</text>
</a>
</g>
</g>
<!-- Node2 -->
<g id="Node000002" class="node">
<title>Node2</title>
<g id="a_Node000002"><a xlink:href="TechnicianRepositoryProxy_8h.html" target="_top" xlink:title="Declares the TechnicianRepositoryProxy class and the AccessDeniedException.">
<polygon fill="white" stroke="#666666" points="399.5,-96 241.5,-96 241.5,-66 399.5,-66 399.5,-96"/>
<text text-anchor="start" x="249.5" y="-84" font-family="Helvetica,sans-Serif" font-size="10.00">include/TechMa/Repository</text>
<text text-anchor="middle" x="320.5" y="-73" font-family="Helvetica,sans-Serif" font-size="10.00">/TechnicianRepositoryProxy.h</text>
</a>
</g>
</g>
<!-- Node1&#45;&gt;Node2 -->
<g id="edge1_Node000001_Node000002" class="edge">
<title>Node1&#45;&gt;Node2</title>
<g id="a_edge1_Node000001_Node000002"><a xlink:title=" ">
<path fill="none" stroke="#63b8ff" d="M558.88,-129.98C506.97,-119.53 439.9,-106.03 390.12,-96.01"/>
<polygon fill="#63b8ff" stroke="#63b8ff" points="558.22,-133.41 568.71,-131.95 559.6,-126.55 558.22,-133.41"/>
</a>
</g>
</g>
<!-- Node7 -->
<g id="Node000007" class="node">
<title>Node7</title>
<g id="a_Node000007"><a xlink:href="TechnicianRepository_8cpp.html" target="_top" xlink:title="Implements the TechnicianRepository class responsible for managing technician records and notifying o...">
<polygon fill="white" stroke="#666666" points="557.5,-96 417.5,-96 417.5,-66 557.5,-66 557.5,-96"/>
<text text-anchor="start" x="425.5" y="-84" font-family="Helvetica,sans-Serif" font-size="10.00">src/Repository/Technician</text>
<text text-anchor="middle" x="487.5" y="-73" font-family="Helvetica,sans-Serif" font-size="10.00">Repository.cpp</text>
</a>
</g>
</g>
<!-- Node1&#45;&gt;Node7 -->
<g id="edge6_Node000001_Node000007" class="edge">
<title>Node1&#45;&gt;Node7</title>
<g id="a_edge6_Node000001_Node000007"><a xlink:title=" ">
<path fill="none" stroke="#63b8ff" d="M595.84,-127.92C571.97,-117.8 542.67,-105.38 520.56,-96.01"/>
<polygon fill="#63b8ff" stroke="#63b8ff" points="594.79,-131.28 605.36,-131.95 597.52,-124.83 594.79,-131.28"/>
</a>
</g>
</g>
<!-- Node8 -->
<g id="Node000008" class="node">
<title>Node8</title>
<g id="a_Node000008"><a xlink:href="TechListController_8cpp.html" target="_top" xlink:title="Implements the TechListController class, which manages technician&#45;related combo boxes and observes re...">
<polygon fill="white" stroke="#666666" points="701.5,-96 575.5,-96 575.5,-66 701.5,-66 701.5,-96"/>
<text text-anchor="start" x="583.5" y="-84" font-family="Helvetica,sans-Serif" font-size="10.00">src/Views/Controllers</text>
<text text-anchor="middle" x="638.5" y="-73" font-family="Helvetica,sans-Serif" font-size="10.00">/TechListController.cpp</text>
</a>
</g>
</g>
<!-- Node1&#45;&gt;Node8 -->
<g id="edge7_Node000001_Node000008" class="edge">
<title>Node1&#45;&gt;Node8</title>
<g id="a_edge7_Node000001_Node000008"><a xlink:title=" ">
<path fill="none" stroke="#63b8ff" d="M638.5,-121.54C638.5,-112.96 638.5,-103.61 638.5,-96.16"/>
<polygon fill="#63b8ff" stroke="#63b8ff" points="635,-121.8 638.5,-131.8 642,-121.8 635,-121.8"/>
</a>
</g>
</g>
<!-- Node9 -->
<g id="Node000009" class="node">
<title>Node9</title>
<g id="a_Node000009"><a xlink:href="InterventionsListView_8cpp.html" target="_top" xlink:title="Implements the InterventionsListView class, a QListView for browsing interventions.">
<polygon fill="white" stroke="#666666" points="893,-96 720,-96 720,-66 893,-66 893,-96"/>
<text text-anchor="start" x="728" y="-84" font-family="Helvetica,sans-Serif" font-size="10.00">src/Views/Widgets/Interventions</text>
<text text-anchor="middle" x="806.5" y="-73" font-family="Helvetica,sans-Serif" font-size="10.00">ListView.cpp</text>
</a>
</g>
</g>
<!-- Node1&#45;&gt;Node9 -->
<g id="edge8_Node000001_Node000009" class="edge">
<title>Node1&#45;&gt;Node9</title>
<g id="a_edge8_Node000001_Node000009"><a xlink:title=" ">
<path fill="none" stroke="#63b8ff" d="M684.9,-128.32C711.64,-118.14 744.79,-105.51 769.72,-96.01"/>
<polygon fill="#63b8ff" stroke="#63b8ff" points="683.47,-125.12 675.37,-131.95 685.96,-131.67 683.47,-125.12"/>
</a>
</g>
</g>
<!-- Node10 -->
<g id="Node000010" class="node">
<title>Node10</title>
<g id="a_Node000010"><a xlink:href="TechniciansListView_8cpp.html" target="_top" xlink:title="Implements the TechniciansListView class, which displays a list of technicians and handles selection ...">
<polygon fill="white" stroke="#666666" points="1076,-96 911,-96 911,-66 1076,-66 1076,-96"/>
<text text-anchor="start" x="919" y="-84" font-family="Helvetica,sans-Serif" font-size="10.00">src/Views/Widgets/Technicians</text>
<text text-anchor="middle" x="993.5" y="-73" font-family="Helvetica,sans-Serif" font-size="10.00">ListView.cpp</text>
</a>
</g>
</g>
<!-- Node1&#45;&gt;Node10 -->
<g id="edge9_Node000001_Node000010" class="edge">
<title>Node1&#45;&gt;Node10</title>
<g id="a_edge9_Node000001_Node000010"><a xlink:title=" ">
<path fill="none" stroke="#63b8ff" d="M722.03,-130.94C780.63,-120.38 858.44,-106.35 915.73,-96.02"/>
<polygon fill="#63b8ff" stroke="#63b8ff" points="721.28,-127.52 712.06,-132.74 722.52,-134.41 721.28,-127.52"/>
</a>
</g>
</g>
<!-- Node3 -->
<g id="Node000003" class="node">
<title>Node3</title>
<g id="a_Node000003"><a xlink:href="InterventionRepositoryProxy_8cpp.html" target="_top" xlink:title="Implements the InterventionRepositoryProxy class, a secure proxy to the InterventionRepository.">
<polygon fill="white" stroke="#666666" points="149,-30 0,-30 0,0 149,0 149,-30"/>
<text text-anchor="start" x="8" y="-18" font-family="Helvetica,sans-Serif" font-size="10.00">src/Repository/Intervention</text>
<text text-anchor="middle" x="74.5" y="-7" font-family="Helvetica,sans-Serif" font-size="10.00">RepositoryProxy.cpp</text>
</a>
</g>
</g>
<!-- Node2&#45;&gt;Node3 -->
<g id="edge2_Node000002_Node000003" class="edge">
<title>Node2&#45;&gt;Node3</title>
<g id="a_edge2_Node000002_Node000003"><a xlink:title=" ">
<path fill="none" stroke="#63b8ff" d="M256.64,-63.39C216.82,-53.03 166.14,-39.84 128.36,-30.01"/>
<polygon fill="#63b8ff" stroke="#63b8ff" points="255.96,-66.82 266.51,-65.95 257.72,-60.05 255.96,-66.82"/>
</a>
</g>
</g>
<!-- Node4 -->
<g id="Node000004" class="node">
<title>Node4</title>
<g id="a_Node000004"><a xlink:href="TechnicianRepositoryProxy_8cpp.html" target="_top" xlink:title="Implements the TechnicianRepositoryProxy class and AccessDeniedException.">
<polygon fill="white" stroke="#666666" points="307.5,-30 167.5,-30 167.5,0 307.5,0 307.5,-30"/>
<text text-anchor="start" x="175.5" y="-18" font-family="Helvetica,sans-Serif" font-size="10.00">src/Repository/Technician</text>
<text text-anchor="middle" x="237.5" y="-7" font-family="Helvetica,sans-Serif" font-size="10.00">RepositoryProxy.cpp</text>
</a>
</g>
</g>
<!-- Node2&#45;&gt;Node4 -->
<g id="edge3_Node000002_Node000004" class="edge">
<title>Node2&#45;&gt;Node4</title>
<g id="a_edge3_Node000002_Node000004"><a xlink:title=" ">
<path fill="none" stroke="#63b8ff" d="M293.89,-59.48C281.48,-49.91 267.03,-38.77 255.87,-30.16"/>
<polygon fill="#63b8ff" stroke="#63b8ff" points="292.02,-62.46 302.08,-65.8 296.3,-56.92 292.02,-62.46"/>
</a>
</g>
</g>
<!-- Node5 -->
<g id="Node000005" class="node">
<title>Node5</title>
<g id="a_Node000005"><a xlink:href="InterventionPage_8cpp.html" target="_top" xlink:title="Implements the InterventionPage class, a QWidget handling intervention&#45;related UI and interactions.">
<polygon fill="white" stroke="#666666" points="483,-30 326,-30 326,0 483,0 483,-30"/>
<text text-anchor="start" x="334" y="-18" font-family="Helvetica,sans-Serif" font-size="10.00">src/Views/Pages/Intervention</text>
<text text-anchor="middle" x="404.5" y="-7" font-family="Helvetica,sans-Serif" font-size="10.00">Page.cpp</text>
</a>
</g>
</g>
<!-- Node2&#45;&gt;Node5 -->
<g id="edge4_Node000002_Node000005" class="edge">
<title>Node2&#45;&gt;Node5</title>
<g id="a_edge4_Node000002_Node000005"><a xlink:title=" ">
<path fill="none" stroke="#63b8ff" d="M347.44,-59.48C359.99,-49.91 374.61,-38.77 385.91,-30.16"/>
<polygon fill="#63b8ff" stroke="#63b8ff" points="344.98,-56.95 339.14,-65.8 349.22,-62.52 344.98,-56.95"/>
</a>
</g>
</g>
<!-- Node6 -->
<g id="Node000006" class="node">
<title>Node6</title>
<g id="a_Node000006"><a xlink:href="TechniciansPage_8cpp.html" target="_top" xlink:title="Implements the TechniciansPage class, managing the technician creation and edition UI.">
<polygon fill="white" stroke="#666666" points="655.5,-30 501.5,-30 501.5,0 655.5,0 655.5,-30"/>
<text text-anchor="start" x="509.5" y="-18" font-family="Helvetica,sans-Serif" font-size="10.00">src/Views/Pages/Technicians</text>
<text text-anchor="middle" x="578.5" y="-7" font-family="Helvetica,sans-Serif" font-size="10.00">Page.cpp</text>
</a>
</g>
</g>
<!-- Node2&#45;&gt;Node6 -->
<g id="edge5_Node000002_Node000006" class="edge">
<title>Node2&#45;&gt;Node6</title>
<g id="a_edge5_Node000002_Node000006"><a xlink:title=" ">
<path fill="none" stroke="#63b8ff" d="M386.95,-63.52C428.79,-53.14 482.22,-39.88 522.01,-30.01"/>
<polygon fill="#63b8ff" stroke="#63b8ff" points="385.98,-60.15 377.12,-65.95 387.67,-66.94 385.98,-60.15"/>
</a>
</g>
</g>
</g>
</svg>
