<?xml version="1.0" encoding="UTF-8" standalone="no"?>
<!DOCTYPE svg PUBLIC "-//W3C//DTD SVG 1.1//EN"
 "http://www.w3.org/Graphics/SVG/1.1/DTD/svg11.dtd">
<!-- Generated by graphviz version 2.43.0 (0)
 -->
<!-- Title: include/TechMa/Repository/TechnicianRepositoryProxy.h Pages: 1 -->
<svg width="825pt" height="280pt"
 viewBox="0.00 0.00 824.76 280.00" xmlns="http://www.w3.org/2000/svg" xmlns:xlink="http://www.w3.org/1999/xlink">
<g id="graph0" class="graph" transform="scale(1 1) rotate(0) translate(4 276)">
<title>include/TechMa/Repository/TechnicianRepositoryProxy.h</title>
<!-- Node1 -->
<g id="Node000001" class="node">
<title>Node1</title>
<g id="a_Node000001"><a xlink:title="Declares the TechnicianRepositoryProxy class and the AccessDeniedException.">
<polygon fill="#999999" stroke="#666666" points="542.26,-272 384.26,-272 384.26,-242 542.26,-242 542.26,-272"/>
<text text-anchor="start" x="392.26" y="-260" font-family="Helvetica,sans-Serif" font-size="10.00">include/TechMa/Repository</text>
<text text-anchor="middle" x="463.26" y="-249" font-family="Helvetica,sans-Serif" font-size="10.00">/TechnicianRepositoryProxy.h</text>
</a>
</g>
</g>
<!-- Node2 -->
<g id="Node000002" class="node">
<title>Node2</title>
<g id="a_Node000002"><a xlink:href="UserAuthentication_8h.html" target="_top" xlink:title="Declaration of the User and AuthenticationService classes for managing authentication.">
<polygon fill="white" stroke="#666666" points="200.26,-206 72.26,-206 72.26,-176 200.26,-176 200.26,-206"/>
<text text-anchor="start" x="80.26" y="-194" font-family="Helvetica,sans-Serif" font-size="10.00">TechMa/Authentication</text>
<text text-anchor="middle" x="136.26" y="-183" font-family="Helvetica,sans-Serif" font-size="10.00">/UserAuthentication.h</text>
</a>
</g>
</g>
<!-- Node1&#45;&gt;Node2 -->
<g id="edge1_Node000001_Node000002" class="edge">
<title>Node1&#45;&gt;Node2</title>
<g id="a_edge1_Node000001_Node000002"><a xlink:title=" ">
<path fill="none" stroke="#63b8ff" d="M391.49,-241.95C337.78,-231.44 264.53,-217.11 210.28,-206.49"/>
<polygon fill="#63b8ff" stroke="#63b8ff" points="210.86,-203.04 200.38,-204.55 209.52,-209.91 210.86,-203.04"/>
</a>
</g>
</g>
<!-- Node3 -->
<g id="Node000003" class="node">
<title>Node3</title>
<g id="a_Node000003"><a xlink:title=" ">
<polygon fill="#e0e0e0" stroke="#999999" points="259.26,-134.5 201.26,-134.5 201.26,-115.5 259.26,-115.5 259.26,-134.5"/>
<text text-anchor="middle" x="230.26" y="-122.5" font-family="Helvetica,sans-Serif" font-size="10.00">memory</text>
</a>
</g>
</g>
<!-- Node1&#45;&gt;Node3 -->
<g id="edge19_Node000001_Node000003" class="edge">
<title>Node1&#45;&gt;Node3</title>
<g id="a_edge19_Node000001_Node000003"><a xlink:title=" ">
<path fill="none" stroke="#63b8ff" d="M383.86,-253.07C343.3,-247.74 295.59,-235.07 262.26,-206 244.23,-190.29 236.24,-163.01 232.78,-144.74"/>
<polygon fill="#63b8ff" stroke="#63b8ff" points="236.21,-144.02 231.16,-134.7 229.3,-145.13 236.21,-144.02"/>
</a>
</g>
</g>
<!-- Node4 -->
<g id="Node000004" class="node">
<title>Node4</title>
<g id="a_Node000004"><a xlink:title=" ">
<polygon fill="#e0e0e0" stroke="#999999" points="71.26,-134.5 15.26,-134.5 15.26,-115.5 71.26,-115.5 71.26,-134.5"/>
<text text-anchor="middle" x="43.26" y="-122.5" font-family="Helvetica,sans-Serif" font-size="10.00">optional</text>
</a>
</g>
</g>
<!-- Node1&#45;&gt;Node4 -->
<g id="edge20_Node000001_Node000004" class="edge">
<title>Node1&#45;&gt;Node4</title>
<g id="a_edge20_Node000001_Node000004"><a xlink:title=" ">
<path fill="none" stroke="#63b8ff" d="M383.99,-256.37C281.13,-255.16 109.35,-246.84 63.26,-206 46.04,-190.75 42.56,-163.13 42.35,-144.68"/>
<polygon fill="#63b8ff" stroke="#63b8ff" points="45.85,-144.63 42.55,-134.56 38.85,-144.49 45.85,-144.63"/>
</a>
</g>
</g>
<!-- Node5 -->
<g id="Node000005" class="node">
<title>Node5</title>
<g id="a_Node000005"><a xlink:title=" ">
<polygon fill="#e0e0e0" stroke="#999999" points="324.26,-19 280.26,-19 280.26,0 324.26,0 324.26,-19"/>
<text text-anchor="middle" x="302.26" y="-7" font-family="Helvetica,sans-Serif" font-size="10.00">string</text>
</a>
</g>
</g>
<!-- Node1&#45;&gt;Node5 -->
<g id="edge22_Node000001_Node000005" class="edge">
<title>Node1&#45;&gt;Node5</title>
<g id="a_edge22_Node000001_Node000005"><a xlink:title=" ">
<path fill="none" stroke="#63b8ff" d="M518.15,-241.96C592.5,-220.19 711.07,-174.01 666.26,-110 627.65,-54.85 416.42,-24.12 334.63,-14.15"/>
<polygon fill="#63b8ff" stroke="#63b8ff" points="334.76,-10.64 324.42,-12.93 333.93,-17.59 334.76,-10.64"/>
</a>
</g>
</g>
<!-- Node7 -->
<g id="Node000007" class="node">
<title>Node7</title>
<g id="a_Node000007"><a xlink:href="ATechnician_8h.html" target="_top" xlink:title="Defines the abstract base class ATechnician representing a technician entity.">
<polygon fill="white" stroke="#666666" points="439.26,-134.5 277.26,-134.5 277.26,-115.5 439.26,-115.5 439.26,-134.5"/>
<text text-anchor="middle" x="358.26" y="-122.5" font-family="Helvetica,sans-Serif" font-size="10.00">TechMa/Entities/ATechnician.h</text>
</a>
</g>
</g>
<!-- Node1&#45;&gt;Node7 -->
<g id="edge6_Node000001_Node000007" class="edge">
<title>Node1&#45;&gt;Node7</title>
<g id="a_edge6_Node000001_Node000007"><a xlink:title=" ">
<path fill="none" stroke="#63b8ff" d="M462.95,-241.88C461.91,-224.71 457.91,-195.61 443.26,-176 430.54,-158.99 410.19,-146.73 392.59,-138.6"/>
<polygon fill="#63b8ff" stroke="#63b8ff" points="393.73,-135.28 383.17,-134.51 390.95,-141.7 393.73,-135.28"/>
</a>
</g>
</g>
<!-- Node8 -->
<g id="Node000008" class="node">
<title>Node8</title>
<g id="a_Node000008"><a xlink:title=" ">
<polygon fill="#e0e0e0" stroke="#999999" points="505.76,-74 458.76,-74 458.76,-55 505.76,-55 505.76,-74"/>
<text text-anchor="middle" x="482.26" y="-62" font-family="Helvetica,sans-Serif" font-size="10.00">vector</text>
</a>
</g>
</g>
<!-- Node1&#45;&gt;Node8 -->
<g id="edge23_Node000001_Node000008" class="edge">
<title>Node1&#45;&gt;Node8</title>
<g id="a_edge23_Node000001_Node000008"><a xlink:title=" ">
<path fill="none" stroke="#63b8ff" d="M516.97,-241.95C565.6,-226.06 634.37,-194.94 666.26,-140 699.7,-82.38 577.71,-69.3 515.96,-66.35"/>
<polygon fill="#63b8ff" stroke="#63b8ff" points="516.03,-62.85 505.89,-65.93 515.74,-69.84 516.03,-62.85"/>
</a>
</g>
</g>
<!-- Node10 -->
<g id="Node000010" class="node">
<title>Node10</title>
<g id="a_Node000010"><a xlink:href="ATechnicianObserver_8h.html" target="_top" xlink:title="Declares the ATechnicianObserver interface used for observing technician&#45;related changes.">
<polygon fill="white" stroke="#666666" points="656.76,-140 495.76,-140 495.76,-110 656.76,-110 656.76,-140"/>
<text text-anchor="start" x="503.76" y="-128" font-family="Helvetica,sans-Serif" font-size="10.00">TechMa/Observer/ATechnician</text>
<text text-anchor="middle" x="576.26" y="-117" font-family="Helvetica,sans-Serif" font-size="10.00">Observer.h</text>
</a>
</g>
</g>
<!-- Node1&#45;&gt;Node10 -->
<g id="edge11_Node000001_Node000010" class="edge">
<title>Node1&#45;&gt;Node10</title>
<g id="a_edge11_Node000001_Node000010"><a xlink:title=" ">
<path fill="none" stroke="#63b8ff" d="M475.56,-241.84C495.26,-219.18 534.01,-174.6 557.28,-147.83"/>
<polygon fill="#63b8ff" stroke="#63b8ff" points="560.04,-149.99 563.96,-140.14 554.76,-145.39 560.04,-149.99"/>
</a>
</g>
</g>
<!-- Node11 -->
<g id="Node000011" class="node">
<title>Node11</title>
<g id="a_Node000011"><a xlink:href="TechnicianRepository_8h.html" target="_top" xlink:title="Declares the TechnicianRepository class, responsible for storing and managing technicians.">
<polygon fill="white" stroke="#666666" points="434.76,-206 271.76,-206 271.76,-176 434.76,-176 434.76,-206"/>
<text text-anchor="start" x="279.76" y="-194" font-family="Helvetica,sans-Serif" font-size="10.00">TechMa/Repository/Technician</text>
<text text-anchor="middle" x="353.26" y="-183" font-family="Helvetica,sans-Serif" font-size="10.00">Repository.h</text>
</a>
</g>
</g>
<!-- Node1&#45;&gt;Node11 -->
<g id="edge12_Node000001_Node000011" class="edge">
<title>Node1&#45;&gt;Node11</title>
<g id="a_edge12_Node000001_Node000011"><a xlink:title=" ">
<path fill="none" stroke="#63b8ff" d="M439.12,-241.95C423.64,-232.95 403.35,-221.14 386.37,-211.27"/>
<polygon fill="#63b8ff" stroke="#63b8ff" points="387.74,-208.02 377.34,-206.01 384.22,-214.07 387.74,-208.02"/>
</a>
</g>
</g>
<!-- Node12 -->
<g id="Node000012" class="node">
<title>Node12</title>
<g id="a_Node000012"><a xlink:title=" ">
<polygon fill="#e0e0e0" stroke="#999999" points="816.76,-200.5 751.76,-200.5 751.76,-181.5 816.76,-181.5 816.76,-200.5"/>
<text text-anchor="middle" x="784.26" y="-188.5" font-family="Helvetica,sans-Serif" font-size="10.00">stdexcept</text>
</a>
</g>
</g>
<!-- Node1&#45;&gt;Node12 -->
<g id="edge21_Node000001_Node000012" class="edge">
<title>Node1&#45;&gt;Node12</title>
<g id="a_edge21_Node000001_Node000012"><a xlink:title=" ">
<path fill="none" stroke="#63b8ff" d="M542.27,-243.92C597.27,-234.95 672.12,-221.59 737.26,-206 740.67,-205.18 744.21,-204.26 747.73,-203.3"/>
<polygon fill="#63b8ff" stroke="#63b8ff" points="748.89,-206.61 757.55,-200.5 746.97,-199.88 748.89,-206.61"/>
</a>
</g>
</g>
<!-- Node2&#45;&gt;Node3 -->
<g id="edge2_Node000002_Node000003" class="edge">
<title>Node2&#45;&gt;Node3</title>
<g id="a_edge2_Node000002_Node000003"><a xlink:title=" ">
<path fill="none" stroke="#63b8ff" d="M157.12,-175.8C172.58,-165.27 193.58,-150.97 209.11,-140.4"/>
<polygon fill="#63b8ff" stroke="#63b8ff" points="211.24,-143.18 217.54,-134.66 207.3,-137.39 211.24,-143.18"/>
</a>
</g>
</g>
<!-- Node2&#45;&gt;Node4 -->
<g id="edge3_Node000002_Node000004" class="edge">
<title>Node2&#45;&gt;Node4</title>
<g id="a_edge3_Node000002_Node000004"><a xlink:title=" ">
<path fill="none" stroke="#63b8ff" d="M115.62,-175.8C100.32,-165.27 79.54,-150.97 64.18,-140.4"/>
<polygon fill="#63b8ff" stroke="#63b8ff" points="66.06,-137.44 55.84,-134.66 62.09,-143.21 66.06,-137.44"/>
</a>
</g>
</g>
<!-- Node2&#45;&gt;Node5 -->
<g id="edge4_Node000002_Node000005" class="edge">
<title>Node2&#45;&gt;Node5</title>
<g id="a_edge4_Node000002_Node000005"><a xlink:title=" ">
<path fill="none" stroke="#63b8ff" d="M72.81,-175.91C29.44,-163.17 -16.41,-141.52 6.26,-110 67.88,-24.28 207.03,-11.39 270.1,-10.14"/>
<polygon fill="#63b8ff" stroke="#63b8ff" points="270.29,-13.64 280.25,-10.03 270.21,-6.64 270.29,-13.64"/>
</a>
</g>
</g>
<!-- Node6 -->
<g id="Node000006" class="node">
<title>Node6</title>
<g id="a_Node000006"><a xlink:title=" ">
<polygon fill="#e0e0e0" stroke="#999999" points="182.76,-134.5 89.76,-134.5 89.76,-115.5 182.76,-115.5 182.76,-134.5"/>
<text text-anchor="middle" x="136.26" y="-122.5" font-family="Helvetica,sans-Serif" font-size="10.00">unordered_map</text>
</a>
</g>
</g>
<!-- Node2&#45;&gt;Node6 -->
<g id="edge5_Node000002_Node000006" class="edge">
<title>Node2&#45;&gt;Node6</title>
<g id="a_edge5_Node000002_Node000006"><a xlink:title=" ">
<path fill="none" stroke="#63b8ff" d="M136.26,-175.8C136.26,-166.7 136.26,-154.79 136.26,-144.9"/>
<polygon fill="#63b8ff" stroke="#63b8ff" points="139.76,-144.84 136.26,-134.84 132.76,-144.84 139.76,-144.84"/>
</a>
</g>
</g>
<!-- Node7&#45;&gt;Node5 -->
<g id="edge7_Node000007_Node000005" class="edge">
<title>Node7&#45;&gt;Node5</title>
<g id="a_edge7_Node000007_Node000005"><a xlink:title=" ">
<path fill="none" stroke="#63b8ff" d="M324.89,-115.35C304.07,-108.03 278.89,-95.25 266.26,-74 256.62,-57.79 270.35,-38.97 283.53,-26.05"/>
<polygon fill="#63b8ff" stroke="#63b8ff" points="286.03,-28.52 291.05,-19.19 281.31,-23.35 286.03,-28.52"/>
</a>
</g>
</g>
<!-- Node7&#45;&gt;Node8 -->
<g id="edge8_Node000007_Node000008" class="edge">
<title>Node7&#45;&gt;Node8</title>
<g id="a_edge8_Node000007_Node000008"><a xlink:title=" ">
<path fill="none" stroke="#63b8ff" d="M376.29,-115.49C396.95,-105.75 431.04,-89.66 454.96,-78.38"/>
<polygon fill="#63b8ff" stroke="#63b8ff" points="456.65,-81.45 464.2,-74.02 453.67,-75.12 456.65,-81.45"/>
</a>
</g>
</g>
<!-- Node9 -->
<g id="Node000009" class="node">
<title>Node9</title>
<g id="a_Node000009"><a xlink:href="ExpertiseField_8h.html" target="_top" xlink:title="Declares the ExpertiseField enum class representing technician specializations, and a utility functio...">
<polygon fill="white" stroke="#666666" points="440.76,-74 275.76,-74 275.76,-55 440.76,-55 440.76,-74"/>
<text text-anchor="middle" x="358.26" y="-62" font-family="Helvetica,sans-Serif" font-size="10.00">TechMa/Types/ExpertiseField.h</text>
</a>
</g>
</g>
<!-- Node7&#45;&gt;Node9 -->
<g id="edge9_Node000007_Node000009" class="edge">
<title>Node7&#45;&gt;Node9</title>
<g id="a_edge9_Node000007_Node000009"><a xlink:title=" ">
<path fill="none" stroke="#63b8ff" d="M358.26,-115.37C358.26,-107.25 358.26,-94.81 358.26,-84.39"/>
<polygon fill="#63b8ff" stroke="#63b8ff" points="361.76,-84.17 358.26,-74.17 354.76,-84.17 361.76,-84.17"/>
</a>
</g>
</g>
<!-- Node9&#45;&gt;Node5 -->
<g id="edge10_Node000009_Node000005" class="edge">
<title>Node9&#45;&gt;Node5</title>
<g id="a_edge10_Node000009_Node000005"><a xlink:title=" ">
<path fill="none" stroke="#63b8ff" d="M349.26,-54.98C341.06,-47.23 328.75,-35.58 318.78,-26.14"/>
<polygon fill="#63b8ff" stroke="#63b8ff" points="321.09,-23.5 311.42,-19.17 316.27,-28.59 321.09,-23.5"/>
</a>
</g>
</g>
<!-- Node11&#45;&gt;Node3 -->
<g id="edge15_Node000011_Node000003" class="edge">
<title>Node11&#45;&gt;Node3</title>
<g id="a_edge15_Node000011_Node000003"><a xlink:title=" ">
<path fill="none" stroke="#63b8ff" d="M326.26,-175.95C305.26,-165.03 276.32,-149.97 255.72,-139.25"/>
<polygon fill="#63b8ff" stroke="#63b8ff" points="257.11,-136.03 246.62,-134.52 253.88,-142.24 257.11,-136.03"/>
</a>
</g>
</g>
<!-- Node11&#45;&gt;Node4 -->
<g id="edge16_Node000011_Node000004" class="edge">
<title>Node11&#45;&gt;Node4</title>
<g id="a_edge16_Node000011_Node000004"><a xlink:title=" ">
<path fill="none" stroke="#63b8ff" d="M271.75,-179.01C217.03,-170.68 143.62,-157.63 80.26,-140 77.97,-139.36 75.62,-138.64 73.27,-137.87"/>
<polygon fill="#63b8ff" stroke="#63b8ff" points="74.37,-134.55 63.78,-134.52 72.04,-141.15 74.37,-134.55"/>
</a>
</g>
</g>
<!-- Node11&#45;&gt;Node6 -->
<g id="edge17_Node000011_Node000006" class="edge">
<title>Node11&#45;&gt;Node6</title>
<g id="a_edge17_Node000011_Node000006"><a xlink:title=" ">
<path fill="none" stroke="#63b8ff" d="M305.63,-175.95C266.4,-164.38 211.48,-148.18 174.93,-137.41"/>
<polygon fill="#63b8ff" stroke="#63b8ff" points="175.72,-133.99 165.13,-134.52 173.74,-140.7 175.72,-133.99"/>
</a>
</g>
</g>
<!-- Node11&#45;&gt;Node7 -->
<g id="edge13_Node000011_Node000007" class="edge">
<title>Node11&#45;&gt;Node7</title>
<g id="a_edge13_Node000011_Node000007"><a xlink:title=" ">
<path fill="none" stroke="#63b8ff" d="M354.36,-175.8C355.08,-166.7 356.01,-154.79 356.78,-144.9"/>
<polygon fill="#63b8ff" stroke="#63b8ff" points="360.27,-145.09 357.56,-134.84 353.3,-144.54 360.27,-145.09"/>
</a>
</g>
</g>
<!-- Node11&#45;&gt;Node8 -->
<g id="edge18_Node000011_Node000008" class="edge">
<title>Node11&#45;&gt;Node8</title>
<g id="a_edge18_Node000011_Node000008"><a xlink:title=" ">
<path fill="none" stroke="#63b8ff" d="M393.62,-175.8C412.15,-167.65 433.28,-155.85 448.26,-140 463.17,-124.22 472.39,-100.75 477.4,-84.38"/>
<polygon fill="#63b8ff" stroke="#63b8ff" points="480.88,-84.94 480.22,-74.37 474.14,-83.04 480.88,-84.94"/>
</a>
</g>
</g>
<!-- Node11&#45;&gt;Node10 -->
<g id="edge14_Node000011_Node000010" class="edge">
<title>Node11&#45;&gt;Node10</title>
<g id="a_edge14_Node000011_Node000010"><a xlink:title=" ">
<path fill="none" stroke="#63b8ff" d="M402.19,-175.95C436.18,-166.2 481.63,-153.16 517.57,-142.84"/>
<polygon fill="#63b8ff" stroke="#63b8ff" points="518.78,-146.14 527.43,-140.01 516.85,-139.41 518.78,-146.14"/>
</a>
</g>
</g>
</g>
</svg>
