<?xml version="1.0" encoding="UTF-8" standalone="no"?>
<!DOCTYPE svg PUBLIC "-//W3C//DTD SVG 1.1//EN"
 "http://www.w3.org/Graphics/SVG/1.1/DTD/svg11.dtd">
<!-- Generated by graphviz version 2.43.0 (0)
 -->
<!-- Title: include/TechMa/Views/Widgets/TechniciansListView.h Pages: 1 -->
<svg width="252pt" height="104pt"
 viewBox="0.00 0.00 252.00 104.00" xmlns="http://www.w3.org/2000/svg" xmlns:xlink="http://www.w3.org/1999/xlink">
<g id="graph0" class="graph" transform="scale(1 1) rotate(0) translate(4 100)">
<title>include/TechMa/Views/Widgets/TechniciansListView.h</title>
<!-- Node1 -->
<g id="Node000001" class="node">
<title>Node1</title>
<g id="a_Node000001"><a xlink:title="Declares the TechniciansListView class, a QListView for displaying and selecting technicians.">
<polygon fill="#999999" stroke="#666666" points="229.5,-96 61.5,-96 61.5,-66 229.5,-66 229.5,-96"/>
<text text-anchor="start" x="69.5" y="-84" font-family="Helvetica,sans-Serif" font-size="10.00">include/TechMa/Views</text>
<text text-anchor="middle" x="145.5" y="-73" font-family="Helvetica,sans-Serif" font-size="10.00">/Widgets/TechniciansListView.h</text>
</a>
</g>
</g>
<!-- Node2 -->
<g id="Node000002" class="node">
<title>Node2</title>
<g id="a_Node000002"><a xlink:href="ATechnicianObserver_8h.html" target="_top" xlink:title="Declares the ATechnicianObserver interface used for observing technician&#45;related changes.">
<polygon fill="white" stroke="#666666" points="161,-30 0,-30 0,0 161,0 161,-30"/>
<text text-anchor="start" x="8" y="-18" font-family="Helvetica,sans-Serif" font-size="10.00">TechMa/Observer/ATechnician</text>
<text text-anchor="middle" x="80.5" y="-7" font-family="Helvetica,sans-Serif" font-size="10.00">Observer.h</text>
</a>
</g>
</g>
<!-- Node1&#45;&gt;Node2 -->
<g id="edge1_Node000001_Node000002" class="edge">
<title>Node1&#45;&gt;Node2</title>
<g id="a_edge1_Node000001_Node000002"><a xlink:title=" ">
<path fill="none" stroke="#63b8ff" d="M131.07,-65.8C122.57,-57.43 111.66,-46.68 102.14,-37.31"/>
<polygon fill="#63b8ff" stroke="#63b8ff" points="104.47,-34.69 94.89,-30.16 99.56,-39.67 104.47,-34.69"/>
</a>
</g>
</g>
<!-- Node3 -->
<g id="Node000003" class="node">
<title>Node3</title>
<g id="a_Node000003"><a xlink:title=" ">
<polygon fill="#e0e0e0" stroke="#999999" points="244,-24.5 179,-24.5 179,-5.5 244,-5.5 244,-24.5"/>
<text text-anchor="middle" x="211.5" y="-12.5" font-family="Helvetica,sans-Serif" font-size="10.00">QListView</text>
</a>
</g>
</g>
<!-- Node1&#45;&gt;Node3 -->
<g id="edge2_Node000001_Node000003" class="edge">
<title>Node1&#45;&gt;Node3</title>
<g id="a_edge2_Node000001_Node000003"><a xlink:title=" ">
<path fill="none" stroke="#63b8ff" d="M160.15,-65.8C170.44,-55.82 184.22,-42.46 194.91,-32.09"/>
<polygon fill="#63b8ff" stroke="#63b8ff" points="197.64,-34.32 202.38,-24.84 192.76,-29.29 197.64,-34.32"/>
</a>
</g>
</g>
</g>
</svg>
