<?xml version="1.0" encoding="UTF-8" standalone="no"?>
<!DOCTYPE svg PUBLIC "-//W3C//DTD SVG 1.1//EN"
 "http://www.w3.org/Graphics/SVG/1.1/DTD/svg11.dtd">
<!-- Generated by graphviz version 2.43.0 (0)
 -->
<!-- Title: src/Repository/TechnicianRepository.cpp Pages: 1 -->
<svg width="649pt" height="280pt"
 viewBox="0.00 0.00 649.00 280.00" xmlns="http://www.w3.org/2000/svg" xmlns:xlink="http://www.w3.org/1999/xlink">
<g id="graph0" class="graph" transform="scale(1 1) rotate(0) translate(4 276)">
<title>src/Repository/TechnicianRepository.cpp</title>
<!-- Node1 -->
<g id="Node000001" class="node">
<title>Node1</title>
<g id="a_Node000001"><a xlink:title="Implements the TechnicianRepository class responsible for managing technician records and notifying o...">
<polygon fill="#999999" stroke="#666666" points="295.5,-272 155.5,-272 155.5,-242 295.5,-242 295.5,-272"/>
<text text-anchor="start" x="163.5" y="-260" font-family="Helvetica,sans-Serif" font-size="10.00">src/Repository/Technician</text>
<text text-anchor="middle" x="225.5" y="-249" font-family="Helvetica,sans-Serif" font-size="10.00">Repository.cpp</text>
</a>
</g>
</g>
<!-- Node2 -->
<g id="Node000002" class="node">
<title>Node2</title>
<g id="a_Node000002"><a xlink:href="TechnicianRepository_8h.html" target="_top" xlink:title="Declares the TechnicianRepository class, responsible for storing and managing technicians.">
<polygon fill="white" stroke="#666666" points="451,-206 288,-206 288,-176 451,-176 451,-206"/>
<text text-anchor="start" x="296" y="-194" font-family="Helvetica,sans-Serif" font-size="10.00">TechMa/Repository/Technician</text>
<text text-anchor="middle" x="369.5" y="-183" font-family="Helvetica,sans-Serif" font-size="10.00">Repository.h</text>
</a>
</g>
</g>
<!-- Node1&#45;&gt;Node2 -->
<g id="edge1_Node000001_Node000002" class="edge">
<title>Node1&#45;&gt;Node2</title>
<g id="a_edge1_Node000001_Node000002"><a xlink:title=" ">
<path fill="none" stroke="#63b8ff" d="M257.1,-241.95C278.11,-232.62 305.9,-220.27 328.59,-210.18"/>
<polygon fill="#63b8ff" stroke="#63b8ff" points="330.26,-213.27 337.97,-206.01 327.41,-206.88 330.26,-213.27"/>
</a>
</g>
</g>
<!-- Node7 -->
<g id="Node000007" class="node">
<title>Node7</title>
<g id="a_Node000007"><a xlink:href="ATechnicianObserver_8h.html" target="_top" xlink:title="Declares the ATechnicianObserver interface used for observing technician&#45;related changes.">
<polygon fill="white" stroke="#666666" points="161,-140 0,-140 0,-110 161,-110 161,-140"/>
<text text-anchor="start" x="8" y="-128" font-family="Helvetica,sans-Serif" font-size="10.00">TechMa/Observer/ATechnician</text>
<text text-anchor="middle" x="80.5" y="-117" font-family="Helvetica,sans-Serif" font-size="10.00">Observer.h</text>
</a>
</g>
</g>
<!-- Node1&#45;&gt;Node7 -->
<g id="edge12_Node000001_Node000007" class="edge">
<title>Node1&#45;&gt;Node7</title>
<g id="a_edge12_Node000001_Node000007"><a xlink:title=" ">
<path fill="none" stroke="#63b8ff" d="M209.71,-241.84C184.21,-218.98 133.84,-173.82 104.08,-147.14"/>
<polygon fill="#63b8ff" stroke="#63b8ff" points="106.06,-144.21 96.27,-140.14 101.38,-149.42 106.06,-144.21"/>
</a>
</g>
</g>
<!-- Node3 -->
<g id="Node000003" class="node">
<title>Node3</title>
<g id="a_Node000003"><a xlink:href="ATechnician_8h.html" target="_top" xlink:title="Defines the abstract base class ATechnician representing a technician entity.">
<polygon fill="white" stroke="#666666" points="341.5,-134.5 179.5,-134.5 179.5,-115.5 341.5,-115.5 341.5,-134.5"/>
<text text-anchor="middle" x="260.5" y="-122.5" font-family="Helvetica,sans-Serif" font-size="10.00">TechMa/Entities/ATechnician.h</text>
</a>
</g>
</g>
<!-- Node2&#45;&gt;Node3 -->
<g id="edge2_Node000002_Node000003" class="edge">
<title>Node2&#45;&gt;Node3</title>
<g id="a_edge2_Node000002_Node000003"><a xlink:title=" ">
<path fill="none" stroke="#63b8ff" d="M345.58,-175.95C327.22,-165.18 302.02,-150.38 283.81,-139.69"/>
<polygon fill="#63b8ff" stroke="#63b8ff" points="285.4,-136.56 275.01,-134.52 281.86,-142.6 285.4,-136.56"/>
</a>
</g>
</g>
<!-- Node5 -->
<g id="Node000005" class="node">
<title>Node5</title>
<g id="a_Node000005"><a xlink:title=" ">
<polygon fill="#e0e0e0" stroke="#999999" points="401,-74 354,-74 354,-55 401,-55 401,-74"/>
<text text-anchor="middle" x="377.5" y="-62" font-family="Helvetica,sans-Serif" font-size="10.00">vector</text>
</a>
</g>
</g>
<!-- Node2&#45;&gt;Node5 -->
<g id="edge11_Node000002_Node000005" class="edge">
<title>Node2&#45;&gt;Node5</title>
<g id="a_edge11_Node000002_Node000005"><a xlink:title=" ">
<path fill="none" stroke="#63b8ff" d="M370.42,-175.72C371.87,-153.12 374.7,-109.12 376.31,-84.09"/>
<polygon fill="#63b8ff" stroke="#63b8ff" points="379.8,-84.27 376.95,-74.07 372.82,-83.82 379.8,-84.27"/>
</a>
</g>
</g>
<!-- Node2&#45;&gt;Node7 -->
<g id="edge7_Node000002_Node000007" class="edge">
<title>Node2&#45;&gt;Node7</title>
<g id="a_edge7_Node000002_Node000007"><a xlink:title=" ">
<path fill="none" stroke="#63b8ff" d="M306.08,-175.95C261.09,-165.99 200.61,-152.6 153.59,-142.19"/>
<polygon fill="#63b8ff" stroke="#63b8ff" points="154.29,-138.76 143.77,-140.01 152.78,-145.59 154.29,-138.76"/>
</a>
</g>
</g>
<!-- Node8 -->
<g id="Node000008" class="node">
<title>Node8</title>
<g id="a_Node000008"><a xlink:title=" ">
<polygon fill="#e0e0e0" stroke="#999999" points="455.5,-134.5 397.5,-134.5 397.5,-115.5 455.5,-115.5 455.5,-134.5"/>
<text text-anchor="middle" x="426.5" y="-122.5" font-family="Helvetica,sans-Serif" font-size="10.00">memory</text>
</a>
</g>
</g>
<!-- Node2&#45;&gt;Node8 -->
<g id="edge8_Node000002_Node000008" class="edge">
<title>Node2&#45;&gt;Node8</title>
<g id="a_edge8_Node000002_Node000008"><a xlink:title=" ">
<path fill="none" stroke="#63b8ff" d="M382.15,-175.8C390.95,-165.92 402.7,-152.72 411.9,-142.39"/>
<polygon fill="#63b8ff" stroke="#63b8ff" points="414.59,-144.64 418.62,-134.84 409.36,-139.98 414.59,-144.64"/>
</a>
</g>
</g>
<!-- Node9 -->
<g id="Node000009" class="node">
<title>Node9</title>
<g id="a_Node000009"><a xlink:title=" ">
<polygon fill="#e0e0e0" stroke="#999999" points="529.5,-134.5 473.5,-134.5 473.5,-115.5 529.5,-115.5 529.5,-134.5"/>
<text text-anchor="middle" x="501.5" y="-122.5" font-family="Helvetica,sans-Serif" font-size="10.00">optional</text>
</a>
</g>
</g>
<!-- Node2&#45;&gt;Node9 -->
<g id="edge9_Node000002_Node000009" class="edge">
<title>Node2&#45;&gt;Node9</title>
<g id="a_edge9_Node000002_Node000009"><a xlink:title=" ">
<path fill="none" stroke="#63b8ff" d="M398.47,-175.95C421.21,-164.93 452.62,-149.7 474.77,-138.96"/>
<polygon fill="#63b8ff" stroke="#63b8ff" points="476.46,-142.03 483.93,-134.52 473.41,-135.73 476.46,-142.03"/>
</a>
</g>
</g>
<!-- Node10 -->
<g id="Node000010" class="node">
<title>Node10</title>
<g id="a_Node000010"><a xlink:title=" ">
<polygon fill="#e0e0e0" stroke="#999999" points="641,-134.5 548,-134.5 548,-115.5 641,-115.5 641,-134.5"/>
<text text-anchor="middle" x="594.5" y="-122.5" font-family="Helvetica,sans-Serif" font-size="10.00">unordered_map</text>
</a>
</g>
</g>
<!-- Node2&#45;&gt;Node10 -->
<g id="edge10_Node000002_Node000010" class="edge">
<title>Node2&#45;&gt;Node10</title>
<g id="a_edge10_Node000002_Node000010"><a xlink:title=" ">
<path fill="none" stroke="#63b8ff" d="M418.88,-175.95C459.73,-164.34 516.99,-148.05 554.89,-137.27"/>
<polygon fill="#63b8ff" stroke="#63b8ff" points="555.9,-140.62 564.56,-134.52 553.98,-133.89 555.9,-140.62"/>
</a>
</g>
</g>
<!-- Node4 -->
<g id="Node000004" class="node">
<title>Node4</title>
<g id="a_Node000004"><a xlink:title=" ">
<polygon fill="#e0e0e0" stroke="#999999" points="219.5,-19 175.5,-19 175.5,0 219.5,0 219.5,-19"/>
<text text-anchor="middle" x="197.5" y="-7" font-family="Helvetica,sans-Serif" font-size="10.00">string</text>
</a>
</g>
</g>
<!-- Node3&#45;&gt;Node4 -->
<g id="edge3_Node000003_Node000004" class="edge">
<title>Node3&#45;&gt;Node4</title>
<g id="a_edge3_Node000003_Node000004"><a xlink:title=" ">
<path fill="none" stroke="#63b8ff" d="M222.69,-115.41C200.72,-108.26 174.82,-95.65 161.5,-74 151.62,-57.94 165.39,-39.1 178.65,-26.13"/>
<polygon fill="#63b8ff" stroke="#63b8ff" points="181.18,-28.56 186.22,-19.24 176.47,-23.39 181.18,-28.56"/>
</a>
</g>
</g>
<!-- Node3&#45;&gt;Node5 -->
<g id="edge4_Node000003_Node000005" class="edge">
<title>Node3&#45;&gt;Node5</title>
<g id="a_edge4_Node000003_Node000005"><a xlink:title=" ">
<path fill="none" stroke="#63b8ff" d="M277.51,-115.49C296.92,-105.79 328.89,-89.81 351.44,-78.53"/>
<polygon fill="#63b8ff" stroke="#63b8ff" points="353.09,-81.62 360.47,-74.02 349.96,-75.36 353.09,-81.62"/>
</a>
</g>
</g>
<!-- Node6 -->
<g id="Node000006" class="node">
<title>Node6</title>
<g id="a_Node000006"><a xlink:href="ExpertiseField_8h.html" target="_top" xlink:title="Declares the ExpertiseField enum class representing technician specializations, and a utility functio...">
<polygon fill="white" stroke="#666666" points="336,-74 171,-74 171,-55 336,-55 336,-74"/>
<text text-anchor="middle" x="253.5" y="-62" font-family="Helvetica,sans-Serif" font-size="10.00">TechMa/Types/ExpertiseField.h</text>
</a>
</g>
</g>
<!-- Node3&#45;&gt;Node6 -->
<g id="edge5_Node000003_Node000006" class="edge">
<title>Node3&#45;&gt;Node6</title>
<g id="a_edge5_Node000003_Node000006"><a xlink:title=" ">
<path fill="none" stroke="#63b8ff" d="M259.47,-115.37C258.5,-107.25 257.01,-94.81 255.76,-84.39"/>
<polygon fill="#63b8ff" stroke="#63b8ff" points="259.2,-83.68 254.54,-74.17 252.25,-84.51 259.2,-83.68"/>
</a>
</g>
</g>
<!-- Node6&#45;&gt;Node4 -->
<g id="edge6_Node000006_Node000004" class="edge">
<title>Node6&#45;&gt;Node4</title>
<g id="a_edge6_Node000006_Node000004"><a xlink:title=" ">
<path fill="none" stroke="#63b8ff" d="M244.5,-54.98C236.31,-47.23 223.99,-35.58 214.03,-26.14"/>
<polygon fill="#63b8ff" stroke="#63b8ff" points="216.33,-23.5 206.66,-19.17 211.52,-28.59 216.33,-23.5"/>
</a>
</g>
</g>
</g>
</svg>
