<?xml version="1.0" encoding="UTF-8" standalone="no"?>
<!DOCTYPE svg PUBLIC "-//W3C//DTD SVG 1.1//EN"
 "http://www.w3.org/Graphics/SVG/1.1/DTD/svg11.dtd">
<!-- Generated by graphviz version 2.43.0 (0)
 -->
<!-- Title: include/TechMa/Views/Pages/TechniciansPage.h Pages: 1 -->
<svg width="316pt" height="104pt"
 viewBox="0.00 0.00 315.50 104.00" xmlns="http://www.w3.org/2000/svg" xmlns:xlink="http://www.w3.org/1999/xlink">
<g id="graph0" class="graph" transform="scale(1 1) rotate(0) translate(4 100)">
<title>include/TechMa/Views/Pages/TechniciansPage.h</title>
<!-- Node1 -->
<g id="Node000001" class="node">
<title>Node1</title>
<g id="a_Node000001"><a xlink:title="Declares the TechniciansPage class, a QWidget for managing technician&#45;related data in the UI.">
<polygon fill="#999999" stroke="#666666" points="228,-96 88,-96 88,-66 228,-66 228,-96"/>
<text text-anchor="start" x="96" y="-84" font-family="Helvetica,sans-Serif" font-size="10.00">include/TechMa/Views</text>
<text text-anchor="middle" x="158" y="-73" font-family="Helvetica,sans-Serif" font-size="10.00">/Pages/TechniciansPage.h</text>
</a>
</g>
</g>
<!-- Node2 -->
<g id="Node000002" class="node">
<title>Node2</title>
<g id="a_Node000002"><a xlink:href="TechniciansPage_8cpp.html" target="_top" xlink:title="Implements the TechniciansPage class, managing the technician creation and edition UI.">
<polygon fill="white" stroke="#666666" points="154,-30 0,-30 0,0 154,0 154,-30"/>
<text text-anchor="start" x="8" y="-18" font-family="Helvetica,sans-Serif" font-size="10.00">src/Views/Pages/Technicians</text>
<text text-anchor="middle" x="77" y="-7" font-family="Helvetica,sans-Serif" font-size="10.00">Page.cpp</text>
</a>
</g>
</g>
<!-- Node1&#45;&gt;Node2 -->
<g id="edge1_Node000001_Node000002" class="edge">
<title>Node1&#45;&gt;Node2</title>
<g id="a_edge1_Node000001_Node000002"><a xlink:title=" ">
<path fill="none" stroke="#63b8ff" d="M132.03,-59.48C119.92,-49.91 105.82,-38.77 94.93,-30.16"/>
<polygon fill="#63b8ff" stroke="#63b8ff" points="130.01,-62.34 140.02,-65.8 134.35,-56.85 130.01,-62.34"/>
</a>
</g>
</g>
<!-- Node3 -->
<g id="Node000003" class="node">
<title>Node3</title>
<g id="a_Node000003"><a xlink:href="TechMapp_8cpp.html" target="_top" xlink:title="Implements the TechMapp class, the main application window for TechMa.">
<polygon fill="white" stroke="#666666" points="307.5,-24.5 172.5,-24.5 172.5,-5.5 307.5,-5.5 307.5,-24.5"/>
<text text-anchor="middle" x="240" y="-12.5" font-family="Helvetica,sans-Serif" font-size="10.00">src/Views/TechMapp.cpp</text>
</a>
</g>
</g>
<!-- Node1&#45;&gt;Node3 -->
<g id="edge2_Node000001_Node000003" class="edge">
<title>Node1&#45;&gt;Node3</title>
<g id="a_edge2_Node000001_Node000003"><a xlink:title=" ">
<path fill="none" stroke="#63b8ff" d="M184.16,-59.58C199.16,-47.87 217.23,-33.77 228.67,-24.84"/>
<polygon fill="#63b8ff" stroke="#63b8ff" points="181.93,-56.88 176.2,-65.8 186.24,-62.4 181.93,-56.88"/>
</a>
</g>
</g>
</g>
</svg>
