<?xml version="1.0" encoding="UTF-8" standalone="no"?>
<!DOCTYPE svg PUBLIC "-//W3C//DTD SVG 1.1//EN"
 "http://www.w3.org/Graphics/SVG/1.1/DTD/svg11.dtd">
<!-- Generated by graphviz version 2.43.0 (0)
 -->
<!-- Title: src/Views/Controllers/TechListController.cpp Pages: 1 -->
<svg width="871pt" height="280pt"
 viewBox="0.00 0.00 870.50 280.00" xmlns="http://www.w3.org/2000/svg" xmlns:xlink="http://www.w3.org/1999/xlink">
<g id="graph0" class="graph" transform="scale(1 1) rotate(0) translate(4 276)">
<title>src/Views/Controllers/TechListController.cpp</title>
<!-- Node1 -->
<g id="Node000001" class="node">
<title>Node1</title>
<g id="a_Node000001"><a xlink:title="Implements the TechListController class, which manages technician&#45;related combo boxes and observes re...">
<polygon fill="#999999" stroke="#666666" points="680,-272 554,-272 554,-242 680,-242 680,-272"/>
<text text-anchor="start" x="562" y="-260" font-family="Helvetica,sans-Serif" font-size="10.00">src/Views/Controllers</text>
<text text-anchor="middle" x="617" y="-249" font-family="Helvetica,sans-Serif" font-size="10.00">/TechListController.cpp</text>
</a>
</g>
</g>
<!-- Node2 -->
<g id="Node000002" class="node">
<title>Node2</title>
<g id="a_Node000002"><a xlink:href="TechListController_8h.html" target="_top" xlink:title="Declares the TechListController class, a Qt&#45;based controller for managing technician selection UI.">
<polygon fill="white" stroke="#666666" points="226,-206 84,-206 84,-176 226,-176 226,-206"/>
<text text-anchor="start" x="92" y="-194" font-family="Helvetica,sans-Serif" font-size="10.00">TechMa/Views/Controllers</text>
<text text-anchor="middle" x="155" y="-183" font-family="Helvetica,sans-Serif" font-size="10.00">/TechListController.h</text>
</a>
</g>
</g>
<!-- Node1&#45;&gt;Node2 -->
<g id="edge1_Node000001_Node000002" class="edge">
<title>Node1&#45;&gt;Node2</title>
<g id="a_edge1_Node000001_Node000002"><a xlink:title=" ">
<path fill="none" stroke="#63b8ff" d="M553.73,-247.24C471.19,-235.8 326.67,-215.78 236.16,-203.24"/>
<polygon fill="#63b8ff" stroke="#63b8ff" points="236.6,-199.77 226.21,-201.86 235.63,-206.7 236.6,-199.77"/>
</a>
</g>
</g>
<!-- Node5 -->
<g id="Node000005" class="node">
<title>Node5</title>
<g id="a_Node000005"><a xlink:href="TechnicianRepository_8h.html" target="_top" xlink:title="Declares the TechnicianRepository class, responsible for storing and managing technicians.">
<polygon fill="white" stroke="#666666" points="525.5,-206 362.5,-206 362.5,-176 525.5,-176 525.5,-206"/>
<text text-anchor="start" x="370.5" y="-194" font-family="Helvetica,sans-Serif" font-size="10.00">TechMa/Repository/Technician</text>
<text text-anchor="middle" x="444" y="-183" font-family="Helvetica,sans-Serif" font-size="10.00">Repository.h</text>
</a>
</g>
</g>
<!-- Node1&#45;&gt;Node5 -->
<g id="edge4_Node000001_Node000005" class="edge">
<title>Node1&#45;&gt;Node5</title>
<g id="a_edge4_Node000001_Node000005"><a xlink:title=" ">
<path fill="none" stroke="#63b8ff" d="M579.03,-241.95C553.23,-232.41 518.91,-219.71 491.33,-209.51"/>
<polygon fill="#63b8ff" stroke="#63b8ff" points="492.47,-206.2 481.88,-206.01 490.04,-212.76 492.47,-206.2"/>
</a>
</g>
</g>
<!-- Node13 -->
<g id="Node000013" class="node">
<title>Node13</title>
<g id="a_Node000013"><a xlink:href="InterventionComplexity_8h.html" target="_top" xlink:title="Declares the InterventionComplexity enum class representing complexity levels of an intervention.">
<polygon fill="white" stroke="#666666" points="690,-206 544,-206 544,-176 690,-176 690,-206"/>
<text text-anchor="start" x="552" y="-194" font-family="Helvetica,sans-Serif" font-size="10.00">TechMa/Types/Intervention</text>
<text text-anchor="middle" x="617" y="-183" font-family="Helvetica,sans-Serif" font-size="10.00">Complexity.h</text>
</a>
</g>
</g>
<!-- Node1&#45;&gt;Node13 -->
<g id="edge15_Node000001_Node000013" class="edge">
<title>Node1&#45;&gt;Node13</title>
<g id="a_edge15_Node000001_Node000013"><a xlink:title=" ">
<path fill="none" stroke="#63b8ff" d="M617,-241.8C617,-234.34 617,-224.99 617,-216.41"/>
<polygon fill="#63b8ff" stroke="#63b8ff" points="620.5,-216.16 617,-206.16 613.5,-216.16 620.5,-216.16"/>
</a>
</g>
</g>
<!-- Node14 -->
<g id="Node000014" class="node">
<title>Node14</title>
<g id="a_Node000014"><a xlink:title=" ">
<polygon fill="#e0e0e0" stroke="#999999" points="785.5,-200.5 708.5,-200.5 708.5,-181.5 785.5,-181.5 785.5,-200.5"/>
<text text-anchor="middle" x="747" y="-188.5" font-family="Helvetica,sans-Serif" font-size="10.00">QComboBox</text>
</a>
</g>
</g>
<!-- Node1&#45;&gt;Node14 -->
<g id="edge16_Node000001_Node000014" class="edge">
<title>Node1&#45;&gt;Node14</title>
<g id="a_edge16_Node000001_Node000014"><a xlink:title=" ">
<path fill="none" stroke="#63b8ff" d="M645.53,-241.95C667.93,-230.93 698.86,-215.7 720.67,-204.96"/>
<polygon fill="#63b8ff" stroke="#63b8ff" points="722.27,-208.07 729.7,-200.52 719.18,-201.79 722.27,-208.07"/>
</a>
</g>
</g>
<!-- Node15 -->
<g id="Node000015" class="node">
<title>Node15</title>
<g id="a_Node000015"><a xlink:title=" ">
<polygon fill="#e0e0e0" stroke="#999999" points="862.5,-200.5 803.5,-200.5 803.5,-181.5 862.5,-181.5 862.5,-200.5"/>
<text text-anchor="middle" x="833" y="-188.5" font-family="Helvetica,sans-Serif" font-size="10.00">QVariant</text>
</a>
</g>
</g>
<!-- Node1&#45;&gt;Node15 -->
<g id="edge17_Node000001_Node000015" class="edge">
<title>Node1&#45;&gt;Node15</title>
<g id="a_edge17_Node000001_Node000015"><a xlink:title=" ">
<path fill="none" stroke="#63b8ff" d="M671.47,-241.9C706.88,-232.44 753.93,-219.31 795,-206 796.91,-205.38 798.86,-204.73 800.82,-204.05"/>
<polygon fill="#63b8ff" stroke="#63b8ff" points="802.34,-207.23 810.6,-200.59 800,-200.63 802.34,-207.23"/>
</a>
</g>
</g>
<!-- Node3 -->
<g id="Node000003" class="node">
<title>Node3</title>
<g id="a_Node000003"><a xlink:href="ATechnicianObserver_8h.html" target="_top" xlink:title="Declares the ATechnicianObserver interface used for observing technician&#45;related changes.">
<polygon fill="white" stroke="#666666" points="235.5,-140 74.5,-140 74.5,-110 235.5,-110 235.5,-140"/>
<text text-anchor="start" x="82.5" y="-128" font-family="Helvetica,sans-Serif" font-size="10.00">TechMa/Observer/ATechnician</text>
<text text-anchor="middle" x="155" y="-117" font-family="Helvetica,sans-Serif" font-size="10.00">Observer.h</text>
</a>
</g>
</g>
<!-- Node2&#45;&gt;Node3 -->
<g id="edge2_Node000002_Node000003" class="edge">
<title>Node2&#45;&gt;Node3</title>
<g id="a_edge2_Node000002_Node000003"><a xlink:title=" ">
<path fill="none" stroke="#63b8ff" d="M155,-175.8C155,-168.34 155,-158.99 155,-150.41"/>
<polygon fill="#63b8ff" stroke="#63b8ff" points="158.5,-150.16 155,-140.16 151.5,-150.16 158.5,-150.16"/>
</a>
</g>
</g>
<!-- Node4 -->
<g id="Node000004" class="node">
<title>Node4</title>
<g id="a_Node000004"><a xlink:title=" ">
<polygon fill="#e0e0e0" stroke="#999999" points="56,-134.5 0,-134.5 0,-115.5 56,-115.5 56,-134.5"/>
<text text-anchor="middle" x="28" y="-122.5" font-family="Helvetica,sans-Serif" font-size="10.00">QObject</text>
</a>
</g>
</g>
<!-- Node2&#45;&gt;Node4 -->
<g id="edge3_Node000002_Node000004" class="edge">
<title>Node2&#45;&gt;Node4</title>
<g id="a_edge3_Node000002_Node000004"><a xlink:title=" ">
<path fill="none" stroke="#63b8ff" d="M127.13,-175.95C105.35,-164.98 75.3,-149.83 54.01,-139.11"/>
<polygon fill="#63b8ff" stroke="#63b8ff" points="55.41,-135.89 44.9,-134.52 52.26,-142.14 55.41,-135.89"/>
</a>
</g>
</g>
<!-- Node5&#45;&gt;Node3 -->
<g id="edge10_Node000005_Node000003" class="edge">
<title>Node5&#45;&gt;Node3</title>
<g id="a_edge10_Node000005_Node000003"><a xlink:title=" ">
<path fill="none" stroke="#63b8ff" d="M380.58,-175.95C335.59,-165.99 275.11,-152.6 228.09,-142.19"/>
<polygon fill="#63b8ff" stroke="#63b8ff" points="228.79,-138.76 218.27,-140.01 227.28,-145.59 228.79,-138.76"/>
</a>
</g>
</g>
<!-- Node6 -->
<g id="Node000006" class="node">
<title>Node6</title>
<g id="a_Node000006"><a xlink:href="ATechnician_8h.html" target="_top" xlink:title="Defines the abstract base class ATechnician representing a technician entity.">
<polygon fill="white" stroke="#666666" points="416,-134.5 254,-134.5 254,-115.5 416,-115.5 416,-134.5"/>
<text text-anchor="middle" x="335" y="-122.5" font-family="Helvetica,sans-Serif" font-size="10.00">TechMa/Entities/ATechnician.h</text>
</a>
</g>
</g>
<!-- Node5&#45;&gt;Node6 -->
<g id="edge5_Node000005_Node000006" class="edge">
<title>Node5&#45;&gt;Node6</title>
<g id="a_edge5_Node000005_Node000006"><a xlink:title=" ">
<path fill="none" stroke="#63b8ff" d="M420.08,-175.95C401.72,-165.18 376.52,-150.38 358.31,-139.69"/>
<polygon fill="#63b8ff" stroke="#63b8ff" points="359.9,-136.56 349.51,-134.52 356.36,-142.6 359.9,-136.56"/>
</a>
</g>
</g>
<!-- Node8 -->
<g id="Node000008" class="node">
<title>Node8</title>
<g id="a_Node000008"><a xlink:title=" ">
<polygon fill="#e0e0e0" stroke="#999999" points="474.5,-74 427.5,-74 427.5,-55 474.5,-55 474.5,-74"/>
<text text-anchor="middle" x="451" y="-62" font-family="Helvetica,sans-Serif" font-size="10.00">vector</text>
</a>
</g>
</g>
<!-- Node5&#45;&gt;Node8 -->
<g id="edge14_Node000005_Node000008" class="edge">
<title>Node5&#45;&gt;Node8</title>
<g id="a_edge14_Node000005_Node000008"><a xlink:title=" ">
<path fill="none" stroke="#63b8ff" d="M444.8,-175.72C446.07,-153.12 448.55,-109.12 449.95,-84.09"/>
<polygon fill="#63b8ff" stroke="#63b8ff" points="453.45,-84.25 450.52,-74.07 446.46,-83.86 453.45,-84.25"/>
</a>
</g>
</g>
<!-- Node10 -->
<g id="Node000010" class="node">
<title>Node10</title>
<g id="a_Node000010"><a xlink:title=" ">
<polygon fill="#e0e0e0" stroke="#999999" points="530,-134.5 472,-134.5 472,-115.5 530,-115.5 530,-134.5"/>
<text text-anchor="middle" x="501" y="-122.5" font-family="Helvetica,sans-Serif" font-size="10.00">memory</text>
</a>
</g>
</g>
<!-- Node5&#45;&gt;Node10 -->
<g id="edge11_Node000005_Node000010" class="edge">
<title>Node5&#45;&gt;Node10</title>
<g id="a_edge11_Node000005_Node000010"><a xlink:title=" ">
<path fill="none" stroke="#63b8ff" d="M456.65,-175.8C465.45,-165.92 477.2,-152.72 486.4,-142.39"/>
<polygon fill="#63b8ff" stroke="#63b8ff" points="489.09,-144.64 493.12,-134.84 483.86,-139.98 489.09,-144.64"/>
</a>
</g>
</g>
<!-- Node11 -->
<g id="Node000011" class="node">
<title>Node11</title>
<g id="a_Node000011"><a xlink:title=" ">
<polygon fill="#e0e0e0" stroke="#999999" points="604,-134.5 548,-134.5 548,-115.5 604,-115.5 604,-134.5"/>
<text text-anchor="middle" x="576" y="-122.5" font-family="Helvetica,sans-Serif" font-size="10.00">optional</text>
</a>
</g>
</g>
<!-- Node5&#45;&gt;Node11 -->
<g id="edge12_Node000005_Node000011" class="edge">
<title>Node5&#45;&gt;Node11</title>
<g id="a_edge12_Node000005_Node000011"><a xlink:title=" ">
<path fill="none" stroke="#63b8ff" d="M472.97,-175.95C495.71,-164.93 527.12,-149.7 549.27,-138.96"/>
<polygon fill="#63b8ff" stroke="#63b8ff" points="550.96,-142.03 558.43,-134.52 547.91,-135.73 550.96,-142.03"/>
</a>
</g>
</g>
<!-- Node12 -->
<g id="Node000012" class="node">
<title>Node12</title>
<g id="a_Node000012"><a xlink:title=" ">
<polygon fill="#e0e0e0" stroke="#999999" points="715.5,-134.5 622.5,-134.5 622.5,-115.5 715.5,-115.5 715.5,-134.5"/>
<text text-anchor="middle" x="669" y="-122.5" font-family="Helvetica,sans-Serif" font-size="10.00">unordered_map</text>
</a>
</g>
</g>
<!-- Node5&#45;&gt;Node12 -->
<g id="edge13_Node000005_Node000012" class="edge">
<title>Node5&#45;&gt;Node12</title>
<g id="a_edge13_Node000005_Node000012"><a xlink:title=" ">
<path fill="none" stroke="#63b8ff" d="M493.38,-175.95C534.23,-164.34 591.49,-148.05 629.39,-137.27"/>
<polygon fill="#63b8ff" stroke="#63b8ff" points="630.4,-140.62 639.06,-134.52 628.48,-133.89 630.4,-140.62"/>
</a>
</g>
</g>
<!-- Node7 -->
<g id="Node000007" class="node">
<title>Node7</title>
<g id="a_Node000007"><a xlink:title=" ">
<polygon fill="#e0e0e0" stroke="#999999" points="293,-19 249,-19 249,0 293,0 293,-19"/>
<text text-anchor="middle" x="271" y="-7" font-family="Helvetica,sans-Serif" font-size="10.00">string</text>
</a>
</g>
</g>
<!-- Node6&#45;&gt;Node7 -->
<g id="edge6_Node000006_Node000007" class="edge">
<title>Node6&#45;&gt;Node7</title>
<g id="a_edge6_Node000006_Node000007"><a xlink:title=" ">
<path fill="none" stroke="#63b8ff" d="M297.19,-115.41C275.22,-108.26 249.32,-95.65 236,-74 226.18,-58.05 239.6,-39.19 252.56,-26.19"/>
<polygon fill="#63b8ff" stroke="#63b8ff" points="255.04,-28.66 259.96,-19.28 250.27,-23.55 255.04,-28.66"/>
</a>
</g>
</g>
<!-- Node6&#45;&gt;Node8 -->
<g id="edge7_Node000006_Node000008" class="edge">
<title>Node6&#45;&gt;Node8</title>
<g id="a_edge7_Node000006_Node000008"><a xlink:title=" ">
<path fill="none" stroke="#63b8ff" d="M352.12,-115.37C371.22,-105.73 402.37,-90.03 424.6,-78.81"/>
<polygon fill="#63b8ff" stroke="#63b8ff" points="426.46,-81.8 433.81,-74.17 423.31,-75.55 426.46,-81.8"/>
</a>
</g>
</g>
<!-- Node9 -->
<g id="Node000009" class="node">
<title>Node9</title>
<g id="a_Node000009"><a xlink:href="ExpertiseField_8h.html" target="_top" xlink:title="Declares the ExpertiseField enum class representing technician specializations, and a utility functio...">
<polygon fill="white" stroke="#666666" points="409.5,-74 244.5,-74 244.5,-55 409.5,-55 409.5,-74"/>
<text text-anchor="middle" x="327" y="-62" font-family="Helvetica,sans-Serif" font-size="10.00">TechMa/Types/ExpertiseField.h</text>
</a>
</g>
</g>
<!-- Node6&#45;&gt;Node9 -->
<g id="edge8_Node000006_Node000009" class="edge">
<title>Node6&#45;&gt;Node9</title>
<g id="a_edge8_Node000006_Node000009"><a xlink:title=" ">
<path fill="none" stroke="#63b8ff" d="M333.82,-115.37C332.71,-107.25 331.01,-94.81 329.58,-84.39"/>
<polygon fill="#63b8ff" stroke="#63b8ff" points="333.01,-83.6 328.19,-74.17 326.07,-84.55 333.01,-83.6"/>
</a>
</g>
</g>
<!-- Node9&#45;&gt;Node7 -->
<g id="edge9_Node000009_Node000007" class="edge">
<title>Node9&#45;&gt;Node7</title>
<g id="a_edge9_Node000009_Node000007"><a xlink:title=" ">
<path fill="none" stroke="#63b8ff" d="M318,-54.98C309.81,-47.23 297.49,-35.58 287.53,-26.14"/>
<polygon fill="#63b8ff" stroke="#63b8ff" points="289.83,-23.5 280.16,-19.17 285.02,-28.59 289.83,-23.5"/>
</a>
</g>
</g>
</g>
</svg>
