<?xml version="1.0" encoding="UTF-8" standalone="no"?>
<!DOCTYPE svg PUBLIC "-//W3C//DTD SVG 1.1//EN"
 "http://www.w3.org/Graphics/SVG/1.1/DTD/svg11.dtd">
<!-- Generated by graphviz version 2.43.0 (0)
 -->
<!-- Title: hash_password Pages: 1 -->
<svg width="608pt" height="86pt"
 viewBox="0.00 0.00 608.00 86.00" xmlns="http://www.w3.org/2000/svg" xmlns:xlink="http://www.w3.org/1999/xlink">
<g id="graph0" class="graph" transform="scale(1 1) rotate(0) translate(4 82)">
<title>hash_password</title>
<!-- Node1 -->
<g id="Node000001" class="node">
<title>Node1</title>
<g id="a_Node000001"><a xlink:title="Hashes a plain&#45;text password (stub implementation).">
<polygon fill="#999999" stroke="#666666" points="600,-48.5 508,-48.5 508,-29.5 600,-29.5 600,-48.5"/>
<text text-anchor="middle" x="554" y="-36.5" font-family="Helvetica,sans-Serif" font-size="10.00">hash_password</text>
</a>
</g>
</g>
<!-- Node2 -->
<g id="Node000002" class="node">
<title>Node2</title>
<g id="a_Node000002"><a xlink:href="classLoginPage.html#ac14065c6e2529048d568cddef19f3028" target="_top" xlink:title="Attempts to log in with the provided username and password.">
<polygon fill="white" stroke="#666666" points="462.5,-78 351.5,-78 351.5,-48 462.5,-48 462.5,-78"/>
<text text-anchor="start" x="359.5" y="-66" font-family="Helvetica,sans-Serif" font-size="10.00">LoginPage::attempt</text>
<text text-anchor="middle" x="407" y="-55" font-family="Helvetica,sans-Serif" font-size="10.00">_login</text>
</a>
</g>
</g>
<!-- Node1&#45;&gt;Node2 -->
<g id="edge1_Node000001_Node000002" class="edge">
<title>Node1&#45;&gt;Node2</title>
<g id="a_edge1_Node000001_Node000002"><a xlink:title=" ">
<path fill="none" stroke="#63b8ff" d="M497.97,-48.11C486.44,-50.02 474.27,-52.03 462.75,-53.94"/>
<polygon fill="#63b8ff" stroke="#63b8ff" points="498.62,-51.55 507.92,-46.46 497.48,-44.64 498.62,-51.55"/>
</a>
</g>
</g>
<!-- Node5 -->
<g id="Node000005" class="node">
<title>Node5</title>
<g id="a_Node000005"><a xlink:href="classAuthenticationService.html#a974b9f1d74ce8f750564810b81ae4e43" target="_top" xlink:title=" ">
<polygon fill="white" stroke="#666666" points="472,-30 342,-30 342,0 472,0 472,-30"/>
<text text-anchor="start" x="350" y="-18" font-family="Helvetica,sans-Serif" font-size="10.00">AuthenticationService</text>
<text text-anchor="middle" x="407" y="-7" font-family="Helvetica,sans-Serif" font-size="10.00">::AuthenticationService</text>
</a>
</g>
</g>
<!-- Node1&#45;&gt;Node5 -->
<g id="edge4_Node000001_Node000005" class="edge">
<title>Node1&#45;&gt;Node5</title>
<g id="a_edge4_Node000001_Node000005"><a xlink:title=" ">
<path fill="none" stroke="#63b8ff" d="M497.88,-29.88C489.5,-28.49 480.78,-27.05 472.22,-25.63"/>
<polygon fill="#63b8ff" stroke="#63b8ff" points="497.48,-33.36 507.92,-31.54 498.62,-26.45 497.48,-33.36"/>
</a>
</g>
</g>
<!-- Node3 -->
<g id="Node000003" class="node">
<title>Node3</title>
<g id="a_Node000003"><a xlink:href="classLoginPage.html#a7cd454f7668442d809030c3e5e6a66ea" target="_top" xlink:title="Connects UI elements to their respective slots.">
<polygon fill="white" stroke="#666666" points="306,-72.5 158,-72.5 158,-53.5 306,-53.5 306,-72.5"/>
<text text-anchor="middle" x="232" y="-60.5" font-family="Helvetica,sans-Serif" font-size="10.00">LoginPage::setup_connects</text>
</a>
</g>
</g>
<!-- Node2&#45;&gt;Node3 -->
<g id="edge2_Node000002_Node000003" class="edge">
<title>Node2&#45;&gt;Node3</title>
<g id="a_edge2_Node000002_Node000003"><a xlink:title=" ">
<path fill="none" stroke="#63b8ff" d="M340.97,-63C329.58,-63 317.65,-63 306.05,-63"/>
<polygon fill="#63b8ff" stroke="#63b8ff" points="341.26,-66.5 351.26,-63 341.26,-59.5 341.26,-66.5"/>
</a>
</g>
</g>
<!-- Node4 -->
<g id="Node000004" class="node">
<title>Node4</title>
<g id="a_Node000004"><a xlink:href="classLoginPage.html#ac80d4431cd7779e6ae5f8c3b17fe6c3f" target="_top" xlink:title="Constructs the login page UI.">
<polygon fill="white" stroke="#666666" points="122,-72.5 0,-72.5 0,-53.5 122,-53.5 122,-72.5"/>
<text text-anchor="middle" x="61" y="-60.5" font-family="Helvetica,sans-Serif" font-size="10.00">LoginPage::LoginPage</text>
</a>
</g>
</g>
<!-- Node3&#45;&gt;Node4 -->
<g id="edge3_Node000003_Node000004" class="edge">
<title>Node3&#45;&gt;Node4</title>
<g id="a_edge3_Node000003_Node000004"><a xlink:title=" ">
<path fill="none" stroke="#63b8ff" d="M147.72,-63C139.06,-63 130.38,-63 122.05,-63"/>
<polygon fill="#63b8ff" stroke="#63b8ff" points="147.86,-66.5 157.86,-63 147.86,-59.5 147.86,-66.5"/>
</a>
</g>
</g>
</g>
</svg>
