<?xml version="1.0" encoding="UTF-8" standalone="no"?>
<!DOCTYPE svg PUBLIC "-//W3C//DTD SVG 1.1//EN"
 "http://www.w3.org/Graphics/SVG/1.1/DTD/svg11.dtd">
<!-- Generated by graphviz version 2.43.0 (0)
 -->
<!-- Title: include/TechMa/Authentication/UserAuthentication.h Pages: 1 -->
<svg width="1153pt" height="170pt"
 viewBox="0.00 0.00 1152.50 170.00" xmlns="http://www.w3.org/2000/svg" xmlns:xlink="http://www.w3.org/1999/xlink">
<g id="graph0" class="graph" transform="scale(1 1) rotate(0) translate(4 166)">
<title>include/TechMa/Authentication/UserAuthentication.h</title>
<!-- Node1 -->
<g id="Node000001" class="node">
<title>Node1</title>
<g id="a_Node000001"><a xlink:title="Declaration of the User and AuthenticationService classes for managing authentication.">
<polygon fill="#999999" stroke="#666666" points="743.5,-162 577.5,-162 577.5,-132 743.5,-132 743.5,-162"/>
<text text-anchor="start" x="585.5" y="-150" font-family="Helvetica,sans-Serif" font-size="10.00">include/TechMa/Authentication</text>
<text text-anchor="middle" x="660.5" y="-139" font-family="Helvetica,sans-Serif" font-size="10.00">/UserAuthentication.h</text>
</a>
</g>
</g>
<!-- Node2 -->
<g id="Node000002" class="node">
<title>Node2</title>
<g id="a_Node000002"><a xlink:href="InterventionRepositoryProxy_8h.html" target="_top" xlink:title="Declares the InterventionRepositoryProxy class, a proxy to the actual intervention repository.">
<polygon fill="white" stroke="#666666" points="325,-96 158,-96 158,-66 325,-66 325,-96"/>
<text text-anchor="start" x="166" y="-84" font-family="Helvetica,sans-Serif" font-size="10.00">include/TechMa/Repository</text>
<text text-anchor="middle" x="241.5" y="-73" font-family="Helvetica,sans-Serif" font-size="10.00">/InterventionRepositoryProxy.h</text>
</a>
</g>
</g>
<!-- Node1&#45;&gt;Node2 -->
<g id="edge1_Node000001_Node000002" class="edge">
<title>Node1&#45;&gt;Node2</title>
<g id="a_edge1_Node000001_Node000002"><a xlink:title=" ">
<path fill="none" stroke="#63b8ff" d="M567.42,-131.78C494.89,-120.7 395.08,-105.46 325.08,-94.77"/>
<polygon fill="#63b8ff" stroke="#63b8ff" points="567.05,-135.27 577.47,-133.32 568.11,-128.35 567.05,-135.27"/>
</a>
</g>
</g>
<!-- Node4 -->
<g id="Node000004" class="node">
<title>Node4</title>
<g id="a_Node000004"><a xlink:href="InterventionPage_8cpp.html" target="_top" xlink:title="Implements the InterventionPage class, a QWidget handling intervention&#45;related UI and interactions.">
<polygon fill="white" stroke="#666666" points="157,-30 0,-30 0,0 157,0 157,-30"/>
<text text-anchor="start" x="8" y="-18" font-family="Helvetica,sans-Serif" font-size="10.00">src/Views/Pages/Intervention</text>
<text text-anchor="middle" x="78.5" y="-7" font-family="Helvetica,sans-Serif" font-size="10.00">Page.cpp</text>
</a>
</g>
</g>
<!-- Node1&#45;&gt;Node4 -->
<g id="edge16_Node000001_Node000004" class="edge">
<title>Node1&#45;&gt;Node4</title>
<g id="a_edge16_Node000001_Node000004"><a xlink:title=" ">
<path fill="none" stroke="#63b8ff" d="M567.2,-145.03C439.85,-142.34 219.32,-132.39 148.5,-96 119.61,-81.16 97.36,-48.91 86.27,-30.21"/>
<polygon fill="#63b8ff" stroke="#63b8ff" points="567.27,-148.54 577.33,-145.24 567.41,-141.54 567.27,-148.54"/>
</a>
</g>
</g>
<!-- Node5 -->
<g id="Node000005" class="node">
<title>Node5</title>
<g id="a_Node000005"><a xlink:href="TechnicianRepositoryProxy_8h.html" target="_top" xlink:title="Declares the TechnicianRepositoryProxy class and the AccessDeniedException.">
<polygon fill="white" stroke="#666666" points="500.5,-96 342.5,-96 342.5,-66 500.5,-66 500.5,-96"/>
<text text-anchor="start" x="350.5" y="-84" font-family="Helvetica,sans-Serif" font-size="10.00">include/TechMa/Repository</text>
<text text-anchor="middle" x="421.5" y="-73" font-family="Helvetica,sans-Serif" font-size="10.00">/TechnicianRepositoryProxy.h</text>
</a>
</g>
</g>
<!-- Node1&#45;&gt;Node5 -->
<g id="edge4_Node000001_Node000005" class="edge">
<title>Node1&#45;&gt;Node5</title>
<g id="a_edge4_Node000001_Node000005"><a xlink:title=" ">
<path fill="none" stroke="#63b8ff" d="M597.96,-129.25C559.35,-118.91 510.38,-105.8 473.83,-96.01"/>
<polygon fill="#63b8ff" stroke="#63b8ff" points="597.49,-132.75 608.05,-131.95 599.3,-125.99 597.49,-132.75"/>
</a>
</g>
</g>
<!-- Node7 -->
<g id="Node000007" class="node">
<title>Node7</title>
<g id="a_Node000007"><a xlink:href="TechniciansPage_8cpp.html" target="_top" xlink:title="Implements the TechniciansPage class, managing the technician creation and edition UI.">
<polygon fill="white" stroke="#666666" points="654.5,-30 500.5,-30 500.5,0 654.5,0 654.5,-30"/>
<text text-anchor="start" x="508.5" y="-18" font-family="Helvetica,sans-Serif" font-size="10.00">src/Views/Pages/Technicians</text>
<text text-anchor="middle" x="577.5" y="-7" font-family="Helvetica,sans-Serif" font-size="10.00">Page.cpp</text>
</a>
</g>
</g>
<!-- Node1&#45;&gt;Node7 -->
<g id="edge18_Node000001_Node000007" class="edge">
<title>Node1&#45;&gt;Node7</title>
<g id="a_edge18_Node000001_Node000007"><a xlink:title=" ">
<path fill="none" stroke="#63b8ff" d="M645.88,-123.1C628.72,-96.23 600.8,-52.5 586.53,-30.14"/>
<polygon fill="#63b8ff" stroke="#63b8ff" points="643.13,-125.3 651.46,-131.84 649.03,-121.53 643.13,-125.3"/>
</a>
</g>
</g>
<!-- Node8 -->
<g id="Node000008" class="node">
<title>Node8</title>
<g id="a_Node000008"><a xlink:href="LoginPage_8h.html" target="_top" xlink:title="Declares the LoginPage class, the user interface component for login and authentication.">
<polygon fill="white" stroke="#666666" points="812.5,-96 688.5,-96 688.5,-66 812.5,-66 812.5,-96"/>
<text text-anchor="start" x="696.5" y="-84" font-family="Helvetica,sans-Serif" font-size="10.00">include/TechMa/Views</text>
<text text-anchor="middle" x="750.5" y="-73" font-family="Helvetica,sans-Serif" font-size="10.00">/Pages/LoginPage.h</text>
</a>
</g>
</g>
<!-- Node1&#45;&gt;Node8 -->
<g id="edge9_Node000001_Node000008" class="edge">
<title>Node1&#45;&gt;Node8</title>
<g id="a_edge9_Node000001_Node000008"><a xlink:title=" ">
<path fill="none" stroke="#63b8ff" d="M688.97,-125.75C702.51,-116.13 718.36,-104.86 730.58,-96.16"/>
<polygon fill="#63b8ff" stroke="#63b8ff" points="686.6,-123.15 680.47,-131.8 690.65,-128.85 686.6,-123.15"/>
</a>
</g>
</g>
<!-- Node9 -->
<g id="Node000009" class="node">
<title>Node9</title>
<g id="a_Node000009"><a xlink:href="LoginPage_8cpp.html" target="_top" xlink:title="Implements the LoginPage class, handling user login/logout UI and interactions.">
<polygon fill="white" stroke="#666666" points="840,-24.5 673,-24.5 673,-5.5 840,-5.5 840,-24.5"/>
<text text-anchor="middle" x="756.5" y="-12.5" font-family="Helvetica,sans-Serif" font-size="10.00">src/Views/Pages/LoginPage.cpp</text>
</a>
</g>
</g>
<!-- Node1&#45;&gt;Node9 -->
<g id="edge17_Node000001_Node000009" class="edge">
<title>Node1&#45;&gt;Node9</title>
<g id="a_edge17_Node000001_Node000009"><a xlink:title=" ">
<path fill="none" stroke="#63b8ff" d="M661.56,-121.77C663.36,-104.82 667.96,-82.37 679.5,-66 693.28,-46.46 717.34,-32.65 734.91,-24.57"/>
<polygon fill="#63b8ff" stroke="#63b8ff" points="658.06,-121.75 660.74,-132 665.03,-122.31 658.06,-121.75"/>
</a>
</g>
</g>
<!-- Node10 -->
<g id="Node000010" class="node">
<title>Node10</title>
<g id="a_Node000010"><a xlink:href="TechMapp_8cpp.html" target="_top" xlink:title="Implements the TechMapp class, the main application window for TechMa.">
<polygon fill="white" stroke="#666666" points="993,-24.5 858,-24.5 858,-5.5 993,-5.5 993,-24.5"/>
<text text-anchor="middle" x="925.5" y="-12.5" font-family="Helvetica,sans-Serif" font-size="10.00">src/Views/TechMapp.cpp</text>
</a>
</g>
</g>
<!-- Node1&#45;&gt;Node10 -->
<g id="edge19_Node000001_Node000010" class="edge">
<title>Node1&#45;&gt;Node10</title>
<g id="a_edge19_Node000001_Node000010"><a xlink:title=" ">
<path fill="none" stroke="#63b8ff" d="M734.36,-129.2C762.54,-121.23 794.4,-110.27 821.5,-96 840.54,-85.97 842.48,-79.16 859.5,-66 878.38,-51.4 900.52,-34.71 913.76,-24.78"/>
<polygon fill="#63b8ff" stroke="#63b8ff" points="733.27,-125.87 724.55,-131.9 735.12,-132.62 733.27,-125.87"/>
</a>
</g>
</g>
<!-- Node11 -->
<g id="Node000011" class="node">
<title>Node11</title>
<g id="a_Node000011"><a xlink:href="TechMapp_8h.html" target="_top" xlink:title="Declares the TechMapp class, the main application window for the TechMa system.">
<polygon fill="white" stroke="#666666" points="992.5,-96 868.5,-96 868.5,-66 992.5,-66 992.5,-96"/>
<text text-anchor="start" x="876.5" y="-84" font-family="Helvetica,sans-Serif" font-size="10.00">include/TechMa/Views</text>
<text text-anchor="middle" x="930.5" y="-73" font-family="Helvetica,sans-Serif" font-size="10.00">/TechMapp.h</text>
</a>
</g>
</g>
<!-- Node1&#45;&gt;Node11 -->
<g id="edge12_Node000001_Node000011" class="edge">
<title>Node1&#45;&gt;Node11</title>
<g id="a_edge12_Node000001_Node000011"><a xlink:title=" ">
<path fill="none" stroke="#63b8ff" d="M729.48,-129.65C773.35,-119.25 829.57,-105.93 871.39,-96.01"/>
<polygon fill="#63b8ff" stroke="#63b8ff" points="728.68,-126.24 719.75,-131.95 730.29,-133.05 728.68,-126.24"/>
</a>
</g>
</g>
<!-- Node13 -->
<g id="Node000013" class="node">
<title>Node13</title>
<g id="a_Node000013"><a xlink:href="UserAuthentication_8cpp.html" target="_top" xlink:title="Implements the User and AuthenticationService classes.">
<polygon fill="white" stroke="#666666" points="1144.5,-96 1010.5,-96 1010.5,-66 1144.5,-66 1144.5,-96"/>
<text text-anchor="start" x="1018.5" y="-84" font-family="Helvetica,sans-Serif" font-size="10.00">src/Authentication</text>
<text text-anchor="middle" x="1077.5" y="-73" font-family="Helvetica,sans-Serif" font-size="10.00">/UserAuthentication.cpp</text>
</a>
</g>
</g>
<!-- Node1&#45;&gt;Node13 -->
<g id="edge15_Node000001_Node000013" class="edge">
<title>Node1&#45;&gt;Node13</title>
<g id="a_edge15_Node000001_Node000013"><a xlink:title=" ">
<path fill="none" stroke="#63b8ff" d="M753.59,-133.29C822.22,-123.69 917.8,-109.84 1001.5,-96 1004.41,-95.52 1007.38,-95.02 1010.39,-94.5"/>
<polygon fill="#63b8ff" stroke="#63b8ff" points="753.09,-129.82 743.67,-134.67 754.05,-136.76 753.09,-129.82"/>
</a>
</g>
</g>
<!-- Node3 -->
<g id="Node000003" class="node">
<title>Node3</title>
<g id="a_Node000003"><a xlink:href="InterventionRepositoryProxy_8cpp.html" target="_top" xlink:title="Implements the InterventionRepositoryProxy class, a secure proxy to the InterventionRepository.">
<polygon fill="white" stroke="#666666" points="324,-30 175,-30 175,0 324,0 324,-30"/>
<text text-anchor="start" x="183" y="-18" font-family="Helvetica,sans-Serif" font-size="10.00">src/Repository/Intervention</text>
<text text-anchor="middle" x="249.5" y="-7" font-family="Helvetica,sans-Serif" font-size="10.00">RepositoryProxy.cpp</text>
</a>
</g>
</g>
<!-- Node2&#45;&gt;Node3 -->
<g id="edge2_Node000002_Node000003" class="edge">
<title>Node2&#45;&gt;Node3</title>
<g id="a_edge2_Node000002_Node000003"><a xlink:title=" ">
<path fill="none" stroke="#63b8ff" d="M244.52,-55.83C245.6,-47.17 246.79,-37.7 247.73,-30.16"/>
<polygon fill="#63b8ff" stroke="#63b8ff" points="241.04,-55.44 243.28,-65.8 247.99,-56.31 241.04,-55.44"/>
</a>
</g>
</g>
<!-- Node2&#45;&gt;Node4 -->
<g id="edge3_Node000002_Node000004" class="edge">
<title>Node2&#45;&gt;Node4</title>
<g id="a_edge3_Node000002_Node000004"><a xlink:title=" ">
<path fill="none" stroke="#63b8ff" d="M196.14,-62.19C170.25,-52.02 138.27,-39.47 114.19,-30.01"/>
<polygon fill="#63b8ff" stroke="#63b8ff" points="195.14,-65.56 205.73,-65.95 197.7,-59.04 195.14,-65.56"/>
</a>
</g>
</g>
<!-- Node5&#45;&gt;Node3 -->
<g id="edge5_Node000005_Node000003" class="edge">
<title>Node5&#45;&gt;Node3</title>
<g id="a_edge5_Node000005_Node000003"><a xlink:title=" ">
<path fill="none" stroke="#63b8ff" d="M374.35,-62.46C346.91,-52.25 312.79,-39.55 287.16,-30.01"/>
<polygon fill="#63b8ff" stroke="#63b8ff" points="373.16,-65.75 383.75,-65.95 375.6,-59.19 373.16,-65.75"/>
</a>
</g>
</g>
<!-- Node5&#45;&gt;Node4 -->
<g id="edge7_Node000005_Node000004" class="edge">
<title>Node5&#45;&gt;Node4</title>
<g id="a_edge7_Node000005_Node000004"><a xlink:title=" ">
<path fill="none" stroke="#63b8ff" d="M336.31,-64.11C280.24,-53.64 207.51,-40.07 153.6,-30.01"/>
<polygon fill="#63b8ff" stroke="#63b8ff" points="335.75,-67.56 346.23,-65.95 337.04,-60.68 335.75,-67.56"/>
</a>
</g>
</g>
<!-- Node6 -->
<g id="Node000006" class="node">
<title>Node6</title>
<g id="a_Node000006"><a xlink:href="TechnicianRepositoryProxy_8cpp.html" target="_top" xlink:title="Implements the TechnicianRepositoryProxy class and AccessDeniedException.">
<polygon fill="white" stroke="#666666" points="482.5,-30 342.5,-30 342.5,0 482.5,0 482.5,-30"/>
<text text-anchor="start" x="350.5" y="-18" font-family="Helvetica,sans-Serif" font-size="10.00">src/Repository/Technician</text>
<text text-anchor="middle" x="412.5" y="-7" font-family="Helvetica,sans-Serif" font-size="10.00">RepositoryProxy.cpp</text>
</a>
</g>
</g>
<!-- Node5&#45;&gt;Node6 -->
<g id="edge6_Node000005_Node000006" class="edge">
<title>Node5&#45;&gt;Node6</title>
<g id="a_edge6_Node000005_Node000006"><a xlink:title=" ">
<path fill="none" stroke="#63b8ff" d="M418.1,-55.83C416.88,-47.17 415.55,-37.7 414.49,-30.16"/>
<polygon fill="#63b8ff" stroke="#63b8ff" points="414.64,-56.38 419.5,-65.8 421.58,-55.41 414.64,-56.38"/>
</a>
</g>
</g>
<!-- Node5&#45;&gt;Node7 -->
<g id="edge8_Node000005_Node000007" class="edge">
<title>Node5&#45;&gt;Node7</title>
<g id="a_edge8_Node000005_Node000007"><a xlink:title=" ">
<path fill="none" stroke="#63b8ff" d="M465.24,-62.05C489.96,-51.91 520.4,-39.43 543.34,-30.01"/>
<polygon fill="#63b8ff" stroke="#63b8ff" points="463.66,-58.92 455.73,-65.95 466.32,-65.4 463.66,-58.92"/>
</a>
</g>
</g>
<!-- Node8&#45;&gt;Node9 -->
<g id="edge10_Node000008_Node000009" class="edge">
<title>Node8&#45;&gt;Node9</title>
<g id="a_edge10_Node000008_Node000009"><a xlink:title=" ">
<path fill="none" stroke="#63b8ff" d="M752.79,-55.6C753.8,-44.8 754.93,-32.78 755.67,-24.84"/>
<polygon fill="#63b8ff" stroke="#63b8ff" points="749.28,-55.51 751.83,-65.8 756.25,-56.17 749.28,-55.51"/>
</a>
</g>
</g>
<!-- Node8&#45;&gt;Node10 -->
<g id="edge11_Node000008_Node000010" class="edge">
<title>Node8&#45;&gt;Node10</title>
<g id="a_edge11_Node000008_Node000010"><a xlink:title=" ">
<path fill="none" stroke="#63b8ff" d="M798.57,-62.42C832.29,-50.09 875.88,-34.15 902.21,-24.52"/>
<polygon fill="#63b8ff" stroke="#63b8ff" points="797.09,-59.23 788.9,-65.95 799.5,-65.81 797.09,-59.23"/>
</a>
</g>
</g>
<!-- Node11&#45;&gt;Node10 -->
<g id="edge13_Node000011_Node000010" class="edge">
<title>Node11&#45;&gt;Node10</title>
<g id="a_edge13_Node000011_Node000010"><a xlink:title=" ">
<path fill="none" stroke="#63b8ff" d="M928.59,-55.6C927.75,-44.8 926.81,-32.78 926.19,-24.84"/>
<polygon fill="#63b8ff" stroke="#63b8ff" points="925.12,-56.1 929.39,-65.8 932.1,-55.55 925.12,-56.1"/>
</a>
</g>
</g>
<!-- Node12 -->
<g id="Node000012" class="node">
<title>Node12</title>
<g id="a_Node000012"><a xlink:href="main_8cpp.html" target="_top" xlink:title="Entry point for the TechMa application.">
<polygon fill="white" stroke="#666666" points="1090,-24.5 1011,-24.5 1011,-5.5 1090,-5.5 1090,-24.5"/>
<text text-anchor="middle" x="1050.5" y="-12.5" font-family="Helvetica,sans-Serif" font-size="10.00">src/main.cpp</text>
</a>
</g>
</g>
<!-- Node11&#45;&gt;Node12 -->
<g id="edge14_Node000011_Node000012" class="edge">
<title>Node11&#45;&gt;Node12</title>
<g id="a_edge14_Node000011_Node000012"><a xlink:title=" ">
<path fill="none" stroke="#63b8ff" d="M965.87,-61.14C988.62,-49 1017.09,-33.82 1034.53,-24.52"/>
<polygon fill="#63b8ff" stroke="#63b8ff" points="964.01,-58.16 956.83,-65.95 967.31,-64.34 964.01,-58.16"/>
</a>
</g>
</g>
</g>
</svg>
